<?xml version="1.0" encoding="UTF-8" standalone="no"?>
<!-- Created with Inkscape (http://www.inkscape.org/) -->

<svg
   xmlns:dc="http://purl.org/dc/elements/1.1/"
   xmlns:cc="http://creativecommons.org/ns#"
   xmlns:rdf="http://www.w3.org/1999/02/22-rdf-syntax-ns#"
   xmlns:svg="http://www.w3.org/2000/svg"
   xmlns="http://www.w3.org/2000/svg"
   xmlns:sodipodi="http://sodipodi.sourceforge.net/DTD/sodipodi-0.dtd"
   xmlns:inkscape="http://www.inkscape.org/namespaces/inkscape"
   width="500"
   height="337"
   id="svg2"
   version="1.1"
   inkscape:version="0.92.2 (5c3e80d, 2017-08-06)"
   sodipodi:docname="last-ack.svg"
   inkscape:export-filename="/home/bernat/code/perso/www.luffy.cx/content/media/images/tcp/last-ack.png"
   inkscape:export-xdpi="82.790001"
   inkscape:export-ydpi="82.790001"
   viewBox="0 0 543.94 366.61555">
  <defs
     id="defs4">
    <marker
       inkscape:stockid="Arrow1Lend"
       orient="auto"
       refY="0"
       refX="0"
       id="Arrow1Lend"
       style="overflow:visible">
      <path
         id="path3946"
         d="M 0,0 5,-5 -12.5,0 5,5 Z"
         style="fill-rule:evenodd;stroke:#000000;stroke-width:1.00000003pt"
         transform="matrix(-0.8,0,0,-0.8,-10,0)"
         inkscape:connector-curvature="0" />
    </marker>
  </defs>
  <sodipodi:namedview
     id="base"
     pagecolor="#ffffff"
     bordercolor="#666666"
     borderopacity="1.0"
     inkscape:pageopacity="0.0"
     inkscape:pageshadow="2"
     inkscape:zoom="1.4"
     inkscape:cx="248.46861"
     inkscape:cy="142.77373"
     inkscape:document-units="px"
     inkscape:current-layer="layer1"
     showgrid="false"
     fit-margin-top="5"
     fit-margin-left="5"
     fit-margin-right="5"
     fit-margin-bottom="5"
     inkscape:window-width="1912"
     inkscape:window-height="1056"
     inkscape:window-x="1920"
     inkscape:window-y="16"
     inkscape:window-maximized="0" />
  <metadata
     id="metadata7">
    <rdf:RDF>
      <cc:Work
         rdf:about="">
        <dc:format>image/svg+xml</dc:format>
        <dc:type
           rdf:resource="http://purl.org/dc/dcmitype/StillImage" />
        <dc:title></dc:title>
      </cc:Work>
    </rdf:RDF>
  </metadata>
  <g
     inkscape:label="Layer 1"
     inkscape:groupmode="layer"
     id="layer1"
     transform="translate(-43.198982,-213.51445)">
    <path
       style="fill:none;stroke:#000000;stroke-width:6;stroke-linecap:round;stroke-linejoin:miter;stroke-miterlimit:4;stroke-dasharray:none;stroke-opacity:1"
       d="m 176.85714,222.36217 v 349.2857"
       id="path2985"
       inkscape:connector-curvature="0" />
    <path
       inkscape:connector-curvature="0"
       id="path3755"
       d="m 428.85714,222.36217 v 349.2857"
       style="fill:none;stroke:#000000;stroke-width:6;stroke-linecap:round;stroke-linejoin:miter;stroke-miterlimit:4;stroke-dasharray:none;stroke-opacity:1" />
    <path
       style="fill:none;stroke:#000000;stroke-width:1px;stroke-linecap:butt;stroke-linejoin:miter;stroke-opacity:1;marker-start:none;marker-end:url(#Arrow1Lend)"
       d="m 188.57143,250.21932 228.74791,31.29282"
       id="path3757"
       inkscape:connector-curvature="0"
       sodipodi:nodetypes="cc" />
    <path
       inkscape:connector-curvature="0"
       id="path4383"
       d="m 188.57143,274.21932 228.74791,31.29282"
       style="fill:none;stroke:#000000;stroke-width:1px;stroke-linecap:butt;stroke-linejoin:miter;stroke-opacity:1;marker-start:none;marker-end:url(#Arrow1Lend)"
       sodipodi:nodetypes="cc" />
    <path
       inkscape:connector-curvature="0"
       id="path4387"
       d="M 417.31934,312.21932 188.57143,343.51214"
       style="fill:none;stroke:#000000;stroke-width:1px;stroke-linecap:butt;stroke-linejoin:miter;stroke-opacity:1;marker-start:none;marker-end:url(#Arrow1Lend)"
       sodipodi:nodetypes="cc" />
    <g
       aria-label="FIN"
       transform="rotate(180,313.97494,324.98969)"
       style="font-style:normal;font-variant:normal;font-weight:normal;font-stretch:normal;font-size:18px;line-height:0%;font-family:'Droid Sans';-inkscape-font-specification:'Droid Sans';text-align:start;letter-spacing:0px;word-spacing:0px;text-anchor:start;fill:#000000;fill-opacity:1;stroke:none"
       id="text4454">
      <path
         d="m 413.96677,312.67796 1.61968,-0.22157 1.74161,12.73103 -6.60934,0.90416 -0.19536,-1.4281 4.98966,-0.68259 -0.61469,-4.4933 -4.65876,0.63731 -0.19536,-1.4281 4.65876,-0.63732 z"
         style=""
         id="path5467" />
      <path
         d="m 403.21245,314.14915 4.61521,-0.63136 0.12151,0.88821 -1.44892,0.56192 1.40091,10.24056 1.54661,0.15213 0.12151,0.88821 -4.61522,0.63137 -0.12151,-0.88822 1.44893,-0.56192 -1.40092,-10.24056 -1.54661,-0.15213 z"
         style=""
         id="path5469" />
      <path
         d="m 391.21289,315.79069 1.87221,-0.25612 7.70244,9.68012 0.0697,-0.01 q -0.14397,-0.66337 -0.26934,-1.32041 -0.11226,-0.56125 -0.21426,-1.17713 -0.1107,-0.61469 -0.1786,-1.11105 l -0.94467,-6.90541 1.49777,-0.20489 1.74161,12.73103 -1.85479,0.25374 -7.66917,-9.63145 -0.0609,0.008 q 0.11666,0.65823 0.23964,1.29786 0.0468,0.27746 0.10356,0.56244 0.0492,0.29488 0.10593,0.57986 0.0492,0.29488 0.0949,0.56363 0.0369,0.26995 0.0679,0.49636 l 0.953,6.96636 -1.51518,0.20728 z"
         style=""
         id="path5471" />
    </g>
    <path
       sodipodi:nodetypes="cc"
       inkscape:connector-curvature="0"
       id="path4460"
       d="m 188.57143,348.21932 228.74791,31.29282"
       style="fill:none;stroke:#000000;stroke-width:1px;stroke-linecap:butt;stroke-linejoin:miter;stroke-opacity:1;marker-start:none;marker-end:url(#Arrow1Lend)" />
    <g
       aria-label="FIN,ACK"
       transform="translate(141.6183,113.85714)"
       style="font-style:normal;font-variant:normal;font-weight:normal;font-stretch:normal;font-size:18px;line-height:0%;font-family:'Droid Sans';-inkscape-font-specification:'Droid Sans';text-align:start;letter-spacing:0px;word-spacing:0px;text-anchor:start;fill:#000000;fill-opacity:1;stroke:none"
       id="use4462">
      <path
         d="m 191.92399,250.67795 -1.61968,-0.22158 1.74161,-12.73103 6.60934,0.90416 -0.19536,1.4281 -4.98966,-0.68258 -0.61469,4.4933 4.65876,0.63732 -0.19537,1.42811 -4.65876,-0.63732 z"
         style=""
         id="path5474" />
      <path
         d="m 202.67832,252.14915 -4.61522,-0.63136 0.12151,-0.88821 1.54661,-0.15213 1.40091,-10.24056 -1.44893,-0.56193 0.12151,-0.88821 4.61522,0.63137 -0.12151,0.88821 -1.54661,0.15213 -1.40091,10.24056 1.44892,0.56192 z"
         style=""
         id="path5476" />
      <path
         d="m 214.67789,253.7907 -1.87221,-0.25612 -4.81961,-11.39314 -0.0697,-0.01 q -0.0395,0.67766 -0.0952,1.34423 -0.0426,0.57079 -0.10977,1.19143 -0.0584,0.62184 -0.12635,1.1182 l -0.94467,6.90541 -1.49777,-0.2049 1.74162,-12.73103 1.85479,0.25373 4.80063,11.33732 0.061,0.008 q 0.0644,-0.66538 0.11773,-1.31453 0.0294,-0.27985 0.0513,-0.56959 0.0318,-0.29726 0.0537,-0.58701 0.0318,-0.29726 0.06,-0.5684 0.0369,-0.26995 0.0679,-0.49635 l 0.953,-6.96637 1.51519,0.20728 z"
         style=""
         id="path5478" />
      <path
         d="m 219.83787,252.3853 0.10322,0.21816 q -0.18624,0.45355 -0.43307,0.96091 -0.23811,0.50855 -0.52096,1.01985 -0.27414,0.5125 -0.57322,1.01271 -0.29155,0.51011 -0.57596,0.96798 l -1.2017,-0.16439 q 0.20329,-0.51332 0.40382,-1.07137 0.20924,-0.55686 0.40107,-1.11609 0.19934,-0.54934 0.36899,-1.07613 0.17083,-0.5355 0.30363,-0.98749 z"
         style=""
         id="path5480" />
      <path
         d="m 230.04743,255.89326 -0.85364,-4.1353 -4.74583,-0.64924 -1.95033,3.75173 -1.6371,-0.22396 6.42494,-12.14358 1.48035,0.20251 2.93612,13.42418 z m -1.17085,-5.6424 -0.78368,-3.86848 q -0.0308,-0.16389 -0.0782,-0.40102 -0.0387,-0.23594 -0.0813,-0.5079 -0.0426,-0.27196 -0.0829,-0.56133 -0.0391,-0.29809 -0.0718,-0.57756 -0.0979,0.2616 -0.21557,0.53825 -0.11769,0.27664 -0.23299,0.53586 -0.1141,0.25052 -0.22345,0.46621 -0.0994,0.20816 -0.17194,0.34905 l -1.76775,3.51945 z"
         style=""
         id="path5482" />
      <path
         d="m 239.99575,245.55344 q -0.93175,-0.12746 -1.73819,0.12592 -0.80524,0.24468 -1.43567,0.83263 -0.62172,0.58914 -1.04764,1.4978 -0.41721,0.90986 -0.58041,2.10285 -0.16796,1.22782 -0.0465,2.22024 0.13139,0.98491 0.55582,1.70829 0.42442,0.72338 1.14426,1.16782 0.71984,0.44444 1.74738,0.58501 0.77501,0.10602 1.4919,0.0533 0.71808,-0.0614 1.4247,-0.16881 l -0.19298,1.41069 q -0.35748,0.0842 -0.71139,0.14219 -0.35271,0.0493 -0.73549,0.0591 -0.37408,0.0109 -0.80434,-0.0213 -0.42275,-0.0223 -0.93652,-0.0926 -1.4281,-0.19537 -2.40873,-0.80855 -0.98063,-0.61318 -1.55062,-1.56937 -0.56129,-0.95501 -0.72661,-2.21068 -0.16532,-1.25568 0.036,-2.72732 0.19774,-1.44552 0.73658,-2.596 0.54754,-1.14928 1.39695,-1.9113 0.85811,-0.76084 2.01212,-1.09087 1.15401,-0.33003 2.5647,-0.13704 0.94046,0.12865 1.76763,0.43697 0.82718,0.30832 1.46507,0.76816 l -0.86505,1.26552 q -0.51049,-0.3537 -1.12748,-0.64214 -0.61699,-0.28843 -1.43553,-0.40041 z"
         style=""
         id="path5484" />
      <path
         d="m 252.60976,258.97978 -1.83738,-0.25135 -3.0958,-6.61541 -1.3462,0.82712 -0.6957,5.08545 -1.61968,-0.22158 1.74161,-12.73103 1.61969,0.22157 -0.87081,6.36552 1.25379,-1.3188 4.60668,-4.36413 1.81996,0.24897 -5.28697,4.92752 z"
         style=""
         id="path5486" />
    </g>
    <path
       sodipodi:nodetypes="cc"
       style="fill:none;stroke:#000000;stroke-width:1px;stroke-linecap:butt;stroke-linejoin:miter;stroke-opacity:1;marker-start:none;marker-end:url(#Arrow1Lend)"
       d="M 417.31934,386.21932 280,407.51214"
       id="use4468"
       inkscape:connector-curvature="0" />
    <g
       aria-label="ACK"
       transform="rotate(180,390.7699,362.20398)"
       style="font-style:normal;font-variant:normal;font-weight:normal;font-stretch:normal;font-size:18px;line-height:0%;font-family:'Droid Sans';-inkscape-font-specification:'Droid Sans';text-align:start;letter-spacing:0px;word-spacing:0px;text-anchor:start;fill:#000000;fill-opacity:1;stroke:none"
       id="text4470">
      <path
         d="m 408.13244,313.4761 1.93291,3.75411 4.74584,-0.64924 0.87105,-4.13768 1.6371,-0.22396 -2.92742,13.42298 -1.48035,0.20252 -6.43364,-12.14239 z m 2.64324,5.12063 1.79386,3.51587 q 0.0737,0.1496 0.18304,0.36529 0.10064,0.21687 0.21474,0.46739 0.11411,0.25052 0.23061,0.51845 0.11768,0.27664 0.22427,0.53706 0.024,-0.27829 0.0631,-0.57637 0.0391,-0.29808 0.0805,-0.57875 0.0426,-0.27196 0.09,-0.50909 0.0399,-0.22723 0.0719,-0.38241 l 0.75757,-3.86491 z"
         style=""
         id="path5489" />
      <path
         d="m 401.32665,326.10786 q 0.93175,-0.12747 1.6405,-0.58813 0.70994,-0.45196 1.1593,-1.18762 0.44065,-0.73447 0.60687,-1.72414 0.15752,-0.98848 -0.006,-2.18147 -0.16797,-1.22782 -0.55154,-2.15115 -0.39108,-0.91343 -0.99419,-1.49624 -0.60312,-0.58282 -1.41588,-0.8176 -0.81276,-0.23478 -1.84029,-0.0942 -0.77501,0.10602 -1.4514,0.34936 -0.67519,0.25204 -1.32701,0.54524 l -0.19299,-1.41069 q 0.32174,-0.17708 0.64706,-0.32803 0.32651,-0.14225 0.69261,-0.25443 0.3574,-0.11099 0.78051,-0.19548 0.41322,-0.092 0.92699,-0.1623 1.4281,-0.19536 2.53739,0.13192 1.10928,0.32728 1.91514,1.09526 0.79716,0.76917 1.29364,1.93431 0.49649,1.16513 0.69781,2.63678 0.19775,1.44552 -0.0123,2.69844 -0.21876,1.25412 -0.83229,2.21627 -0.62225,0.96334 -1.64522,1.59119 -1.02298,0.62784 -2.43367,0.82082 -0.94046,0.12866 -1.82004,0.0538 -0.87959,-0.0748 -1.61755,-0.34646 l 0.49338,-1.45136 q 0.58672,0.20361 1.25851,0.31574 0.67179,0.11213 1.49034,1.5e-4 z"
         style=""
         id="path5491" />
      <path
         d="m 385.57013,316.56264 1.83738,-0.25136 4.75878,5.5409 1.0746,-1.15829 -0.69569,-5.08545 1.61968,-0.22157 1.74161,12.73104 -1.61968,0.22157 -0.8708,-6.36552 -0.85354,1.60708 -3.26532,5.44103 -1.81996,0.24897 3.76931,-6.16642 z"
         style=""
         id="path5493" />
    </g>
    <g
       aria-label="{"
       transform="scale(0.99296484,1.007085)"
       style="font-style:normal;font-variant:normal;font-weight:normal;font-stretch:normal;line-height:0%;font-family:'Droid Sans';-inkscape-font-specification:'Droid Sans';text-align:start;letter-spacing:0px;word-spacing:0px;text-anchor:start;fill:#000000;fill-opacity:1;stroke:none"
       id="text4474">
      <path
         d="m 158.57826,301.86247 c 0,-8.14727 -1.82401,-13.1329 -10.09288,-14.59212 v -0.4864 c 8.75527,-1.82401 10.09288,-7.66086 10.09288,-16.05133 v -20.67216 c 0,-7.17446 2.06722,-11.43049 8.51207,-13.13291 v -0.2432 c -13.0113,-0.608 -16.29453,4.62084 -16.29453,17.63214 v 19.57776 c 0,7.90406 -1.45921,11.30889 -9.24167,12.8897 v 0.4864 c 7.05286,0.60801 9.24167,6.80966 9.24167,12.88971 v 21.88817 c 0,12.4033 4.37764,15.80813 16.65934,15.80813 v -0.24321 c -7.05286,-1.94561 -8.87688,-5.71524 -8.87688,-13.1329 z"
         style="font-style:normal;font-variant:normal;font-weight:normal;font-stretch:normal;font-size:121.60096741px;line-height:1.25;font-family:'ITC New Baskerville Std';-inkscape-font-specification:'ITC New Baskerville Std'"
         id="path5622" />
    </g>
    <g
       aria-label="ESTABLISHED"
       transform="rotate(-90)"
       style="font-style:normal;font-variant:normal;font-weight:normal;font-stretch:normal;line-height:0%;font-family:'Droid Sans';-inkscape-font-specification:'Droid Sans';text-align:start;letter-spacing:0px;word-spacing:0px;text-anchor:start;fill:#000000;fill-opacity:1;stroke:none"
       id="text4478">
      <path
         d="m -340.29687,130.34737 h -7.41211 v -14.27735 h 7.41211 v 1.60157 h -5.59571 v 4.41406 h 5.22461 v 1.58203 h -5.22461 v 5.07812 h 5.59571 z"
         style="font-size:20px;line-height:1.25"
         id="path5599" />
      <path
         d="m -329.64258,126.52901 q 0,0.94726 -0.34179,1.69922 -0.33204,0.74218 -0.95704,1.25976 -0.625,0.51758 -1.52343,0.79102 -0.89844,0.26367 -2.02149,0.26367 -1.08398,0 -2.03125,-0.17578 -0.9375,-0.16602 -1.57226,-0.49805 v -1.73828 q 0.33203,0.15625 0.75195,0.3125 0.42969,0.14648 0.89844,0.26367 0.46875,0.11719 0.96679,0.19531 0.49805,0.0684 0.98633,0.0684 1.5625,0 2.30469,-0.58593 0.75195,-0.58594 0.75195,-1.67969 0,-0.52735 -0.14648,-0.91797 -0.13672,-0.39063 -0.49805,-0.71289 -0.35156,-0.33203 -0.94726,-0.63477 -0.59571,-0.3125 -1.50391,-0.67382 -0.86914,-0.3418 -1.51367,-0.74219 -0.63477,-0.41016 -1.05469,-0.91797 -0.41016,-0.50781 -0.61523,-1.15234 -0.19532,-0.64454 -0.19532,-1.46485 0,-0.85937 0.3125,-1.5332 0.3125,-0.67383 0.87891,-1.13281 0.56641,-0.46875 1.34766,-0.71289 0.79101,-0.24415 1.73828,-0.24415 1.16211,0 2.08984,0.22461 0.92774,0.21485 1.65039,0.55664 l -0.6543,1.52344 q -0.63476,-0.2832 -1.44531,-0.48828 -0.80078,-0.21484 -1.66015,-0.21484 -1.19141,0 -1.84571,0.55664 -0.65429,0.54687 -0.65429,1.48437 0,0.55664 0.14648,0.9668 0.14648,0.40039 0.48828,0.73242 0.3418,0.32227 0.89844,0.61524 0.56641,0.2832 1.38672,0.60546 0.88867,0.35157 1.55273,0.72266 0.67383,0.37109 1.12305,0.83984 0.44922,0.46875 0.67383,1.08399 0.23437,0.61523 0.23437,1.45508 z"
         style="font-size:20px;line-height:1.25"
         id="path5601" />
      <path
         d="m -322.61133,130.34737 h -1.82617 v -12.67578 h -4.08203 v -1.60157 h 9.98047 v 1.60157 h -4.07227 z"
         style="font-size:20px;line-height:1.25"
         id="path5603" />
      <path
         d="m -309.23242,130.34737 -1.5625,-4.42383 h -5.32227 l -1.58203,4.42383 h -1.83594 l 5.24414,-14.33594 h 1.66016 l 5.25391,14.33594 z m -2.13867,-6.03516 -1.44532,-4.14062 q -0.0586,-0.17579 -0.14648,-0.42969 -0.0781,-0.25391 -0.16602,-0.54688 -0.0879,-0.29297 -0.17578,-0.60547 -0.0879,-0.32226 -0.16601,-0.625 -0.0684,0.30274 -0.15625,0.625 -0.0879,0.32227 -0.17578,0.625 -0.0879,0.29297 -0.17579,0.54688 -0.0781,0.24414 -0.13671,0.41016 l -1.41602,4.14062 z"
         style="font-size:20px;line-height:1.25"
         id="path5605" />
      <path
         d="m -305.44336,116.07002 h 3.89649 q 1.25,0 2.19726,0.19532 0.95703,0.18554 1.5918,0.61523 0.64453,0.41992 0.96679,1.11328 0.32227,0.68359 0.32227,1.68945 0,0.60547 -0.19531,1.13282 -0.18555,0.52734 -0.54688,0.92773 -0.36133,0.40039 -0.89843,0.67383 -0.52735,0.26367 -1.20118,0.35156 v 0.0977 q 0.67383,0.11719 1.25977,0.34179 0.5957,0.21485 1.03516,0.60547 0.43945,0.38086 0.69335,0.9668 0.25391,0.58594 0.25391,1.42578 0,0.97656 -0.32226,1.74805 -0.3125,0.76172 -0.91797,1.29883 -0.59571,0.52734 -1.45508,0.81054 -0.85938,0.28321 -1.94336,0.28321 h -4.73633 z m 1.81641,6.05469 h 2.38281 q 0.82031,0 1.37695,-0.14648 0.55664,-0.14649 0.89844,-0.42969 0.3418,-0.29297 0.48828,-0.72266 0.15625,-0.43945 0.15625,-1.01562 0,-1.17188 -0.75195,-1.67969 -0.75195,-0.50781 -2.37305,-0.50781 h -2.17773 z m 0,1.52344 v 5.15625 h 2.59765 q 0.85938,0 1.43555,-0.19531 0.58594,-0.19532 0.9375,-0.54688 0.36133,-0.35156 0.51758,-0.83984 0.15625,-0.49805 0.15625,-1.09375 0,-0.54688 -0.16602,-1.00586 -0.15625,-0.45899 -0.52734,-0.78125 -0.36133,-0.33203 -0.9668,-0.50782 -0.60547,-0.18554 -1.5039,-0.18554 z"
         style="font-size:20px;line-height:1.25"
         id="path5607" />
      <path
         d="m -293.02148,130.34737 v -14.27735 h 1.8164 v 12.65625 h 5.59571 v 1.6211 z"
         style="font-size:20px;line-height:1.25"
         id="path5609" />
      <path
         d="m -279.14453,130.34737 h -5.17578 v -0.9961 l 1.67969,-0.40039 v -11.48437 l -1.67969,-0.40039 v -0.9961 h 5.17578 v 0.9961 l -1.67969,0.40039 v 11.48437 l 1.67969,0.40039 z"
         style="font-size:20px;line-height:1.25"
         id="path5611" />
      <path
         d="m -268.86133,126.52901 q 0,0.94726 -0.34179,1.69922 -0.33204,0.74218 -0.95704,1.25976 -0.625,0.51758 -1.52343,0.79102 -0.89844,0.26367 -2.02149,0.26367 -1.08398,0 -2.03125,-0.17578 -0.9375,-0.16602 -1.57226,-0.49805 v -1.73828 q 0.33203,0.15625 0.75195,0.3125 0.42969,0.14648 0.89844,0.26367 0.46875,0.11719 0.96679,0.19531 0.49805,0.0684 0.98633,0.0684 1.5625,0 2.30469,-0.58593 0.75195,-0.58594 0.75195,-1.67969 0,-0.52735 -0.14648,-0.91797 -0.13672,-0.39063 -0.49805,-0.71289 -0.35156,-0.33203 -0.94726,-0.63477 -0.59571,-0.3125 -1.50391,-0.67382 -0.86914,-0.3418 -1.51367,-0.74219 -0.63477,-0.41016 -1.05469,-0.91797 -0.41016,-0.50781 -0.61523,-1.15234 -0.19532,-0.64454 -0.19532,-1.46485 0,-0.85937 0.3125,-1.5332 0.3125,-0.67383 0.87891,-1.13281 0.56641,-0.46875 1.34766,-0.71289 0.79101,-0.24415 1.73828,-0.24415 1.16211,0 2.08984,0.22461 0.92774,0.21485 1.65039,0.55664 l -0.6543,1.52344 q -0.63476,-0.2832 -1.44531,-0.48828 -0.80078,-0.21484 -1.66015,-0.21484 -1.19141,0 -1.84571,0.55664 -0.65429,0.54687 -0.65429,1.48437 0,0.55664 0.14648,0.9668 0.14648,0.40039 0.48828,0.73242 0.3418,0.32227 0.89844,0.61524 0.56641,0.2832 1.38672,0.60546 0.88867,0.35157 1.55273,0.72266 0.67383,0.37109 1.12305,0.83984 0.44922,0.46875 0.67383,1.08399 0.23437,0.61523 0.23437,1.45508 z"
         style="font-size:20px;line-height:1.25"
         id="path5613" />
      <path
         d="m -255.85352,130.34737 h -1.8164 v -6.66016 h -6.50391 v 6.66016 h -1.8164 v -14.27735 h 1.8164 v 6.01563 h 6.50391 v -6.01563 h 1.8164 z"
         style="font-size:20px;line-height:1.25"
         id="path5615" />
      <path
         d="m -244.55469,130.34737 h -7.41211 v -14.27735 h 7.41211 v 1.60157 h -5.5957 v 4.41406 h 5.22461 v 1.58203 h -5.22461 v 5.07812 h 5.5957 z"
         style="font-size:20px;line-height:1.25"
         id="path5617" />
      <path
         d="m -230.90234,123.07198 q 0,1.80664 -0.46875,3.17382 -0.46875,1.35743 -1.35743,2.27539 -0.88867,0.90821 -2.1875,1.36719 -1.28906,0.45899 -2.92968,0.45899 h -3.57422 v -14.27735 h 3.97461 q 1.49414,0 2.70508,0.44922 1.21093,0.44922 2.06054,1.33789 0.84961,0.87891 1.3086,2.1875 0.46875,1.3086 0.46875,3.02735 z m -1.92383,0.0586 q 0,-1.42578 -0.32227,-2.46094 -0.32226,-1.04492 -0.9375,-1.71875 -0.61523,-0.67383 -1.51367,-0.99609 -0.89844,-0.33203 -2.04101,-0.33203 h -1.9629 v 11.16211 h 1.58204 q 2.57812,0 3.88671,-1.42578 1.3086,-1.42579 1.3086,-4.22852 z"
         style="font-size:20px;line-height:1.25"
         id="path5619" />
    </g>
    <g
       aria-label="{"
       transform="scale(-1.22552,0.81598016)"
       style="font-style:normal;font-variant:normal;font-weight:normal;font-stretch:normal;line-height:0%;font-family:'Droid Sans';-inkscape-font-specification:'Droid Sans';text-align:start;letter-spacing:0px;word-spacing:0px;text-anchor:start;fill:#000000;fill-opacity:1;stroke:none"
       id="text4492">
      <path
         d="m -366.67926,418.45741 c 0,-6.60124 -1.47789,-10.6408 -8.17765,-11.82311 v -0.39411 c 7.09387,-1.47788 8.17765,-6.20713 8.17765,-13.00542 v -16.74941 c 0,-5.81302 1.67494,-9.26143 6.89682,-10.6408 v -0.19705 c -10.54228,-0.49263 -13.20248,3.74399 -13.20248,14.28626 v 15.86268 c 0,6.40418 -1.18231,9.16291 -7.48797,10.44374 v 0.39411 c 5.71451,0.49263 7.48797,5.51745 7.48797,10.44375 v 17.73466 c 0,10.04965 3.54694,12.80837 13.49805,12.80837 v -0.19705 c -5.7145,-1.57641 -7.19239,-4.63072 -7.19239,-10.6408 z"
         style="font-style:normal;font-variant:normal;font-weight:normal;font-stretch:normal;font-size:98.52592468px;line-height:1.25;font-family:'ITC New Baskerville Std';-inkscape-font-specification:'ITC New Baskerville Std'"
         id="path5576" />
    </g>
    <g
       aria-label="FIN-WAIT-1"
       style="font-style:normal;font-variant:normal;font-weight:normal;font-stretch:normal;line-height:0%;font-family:'Droid Sans';-inkscape-font-specification:'Droid Sans';text-align:start;letter-spacing:0px;word-spacing:0px;text-anchor:start;fill:#000000;fill-opacity:1;stroke:none"
       id="text4496">
      <path
         d="m 477.68134,338.9736 h -1.81641 v -14.27734 h 7.41211 v 1.60156 h -5.5957 v 5.03906 h 5.2246 v 1.60157 h -5.2246 z"
         style="font-size:20px;line-height:1.25"
         id="path5555" />
      <path
         d="m 489.74188,338.9736 h -5.17578 v -0.99609 l 1.67969,-0.40039 v -11.48438 l -1.67969,-0.40039 v -0.99609 h 5.17578 v 0.99609 l -1.67969,0.40039 v 11.48438 l 1.67969,0.40039 z"
         style="font-size:20px;line-height:1.25"
         id="path5557" />
      <path
         d="m 503.19891,338.9736 h -2.09961 l -7.02148,-11.8164 h -0.0781 q 0.0586,0.75195 0.0977,1.49414 0.0391,0.63476 0.0586,1.32812 0.0293,0.69336 0.0293,1.25 v 7.74414 h -1.67969 v -14.27734 h 2.08008 l 6.99219,11.75781 h 0.0684 q -0.0293,-0.74219 -0.0684,-1.46484 -0.01,-0.3125 -0.0293,-0.63477 -0.01,-0.33203 -0.0293,-0.6543 -0.01,-0.33203 -0.0195,-0.63476 0,-0.30274 0,-0.55664 v -7.8125 h 1.69922 z"
         style="font-size:20px;line-height:1.25"
         id="path5559" />
      <path
         d="m 505.93329,334.43259 v -1.64063 h 4.84375 v 1.64063 z"
         style="font-size:20px;line-height:1.25"
         id="path5561" />
      <path
         d="m 519.47821,324.69626 h 1.92383 l 2.23633,8.35937 q 0.14648,0.54688 0.2832,1.09375 0.14648,0.54688 0.26367,1.06446 0.12695,0.50781 0.21485,0.96679 0.0977,0.45899 0.15625,0.83008 0.0391,-0.37109 0.0977,-0.81055 0.0586,-0.43945 0.13672,-0.91796 0.0781,-0.48829 0.16602,-0.98633 0.0977,-0.50781 0.20507,-0.98633 l 1.95313,-8.61328 h 1.94336 l -3.58399,14.27734 h -1.83593 l -2.48047,-9.16015 q -0.13672,-0.49805 -0.26367,-1.02539 -0.12696,-0.52735 -0.23438,-0.98633 -0.11719,-0.53711 -0.22461,-1.04492 -0.10742,0.49804 -0.21484,1.03515 -0.0977,0.45899 -0.22461,1.00586 -0.11719,0.54688 -0.25391,1.07422 l -2.36328,9.10156 h -1.83594 l -3.76953,-14.27734 h 1.92383 l 2.17773,8.68164 q 0.11719,0.44922 0.21485,0.9375 0.0976,0.47851 0.17578,0.95703 0.0879,0.47852 0.15625,0.92773 0.0684,0.43946 0.11719,0.81055 0.0488,-0.36133 0.11718,-0.83984 0.0781,-0.47852 0.17579,-1.00586 0.0977,-0.52735 0.20507,-1.06445 0.11719,-0.54688 0.24414,-1.0254 z"
         style="font-size:20px;line-height:1.25"
         id="path5563" />
      <path
         d="m 539.18524,338.9736 -1.5625,-4.42383 h -5.32226 l -1.58204,4.42383 h -1.83593 l 5.24414,-14.33594 h 1.66015 l 5.25391,14.33594 z m -2.13867,-6.03515 -1.44531,-4.14063 q -0.0586,-0.17578 -0.14649,-0.42969 -0.0781,-0.2539 -0.16601,-0.54687 -0.0879,-0.29297 -0.17578,-0.60547 -0.0879,-0.32227 -0.16602,-0.625 -0.0684,0.30273 -0.15625,0.625 -0.0879,0.32227 -0.17578,0.625 -0.0879,0.29297 -0.17578,0.54687 -0.0781,0.24415 -0.13672,0.41016 l -1.41602,4.14063 z"
         style="font-size:20px;line-height:1.25"
         id="path5565" />
      <path
         d="m 547.00751,338.9736 h -5.17578 v -0.99609 l 1.67968,-0.40039 v -11.48438 l -1.67968,-0.40039 v -0.99609 h 5.17578 v 0.99609 l -1.67969,0.40039 v 11.48438 l 1.67969,0.40039 z"
         style="font-size:20px;line-height:1.25"
         id="path5567" />
      <path
         d="m 553.93134,338.9736 h -1.82618 v -12.67578 h -4.08203 v -1.60156 h 9.98047 v 1.60156 h -4.07226 z"
         style="font-size:20px;line-height:1.25"
         id="path5569" />
      <path
         d="m 558.04266,334.43259 v -1.64063 h 4.84375 v 1.64063 z"
         style="font-size:20px;line-height:1.25"
         id="path5571" />
      <path
         d="m 570.63055,338.9736 h -1.71875 v -8.91601 q 0,-0.41993 0,-0.89844 0.01,-0.47852 0.0195,-0.94727 0.0195,-0.47851 0.0293,-0.9082 0.0195,-0.43945 0.0293,-0.77148 -0.16602,0.17578 -0.29297,0.30273 -0.12695,0.12695 -0.26367,0.24414 -0.12695,0.11719 -0.27344,0.25391 -0.14648,0.12695 -0.35156,0.30273 l -1.44531,1.18164 -0.9375,-1.20117 3.74023,-2.91992 h 1.46484 z"
         style="font-size:20px;line-height:1.25"
         id="path5573" />
    </g>
    <g
       aria-label="{"
       transform="scale(-1.1648993,0.85844331)"
       style="font-style:normal;font-variant:normal;font-weight:normal;font-stretch:normal;line-height:0%;font-family:'Droid Sans';-inkscape-font-specification:'Droid Sans';text-align:start;letter-spacing:0px;word-spacing:0px;text-anchor:start;fill:#000000;fill-opacity:1;stroke:none"
       id="text4500">
      <path
         d="m -385.76106,486.99179 c 0,-6.94476 -1.55479,-11.19454 -8.60321,-12.43838 v -0.41461 c 7.46303,-1.5548 8.60321,-6.53015 8.60321,-13.68222 v -17.62103 c 0,-6.11554 1.76211,-9.7434 7.25572,-11.19455 v -0.2073 c -11.09088,-0.51827 -13.88952,3.93882 -13.88952,15.02971 v 16.68815 c 0,6.73746 -1.24384,9.63975 -7.87764,10.98724 v 0.41461 c 6.01188,0.51827 7.87764,5.80458 7.87764,10.98724 v 18.65757 c 0,10.57262 3.73151,13.47491 14.20048,13.47491 v -0.20731 c -6.01188,-1.65845 -7.56668,-4.8717 -7.56668,-11.19454 z"
         style="font-style:normal;font-variant:normal;font-weight:normal;font-stretch:normal;font-size:103.6531601px;line-height:1.25;font-family:'ITC New Baskerville Std';-inkscape-font-specification:'ITC New Baskerville Std'"
         id="path5552" />
    </g>
    <g
       aria-label="TIME-WAIT"
       style="font-style:normal;font-variant:normal;font-weight:normal;font-stretch:normal;line-height:0%;font-family:'Droid Sans';-inkscape-font-specification:'Droid Sans';text-align:start;letter-spacing:0px;word-spacing:0px;text-anchor:start;fill:#000000;fill-opacity:1;stroke:none"
       id="text4504">
      <path
         d="m 480.02509,414.54501 h -1.82618 v -12.67578 h -4.08203 v -1.60156 h 9.98047 v 1.60156 h -4.07226 z"
         style="font-size:20px;line-height:1.25"
         id="path5533" />
      <path
         d="m 490.28876,414.54501 h -5.17578 v -0.99609 l 1.67968,-0.40039 v -11.48438 l -1.67968,-0.40039 v -0.99609 h 5.17578 v 0.99609 l -1.67969,0.40039 v 11.48438 l 1.67969,0.40039 z"
         style="font-size:20px;line-height:1.25"
         id="path5535" />
      <path
         d="m 498.95087,414.54501 -4.32618,-12.5 h -0.0781 q 0.0586,0.72266 0.0977,1.43555 0.0391,0.61523 0.0586,1.29883 0.0293,0.67383 0.0293,1.23047 v 8.53515 h -1.67969 v -14.27734 h 2.69531 l 4.02344,11.64062 h 0.0586 l 4.04297,-11.64062 h 2.69531 v 14.27734 h -1.8164 v -8.66211 q 0,-0.50781 0.0195,-1.16211 0.0195,-0.65429 0.0488,-1.25 0.0391,-0.69335 0.0684,-1.40625 h -0.0781 l -4.36523,12.48047 z"
         style="font-size:20px;line-height:1.25"
         id="path5537" />
      <path
         d="m 517.88641,414.54501 h -7.41211 v -14.27734 h 7.41211 v 1.60156 h -5.5957 v 4.41406 h 5.22461 v 1.58204 h -5.22461 v 5.07812 h 5.5957 z"
         style="font-size:20px;line-height:1.25"
         id="path5539" />
      <path
         d="m 519.8786,410.004 v -1.64063 h 4.84375 v 1.64063 z"
         style="font-size:20px;line-height:1.25"
         id="path5541" />
      <path
         d="m 533.42352,400.26767 h 1.92383 l 2.23633,8.35937 q 0.14648,0.54688 0.2832,1.09375 0.14649,0.54688 0.26367,1.06446 0.12696,0.50781 0.21485,0.96679 0.0976,0.45899 0.15625,0.83008 0.0391,-0.37109 0.0976,-0.81054 0.0586,-0.43946 0.13672,-0.91797 0.0781,-0.48828 0.16602,-0.98633 0.0976,-0.50781 0.20508,-0.98633 l 1.95312,-8.61328 h 1.94336 l -3.58398,14.27734 h -1.83594 l -2.48047,-9.16015 q -0.13672,-0.49805 -0.26367,-1.02539 -0.12695,-0.52735 -0.23438,-0.98633 -0.11718,-0.53711 -0.22461,-1.04492 -0.10742,0.49804 -0.21484,1.03515 -0.0977,0.45899 -0.22461,1.00586 -0.11719,0.54688 -0.25391,1.07422 l -2.36328,9.10156 h -1.83593 l -3.76954,-14.27734 h 1.92383 l 2.17774,8.68164 q 0.11718,0.44922 0.21484,0.9375 0.0977,0.47852 0.17578,0.95703 0.0879,0.47852 0.15625,0.92774 0.0684,0.43945 0.11719,0.81054 0.0488,-0.36133 0.11719,-0.83984 0.0781,-0.47852 0.17578,-1.00586 0.0976,-0.52734 0.20508,-1.06445 0.11718,-0.54688 0.24414,-1.02539 z"
         style="font-size:20px;line-height:1.25"
         id="path5543" />
      <path
         d="m 553.13055,414.54501 -1.5625,-4.42382 h -5.32226 l -1.58203,4.42382 h -1.83594 l 5.24414,-14.33593 h 1.66016 l 5.2539,14.33593 z m -2.13867,-6.03515 -1.44531,-4.14063 q -0.0586,-0.17578 -0.14648,-0.42969 -0.0781,-0.2539 -0.16602,-0.54687 -0.0879,-0.29297 -0.17578,-0.60547 -0.0879,-0.32226 -0.16602,-0.625 -0.0684,0.30274 -0.15625,0.625 -0.0879,0.32227 -0.17578,0.625 -0.0879,0.29297 -0.17578,0.54688 -0.0781,0.24414 -0.13672,0.41015 l -1.41601,4.14063 z"
         style="font-size:20px;line-height:1.25"
         id="path5545" />
      <path
         d="m 560.95282,414.54501 h -5.17578 v -0.99609 l 1.67969,-0.40039 v -11.48438 l -1.67969,-0.40039 v -0.99609 h 5.17578 v 0.99609 l -1.67969,0.40039 v 11.48438 l 1.67969,0.40039 z"
         style="font-size:20px;line-height:1.25"
         id="path5547" />
      <path
         d="m 567.87665,414.54501 h -1.82617 v -12.67578 h -4.08204 v -1.60156 h 9.98047 v 1.60156 h -4.07226 z"
         style="font-size:20px;line-height:1.25"
         id="path5549" />
    </g>
    <g
       aria-label="{"
       transform="scale(0.68972564,1.4498519)"
       style="font-style:normal;font-variant:normal;font-weight:normal;font-stretch:normal;line-height:0%;font-family:'Droid Sans';-inkscape-font-specification:'Droid Sans';text-align:start;letter-spacing:0px;word-spacing:0px;text-anchor:start;fill:#000000;fill-opacity:1;stroke:none"
       id="text4508">
      <path
         d="m 228.29751,332.03839 c 0,-11.72923 -2.62595,-18.90682 -14.53024,-21.00757 v -0.70026 c 12.60454,-2.62594 14.53024,-11.02897 14.53024,-23.10832 v -29.76073 c 0,-10.32872 2.97607,-16.45593 12.25441,-18.90681 v -0.35013 c -18.73175,-0.87531 -23.45845,6.6524 -23.45845,25.38415 v 28.18516 c 0,11.3791 -2.10076,16.28086 -13.30479,18.55668 v 0.70026 c 10.15365,0.87531 13.30479,9.80353 13.30479,18.55668 v 31.51136 c 0,17.85643 6.30227,22.7582 23.98364,22.7582 v -0.35013 c -10.15366,-2.80101 -12.7796,-8.22796 -12.7796,-18.90681 z"
         style="font-style:normal;font-variant:normal;font-weight:normal;font-stretch:normal;font-size:175.06307983px;line-height:1.25;font-family:'ITC New Baskerville Std';-inkscape-font-specification:'ITC New Baskerville Std'"
         id="path5596" />
    </g>
    <g
       aria-label="LAST-ACK"
       style="font-style:normal;font-variant:normal;font-weight:normal;font-stretch:normal;line-height:0%;font-family:'Droid Sans';-inkscape-font-specification:'Droid Sans';text-align:start;letter-spacing:0px;word-spacing:0px;text-anchor:start;fill:#000000;fill-opacity:1;stroke:none"
       id="text4512">
      <path
         d="m 48.638382,458.09216 v -14.27734 h 1.816406 v 12.65625 h 5.595703 v 1.62109 z"
         style="font-size:20px;line-height:1.25"
         id="path5579" />
      <path
         d="m 66.841507,458.09216 -1.5625,-4.42383 h -5.322266 l -1.582031,4.42383 h -1.835937 l 5.24414,-14.33593 h 1.660156 l 5.253907,14.33593 z m -2.138672,-6.03515 -1.445312,-4.14063 q -0.05859,-0.17578 -0.146485,-0.42969 -0.07813,-0.2539 -0.166015,-0.54687 -0.08789,-0.29297 -0.175782,-0.60547 -0.08789,-0.32227 -0.166015,-0.625 -0.06836,0.30273 -0.15625,0.625 -0.08789,0.32227 -0.175782,0.625 -0.08789,0.29297 -0.175781,0.54688 -0.07813,0.24414 -0.136719,0.41015 l -1.416015,4.14063 z"
         style="font-size:20px;line-height:1.25"
         id="path5581" />
      <path
         d="m 78.150101,454.2738 q 0,0.94727 -0.341797,1.69922 -0.332031,0.74219 -0.957031,1.25977 -0.625,0.51758 -1.523438,0.79101 -0.898437,0.26368 -2.021484,0.26368 -1.083985,0 -2.03125,-0.17579 -0.9375,-0.16601 -1.572266,-0.49804 v -1.73828 q 0.332031,0.15625 0.751953,0.3125 0.429688,0.14648 0.898438,0.26367 0.46875,0.11719 0.966797,0.19531 0.498046,0.0684 0.986328,0.0684 1.5625,0 2.304687,-0.58594 0.751953,-0.58594 0.751953,-1.67969 0,-0.52734 -0.146484,-0.91796 -0.136719,-0.39063 -0.498047,-0.71289 -0.351562,-0.33204 -0.947266,-0.63477 -0.595703,-0.3125 -1.503906,-0.67383 -0.86914,-0.3418 -1.513672,-0.74219 -0.634765,-0.41015 -1.054687,-0.91796 -0.410156,-0.50782 -0.615235,-1.15235 -0.195312,-0.64453 -0.195312,-1.46484 0,-0.85938 0.3125,-1.53321 0.3125,-0.67382 0.878906,-1.13281 0.566406,-0.46875 1.347656,-0.71289 0.791016,-0.24414 1.738282,-0.24414 1.162109,0 2.089843,0.22461 0.927735,0.21484 1.650391,0.55664 l -0.654297,1.52344 q -0.634765,-0.2832 -1.445312,-0.48828 -0.800782,-0.21485 -1.660157,-0.21485 -1.191406,0 -1.845703,0.55664 -0.654297,0.54688 -0.654297,1.48438 0,0.55664 0.146485,0.9668 0.146484,0.40039 0.488281,0.73242 0.341797,0.32226 0.898438,0.61523 0.566406,0.28321 1.386718,0.60547 0.888672,0.35156 1.552735,0.72266 0.673828,0.37109 1.123047,0.83984 0.449218,0.46875 0.673828,1.08399 0.234375,0.61523 0.234375,1.45507 z"
         style="font-size:20px;line-height:1.25"
         id="path5583" />
      <path
         d="m 85.181351,458.09216 h -1.826172 v -12.67578 h -4.082031 v -1.60156 h 9.980468 v 1.60156 h -4.072265 z"
         style="font-size:20px;line-height:1.25"
         id="path5585" />
      <path
         d="m 89.292679,453.55115 v -1.64063 h 4.84375 v 1.64063 z"
         style="font-size:20px;line-height:1.25"
         id="path5587" />
      <path
         d="m 105.23994,458.09216 -1.5625,-4.42383 h -5.322261 l -1.582031,4.42383 H 94.93721 l 5.24414,-14.33593 h 1.66016 l 5.2539,14.33593 z m -2.13867,-6.03515 -1.44531,-4.14063 q -0.0586,-0.17578 -0.14648,-0.42969 -0.0781,-0.2539 -0.16602,-0.54687 -0.0879,-0.29297 -0.17578,-0.60547 -0.0879,-0.32227 -0.16602,-0.625 -0.0684,0.30273 -0.15625,0.625 -0.0879,0.32227 -0.17578,0.625 -0.0879,0.29297 -0.17578,0.54688 -0.0781,0.24414 -0.13672,0.41015 l -1.416014,4.14063 z"
         style="font-size:20px;line-height:1.25"
         id="path5589" />
      <path
         d="m 114.63448,445.2113 q -1.04493,0 -1.89454,0.40039 -0.8496,0.39063 -1.45507,1.13282 -0.59571,0.74218 -0.92774,1.80664 -0.32226,1.06445 -0.32226,2.40234 0,1.37695 0.2832,2.45117 0.29297,1.06446 0.86914,1.79688 0.57617,0.73242 1.43555,1.11328 0.85937,0.38086 2.01172,0.38086 0.86914,0 1.65039,-0.16602 0.78125,-0.17578 1.54297,-0.40039 v 1.58203 q -0.38086,0.14649 -0.76172,0.26368 -0.38086,0.10742 -0.80078,0.17578 -0.41016,0.0684 -0.88868,0.0976 -0.46875,0.0391 -1.04492,0.0391 -1.60156,0 -2.77344,-0.52735 -1.17187,-0.52734 -1.94336,-1.49414 -0.76171,-0.9668 -1.13281,-2.32422 -0.37109,-1.35742 -0.37109,-3.00781 0,-1.62109 0.41992,-2.96875 0.42969,-1.34766 1.25,-2.31445 0.83008,-0.9668 2.05078,-1.50391 1.2207,-0.53711 2.80274,-0.53711 1.05468,0 2.01171,0.21484 0.95704,0.21485 1.72852,0.625 l -0.76172,1.52344 q -0.61523,-0.3125 -1.33789,-0.53711 -0.72266,-0.22461 -1.64062,-0.22461 z"
         style="font-size:20px;line-height:1.25"
         id="path5591" />
      <path
         d="m 130.54268,458.09216 h -2.06055 l -4.40429,-6.8164 -1.35743,1.11328 v 5.70312 h -1.8164 v -14.27734 h 1.8164 v 7.13867 l 1.18164,-1.64062 4.41407,-5.49805 h 2.04101 l -5.07812,6.2207 z"
         style="font-size:20px;line-height:1.25"
         id="path5593" />
    </g>
    <path
       sodipodi:nodetypes="cc"
       style="fill:none;stroke:#000000;stroke-width:1px;stroke-linecap:butt;stroke-linejoin:miter;stroke-opacity:1;marker-start:none;marker-end:url(#Arrow1Lend)"
       d="M 417.31934,478.21932 188.57143,509.51214"
       id="use4516"
       inkscape:connector-curvature="0" />
    <path
       sodipodi:nodetypes="cc"
       inkscape:connector-curvature="0"
       id="use4518"
       d="m 188.57143,514.21932 228.74791,31.29282"
       style="fill:none;stroke:#000000;stroke-width:1px;stroke-linecap:butt;stroke-linejoin:miter;stroke-opacity:1;marker-start:none;marker-end:url(#Arrow1Lend)" />
    <g
       aria-label="SYN"
       transform="rotate(180,391.67552,396.91827)"
       style="font-style:normal;font-variant:normal;font-weight:normal;font-stretch:normal;font-size:18px;line-height:0%;font-family:'Droid Sans';-inkscape-font-specification:'Droid Sans';text-align:start;letter-spacing:0px;word-spacing:0px;text-anchor:start;fill:#000000;fill-opacity:1;stroke:none"
       id="text4526">
      <path
         d="m 409.3471,316.77846 q -0.11555,-0.84467 0.0975,-1.55687 0.20554,-0.70231 0.69971,-1.24007 0.49418,-0.53777 1.26195,-0.89118 0.76897,-0.34471 1.77039,-0.48171 0.96658,-0.13223 1.83269,-0.091 0.85622,0.0337 1.46274,0.25231 l 0.21204,1.55002 q -0.31513,-0.0988 -0.70863,-0.18693 -0.40102,-0.0782 -0.8333,-0.12552 -0.43227,-0.0473 -0.88591,-0.0562 -0.45244,-2e-4 -0.88784,0.0594 -1.39328,0.1906 -1.9836,0.80362 -0.59904,0.6142 -0.46562,1.58949 0.0643,0.47023 0.24259,0.80068 0.16957,0.33164 0.53107,0.57493 0.35399,0.25318 0.92211,0.45046 0.5693,0.20599 1.42322,0.4174 0.8167,0.19876 1.44027,0.47716 0.61605,0.2883 1.05243,0.68989 0.42768,0.40279 0.68917,0.95249 0.25278,0.5509 0.35285,1.28237 0.10483,0.7663 -0.0916,1.40527 -0.19646,0.63897 -0.64553,1.11734 -0.44788,0.48707 -1.11474,0.80007 -0.67556,0.31419 -1.52023,0.42974 -1.03625,0.14176 -1.8909,0.0547 -0.85347,-0.0784 -1.53955,-0.29503 l 0.3976,-1.43826 q 0.60056,0.1751 1.34834,0.25909 0.74026,0.0939 1.50656,-0.0109 1.06237,-0.14534 1.5779,-0.7215 0.51672,-0.56746 0.40236,-1.40343 -0.0679,-0.49635 -0.24855,-0.84422 -0.17946,-0.33915 -0.52474,-0.59353 -0.34409,-0.24567 -0.87618,-0.43901 -0.53961,-0.18343 -1.31039,-0.37073 -0.83531,-0.20508 -1.47272,-0.45498 -0.64611,-0.24871 -1.10386,-0.61189 -0.45775,-0.36319 -0.73308,-0.88439 -0.28404,-0.52001 -0.38649,-1.2689 z"
         style=""
         id="path5496" />
      <path
         d="m 404.22176,320.42476 -2.08037,6.8402 -1.74159,0.23825 2.81996,-8.3075 -0.67782,-4.95483 1.62839,-0.22277 0.66591,4.86775 4.95945,7.33199 -1.76772,0.24183 z"
         style=""
         id="path5498" />
      <path
         d="m 387.38138,316.31486 1.87221,-0.25612 7.70243,9.68012 0.0697,-0.01 q -0.14398,-0.66337 -0.26934,-1.32041 -0.11227,-0.56125 -0.21426,-1.17713 -0.1107,-0.61469 -0.1786,-1.11105 l -0.94467,-6.90541 1.49777,-0.20489 1.74161,12.73103 -1.85479,0.25374 -7.66917,-9.63145 -0.0609,0.008 q 0.11665,0.65823 0.23964,1.29786 0.0468,0.27746 0.10355,0.56244 0.0492,0.29488 0.10594,0.57986 0.0492,0.29488 0.0949,0.56363 0.0369,0.26995 0.0679,0.49636 l 0.953,6.96636 -1.51518,0.20728 z"
         style=""
         id="path5500" />
    </g>
    <g
       aria-label="RST"
       transform="translate(176.79846,283.85714)"
       style="font-style:normal;font-variant:normal;font-weight:normal;font-stretch:normal;font-size:18px;line-height:0%;font-family:'Droid Sans';-inkscape-font-specification:'Droid Sans';text-align:start;letter-spacing:0px;word-spacing:0px;text-anchor:start;fill:#000000;fill-opacity:1;stroke:none"
       id="text4534">
      <path
         d="m 192.64351,245.41834 -0.71952,5.25961 -1.61968,-0.22158 1.74161,-12.73103 3.10003,0.42408 q 2.31632,0.31688 3.29953,1.36509 0.98321,1.04821 0.73424,2.86817 -0.10364,0.75759 -0.39877,1.29383 -0.28642,0.53742 -0.69943,0.89786 -0.40312,0.35291 -0.89286,0.56091 -0.48975,0.20801 -0.99251,0.31665 l 2.6855,6.17783 -1.90704,-0.26089 -2.33698,-5.67773 z m 0.18821,-1.37586 1.42811,0.19537 q 0.78372,0.10721 1.35257,0.0342 0.57004,-0.0817 0.95886,-0.33011 0.39872,-0.25594 0.61622,-0.6786 0.2274,-0.43018 0.30959,-1.03103 0.0858,-0.62697 -0.0375,-1.08739 -0.1146,-0.45922 -0.44221,-0.78791 -0.31891,-0.32749 -0.85954,-0.52564 -0.53073,-0.20567 -1.28832,-0.30931 l -1.39328,-0.1906 z"
         style=""
         id="path5503" />
      <path
         d="m 207.99443,249.40787 q -0.11555,0.84467 -0.51206,1.47349 -0.3866,0.6213 -1.00705,1.00658 -0.62045,0.38528 -1.45493,0.51951 -0.8333,0.12552 -1.83471,-0.0115 -0.96659,-0.13223 -1.78982,-0.40453 -0.81571,-0.26239 -1.34122,-0.63589 l 0.21204,-1.55002 q 0.27701,0.17983 0.63239,0.37038 0.36528,0.18304 0.76897,0.34471 0.40369,0.16168 0.83826,0.29209 0.43577,0.12171 0.87117,0.18128 1.39327,0.1906 2.12655,-0.24135 0.74199,-0.43075 0.87541,-1.40604 0.0643,-0.47023 -0.0186,-0.83641 -0.0743,-0.365 -0.35715,-0.69644 -0.27298,-0.33896 -0.76724,-0.68157 -0.49306,-0.35132 -1.25883,-0.7843 -0.73331,-0.4108 -1.25919,-0.84645 -0.51599,-0.44317 -0.82849,-0.9472 -0.30379,-0.50285 -0.40803,-1.10259 -0.0955,-0.59855 0.005,-1.33002 0.10483,-0.7663 0.46568,-1.32903 0.36085,-0.56273 0.9219,-0.90291 0.56224,-0.34889 1.28866,-0.47129 0.73513,-0.12121 1.5798,-0.006 1.03625,0.14176 1.8361,0.45521 0.80105,0.30474 1.40375,0.69767 l -0.76927,1.27863 q -0.53147,-0.32996 -1.22922,-0.6117 -0.68784,-0.28926 -1.45414,-0.39409 -1.06237,-0.14533 -1.71371,0.27121 -0.65014,0.40783 -0.7645,1.24379 -0.0679,0.49636 0.0127,0.87996 0.0818,0.37489 0.34606,0.71266 0.26547,0.32905 0.72608,0.65819 0.47052,0.32163 1.16267,0.70906 0.74954,0.42189 1.29642,0.83379 0.55558,0.4131 0.89896,0.88588 0.34339,0.47278 0.46862,1.04878 0.13395,0.57719 0.0315,1.32608 z"
         style=""
         id="path5505" />
      <path
         d="m 213.79839,253.67038 -1.62839,-0.22277 1.54624,-11.30293 -3.63992,-0.49794 0.19536,-1.42811 8.89954,1.21746 -0.19537,1.42811 -3.63122,-0.49675 z"
         style=""
         id="path5507" />
    </g>
    <g
       aria-label="(shortened)"
       style="font-style:normal;font-variant:normal;font-weight:normal;font-stretch:normal;line-height:0%;font-family:'Droid Sans';-inkscape-font-specification:'Droid Sans';text-align:start;letter-spacing:0px;word-spacing:0px;text-anchor:start;fill:#000000;fill-opacity:1;stroke:none"
       id="text4566">
      <path
         d="m 487.15448,424.71008 q 0,-0.85449 0.12305,-1.68164 0.12304,-0.83398 0.37597,-1.61328 0.25293,-0.78613 0.63575,-1.50391 0.38964,-0.7246 0.92285,-1.36035 h 1.17578 q -0.95703,1.31934 -1.45606,2.89844 -0.49218,1.5791 -0.49218,3.24707 0,0.81348 0.12304,1.62012 0.12989,0.80664 0.36914,1.5791 0.2461,0.77246 0.6084,1.49707 0.36231,0.72461 0.83399,1.36719 h -1.16211 q -0.53321,-0.61524 -0.92285,-1.31934 -0.38282,-0.7041 -0.63575,-1.46972 -0.25293,-0.77247 -0.37597,-1.59278 -0.12305,-0.82031 -0.12305,-1.66797 z"
         style="font-size:14px;line-height:1.25"
         id="path5510" />
      <path
         d="m 496.48553,426.48743 q 0,0.54687 -0.19824,0.95703 -0.19824,0.41015 -0.57422,0.69043 -0.36914,0.27344 -0.8955,0.41015 -0.52637,0.13672 -1.18262,0.13672 -0.74512,0 -1.27832,-0.12304 -0.5332,-0.11622 -0.93653,-0.34864 v -1.13476 q 0.21192,0.10937 0.47168,0.21875 0.25977,0.10254 0.54688,0.18457 0.28711,0.082 0.58789,0.13672 0.30762,0.0478 0.6084,0.0478 0.44433,0 0.75195,-0.0752 0.31445,-0.0752 0.50586,-0.21191 0.19824,-0.14356 0.28711,-0.3418 0.0889,-0.20508 0.0889,-0.45117 0,-0.21191 -0.0684,-0.38281 -0.0684,-0.1709 -0.25293,-0.33496 -0.17774,-0.1709 -0.49219,-0.3418 -0.31445,-0.1709 -0.80664,-0.38281 -0.49219,-0.21192 -0.88867,-0.417 -0.38965,-0.20507 -0.66309,-0.458 -0.27343,-0.25293 -0.42383,-0.58106 -0.14355,-0.33496 -0.14355,-0.79297 0,-0.47851 0.18457,-0.84765 0.19141,-0.37598 0.5332,-0.62891 0.3418,-0.25293 0.82032,-0.38281 0.47851,-0.12988 1.0664,-0.12988 0.66309,0 1.20996,0.14355 0.55371,0.14356 1.0459,0.37598 l -0.43066,1.00488 q -0.44434,-0.19824 -0.91602,-0.3418 -0.46484,-0.15039 -0.95019,-0.15039 -0.69727,0 -1.03223,0.23242 -0.33496,0.22559 -0.33496,0.64942 0,0.23926 0.0752,0.41699 0.082,0.17773 0.27344,0.33496 0.19141,0.15723 0.5127,0.32129 0.32129,0.15723 0.7998,0.35547 0.49219,0.20508 0.875,0.41016 0.38965,0.20507 0.66309,0.46484 0.27344,0.25293 0.41699,0.58105 0.14355,0.32813 0.14355,0.78614 z"
         style="font-size:14px;line-height:1.25"
         id="path5512" />
      <path
         d="m 503.00018,428.54504 v -4.833 q 0,-0.88868 -0.3623,-1.33301 -0.35547,-0.44434 -1.1211,-0.44434 -0.55371,0 -0.92968,0.17774 -0.37598,0.17773 -0.6084,0.52636 -0.22559,0.34864 -0.32813,0.8545 -0.0957,0.50586 -0.0957,1.16211 v 3.88964 h -1.24414 v -10.63671 h 1.24414 v 3.1582 l -0.0547,0.98437 h 0.0684 q 0.1709,-0.29394 0.40332,-0.50586 0.23926,-0.21875 0.51953,-0.3623 0.28028,-0.14356 0.59473,-0.21191 0.31445,-0.0684 0.64258,-0.0684 1.25098,0 1.87988,0.65625 0.63574,0.64941 0.63574,2.08496 v 4.90136 z"
         style="font-size:14px;line-height:1.25"
         id="path5514" />
      <path
         d="m 512.68671,424.77844 q 0,0.93653 -0.23243,1.66797 -0.22558,0.72461 -0.65625,1.22363 -0.42382,0.49219 -1.03222,0.75196 -0.6084,0.25976 -1.36719,0.25976 -0.7041,0 -1.29883,-0.25976 -0.59472,-0.25977 -1.03222,-0.75196 -0.43067,-0.49902 -0.67676,-1.22363 -0.23926,-0.73144 -0.23926,-1.66797 0,-0.92969 0.22559,-1.64746 0.23242,-0.72461 0.65625,-1.2168 0.42382,-0.49902 1.03222,-0.75195 0.61524,-0.25976 1.37403,-0.25976 0.7041,0 1.29882,0.25976 0.59473,0.25293 1.02539,0.75195 0.4375,0.49219 0.67676,1.2168 0.2461,0.71777 0.2461,1.64746 z m -5.25,0 q 0,1.42871 0.46484,2.15332 0.47168,0.71778 1.52441,0.71778 1.05274,0 1.51075,-0.71778 0.46484,-0.72461 0.46484,-2.15332 0,-1.42871 -0.47168,-2.13281 -0.46484,-0.71094 -1.51758,-0.71094 -1.05273,0 -1.51758,0.71094 -0.458,0.7041 -0.458,2.13281 z"
         style="font-size:14px;line-height:1.25"
         id="path5516" />
      <path
         d="m 517.90936,420.90247 q 0.19824,0 0.44434,0.0205 0.24609,0.0137 0.42383,0.0479 l -0.16407,1.14843 q -0.1914,-0.0342 -0.39648,-0.0547 -0.19824,-0.0273 -0.37598,-0.0273 -0.43066,0 -0.78613,0.17774 -0.35547,0.17089 -0.61523,0.49902 -0.25293,0.32129 -0.39649,0.7793 -0.13672,0.45117 -0.13672,1.00488 v 4.04687 h -1.24414 v -7.50586 h 1.01172 l 0.15039,1.37403 h 0.0547 q 0.1709,-0.29395 0.3623,-0.56738 0.19825,-0.27344 0.4375,-0.47852 0.2461,-0.21191 0.54688,-0.33496 0.30078,-0.12988 0.68359,-0.12988 z"
         style="font-size:14px;line-height:1.25"
         id="path5518" />
      <path
         d="m 522.50995,427.66321 q 0.12305,0 0.27344,-0.0137 0.15722,-0.0137 0.30078,-0.0342 0.14355,-0.0205 0.25976,-0.0479 0.12305,-0.0273 0.18457,-0.0478 v 0.94336 q -0.0889,0.041 -0.22558,0.082 -0.13672,0.041 -0.30078,0.0684 -0.16407,0.0342 -0.3418,0.0478 -0.17774,0.0205 -0.34863,0.0205 -0.42383,0 -0.78614,-0.10937 -0.3623,-0.10938 -0.6289,-0.37598 -0.25977,-0.2666 -0.41016,-0.71777 -0.15039,-0.45801 -0.15039,-1.14844 v -4.35449 h -1.05957 V 421.422 l 1.05957,-0.53321 0.5332,-1.57226 h 0.71778 v 1.72265 h 1.88672 v 0.93653 h -1.88672 v 4.35449 q 0,0.66309 0.21191,0.99805 0.21875,0.33496 0.71094,0.33496 z"
         style="font-size:14px;line-height:1.25"
         id="path5520" />
      <path
         d="m 527.96503,428.68176 q -0.75196,0 -1.37403,-0.25293 -0.62207,-0.25293 -1.07324,-0.73828 -0.44433,-0.48535 -0.69043,-1.20312 -0.24609,-0.71778 -0.24609,-1.64063 0,-0.92969 0.22558,-1.66113 0.22559,-0.73145 0.63575,-1.23731 0.41015,-0.51269 0.97753,-0.77929 0.57422,-0.2666 1.26465,-0.2666 0.67676,0 1.2168,0.24609 0.54004,0.23926 0.91602,0.68359 0.37597,0.4375 0.57421,1.05957 0.20508,0.61524 0.20508,1.36719 v 0.77246 h -4.73047 q 0.0342,1.31934 0.55371,1.94141 0.52637,0.62207 1.5586,0.62207 0.34863,0 0.64258,-0.0342 0.30078,-0.0342 0.57422,-0.0957 0.28027,-0.0684 0.54003,-0.16407 0.25977,-0.10254 0.52637,-0.22558 v 1.10742 q -0.27344,0.12988 -0.54004,0.22559 -0.25976,0.0957 -0.54004,0.15722 -0.27343,0.0615 -0.57422,0.0889 -0.29394,0.0273 -0.64257,0.0273 z m -0.30762,-6.74707 q -0.7793,0 -1.23731,0.53321 -0.45117,0.5332 -0.52636,1.55175 h 3.36328 q 0,-0.46484 -0.0957,-0.84765 -0.0889,-0.38965 -0.28711,-0.66309 -0.19141,-0.27344 -0.49219,-0.42383 -0.30078,-0.15039 -0.72461,-0.15039 z"
         style="font-size:14px;line-height:1.25"
         id="path5522" />
      <path
         d="m 537.17987,428.54504 v -4.833 q 0,-0.88868 -0.3623,-1.33301 -0.35547,-0.44434 -1.1211,-0.44434 -0.55371,0 -0.92969,0.17774 -0.37597,0.17773 -0.60839,0.52636 -0.22559,0.34864 -0.32813,0.8545 -0.0957,0.50586 -0.0957,1.16211 v 3.88964 h -1.24414 v -7.50586 h 1.01172 l 0.17773,1.01172 h 0.0684 q 0.1709,-0.29394 0.40332,-0.50586 0.23926,-0.21875 0.51953,-0.3623 0.28027,-0.14356 0.59473,-0.21191 0.31445,-0.0684 0.64258,-0.0684 1.25097,0 1.87988,0.65625 0.63574,0.64941 0.63574,2.08496 v 4.90136 z"
         style="font-size:14px;line-height:1.25"
         id="path5524" />
      <path
         d="m 543.71503,428.68176 q -0.75196,0 -1.37403,-0.25293 -0.62207,-0.25293 -1.07324,-0.73828 -0.44433,-0.48535 -0.69043,-1.20312 -0.24609,-0.71778 -0.24609,-1.64063 0,-0.92969 0.22558,-1.66113 0.22559,-0.73145 0.63575,-1.23731 0.41015,-0.51269 0.97753,-0.77929 0.57422,-0.2666 1.26465,-0.2666 0.67676,0 1.2168,0.24609 0.54004,0.23926 0.91602,0.68359 0.37597,0.4375 0.57421,1.05957 0.20508,0.61524 0.20508,1.36719 v 0.77246 h -4.73047 q 0.0342,1.31934 0.55371,1.94141 0.52637,0.62207 1.5586,0.62207 0.34863,0 0.64258,-0.0342 0.30078,-0.0342 0.57422,-0.0957 0.28027,-0.0684 0.54003,-0.16407 0.25977,-0.10254 0.52637,-0.22558 v 1.10742 q -0.27344,0.12988 -0.54004,0.22559 -0.25976,0.0957 -0.54004,0.15722 -0.27343,0.0615 -0.57422,0.0889 -0.29394,0.0273 -0.64257,0.0273 z m -0.30762,-6.74707 q -0.7793,0 -1.23731,0.53321 -0.45117,0.5332 -0.52636,1.55175 h 3.36328 q 0,-0.46484 -0.0957,-0.84765 -0.0889,-0.38965 -0.28711,-0.66309 -0.19141,-0.27344 -0.49219,-0.42383 -0.30078,-0.15039 -0.72461,-0.15039 z"
         style="font-size:14px;line-height:1.25"
         id="path5526" />
      <path
         d="m 552.87518,427.54016 h -0.0547 q -0.1504,0.23242 -0.35547,0.44434 -0.19825,0.20508 -0.46485,0.3623 -0.25976,0.15723 -0.58789,0.2461 -0.32812,0.0889 -0.73828,0.0889 -0.63574,0 -1.16211,-0.24609 -0.52637,-0.24609 -0.90234,-0.73145 -0.37598,-0.49218 -0.58106,-1.21679 -0.20507,-0.72461 -0.20507,-1.68164 0,-0.96387 0.20507,-1.68848 0.20508,-0.73145 0.58106,-1.22363 0.37597,-0.49219 0.90234,-0.73828 0.52637,-0.25293 1.16211,-0.25293 0.40332,0 0.73145,0.0889 0.32812,0.0889 0.58789,0.23926 0.2666,0.15039 0.47168,0.34863 0.20507,0.19825 0.35547,0.417 h 0.082 q -0.0205,-0.23243 -0.041,-0.44434 -0.0137,-0.17773 -0.0273,-0.3623 -0.0137,-0.19141 -0.0137,-0.30079 v -2.98046 h 1.24414 v 10.63671 h -1.00489 z m -1.96191,0.10938 q 0.51953,0 0.875,-0.15723 0.3623,-0.15723 0.58105,-0.47852 0.22559,-0.32129 0.32813,-0.7998 0.10937,-0.48535 0.12305,-1.12793 v -0.28027 q 0,-0.69043 -0.0957,-1.22364 -0.0889,-0.54004 -0.31445,-0.90234 -0.21875,-0.36914 -0.58789,-0.55371 -0.36914,-0.19141 -0.92285,-0.19141 -0.92285,0 -1.36035,0.74512 -0.43067,0.74512 -0.43067,2.13965 0,1.42871 0.43067,2.13281 0.4375,0.69727 1.37402,0.69727 z"
         style="font-size:14px;line-height:1.25"
         id="path5528" />
      <path
         d="m 558.91132,424.71008 q 0,0.84766 -0.12305,1.66797 -0.12305,0.82031 -0.38281,1.59278 -0.25293,0.76562 -0.64258,1.46972 -0.38281,0.7041 -0.91602,1.31934 h -1.16211 q 0.47168,-0.64258 0.83399,-1.36719 0.3623,-0.72461 0.6084,-1.49707 0.24609,-0.77246 0.36914,-1.5791 0.12304,-0.80664 0.12304,-1.62012 0,-1.66797 -0.49218,-3.24707 -0.49219,-1.5791 -1.45606,-2.89844 h 1.17578 q 0.53321,0.63575 0.91602,1.36035 0.38965,0.71778 0.64258,1.50391 0.25976,0.7793 0.38281,1.61328 0.12305,0.82715 0.12305,1.68164 z"
         style="font-size:14px;line-height:1.25"
         id="path5530" />
    </g>
    <path
       style="fill:none;stroke:#000000;stroke-width:1;stroke-linecap:butt;stroke-linejoin:miter;stroke-miterlimit:4;stroke-dasharray:3.00000002, 3.00000002;stroke-dashoffset:0;stroke-opacity:1"
       d="M 327.58965,452.6479 H 581.69606"
       id="path4570"
       inkscape:connector-curvature="0"
       sodipodi:nodetypes="cc" />
    <g
       transform="matrix(0.39981888,-0.03240456,0.03240456,0.39981888,305.04804,281.36663)"
       id="use4612">
      <path
         style="fill:none;stroke:#c90000;stroke-width:10;stroke-linecap:round;stroke-linejoin:miter;stroke-miterlimit:4;stroke-dasharray:none;stroke-opacity:1"
         d="m -83.571429,278.79075 -53.214281,53.21429"
         id="path4630"
         inkscape:connector-curvature="0" />
      <path
         inkscape:connector-curvature="0"
         id="path4632"
         d="m -136.78571,278.79075 53.214281,53.21429"
         style="fill:none;stroke:#c90000;stroke-width:10;stroke-linecap:round;stroke-linejoin:miter;stroke-miterlimit:4;stroke-dasharray:none;stroke-opacity:1" />
    </g>
  </g>
</svg>
