<?xml version="1.0" encoding="UTF-8" standalone="no"?>
<svg
   xmlns:dc="http://purl.org/dc/elements/1.1/"
   xmlns:cc="http://creativecommons.org/ns#"
   xmlns:rdf="http://www.w3.org/1999/02/22-rdf-syntax-ns#"
   xmlns:svg="http://www.w3.org/2000/svg"
   xmlns="http://www.w3.org/2000/svg"
   xmlns:sodipodi="http://sodipodi.sourceforge.net/DTD/sodipodi-0.dtd"
   xmlns:inkscape="http://www.inkscape.org/namespaces/inkscape"
   enable-background="new 0 0 116.3787 194.4198"
   id="facebook"
   version="1.1"
   viewBox="0 0 24 24"
   xml:space="preserve"
   sodipodi:docname="facebook.svg"
   width="24"
   height="24"
   inkscape:version="0.92.0 r15299"><metadata
     id="metadata4608"><rdf:RDF><cc:Work
         rdf:about=""><dc:format>image/svg+xml</dc:format><dc:type
           rdf:resource="http://purl.org/dc/dcmitype/StillImage" /><dc:title></dc:title></cc:Work></rdf:RDF></metadata><defs
     id="defs4606" /><sodipodi:namedview
     pagecolor="#ffffff"
     bordercolor="#666666"
     borderopacity="1"
     objecttolerance="10"
     gridtolerance="10"
     guidetolerance="10"
     inkscape:pageopacity="0"
     inkscape:pageshadow="2"
     inkscape:window-width="1144"
     inkscape:window-height="1056"
     id="namedview4604"
     showgrid="false"
     inkscape:measure-start="23.7378,37.2087"
     inkscape:measure-end="21.6262,40.631"
     inkscape:zoom="8"
     inkscape:cx="4.564125"
     inkscape:cy="-9.5937629"
     inkscape:window-x="0"
     inkscape:window-y="16"
     inkscape:window-maximized="0"
     inkscape:current-layer="facebook" /><path
     inkscape:connector-curvature="0"
     id="path1004"
     style="fill:#989596;fill-opacity:1;fill-rule:nonzero;stroke:none;stroke-width:0.93749994"
     d="m 14.570998,12.004496 h -1.681497 c 0,2.686499 0,5.995502 0,5.995502 h -2.491505 c 0,0 0,-3.275253 0,-5.995502 H 9.2130016 V 9.8864986 H 10.397996 V 8.5155021 c 0,-0.9817557 0.46575,-2.5154996 2.514005,-2.5154996 l 1.845747,0.00791 v 2.0564997 c 0,0 -1.122003,0 -1.339497,0 -0.218249,0 -0.52875,0.108 -0.52875,0.5767467 V 9.886912 h 1.899747 z M 11.999995,0 C 5.3729994,0 0,5.3729993 0,11.999996 0,18.628494 5.3729994,24 11.999995,24 18.627748,24 24,18.628494 24,11.999996 24,5.3729993 18.627748,0 11.999995,0"
     inkscape:export-filename="/home/bernat/code/perso/www.luffy.cx/content/media/images/l/sprite/facebook.png"
     inkscape:export-xdpi="135"
     inkscape:export-ydpi="135" /></svg>