<?xml version="1.0" encoding="UTF-8" standalone="no"?>
<svg
   xmlns:dc="http://purl.org/dc/elements/1.1/"
   xmlns:cc="http://creativecommons.org/ns#"
   xmlns:rdf="http://www.w3.org/1999/02/22-rdf-syntax-ns#"
   xmlns:svg="http://www.w3.org/2000/svg"
   xmlns="http://www.w3.org/2000/svg"
   xmlns:sodipodi="http://sodipodi.sourceforge.net/DTD/sodipodi-0.dtd"
   xmlns:inkscape="http://www.inkscape.org/namespaces/inkscape"
   enable-background="new 0 0 160 204.5916"
   id="google"
   version="1.1"
   viewBox="0 0 24 24"
   xml:space="preserve"
   sodipodi:docname="google.svg"
   width="24"
   height="24"
   inkscape:version="0.92.0 r15299"><metadata
     id="metadata5220"><rdf:RDF><cc:Work
         rdf:about=""><dc:format>image/svg+xml</dc:format><dc:type
           rdf:resource="http://purl.org/dc/dcmitype/StillImage" /><dc:title></dc:title></cc:Work></rdf:RDF></metadata><defs
     id="defs5218" /><sodipodi:namedview
     pagecolor="#ffffff"
     bordercolor="#666666"
     borderopacity="1"
     objecttolerance="10"
     gridtolerance="10"
     guidetolerance="10"
     inkscape:pageopacity="0"
     inkscape:pageshadow="2"
     inkscape:window-width="1144"
     inkscape:window-height="1056"
     id="namedview5216"
     showgrid="false"
     inkscape:measure-start="10.5655,42.4788"
     inkscape:measure-end="12.7328,34.4056"
     inkscape:zoom="8"
     inkscape:cx="1.4503042"
     inkscape:cy="-6.980887"
     inkscape:window-x="0"
     inkscape:window-y="16"
     inkscape:window-maximized="0"
     inkscape:current-layer="google"
     scale-x="1" /><g
     id="g4305"
     inkscape:export-xdpi="135"
     inkscape:export-ydpi="135"
     transform="matrix(0.87890646,0,0,-0.87890614,-335.52483,262.00708)"><path
       inkscape:export-ydpi="135"
       inkscape:export-xdpi="135"
       d="m 392.63345,290.62384 c -1.08373,0.0324 -1.81248,-1.05813 -1.62389,-2.48149 0.18688,-1.42507 1.2177,-2.42006 2.30229,-2.45334 1.08459,-0.0316 1.70752,0.88491 1.52064,2.30998 -0.18688,1.42336 -1.11445,2.59157 -2.19904,2.62485"
       style="fill:#989596;fill-opacity:1;fill-rule:nonzero;stroke:none;stroke-width:1.06666672"
       id="path1036"
       inkscape:connector-curvature="0" /><path
       inkscape:export-ydpi="135"
       inkscape:export-xdpi="135"
       d="m 393.08913,282.77403 c -1.61621,0.0188 -2.98581,-1.01974 -2.98581,-2.22464 0,-1.2288 1.16736,-2.25195 2.78357,-2.25195 2.27243,0 3.06432,0.96 3.06432,2.19051 0,0.14762 -0.0188,0.29269 -0.0521,0.43264 -0.17835,0.69546 -0.88491,1.0769 -1.76299,1.68704 -0.31829,0.10325 -0.66987,0.16298 -1.04704,0.1664"
       style="fill:#989596;fill-opacity:1;fill-rule:nonzero;stroke:none;stroke-width:1.06666672"
       id="path1038"
       inkscape:connector-curvature="0" /><path
       inkscape:export-ydpi="135"
       inkscape:export-xdpi="135"
       inkscape:export-filename="/home/bernat/code/perso/www.luffy.cx/content/media/images/l/sprite/google.png"
       d="m 402.22748,288.30789 h -1.85686 v -1.85514 h -0.92757 v 1.85514 h -1.856 v 0.92758 h 1.856 v 1.85685 h 0.92757 v -1.85685 h 1.85686 z m -5.77792,-0.24832 c 0,-0.89002 -0.49238,-1.60682 -1.1887,-2.1504 -0.6801,-0.53162 -0.8081,-0.75349 -0.8081,-1.2049 0,-0.38486 0.81152,-0.9583 1.18528,-1.23819 1.29877,-0.97536 1.56245,-1.58891 1.56245,-2.80661 0,-1.52235 -1.63925,-3.0336 -4.30421,-3.0336 -2.33899,0 -4.3119,0.94976 -4.3119,2.47125 0,1.54368 1.6367,3.15392 3.97483,3.15392 0.25515,0 0.48811,0.006 0.73045,0.006 -0.32,0.30976 -0.57856,0.57771 -0.57856,1.04789 0,0.2799 0.0879,0.54699 0.21334,0.78507 -0.12715,-0.009 -0.25686,-0.0162 -0.38998,-0.0162 -1.92085,0 -3.03957,1.34997 -3.03957,3.04128 0,1.65632 1.7024,3.1633 3.74443,3.1633 1.05216,0 4.02432,0 4.02432,0 l -0.89942,-0.94464 h -1.05642 c 0.74581,-0.42666 1.14176,-1.3056 1.14176,-2.27498 z m -1.04363,10.0463 c -7.54005,0 -13.65333,-6.11328 -13.65333,-13.65334 0,-7.54176 6.11328,-13.65333 13.65333,-13.65333 7.54091,0 13.65333,6.11157 13.65333,13.65333 0,7.54006 -6.11242,13.65334 -13.65333,13.65334"
       style="fill:#989596;fill-opacity:1;fill-rule:nonzero;stroke:none;stroke-width:1.06666672"
       id="path1040"
       inkscape:connector-curvature="0" /></g></svg>