<?xml version="1.0" encoding="UTF-8" standalone="no"?>
<svg
   xmlns:dc="http://purl.org/dc/elements/1.1/"
   xmlns:cc="http://creativecommons.org/ns#"
   xmlns:rdf="http://www.w3.org/1999/02/22-rdf-syntax-ns#"
   xmlns:svg="http://www.w3.org/2000/svg"
   xmlns="http://www.w3.org/2000/svg"
   xmlns:sodipodi="http://sodipodi.sourceforge.net/DTD/sodipodi-0.dtd"
   xmlns:inkscape="http://www.inkscape.org/namespaces/inkscape"
   enable-background="new 0 0 116.3787 194.4198"
   id="facebook"
   version="1.1"
   viewBox="0 0 24 24"
   xml:space="preserve"
   sodipodi:docname="linkedin.svg"
   width="24"
   height="24"
   inkscape:version="1.0alpha (e25c9f7d36, 2019-01-13)">
  <metadata
   id="metadata4608">
    <rdf:RDF>
      <cc:Work
   rdf:about="">
        <dc:format>image/svg+xml</dc:format>

        <dc:type
   rdf:resource="http://purl.org/dc/dcmitype/StillImage" />

        <dc:title />

      </cc:Work>

    </rdf:RDF>

  </metadata>

  <defs
   id="defs4606">
    <mask
   fill="white"
   height="44"
   width="44"
   y="0"
   x="0"
   maskUnits="objectBoundingBox"
   maskContentUnits="userSpaceOnUse"
   id="mask-14">
      <circle
   id="use31"
   cx="22"
   cy="22"
   r="22"
   style="opacity:1;stop-opacity:1" />

    </mask>

  </defs>

  <sodipodi:namedview
   pagecolor="#ffffff"
   bordercolor="#666666"
   borderopacity="1"
   objecttolerance="10"
   gridtolerance="10"
   guidetolerance="10"
   inkscape:pageopacity="0"
   inkscape:pageshadow="2"
   inkscape:window-width="1916"
   inkscape:window-height="1060"
   id="namedview4604"
   showgrid="false"
   inkscape:measure-start="23.7378,37.2087"
   inkscape:measure-end="21.6262,40.631"
   inkscape:zoom="11.313708"
   inkscape:cx="-17.409709"
   inkscape:cy="-4.8605466"
   inkscape:window-x="0"
   inkscape:window-y="16"
   inkscape:window-maximized="1"
   inkscape:current-layer="facebook"
   inkscape:document-rotation="0" />

  <g
   transform="matrix(0.1125728,0,0,-0.1125728,3.9874227,20.18787)"
   id="g836"
   style="fill:#ffffff;fill-opacity:1" />

  
  <g
   id="g2021">
  <rect
     height="22"
     width="22"
     y="1"
     x="1"
     id="rect370"
     style="opacity:1;fill:none;fill-rule:evenodd;stroke:#000000;stroke-width:1;stop-opacity:1;stroke-opacity:1;stroke-miterlimit:4;stroke-dasharray:none" />
  <path
     inkscape:connector-curvature="0"
     fill="#000000"
     id="path374"
     d="M 7.2522345,10.206557 H 9.201317 v 6.792802 H 7.2522345 Z M 8.177093,9.356896 H 8.162983 C 7.457432,9.356896 7,8.8376235 7,8.1800485 7,7.509028 7.470955,7 8.190616,7 c 0.7190735,0 1.1612185,0.5077475 1.1753295,1.178128 0,0.6575745 -0.456256,1.178768 -1.1888525,1.178768 z M 17,17 h -2.210137 v -3.515815 c 0,-0.920092 -0.345719,-1.547573 -1.10595,-1.547573 -0.581491,0 -0.904868,0.423229 -1.055386,0.832373 -0.05644,0.145985 -0.04763,0.350237 -0.04763,0.555128 V 17 H 10.39134 c 0,0 0.02822,-6.22743 0,-6.793443 h 2.189558 v 1.066077 c 0.129351,-0.466128 0.829021,-1.131386 1.945555,-1.131386 1.385231,0 2.473542,0.977718 2.473542,3.081059 z"
     style="opacity:1;fill-rule:evenodd;stroke:none;stroke-width:0.5;stop-opacity:1" />
</g>

</svg>
