<?xml version="1.0" encoding="UTF-8" standalone="no"?>
<svg
   xmlns:dc="http://purl.org/dc/elements/1.1/"
   xmlns:cc="http://creativecommons.org/ns#"
   xmlns:rdf="http://www.w3.org/1999/02/22-rdf-syntax-ns#"
   xmlns:svg="http://www.w3.org/2000/svg"
   xmlns="http://www.w3.org/2000/svg"
   xmlns:sodipodi="http://sodipodi.sourceforge.net/DTD/sodipodi-0.dtd"
   xmlns:inkscape="http://www.inkscape.org/namespaces/inkscape"
   enable-background="new 0 0 116.3787 194.4198"
   id="facebook"
   version="1.1"
   viewBox="0 0 24 24"
   xml:space="preserve"
   sodipodi:docname="linkedin.svg"
   width="24"
   height="24"
   inkscape:version="0.92.2pre0 (973e216, 2017-07-25)"><metadata
     id="metadata4608"><rdf:RDF><cc:Work
         rdf:about=""><dc:format>image/svg+xml</dc:format><dc:type
           rdf:resource="http://purl.org/dc/dcmitype/StillImage" /><dc:title /></cc:Work></rdf:RDF></metadata><defs
     id="defs4606" /><sodipodi:namedview
     pagecolor="#ffffff"
     bordercolor="#666666"
     borderopacity="1"
     objecttolerance="10"
     gridtolerance="10"
     guidetolerance="10"
     inkscape:pageopacity="0"
     inkscape:pageshadow="2"
     inkscape:window-width="2552"
     inkscape:window-height="1408"
     id="namedview4604"
     showgrid="false"
     inkscape:measure-start="23.7378,37.2087"
     inkscape:measure-end="21.6262,40.631"
     inkscape:zoom="11.313708"
     inkscape:cx="11.802641"
     inkscape:cy="-26.073751"
     inkscape:window-x="0"
     inkscape:window-y="24"
     inkscape:window-maximized="0"
     inkscape:current-layer="facebook" /><path
     style="fill:#989596;fill-opacity:1;fill-rule:nonzero;stroke:none;stroke-width:0.93749994"
     d="M 12 0 C 5.3730044 0 -1.1842379e-15 5.3730033 0 12 C 0 18.628498 5.3730044 24 12 24 C 18.627753 24 24 18.628498 24 12 C 24 5.3730033 18.627753 2.3684758e-15 12 0 z M 7.59375 6.2089844 C 8.3623633 6.2089844 8.9863281 6.8346434 8.9863281 7.6035156 C 8.9863281 8.3730633 8.3623633 8.9980469 7.59375 8.9980469 C 6.8231104 8.9980469 6.1992188 8.3730633 6.1992188 7.6035156 C 6.1992188 6.8346434 6.8231104 6.2089844 7.59375 6.2089844 z M 14.916016 9.8613281 C 17.350718 9.8613281 17.800781 11.464019 17.800781 13.546875 L 17.800781 17.791016 L 15.398438 17.791016 L 15.398438 14.029297 C 15.398438 13.131743 15.381369 11.976563 14.148438 11.976562 C 12.897246 11.976562 12.705078 12.953833 12.705078 13.962891 L 12.705078 17.791016 L 10.302734 17.791016 L 10.302734 10.054688 L 12.609375 10.054688 L 12.609375 11.111328 L 12.642578 11.111328 C 12.963366 10.503131 13.74626 9.8613281 14.916016 9.8613281 z M 6.390625 10.054688 L 8.7949219 10.054688 L 8.7949219 17.791016 L 6.390625 17.791016 L 6.390625 10.054688 z "
     id="path1004" /><g
     transform="matrix(0.1125728,0,0,-0.1125728,3.9874227,20.18787)"
     id="g836"
     style="fill:#ffffff;fill-opacity:1" /></svg>