<?xml version="1.0" encoding="UTF-8" standalone="no"?>
<svg
   xmlns:dc="http://purl.org/dc/elements/1.1/"
   xmlns:cc="http://creativecommons.org/ns#"
   xmlns:rdf="http://www.w3.org/1999/02/22-rdf-syntax-ns#"
   xmlns:svg="http://www.w3.org/2000/svg"
   xmlns="http://www.w3.org/2000/svg"
   xmlns:sodipodi="http://sodipodi.sourceforge.net/DTD/sodipodi-0.dtd"
   xmlns:inkscape="http://www.inkscape.org/namespaces/inkscape"
   inkscape:version="1.0alpha (e25c9f7d36, 2019-01-13)"
   height="24"
   width="24"
   sodipodi:docname="linkedin.svg"
   xml:space="preserve"
   viewBox="0 0 24 24"
   version="1.1"
   id="facebook"
   enable-background="new 0 0 116.3787 194.4198">
  <metadata
   id="metadata4608">
    <rdf:RDF>
      <cc:Work
   rdf:about="">
        <dc:format>image/svg+xml</dc:format>


        <dc:type
   rdf:resource="http://purl.org/dc/dcmitype/StillImage" />


        <dc:title />


      </cc:Work>


    </rdf:RDF>


  </metadata>


  <defs
   id="defs4606">
    <mask
   id="mask-14"
   maskContentUnits="userSpaceOnUse"
   maskUnits="objectBoundingBox"
   x="0"
   y="0"
   width="44"
   height="44"
   fill="white">
      <circle
   style="opacity:1;stop-opacity:1"
   r="22"
   cy="22"
   cx="22"
   id="use31" />


    </mask>


  
  
  
</defs>


  <sodipodi:namedview
   inkscape:document-rotation="0"
   inkscape:current-layer="facebook"
   inkscape:window-maximized="1"
   inkscape:window-y="16"
   inkscape:window-x="0"
   inkscape:cy="-4.8605466"
   inkscape:cx="-17.409709"
   inkscape:zoom="11.313708"
   inkscape:measure-end="21.6262,40.631"
   inkscape:measure-start="23.7378,37.2087"
   showgrid="false"
   id="namedview4604"
   inkscape:window-height="1060"
   inkscape:window-width="1916"
   inkscape:pageshadow="2"
   inkscape:pageopacity="0"
   guidetolerance="10"
   gridtolerance="10"
   objecttolerance="10"
   borderopacity="1"
   bordercolor="#666666"
   pagecolor="#ffffff" />


  <g
   style="fill:#ffffff;fill-opacity:1"
   id="g836"
   transform="matrix(0.1125728,0,0,-0.1125728,3.9874227,20.18787)" />


  
  <path
   inkscape:connector-curvature="0"
   fill="#000000"
   id="path374"
   d="M 7.2522345,10.206557 H 9.201317 v 6.792802 H 7.2522345 Z M 8.177093,9.356896 H 8.162983 C 7.457432,9.356896 7,8.8376235 7,8.1800485 7,7.509028 7.470955,7 8.190616,7 c 0.7190735,0 1.1612185,0.5077475 1.1753295,1.178128 0,0.6575745 -0.456256,1.178768 -1.1888525,1.178768 z M 17,17 h -2.210137 v -3.515815 c 0,-0.920092 -0.345719,-1.547573 -1.10595,-1.547573 -0.581491,0 -0.904868,0.423229 -1.055386,0.832373 -0.05644,0.145985 -0.04763,0.350237 -0.04763,0.555128 V 17 H 10.39134 c 0,0 0.02822,-6.22743 0,-6.793443 h 2.189558 v 1.066077 c 0.129351,-0.466128 0.829021,-1.131386 1.945555,-1.131386 1.385231,0 2.473542,0.977718 2.473542,3.081059 z"
   style="opacity:1;fill-rule:evenodd;stroke:none;stroke-width:0.5;stop-opacity:1" />


<path
   sodipodi:type="star"
   style="color:#000000;font-variation-settings:normal;overflow:visible;opacity:1;vector-effect:none;fill:#000000;fill-opacity:0;stroke:#808080;stroke-width:1;stroke-linecap:butt;stroke-linejoin:miter;stroke-miterlimit:4;stroke-dasharray:none;stroke-dashoffset:0;stroke-opacity:1;stop-color:#000000;stop-opacity:1"
   id="path871"
   sodipodi:sides="8"
   sodipodi:cx="12"
   sodipodi:cy="12"
   sodipodi:r1="10.958804"
   sodipodi:r2="10.124615"
   sodipodi:arg1="0"
   sodipodi:arg2="0.39269908"
   inkscape:flatsided="true"
   inkscape:rounded="0"
   inkscape:randomized="0"
   d="M 22.958804,12 19.749045,19.749045 12,22.958804 4.2509553,19.749045 1.0411959,12 4.2509553,4.2509553 12,1.0411959 19.749045,4.2509553 Z" />
</svg>
