<?xml version="1.0" encoding="UTF-8" standalone="no"?>
<svg
   xmlns:dc="http://purl.org/dc/elements/1.1/"
   xmlns:cc="http://creativecommons.org/ns#"
   xmlns:rdf="http://www.w3.org/1999/02/22-rdf-syntax-ns#"
   xmlns:svg="http://www.w3.org/2000/svg"
   xmlns="http://www.w3.org/2000/svg"
   xmlns:sodipodi="http://sodipodi.sourceforge.net/DTD/sodipodi-0.dtd"
   xmlns:inkscape="http://www.inkscape.org/namespaces/inkscape"
   enable-background="new 0 0 116.3787 194.4198"
   id="facebook"
   version="1.1"
   viewBox="0 0 24 24"
   xml:space="preserve"
   sodipodi:docname="mail.svg"
   width="24"
   height="24"
   inkscape:version="0.92.0 r15299"><metadata
     id="metadata4608"><rdf:RDF><cc:Work
         rdf:about=""><dc:format>image/svg+xml</dc:format><dc:type
           rdf:resource="http://purl.org/dc/dcmitype/StillImage" /><dc:title></dc:title></cc:Work></rdf:RDF></metadata><defs
     id="defs4606" /><sodipodi:namedview
     pagecolor="#ffffff"
     bordercolor="#666666"
     borderopacity="1"
     objecttolerance="10"
     gridtolerance="10"
     guidetolerance="10"
     inkscape:pageopacity="0"
     inkscape:pageshadow="2"
     inkscape:window-width="1144"
     inkscape:window-height="1056"
     id="namedview4604"
     showgrid="false"
     inkscape:measure-start="23.7378,37.2087"
     inkscape:measure-end="21.6262,40.631"
     inkscape:zoom="8"
     inkscape:cx="13.939125"
     inkscape:cy="-1.0937629"
     inkscape:window-x="0"
     inkscape:window-y="16"
     inkscape:window-maximized="0"
     inkscape:current-layer="facebook" /><path
     style="fill:#989596;fill-opacity:1;fill-rule:nonzero;stroke:none;stroke-width:0.93749994"
     d="M 12.000004,0 C 5.3729994,0 0,5.3729994 0,11.999995 0,18.628495 5.3729994,24 12.000004,24 18.627001,24 24,18.628495 24,11.999995 24,5.3729994 18.627001,0 12.000004,0 Z M 6.9609367,8.1328091 H 17.015623 L 12.000004,11.953124 Z M 5.7421928,8.3671866 10.054686,11.671874 5.7421927,15.23437 V 8.3906267 c 0,-0.012741 -0.00176,-0.011158 0,-0.023463 z m 12.5156232,0 c 0.0018,0.012214 0,0.010723 0,0.023463 v 6.7968714 l -4.359374,-3.492184 z m -7.406251,3.9140584 0.796877,0.609381 a 0.46761902,0.46761902 0 0 0 0.164057,0.09374 0.46907749,0.46907749 0 0 0 0.515628,-0.04684 0.46761902,0.46761902 0 0 0 0.02346,-0.02346 0.46907749,0.46907749 0 0 0 0,-0.02347 l 0.04685,-0.02346 a 0.46907749,0.46907749 0 0 0 0.02347,-0.02346 l 0.726556,-0.5625 4.476568,3.585937 H 6.4453444 Z"
     id="path3010"
     inkscape:connector-curvature="0"
     inkscape:export-filename="/home/bernat/code/perso/www.luffy.cx/content/media/images/l/sprite/mail.png"
     inkscape:export-xdpi="135"
     inkscape:export-ydpi="135" /></svg>