<?xml version="1.0" encoding="UTF-8" standalone="no"?>
<svg
   xmlns:dc="http://purl.org/dc/elements/1.1/"
   xmlns:cc="http://creativecommons.org/ns#"
   xmlns:rdf="http://www.w3.org/1999/02/22-rdf-syntax-ns#"
   xmlns:svg="http://www.w3.org/2000/svg"
   xmlns="http://www.w3.org/2000/svg"
   xmlns:sodipodi="http://sodipodi.sourceforge.net/DTD/sodipodi-0.dtd"
   xmlns:inkscape="http://www.inkscape.org/namespaces/inkscape"
   enable-background="new 0 0 116.3787 194.4198"
   id="facebook"
   version="1.1"
   viewBox="0 0 24 24"
   xml:space="preserve"
   sodipodi:docname="mail.svg"
   width="24"
   height="24"
   inkscape:version="1.0alpha (e25c9f7d36, 2019-01-13)">
  <metadata
   id="metadata4608">
    <rdf:RDF>
      <cc:Work
   rdf:about="">
        <dc:format>image/svg+xml</dc:format>

        <dc:type
   rdf:resource="http://purl.org/dc/dcmitype/StillImage" />

        <dc:title />

      </cc:Work>

    </rdf:RDF>

  </metadata>

  <defs
   id="defs4606">
    <mask
   fill="white"
   height="44"
   width="44"
   y="0"
   x="0"
   maskUnits="objectBoundingBox"
   maskContentUnits="userSpaceOnUse"
   id="mask-46">
      <circle
   id="use95"
   cx="22"
   cy="22"
   r="22"
   style="opacity:1;stop-opacity:1" />

    </mask>

  </defs>

  <sodipodi:namedview
   pagecolor="#ffffff"
   bordercolor="#666666"
   borderopacity="1"
   objecttolerance="10"
   gridtolerance="10"
   guidetolerance="10"
   inkscape:pageopacity="0"
   inkscape:pageshadow="2"
   inkscape:window-width="1916"
   inkscape:window-height="1060"
   id="namedview4604"
   showgrid="false"
   inkscape:measure-start="23.7378,37.2087"
   inkscape:measure-end="21.6262,40.631"
   inkscape:zoom="8"
   inkscape:cx="-27.373375"
   inkscape:cy="-1.0937629"
   inkscape:window-x="0"
   inkscape:window-y="16"
   inkscape:window-maximized="1"
   inkscape:current-layer="facebook"
   inkscape:document-rotation="0" />

  
  <g
   id="g1425">
  <rect
     height="22"
     width="22"
     y="1"
     x="1"
     id="rect482"
     style="opacity:1;fill:none;fill-rule:evenodd;stroke:#000000;stroke-width:1;stop-opacity:1;stroke-opacity:1;stroke-miterlimit:4;stroke-dasharray:none" />
  <path
     inkscape:connector-curvature="0"
     fill="#000000"
     id="path486"
     d="m 7.555774,10.465959 c 0.1391575,0.09087 0.558589,0.360827 1.25837,0.809665 0.6997805,0.448839 1.235843,0.794464 1.60826,1.036805 0.04091,0.02657 0.127856,0.08431 0.260836,0.173301 0.132979,0.08906 0.243507,0.161096 0.331431,0.215981 0.088,0.05488 0.194384,0.116463 0.319226,0.184598 0.124843,0.06813 0.242528,0.119323 0.35298,0.153285 0.110527,0.03417 0.212842,0.05112 0.306945,0.05112 H 12 12.0062 c 0.0941,0 0.196418,-0.01694 0.306946,-0.05112 0.110452,-0.03396 0.228211,-0.08522 0.352978,-0.153285 0.124768,-0.06821 0.231152,-0.129714 0.319151,-0.184598 0.088,-0.05488 0.198452,-0.126925 0.331432,-0.215981 0.132979,-0.08906 0.22,-0.14673 0.260911,-0.173301 0.376411,-0.242411 1.334089,-0.857925 2.872732,-1.846609 0.298733,-0.193107 0.548268,-0.426104 0.748829,-0.6988515 C 17.399794,9.49436 17.5,9.2083615 17.5,8.909113 17.5,8.6591 17.402733,8.445072 17.208349,8.2670295 17.013965,8.0889865 16.783719,8 16.517835,8 H 7.482089 C 7.167007,8 6.924555,8.098471 6.754733,8.295413 6.584911,8.4924245 6.5,8.738672 6.5,9.0340845 c 0,0.238646 0.1125615,0.497237 0.3376095,0.7756335 0.225048,0.278397 0.4644865,0.497167 0.7181645,0.656241 z m 9.330335,0.607912 c -1.34215,0.840839 -2.361232,1.49429 -3.056794,1.960214 -0.23326,0.159074 -0.42252,0.283209 -0.567856,0.372126 -0.145261,0.08906 -0.338589,0.179925 -0.580062,0.272747 -0.241397,0.09282 -0.466445,0.139199 -0.675144,0.139199 H 12 11.9938 c -0.208699,0 -0.433822,-0.04637 -0.67522,-0.139199 -0.241396,-0.09282 -0.434801,-0.183691 -0.580061,-0.272747 -0.14526,-0.08892 -0.33452,-0.213052 -0.56778,-0.372126 C 9.618274,12.6591 8.6013765,12.005649 7.119993,11.073871 6.886733,10.93 6.6800685,10.765138 6.5,10.579563 v 4.511254 c 0,0.250083 0.096137,0.464041 0.2884865,0.642084 C 6.9808355,15.911013 7.2120615,16 7.4821645,16 h 9.0357465 c 0.270027,0 0.501253,-0.08899 0.693602,-0.267099 C 17.403938,15.554789 17.5,15.3409 17.5,15.090817 v -4.511254 c -0.176,0.181739 -0.380555,0.346601 -0.613891,0.494308 z"
     style="opacity:1;fill-rule:evenodd;stroke:none;stroke-width:0.5;stop-opacity:1" />
</g>

</svg>
