<?xml version="1.0" encoding="UTF-8" standalone="no"?>
<svg
   xmlns:dc="http://purl.org/dc/elements/1.1/"
   xmlns:cc="http://creativecommons.org/ns#"
   xmlns:rdf="http://www.w3.org/1999/02/22-rdf-syntax-ns#"
   xmlns:svg="http://www.w3.org/2000/svg"
   xmlns="http://www.w3.org/2000/svg"
   xmlns:sodipodi="http://sodipodi.sourceforge.net/DTD/sodipodi-0.dtd"
   xmlns:inkscape="http://www.inkscape.org/namespaces/inkscape"
   enable-background="new 0 0 116.3787 194.4198"
   id="facebook"
   version="1.1"
   viewBox="0 0 24 24"
   xml:space="preserve"
   sodipodi:docname="reddit.svg"
   width="24"
   height="24"
   inkscape:version="0.92.0 r15299"><metadata
     id="metadata4608"><rdf:RDF><cc:Work
         rdf:about=""><dc:format>image/svg+xml</dc:format><dc:type
           rdf:resource="http://purl.org/dc/dcmitype/StillImage" /><dc:title></dc:title></cc:Work></rdf:RDF></metadata><defs
     id="defs4606" /><sodipodi:namedview
     pagecolor="#ffffff"
     bordercolor="#666666"
     borderopacity="1"
     objecttolerance="10"
     gridtolerance="10"
     guidetolerance="10"
     inkscape:pageopacity="0"
     inkscape:pageshadow="2"
     inkscape:window-width="1144"
     inkscape:window-height="1056"
     id="namedview4604"
     showgrid="false"
     inkscape:measure-start="23.7378,37.2087"
     inkscape:measure-end="21.6262,40.631"
     inkscape:zoom="8"
     inkscape:cx="4.564125"
     inkscape:cy="-9.5937629"
     inkscape:window-x="0"
     inkscape:window-y="16"
     inkscape:window-maximized="0"
     inkscape:current-layer="facebook" /><path
     style="fill:#989596;fill-opacity:1;fill-rule:nonzero;stroke:none;stroke-width:0.9375"
     d="M 12.000005,0 C 5.3729991,0 0,5.3729992 0,11.999995 0,18.628495 5.3729991,24 12.000005,24 18.627001,24 24,18.628495 24,11.999995 24,5.3729992 18.627001,0 12.000005,0 Z m 1.312496,5.5078146 c 0.01037,-5.097e-4 0.03639,-5.097e-4 0.04685,0 0.04139,-0.00879 0.07585,-0.00879 0.117193,0 l 3.07031,0.7265566 c 0.03199,4.746e-4 0.0399,0.013447 0.07031,0.023467 0.196415,-0.3971425 0.628494,-0.6562529 1.101557,-0.6562529 0.664277,0 1.171881,0.5310527 1.171881,1.1953125 0,0.6642772 -0.507596,1.1953124 -1.171881,1.1953124 -0.641769,0 -1.160525,-0.5153287 -1.195313,-1.1484316 -8.7e-5,-5.098e-4 -0.02346,4.922e-4 -0.02346,0 -0.03736,0.00176 -0.08183,0.011777 -0.117193,0 L 13.640567,6.210966 12.585879,9.4922124 c 1.862966,0.06627 3.526823,0.6101366 4.710938,1.4531226 0.279554,-0.350631 0.712037,-0.5625 1.195313,-0.5625 0.842659,0 1.500002,0.680791 1.500002,1.523443 0,0.642787 -0.398258,1.181689 -0.960934,1.40625 0.05106,0.221089 0.09374,0.449314 0.09374,0.679684 0,2.490847 -3.097476,4.499999 -6.914057,4.499999 -3.8165793,0 -6.9140643,-2.009152 -6.9140643,-4.499999 0,-0.236663 0.040166,-0.476288 0.093753,-0.703125 -0.5357115,-0.236786 -0.9375034,-0.759436 -0.9375034,-1.382809 0,-0.842652 0.7042235,-1.523443 1.5468748,-1.523443 0.4682197,0 0.8920019,0.20707 1.1718727,0.539068 1.2144626,-0.846351 2.9001612,-1.3929432 4.8046892,-1.4296906 -0.02654,-0.070137 -0.02654,-0.1408092 0,-0.2109375 l 1.14844,-3.5390648 C 13.150173,5.6408547 13.213253,5.540466 13.31244,5.507841 Z M 9.7968765,11.953123 c -0.6138189,0 -1.1015591,0.53463 -1.1015591,1.14844 0,0.61382 0.4877402,1.10156 1.1015591,1.10156 0.6138025,0 1.1250005,-0.48774 1.1250005,-1.10156 0,-0.61381 -0.511198,-1.14844 -1.1250005,-1.14844 z m 4.8750025,0 c -0.61411,0 -1.125,0.534323 -1.125,1.14844 0,0.614127 0.51089,1.10156 1.125,1.10156 0.614136,0 1.125,-0.487424 1.125,-1.10156 0,-0.614117 -0.510864,-1.14844 -1.125,-1.14844 z m -0.07031,3.750003 a 0.31259427,0.31259428 0 0 0 -0.07031,0.02346 0.31259427,0.31259428 0 0 0 -0.117193,0.07031 c -0.482046,0.481606 -1.329065,0.64641 -2.085935,0.656254 -0.02592,3.34e-4 -0.06794,0 -0.09375,0 a 0.31060402,0.31060402 0 0 0 -0.02346,0 c -0.01283,0 -0.01046,7.8e-5 -0.02346,0 -0.765343,-0.0044 -1.619727,-0.166615 -2.109374,-0.656254 a 0.31532164,0.31532165 0 0 0 -0.4218753,0.468756 c 0.6846063,0.684607 1.6632413,0.790313 2.4843773,0.796869 0.02557,2.11e-4 0.045,0 0.07031,0 a 0.31060402,0.31060402 0 0 0 0.02346,0 c 0.02461,0 0.06882,1.85e-4 0.09375,0 0.82394,-0.0061 1.845589,-0.111867 2.531251,-0.796869 a 0.31259427,0.31259428 0 0 0 -0.257809,-0.5625 z"
     id="path5918"
     inkscape:export-filename="/home/bernat/code/perso/www.luffy.cx/content/media/images/l/sprite/reddit.png"
     inkscape:export-xdpi="135"
     inkscape:export-ydpi="135"
     inkscape:connector-curvature="0" /></svg>