<?xml version="1.0" encoding="UTF-8" standalone="no"?>
<svg
   xmlns:dc="http://purl.org/dc/elements/1.1/"
   xmlns:cc="http://creativecommons.org/ns#"
   xmlns:rdf="http://www.w3.org/1999/02/22-rdf-syntax-ns#"
   xmlns:svg="http://www.w3.org/2000/svg"
   xmlns="http://www.w3.org/2000/svg"
   xmlns:sodipodi="http://sodipodi.sourceforge.net/DTD/sodipodi-0.dtd"
   xmlns:inkscape="http://www.inkscape.org/namespaces/inkscape"
   enable-background="new 0 0 116.3787 194.4198"
   id="facebook"
   version="1.1"
   viewBox="0 0 24 24"
   xml:space="preserve"
   sodipodi:docname="reddit.svg"
   width="24"
   height="24"
   inkscape:version="1.0alpha (e25c9f7d36, 2019-01-13)">
  <metadata
   id="metadata4608">
    <rdf:RDF>
      <cc:Work
   rdf:about="">
        <dc:format>image/svg+xml</dc:format>

        <dc:type
   rdf:resource="http://purl.org/dc/dcmitype/StillImage" />

        <dc:title />

      </cc:Work>

    </rdf:RDF>

  </metadata>

  <defs
   id="defs4606">
    <mask
   fill="white"
   height="44"
   width="44"
   y="0"
   x="0"
   maskUnits="objectBoundingBox"
   maskContentUnits="userSpaceOnUse"
   id="mask-100">
      <circle
   id="use203"
   cx="22"
   cy="22"
   r="22"
   style="opacity:1;stop-opacity:1" />

    </mask>

  </defs>

  <sodipodi:namedview
   pagecolor="#ffffff"
   bordercolor="#666666"
   borderopacity="1"
   objecttolerance="10"
   gridtolerance="10"
   guidetolerance="10"
   inkscape:pageopacity="0"
   inkscape:pageshadow="2"
   inkscape:window-width="1916"
   inkscape:window-height="1060"
   id="namedview4604"
   showgrid="false"
   inkscape:measure-start="23.7378,37.2087"
   inkscape:measure-end="21.6262,40.631"
   inkscape:zoom="5.6568542"
   inkscape:cx="27.183285"
   inkscape:cy="42.4914"
   inkscape:window-x="0"
   inkscape:window-y="16"
   inkscape:window-maximized="1"
   inkscape:current-layer="facebook"
   inkscape:document-rotation="0" />

  
  <g
   id="g2612">
  <rect
     height="22"
     width="22"
     y="1"
     x="1"
     id="rect669"
     style="opacity:1;fill:none;fill-rule:evenodd;stroke:#000000;stroke-width:1;stop-opacity:1;stroke-opacity:1;stroke-miterlimit:4;stroke-dasharray:none" />
  <path
     inkscape:connector-curvature="0"
     fill="#000000"
     id="path673"
     d="m 10.040647,14.898418 c -0.0096,0.002 -0.01966,0.0043 -0.02894,0.0078 -0.1354205,0.02816 -0.223722,0.166633 -0.196638,0.309796 0.01002,0.0532 0.035615,0.102482 0.073461,0.140034 0.560604,0.591037 1.395388,0.684523 2.062845,0.68687 0.0096,3.91e-4 0.01966,0 0.02931,0 0.0045,3.91e-4 0.0093,3.91e-4 0.01447,0 h 0.007 c 0.671166,0 1.510773,-0.08997 2.077313,-0.68687 0.09832,-0.101701 0.100175,-0.268725 0.0037,-0.372382 -0.0538,-0.05828 -0.129855,-0.08684 -0.206284,-0.07745 -0.05602,0.0098 -0.106853,0.03912 -0.145067,0.08332 -0.39476,0.416582 -1.090414,0.523367 -1.708154,0.526888 h -0.02857 c -0.0052,-3.91e-4 -0.01002,-3.91e-4 -0.01447,0 h -0.03636 c -0.615514,-0.0039 -1.3082,-0.111871 -1.701105,-0.526888 -0.05046,-0.0618 -0.125403,-0.09544 -0.202574,-0.09114 z m 3.908645,-3.182449 c -0.493821,0 -0.897856,0.424796 -0.897856,0.946207 0,0.521021 0.404035,0.946208 0.897856,0.946208 0.493821,0 0.897486,-0.425187 0.897486,-0.946208 0,-0.52102 -0.403665,-0.946207 -0.897486,-0.946207 z m -3.923115,0 c -0.4945625,0 -0.897856,0.425187 -0.897856,0.946207 0,0.521021 0.4032935,0.946208 0.897856,0.946208 0.493822,0 0.897487,-0.425187 0.897487,-0.946208 0,-0.521411 -0.403665,-0.946207 -0.897487,-0.946207 z m 6.977682,-1.121837 c 0.543167,0 0.976883,0.457262 0.976883,1.030306 0,0.332092 -0.148035,0.627024 -0.376209,0.816735 -0.21185,-0.621156 -0.623677,-1.182857 -1.172408,-1.648333 0.159537,-0.125561 0.35432,-0.198708 0.571734,-0.198708 z m -10.0470895,0 c 0.2048,0 0.3877105,0.07119 0.542795,0.183453 C 6.953059,11.236411 6.5401195,11.791071 6.3201075,12.40284 6.11271,12.213911 5.9798864,11.938928 5.9798864,11.624438 c 0,-0.573044 0.4344586,-1.030306 0.9768831,-1.030306 z M 11.958795,9.8462415 c 1.491852,0 2.834927,0.4247965 3.792888,1.0835035 0.957961,0.65949 1.512629,1.532551 1.512629,2.480323 0,0.947772 -0.554668,1.829048 -1.512629,2.488146 -0.957961,0.658708 -2.301036,1.076071 -3.792888,1.076071 -1.492223,0 -2.835297,-0.417363 -3.7932585,-1.076071 -0.95759,-0.659098 -1.527098,-1.540374 -1.527098,-2.488146 0,-0.947772 0.569508,-1.820833 1.527098,-2.480323 C 9.123498,10.271038 10.466572,9.8462415 11.958795,9.8462415 Z m 4.42955,-3.311922 c 0.399213,0 0.716802,0.34148 0.716802,0.7631465 0,0.4212755 -0.317589,0.755714 -0.716802,0.755714 -0.400325,0 -0.71643,-0.3344385 -0.71643,-0.755714 0,-0.4216665 0.316105,-0.7631465 0.71643,-0.7631465 z m 0,-0.5339285 c -0.500128,0 -0.935329,0.3258335 -1.121579,0.7858335 l -2.272838,-0.56483 c -0.0256,-0.00938 -0.05269,-0.014865 -0.07977,-0.015645 -0.102771,0.01056 -0.189217,0.086446 -0.217044,0.1912755 L 11.806679,9.327178 C 10.30852,9.354168 8.950605,9.7715315 7.934023,10.456838 7.6731995,10.212756 7.3326075,10.067246 6.9567695,10.067246 6.143875,10.067246 5.4805,10.766634 5.4805,11.62444 c 0,0.556616 0.2834556,1.049081 0.7023315,1.327585 -0.023745,0.149031 -0.04378,0.303928 -0.04378,0.457653 0,1.166428 0.6963955,2.197126 1.7515625,2.923112 1.055538,0.725595 2.488027,1.167602 4.068181,1.167211 1.580153,0 3.012272,-0.441616 4.06781,-1.167211 1.055538,-0.725986 1.737093,-1.756684 1.737093,-2.923112 0,-0.14551 -0.0082,-0.293759 -0.02894,-0.434575 0.445218,-0.27068 0.74574,-0.773316 0.74574,-1.350663 0,-0.857806 -0.663004,-1.557194 -1.47664,-1.557194 -0.384372,0 -0.729045,0.158027 -0.991724,0.412279 -0.969462,-0.6626195 -2.253175,-1.0807655 -3.67676,-1.1449155 l 0.766889,-2.540952 2.070264,0.5112415 c 0.0041,0.702517 0.548361,1.2743875 1.215817,1.2743875 0.669682,0 1.216187,-0.575782 1.216187,-1.2822105 C 17.604533,6.5910375 17.057657,6 16.388345,6 Z"
     style="opacity:1;fill-rule:evenodd;stroke:none;stroke-width:0.5;stop-opacity:1" />
</g>

</svg>
