<?xml version="1.0" encoding="UTF-8" standalone="no"?>
<svg
   xmlns:dc="http://purl.org/dc/elements/1.1/"
   xmlns:cc="http://creativecommons.org/ns#"
   xmlns:rdf="http://www.w3.org/1999/02/22-rdf-syntax-ns#"
   xmlns:svg="http://www.w3.org/2000/svg"
   xmlns="http://www.w3.org/2000/svg"
   xmlns:sodipodi="http://sodipodi.sourceforge.net/DTD/sodipodi-0.dtd"
   xmlns:inkscape="http://www.inkscape.org/namespaces/inkscape"
   enable-background="new 0 0 116.3787 194.4198"
   id="facebook"
   version="1.1"
   viewBox="0 0 16 16"
   xml:space="preserve"
   sodipodi:docname="rss.svg"
   width="16"
   height="16"
   inkscape:version="0.92.0 r15299"><metadata
     id="metadata4608"><rdf:RDF><cc:Work
         rdf:about=""><dc:format>image/svg+xml</dc:format><dc:type
           rdf:resource="http://purl.org/dc/dcmitype/StillImage" /><dc:title></dc:title></cc:Work></rdf:RDF></metadata><defs
     id="defs4606" /><sodipodi:namedview
     pagecolor="#ffffff"
     bordercolor="#666666"
     borderopacity="1"
     objecttolerance="10"
     gridtolerance="10"
     guidetolerance="10"
     inkscape:pageopacity="0"
     inkscape:pageshadow="2"
     inkscape:window-width="1144"
     inkscape:window-height="1056"
     id="namedview4604"
     showgrid="false"
     inkscape:measure-start="23.7378,37.2087"
     inkscape:measure-end="21.6262,40.631"
     inkscape:zoom="8"
     inkscape:cx="12.314125"
     inkscape:cy="-1.0937629"
     inkscape:window-x="0"
     inkscape:window-y="16"
     inkscape:window-maximized="0"
     inkscape:current-layer="facebook"
     inkscape:pagecheckerboard="true" /><path
     id="path4277"
     d="M 8.000003,0 C 3.5812494,0 0,3.58125 0,7.9999972 0,12.41875 3.5812494,16 8.000003,16 12.41875,16 16,12.41875 16,7.9999972 16,3.58125 12.41875,4.6874993e-7 8.000003,0 Z M 5.8156283,11.678126 c -0.1937522,0.193746 -0.459375,0.309375 -0.7531288,0.309375 -0.2937483,0 -0.5562483,-0.118752 -0.7500002,-0.309375 -0.1937461,-0.193752 -0.312498,-0.456252 -0.312498,-0.746877 0,-0.293748 0.1187519,-0.556248 0.312498,-0.75 0.1937519,-0.1937516 0.4562524,-0.3124977 0.7500002,-0.3124977 0.2937538,0 0.5593766,0.1187461 0.7499999,0.3124977 0.1937517,0.193752 0.3125038,0.456252 0.3125038,0.75 0,0.293748 -0.1187521,0.556248 -0.3093749,0.746877 z m 1.9281204,0.321873 C 7.7408387,10.996874 7.3531281,10.053122 6.6468743,9.3468742 5.9406265,8.640626 4.9968745,8.2468765 4.0000013,8.2468765 V 6.7187513 c 1.4562481,0 2.7718769,0.5937482 3.7281263,1.549998 0.9562504,0.9562499 1.5468753,2.2750017 1.5499981,3.7312497 z m 2.7250023,0 C 10.465821,8.4312476 7.5687531,5.5281269 4.0031243,5.5281269 V 4.0000016 c 2.2062539,0 4.2031287,0.8968715 5.6500014,2.346873 1.4468733,1.450002 2.3437493,3.4468767 2.3468733,5.6531244 z"
     inkscape:connector-curvature="0"
     style="color:#000000;clip-rule:nonzero;display:inline;overflow:visible;visibility:visible;opacity:1;isolation:auto;mix-blend-mode:normal;color-interpolation:sRGB;color-interpolation-filters:linearRGB;solid-color:#000000;solid-opacity:1;fill:#e9e9e9;fill-opacity:1;fill-rule:nonzero;stroke:none;stroke-width:0.62499994;stroke-linecap:butt;stroke-linejoin:miter;stroke-miterlimit:4;stroke-dasharray:none;stroke-dashoffset:0;stroke-opacity:1;color-rendering:auto;image-rendering:auto;shape-rendering:auto;text-rendering:auto;enable-background:accumulate"
     inkscape:export-xdpi="135"
     inkscape:export-ydpi="135" /></svg>