<?xml version="1.0" encoding="UTF-8" standalone="no"?>
<svg
   xmlns:dc="http://purl.org/dc/elements/1.1/"
   xmlns:cc="http://creativecommons.org/ns#"
   xmlns:rdf="http://www.w3.org/1999/02/22-rdf-syntax-ns#"
   xmlns:svg="http://www.w3.org/2000/svg"
   xmlns="http://www.w3.org/2000/svg"
   xmlns:sodipodi="http://sodipodi.sourceforge.net/DTD/sodipodi-0.dtd"
   xmlns:inkscape="http://www.inkscape.org/namespaces/inkscape"
   enable-background="new 0 0 116.3787 194.4198"
   id="facebook"
   version="1.1"
   viewBox="0 0 24 24"
   xml:space="preserve"
   sodipodi:docname="share.svg"
   width="24"
   height="24"
   inkscape:version="0.92.4 (5da689c313, 2019-01-14)">
  <metadata
   id="metadata4608">
    <rdf:RDF>
      <cc:Work
   rdf:about="">
        <dc:format>image/svg+xml</dc:format>



        <dc:type
   rdf:resource="http://purl.org/dc/dcmitype/StillImage" />



        <dc:title></dc:title>



      </cc:Work>



    </rdf:RDF>



  </metadata>



  <defs
   id="defs4606">
  

  

</defs>



  <sodipodi:namedview
   pagecolor="#ffffff"
   bordercolor="#666666"
   borderopacity="1"
   objecttolerance="10"
   gridtolerance="10"
   guidetolerance="10"
   inkscape:pageopacity="0"
   inkscape:pageshadow="2"
   inkscape:window-width="2552"
   inkscape:window-height="1408"
   id="namedview4604"
   showgrid="false"
   inkscape:measure-start="23.7378,37.2087"
   inkscape:measure-end="21.6262,40.631"
   inkscape:zoom="11.313708"
   inkscape:cx="0.32074132"
   inkscape:cy="16.146506"
   inkscape:window-x="0"
   inkscape:window-y="24"
   inkscape:window-maximized="0"
   inkscape:current-layer="facebook"
   inkscape:document-rotation="0" />



  
  <circle
   style="color:#000000;clip-rule:nonzero;display:inline;overflow:visible;visibility:visible;opacity:1;isolation:auto;mix-blend-mode:normal;color-interpolation:sRGB;color-interpolation-filters:linearRGB;solid-color:#000000;solid-opacity:1;vector-effect:none;fill:#f9f9f9;fill-opacity:1;fill-rule:nonzero;stroke:#878787;stroke-width:1;stroke-linecap:butt;stroke-linejoin:miter;stroke-miterlimit:4;stroke-dasharray:none;stroke-dashoffset:0;stroke-opacity:1;marker:none;color-rendering:auto;image-rendering:auto;shape-rendering:auto;text-rendering:auto;enable-background:accumulate;font-variant-east_asian:normal"
   id="path814"
   cx="12"
   cy="12"
   r="11.5" />




<text
   xml:space="preserve"
   style="font-style:normal;font-variant:normal;font-weight:normal;font-stretch:normal;font-size:26.66666603px;line-height:25px;font-family:'Source Sans Pro';-inkscape-font-specification:'Source Sans Pro, Normal';text-align:start;letter-spacing:0px;word-spacing:0px;writing-mode:lr-tb;text-anchor:start;fill:#000000;fill-opacity:1;stroke:none;stroke-width:1px;stroke-linecap:butt;stroke-linejoin:miter;stroke-opacity:1"
   x="-15.1875"
   y="-1.1875"
   id="text822"><tspan
     sodipodi:role="line"
     id="tspan820"
     x="-15.1875"
     y="17.979166" /></text>

<text
   xml:space="preserve"
   style="font-style:normal;font-variant:normal;font-weight:normal;font-stretch:normal;font-size:26.66666603px;line-height:25px;font-family:'Source Sans Pro';-inkscape-font-specification:'Source Sans Pro, Normal';text-align:start;letter-spacing:0px;word-spacing:0px;writing-mode:lr-tb;text-anchor:start;fill:#000000;fill-opacity:1;stroke:none;stroke-width:1px;stroke-linecap:butt;stroke-linejoin:miter;stroke-opacity:1"
   x="-20.240932"
   y="18.785088"
   id="text826"><tspan
     sodipodi:role="line"
     id="tspan824"
     x="-20.240932"
     y="37.951756" /></text>

<g
   id="g1007"
   transform="matrix(0.99901282,0,0,1.0135873,-254.02354,-249.7762)"><g
     id="g950">
	<g
   id="share-alt">
		<path
   id="path947"
   d="m 261.40757,255.9227 c 0.52848,0 0.99093,0.19819 1.32122,0.52849 l 4.69037,-2.70852 c -0.0661,-0.13212 -0.0661,-0.33031 -0.0661,-0.46243 0,-1.12305 0.8588,-1.98184 1.98183,-1.98184 1.12305,0 1.98184,0.85879 1.98184,1.98184 0,1.12304 -0.85879,1.98184 -1.98184,1.98184 -0.52848,0 -0.99092,-0.19818 -1.32123,-0.52849 l -4.69036,2.70852 c 0.0661,0.13212 0.0661,0.3303 0.0661,0.46243 0,0.13212 0,0.33031 -0.0661,0.46243 l 4.69036,2.77458 c 0.33031,-0.33031 0.79274,-0.52849 1.32123,-0.52849 1.05699,0 1.91578,0.85879 1.91578,1.91578 0,1.05698 -0.85879,1.91578 -1.91578,1.91578 -1.05698,0 -1.91577,-0.8588 -1.91577,-1.91578 0,-0.13212 0,-0.26424 0.0661,-0.46244 l -4.69037,-2.77457 c -0.3303,0.3303 -0.79274,0.52849 -1.32123,0.52849 -1.12304,0 -1.98183,-0.8588 -1.98183,-1.98184 0,-1.12304 0.79274,-1.91578 1.91578,-1.91578 z"
   inkscape:connector-curvature="0"
   style="stroke-width:0.02590643" />
	</g>
</g><g
     id="g952">
</g><g
     id="g954">
</g><g
     id="g956">
</g><g
     id="g958">
</g><g
     id="g960">
</g><g
     id="g962">
</g><g
     id="g964">
</g><g
     id="g966">
</g><g
     id="g968">
</g><g
     id="g970">
</g><g
     id="g972">
</g><g
     id="g974">
</g><g
     id="g976">
</g><g
     id="g978">
</g><g
     id="g980">
</g></g></svg>