<?xml version="1.0" encoding="UTF-8" standalone="no"?>
<!-- Created with Inkscape (http://www.inkscape.org/) -->

<svg
   xmlns:dc="http://purl.org/dc/elements/1.1/"
   xmlns:cc="http://creativecommons.org/ns#"
   xmlns:rdf="http://www.w3.org/1999/02/22-rdf-syntax-ns#"
   xmlns:svg="http://www.w3.org/2000/svg"
   xmlns="http://www.w3.org/2000/svg"
   xmlns:sodipodi="http://sodipodi.sourceforge.net/DTD/sodipodi-0.dtd"
   xmlns:inkscape="http://www.inkscape.org/namespaces/inkscape"
   id="svg2"
   version="1.1"
   inkscape:version="0.48.4 r9939"
   width="305.8125"
   height="44.875"
   xml:space="preserve"
   sodipodi:docname="social-icons.svg"><metadata
     id="metadata8"><rdf:RDF><cc:Work
         rdf:about=""><dc:format>image/svg+xml</dc:format><dc:type
           rdf:resource="http://purl.org/dc/dcmitype/StillImage" /><dc:title></dc:title></cc:Work></rdf:RDF></metadata><defs
     id="defs6"><linearGradient
       x1="0"
       y1="0"
       x2="1"
       y2="0"
       gradientUnits="userSpaceOnUse"
       gradientTransform="matrix(-2.186e-5,500,500,2.186e-5,500,0)"
       spreadMethod="pad"
       id="linearGradient14"><stop
         style="stop-opacity:1;stop-color:#f4f4f4"
         offset="0"
         id="stop16" /><stop
         style="stop-opacity:1;stop-color:#ffffff"
         offset="0.631902"
         id="stop18" /><stop
         style="stop-opacity:1;stop-color:#fefefe"
         offset="1"
         id="stop20" /></linearGradient><clipPath
       clipPathUnits="userSpaceOnUse"
       id="clipPath724"><path
         d="m 1762.91,1318.4 c -1.64,5.74 -63.38,90.57 -68.06,93.68 -4.67,3.1 -103.99,36.09 -110.12,35.78 -6.12,-0.31 -105.11,-32.47 -110.11,-35.78 -3.47,-2.29 -34.01,-43.8 -52.99,-70.85 12.52,-16.6 19.81,-36.33 21.55,-58.29 0.04,-0.53 0.08,-1.06 0.12,-1.59 0.19,-2.8 0.31,-5.62 0.31,-8.49 0,-0.09 0.01,-0.17 0.01,-0.27 0,-3.33 -0.12,-6.62 -0.37,-9.86 -1.74,-23.35 -9.74,-44.14 -23.89,-61.9 -1.69,-2.12 -3.45,-4.12 -5.27,-6.03 l 63.21,-87.1 c 16.59,-6.95 100,-34.54 107.43,-34.54 8.03,0.02 105.35,32.12 110.12,35.8 4.78,3.67 66.57,87.8 68.06,93.66 1.49,5.87 1.65,110.04 0,115.78 z"
         id="path726"
         inkscape:connector-curvature="0" /></clipPath><linearGradient
       x1="0"
       y1="0"
       x2="1"
       y2="0"
       gradientUnits="userSpaceOnUse"
       gradientTransform="matrix(-1.64e-6,-37.4697,-37.4697,1.64e-6,158.909,144.786)"
       spreadMethod="pad"
       id="linearGradient728"><stop
         style="stop-opacity:1;stop-color:#33b876"
         offset="0"
         id="stop730" /><stop
         style="stop-opacity:1;stop-color:#2a9760"
         offset="1"
         id="stop732" /></linearGradient></defs><sodipodi:namedview
     pagecolor="#ffffff"
     bordercolor="#666666"
     borderopacity="1"
     objecttolerance="10"
     gridtolerance="10"
     guidetolerance="10"
     inkscape:pageopacity="0"
     inkscape:pageshadow="2"
     inkscape:window-width="1358"
     inkscape:window-height="744"
     id="namedview4"
     showgrid="false"
     inkscape:zoom="5.656854"
     inkscape:cx="233.58781"
     inkscape:cy="10.774329"
     inkscape:window-x="0"
     inkscape:window-y="16"
     inkscape:window-maximized="0"
     inkscape:current-layer="g10"
     fit-margin-top="5"
     fit-margin-left="5"
     fit-margin-right="5"
     fit-margin-bottom="5" /><g
     id="g10"
     inkscape:groupmode="layer"
     inkscape:label="ink_ext_XXXXXX"
     transform="matrix(1.25,0,0,-1.25,-387.76601,357.21781)"><path
       inkscape:connector-curvature="0"
       id="path1004"
       style="fill:#989596;fill-opacity:1;fill-rule:nonzero;stroke:none"
       d="m 329.75521,268.26945 -1.7936,0 c 0,-2.8656 0,-6.3952 0,-6.3952 l -2.6576,0 c 0,0 0,3.4936 0,6.3952 l -1.264,0 0,2.2592 1.264,0 0,1.4624 c 0,1.0472 0.4968,2.6832 2.6816,2.6832 l 1.9688,-0.008 0,-2.1936 c 0,0 -1.1968,0 -1.4288,0 -0.2328,0 -0.564,-0.1152 -0.564,-0.6152 l 0,-1.3288 2.0264,0 -0.2328,-2.2592 z m -2.7424,12.8048 c -7.0688,0 -12.8,-5.7312 -12.8,-12.8 0,-7.0704 5.7312,-12.8 12.8,-12.8 7.0696,0 12.8,5.7296 12.8,12.8 0,7.0688 -5.7304,12.8 -12.8,12.8"
       inkscape:export-filename="/home/bernat/code/perso/www.luffy.cx/content/media/images/l/sprite/facebook.png"
       inkscape:export-xdpi="67.5"
       inkscape:export-ydpi="67.5" /><path
       inkscape:connector-curvature="0"
       id="path1006"
       style="fill:#989596;fill-opacity:1;fill-rule:nonzero;stroke:none"
       d="m 419.46288,270.88385 c 0.006,-0.1128 0.008,-0.2256 0.008,-0.3392 0,-3.4704 -2.6416,-7.472 -7.472,-7.472 -1.4832,0 -2.8632,0.4344 -4.0256,1.18 0.2064,-0.024 0.4152,-0.036 0.6264,-0.036 1.2312,0 2.3624,0.4184 3.2608,1.1232 -1.148,0.0216 -2.1184,0.7816 -2.452,1.8232 0.16,-0.0296 0.324,-0.0464 0.4936,-0.0464 0.24,0 0.472,0.0328 0.6912,0.092 -1.2,0.2424 -2.1056,1.3032 -2.1056,2.5752 0,0.0104 0,0.0216 0,0.0328 0.3544,-0.1968 0.7592,-0.3144 1.1896,-0.328 -0.7048,0.4696 -1.168,1.2744 -1.168,2.1856 0,0.4816 0.1296,0.9328 0.3552,1.32 1.2944,-1.5888 3.2304,-2.6344 5.4128,-2.7432 -0.0448,0.192 -0.068,0.392 -0.068,0.5984 0,1.4496 1.176,2.6248 2.6264,2.6248 0.7544,0 1.4376,-0.3184 1.9168,-0.828 0.5976,0.1168 1.16,0.336 1.668,0.6376 -0.1968,-0.6144 -0.6128,-1.128 -1.1552,-1.4536 0.5312,0.0624 1.0376,0.2048 1.508,0.4128 -0.3512,-0.5264 -0.7968,-0.9888 -1.3104,-1.3592 z m -5.0896,10.1904 c -7.0688,0 -12.8,-5.7312 -12.8,-12.8 0,-7.0704 5.7312,-12.8 12.8,-12.8 7.0688,0 12.8,5.7296 12.8,12.8 0,7.0688 -5.7312,12.8 -12.8,12.8"
       inkscape:export-filename="/home/bernat/code/perso/www.luffy.cx/content/media/images/l/sprite/twitter.png"
       inkscape:export-xdpi="67.5"
       inkscape:export-ydpi="67.5" /><path
       inkscape:connector-curvature="0"
       id="path1036"
       style="fill:#989596;fill-opacity:1;fill-rule:nonzero;stroke:none"
       d="m 368.09386,272.45985 c -1.016,0.0304 -1.6992,-0.992 -1.5224,-2.3264 0.1752,-1.336 1.1416,-2.2688 2.1584,-2.3 1.0168,-0.0296 1.6008,0.8296 1.4256,2.1656 -0.1752,1.3344 -1.0448,2.4296 -2.0616,2.4608" /><path
       inkscape:connector-curvature="0"
       id="path1038"
       style="fill:#989596;fill-opacity:1;fill-rule:nonzero;stroke:none"
       d="m 368.52106,265.10065 c -1.5152,0.0176 -2.7992,-0.956 -2.7992,-2.0856 0,-1.152 1.0944,-2.1112 2.6096,-2.1112 2.1304,0 2.8728,0.9 2.8728,2.0536 0,0.1384 -0.0176,0.2744 -0.0488,0.4056 -0.1672,0.652 -0.8296,1.0096 -1.6528,1.5816 -0.2984,0.0968 -0.628,0.1528 -0.9816,0.156" /><path
       inkscape:connector-curvature="0"
       id="path1040"
       style="fill:#989596;fill-opacity:1;fill-rule:nonzero;stroke:none"
       d="m 377.08826,270.28865 -1.7408,0 0,-1.7392 -0.8696,0 0,1.7392 -1.74,0 0,0.8696 1.74,0 0,1.7408 0.8696,0 0,-1.7408 1.7408,0 0,-0.8696 z m -5.4168,-0.2328 c 0,-0.8344 -0.4616,-1.5064 -1.1144,-2.016 -0.6376,-0.4984 -0.7576,-0.7064 -0.7576,-1.1296 0,-0.3608 0.7608,-0.8984 1.1112,-1.1608 1.2176,-0.9144 1.4648,-1.4896 1.4648,-2.6312 0,-1.4272 -1.5368,-2.844 -4.0352,-2.844 -2.1928,0 -4.0424,0.8904 -4.0424,2.3168 0,1.4472 1.5344,2.9568 3.7264,2.9568 0.2392,0 0.4576,0.006 0.6848,0.006 -0.3,0.2904 -0.5424,0.5416 -0.5424,0.9824 0,0.2624 0.0824,0.5128 0.2,0.736 -0.1192,-0.008 -0.2408,-0.0152 -0.3656,-0.0152 -1.8008,0 -2.8496,1.2656 -2.8496,2.8512 0,1.5528 1.596,2.9656 3.5104,2.9656 0.9864,0 3.7728,0 3.7728,0 l -0.8432,-0.8856 -0.9904,0 c 0.6992,-0.4 1.0704,-1.224 1.0704,-2.1328 z m -0.9784,9.4184 c -7.0688,0 -12.8,-5.7312 -12.8,-12.8 0,-7.0704 5.7312,-12.8 12.8,-12.8 7.0696,0 12.8,5.7296 12.8,12.8 0,7.0688 -5.7304,12.8 -12.8,12.8"
       inkscape:export-filename="/home/bernat/code/perso/www.luffy.cx/content/media/images/l/sprite/google.png"
       inkscape:export-xdpi="67.5"
       inkscape:export-ydpi="67.5" /><path
       style="fill:#989596;fill-opacity:1;fill-rule:nonzero;stroke:none"
       d="M 184.8125 5.875 C 175.9765 5.875 168.8125 13.039 168.8125 21.875 C 168.8125 30.713 175.9765 37.875 184.8125 37.875 C 193.6485 37.875 200.8125 30.713 200.8125 21.875 C 200.8125 13.039 193.6485 5.875 184.8125 5.875 z M 177.90625 14.375 L 181.1875 14.375 L 184.78125 20.71875 L 188.4375 14.375 L 191.71875 14.375 L 186.375 23.21875 L 186.375 29.375 L 183.25 29.375 L 183.25 23.21875 L 177.90625 14.375 z "
       id="path1042"
       inkscape:export-filename="/home/bernat/code/perso/www.luffy.cx/content/media/images/l/sprite/hackernews.png"
       inkscape:export-xdpi="67.5"
       inkscape:export-ydpi="67.5"
       transform="matrix(0.8,0,0,-0.8,310.21281,285.77425)" /><text
       xml:space="preserve"
       style="font-size:64px;font-style:normal;font-variant:normal;font-weight:normal;font-stretch:normal;text-align:center;line-height:125%;letter-spacing:0px;word-spacing:0px;text-anchor:middle;fill:#000000;fill-opacity:1;stroke:none;font-family:Arial;-inkscape-font-specification:Arial"
       x="283.78867"
       y="138.34676"
       id="text5596"
       sodipodi:linespacing="125%"
       transform="matrix(0.8,0,0,-0.8,0,500)"><tspan
         sodipodi:role="line"
         id="tspan5598"
         x="283.78867"
         y="138.34676" /></text>
<g
       id="Layer_3"
       transform="matrix(0.2481965,0,0,-0.2481965,355.9802,369.50965)" /><path
       style="fill:#989596;fill-opacity:1;fill-rule:nonzero;stroke:none"
       d="m 235.65625,4.125 c -8.836,0 -16,7.164 -16,16 0,8.838 7.164,16 16,16 8.836,0 16,-7.162 16,-16 0,-8.836 -7.164,-16 -16,-16 z m 1.75,7.34375 c 0.0139,-6.75e-4 0.0485,-6.75e-4 0.0625,0 0.0552,-0.01125 0.10112,-0.01125 0.15625,0 l 4.09375,0.96875 c 0.0426,6.25e-4 0.0532,0.01788 0.0937,0.03125 0.26189,-0.529525 0.838,-0.875 1.46875,-0.875 0.8857,0 1.5625,0.708062 1.5625,1.59375 0,0.8857 -0.67679,1.59375 -1.5625,1.59375 -0.8557,0 -1.54737,-0.687113 -1.59375,-1.53125 -1.3e-4,-6.75e-4 -0.0312,6.62e-4 -0.0312,0 -0.0497,0.0025 -0.10913,0.01575 -0.15625,0 l -3.65625,-0.84375 -1.40625,4.375 c 2.48395,0.08831 4.70242,0.813513 6.28125,1.9375 0.37274,-0.467512 0.94938,-0.75 1.59375,-0.75 1.12354,0 2,0.907713 2,2.03125 0,0.85705 -0.53101,1.575587 -1.28125,1.875 0.0681,0.294787 0.125,0.599087 0.125,0.90625 0,3.321125 -4.12997,6 -9.21875,6 -5.08878,0 -9.21875,-2.678875 -9.21875,-6 0,-0.31555 0.0535,-0.63505 0.125,-0.9375 -0.71428,-0.315713 -1.25,-1.012587 -1.25,-1.84375 0,-1.123538 0.93896,-2.03125 2.0625,-2.03125 0.62429,0 1.18934,0.276088 1.5625,0.71875 1.61928,-1.128463 3.86688,-1.85725 6.40625,-1.90625 -0.0354,-0.0935 -0.0354,-0.18775 0,-0.28125 l 1.53125,-4.71875 c 0.0336,-0.13515 0.11771,-0.269 0.25,-0.3125 z m -4.6875,8.59375 c -0.81843,0 -1.46875,0.712838 -1.46875,1.53125 0,0.818425 0.65032,1.46875 1.46875,1.46875 0.8184,0 1.5,-0.650325 1.5,-1.46875 0,-0.818412 -0.6816,-1.53125 -1.5,-1.53125 z m 6.5,0 c -0.81881,0 -1.5,0.712425 -1.5,1.53125 0,0.818838 0.68119,1.46875 1.5,1.46875 0.81885,0 1.5,-0.6499 1.5,-1.46875 0,-0.818825 -0.68115,-1.53125 -1.5,-1.53125 z m -0.0937,5 a 0.4167924,0.4167924 0 0 0 -0.0937,0.03125 0.4167924,0.4167924 0 0 0 -0.15625,0.09375 c -0.64274,0.642137 -1.77209,0.861875 -2.78125,0.875 -0.0346,4.5e-4 -0.0906,0 -0.125,0 a 0.41413872,0.41413872 0 0 0 -0.0312,0 c -0.0171,0 -0.014,10e-5 -0.0312,0 -1.02046,-0.0062 -2.15964,-0.22215 -2.8125,-0.875 a 0.42042575,0.42042575 0 0 0 -0.5625,0.625 c 0.91281,0.912812 2.21765,1.05375 3.3125,1.0625 0.0341,2.75e-4 0.06,0 0.0937,0 a 0.41413872,0.41413872 0 0 0 0.0312,0 c 0.0327,0 0.0917,2.37e-4 0.125,0 1.09859,-0.0082 2.46079,-0.149162 3.375,-1.0625 a 0.4167924,0.4167924 0 0 0 -0.34375,-0.75 z"
       transform="matrix(0.8,0,0,-0.8,310.21282,285.07425)"
       id="path5918"
       inkscape:export-filename="/home/bernat/code/perso/www.luffy.cx/content/media/images/l/sprite/reddit.png"
       inkscape:export-xdpi="67.5"
       inkscape:export-ydpi="67.5"
       inkscape:connector-curvature="0" /><path
       style="fill:#989596;fill-opacity:1;fill-rule:nonzero;stroke:none"
       d="m 535.16361,281.50268 c -7.0688,0 -12.8,-5.7312 -12.8,-12.8 0,-7.0704 5.7312,-12.8 12.8,-12.8 7.0688,0 12.8,5.7296 12.8,12.8 0,7.0688 -5.7312,12.8 -12.8,12.8 z m -5.375,-8.675 10.725,0 -5.35,-4.075 -5.375,4.075 z m -1.3,-0.25 4.6,-3.525 -4.6,-3.8 0,7.3 c 0,0.0136 -0.002,0.0119 0,0.025 z m 13.35,0 c 0.002,-0.013 0,-0.0114 0,-0.025 l 0,-7.25 -4.65,3.725 4.65,3.55 z m -7.9,-4.175 0.85,-0.65 a 0.49879368,0.49879368 0 0 1 0.175,-0.1 0.50034938,0.50034938 0 0 1 0.55,0.05 0.49879368,0.49879368 0 0 1 0.025,0.025 0.50034938,0.50034938 0 0 1 0,0.025 l 0.05,0.025 a 0.50034938,0.50034938 0 0 1 0.025,0.025 l 0.775,0.6 4.775,-3.825 -11.925,0 4.7,3.825 z"
       id="path3010"
       inkscape:connector-curvature="0"
       inkscape:export-filename="/home/bernat/code/perso/www.luffy.cx/content/media/images/l/sprite/mail.png"
       inkscape:export-xdpi="67.5"
       inkscape:export-ydpi="67.5" /></g></svg>