<?xml version="1.0" encoding="UTF-8" standalone="no"?>
<!-- Created with Inkscape (http://www.inkscape.org/) -->

<svg
   xmlns:dc="http://purl.org/dc/elements/1.1/"
   xmlns:cc="http://creativecommons.org/ns#"
   xmlns:rdf="http://www.w3.org/1999/02/22-rdf-syntax-ns#"
   xmlns:svg="http://www.w3.org/2000/svg"
   xmlns="http://www.w3.org/2000/svg"
   xmlns:sodipodi="http://sodipodi.sourceforge.net/DTD/sodipodi-0.dtd"
   xmlns:inkscape="http://www.inkscape.org/namespaces/inkscape"
   id="svg2"
   version="1.1"
   inkscape:version="0.91 r13725"
   width="348.45322"
   height="42"
   xml:space="preserve"
   sodipodi:docname="social-icons.svg"><metadata
     id="metadata8"><rdf:RDF><cc:Work
         rdf:about=""><dc:format>image/svg+xml</dc:format><dc:type
           rdf:resource="http://purl.org/dc/dcmitype/StillImage" /><dc:title></dc:title></cc:Work></rdf:RDF></metadata><defs
     id="defs6"><linearGradient
       x1="0"
       y1="0"
       x2="1"
       y2="0"
       gradientUnits="userSpaceOnUse"
       gradientTransform="matrix(-2.186e-5,500,500,2.186e-5,500,0)"
       spreadMethod="pad"
       id="linearGradient14"><stop
         style="stop-opacity:1;stop-color:#f4f4f4"
         offset="0"
         id="stop16" /><stop
         style="stop-opacity:1;stop-color:#ffffff"
         offset="0.631902"
         id="stop18" /><stop
         style="stop-opacity:1;stop-color:#fefefe"
         offset="1"
         id="stop20" /></linearGradient><clipPath
       clipPathUnits="userSpaceOnUse"
       id="clipPath724"><path
         d="m 1762.91,1318.4 c -1.64,5.74 -63.38,90.57 -68.06,93.68 -4.67,3.1 -103.99,36.09 -110.12,35.78 -6.12,-0.31 -105.11,-32.47 -110.11,-35.78 -3.47,-2.29 -34.01,-43.8 -52.99,-70.85 12.52,-16.6 19.81,-36.33 21.55,-58.29 0.04,-0.53 0.08,-1.06 0.12,-1.59 0.19,-2.8 0.31,-5.62 0.31,-8.49 0,-0.09 0.01,-0.17 0.01,-0.27 0,-3.33 -0.12,-6.62 -0.37,-9.86 -1.74,-23.35 -9.74,-44.14 -23.89,-61.9 -1.69,-2.12 -3.45,-4.12 -5.27,-6.03 l 63.21,-87.1 c 16.59,-6.95 100,-34.54 107.43,-34.54 8.03,0.02 105.35,32.12 110.12,35.8 4.78,3.67 66.57,87.8 68.06,93.66 1.49,5.87 1.65,110.04 0,115.78 z"
         id="path726"
         inkscape:connector-curvature="0" /></clipPath><linearGradient
       x1="0"
       y1="0"
       x2="1"
       y2="0"
       gradientUnits="userSpaceOnUse"
       gradientTransform="matrix(-1.64e-6,-37.4697,-37.4697,1.64e-6,158.909,144.786)"
       spreadMethod="pad"
       id="linearGradient728"><stop
         style="stop-opacity:1;stop-color:#33b876"
         offset="0"
         id="stop730" /><stop
         style="stop-opacity:1;stop-color:#2a9760"
         offset="1"
         id="stop732" /></linearGradient></defs><sodipodi:namedview
     pagecolor="#ffffff"
     bordercolor="#666666"
     borderopacity="1"
     objecttolerance="10"
     gridtolerance="10"
     guidetolerance="10"
     inkscape:pageopacity="0"
     inkscape:pageshadow="2"
     inkscape:window-width="2552"
     inkscape:window-height="1408"
     id="namedview4"
     showgrid="false"
     inkscape:zoom="1.4142135"
     inkscape:cx="15.40995"
     inkscape:cy="9.9680265"
     inkscape:window-x="0"
     inkscape:window-y="24"
     inkscape:window-maximized="0"
     inkscape:current-layer="g10"
     fit-margin-top="5"
     fit-margin-left="5"
     fit-margin-right="5"
     fit-margin-bottom="5" /><g
     id="g10"
     inkscape:groupmode="layer"
     inkscape:label="ink_ext_XXXXXX"
     transform="matrix(1.25,0,0,-1.25,-387.76601,355.14911)"><path
       inkscape:connector-curvature="0"
       id="path1004"
       style="fill:#989596;fill-opacity:1;fill-rule:nonzero;stroke:none"
       d="m 329.75521,267.31449 -1.7936,0 c 0,-2.8656 0,-6.3952 0,-6.3952 l -2.6576,0 c 0,0 0,3.4936 0,6.3952 l -1.264,0 0,2.2592 1.264,0 0,1.4624 c 0,1.0472 0.4968,2.6832 2.6816,2.6832 l 1.9688,-0.008 0,-2.1936 c 0,0 -1.1968,0 -1.4288,0 -0.2328,0 -0.564,-0.1152 -0.564,-0.6152 l 0,-1.3288 2.0264,0 -0.2328,-2.2592 z m -2.7424,12.8048 c -7.0688,0 -12.8,-5.7312 -12.8,-12.8 0,-7.0704 5.7312,-12.8 12.8,-12.8 7.0696,0 12.8,5.7296 12.8,12.8 0,7.0688 -5.7304,12.8 -12.8,12.8"
       inkscape:export-filename="/home/bernat/code/perso/www.luffy.cx/content/media/images/l/sprite/facebook.png"
       inkscape:export-xdpi="135"
       inkscape:export-ydpi="135" /><path
       inkscape:connector-curvature="0"
       id="path1006"
       style="fill:#989596;fill-opacity:1;fill-rule:nonzero;stroke:none"
       d="m 413.82326,269.92889 c 0.006,-0.1128 0.008,-0.2256 0.008,-0.3392 0,-3.4704 -2.6416,-7.472 -7.472,-7.472 -1.4832,0 -2.8632,0.4344 -4.0256,1.18 0.2064,-0.024 0.4152,-0.036 0.6264,-0.036 1.2312,0 2.3624,0.4184 3.2608,1.1232 -1.148,0.0216 -2.1184,0.7816 -2.452,1.8232 0.16,-0.0296 0.324,-0.0464 0.4936,-0.0464 0.24,0 0.472,0.0328 0.6912,0.092 -1.2,0.2424 -2.1056,1.3032 -2.1056,2.5752 0,0.0104 0,0.0216 0,0.0328 0.3544,-0.1968 0.7592,-0.3144 1.1896,-0.328 -0.7048,0.4696 -1.168,1.2744 -1.168,2.1856 0,0.4816 0.1296,0.9328 0.3552,1.32 1.2944,-1.5888 3.2304,-2.6344 5.4128,-2.7432 -0.0448,0.192 -0.068,0.392 -0.068,0.5984 0,1.4496 1.176,2.6248 2.6264,2.6248 0.7544,0 1.4376,-0.3184 1.9168,-0.828 0.5976,0.1168 1.16,0.336 1.668,0.6376 -0.1968,-0.6144 -0.6128,-1.128 -1.1552,-1.4536 0.5312,0.0624 1.0376,0.2048 1.508,0.4128 -0.3512,-0.5264 -0.7968,-0.9888 -1.3104,-1.3592 z m -5.0896,10.1904 c -7.0688,0 -12.8,-5.7312 -12.8,-12.8 0,-7.0704 5.7312,-12.8 12.8,-12.8 7.0688,0 12.8,5.7296 12.8,12.8 0,7.0688 -5.7312,12.8 -12.8,12.8"
       inkscape:export-filename="/home/bernat/code/perso/www.luffy.cx/content/media/images/l/sprite/twitter.png"
       inkscape:export-xdpi="135"
       inkscape:export-ydpi="135" /><g
       id="g4305"
       inkscape:export-xdpi="135"
       inkscape:export-ydpi="135"
       transform="translate(-2.8198181,0.64504)"><path
         inkscape:export-ydpi="135"
         inkscape:export-xdpi="135"
         d="m 368.09386,272.45985 c -1.016,0.0304 -1.6992,-0.992 -1.5224,-2.3264 0.1752,-1.336 1.1416,-2.2688 2.1584,-2.3 1.0168,-0.0296 1.6008,0.8296 1.4256,2.1656 -0.1752,1.3344 -1.0448,2.4296 -2.0616,2.4608"
         style="fill:#989596;fill-opacity:1;fill-rule:nonzero;stroke:none"
         id="path1036"
         inkscape:connector-curvature="0" /><path
         inkscape:export-ydpi="135"
         inkscape:export-xdpi="135"
         d="m 368.52106,265.10065 c -1.5152,0.0176 -2.7992,-0.956 -2.7992,-2.0856 0,-1.152 1.0944,-2.1112 2.6096,-2.1112 2.1304,0 2.8728,0.9 2.8728,2.0536 0,0.1384 -0.0176,0.2744 -0.0488,0.4056 -0.1672,0.652 -0.8296,1.0096 -1.6528,1.5816 -0.2984,0.0968 -0.628,0.1528 -0.9816,0.156"
         style="fill:#989596;fill-opacity:1;fill-rule:nonzero;stroke:none"
         id="path1038"
         inkscape:connector-curvature="0" /><path
         inkscape:export-ydpi="135"
         inkscape:export-xdpi="135"
         inkscape:export-filename="/home/bernat/code/perso/www.luffy.cx/content/media/images/l/sprite/google.png"
         d="m 377.08826,270.28865 -1.7408,0 0,-1.7392 -0.8696,0 0,1.7392 -1.74,0 0,0.8696 1.74,0 0,1.7408 0.8696,0 0,-1.7408 1.7408,0 0,-0.8696 z m -5.4168,-0.2328 c 0,-0.8344 -0.4616,-1.5064 -1.1144,-2.016 -0.6376,-0.4984 -0.7576,-0.7064 -0.7576,-1.1296 0,-0.3608 0.7608,-0.8984 1.1112,-1.1608 1.2176,-0.9144 1.4648,-1.4896 1.4648,-2.6312 0,-1.4272 -1.5368,-2.844 -4.0352,-2.844 -2.1928,0 -4.0424,0.8904 -4.0424,2.3168 0,1.4472 1.5344,2.9568 3.7264,2.9568 0.2392,0 0.4576,0.006 0.6848,0.006 -0.3,0.2904 -0.5424,0.5416 -0.5424,0.9824 0,0.2624 0.0824,0.5128 0.2,0.736 -0.1192,-0.008 -0.2408,-0.0152 -0.3656,-0.0152 -1.8008,0 -2.8496,1.2656 -2.8496,2.8512 0,1.5528 1.596,2.9656 3.5104,2.9656 0.9864,0 3.7728,0 3.7728,0 l -0.8432,-0.8856 -0.9904,0 c 0.6992,-0.4 1.0704,-1.224 1.0704,-2.1328 z m -0.9784,9.4184 c -7.0688,0 -12.8,-5.7312 -12.8,-12.8 0,-7.0704 5.7312,-12.8 12.8,-12.8 7.0696,0 12.8,5.7296 12.8,12.8 0,7.0688 -5.7304,12.8 -12.8,12.8"
         style="fill:#989596;fill-opacity:1;fill-rule:nonzero;stroke:none"
         id="path1040"
         inkscape:connector-curvature="0" /></g><path
       style="fill:#989596;fill-opacity:1;fill-rule:nonzero;stroke:none"
       d="m 449.5941,280.11929 c -7.0688,0 -12.8,-5.7312 -12.8,-12.8 0,-7.0704 5.7312,-12.8 12.8,-12.8 7.0688,0 12.8,5.7296 12.8,12.8 0,7.0688 -5.7312,12.8 -12.8,12.8 z m -5.525,-6.8 2.625,0 2.875,-5.075 2.925,5.075 2.625,0 -4.275,-7.075 0,-4.925 -2.5,0 0,4.925 -4.275,7.075 z"
       id="path1042"
       inkscape:export-filename="/home/bernat/code/perso/www.luffy.cx/content/media/images/l/sprite/hackernews.png"
       inkscape:export-xdpi="135"
       inkscape:export-ydpi="135"
       inkscape:connector-curvature="0" /><text
       xml:space="preserve"
       style="font-style:normal;font-variant:normal;font-weight:normal;font-stretch:normal;font-size:64px;line-height:125%;font-family:Arial;-inkscape-font-specification:Arial;text-align:center;letter-spacing:0px;word-spacing:0px;text-anchor:middle;fill:#000000;fill-opacity:1;stroke:none"
       x="283.78867"
       y="138.34676"
       id="text5596"
       sodipodi:linespacing="125%"
       transform="matrix(0.8,0,0,-0.8,0,500)"><tspan
         sodipodi:role="line"
         id="tspan5598"
         x="283.78867"
         y="138.34676" /></text>
<g
       id="Layer_3"
       transform="matrix(0.2481965,0,0,-0.2481965,355.9802,369.50965)" /><path
       style="fill:#989596;fill-opacity:1;fill-rule:nonzero;stroke:none"
       d="m 490.45452,280.11929 c -7.0688,0 -12.8,-5.7312 -12.8,-12.8 0,-7.0704 5.7312,-12.8 12.8,-12.8 7.0688,0 12.8,5.7296 12.8,12.8 0,7.0688 -5.7312,12.8 -12.8,12.8 z m 1.4,-5.875 c 0.0111,5.4e-4 0.0388,5.4e-4 0.05,0 0.0442,0.009 0.0809,0.009 0.125,0 l 3.275,-0.775 c 0.0341,-5e-4 0.0426,-0.0143 0.075,-0.025 0.20951,0.42362 0.6704,0.7 1.175,0.7 0.70856,0 1.25,-0.56645 1.25,-1.275 0,-0.70856 -0.54143,-1.275 -1.25,-1.275 -0.68456,0 -1.2379,0.54969 -1.275,1.225 -10e-5,5.4e-4 -0.025,-5.3e-4 -0.025,0 -0.0398,-0.002 -0.0873,-0.0126 -0.125,0 l -2.925,0.675 -1.125,-3.5 c 1.98716,-0.0707 3.76194,-0.65081 5.025,-1.55 0.29819,0.37401 0.7595,0.6 1.275,0.6 0.89883,0 1.6,-0.72617 1.6,-1.625 0,-0.68564 -0.42481,-1.26047 -1.025,-1.5 0.0545,-0.23583 0.1,-0.47927 0.1,-0.725 0,-2.6569 -3.30398,-4.8 -7.375,-4.8 -4.07102,0 -7.375,2.1431 -7.375,4.8 0,0.25244 0.0428,0.50804 0.1,0.75 -0.57142,0.25257 -1,0.81007 -1,1.475 0,0.89883 0.75117,1.625 1.65,1.625 0.49943,0 0.95147,-0.22087 1.25,-0.575 1.29542,0.90277 3.0935,1.4858 5.125,1.525 -0.0283,0.0748 -0.0283,0.1502 0,0.225 l 1.225,3.775 c 0.0269,0.10812 0.0942,0.2152 0.2,0.25 z m -3.75,-6.875 c -0.65474,0 -1.175,-0.57027 -1.175,-1.225 0,-0.65474 0.52026,-1.175 1.175,-1.175 0.65472,0 1.2,0.52026 1.2,1.175 0,0.65473 -0.54528,1.225 -1.2,1.225 z m 5.2,0 c -0.65505,0 -1.2,-0.56994 -1.2,-1.225 0,-0.65507 0.54495,-1.175 1.2,-1.175 0.65508,0 1.2,0.51992 1.2,1.175 0,0.65506 -0.54492,1.225 -1.2,1.225 z m -0.075,-4 a 0.33343392,0.33343392 0 0 1 -0.075,-0.025 0.33343392,0.33343392 0 0 1 -0.125,-0.075 c -0.51419,-0.51371 -1.41767,-0.6895 -2.225,-0.7 -0.0277,-3.6e-4 -0.0725,0 -0.1,0 a 0.33131098,0.33131098 0 0 1 -0.025,0 c -0.0137,0 -0.0112,-8e-5 -0.025,0 -0.81637,0.005 -1.72771,0.17772 -2.25,0.7 a 0.3363406,0.3363406 0 0 1 -0.45,-0.5 c 0.73025,-0.73025 1.77412,-0.843 2.65,-0.85 0.0273,-2.2e-4 0.048,0 0.075,0 a 0.33131098,0.33131098 0 0 1 0.025,0 c 0.0262,0 0.0734,-1.9e-4 0.1,0 0.87887,0.007 1.96863,0.11933 2.7,0.85 a 0.33343392,0.33343392 0 0 1 -0.275,0.6 z"
       id="path5918"
       inkscape:export-filename="/home/bernat/code/perso/www.luffy.cx/content/media/images/l/sprite/reddit.png"
       inkscape:export-xdpi="135"
       inkscape:export-ydpi="135"
       inkscape:connector-curvature="0" /><path
       style="fill:#989596;fill-opacity:1;fill-rule:nonzero;stroke:none"
       d="m 531.31495,280.11929 c -7.0688,0 -12.8,-5.7312 -12.8,-12.8 0,-7.0704 5.7312,-12.8 12.8,-12.8 7.0688,0 12.8,5.7296 12.8,12.8 0,7.0688 -5.7312,12.8 -12.8,12.8 z m -5.375,-8.675 10.725,0 -5.35,-4.075 -5.375,4.075 z m -1.3,-0.25 4.6,-3.525 -4.6,-3.8 0,7.3 c 0,0.0136 -0.002,0.0119 0,0.025 z m 13.35,0 c 0.002,-0.013 0,-0.0114 0,-0.025 l 0,-7.25 -4.65,3.725 4.65,3.55 z m -7.9,-4.175 0.85,-0.65 a 0.49879368,0.49879368 0 0 1 0.175,-0.1 0.50034938,0.50034938 0 0 1 0.55,0.05 0.49879368,0.49879368 0 0 1 0.025,0.025 0.50034938,0.50034938 0 0 1 0,0.025 l 0.05,0.025 a 0.50034938,0.50034938 0 0 1 0.025,0.025 l 0.775,0.6 4.775,-3.825 -11.925,0 4.7,3.825 z"
       id="path3010"
       inkscape:connector-curvature="0"
       inkscape:export-filename="/home/bernat/code/perso/www.luffy.cx/content/media/images/l/sprite/mail.png"
       inkscape:export-xdpi="135"
       inkscape:export-ydpi="135" /><path
       id="path4277"
       d="m 572.17539,280.11929 c -7.07,0 -12.8,-5.73 -12.8,-12.8 0,-7.07 5.73,-12.8 12.8,-12.8 7.07,0 12.8,5.73 12.8,12.8 0,7.07 -5.73,12.8 -12.8,12.8 z m -3.495,-18.685 c -0.31,-0.31 -0.735,-0.495 -1.205,-0.495 -0.47,0 -0.89,0.19 -1.2,0.495 -0.31,0.31 -0.5,0.73 -0.5,1.195 0,0.47 0.19,0.89 0.5,1.2 0.31,0.31 0.73,0.5 1.2,0.5 0.47,0 0.895,-0.19 1.2,-0.5 0.31,-0.31 0.5,-0.73 0.5,-1.2 0,-0.47 -0.19,-0.89 -0.495,-1.195 z m 3.085,-0.515 c -0.005,1.605 -0.625,3.115 -1.755,4.245 -1.13,1.13 -2.64,1.76 -4.235,1.76 l 0,2.445 c 2.33,0 4.435,-0.95 5.965,-2.48 1.53,-1.53 2.475,-3.64 2.48,-5.97 l -2.455,0 z m 4.36,0 c -0.005,5.71 -4.64,10.355 -10.345,10.355 l 0,2.445 c 3.53,0 6.725,-1.435 9.04,-3.755 2.315,-2.32 3.75,-5.515 3.755,-9.045 l -2.45,0 z"
       inkscape:connector-curvature="0"
       style="color:#000000;clip-rule:nonzero;display:inline;overflow:visible;visibility:visible;opacity:1;isolation:auto;mix-blend-mode:normal;color-interpolation:sRGB;color-interpolation-filters:linearRGB;solid-color:#000000;solid-opacity:1;fill:#989596;fill-opacity:1;fill-rule:nonzero;stroke:none;stroke-width:1;stroke-linecap:butt;stroke-linejoin:miter;stroke-miterlimit:4;stroke-dasharray:none;stroke-dashoffset:0;stroke-opacity:1;color-rendering:auto;image-rendering:auto;shape-rendering:auto;text-rendering:auto;enable-background:accumulate"
       inkscape:export-xdpi="135"
       inkscape:export-ydpi="135" /></g></svg>