<?xml version="1.0" encoding="UTF-8" standalone="no"?>
<!-- Created with Inkscape (http://www.inkscape.org/) -->

<svg
   xmlns:dc="http://purl.org/dc/elements/1.1/"
   xmlns:cc="http://creativecommons.org/ns#"
   xmlns:rdf="http://www.w3.org/1999/02/22-rdf-syntax-ns#"
   xmlns:svg="http://www.w3.org/2000/svg"
   xmlns="http://www.w3.org/2000/svg"
   xmlns:sodipodi="http://sodipodi.sourceforge.net/DTD/sodipodi-0.dtd"
   xmlns:inkscape="http://www.inkscape.org/namespaces/inkscape"
   id="svg2"
   version="1.1"
   inkscape:version="0.48.4 r9939"
   width="260.40121"
   height="44.000004"
   xml:space="preserve"
   sodipodi:docname="social-icons.svg"><metadata
     id="metadata8"><rdf:RDF><cc:Work
         rdf:about=""><dc:format>image/svg+xml</dc:format><dc:type
           rdf:resource="http://purl.org/dc/dcmitype/StillImage" /><dc:title></dc:title></cc:Work></rdf:RDF></metadata><defs
     id="defs6"><linearGradient
       x1="0"
       y1="0"
       x2="1"
       y2="0"
       gradientUnits="userSpaceOnUse"
       gradientTransform="matrix(-2.186e-5,500,500,2.186e-5,500,0)"
       spreadMethod="pad"
       id="linearGradient14"><stop
         style="stop-opacity:1;stop-color:#f4f4f4"
         offset="0"
         id="stop16" /><stop
         style="stop-opacity:1;stop-color:#ffffff"
         offset="0.631902"
         id="stop18" /><stop
         style="stop-opacity:1;stop-color:#fefefe"
         offset="1"
         id="stop20" /></linearGradient><clipPath
       clipPathUnits="userSpaceOnUse"
       id="clipPath724"><path
         d="m 1762.91,1318.4 c -1.64,5.74 -63.38,90.57 -68.06,93.68 -4.67,3.1 -103.99,36.09 -110.12,35.78 -6.12,-0.31 -105.11,-32.47 -110.11,-35.78 -3.47,-2.29 -34.01,-43.8 -52.99,-70.85 12.52,-16.6 19.81,-36.33 21.55,-58.29 0.04,-0.53 0.08,-1.06 0.12,-1.59 0.19,-2.8 0.31,-5.62 0.31,-8.49 0,-0.09 0.01,-0.17 0.01,-0.27 0,-3.33 -0.12,-6.62 -0.37,-9.86 -1.74,-23.35 -9.74,-44.14 -23.89,-61.9 -1.69,-2.12 -3.45,-4.12 -5.27,-6.03 l 63.21,-87.1 c 16.59,-6.95 100,-34.54 107.43,-34.54 8.03,0.02 105.35,32.12 110.12,35.8 4.78,3.67 66.57,87.8 68.06,93.66 1.49,5.87 1.65,110.04 0,115.78 z"
         id="path726"
         inkscape:connector-curvature="0" /></clipPath><linearGradient
       x1="0"
       y1="0"
       x2="1"
       y2="0"
       gradientUnits="userSpaceOnUse"
       gradientTransform="matrix(-1.64e-6,-37.4697,-37.4697,1.64e-6,158.909,144.786)"
       spreadMethod="pad"
       id="linearGradient728"><stop
         style="stop-opacity:1;stop-color:#33b876"
         offset="0"
         id="stop730" /><stop
         style="stop-opacity:1;stop-color:#2a9760"
         offset="1"
         id="stop732" /></linearGradient></defs><sodipodi:namedview
     pagecolor="#ffffff"
     bordercolor="#666666"
     borderopacity="1"
     objecttolerance="10"
     gridtolerance="10"
     guidetolerance="10"
     inkscape:pageopacity="0"
     inkscape:pageshadow="2"
     inkscape:window-width="1358"
     inkscape:window-height="744"
     id="namedview4"
     showgrid="false"
     inkscape:zoom="1"
     inkscape:cx="189.76015"
     inkscape:cy="12.613664"
     inkscape:window-x="0"
     inkscape:window-y="16"
     inkscape:window-maximized="0"
     inkscape:current-layer="g10"
     fit-margin-top="5"
     fit-margin-left="5"
     fit-margin-right="5"
     fit-margin-bottom="5" /><g
     id="g10"
     inkscape:groupmode="layer"
     inkscape:label="ink_ext_XXXXXX"
     transform="matrix(1.25,0,0,-1.25,-387.76602,356.34281)"><path
       inkscape:connector-curvature="0"
       id="path1004"
       style="fill:#989596;fill-opacity:1;fill-rule:nonzero;stroke:none"
       d="m 329.75521,268.26945 -1.7936,0 c 0,-2.8656 0,-6.3952 0,-6.3952 l -2.6576,0 c 0,0 0,3.4936 0,6.3952 l -1.264,0 0,2.2592 1.264,0 0,1.4624 c 0,1.0472 0.4968,2.6832 2.6816,2.6832 l 1.9688,-0.008 0,-2.1936 c 0,0 -1.1968,0 -1.4288,0 -0.2328,0 -0.564,-0.1152 -0.564,-0.6152 l 0,-1.3288 2.0264,0 -0.2328,-2.2592 z m -2.7424,12.8048 c -7.0688,0 -12.8,-5.7312 -12.8,-12.8 0,-7.0704 5.7312,-12.8 12.8,-12.8 7.0696,0 12.8,5.7296 12.8,12.8 0,7.0688 -5.7304,12.8 -12.8,12.8"
       inkscape:export-filename="/home/bernat/code/perso/www.luffy.cx/content/media/images/l/sprite/facebook.png"
       inkscape:export-xdpi="67.5"
       inkscape:export-ydpi="67.5" /><path
       inkscape:connector-curvature="0"
       id="path1006"
       style="fill:#989596;fill-opacity:1;fill-rule:nonzero;stroke:none"
       d="m 419.46288,270.88385 c 0.006,-0.1128 0.008,-0.2256 0.008,-0.3392 0,-3.4704 -2.6416,-7.472 -7.472,-7.472 -1.4832,0 -2.8632,0.4344 -4.0256,1.18 0.2064,-0.024 0.4152,-0.036 0.6264,-0.036 1.2312,0 2.3624,0.4184 3.2608,1.1232 -1.148,0.0216 -2.1184,0.7816 -2.452,1.8232 0.16,-0.0296 0.324,-0.0464 0.4936,-0.0464 0.24,0 0.472,0.0328 0.6912,0.092 -1.2,0.2424 -2.1056,1.3032 -2.1056,2.5752 0,0.0104 0,0.0216 0,0.0328 0.3544,-0.1968 0.7592,-0.3144 1.1896,-0.328 -0.7048,0.4696 -1.168,1.2744 -1.168,2.1856 0,0.4816 0.1296,0.9328 0.3552,1.32 1.2944,-1.5888 3.2304,-2.6344 5.4128,-2.7432 -0.0448,0.192 -0.068,0.392 -0.068,0.5984 0,1.4496 1.176,2.6248 2.6264,2.6248 0.7544,0 1.4376,-0.3184 1.9168,-0.828 0.5976,0.1168 1.16,0.336 1.668,0.6376 -0.1968,-0.6144 -0.6128,-1.128 -1.1552,-1.4536 0.5312,0.0624 1.0376,0.2048 1.508,0.4128 -0.3512,-0.5264 -0.7968,-0.9888 -1.3104,-1.3592 z m -5.0896,10.1904 c -7.0688,0 -12.8,-5.7312 -12.8,-12.8 0,-7.0704 5.7312,-12.8 12.8,-12.8 7.0688,0 12.8,5.7296 12.8,12.8 0,7.0688 -5.7312,12.8 -12.8,12.8"
       inkscape:export-filename="/home/bernat/code/perso/www.luffy.cx/content/media/images/l/sprite/twitter.png"
       inkscape:export-xdpi="67.5"
       inkscape:export-ydpi="67.5" /><path
       inkscape:connector-curvature="0"
       id="path1036"
       style="fill:#989596;fill-opacity:1;fill-rule:nonzero;stroke:none"
       d="m 368.09386,272.45985 c -1.016,0.0304 -1.6992,-0.992 -1.5224,-2.3264 0.1752,-1.336 1.1416,-2.2688 2.1584,-2.3 1.0168,-0.0296 1.6008,0.8296 1.4256,2.1656 -0.1752,1.3344 -1.0448,2.4296 -2.0616,2.4608" /><path
       inkscape:connector-curvature="0"
       id="path1038"
       style="fill:#989596;fill-opacity:1;fill-rule:nonzero;stroke:none"
       d="m 368.52106,265.10065 c -1.5152,0.0176 -2.7992,-0.956 -2.7992,-2.0856 0,-1.152 1.0944,-2.1112 2.6096,-2.1112 2.1304,0 2.8728,0.9 2.8728,2.0536 0,0.1384 -0.0176,0.2744 -0.0488,0.4056 -0.1672,0.652 -0.8296,1.0096 -1.6528,1.5816 -0.2984,0.0968 -0.628,0.1528 -0.9816,0.156" /><path
       inkscape:connector-curvature="0"
       id="path1040"
       style="fill:#989596;fill-opacity:1;fill-rule:nonzero;stroke:none"
       d="m 377.08826,270.28865 -1.7408,0 0,-1.7392 -0.8696,0 0,1.7392 -1.74,0 0,0.8696 1.74,0 0,1.7408 0.8696,0 0,-1.7408 1.7408,0 0,-0.8696 z m -5.4168,-0.2328 c 0,-0.8344 -0.4616,-1.5064 -1.1144,-2.016 -0.6376,-0.4984 -0.7576,-0.7064 -0.7576,-1.1296 0,-0.3608 0.7608,-0.8984 1.1112,-1.1608 1.2176,-0.9144 1.4648,-1.4896 1.4648,-2.6312 0,-1.4272 -1.5368,-2.844 -4.0352,-2.844 -2.1928,0 -4.0424,0.8904 -4.0424,2.3168 0,1.4472 1.5344,2.9568 3.7264,2.9568 0.2392,0 0.4576,0.006 0.6848,0.006 -0.3,0.2904 -0.5424,0.5416 -0.5424,0.9824 0,0.2624 0.0824,0.5128 0.2,0.736 -0.1192,-0.008 -0.2408,-0.0152 -0.3656,-0.0152 -1.8008,0 -2.8496,1.2656 -2.8496,2.8512 0,1.5528 1.596,2.9656 3.5104,2.9656 0.9864,0 3.7728,0 3.7728,0 l -0.8432,-0.8856 -0.9904,0 c 0.6992,-0.4 1.0704,-1.224 1.0704,-2.1328 z m -0.9784,9.4184 c -7.0688,0 -12.8,-5.7312 -12.8,-12.8 0,-7.0704 5.7312,-12.8 12.8,-12.8 7.0696,0 12.8,5.7296 12.8,12.8 0,7.0688 -5.7304,12.8 -12.8,12.8"
       inkscape:export-filename="/home/bernat/code/perso/www.luffy.cx/content/media/images/l/sprite/google.png"
       inkscape:export-xdpi="67.5"
       inkscape:export-ydpi="67.5" /><path
       style="fill:#989596;fill-opacity:1;fill-rule:nonzero;stroke:none"
       d="M 184.8125 5 C 175.9765 5 168.8125 12.164 168.8125 21 C 168.8125 29.838 175.9765 37 184.8125 37 C 193.6485 37 200.8125 29.838 200.8125 21 C 200.8125 12.164 193.6485 5 184.8125 5 z M 176.1875 12.0625 L 180.28125 12.0625 L 184.78125 20.46875 L 189.3125 12.0625 L 193.40625 12.0625 L 186.75 23.78125 L 186.75 31.9375 L 182.84375 31.9375 L 182.84375 23.78125 L 176.1875 12.0625 z "
       transform="matrix(0.8,0,0,-0.8,310.21282,285.07425)"
       id="path1042"
       inkscape:export-filename="/home/bernat/code/perso/www.luffy.cx/content/media/images/l/sprite/hackernews.png"
       inkscape:export-xdpi="67.5"
       inkscape:export-ydpi="67.5" /><text
       xml:space="preserve"
       style="font-size:64px;font-style:normal;font-variant:normal;font-weight:normal;font-stretch:normal;text-align:center;line-height:125%;letter-spacing:0px;word-spacing:0px;text-anchor:middle;fill:#000000;fill-opacity:1;stroke:none;font-family:Arial;-inkscape-font-specification:Arial"
       x="283.78867"
       y="138.34676"
       id="text5596"
       sodipodi:linespacing="125%"
       transform="matrix(0.8,0,0,-0.8,0,500)"><tspan
         sodipodi:role="line"
         id="tspan5598"
         x="283.78867"
         y="138.34676" /></text>
<g
       id="Layer_3"
       transform="matrix(0.2481965,0,0,-0.2481965,355.9802,369.50965)" /><path
       style="fill:#989596;fill-opacity:1;fill-rule:nonzero;stroke:none"
       d="M 235.65625 4.125 C 226.82025 4.125 219.65625 11.289 219.65625 20.125 C 219.65625 28.963 226.82025 36.125 235.65625 36.125 C 244.49225 36.125 251.65625 28.963 251.65625 20.125 C 251.65625 11.289 244.49225 4.125 235.65625 4.125 z M 237.40625 11.46875 C 237.42012 11.468075 237.45475 11.468075 237.46875 11.46875 C 237.52393 11.4575 237.56987 11.4575 237.625 11.46875 L 241.71875 12.4375 C 241.76138 12.438125 241.772 12.455375 241.8125 12.46875 C 242.07439 11.939225 242.6505 11.59375 243.28125 11.59375 C 244.16695 11.59375 244.84375 12.301812 244.84375 13.1875 C 244.84375 14.0732 244.16696 14.78125 243.28125 14.78125 C 242.42555 14.78125 241.73388 14.094137 241.6875 13.25 C 241.68737 13.249325 241.65625 13.250662 241.65625 13.25 C 241.60656 13.2525 241.54712 13.26575 241.5 13.25 L 237.84375 12.40625 L 236.4375 16.78125 C 238.92145 16.869563 241.13992 17.594763 242.71875 18.71875 C 243.09149 18.251238 243.66813 17.96875 244.3125 17.96875 C 245.43604 17.96875 246.3125 18.876463 246.3125 20 C 246.3125 20.85705 245.78149 21.575587 245.03125 21.875 C 245.09938 22.169787 245.15625 22.474087 245.15625 22.78125 C 245.15625 26.102375 241.02628 28.78125 235.9375 28.78125 C 230.84872 28.78125 226.71875 26.102375 226.71875 22.78125 C 226.71875 22.4657 226.77225 22.1462 226.84375 21.84375 C 226.12947 21.528037 225.59375 20.831163 225.59375 20 C 225.59375 18.876462 226.53271 17.96875 227.65625 17.96875 C 228.28054 17.96875 228.84559 18.244838 229.21875 18.6875 C 230.83803 17.559037 233.08563 16.83025 235.625 16.78125 C 235.58963 16.68775 235.58963 16.5935 235.625 16.5 L 237.15625 11.78125 C 237.18988 11.6461 237.27396 11.51225 237.40625 11.46875 z M 232.71875 20.0625 C 231.90032 20.0625 231.25 20.775338 231.25 21.59375 C 231.25 22.412175 231.90032 23.0625 232.71875 23.0625 C 233.53715 23.0625 234.21875 22.412175 234.21875 21.59375 C 234.21875 20.775338 233.53715 20.0625 232.71875 20.0625 z M 239.21875 20.0625 C 238.39994 20.0625 237.71875 20.774925 237.71875 21.59375 C 237.71875 22.412588 238.39994 23.0625 239.21875 23.0625 C 240.0376 23.0625 240.71875 22.4126 240.71875 21.59375 C 240.71875 20.774925 240.0376 20.0625 239.21875 20.0625 z M 239.125 25.0625 A 0.4167924 0.4167924 0 0 0 239.03125 25.09375 A 0.4167924 0.4167924 0 0 0 238.875 25.1875 C 238.23226 25.829637 237.10291 26.049375 236.09375 26.0625 C 236.05913 26.06295 236.00312 26.0625 235.96875 26.0625 A 0.41413872 0.41413872 0 0 0 235.9375 26.0625 C 235.92038 26.0625 235.9235 26.0626 235.90625 26.0625 C 234.88579 26.0563 233.74661 25.84035 233.09375 25.1875 A 0.41689529 0.41689529 0 0 0 232.53125 25.8125 C 233.44406 26.725312 234.7489 26.86625 235.84375 26.875 C 235.87788 26.875275 235.90375 26.875 235.9375 26.875 A 0.41413872 0.41413872 0 0 0 235.96875 26.875 C 236.0015 26.875 236.0605 26.875237 236.09375 26.875 C 237.19234 26.866837 238.55454 26.725838 239.46875 25.8125 A 0.4167924 0.4167924 0 0 0 239.125 25.0625 z "
       transform="matrix(0.8,0,0,-0.8,310.21282,285.07425)"
       id="path5918"
       inkscape:export-filename="/home/bernat/code/perso/www.luffy.cx/content/media/images/l/sprite/reddit.png"
       inkscape:export-xdpi="67.5"
       inkscape:export-ydpi="67.5" /></g></svg>