<?xml version="1.0" encoding="UTF-8" standalone="no"?>
<!-- Created with Inkscape (http://www.inkscape.org/) -->

<svg
   xmlns:dc="http://purl.org/dc/elements/1.1/"
   xmlns:cc="http://creativecommons.org/ns#"
   xmlns:rdf="http://www.w3.org/1999/02/22-rdf-syntax-ns#"
   xmlns:svg="http://www.w3.org/2000/svg"
   xmlns="http://www.w3.org/2000/svg"
   xmlns:xlink="http://www.w3.org/1999/xlink"
   xmlns:sodipodi="http://sodipodi.sourceforge.net/DTD/sodipodi-0.dtd"
   xmlns:inkscape="http://www.inkscape.org/namespaces/inkscape"
   width="50"
   height="51"
   id="svg3265"
   version="1.1"
   inkscape:version="0.92.0 r15299"
   sodipodi:docname="strawhat.svg"
   viewBox="0 0 46.874998 47.812501">
  <defs
     id="defs3267">
    <clipPath
       clipPathUnits="userSpaceOnUse"
       id="clipPath2481">
      <use
         x="0"
         y="0"
         xlink:href="#rect6771"
         id="use2483"
         transform="matrix(1,0,0,-1,0,926.18759)"
         width="1"
         height="1" />
    </clipPath>
    <linearGradient
       inkscape:collect="always"
       xlink:href="#linearGradient3240"
       id="linearGradient3127"
       gradientUnits="userSpaceOnUse"
       gradientTransform="matrix(0.9856012,0,0,0.8989258,6.0293745,57.583187)"
       x1="204.59337"
       y1="532.23389"
       x2="453.81619"
       y2="532.23389" />
    <linearGradient
       id="linearGradient3240">
      <stop
         style="stop-color:#e0060f;stop-opacity:0.18796992;"
         offset="0"
         id="stop3242" />
      <stop
         style="stop-color:#e02306;stop-opacity:1;"
         offset="1"
         id="stop3244" />
    </linearGradient>
    <linearGradient
       inkscape:collect="always"
       xlink:href="#linearGradient3357"
       id="linearGradient3364"
       x1="707.33795"
       y1="241.85957"
       x2="550.2276"
       y2="87.800804"
       gradientUnits="userSpaceOnUse" />
    <linearGradient
       id="linearGradient3357">
      <stop
         style="stop-color:#000000;stop-opacity:1"
         offset="0"
         id="stop3360" />
      <stop
         id="stop3366"
         offset="0.65968657"
         style="stop-color:#000000;stop-opacity:0.7368421;" />
      <stop
         style="stop-color:#000000;stop-opacity:0.48872182;"
         offset="1"
         id="stop3362" />
    </linearGradient>
    <linearGradient
       inkscape:collect="always"
       xlink:href="#linearGradient3240"
       id="linearGradient3203"
       gradientUnits="userSpaceOnUse"
       gradientTransform="matrix(0.9856012,0,0,0.8989258,6.0293745,57.583187)"
       x1="204.59337"
       y1="532.23389"
       x2="453.81619"
       y2="532.23389" />
    <linearGradient
       id="linearGradient3205">
      <stop
         style="stop-color:#e0060f;stop-opacity:0.18796992;"
         offset="0"
         id="stop3207" />
      <stop
         style="stop-color:#e02306;stop-opacity:1;"
         offset="1"
         id="stop3209" />
    </linearGradient>
    <linearGradient
       inkscape:collect="always"
       xlink:href="#linearGradient14866"
       id="linearGradient2955"
       gradientUnits="userSpaceOnUse"
       gradientTransform="matrix(2.0805659,2.0805659,-2.0954967,2.0954967,-171.49318,-529.14228)"
       x1="322.93912"
       y1="22.0123"
       x2="320.74347"
       y2="93.8899" />
    <linearGradient
       id="linearGradient14866">
      <stop
         offset="0"
         style="stop-color:#ffffff;stop-opacity:1;"
         id="stop14868" />
      <stop
         offset="1"
         style="stop-color:#ffffff;stop-opacity:0;"
         id="stop14870" />
    </linearGradient>
    <linearGradient
       inkscape:collect="always"
       xlink:href="#linearGradient3240"
       id="linearGradient9887"
       gradientUnits="userSpaceOnUse"
       gradientTransform="matrix(0.9856012,0,0,0.8989258,6.0293745,57.583187)"
       x1="204.59337"
       y1="532.23389"
       x2="453.81619"
       y2="532.23389" />
  </defs>
  <sodipodi:namedview
     id="base"
     pagecolor="#ffffff"
     bordercolor="#666666"
     borderopacity="1.0"
     inkscape:pageopacity="0.0"
     inkscape:pageshadow="2"
     inkscape:zoom="11.200571"
     inkscape:cx="37.392034"
     inkscape:cy="15.003616"
     inkscape:document-units="px"
     inkscape:current-layer="layer1"
     showgrid="false"
     inkscape:window-width="1912"
     inkscape:window-height="1056"
     inkscape:window-x="0"
     inkscape:window-y="16"
     inkscape:window-maximized="0"
     inkscape:pagecheckerboard="true" />
  <metadata
     id="metadata3270">
    <rdf:RDF>
      <cc:Work
         rdf:about="">
        <dc:format>image/svg+xml</dc:format>
        <dc:type
           rdf:resource="http://purl.org/dc/dcmitype/StillImage" />
        <dc:title />
      </cc:Work>
    </rdf:RDF>
  </metadata>
  <g
     inkscape:label="Layer 1"
     inkscape:groupmode="layer"
     id="layer1"
     transform="translate(0,-1004.5497)">
    <g
       id="g3452"
       transform="matrix(0.08044139,0,0,0.08044139,-3.9585436,1000.2649)">
      <rect
         transform="rotate(45)"
         height="410.72037"
         x="277.52863"
         y="-198.37158"
         ry="6.7357121"
         rx="8.6570473"
         width="422.20157"
         id="rect6771"
         style="fill:#000000;fill-opacity:1;fill-rule:evenodd;stroke:#ffffff;stroke-width:0;stroke-linejoin:miter;stroke-miterlimit:4;stroke-dasharray:none;stroke-opacity:1" />
      <use
         style="opacity:0.88379205"
         clip-path="url(#clipPath2481)"
         height="1052.3622"
         width="744.09448"
         transform="matrix(1,0,0,-1,0,926.18759)"
         id="use2473"
         xlink:href="#g3311"
         y="0"
         x="0" />
      <rect
         style="fill:url(#linearGradient3364);fill-opacity:1;fill-rule:evenodd;stroke:#ffffff;stroke-width:0;stroke-linejoin:miter;stroke-miterlimit:4;stroke-dasharray:none;stroke-opacity:1"
         id="rect3355"
         width="422.20157"
         rx="8.6570473"
         ry="6.7357121"
         y="-198.37158"
         x="277.52863"
         height="410.72037"
         transform="rotate(45)" />
      <g
         transform="matrix(0.6792459,0.2470026,-0.2470026,0.6792459,245.20917,-105.60563)"
         id="g3311">
        <path
           style="fill:#ffffff;fill-opacity:1;stroke:none"
           d="m 114.28571,585.93361 c -3.03521,19.26377 -3.02625,38.99809 0.54483,58.18148 1.50254,16.17845 7.97319,31.68954 18.62891,43.96825 7.67154,9.251 19.35671,13.97387 27.97551,22.27344 10.7099,11.53728 26.1734,18.1575 41.87588,18.17049 12.52627,2.67564 25.69564,6.01553 38.29487,1.76378 13.53198,-3.34234 27.02924,-6.942 40.80421,-9.0153 8.54057,-1.30439 19.25402,-0.622 25.06102,-8.14734 8.22588,-10.20109 -3.53539,-17.23224 -12.67813,-18.6831 -28.88539,-10.62312 -58.36335,-21.52146 -82.78694,-40.79312 -17.95988,-11.69416 -39.50741,-16.96106 -56.69023,-29.92728 -12.44186,-9.53995 -13.65605,-27.35617 -25.19871,-37.50499 -4.83711,-2.78505 -10.75798,-1.80148 -15.83122,-0.28631 z"
           id="path3305"
           inkscape:connector-curvature="0" />
        <path
           inkscape:connector-curvature="0"
           style="fill:#ffffff;fill-opacity:1;stroke:none"
           d="m 439.28571,392.36218 c -4.77621,-0.31684 -8.04324,3.26657 -11.42857,10.71429 -3.73054,8.2072 12.98379,13.76494 17.85715,15.71428 10.30773,4.1231 10.88903,-0.88733 15.71428,-7.85714 5.37549,-7.76459 -11.41632,-17.06775 -16.42857,-18.57143 -0.50994,-0.15298 -0.95238,-0.47619 -1.42857,-0.71428"
           id="path3309" />
        <path
           inkscape:connector-curvature="0"
           style="fill:#ffffff;fill-opacity:1;stroke:none"
           d="m 206.42857,603.07647 c -8.69342,-1.61845 -10.63304,3.67411 -15.71428,12.14286 -2.06396,3.43991 0.84544,10.65578 1.42857,13.57142 1.94868,9.7434 22.08442,13.93357 28.57143,16.42858 8.91542,3.429 8.68495,-5.2917 10,-11.42858 3.80585,-17.76064 1.15754,-21.92122 -13.57143,-29.28571 -2.75497,-1.37748 -7.69349,-1.12649 -10.71429,-1.42857 z"
           id="path3303" />
        <path
           style="fill:#ffffff;fill-opacity:1;fill-rule:evenodd;stroke:none"
           d="m 208.57143,449.50504 c -9.04762,14.52381 -18.09524,29.04762 -27.14286,43.57143 6.21138,24.76339 -13.56264,48.84069 -4.33944,73.47929 5.43957,8.41676 2.74872,21.02559 11.52378,27.0156 12.39083,4.61434 25.77231,-4.22904 36.59503,-9.73432 16.75876,-12.59772 22.33158,-34.43004 24.7728,-54.22656 -1.46093,-9.98512 -7.2746,-19.00982 -6.30669,-29.47712 -0.89547,-17.85488 -5.68497,-37.28526 -20.25002,-48.90039 -1.19879,-3.05447 -20.77693,-7.1853 -14.8526,-1.72793 z"
           id="path3299"
           inkscape:connector-curvature="0" />
        <path
           style="fill:#faf49a"
           d="m 217.63642,733.59861 c -76.83739,1.12565 -128.138246,-85.4988 -105.87878,-155.33708 14.71976,-60.27344 67.25071,-98.49107 96.72864,-150.64656 34.89159,-49.56604 100.21727,-58.36966 156.25314,-52.66405 63.097,-10.44395 147.5352,-21.40405 187.59973,41.47097 34.69473,67.88799 -13.58734,141.64809 -58.11252,192.04023 -41.16326,49.27517 -99.25988,80.90448 -157.60909,105.3849 -38.27423,12.85149 -78.62037,19.42974 -118.98112,19.75159 z m 4.41147,-15.33626 c 4.94757,-13.22039 -11.50323,8.03566 0,0 z m -22.87068,-3.67795 c -3.57786,-17.02454 -12.27661,14.29877 0,0 z m 66.65744,-3.07564 c 0.97484,-12.85873 -7.3023,7.66379 0,0 z m -87.40608,-3.718 c 3.10057,-18.38638 -13.50862,8.92077 0,0 z m 116.6256,-0.55135 c 2.85601,-15.76085 -7.78811,9.06641 0,0 z m -125.6256,-6.49967 c 35.54983,-17.61339 -43.19108,-34.86456 -41.99879,-63.70002 -39.322131,-16.19162 30.98045,73.80269 18.64301,43.06341 -16.97639,6.83529 15.98671,31.24193 23.35578,20.63661 z M 150.03262,688.4905 c -4.70165,-13.20918 12.4397,4.35099 0,0 z m -25.91655,-43.34557 c -6.08922,-8.38616 8.81366,0.0182 0,0 z m 79.12213,51.89583 c -5.27506,-8.86975 -5.18865,10.14508 0,0 z m 19.60858,-68.85699 c -4.63369,-26.72161 -30.97349,-4.37542 0,0 z m -99.75695,-9.14301 c -0.32807,-19.23871 -11.914,3.93716 0,0 z m -4.15394,-28.08447 c -8.89004,3.90266 8.2741,6.97812 0,0 z m 104.20383,-22.85517 c -11.72303,-29.73335 -1.97986,-88.65221 -11.70876,-101.58035 -21.44974,25.27713 -41.19071,105.20802 11.70876,101.58035 z m 1.28885,-38.34174 c -1.38005,-7.11269 -4.96679,4.64089 0,0 z m 220,-129.96862 c -3.00917,-5.60064 -3.11244,5.67957 0,0 z"
           id="path2460"
           inkscape:connector-curvature="0" />
        <path
           style="fill:#fbea63"
           d="m 216.97594,732.16678 c -27.68599,0.2343 -56.05154,-11.45696 -73.32669,-33.5196 13.76527,13.97534 53.3691,18.07937 55.03385,-7.77102 -24.38644,-9.45697 -51.40628,-24.60957 -54.48254,-53.47038 -5.25713,-17.01626 2.64103,-51.82577 -5.63663,-58.08755 -11.11513,17.54932 11.53705,45.98172 -6.01827,58.18401 -11.03122,-10.34299 2.64184,-46.29736 -18.757,-39.87393 0.95486,9.35664 -6.39418,20.64028 -4.61503,4.13891 3.84531,-50.89547 35.83026,-94.18744 70.76037,-129.14389 21.98056,-39.06031 51.17211,-80.1227 97.41487,-91.06611 42.89979,-12.05004 88.17508,-1.24291 131.46774,-11.131 45.53766,-5.90511 99.77008,-4.49949 132.33177,32.87555 23.29387,25.95148 28.81798,64.65488 16.31942,96.83781 -17.24024,61.87322 -62.80613,110.80948 -109.84995,152.18606 -29.67146,18.10317 -59.13441,36.87363 -90.1756,52.49762 -44.08578,19.41008 -92.62638,26.3261 -140.46631,27.34352 z m 8.07715,-13.49671 c -4.87965,-21.40582 -11.0955,18.16951 0,0 z m -35.62452,1.62069 c 27.09635,-2.53224 -15.918,-19.79455 0,0 z m 53.43101,-6.84494 c 3.75154,-11.87304 -6.75521,8.23195 0,0 z m 23.98039,0.26787 c 18.18568,-13.83499 -14.38428,-4.80677 0,0 z m 26.7259,-1.49393 c 23.26684,-4.26954 -9.05788,-11.99515 0,0 z m -70.5227,-9.08421 c 8.33449,-18.72423 -18.33039,8.90421 0,0 z m 104.23144,-13.37527 c -6.65924,-3.73146 3.46208,5.31008 0,0 z m -74.16176,-25.05873 c -22.58205,-12.57913 -52.35978,-7.83916 -71.90123,-26.59601 -14.92206,-27.91417 -20.60932,-64.16895 -3.55854,-92.47067 -2.83192,16.23146 -12.31019,38.32077 -2.01395,52.1124 -5.00561,-24.19751 25.55687,-40.84607 41.67832,-22.70181 27.35137,-2.09771 27.01989,-38.23307 17.29319,-56.87 -2.38484,-33.33765 6.57341,-67.87324 27.0216,-94.56539 8.57556,-19.3411 -17.88594,-24.81668 -19.07532,-3.77901 -15.92237,18.03408 -47.89124,20.91561 -53.62769,47.56623 -7.41524,24.06224 -2.06048,58.06709 -22.61413,74.86606 -22.97634,13.41015 -16.72654,43.06109 -18.52307,65.26718 -5.81553,10.50329 11.23114,45.3024 16.15555,23.37421 1.61012,-13.08631 8.81671,22.24508 21.85438,19.31202 21.31428,8.38968 43.84591,18.42001 67.31089,14.48479 z m -92.98347,-74.24809 c -9.68058,-9.63733 12.70442,-27.02623 2.85891,-7.05775 -0.71295,2.45093 -1.78522,4.74954 -2.85891,7.05775 z m 193.79919,65.3373 c -4.73431,-3.63391 2.49815,10.81913 0,0 z m -117.5,-12.72836 c 21.16321,-15.56236 -28.95114,-21.60312 -17.54355,-42.80863 -11.04801,-22.68517 -36.34452,5.10486 -16.00366,16.90401 -20.3508,14.48691 12.34833,26.6338 26.46176,25.71828 l 2.38107,0.10165 z m -45.55279,-13.35705 c -4.91086,-3.75759 1.59107,4.99856 0,0 z m -67.44721,-55.28959 c 7.90129,-7.9605 -8.44342,-3.78119 0,0 z m 10,-26.125 c -1.23897,-9.57025 -1.69063,10.80376 0,0 z m 113,-7.71398 c -4.23904,-5.10128 -1.01014,6.34541 0,0 z M 145.79828,527.54076 c 9.04067,-5.85907 -4.834,-2.21551 0,0 z m 98.02348,-29.01156 c -0.52886,-9.11846 -2.06195,6.99825 0,0 z m 7.60681,-12.85647 c -5.79914,-1.47216 5.14708,6.65572 0,0 z m 201,-58.34095 c 9.48646,-11.4794 51.66235,1.83562 33.85675,-22.86551 14.67402,6.03062 25.51833,0.3762 10.96504,-12.24344 -20.4872,-17.20234 -47.34354,-1.61836 -70.82655,-4.17048 -20.82566,7.00642 0.56728,39.50868 14.47691,39.81206 3.85204,0.16613 7.69902,-0.15544 11.52785,-0.53263 z m 89.5,-5.54102 c -2.0828,-11.53287 -3.64026,7.89563 0,0 z m -268.5,-6.94098 c 1.44538,-23.03514 43.36798,-9.0298 41.14507,-30.78592 -16.68991,0.0195 -55.38095,5.1214 -41.14507,30.78592 z m 260,-4.99559 c 2.18952,-15.19683 -9.21498,2.13368 0,0 z m -12,-8.62245 c -4.13924,-4.77485 0.63485,4.91298 0,0 z m -7,-6.48643 c -8.55365,-24.50748 -11.6949,16.07913 0,0 z m -125.162,-9.85552 c -4.5746,-9.83952 -0.35264,7.91782 0,0 z M 130.15641,685.71796 c -7.0812,-8.28438 9.5029,5.03579 0,0 z m -6.06117,-7.59387 c -11.31399,-4.72771 -6.78276,-33.94195 -1.7954,-10.33145 1.02932,3.34443 1.83364,6.80847 1.7954,10.33145 z m 16.94032,-2.91512 c -6.98655,-5.08316 2.50553,-4.77078 0,0 z m -22.952,-67.24695 c -11.93957,-9.58563 10.64077,-4.44377 0,0 z"
           id="path2458"
           inkscape:connector-curvature="0" />
        <path
           style="fill:#facb19"
           d="m 218.21205,731.81634 c -19.02818,-2.63016 -54.23086,-5.60466 -58.74353,-22.55769 7.33069,4.5955 24.17218,14.89253 25.90217,-0.40517 -8.09031,16.68899 13.24345,15.76764 21.39628,8.89515 7.0257,20.16765 32.60545,-16.34353 31.60498,8.38547 8.68458,-3.99141 6.62616,-37.36777 17.38992,-17.90062 2.62179,26.98621 38.02656,-25.87228 29.88756,1.93037 14.20904,13.00786 23.63078,-28.76493 37.85859,-13.29902 7.24822,-9.62583 25.55422,-33.71094 33.46336,-23.861 6.63803,9.78419 23.55506,-14.98622 23.5804,-24.54497 7.75401,-11.334 38.23773,-24.70075 33.83055,-32.43374 -35.29723,8.73566 -61.63904,38.14225 -97.70867,44.76387 7.14332,-14.40874 32.43578,-13.82288 44.70736,-25.75711 14.82401,-14.23629 -21.10329,-2.60859 -27.82504,-3.52567 -37.60725,3.88356 -77.56887,2.59632 -112.55751,-13.03881 -11.00152,-7.94811 -32.95013,-44.9493 -4.14339,-41.09017 11.31708,3.04557 51.47651,-6.05171 26.89739,-15.66363 7.23423,-7.47744 19.64875,-9.46301 6.05202,-16.53546 7.93204,-7.25801 -6.6809,-10.7789 3.9935,-19.75986 -9.71575,-2.84779 0.29661,-18.59403 -12.93128,-19.13311 20.11837,1.99268 22.82923,-29.3756 10.86602,-35.74586 1.49574,-23.02704 18.78113,-38.63083 34.43193,-53.07238 8.53897,-19.60229 27.807,-18.8627 44.48328,-21.18713 19.06644,-1.75927 8.84588,-22.0159 -7.24582,-16.53235 -43.45856,3.28936 -88.21907,19.48928 -116.11431,54.42755 -4.94437,0.0158 15.13196,-21.98466 22.3113,-26.37403 34.41096,-27.67239 81.23973,-37.62054 124.38281,-30.062 28.44269,-0.88391 55.90861,-10.69538 84.56273,-9.46712 42.32415,-2.91096 89.37641,11.38758 112.81361,48.99633 20.18985,33.02232 10.35591,73.40203 -2.29565,107.20631 -21.9435,51.7956 -64.00793,91.26522 -102.28797,131.15005 -27.41484,8.94266 -49.89197,27.01984 -73.64338,42.11116 -42.30301,19.44533 -88.09489,30.4505 -134.48796,33.69767 -6.73062,-0.0622 -14.01212,3.35123 -20.43125,0.38297 z m 228.71652,-83.52221 c 27.17895,-22.75398 -24.21023,6.04078 0,0 z m -33.5,-0.50337 c -1.80456,-3.40278 -1.65926,4.05362 0,0 z m 26.9654,-214.60283 c 25.01409,-1.27848 52.17126,-7.02787 74.27135,-11.48563 15.30987,9.49502 -2.86237,-27.35873 13.38666,-7.42603 2.64088,9.1793 22.84534,18.48033 14.0291,2.21912 -15.73632,-22.47608 -40.88777,-36.69115 -68.05559,-39.42944 -22.69478,-3.77784 -46.28699,-3.00008 -68.44739,3.38757 -26.33183,-8.27547 -27.56076,20.25206 -3.40092,25.79114 10.92468,10.07716 20.63698,30.76043 38.21679,26.94327 z M 233.09524,706.12409 c -1.74613,-7.59455 7.79926,2.17986 0,0 z m -89.16667,-7.94382 c -3.60389,-6.39726 10.28557,7.5937 0,0 z m 128.6875,-0.45201 c 3.06778,-7.64399 2.70134,3.90125 0,0 z M 131.5701,685.64577 c 0.0134,-6.99636 4.64733,6.92748 0,0 z m -17.06258,-36.43834 c 1.21008,-3.56519 0.0687,4.69866 0,0 z m 15.94019,-28.61717 c -6.94695,-32.33081 2.26999,-68.70256 26.75422,-91.57497 -13.15934,27.69928 -25.59952,57.27066 -23.07735,88.60703 0.39421,2.8465 -0.64919,8.75904 -3.67687,2.96794 z m -21.01914,-8.7995 c 2.29716,-4.22507 2.29716,4.22507 0,0 z m 81.18329,-15 c -4.55463,-8.8841 2.2884,-20.49556 0.4194,-3.95877 z m -8.18329,-10.14967 c -4.0455,-9.1214 7.98842,-28.55771 3.59281,-8.22714 0.24866,3.79452 -4.27752,20.73314 -3.59281,8.22714 z m -68.94239,-6.91883 c 0.69454,-14.80446 11.52109,-14.44703 0,0 z m 32.02134,-0.51483 c 1.21009,-3.56519 0.0687,4.69866 0,0 z m -20.50385,-11.18006 c 7.78758,-14.21736 -11.39425,-7.58746 -1.47065,-18.83697 14.18165,-29.46457 36.10944,-54.52708 59.21262,-77.3104 4.25263,3.05522 -7.09375,29.22176 -16.47281,33.18326 4.84378,-23.13155 -11.06732,1.85249 -9.26224,12.48048 -2.07274,10.64154 -9.94575,12.2668 -8.0594,0.7626 -13.55082,2.31274 -4.06447,42.48936 -13.57747,18.90063 -13.26185,-6.09751 1.54782,28.97775 -10.37005,30.8204 z m 40.4249,-29.07684 c 0.78161,-11.33744 21.24786,-26.02777 5.75709,-7.38275 -1.49477,1.47898 -2.85857,10.88271 -5.75709,7.38275 z"
           id="path2456"
           inkscape:connector-curvature="0" />
        <path
           style="fill:#eea903"
           d="m 217.96003,731.68127 c -14.66147,0.5037 -49.27672,-7.02356 -48.67747,-16.08271 27.5294,12.98161 60.05592,12.05249 87.83197,0.4801 22.6329,-5.35309 47.89816,-4.24488 66.91098,-19.5774 22.61787,-15.57692 50.62263,-19.25854 73.71183,-34.06225 25.67918,-14.28577 49.18527,-32.48208 69.39854,-53.81444 -15.62472,-18.88456 -41.13372,-4.42448 -58.60685,3.75241 -28.22644,10.62863 -58.92692,10.8613 -88.34154,16.19403 -26.67963,2.55446 -54.2989,4.21083 -80.5165,-2.01759 -20.1554,-3.98549 -45.48081,-39.38266 -15.92117,-48.22595 22.78312,3.27975 43.83518,-8.43359 49.25729,-31.32318 -1.72804,-15.30455 -7.727,-37.43869 -0.21168,-49.59452 33.32294,-10.87048 66.43812,-32.66188 78.49802,-67.10092 -2.11732,-10.79892 -18.66692,15.76826 -13.02453,-3.47749 10.6202,-18.3895 15.5066,-56.53473 -17.14725,-48.42234 -42.10442,1.92657 -84.62695,19.22553 -112.30252,51.72586 32.95254,-45.83836 94.85256,-61.64014 148.53625,-52.43523 49.68377,-6.7371 103.22592,-19.69054 150.97895,2.49796 40.81629,15.68654 63.14675,63.80788 52.31581,105.55274 -12.76191,65.62492 -60.23325,116.52334 -106.37128,161.70167 -23.68342,18.41745 -52.52341,28.63306 -76.5106,46.7407 -35.5919,20.32757 -76.64436,29.69037 -116.99444,35.04727 -14.20918,1.62916 -28.51163,2.44222 -42.81381,2.44128 z m 225.72389,-81.15655 c 24.214,-12.37433 -22.33806,-13.28926 -4.58288,3.30116 l 2.75251,-1.10091 z M 343.17857,514.8472 c 10.07874,-9.07182 -7.28839,2.95465 0,0 z m -5.93237,-7.55644 c 20.29317,-4.08941 -5.61709,-16.85439 -2.61825,1.18778 z m 20.50141,-3.39425 c -8.49455,-3.61306 -1.18671,9.63155 0,0 z m 8.49346,-6.04325 c -5.71486,-2.37178 2.63715,7.75515 0,0 z m -36.1276,-3.22871 c 15.40251,8.83422 22.94873,-29.86051 17.27253,-21.46425 4.49621,11.54938 -23.62491,8.38444 -17.27253,21.46425 z m 50.51156,-9.06077 c 11.64649,-6.34141 18.72246,-25.23331 10.12788,-31.45309 3.68806,-10.231 -0.76761,-22.20994 -5.5276,-6.55764 -6.94149,9.33197 -23.48856,41.32466 -7.71946,40.98078 z m -2.73204,-11.11101 c -6.70699,-14.84084 13.89095,-3.61715 0,0 z m -19.6411,16.00512 c -3.28281,-5.32492 -0.44854,5.3864 0,0 z m -23.40511,-12.27412 c 11.53958,-3.08544 -7.93088,2.68542 0,0 z m 27.31594,-10.14301 c 23.75849,-0.88247 6.56624,-49.63022 -4.3142,-18.9322 -3.34844,6.01495 -6.47091,18.63839 4.3142,18.9322 z M 403.979,444.30304 c 6.29277,-7.32054 -2.0023,-5.05414 -1.71292,0.44242 z m 38.75161,-6.99401 c 30.56832,-2.24582 61.21285,-3.96143 91.59305,-8.1815 25.9342,8.45346 1.82742,-30.23871 -9.87704,-34.671 -37.25851,-26.02888 -85.21455,-23.42966 -128.03606,-17.95818 -17.53909,-4.43403 -33.27603,19.0375 -9.40618,23.05423 20.63903,9.81372 29.5083,39.73233 55.72623,37.75645 z m -67.30204,-11.51827 c 15.30836,-4.81721 -7.93706,-3.98651 0,0 z m 20,-4.7 c -3.62576,-6.23323 2.45371,14.7253 0,0 z m -251.44113,277.1682 c -2.6632,-5.76077 9.47497,9.64932 0,0 z M 131.62339,685.7311 c 4.5503,-1.92136 1.89322,11.12448 0,0 z m -22.19482,-73.94034 c 1.81941,-4.92953 1.7903,4.80029 0,0 z m 4.03265,-32.0685 c -2.55612,-11.76433 11.46046,-10.08872 0,0 z m 22.00278,-7.52495 c -2.74977,-10.7463 9.54724,-8.4729 0,0 z m -15.39828,-14.90655 c 0.53341,-13.88906 12.13444,-8.46752 0,0 z m 10.36285,-19.69838 c 11.62593,-22.83077 28.5791,-42.59788 47.75311,-59.43758 -13.49875,21.70262 -34.09125,37.85911 -47.75311,59.43758 z m 71,-98.68359 c -3.7359,-8.1904 5.41068,2.15884 0,0 z m 128.5475,-19.90174 c -6.98769,-20.32315 19.32233,-4.58489 3.40462,1.059 -1.13487,-0.353 -2.26975,-0.706 -3.40462,-1.059 z m -18.08147,0.16075 c -6.43235,-25.49283 29.15148,-1.3875 0,0 z"
           id="path2454"
           inkscape:connector-curvature="0" />
        <path
           style="opacity:0.89296695;fill:#9c1515;fill-opacity:1"
           d="m 257.6329,628.30297 c -11.49438,-2.89646 -23.83867,-5.51099 -33.25762,-13.11607 -3.3147,-10.09027 -11.07047,-17.97603 -15.48434,-27.59714 -1.93949,-11.88623 16.29877,-5.27235 23.78394,-7.00151 15.62605,-0.0431 31.22186,-3.50252 45.33121,-10.13037 16.84449,-6.29474 32.6675,-14.9983 49.20058,-21.9746 18.03171,-3.3256 34.81302,-13.33712 45.89252,-27.98678 10.34161,-14.59533 25.66363,-25.56494 32.72537,-42.4807 6.50663,-13.43895 9.66246,-28.31307 11.30725,-42.96499 7.44196,4.27023 15.70324,10.96318 21.16817,18.10518 7.28267,10.43171 13.23126,22.93618 10.54706,35.99472 -1.1136,12.24222 -3.03078,24.68645 -9.85913,35.22189 -2.60905,6.86559 -9.82649,14.603 -8.63715,21.41816 3.81527,-2.70747 11.89612,-13.35657 6.17219,-2.69561 -5.47722,11.76526 -11.77057,24.02091 -23.53698,30.6254 -9.64348,4.64808 -18.76402,10.51983 -28.11153,15.84259 -10.92978,8.87644 -21.37708,18.87393 -34.80859,23.98044 -14.73876,5.86495 -30.12438,10.35275 -45.64844,13.51423 -15.47647,1.79886 -31.28765,4.04445 -46.78451,1.24516 z M 452.12693,504.29076 c 1.95917,-11.27905 1.26115,0.52177 -0.55791,5 0.18597,-1.66667 0.37194,-3.33333 0.55791,-5 z"
           id="path2452"
           inkscape:connector-curvature="0" />
        <path
           style="fill:url(#linearGradient9887);fill-opacity:1"
           d="m 261.46787,625.4114 c -11.13335,-2.41342 -23.16432,-3.78652 -32.77874,-10.34024 -3.90097,-8.17403 -7.43872,-16.99043 -13.78664,-23.88473 -5.80972,-5.42608 -3.72241,-14.00002 5.16241,-11.5951 19.55577,0.19178 39.85347,-0.21857 57.91495,-8.5799 17.32479,-5.54859 33.59411,-13.89311 50.54478,-20.38246 18.80068,-3.15733 36.73567,-13.14059 48.01448,-28.68801 11.34263,-12.25527 25.24809,-22.85634 31.54628,-38.92786 5.78699,-11.94924 7.90513,-25.10305 9.40283,-38.13233 1.93498,-11.94138 14.36242,4.90113 18.7403,8.76694 3.05064,11.35399 13.72522,20.26678 11.06349,32.98038 -0.93637,11.46123 -1.56299,23.70358 -8.74006,33.28029 -4.68371,8.3878 -11.69844,17.87878 -9.06586,27.90698 4.7339,-0.18356 10.89038,-11.8496 4.02588,-1.9046 -6.76889,11.53295 -14.56345,24.35602 -28.05057,28.69469 -8.7279,6.05075 -18.06132,11.52578 -26.71106,17.84176 -16.20148,15.03877 -37.41275,23.47668 -59.04336,26.80103 -18.83046,5.66754 -38.66471,7.36575 -58.23911,6.16316 z M 451.64618,510.90317 c 1.92221,-10.15234 1.26321,0.45703 -0.54988,4.49461 0.18329,-1.4982 0.36659,-2.99641 0.54988,-4.49461 z"
           id="path3248"
           inkscape:connector-curvature="0" />
      </g>
      <path
         inkscape:connector-curvature="0"
         d="M 340.83428,75.438586 616.00511,350.60935 c 3.20421,3.2042 3.18554,8.38202 -0.0417,11.60924 L 476.9949,501.18711 c -3.22728,3.22729 -8.40485,3.24572 -11.60906,0.0415 -75.98918,-205.2126 -183.06735,-186.18751 -275.1708,-275.17078 -3.20421,-3.20423 -3.1858,-8.3818 0.0415,-11.60907 L 329.22504,75.480246 c 3.22725,-3.22727 8.40504,-3.24589 11.60924,-0.04166 z"
         sodipodi:nodetypes="ccccccccc"
         id="path6773"
         style="opacity:0.7;fill:url(#linearGradient2955);fill-opacity:1;fill-rule:evenodd;stroke:none" />
    </g>
  </g>
</svg>
