<?xml version="1.0" encoding="UTF-8" standalone="no"?>
<svg
   xmlns:dc="http://purl.org/dc/elements/1.1/"
   xmlns:cc="http://creativecommons.org/ns#"
   xmlns:rdf="http://www.w3.org/1999/02/22-rdf-syntax-ns#"
   xmlns:svg="http://www.w3.org/2000/svg"
   xmlns="http://www.w3.org/2000/svg"
   xmlns:sodipodi="http://sodipodi.sourceforge.net/DTD/sodipodi-0.dtd"
   xmlns:inkscape="http://www.inkscape.org/namespaces/inkscape"
   enable-background="new 0 0 116.3787 194.4198"
   id="facebook"
   version="1.1"
   viewBox="0 0 16 16"
   xml:space="preserve"
   sodipodi:docname="tag.svg"
   width="16"
   height="16"
   inkscape:version="0.92.0 r15299"><metadata
     id="metadata4608"><rdf:RDF><cc:Work
         rdf:about=""><dc:format>image/svg+xml</dc:format><dc:type
           rdf:resource="http://purl.org/dc/dcmitype/StillImage" /><dc:title></dc:title></cc:Work></rdf:RDF></metadata><defs
     id="defs4606" /><sodipodi:namedview
     pagecolor="#ffffff"
     bordercolor="#666666"
     borderopacity="1"
     objecttolerance="10"
     gridtolerance="10"
     guidetolerance="10"
     inkscape:pageopacity="0"
     inkscape:pageshadow="2"
     inkscape:window-width="1912"
     inkscape:window-height="1056"
     id="namedview4604"
     showgrid="false"
     inkscape:measure-start="23.7378,37.2087"
     inkscape:measure-end="21.6262,40.631"
     inkscape:zoom="10.421875"
     inkscape:cx="-6.7487541"
     inkscape:cy="-6.3374586"
     inkscape:window-x="0"
     inkscape:window-y="16"
     inkscape:window-maximized="0"
     inkscape:current-layer="facebook"
     inkscape:pagecheckerboard="true" /><g
     id="g7644"
     transform="matrix(0.0459638,0,0,0.0459638,0,0.03906923)"><path
       id="path7583"
       d="m 308.1,8.85 h -108 c -8.4,0 -16.4,3.2 -22.4,9.2 L 17.3,177.65 c -12.4,12.4 -12.4,32.8 0,45.2 l 107.2,107.2 c 12.4,12.4 32.8,12.4 45.2,0 l 160.8,-160.4 c 6,-6 9.6,-14 9.6,-22.8 v -106 c 0,-17.6 -14.4,-32 -32,-32 z m -48,112 c -17.6,0 -32,-14.4 -32,-32 0,-17.6 14.4,-32 32,-32 17.6,0 32,14.4 32,32 0,17.6 -14.4,32 -32,32 z"
       style="fill:#ffe53c"
       inkscape:connector-curvature="0" /><path
       id="path7585"
       d="m 334.1,22.05 v 64.8 c 0,9.6 -4,18.8 -10.4,25.6 l -181.6,180.8 c -14,14 -36.8,14 -50.8,0 l -81.2,-81.2 c 1.6,4 4,8 7.2,11.2 l 107.2,107.2 c 12.4,12.4 32.8,12.4 45.2,0 l 160.8,-160.4 c 6,-6 9.6,-14 9.6,-22.8 V 40.85 c 0,-6.8 -2.4,-13.2 -6,-18.8 z"
       style="fill:#f2cb2c"
       inkscape:connector-curvature="0" /><path
       id="path7587"
       d="m 147.3,347.25 c -10.8,0 -20.8,-4 -28.4,-11.6 L 11.7,228.45 c -15.6,-15.6 -15.6,-40.8 0,-56.4 L 172.1,12.45 c 7.6,-7.6 17.2,-11.6 28,-11.6 h 108 c 22,0 40,18 40,40 v 106 c 0,10.8 -4.4,20.8 -12,28.4 l -160.8,160.4 c -7.6,7.6 -17.6,11.6 -28,11.6 z m 52.8,-330.4 c -6.4,0 -12.4,2.4 -16.8,6.8 L 22.9,183.25 c -9.2,9.2 -9.2,24.4 0,34 l 107.2,107.2 c 4.4,4.4 10.4,6.8 16.8,6.8 6.4,0 12.4,-2.4 16.8,-6.8 l 160.8,-160.4 c 4.8,-4.8 7.2,-10.8 7.2,-17.2 v -106 c 0,-13.2 -10.8,-24 -24,-24 z m 60,112 c -22,0 -40,-18 -40,-40 0,-22 18,-40 40,-40 22,0 40,18 40,40 0,22 -18,40 -40,40 z m 0,-64 c -13.2,0 -24,10.8 -24,24 0,13.2 10.8,24 24,24 13.2,0 24,-10.8 24,-24 0,-13.2 -10.8,-24 -24,-24 z"
       style="fill:#c39215"
       inkscape:connector-curvature="0" /><g
       id="g7589" /><g
       id="g7591" /><g
       id="g7593" /><g
       id="g7595" /><g
       id="g7597" /><g
       id="g7599" /><g
       id="g7601" /><g
       id="g7603" /><g
       id="g7605" /><g
       id="g7607" /><g
       id="g7609" /><g
       id="g7611" /><g
       id="g7613" /><g
       id="g7615" /><g
       id="g7617" /></g></svg>