<?xml version="1.0" encoding="UTF-8" standalone="no"?>
<svg
   xmlns:dc="http://purl.org/dc/elements/1.1/"
   xmlns:cc="http://creativecommons.org/ns#"
   xmlns:rdf="http://www.w3.org/1999/02/22-rdf-syntax-ns#"
   xmlns:svg="http://www.w3.org/2000/svg"
   xmlns="http://www.w3.org/2000/svg"
   xmlns:sodipodi="http://sodipodi.sourceforge.net/DTD/sodipodi-0.dtd"
   xmlns:inkscape="http://www.inkscape.org/namespaces/inkscape"
   enable-background="new 0 0 211.405 175.0664"
   id="twiter"
   version="1.1"
   viewBox="0 0 24 23.999999"
   xml:space="preserve"
   sodipodi:docname="twitter.svg"
   width="24"
   height="24"
   inkscape:version="0.92.0 r15299"><metadata
     id="metadata4555"><rdf:RDF><cc:Work
         rdf:about=""><dc:format>image/svg+xml</dc:format><dc:type
           rdf:resource="http://purl.org/dc/dcmitype/StillImage" /><dc:title></dc:title></cc:Work></rdf:RDF></metadata><defs
     id="defs4553" /><sodipodi:namedview
     pagecolor="#ffffff"
     bordercolor="#666666"
     borderopacity="1"
     objecttolerance="10"
     gridtolerance="10"
     guidetolerance="10"
     inkscape:pageopacity="0"
     inkscape:pageshadow="2"
     inkscape:window-width="1144"
     inkscape:window-height="1056"
     id="namedview4551"
     showgrid="false"
     inkscape:zoom="2.8284271"
     inkscape:cx="1.3569833"
     inkscape:cy="-10.765766"
     inkscape:window-x="0"
     inkscape:window-y="16"
     inkscape:window-maximized="0"
     inkscape:current-layer="twiter" /><path
     inkscape:connector-curvature="0"
     id="path1006"
     style="fill:#989596;fill-opacity:1;fill-rule:nonzero;stroke:none;stroke-width:0.93750006"
     d="m 16.771504,9.553499 c 0.0053,0.10575 0.0079,0.2115 0.0079,0.3179967 0,3.2534993 -2.476503,7.0050053 -7.0049989,7.0050053 -1.3904996,0 -2.6842506,-0.40725 -3.7740062,-1.106253 0.1935,0.0225 0.3892501,0.03375 0.5872501,0.03375 1.1542505,0 2.2147559,-0.392246 3.0570035,-1.053 -1.0762477,-0.02021 -1.9860031,-0.732752 -2.2987531,-1.709253 0.1500026,0.02777 0.3037493,0.04351 0.4627527,0.04351 0.225,0 0.4425026,-0.03076 0.6480001,-0.08622 -1.1250003,-0.22725 -1.9739973,-1.22175 -1.9739973,-2.41425 0,-0.0098 0,-0.02022 0,-0.03076 0.3322442,0.1845 0.711747,0.29475 1.1152438,0.307494 C 6.937165,10.421273 6.5029149,9.6667668 6.5029149,8.8125227 c 0,-0.4515032 0.1215,-0.8745032 0.3330001,-1.2375005 1.2134971,1.4895005 3.0285001,2.4697448 5.074498,2.5717508 -0.04201,-0.1800004 -0.06372,-0.3675062 -0.06372,-0.5610069 0,-1.3589999 1.1025,-2.4607439 2.462247,-2.4607439 0.707248,0 1.34775,0.2984941 1.797004,0.7762499 0.56025,-0.1095025 1.087497,-0.3149999 1.56375,-0.5977525 -0.1845,0.5759999 -0.574506,1.0574999 -1.083006,1.3627524 0.498006,-0.058535 0.972756,-0.1920058 1.413756,-0.3869999 -0.329256,0.4934973 -0.747,0.9269999 -1.2285,1.2742473 z M 12,0 C 5.3730012,0 0,5.3729994 0,11.999995 0,18.628495 5.3730012,24 12,24 18.626999,24 24,18.628495 24,11.999995 24,5.3729994 18.626999,0 12,0"
     inkscape:export-filename="/home/bernat/code/perso/www.luffy.cx/content/media/images/l/sprite/twitter.png"
     inkscape:export-xdpi="135"
     inkscape:export-ydpi="135" /></svg>