<?xml version="1.0" encoding="UTF-8" standalone="no"?>
<svg
   xmlns:dc="http://purl.org/dc/elements/1.1/"
   xmlns:cc="http://creativecommons.org/ns#"
   xmlns:rdf="http://www.w3.org/1999/02/22-rdf-syntax-ns#"
   xmlns:svg="http://www.w3.org/2000/svg"
   xmlns="http://www.w3.org/2000/svg"
   xmlns:sodipodi="http://sodipodi.sourceforge.net/DTD/sodipodi-0.dtd"
   xmlns:inkscape="http://www.inkscape.org/namespaces/inkscape"
   enable-background="new 0 0 211.405 175.0664"
   id="twiter"
   version="1.1"
   viewBox="0 0 24 23.999999"
   xml:space="preserve"
   sodipodi:docname="twitter.svg"
   width="24"
   height="24"
   inkscape:version="1.0alpha (e25c9f7d36, 2019-01-13)">
  <metadata
   id="metadata4555">
    <rdf:RDF>
      <cc:Work
   rdf:about="">
        <dc:format>image/svg+xml</dc:format>

        <dc:type
   rdf:resource="http://purl.org/dc/dcmitype/StillImage" />

        <dc:title />

      </cc:Work>

    </rdf:RDF>

  </metadata>

  <defs
   id="defs4553">
    <mask
   fill="white"
   height="44"
   width="44"
   y="0"
   x="0"
   maskUnits="objectBoundingBox"
   maskContentUnits="userSpaceOnUse"
   id="mask-4">
      <circle
   id="use11"
   cx="22"
   cy="22"
   r="22"
   style="opacity:1;stop-opacity:1" />

    </mask>

  </defs>

  <sodipodi:namedview
   pagecolor="#ffffff"
   bordercolor="#666666"
   borderopacity="1"
   objecttolerance="10"
   gridtolerance="10"
   guidetolerance="10"
   inkscape:pageopacity="0"
   inkscape:pageshadow="2"
   inkscape:window-width="1916"
   inkscape:window-height="1060"
   id="namedview4551"
   showgrid="false"
   inkscape:zoom="11.313708"
   inkscape:cx="-18.768287"
   inkscape:cy="27.000609"
   inkscape:window-x="0"
   inkscape:window-y="16"
   inkscape:window-maximized="1"
   inkscape:current-layer="twiter"
   inkscape:document-rotation="0" />

  <g
   id="g3615">
    <rect
   height="22"
   width="22"
   y="1"
   x="1"
   id="rect335"
   style="opacity:1;fill:none;fill-rule:evenodd;stroke:#000000;stroke-width:1;stop-opacity:1;stroke-opacity:1;stroke-miterlimit:4;stroke-dasharray:none" />

    <path
   inkscape:connector-curvature="0"
   fill="#000000"
   id="path339"
   d="M 16.263075,9.422866 C 16.708047,9.1420625 17.049481,8.6968075 17.20972,8.166402 16.793098,8.427055 16.332717,8.615557 15.841522,8.717608 15.449551,8.275603 14.889329,8 14.269326,8 c -1.18947,0 -2.153372,1.0172615 -2.153372,2.271775 0,0.178102 0.01788,0.351654 0.05485,0.517406 C 10.381053,10.69428 8.794066,9.79077 7.7309385,8.4153545 7.5454305,8.7520585 7.439426,9.1420625 7.439426,9.5580675 c 0,0.7878085 0.3802605,1.4833165 0.9583555,1.8915215 -0.3531435,-0.0117 -0.685332,-0.115052 -0.9762285,-0.284054 v 0.02795 c 0,1.101112 0.742032,2.019573 1.7287375,2.227575 -0.181194,0.0533 -0.371016,0.07995 -0.568234,0.07995 -0.1386685,0 -0.274256,-0.01365 -0.4049125,-0.0403 0.2736395,0.902211 1.06929,1.560018 2.012238,1.577568 -0.737718,0.609707 -1.6664905,0.972411 -2.675383,0.972411 -0.173798,0 -0.3457475,-0.0098 -0.513999,-0.0312 C 7.953425,16.623646 9.0855785,17 10.302166,17 c 3.962846,0 6.128543,-3.461938 6.128543,-6.464322 0,-0.0988 -0.0012,-0.196952 -0.0055,-0.293803 0.420937,-0.3204535 0.787023,-0.720858 1.074837,-1.176513 -0.386423,0.180702 -0.801813,0.302903 -1.236925,0.357504 z"
   style="opacity:1;fill-rule:evenodd;stroke:none;stroke-width:0.5;stop-opacity:1" />

  </g>

</svg>
