<?xml version="1.0" encoding="UTF-8" standalone="no"?>
<!-- Created with Inkscape (http://www.inkscape.org/) -->

<svg
   xmlns:dc="http://purl.org/dc/elements/1.1/"
   xmlns:cc="http://creativecommons.org/ns#"
   xmlns:rdf="http://www.w3.org/1999/02/22-rdf-syntax-ns#"
   xmlns:svg="http://www.w3.org/2000/svg"
   xmlns="http://www.w3.org/2000/svg"
   xmlns:sodipodi="http://sodipodi.sourceforge.net/DTD/sodipodi-0.dtd"
   xmlns:inkscape="http://www.inkscape.org/namespaces/inkscape"
   version="1.1"
   id="svg2"
   width="400"
   height="290"
   viewBox="0 0 400 290"
   sodipodi:docname="deer.svg"
   inkscape:version="0.92.1 r15371">
  <metadata
     id="metadata8">
    <rdf:RDF>
      <cc:Work
         rdf:about="">
        <dc:format>image/svg+xml</dc:format>
        <dc:type
           rdf:resource="http://purl.org/dc/dcmitype/StillImage" />
        <dc:title></dc:title>
      </cc:Work>
    </rdf:RDF>
  </metadata>
  <defs
     id="defs6" />
  <sodipodi:namedview
     pagecolor="#ffffff"
     bordercolor="#666666"
     borderopacity="1"
     objecttolerance="10"
     gridtolerance="10"
     guidetolerance="10"
     inkscape:pageopacity="0"
     inkscape:pageshadow="2"
     inkscape:window-width="1912"
     inkscape:window-height="1056"
     id="namedview4"
     showgrid="false"
     inkscape:zoom="1.2206897"
     inkscape:cx="126.76044"
     inkscape:cy="202.46505"
     inkscape:window-x="0"
     inkscape:window-y="16"
     inkscape:window-maximized="0"
     inkscape:current-layer="svg2" />
  <path
     style="fill:#000000;stroke-width:0.98509848"
     d="m 150.8898,281.60941 c 0.20944,-1.08751 1.2312,-1.72392 2.76776,-1.72392 1.53657,0 2.55834,0.63641 2.76777,1.72392 0.25939,1.34693 -0.34587,1.72392 -2.76777,1.72392 -2.42189,0 -3.02715,-0.37699 -2.76776,-1.72392 z m -4.12792,-5.5958 c 0,-1.00581 0.88937,-1.54617 2.54483,-1.54617 3.08604,0 2.74827,2.31348 -0.40553,2.77754 -1.42072,0.20905 -2.1393,-0.20457 -2.1393,-1.23137 z m 32.0157,-5.48656 c -0.90954,-1.47168 0.35598,-2.95529 2.52088,-2.95529 2.81481,0 2.32809,-1.3051 -1.04324,-2.7974 -5.44788,-2.41146 -3.18301,-4.12031 2.72932,-2.05926 4.33313,1.51053 4.88081,3.87969 1.51882,6.57016 -3.00335,2.40346 -4.77091,2.7868 -5.72578,1.24179 z M 93.320282,267.8778 c -2.080211,-0.54362 -2.28324,-3.10854 -0.30611,-3.86723 1.721438,-0.66059 6.654912,1.6073 7.211148,3.31491 0.4014,1.23226 -3.200634,1.52038 -6.905038,0.55232 z m 51.084238,-1.86426 c -0.91377,-2.38126 -0.74367,-2.65755 1.12598,-1.82894 0.94816,0.42021 3.2379,0.8001 5.08832,0.84421 1.85043,0.0441 3.54973,0.63432 3.77622,1.31157 0.66313,1.98288 -9.22837,1.65927 -9.99052,-0.32684 z m -47.882671,-4.37017 c -1.354508,-0.38088 -3.681803,-0.47728 -5.171767,-0.21423 -2.291869,0.40465 -2.709016,0.13826 -2.709016,-1.72993 0,-1.80928 0.400435,-2.10092 2.216472,-1.61424 1.219059,0.3267 3.878825,0.60006 5.910591,0.60745 2.553464,0.009 3.694121,0.45176 3.694121,1.43296 0,1.938 -1.032412,2.33573 -3.940401,1.51799 z m 46.299631,-2.9375 c 0,-0.5418 1.77318,-0.9851 3.9404,-0.9851 2.74281,0 3.94039,-0.42414 3.94039,-1.39556 0,-1.87016 -1.9554,-2.44968 -4.76189,-1.41124 -2.99062,1.10656 -4.57864,0.13273 -2.96133,-1.816 0.87159,-1.0502 2.35594,-1.3422 5.01196,-0.98596 5.31274,0.71259 6.72997,2.0837 5.31277,5.13992 -0.96217,2.07496 -1.79709,2.42478 -5.80308,2.43135 -2.57357,0.004 -4.67922,-0.43561 -4.67922,-0.97741 z m 40.58609,-0.6799 c -1.65819,-0.3331 -2.18645,-1.02933 -1.9702,-2.59664 0.25222,-1.82781 -0.24562,-2.18629 -3.39862,-2.44725 -6.44258,-0.53321 -4.05777,-2.23804 2.77767,-1.98567 6.39353,0.23606 8.89717,1.25533 5.90438,2.40376 -2.54802,0.97778 -1.74278,2.20603 1.66149,2.53426 1.76086,0.16978 3.20157,0.75199 3.20157,1.29379 0,1.07519 -4.57372,1.52145 -8.17629,0.79775 z m 100.283,-0.82585 c 0,-1.05567 6.18419,-12.84242 7.73809,-14.74838 0.99242,-1.21728 0.54092,-1.02906 -1.18147,0.49255 -1.53325,1.35451 -3.50965,3.68181 -4.39201,5.17177 -1.51994,2.56657 -4.13481,3.72416 -4.13481,1.83046 0,-0.4832 2.0359,-3.14296 4.52423,-5.91059 2.48833,-2.76761 4.10162,-5.03203 3.58508,-5.03203 -2.00561,0 -12.0497,7.40153 -12.0497,8.87946 0,2.07979 -1.94608,3.92682 -4.13741,3.92682 -2.48025,0 -2.20822,-1.485 0.68956,-3.7644 1.35451,-1.06546 2.46275,-2.40244 2.46275,-2.97109 0,-0.56865 1.32988,-1.81949 2.95529,-2.77964 1.62541,-0.96017 2.9553,-2.32901 2.9553,-3.04191 0,-0.7129 0.66494,-1.55133 1.47765,-1.8632 0.8127,-0.31187 1.47764,-0.99619 1.47764,-1.52073 0,-0.52452 -2.5137,0.4078 -5.58599,2.07183 -3.07231,1.66402 -5.81335,2.79817 -6.09119,2.52031 -0.81191,-0.8119 0.88563,-1.98673 8.50791,-5.88817 8.59118,-4.39737 14.00536,-5.8814 14.00536,-3.83888 0,0.75565 -0.55412,1.38377 -1.23138,1.39581 -1.23852,0.0221 -6.69087,3.85566 -5.54189,3.89658 0.33823,0.012 2.53497,-0.6555 4.88164,-1.48346 2.34666,-0.82794 4.84051,-1.28515 5.54189,-1.01601 2.1696,0.83255 1.41139,2.57641 -1.57245,3.61658 -1.95352,0.68101 -2.71567,1.51553 -2.42727,2.65777 0.23123,0.91579 -0.79599,2.96422 -2.2827,4.55208 -1.71511,1.83176 -2.26816,3.03198 -1.51312,3.28365 1.63001,0.54334 1.49303,3.6847 -0.31296,7.17709 -1.2268,2.37236 -2.1318,2.90638 -4.9255,2.90638 -1.8824,0 -3.42254,-0.23429 -3.42254,-0.52065 z M 93.979586,255.40001 c -2.142567,-1.19425 -2.136605,-3.58983 0.0089,-3.58983 1.266972,0 4.50353,3.06458 4.50353,4.26423 0,0.9624 -2.153295,0.64057 -4.512463,-0.6744 z m 162.784964,-1.29127 c -1.15255,-1.15255 -0.71309,-2.19908 1.39783,-3.32882 2.61685,-1.40049 3.33148,-0.68586 1.93098,1.93098 -1.12973,2.11092 -2.17627,2.55039 -3.32881,1.39784 z m 6.23895,-0.82935 c 0,-4.47624 7.42917,-19.72463 12.11462,-24.8653 4.07119,-4.46673 0.66177,-2.05743 -4.47595,3.16298 -5.32383,5.40951 -6.71959,7.47068 -8.64006,12.75901 -0.75097,2.06798 -1.34143,2.57002 -2.11399,1.79746 -1.60912,-1.60911 2.28892,-8.91657 8.08347,-15.15367 2.6856,-2.89072 4.88289,-5.54921 4.88289,-5.90778 0,-0.35856 1.32989,-1.11553 2.9553,-1.68216 1.95859,-0.68276 2.9553,-0.69566 2.9553,-0.0382 0,0.5456 0.41267,0.73696 0.91702,0.42524 0.50438,-0.31172 1.16504,-0.16548 1.46814,0.32496 0.30312,0.49045 -1.67091,3.22148 -4.38672,6.06899 -2.71581,2.8475 -4.74824,5.36687 -4.5165,5.5986 0.23172,0.23174 2.27826,-0.7509 4.54786,-2.18363 2.2696,-1.43274 4.41712,-2.30287 4.77229,-1.93362 0.35517,0.36923 -0.46248,1.38162 -1.817,2.24974 -4.76825,3.05605 -9.6023,8.89681 -11.84835,14.31579 -2.17368,5.2444 -4.89832,8.05987 -4.89832,5.06162 z M 84.700674,248.47723 c 0,-1.20123 0.968207,-1.59254 3.940392,-1.59254 2.167214,0 3.940392,0.44329 3.940392,0.98509 0,0.54181 -0.775765,0.99115 -1.72392,0.99855 -0.948163,0.008 -2.72134,0.28076 -3.940399,0.60745 -1.629484,0.43669 -2.216465,0.17223 -2.216465,-0.99855 z m 64.384056,0.63616 c -5.6781,-0.32564 -6.08268,-0.511 -6.57363,-3.01177 -0.68902,-3.50966 0.37974,-4.44183 3.66194,-3.19393 1.47802,0.56194 3.82095,1.0217 5.20652,1.0217 2.07082,0 2.3115,0.25031 1.35213,1.40629 -0.9571,1.15323 -0.68225,1.46345 1.52733,1.72392 1.48195,0.1747 2.87641,0.87176 3.09878,1.54901 0.22239,0.67725 -0.18672,1.14596 -0.90912,1.04156 -0.72241,-0.10439 -4.03618,-0.34595 -7.36395,-0.53678 z m 100.44548,-0.85047 c -0.33285,-0.86739 -0.20811,-1.87556 0.27719,-2.24038 2.62268,-1.97158 8.54667,-9.04114 8.01859,-9.56922 -0.3391,-0.3391 -2.41042,1.31511 -4.60292,3.67603 -3.15219,3.39432 -3.98896,3.89061 -3.99866,2.37165 -0.01,-1.49407 -0.27499,-1.65825 -1.19441,-0.73882 -2.0095,2.00949 -3.78066,1.31963 -5.18471,-2.01946 -1.44074,-3.42635 -0.58773,-5.66431 2.15901,-5.66431 0.80384,0 2.33326,-1.10824 3.39872,-2.46275 1.06546,-1.35451 2.64723,-2.46275 3.51506,-2.46275 1.25156,0 1.10015,0.50852 -0.73212,2.45887 -3.53614,3.76405 -1.61811,4.05034 2.88598,0.43075 2.20291,-1.77031 4.33724,-2.8868 4.74296,-2.48108 0.40571,0.40571 -0.14824,1.36977 -1.23099,2.14238 -3.55502,2.53666 -8.40935,7.59087 -7.83874,8.16149 0.30755,0.30754 0.86755,0.11725 1.24443,-0.42286 1.40175,-2.00878 9.09325,-7.48689 10.05964,-7.16476 0.58508,0.19504 0.17529,1.95616 -0.98448,4.23098 -1.09272,2.1433 -1.98675,4.50507 -1.98675,5.24838 0,1.24749 -6.28926,8.08292 -7.43708,8.08292 -0.27805,0 -0.77788,-0.70968 -1.11072,-1.57706 z m -76.56827,-0.2395 c -0.62386,-1.00943 4.40066,-3.10893 7.44028,-3.10893 3.16466,0 1.97392,-1.85265 -1.62464,-2.52774 -4.07324,-0.76414 -4.71873,-3.62936 -1.23137,-5.46587 1.21906,-0.64197 2.43945,-1.50399 2.712,-1.9156 0.27254,-0.41162 2.2357,0.098 4.36257,1.13256 2.12687,1.03453 4.56365,1.88442 5.41505,1.88864 2.07855,0.0104 3.98057,4.23159 2.83169,6.28453 -0.58028,1.0369 -2.22022,1.58858 -4.72231,1.58858 -2.10832,0 -4.08985,0.41509 -4.4034,0.92241 -0.31354,0.50733 -1.33712,0.87758 -2.27461,0.82277 -0.93749,-0.0547 -3.10303,0.22101 -4.81231,0.61291 -1.7578,0.40302 -3.36197,0.30127 -3.69295,-0.23426 z m 12.9576,-7.72839 c -0.94815,-0.24777 -2.49968,-0.24777 -3.44784,0 -0.94816,0.24779 -0.17239,0.45052 1.72392,0.45052 1.89631,0 2.67208,-0.20273 1.72392,-0.45052 z m -99.987956,3.38809 c 0.225497,-0.67726 1.038203,-1.31268 1.806011,-1.41206 8.39338,-1.08629 9.031332,-1.36137 7.382528,-3.18327 -1.256747,-1.38869 -2.630841,-1.66137 -6.499124,-1.28967 -4.417494,0.42447 -4.905428,0.27382 -4.905428,-1.51455 0,-1.51438 0.875861,-2.15022 3.688829,-2.67792 l 3.688822,-0.69204 -2.640867,-2.27158 c -1.452476,-1.24936 -2.373619,-2.53882 -2.046992,-2.86545 0.326626,-0.32663 -0.588245,-0.59387 -2.033059,-0.59387 -1.444807,0 -2.626925,-0.38303 -2.626925,-0.8512 0,-1.04022 7.28224,-2.10409 14.402648,-2.10409 4.926503,0 5.303023,0.17262 5.908933,2.70902 0.35593,1.48996 1.05085,3.22367 1.54426,3.85269 1.31113,1.67153 -0.47051,2.42769 -7.146264,3.03302 -3.214032,0.29144 -5.843698,0.8977 -5.843698,1.34725 0,0.44955 0.668281,0.56093 1.485066,0.2475 2.889939,-1.10898 8.114766,0.57938 8.889126,2.87245 1.17923,3.49199 1.07019,3.95759 -0.997874,4.26111 -1.073769,0.1576 -2.108123,0.75397 -2.298562,1.32528 -0.191452,0.57437 -2.988587,1.03875 -6.256834,1.03875 -4.290409,0 -5.798209,-0.33754 -5.500596,-1.23137 z m 14.770046,-14.68486 c -0.832096,-0.8321 -2.015389,-0.85925 -4.383689,-0.10057 l -3.243932,1.03918 4.383686,0.10057 c 3.319015,0.0761 4.106875,-0.17624 3.243935,-1.03918 z m 53.94104,14.87299 c 0,-0.57378 0.44329,-0.76926 0.98509,-0.43441 0.5418,0.33486 0.9851,0.80431 0.9851,1.04324 0,0.23893 -0.4433,0.43441 -0.9851,0.43441 -0.5418,0 -0.98509,-0.46946 -0.98509,-1.04324 z m -4.4024,-3.83283 c -0.66721,-1.07956 2.84933,-3.24432 3.77177,-2.32188 0.70163,0.70163 -1.17138,3.25755 -2.38716,3.25755 -0.44348,0 -1.06657,-0.42104 -1.38461,-0.93567 z m 17.75983,-0.9397 c -0.67628,-1.09425 7.47801,-6.02998 8.70711,-5.27036 0.96178,0.59441 -1.26671,2.51794 -5.50824,4.75445 -1.45922,0.76943 -2.8987,1.00159 -3.19887,0.51591 z m -46.39307,-3.27822 c -0.61593,-1.60508 4.20156,-12.18766 5.12692,-11.2623 0.6163,0.61629 -2.48253,10.57526 -3.70323,11.90141 -0.48916,0.5314 -1.07552,0.26819 -1.42369,-0.63911 z m 229.07024,-5.77677 c 0,-3.25413 3.19002,-7.81319 5.90066,-8.43302 1.35997,-0.31097 4.79325,-1.84426 7.62952,-3.40729 5.54711,-3.05696 7.15689,-3.45536 7.15689,-1.77122 0,0.58887 -1.32989,1.57265 -2.9553,2.18617 -1.62541,0.61353 -2.95529,1.41473 -2.95529,1.78045 0,0.36572 -1.32989,2.08859 -2.9553,3.8286 -1.62541,1.74001 -2.9553,3.78171 -2.9553,4.53713 0,0.7554 -0.36941,1.37346 -0.82091,1.37346 -1.82884,0 -2.05661,-1.44962 -0.58147,-3.70096 0.85789,-1.30931 1.32548,-2.61491 1.03907,-2.90132 -0.8295,-0.82949 -5.4818,4.94657 -5.51615,6.84856 -0.0449,2.48871 -2.98642,2.15327 -2.98642,-0.34056 z m 11.00027,0.34056 c 1.14612,-2.57878 5.36182,-9.09829 5.88728,-9.10458 1.64673,-0.0197 1.74442,3.68144 0.17414,6.59728 -1.21611,2.25817 -2.45447,3.24612 -4.06897,3.24612 -1.27645,0 -2.17306,-0.33247 -1.99245,-0.73882 z m -233.26833,-2.46275 c 0.32669,-1.21906 0.60005,-4.56993 0.60744,-7.44638 0.009,-3.53309 0.36317,-5.01376 1.09132,-4.56375 0.59282,0.36639 0.87392,1.73302 0.62466,3.03695 -0.24926,1.30393 -0.12497,2.57365 0.2762,2.82158 0.40117,0.24794 0.94254,-1.76721 1.20302,-4.47811 0.45145,-4.6983 1.2206,-6.7222 2.1873,-5.7555 1.11258,1.11258 -1.83098,15.06361 -3.5386,16.77123 -2.42726,2.42726 -3.17376,2.3097 -2.45134,-0.38602 z m 34.1371,0.19324 c -0.0126,-0.84187 1.52867,-3.03448 3.42499,-4.87246 4.46274,-4.32546 4.48011,-2.34882 0.0228,2.60025 -2.1525,2.39 -3.43348,3.23421 -3.44784,2.27221 z m -4.94835,-0.87261 c 0,-1.37209 8.94162,-12.86574 10.00906,-12.86574 1.4525,0 0.92361,1.00923 -3.6304,6.92751 -4.68646,6.0904 -6.37866,7.66577 -6.37866,5.93823 z m 83.73338,0.0844 c 0,-1.24019 4.66249,-6.05448 5.86355,-6.05448 1.51258,0 1.31466,0.46054 -1.64997,3.8391 -2.65383,3.02435 -4.21358,3.84442 -4.21358,2.21534 z m -101.46515,-0.53861 c 0,-0.21711 1.08998,-2.74736 2.42219,-5.62279 1.3322,-2.87542 2.18554,-5.46469 1.89631,-5.75392 -0.28924,-0.28923 -0.95938,0.24873 -1.48921,1.19549 -2.2283,3.98175 -5.29428,6.6326 -6.65675,5.75544 -1.92041,-1.23639 -0.81228,-4.80303 3.11558,-10.02783 1.80319,-2.3986 3.81509,-6.13426 4.4709,-8.30148 1.25811,-4.15766 3.75639,-8.08198 4.60491,-7.23346 0.99593,0.99594 -1.32038,10.10707 -2.85474,11.22902 -0.86284,0.63092 -1.5688,1.38386 -1.5688,1.67318 0,0.28933 -1.2751,1.89105 -2.83357,3.55939 -1.55846,1.66834 -3.08495,4.04251 -3.39219,5.27595 -0.44799,1.79839 0.0645,1.51088 2.58729,-1.45157 1.73026,-2.03178 3.66819,-3.69414 4.30651,-3.69411 1.0452,4e-5 3.90499,-6.38925 6.39334,-14.28389 0.51233,-1.62541 1.28287,-6.5612 1.71234,-10.96842 0.55528,-5.69834 1.39318,-8.87309 2.90061,-10.99006 1.78553,-2.50754 3.4788,-6.83427 8.65854,-22.12468 0.49237,-1.45348 -0.0395,-1.72392 -3.39073,-1.72392 -5.75108,0 -6.74002,0.61477 -10.78003,6.70129 -3.79861,5.72283 -14.32718,16.77372 -20.37791,21.38884 -2.45763,1.87453 -3.51708,3.46201 -3.51965,5.27386 -0.002,1.42566 -0.88862,4.04353 -1.9702,5.81748 -2.44714,4.01367 -2.4427,4.10294 0.16984,3.41974 1.79912,-0.47048 2.01368,-0.26154 1.35923,1.3236 -1.5391,3.7279 -3.49113,10.58842 -3.1187,10.96086 0.20923,0.20923 0.83227,-0.86127 1.38451,-2.37889 0.55225,-1.51762 2.39702,-4.31084 4.09949,-6.20715 2.55633,-2.84741 2.9896,-3.05999 2.48788,-1.2207 -0.57096,2.0931 -0.45138,2.156 1.98689,1.04505 1.61387,-0.73533 2.80527,-2.23636 3.15231,-3.97156 0.82442,-4.12216 2.67488,-4.76582 1.93172,-0.67194 -0.33361,1.83783 -0.8973,5.65736 -1.25264,8.48785 -0.63969,5.09566 -2.34586,6.32568 -2.34586,1.6912 0,-1.46259 -0.56923,-2.40461 -1.45303,-2.40461 -1.04828,0 -1.31524,0.75458 -0.95837,2.70903 0.90364,4.94887 -0.36343,5.5352 -11.74536,5.4351 l -10.37349,-0.0912 -1.65474,4.33291 c -1.66892,4.36999 -4.35307,7.72243 -4.35307,5.43689 0,-3.93775 5.64158,-13.89149 10.69313,-18.86643 5.92152,-5.83173 8.25836,-9.68522 9.99682,-16.48502 0.79115,-3.09443 1.75431,-4.48574 3.58801,-5.18291 2.95704,-1.12426 17.09618,-15.48786 17.09618,-17.36758 0,-0.7122 0.55411,-1.18408 1.23137,-1.04863 0.67726,0.13545 1.23138,-0.64031 1.23138,-1.72393 0,-1.0836 -0.49676,-1.87848 -1.10392,-1.7664 -0.60855,0.11234 -1.60313,-2.28205 -2.21645,-5.33598 -1.25431,-6.24565 -0.7742,-8.12661 0.79201,-3.1029 0.99676,3.19716 1.01958,3.15125 0.67174,-1.35172 -0.41827,-5.41459 0.81946,-5.44629 1.83238,-0.0469 0.98256,5.23747 2.40719,7.6448 3.73708,6.31491 0.76671,-0.76671 0.60139,-1.58273 -0.58664,-2.89548 -2.26176,-2.49922 -4.20018,-13.01206 -2.58346,-14.01125 0.65301,-0.40358 0.87601,-1.33748 0.49551,-2.07531 -0.38049,-0.73784 -0.0366,-0.53925 0.76427,0.44129 1.34723,1.64953 1.44474,1.53906 1.30442,-1.47765 -0.0997,-2.14336 0.27024,-3.17608 1.07972,-3.01417 0.67726,0.13545 1.23138,-0.66648 1.23138,-1.78207 0,-3.11839 1.81417,-1.28271 2.53626,2.56632 0.9513,5.07085 2.81434,5.62283 2.14542,0.63566 -0.37379,-2.78672 -1.40594,-4.79514 -3.30277,-6.42673 l -2.75907,-2.37326 1.2991,-6.28408 c 0.71452,-3.45625 1.51491,-7.94644 1.77866,-9.97821 0.44498,-3.42787 1.54758,-4.70616 2.54916,-2.95529 0.23244,0.40635 -0.35819,4.48521 -1.31252,9.06413 -0.95434,4.57893 -1.51767,8.89208 -1.25185,9.58479 0.2658,0.6927 2.10166,2.23997 4.07966,3.43837 1.97801,1.19841 5.48039,3.69889 7.78305,5.55664 3.70559,2.98961 4.18667,3.84567 4.18667,7.45 0,2.23974 -1.15497,7.17342 -2.56659,10.96368 -1.41164,3.79029 -3.45036,9.77284 -4.53049,13.29457 -1.08014,3.52173 -2.65939,7.73303 -3.50947,9.35844 -0.85006,1.62541 -2.35769,4.48973 -3.3503,6.36515 -1.20987,2.28595 -1.80472,5.50135 -1.80472,9.7552 0,5.23358 -0.78622,8.31041 -4.48735,17.56121 -2.73181,6.82798 -4.24944,11.9655 -3.87923,13.13196 0.41093,1.29472 -0.19579,2.71999 -1.871,4.3952 -2.16805,2.16802 -4.5389,3.2568 -4.5389,2.0844 z m -19.68853,-18.56842 c 0.008,-0.67726 0.28445,-2.33961 0.61567,-3.69412 0.58742,-2.40225 0.56366,-2.41435 -0.96722,-0.49255 -1.76428,2.21481 -2.1468,5.41805 -0.64699,5.41805 0.5418,0 0.99115,-0.55412 0.99854,-1.23138 z m -3.50563,-3.44785 c 0.40257,-1.33245 0.25028,-2.21647 -0.38182,-2.21647 -0.57833,0 -1.08443,0.33247 -1.12469,0.73883 -0.0403,0.40635 -0.27459,1.83758 -0.52073,3.1805 -0.53386,2.91266 1.02955,1.59942 2.02724,-1.70286 z m 11.37298,2.70903 c 0,-0.5418 -0.19549,-0.9851 -0.43441,-0.9851 -0.23893,0 -0.70839,0.4433 -1.04324,0.9851 -0.33486,0.5418 -0.13937,0.98509 0.4344,0.98509 0.57379,0 1.04325,-0.44329 1.04325,-0.98509 z m 20.18905,-52.21626 c -1.95999,-2.16576 -3.03462,-1.93428 -2.11735,0.45609 0.32083,0.83608 1.33089,1.52014 2.24457,1.52014 1.51598,0 1.50486,-0.1728 -0.12722,-1.97623 z m 6.40861,-3.46043 c 0,-0.28113 -1.38272,-3.05172 -3.07271,-6.15686 l -3.0727,-5.6457 0.65687,4.40721 c 0.36128,2.42397 1.36939,5.19455 2.24027,6.15686 1.5091,1.66753 3.24827,2.33064 3.24827,1.23849 z m 3.94039,-0.87187 c 0,-0.21887 -1.31218,-2.98946 -2.91596,-6.15687 -2.63876,-5.21148 -2.91933,-5.47799 -2.9516,-2.80363 -0.0379,3.14284 3.19524,9.35844 4.86798,9.35844 0.54977,0 0.99958,-0.17907 0.99958,-0.39794 z m 7.31433,-1.24234 c 0.39595,-1.03182 -0.73839,-3.68112 -3.05791,-7.14196 -2.59561,-3.87278 -3.79135,-4.99965 -4.03867,-3.80605 -0.19322,0.93261 1.02991,3.7032 2.71809,6.15687 1.68817,2.45368 2.64693,4.46122 2.13058,4.46122 -0.51635,0 -2.10787,-1.99482 -3.53669,-4.43294 -2.88458,-4.92215 -5.07507,-5.93288 -4.0557,-1.87137 1.61157,6.421 8.214,10.8723 9.8403,6.63423 z m 1.93871,-5.82853 c 0.91432,-2.38267 0.72144,-3.36727 -0.6596,-3.36727 -0.69164,0 -2.46482,-1.86191 -3.94039,-4.13758 -2.54992,-3.93257 -2.68285,-4.00578 -2.68285,-1.47765 0,1.46296 0.37597,2.65993 0.83549,2.65993 0.4595,0 1.63508,1.77318 2.61235,3.9404 1.91082,4.23743 2.88974,4.8455 3.835,2.38217 z m -1.24501,-8.55956 c -1.60234,-1.60234 -2.51712,-0.10278 -0.96544,1.58258 0.73337,0.79656 1.49105,1.00807 1.68785,0.47117 0.19639,-0.53584 -0.12869,-1.46003 -0.72241,-2.05375 z m -19.79379,90.58482 c -0.0414,-2.09309 1.76021,-5.78764 3.31361,-6.795 0.59616,-0.38658 1.10482,-1.05152 1.13039,-1.47765 0.0255,-0.42612 1.1812,-2.99122 2.56809,-5.70024 1.38689,-2.70902 2.7996,-6.08266 3.13934,-7.49697 0.33975,-1.41432 2.61963,-5.4952 5.06642,-9.06862 2.44678,-3.57343 4.4487,-6.90304 4.4487,-7.39913 0,-0.49608 2.94417,-5.72439 6.54259,-11.61844 7.09534,-11.62181 15.12957,-27.70462 15.12957,-30.28614 0,-0.88548 0.90276,-2.5127 2.00613,-3.61607 1.10338,-1.10338 1.74021,-2.43639 1.41521,-2.96226 -0.32501,-0.52586 0.10212,-1.22207 0.94917,-1.54711 0.84705,-0.32504 1.54009,-1.2085 1.54009,-1.96324 0,-0.75473 0.49071,-1.37226 1.09049,-1.37226 0.59976,0 0.83999,0.65282 0.5338,1.45069 -0.31617,0.82396 0.31202,2.05914 1.45406,2.85907 1.95522,1.36949 1.92876,1.42637 -0.95829,2.06047 -1.63297,0.35866 -3.37864,1.17773 -3.87926,1.82016 -1.16723,1.49783 -3.29288,7.77297 -2.79999,8.26587 1.04121,1.04121 19.12538,-6.95966 25.42305,-11.24776 3.96629,-2.70067 8.68351,-5.66994 10.48272,-6.59839 2.72172,-1.40449 3.0677,-1.93338 2.0595,-3.14818 -0.81082,-0.97699 -2.12738,-1.259 -3.97896,-0.85233 -2.18048,0.47891 -3.60309,-0.0639 -6.70949,-2.56032 -2.16827,-1.74245 -3.6828,-3.58796 -3.36566,-4.1011 0.31714,-0.51315 2.20668,0.6587 4.19896,2.60411 4.40082,4.29728 7.01502,4.80556 4.2592,0.82811 -1.03233,-1.48997 -2.15684,-3.48479 -2.49891,-4.43295 -0.34206,-0.94816 -1.27565,-1.72392 -2.07464,-1.72392 -1.68855,0 -4.5214,-3.69064 -4.51603,-5.88351 0.002,-0.8276 0.90672,-0.0236 2.01042,1.7868 1.10371,1.81033 2.55291,3.08194 3.22046,2.82578 0.69066,-0.26503 2.04016,1.23336 3.13147,3.47698 1.05477,2.16849 3.03945,4.6588 4.41038,5.53401 1.37094,0.8752 2.93591,2.10624 3.47771,2.73562 0.58238,0.67653 1.78787,0.84378 2.94877,0.40911 1.78355,-0.66779 1.6702,-0.88701 -1.23556,-2.38965 -3.23806,-1.67445 -8.90618,-9.01877 -7.80798,-10.11697 0.32816,-0.32817 1.56582,1.04591 2.75033,3.05351 2.34083,3.96741 8.52357,8.41931 11.69262,8.41931 3.81057,0 28.175,-8.63366 37.29781,-13.21667 6.87054,-3.45154 9.05119,-5.00133 8.61961,-6.12599 -0.31776,-0.82806 -0.57773,-1.69094 -0.57773,-1.91753 0,-0.22659 -0.66494,-0.41199 -1.47765,-0.41199 -1.06719,0 -1.47765,-1.09455 -1.47765,-3.94039 0,-2.16721 -0.44329,-3.94039 -0.98509,-3.94039 -0.54181,0 -0.9851,1.77318 -0.9851,3.94039 0,2.84584 -0.41046,3.94039 -1.47765,3.94039 -0.8127,0 -1.47765,-0.44329 -1.47765,-0.98509 0,-0.5418 0.36498,-0.9851 0.81106,-0.9851 1.47945,0 1.19054,-10.950765 -0.34684,-13.14567 -1.64063,-2.342338 -1.96067,-7.541398 -0.46422,-7.541398 0.54181,0 0.9851,0.719216 0.9851,1.598269 0,1.225361 0.30844,1.342273 1.32201,0.501092 1.94525,-1.614419 2.42462,-0.557184 1.89157,4.171947 -0.46608,4.135108 -0.37067,4.299216 4.55832,7.840347 l 5.03438,3.616843 v -4.865721 c 0,-2.676139 0.40128,-5.113718 0.89172,-5.416828 0.51524,-0.318433 0.67097,1.883528 0.36883,5.21541 -0.52257,5.763119 -0.52064,5.768209 3.27538,8.620039 6.75527,5.07501 7.57902,5.74343 12.64056,10.25699 2.74352,2.44651 7.2047,5.95014 9.91372,7.78587 2.70902,1.83572 7.03114,5.06914 9.60471,7.18537 3.25061,2.67294 4.67922,3.37863 4.67922,2.31139 0,-0.84496 0.49499,-1.53629 1.09999,-1.53629 0.60813,0 0.87385,0.86478 0.59425,1.93398 -0.27816,1.06368 0.1413,2.47098 0.93215,3.12732 1.21919,1.01185 1.33689,0.79093 0.77382,-1.45256 -0.54531,-2.17263 -0.38019,-2.53696 0.92314,-2.03684 0.87298,0.33501 1.58724,1.11997 1.58724,1.74437 0,0.62442 0.88659,1.68898 1.9702,2.36571 2.89267,1.80651 2.45101,3.33838 -0.73883,2.56263 -2.58437,-0.62851 -2.63525,-0.57273 -1.1056,1.21259 0.88187,1.02929 1.90266,4.08791 2.26838,6.79693 0.36573,2.70901 1.32898,6.99141 2.14055,9.51642 1.31747,4.09901 1.31191,5.22257 -0.0519,10.48573 -0.84012,3.24214 -1.49377,6.93904 -1.45255,8.21534 0.0635,1.96808 0.28992,1.79685 1.49029,-1.12729 l 1.41537,-3.44784 -0.51846,3.44784 c -0.28516,1.89632 -1.17743,3.94002 -1.98283,4.54154 -0.80541,0.60155 -1.47779,2.37472 -1.49419,3.9404 -0.062,5.91577 -4.64047,20.11601 -7.27242,22.55523 -1.40182,1.29916 -2.54876,2.90384 -2.54876,3.56597 0,0.66211 1.08568,0.1839 2.41263,-1.0627 1.3752,-1.29194 3.06287,-2.01702 3.92482,-1.68625 0.83173,0.31916 2.77079,-0.14203 4.30903,-1.02486 2.3772,-1.36432 3.03792,-2.72595 4.40371,-9.07528 0.88379,-4.10857 1.84015,-9.24329 2.12526,-11.41051 0.88976,-6.76368 4.31705,-21.4699 6.08381,-26.10511 0.9293,-2.43812 2.04592,-6.87107 2.48133,-9.85099 0.43544,-2.97992 1.08166,-7.12418 1.43607,-9.20948 0.60974,-3.58762 0.35706,-4.09067 -4.70072,-9.35843 -15.01141,-15.63464 -21.067,-24.15304 -21.73766,-30.57843 -0.38229,-3.662393 1.94655,-3.589722 2.74006,0.0855 1.04262,4.82911 3.87321,9.92593 8.18315,14.73478 19.5577,21.82165 19.13816,21.24868 18.45953,25.21024 -0.3484,2.03378 -1.0137,6.13589 -1.47846,9.11581 -0.46476,2.97992 -2.20336,9.18605 -3.86355,13.79138 -3.56339,9.88474 -4.8803,16.74668 -3.21398,16.74668 0.71856,0 0.91536,0.98603 0.54067,2.70902 l -0.5891,2.70902 2.03171,-2.46275 c 1.11744,-1.35451 2.29054,-3.23851 2.6069,-4.18667 0.31638,-0.94815 1.25772,-1.72392 2.09188,-1.72392 1.05806,0 1.30207,0.52126 0.80695,1.72392 -2.17224,5.2765 -2.02863,5.50361 2.08422,3.29588 2.10801,-1.13157 5.82757,-3.78417 8.26568,-5.89469 2.43812,-2.1105 5.54118,-4.16367 6.89569,-4.56259 l 2.46275,-0.72529 -2.62553,2.46442 c -3.27103,3.07031 -7.04877,10.32021 -6.34002,12.16719 1.05448,2.74795 2.4543,1.27271 4.06326,-4.28217 1.84296,-6.36271 2.97068,-8.12706 5.19462,-8.12706 1.25562,0 1.17966,0.39599 -0.42517,2.21647 -2.08233,2.36214 -4.63446,7.63451 -3.69554,7.63451 0.30928,0 1.69733,-0.89279 3.08456,-1.98398 3.95726,-3.11279 3.58592,-1.71004 -0.80698,3.04832 -2.2076,2.39126 -4.25974,5.57736 -4.56032,7.08024 -0.30058,1.50287 -0.97994,3.00038 -1.5097,3.32779 -0.60397,0.37328 -0.70092,-0.59883 -0.25997,-2.60648 0.52375,-2.3846 0.39927,-3.01392 -0.48772,-2.46573 -1.86435,1.15223 -3.90055,6.85671 -3.28615,9.2062 0.35921,1.37358 0.10204,2.12542 -0.72697,2.12542 -0.70552,0 -2.29518,0.95112 -3.53259,2.11359 l -2.24983,2.1136 -1.17321,-2.85242 c -0.64527,-1.56883 -1.0827,-3.40654 -0.97205,-4.0838 0.11063,-0.67725 -0.48322,-1.23137 -1.31968,-1.23137 -2.18716,0 -1.87865,-1.2906 0.94192,-3.9404 1.35451,-1.27249 2.46275,-2.79466 2.46275,-3.3826 0,-1.54774 3.62089,-3.57385 5.26169,-2.94422 0.92712,0.35577 1.77266,-0.53441 2.50613,-2.63846 1.32169,-3.79138 0.76069,-4.85142 -1.04085,-1.96672 -0.70967,1.13637 -1.65314,2.06612 -2.09658,2.06612 -0.44345,0 -0.50497,-0.48752 -0.13671,-1.08338 1.01877,-1.64839 -2.69345,0.52008 -4.71574,2.75468 -0.92271,1.01958 -3.28965,4.93947 -5.25986,8.71085 -1.97021,3.77139 -4.92232,9.42506 -6.56025,12.56371 -1.63792,3.13866 -2.75499,5.9297 -2.48239,6.2023 0.92725,0.92723 6.84374,-7.50418 6.28591,-8.95785 -0.62573,-1.63065 2.85439,-3.99779 3.74912,-2.5501 0.83757,1.35522 -0.43391,4.2096 -3.21758,7.22325 -3.06447,3.31765 -2.37487,4.45197 1.06269,1.74799 2.80957,-2.21 3.68912,-2.45111 3.68912,-1.01124 0,1.0509 -6.72205,5.663 -11.0222,7.56247 -3.16113,1.39635 -5.21326,-0.23756 -4.06756,-3.23859 0.54282,-1.42186 -0.0703,-1.19732 -2.65465,0.9724 -4.79402,4.02473 -4.81294,1.54104 -0.0258,-3.39175 2.21298,-2.28032 3.82302,-4.34658 3.57789,-4.5917 -0.81167,-0.81169 -9.34697,5.65118 -11.92206,9.02728 -1.80156,2.36198 -3.08779,3.1729 -4.46248,2.8134 -1.06228,-0.27778 -1.93139,-1.0768 -1.93139,-1.77559 0,-0.78554 -0.75208,-1.07385 -1.9702,-0.75531 -1.62744,0.42558 -1.97564,0.0239 -2.00152,-2.3087 -0.0284,-2.55838 -0.15439,-2.66181 -1.33998,-1.09999 -1.75257,2.30873 -3.55418,2.18389 -3.55418,-0.24627 0,-1.08361 0.65354,-1.9702 1.45235,-1.9702 2.11252,0 4.49037,-5.2442 5.04903,-11.13532 0.47079,-4.96451 0.43588,-5.052 -1.15794,-2.90234 -0.90384,1.21906 -2.14341,2.2186 -2.75458,2.22119 -2.51309,0.0106 -11.62726,10.46475 -12.87843,14.77176 -0.48408,1.66645 0.44987,0.87015 2.88849,-2.46274 1.98213,-2.70902 3.98172,-5.58674 4.4435,-6.39493 0.46178,-0.8082 1.1265,-1.18254 1.47715,-0.8319 0.35065,0.35066 -0.53687,2.49795 -1.97228,4.77178 -1.43541,2.27382 -2.75791,4.86465 -2.93893,5.75739 -1.11231,5.48596 -4.44445,10.06999 -4.44445,6.11424 0,-3.02549 -1.63064,-2.44949 -2.83344,1.00084 -0.58079,1.66605 -1.50123,2.75401 -2.04543,2.41767 -0.62567,-0.38669 -0.2934,-2.44334 0.90379,-5.59408 1.87636,-4.93818 1.87612,-4.96709 -0.0272,-3.24463 -3.27314,2.96214 -3.32522,0.69589 -0.0692,-3.01247 3.24855,-3.69989 4.09906,-5.51342 1.62129,-3.45707 -0.8058,0.66877 -2.1074,0.96945 -2.89242,0.66821 -0.78502,-0.30124 -2.52294,0.31411 -3.86205,1.36745 -1.33909,1.05332 -2.91891,1.91515 -3.51071,1.91515 -2.10209,0 -1.02795,-1.8392 2.26142,-3.87215 4.82352,-2.9811 15.72967,-11.81645 16.70112,-13.53 1.92482,-3.39518 -0.62226,-2.18484 -5.79006,2.75135 -3.04737,2.9108 -6.20329,5.66547 -7.01316,6.12148 -3.10009,1.74558 -2.13612,-0.18518 2.17744,-4.3613 4.77049,-4.61847 8.78257,-11.17494 7.80558,-12.75573 -0.32337,-0.52322 -0.1604,-0.95131 0.36214,-0.95131 0.52253,0 2.27894,-3.65718 3.90312,-8.12707 1.62417,-4.46988 4.32585,-11.08017 6.00374,-14.68953 1.67793,-3.60936 3.05075,-6.91439 3.05075,-7.34449 0,-1.60234 7.23824,-16.13854 8.03613,-16.13854 1.43692,0 0.9032,3.03937 -1.0112,5.75852 -1.01253,1.43815 -2.1752,3.72305 -2.58373,5.07756 -0.40852,1.35451 -2.29023,6.0091 -4.18155,10.34353 -8.7775,20.11566 -9.1122,21.17963 -6.66284,21.17963 0.81271,0 1.47765,-0.67592 1.47765,-1.50203 0,-1.24214 3.5643,-3.42347 5.59398,-3.42347 0.58016,0 -0.0434,4.02091 -1.18383,7.63451 -1.1042,3.49863 1.29429,2.6785 3.60116,-1.23137 1.11886,-1.89631 2.82331,-3.44784 3.78767,-3.44784 0.98264,0 2.24913,-1.19082 2.88118,-2.70903 0.62029,-1.48995 2.26825,-3.24155 3.66211,-3.89242 2.4432,-1.14087 2.51069,-1.08774 1.87729,1.47764 -0.4096,1.65901 -0.31213,2.29011 0.25884,1.67596 0.50372,-0.5418 1.42748,-4.20874 2.05283,-8.14876 0.93364,-5.88254 0.88141,-7.99657 -0.29202,-11.82118 -0.78594,-2.56163 -1.70331,-6.74857 -2.03861,-9.30431 -0.54073,-4.12162 -1.286,-5.25887 -6.59437,-10.06267 -3.82824,-3.46436 -6.7367,-5.33961 -8.07158,-5.2042 -1.35231,0.13718 -2.0258,-0.3084 -1.91349,-1.26596 0.1852,-1.57899 -8.36049,-8.3953 -9.32105,-7.43476 -0.31455,0.31455 -0.10878,1.03503 0.45727,1.60108 0.6662,0.6662 0.8576,5.95853 0.54269,15.00633 -0.38594,11.08902 -0.88585,14.83548 -2.41926,18.13098 -2.32416,4.99495 -1.85975,7.92461 0.49758,3.13887 0.9082,-1.84376 1.66814,-2.68735 1.68877,-1.87464 0.0333,1.31346 0.14362,1.31346 0.99245,0 0.52521,-0.81271 0.95492,-2.14259 0.95492,-2.9553 0,-1.31346 -0.10609,-1.31346 -0.95492,0 -0.81609,1.2628 -0.95713,1.22699 -0.97002,-0.24627 -0.008,-0.94816 0.64986,-1.72393 1.46256,-1.72393 1.72089,0 1.83328,-0.90657 0.53556,-4.31982 -0.55936,-1.47126 -0.60322,-4.19862 -0.10793,-6.71354 0.5641,-2.86439 0.88931,-3.43835 1.00453,-1.77291 l 0.17037,2.46274 0.94383,-2.35949 c 0.5191,-1.29772 1.16176,-2.14155 1.42813,-1.87517 0.26638,0.26637 -0.18643,2.08967 -1.00626,4.05177 -2.15929,5.16791 -1.71375,7.85924 0.51952,3.13818 1.6498,-3.48761 1.80205,-3.6008 1.32491,-0.98509 -0.37899,2.07769 -0.25468,2.55068 0.41863,1.59276 1.63756,-2.32976 2.47748,4.27666 1.04675,8.23326 -0.69068,1.91005 -1.58286,3.47281 -1.98263,3.47281 -0.39977,0 -1.06229,2.10564 -1.47228,4.67921 -0.69305,4.35042 -0.78723,4.47156 -1.34015,1.72393 -0.52065,-2.58724 -0.68868,-2.28285 -1.34927,2.44425 -0.415,2.96975 -1.27979,5.72363 -1.92177,6.11973 -0.64197,0.3961 -1.69272,2.62088 -2.335,4.94398 l -1.16775,4.22381 0.45012,-5.41804 c 0.52756,-6.35011 -0.98388,-4.03828 -2.06254,3.15477 -0.76201,5.08148 -1.77465,7.08895 -3.31415,6.57 -0.76145,-0.25666 -0.69923,-1.11251 0.20785,-2.85879 1.49649,-2.88104 3.98317,-14.69837 3.24768,-15.43384 -0.27254,-0.27256 -2.23335,4.95071 -4.35735,11.60726 -2.124,6.65655 -4.49979,12.353 -5.27952,12.65877 -3.09702,1.2145 -15.61698,13.19693 -15.61698,14.94648 0,0.70879 1.884,-0.51011 4.18667,-2.70866 5.01505,-4.78832 11.57491,-9.73724 11.57491,-8.73241 0,1.24471 -16.01056,16.22236 -16.81179,15.72718 -0.90416,-0.55881 -4.52429,3.83256 -5.37871,6.52461 -0.32974,1.03893 -1.25966,1.88897 -2.06649,1.88897 -1.23726,0 -1.19361,-0.46275 0.27877,-2.9553 0.96016,-1.62541 2.09346,-2.9553 2.51845,-2.9553 0.42498,0 0.7727,-0.66494 0.7727,-1.47764 0,-0.81271 0.33482,-1.47765 0.74406,-1.47765 0.40923,0 1.25341,-1.66236 1.87598,-3.69412 1.05784,-3.45236 1.03352,-3.54907 -0.37166,-1.47765 -1.7062,2.51516 -3.74736,3.00634 -2.8576,0.68766 0.32266,-0.84084 0.20616,-1.29365 -0.25889,-1.00623 -0.46505,0.28741 -1.3913,1.97279 -2.05833,3.74527 -0.66703,1.77249 -1.57115,4.1093 -2.00914,5.19292 -0.43799,1.0836 -1.13075,2.85678 -1.53947,3.94039 -0.55644,1.47525 -0.92502,0.65479 -1.46723,-3.26601 -0.9558,-6.91165 -1.50806,-7.19926 -2.3039,-1.19984 -0.36178,2.72711 -1.08579,4.95839 -1.60893,4.95839 -1.26721,0 -1.20552,-5.61271 0.13013,-11.84066 1.19234,-5.55965 0.99479,-6.24792 -1.51668,-5.28419 -1.32593,0.50881 -1.5683,1.36847 -1.09586,3.88677 0.34452,1.8365 0.16795,3.50456 -0.40874,3.86097 -0.55841,0.34513 -1.01532,2.12671 -1.01532,3.95907 0,3.47632 -1.38379,5.34247 -2.3786,3.20771 -0.39977,-0.85786 -0.7387,-0.9026 -1.10476,-0.14584 -1.33449,2.75877 -3.32249,4.74457 -4.03576,4.03129 -0.43149,-0.43148 -0.35691,-1.34981 0.16573,-2.04072 4.90688,-6.48672 7.22321,-10.91801 6.293,-12.03885 -0.7136,-0.85984 -0.68867,-2.49016 0.0819,-5.35156 0.60943,-2.26326 0.86771,-4.35538 0.57394,-4.64913 -0.59956,-0.59957 -1.20862,0.7903 -2.9897,6.82242 -1.5012,5.08426 -4.12704,6.64364 -3.17546,1.88579 0.4794,-2.397 0.2412,-3.27198 -1.02278,-3.75701 -0.91953,-0.35285 -1.82154,-0.11084 -2.04103,0.54763 -0.21631,0.64896 -1.05033,1.83695 -1.85335,2.63998 -0.80303,0.80303 -1.09592,1.4748 -0.65088,1.49283 0.44506,0.018 -0.17661,0.85544 -1.38146,1.86092 -3.09955,2.58664 -9.38264,10.99629 -8.71469,11.66425 0.30693,0.30693 2.31433,-1.28816 4.46087,-3.54464 4.192,-4.40671 4.96682,-4.8409 4.96682,-2.7833 0,0.72567 -1.7001,2.89241 -3.778,4.81495 -3.15968,2.92344 -4.44943,3.47333 -7.88031,3.35981 -3.68285,-0.12186 -4.10229,-0.38754 -4.10228,-2.59849 0,-1.35451 0.90734,-4.84996 2.0163,-7.76768 1.10896,-2.91771 1.85167,-6.02077 1.65048,-6.89568 -0.20118,-0.87492 -1.66285,2.50304 -3.24815,7.50659 -1.5853,5.00353 -3.21483,9.104 -3.62118,9.11216 -1.06125,0.0213 -0.91035,-2.376 0.35158,-5.58538 0.59972,-1.52523 1.47646,-4.10303 1.94833,-5.72844 l 0.85792,-2.9553 -1.90208,2.46275 c -1.04614,1.35451 -2.65516,4.1251 -3.57559,6.15686 -0.92043,2.03177 -2.29878,3.69412 -3.06302,3.69412 -1.02478,0 -0.68956,-1.28604 1.27704,-4.89933 2.22322,-4.0848 2.45572,-5.15338 1.39845,-6.42732 -1.11696,-1.34585 -1.45684,-1.35543 -2.85136,-0.0805 -8.29035,7.57969 -10.73257,9.30715 -12.5034,8.84406 -1.25213,-0.32743 -2.76056,0.37983 -4.29608,2.01432 -1.30152,1.38541 -2.93206,2.51893 -3.62339,2.51893 -0.69135,0 -1.66743,0.73343 -2.16909,1.62984 -1.25486,2.24232 -4.5746,0.96816 -3.62644,-1.39187 1.97756,-4.92226 1.96952,-4.76472 0.16833,-3.29916 -3.21276,2.61411 -2.76037,0.2632 0.68273,-3.5479 2.09812,-2.32235 3.16707,-4.30181 2.71665,-5.0306 -0.51185,-0.82819 -1.93205,0.10491 -4.57001,3.00258 -3.14715,3.45697 -3.89452,3.88372 -4.20519,2.4011 -0.22379,-1.0681 1.26404,-3.75016 3.65007,-6.57986 2.21532,-2.62725 4.02787,-5.4167 4.02787,-6.19878 0,-2.2995 4.22076,-11.14717 4.67481,-9.79948 0.22817,0.67725 1.07273,1.23137 1.8768,1.23137 1.80978,0 0.98449,3.1572 -1.89271,7.24065 -1.85046,2.62628 -1.86217,2.78534 -0.18113,2.4616 1.02124,-0.19667 3.10082,-2.86476 4.81657,-6.17965 1.66066,-3.20846 3.61655,-6.02982 4.34642,-6.2697 1.06703,-0.3507 1.10276,-0.0171 0.18239,1.70264 -1.76856,3.30458 -0.59679,4.79277 1.38828,1.76316 2.02491,-3.09039 4.10745,-3.68425 2.52034,-0.7187 -1.20719,2.25566 -1.05146,2.3212 2.39861,1.00949 1.6882,-0.64186 2.5281,-1.70447 2.53057,-3.20158 0.004,-2.64834 3.44849,-8.64399 4.96547,-8.64399 0.58173,0 0.81245,0.39685 0.51268,0.88188 -0.29977,0.48502 0.1244,1.13875 0.94259,1.45273 1.14395,0.43897 1.34045,1.49118 0.85058,4.5547 -0.56697,3.54555 -0.44409,3.90979 1.11691,3.31079 1.51811,-0.58256 1.65797,-0.2906 1.0401,2.17118 -0.70231,2.79823 -0.68179,2.81523 1.26812,1.05057 1.09011,-0.98652 2.39398,-1.53905 2.89751,-1.22785 0.50353,0.3112 1.72297,-0.3264 2.70986,-1.41689 1.47325,-1.62793 9.39128,-5.85162 10.96985,-5.85162 0.23608,0 0.35033,0.77577 0.25388,1.72393 -0.49589,4.87504 -0.007,5.89484 2.58823,5.39873 1.87553,-0.35853 3.19276,-1.8226 5.05378,-5.61714 2.3805,-4.85375 5.72485,-8.22052 6.94939,-6.99597 0.30615,0.30615 0.11007,1.55592 -0.43573,2.77727 -1.2118,2.71167 -0.49799,10.50046 0.77778,8.48687 0.67584,-1.06668 0.85255,-1.0099 0.86457,0.27778 0.008,0.8902 0.64232,1.85923 1.40896,2.15342 1.0387,0.39858 1.56429,-0.70414 2.06263,-4.32756 0.74826,-5.44044 2.45408,-6.60304 2.45408,-1.67256 v 3.18987 l 2.62007,-3.68241 c 1.44104,-2.02534 2.99257,-3.68242 3.44785,-3.68242 1.19542,0 1.06063,0.47782 -1.23001,4.36016 -1.13179,1.91822 -1.89938,3.96287 -1.70578,4.54368 0.1936,0.5808 2.33866,-2.28052 4.7668,-6.3585 4.30411,-7.22862 6.71086,-9.6311 5.34865,-5.33919 -0.81343,2.56291 -7.00943,11.56094 -9.38551,13.62993 -1.65245,1.43887 -3.63717,7.88079 -2.42804,7.88079 0.33302,0 1.70035,-0.71738 3.03851,-1.59418 1.9596,-1.28398 2.71956,-1.35635 3.90573,-0.37193 1.14494,0.95023 1.78854,0.96013 2.89181,0.0446 1.70846,-1.41789 0.85618,-4.31684 -1.05366,-3.58397 -2.17254,0.83368 -1.61234,-2.62982 1.48448,-9.17804 3.4392,-7.27227 7.59589,-12.89914 9.52882,-12.89914 0.78513,0 1.42752,0.44329 1.42752,0.9851 0,0.5418 0.66494,0.9851 1.47765,0.9851 0.8127,0 1.47764,0.66494 1.47764,1.47764 0,3.17369 2.70618,1.25427 3.81944,-2.70902 3.32819,-11.84853 5.38332,-18.40347 7.02639,-22.41099 1.88241,-4.59127 2.39163,-11.89628 1.38671,-19.89316 -0.4919,-3.91443 -1.47204,-5.57756 -6.38608,-10.83609 -3.19274,-3.41656 -5.81432,-6.52913 -5.82573,-6.9168 -0.0115,-0.38768 -1.36949,-2.08464 -3.018,-3.77103 -2.07022,-2.11779 -2.81141,-3.65176 -2.39636,-4.95945 0.87401,-2.75378 -0.26939,-2.34621 -4.73422,1.68749 -7.52941,6.80237 -34.77641,17.28037 -53.40953,20.53896 -2.40926,0.42133 -7.93632,3.33887 -14.23238,7.51277 -5.6614,3.75316 -11.93637,7.31615 -13.94438,7.91776 l -3.65091,1.09385 -1.13315,9.96972 c -0.62323,5.48334 -2.18864,14.62431 -3.47868,20.31325 -1.29003,5.68894 -2.64828,12.33836 -3.01834,14.77648 l -0.67281,4.43294 2.57909,-2.75977 2.57909,-2.75978 v 4.03846 c 0,2.921 -0.92153,5.45647 -3.33032,9.16292 -3.94132,6.06461 -12.43125,14.5721 -12.43125,12.45697 0,-0.79807 2.05615,-3.4393 4.56922,-5.86942 5.226,-5.05349 9.54152,-11.40695 8.90502,-13.1103 -0.23821,-0.63749 -0.89593,7.3e-4 -1.46158,1.41927 -1.35374,3.39386 -6.10207,8.5428 -6.10207,6.61691 0,-0.78978 0.8454,-4.73334 1.87869,-8.76345 1.03328,-4.03013 2.41522,-10.65221 3.07099,-14.71574 0.65578,-4.06353 1.60907,-8.18257 2.11844,-9.1534 1.33331,-2.54124 1.21153,-11.34374 -0.18014,-13.02061 -1.25206,-1.50864 -4.33413,-1.47077 -5.85241,0.0719 -1.01606,1.0324 -4.99264,14.82638 -4.94601,17.15681 0.0461,2.30564 1.54118,-0.64918 2.42904,-4.80073 0.84885,-3.96919 3.40885,-10.32706 3.94308,-9.79283 0.20684,0.20683 -0.46191,2.91613 -1.48609,6.02064 -2.60686,7.90189 -4.05575,16.42532 -3.08654,18.15721 1.32565,2.36881 -2.9365,20.13629 -5.42369,22.60949 -1.16412,1.15759 -2.68253,3.6698 -3.37424,5.58269 -1.46651,4.05555 -4.87844,5.68287 -4.80947,2.29386 0.0237,-1.16834 0.66876,-3.88045 1.43328,-6.02692 1.47909,-4.15276 1.20539,-5.5764 -0.70486,-3.66616 -1.67049,1.6705 -15.15056,1.60652 -13.83699,-0.0657 0.53201,-0.67726 1.78378,-3.41306 2.78173,-6.07955 1.57355,-4.20451 6.2191,-10.42083 7.78767,-10.42083 0.28915,0 0.52574,2.63361 0.52574,5.85246 0,3.21885 0.41485,6.10884 0.92188,6.42221 1.02954,0.63628 2.16707,-6.23635 1.7871,-10.79702 -0.13543,-1.62541 0.19706,-3.04797 0.73886,-3.16123 0.54181,-0.11327 0.94991,0.66249 0.90689,1.72392 -0.0978,2.414 0.14862,2.40492 3.36356,-0.12396 l 2.61101,-2.05381 0.63175,3.08891 c 1.81378,8.8684 2.25454,1.03761 0.99615,-17.69815 l -0.62856,-9.35843 -3.86981,5.91059 c -2.12838,3.25082 -5.81925,9.67859 -8.20192,14.28392 -2.38266,4.60534 -5.0742,9.19473 -5.98118,10.19864 -2.61849,2.89833 -7.03705,14.80627 -5.78471,15.58966 0.75977,0.47526 0.72885,1.41335 -0.10704,3.24792 -2.00573,4.4021 -1.30823,4.97241 2.07311,1.69508 5.13857,-4.98049 5.2287,-3.66828 0.15588,2.26951 -4.20532,4.92237 -7.34474,6.85209 -7.34474,4.51461 0,-0.49689 0.88659,-2.97176 1.97019,-5.49972 1.08361,-2.52796 1.9702,-4.84096 1.9702,-5.14 0,-0.29906 -0.88659,0.58339 -1.9702,1.96097 -1.0836,1.37757 -1.9724,3.09971 -1.97509,3.82697 -0.003,0.72724 -1.09499,2.65215 -2.42731,4.27756 -1.93054,2.35521 -2.42963,2.5921 -2.45786,1.16661 z m 56.73235,-8.82912 c 1.59493,-1.3547 2.62312,-1.53881 4.53468,-0.81204 2.15425,0.81904 2.94387,0.45674 6.14163,-2.81806 2.34298,-2.39944 3.51381,-4.42065 3.23877,-5.59111 -0.36103,-1.53635 -0.61142,-1.39455 -1.54654,0.87587 -1.31122,3.1836 -3.59629,3.74502 -2.6113,0.64157 0.55847,-1.75957 0.34831,-1.96973 -1.41127,-1.41126 -2.30108,0.73034 -2.53603,-0.086 -1.10673,-3.8454 1.10022,-2.89378 0.38979,-3.16575 -2.67046,-1.02227 -1.30146,0.91158 -1.9182,2.10377 -1.56477,3.02479 0.36427,0.94928 -0.85359,3.05702 -3.24283,5.61235 -2.1044,2.25067 -2.82605,3.25647 -1.60368,2.2351 3.54156,-2.95918 3.86798,-0.85069 0.41918,2.70757 -1.72383,1.77853 -3.12014,3.65589 -3.10291,4.17191 0.0172,0.516 0.5786,0.27325 1.24748,-0.53945 0.66888,-0.81271 2.14431,-2.26601 3.27875,-3.22957 z m 36.7796,-3.91239 c 0.0652,-1.30263 -1.59629,-0.79485 -4.26311,1.30287 -1.66092,1.30647 -2.59031,2.99147 -2.58094,4.67921 0.0145,2.61104 0.0488,2.59794 3.41086,-1.30287 1.86791,-2.16721 3.41284,-4.27286 3.43319,-4.67921 z m -63.59246,-1.23138 c 0.88752,-1.35451 1.23129,-2.46274 0.76397,-2.46274 -0.46733,0 -1.35462,1.10823 -1.97179,2.46274 -0.61715,1.35451 -0.96093,2.46274 -0.76396,2.46274 0.19697,0 1.08427,-1.10823 1.97178,-2.46274 z m 61.41728,-2.88886 c -1.55017,-1.67763 -2.71333,-1.03288 -2.71333,1.50401 0,1.64288 0.30818,1.78178 1.9745,0.88999 1.60324,-0.85802 1.74217,-1.30817 0.73883,-2.394 z m 87.84592,-4.00683 c 0,-0.54181 -0.63353,0.12314 -1.40783,1.47765 -0.77431,1.35451 -1.40784,2.90604 -1.40784,3.44784 0,0.54181 0.63353,-0.12313 1.40784,-1.47765 0.7743,-1.35451 1.40783,-2.90604 1.40783,-3.44784 z m -161.12447,-0.16096 c 0.80054,-5.84064 0.17272,-6.47325 -1.78181,-1.79541 -1.89002,4.52346 -1.94597,6.38932 -0.19161,6.38932 0.85283,0 1.5738,-1.67836 1.97342,-4.59391 z m 3.57852,1.14606 c 0,-1.89632 -0.44329,-3.44785 -0.9851,-3.44785 -0.5418,0 -0.98509,1.55153 -0.98509,3.44785 0,1.89632 0.44329,3.44785 0.98509,3.44785 0.54181,0 0.9851,-1.55153 0.9851,-3.44785 z m 101.36695,-4.84341 c 0.15736,-4.60406 -0.91993,-2.27712 -1.38529,2.99226 -0.31383,3.55343 -0.20138,4.16441 0.43131,2.3437 0.47069,-1.35451 0.89998,-3.75569 0.95398,-5.33596 z m -88.56066,1.66579 c 0,-4.36016 -0.51629,-3.96354 -1.27987,0.98322 -0.34203,2.21582 -0.19947,3.48495 0.35312,3.14343 0.50971,-0.31501 0.92675,-2.17201 0.92675,-4.12665 z m 51.15233,1.29513 c 0.63446,-0.76448 0.77746,-1.6224 0.31779,-1.90649 -0.45967,-0.28409 -1.37155,0.34139 -2.02638,1.38995 -1.36835,2.19109 -0.0196,2.59884 1.70859,0.51654 z m 9.40583,-6.9834 2.69928,-4.92549 -3.55342,3.67965 c -1.95437,2.02382 -3.55341,4.66142 -3.55341,5.86133 0,2.71633 0.91416,1.75903 4.40755,-4.61549 z m 106.9457,1.85773 c 1.22102,-3.69974 0.71493,-7.07073 -0.58599,-3.90318 -0.42805,1.04222 -1.5879,2.70457 -2.57745,3.69412 -2.42501,2.42501 -2.35242,4.7147 0.12891,4.06582 1.09333,-0.28591 2.40711,-1.95567 3.03453,-3.85676 z m -133.02542,2.08266 c 0.70686,-0.8517 0.8026,-1.47764 0.22601,-1.47764 -0.55018,0 -1.25548,0.66494 -1.56735,1.47764 -0.31186,0.81271 -0.41357,1.47765 -0.22601,1.47765 0.18755,0 0.89286,-0.66494 1.56735,-1.47765 z m 116.58702,-0.72183 c 0.31634,-1.20972 0.21627,-2.55838 -0.22239,-2.99704 -1.14455,-1.14455 -3.40787,1.93171 -2.72688,3.70634 0.83354,2.17215 2.28717,1.82255 2.94927,-0.7093 z m -16.67508,-2.67133 c 1.72889,-1.44794 4.69416,-6.95037 3.74557,-6.95037 -0.48089,0 -1.46745,1.10823 -2.19236,2.46275 -0.72492,1.35451 -1.90107,2.46274 -2.61366,2.46274 -0.71261,0 -2.74336,1.34712 -4.51276,2.99362 l -3.21712,2.99361 3.86484,-1.53703 c 2.12567,-0.84536 4.34214,-1.93677 4.92549,-2.42532 z m -27.53237,-7.50211 c 1.75541,-6.03842 1.85366,-7.08883 0.54017,-5.77534 -1.05495,1.05495 -4.9669,11.89441 -4.91661,13.62326 0.0655,2.25228 2.93731,-2.8975 4.37644,-7.84792 z m -31.21451,4.35747 c -0.24593,-0.73779 -0.69246,-0.29125 -1.0408,1.0408 -0.42849,1.63856 -0.30029,2.02317 0.43072,1.29216 0.57244,-0.57244 0.84698,-1.62228 0.61008,-2.33296 z m 70.55347,-5.28338 c 0.54227,-2.21929 0.44036,-2.67862 -0.40926,-1.84435 -1.37111,1.34631 -2.95802,7.90953 -2.11602,8.75154 0.57847,0.57848 0.93332,-0.39212 2.52528,-6.90719 z m 34.51242,4.49502 c 2.34021,-2.58591 1.00752,-4.72302 -1.51927,-2.43632 -1.91305,1.73131 -2.5386,4.34444 -1.03997,4.34444 0.45783,0 1.60949,-0.85865 2.55924,-1.90812 z m -70.39345,-2.82924 c -0.013,-1.43555 -0.14706,-1.46155 -0.97001,-0.18813 -1.24674,1.92919 -1.24674,3.23327 0,2.46275 0.5418,-0.33486 0.97831,-1.35843 0.97001,-2.27462 z m 38.63642,-1.12121 c 0.23436,-1.59679 0.063,-2.67886 -0.38073,-2.4046 -0.78982,0.48812 -1.17674,5.30788 -0.42612,5.30788 0.20941,0 0.57249,-1.30647 0.80685,-2.90328 z m -33.69584,-0.60271 c 0,-0.84468 -0.44329,-1.26181 -0.9851,-0.92695 -0.54181,0.33485 -0.9851,1.02596 -0.9851,1.53578 0,0.50983 0.44329,0.92696 0.9851,0.92696 0.54181,0 0.9851,-0.6911 0.9851,-1.53579 z m 17.39908,-2.65087 c -0.27328,-0.67726 -0.49687,-0.12314 -0.49687,1.23136 0,1.35452 0.22359,1.90864 0.49687,1.23138 0.27328,-0.67726 0.27328,-1.78549 0,-2.46274 z m 3.65218,0 c 0.32671,-1.21906 0.60006,-2.85925 0.60746,-3.64487 0.0204,-2.1673 -1.60204,0.0175 -2.34088,3.15231 -0.76092,3.2284 0.87564,3.69341 1.73342,0.49256 z m -7.56232,-16.23539 c -0.24976,-0.95847 -0.47054,-0.41279 -0.49061,1.21263 -0.0201,1.62541 0.18427,2.40961 0.45412,1.74267 0.26984,-0.66695 0.28625,-1.99683 0.0366,-2.9553 z m -124.41161,-5.51933 c 0.43985,-1.83098 0.31805,-2.57366 -0.35398,-2.15833 -0.56351,0.34827 -1.02458,1.78918 -1.02458,3.20202 0,3.08787 0.47185,2.73063 1.37856,-1.04369 z m 130.17055,-7.57283 c 0.52065,0.0686 1.0537,-0.67425 1.18455,-1.65103 0.20275,-1.5135 0.0908,-1.48479 -0.75765,0.19424 -0.8089,1.6008 -0.91257,1.32375 -0.55287,-1.47764 l 0.44271,-3.44785 -1.36454,2.95529 c -0.7505,1.62542 -1.35338,3.84189 -1.33973,4.9255 0.0228,1.8124 0.0816,1.82628 0.73285,0.17338 0.38943,-0.98825 1.13404,-1.7406 1.65468,-1.67189 z m -8.32362,-35.74855 c -1.84052,-1.84051 -2.29201,0.068 -0.93065,3.93399 l 1.32408,3.76012 0.32351,-3.32684 c 0.17792,-1.82975 -0.14469,-3.79502 -0.71694,-4.36727 z m -3.95682,-2.97171 c -1.26307,-1.26308 -1.42096,1.45746 -0.30458,5.24778 0.68289,2.31848 0.744,2.26787 1.04341,-0.8641 0.17492,-1.82974 -0.15755,-3.8024 -0.73883,-4.38368 z m -2.0719,0.076 c -0.0254,-2.72057 -0.18584,-2.93359 -1.06754,-1.41782 -0.57067,0.98106 -0.79274,2.42177 -0.49351,3.20157 0.91056,2.37287 1.59264,1.59348 1.56105,-1.78375 z m -3.25803,-3.9404 c -0.27328,-0.67725 -0.49688,-0.12314 -0.49688,1.23137 0,1.35452 0.2236,1.90864 0.49688,1.23138 0.27327,-0.67726 0.27327,-1.7855 0,-2.46275 z m -2.93477,-1.90863 c -0.31447,-0.78584 -0.5479,-0.55242 -0.59516,0.59517 -0.0428,1.03845 0.19005,1.62028 0.51739,1.29294 0.32734,-0.32734 0.36233,-1.17699 0.0777,-1.88811 z m -1.65804,-1.78553 c 0,-0.5418 -0.46945,-0.9851 -1.04324,-0.9851 -0.57378,0 -0.76926,0.4433 -0.4344,0.9851 0.33485,0.54181 0.80431,0.9851 1.04324,0.9851 0.23892,0 0.4344,-0.44329 0.4344,-0.9851 z m -8.31075,-4.5538 c -0.69163,-3.81409 -1.54023,-4.10932 -1.54023,-0.53588 0,1.71572 0.45196,3.11949 1.00437,3.11949 0.55239,0 0.79353,-1.16263 0.53586,-2.58361 z m -82.31831,118.93852 c 0,-1.25858 4.97405,-4.33401 5.74978,-3.55505 0.35935,0.36084 -0.39316,1.50448 -1.67224,2.54146 -2.49748,2.02474 -4.07754,2.41751 -4.07754,1.01359 z M 82.303553,220.39322 c -0.357111,-0.57782 -0.185497,-1.91718 0.381366,-2.97637 0.566862,-1.05919 1.031686,-3.174 1.032949,-4.69958 l 0.0022,-2.77378 -7.39053,0.3241 c -7.0195,0.30783 -8.50309,-0.22632 -6.509216,-2.34355 1.34519,-1.42842 2.492377,-7.71385 1.270011,-6.95838 -0.558055,0.3449 -1.31078,1.97537 -1.672719,3.62327 -0.36194,1.6479 -1.17181,2.82297 -1.799712,2.61126 -0.627903,-0.21171 -1.681661,0.31894 -2.341686,1.1792 -0.975289,1.27116 -1.205911,0.13425 -1.231373,-6.07041 -0.0182,-4.45383 0.379152,-7.63451 0.953841,-7.63451 0.541804,0 0.985098,0.42938 0.985098,0.95418 0,0.5248 0.664942,0.69902 1.477648,0.38715 1.86772,-0.71672 1.95038,1.24633 0.09701,2.30383 -1.337379,0.76309 -1.971879,3.16302 -1.640714,6.20582 0.08845,0.81271 1.440117,-0.99937 3.003704,-4.02683 2.300923,-4.45513 3.277819,-5.46895 5.124384,-5.31809 1.63153,0.13329 2.203612,0.7192 2.008089,2.05663 -0.240182,1.64291 -0.03399,1.59169 1.696399,-0.42137 2.585847,-3.00829 4.363568,-1.83854 3.673012,2.41685 -0.296557,1.82744 -0.197651,3.32261 0.219792,3.32261 0.962385,0 1.289049,-2.18528 1.240981,-8.30185 -0.02682,-3.41368 -0.509944,-5.11806 -1.628147,-5.74384 -3.041435,-1.70207 -3.612191,-5.41876 -1.475357,-9.6073 1.080626,-2.1182 1.964777,-4.53388 1.964777,-5.36817 0,-0.83428 0.443294,-1.51689 0.985096,-1.51689 2.249408,0 0.700213,-3.29202 -3.548697,-7.54094 l -4.533795,-4.5338 -6.056014,0.5143 c -10.001254,0.84932 -18.356889,7.06835 -24.368662,18.13736 -2.481397,4.56881 -9.798729,9.99471 -14.490572,10.74498 -5.189733,0.82986 -5.391241,-0.52014 -0.693327,-4.64495 1.894557,-1.66345 3.223944,-3.38155 2.954196,-3.81802 -0.26975,-0.43646 -2.817253,-1.1022 -5.66112,-1.47944 -6.677694,-0.88578 -10.960233,-2.9147 -12.593413,-5.96632 -1.985991,-3.71085 5.09e-4,-5.18487 4.193945,-3.11199 4.684108,2.31543 14.265569,2.92084 17.962199,1.13495 3.816174,-1.84364 8.651348,-8.59875 8.237944,-11.50904 -0.225235,-1.5856 -1.985977,-3.04697 -6.224667,-5.16631 -5.554749,-2.77738 -6.509081,-2.93936 -15.851589,-2.69061 -8.825314,0.23498 -10.234646,0.0337 -12.5574686,-1.79343 -2.0175216,-1.58698 -2.4057854,-2.45177 -1.6961048,-3.77783 0.8155865,-1.52393 1.790876,-1.62645 8.5667604,-0.90046 9.972311,1.06846 11.371964,0.0333 8.244326,-6.09738 -3.646259,-7.14725 0.870484,-7.2189 7.289888,-0.11564 4.041722,4.47229 4.68326,1.26181 1.466094,-7.33684 -2.273777,-6.07721 -1.636199,-8.33458 1.830081,-6.47948 2.704204,1.44724 4.51201,4.52885 6.986857,11.90988 2.252909,6.71911 7.118172,12.84884 10.198328,12.84884 1.077393,0 1.776953,-0.72333 1.776953,-1.83735 0,-1.01054 0.886589,-2.96446 1.970197,-4.34204 2.822731,-3.58852 2.491829,-4.43854 -2.216472,-5.6937 -5.2342,-1.39535 -6.920459,-2.23887 -7.409677,-3.70653 -0.515839,-1.54752 4.548253,-3.38909 7.371226,-2.68057 3.33269,0.83646 2.649854,-0.5712 -1.894039,-3.90452 -2.215716,-1.62541 -4.677201,-3.94726 -5.469965,-5.15967 -1.282903,-1.96199 -1.265711,-2.27178 0.156355,-2.81747 3.026361,-1.16133 15.253141,6.0205 20.581673,12.08936 1.582007,1.80181 3.75864,3.27602 4.836963,3.27602 1.790583,0 1.900869,-0.43422 1.271866,-5.0076 -0.665326,-4.83751 -0.611058,-4.99645 1.597634,-4.67923 3.313612,0.47593 6.787001,6.16542 6.787001,11.11729 0,2.88491 0.900574,5.51447 3.048653,8.90164 1.676753,2.64396 3.438959,5.83381 3.91601,7.08854 0.477044,1.25473 1.508051,2.28132 2.291116,2.28132 1.920742,0 2.888158,-4.93341 1.620987,-8.26633 -2.693871,-7.0854 -0.596763,-12.44344 8.780954,-22.43506 6.89356,-7.34483 9.08378,-8.11243 10.69785,-3.7492 0.68689,1.85686 0.90917,1.71901 2.45482,-1.52225 1.31295,-2.75329 2.20015,-3.49286 3.90028,-3.25127 1.72272,0.2448 2.26946,1.06161 2.51723,3.76057 0.50999,5.55544 1.80441,5.53453 4.64702,-0.0751 2.11179,-4.16744 2.43008,-5.60071 1.55491,-7.00207 -1.54503,-2.47397 -1.36834,-3.23747 0.40804,-1.7632 1.24707,1.03498 1.7579,0.92787 2.94822,-0.61821 0.7919,-1.02856 1.72416,-2.97833 2.07172,-4.33284 0.34755,-1.35451 1.19185,-3.12769 1.87623,-3.94039 1.76219,-2.092672 12.28246,-24.24989 12.28246,-25.86866 0,-0.738424 0.88658,-2.294232 1.97019,-3.457348 1.08361,-1.163118 1.9702,-2.341982 1.9702,-2.619697 0,-0.87025 6.33005,-9.84113 7.88079,-11.168585 3.62249,-3.100889 13.19438,-7.187242 17.97033,-7.671746 6.84224,-0.694124 10.74452,-2.726195 38.67779,-20.141052 3.04167,-1.896315 6.72299,-4.213858 8.18072,-5.150094 1.45771,-0.936238 4.30989,-2.423927 6.33813,-3.305976 2.02826,-0.88205 3.4719,-1.952961 3.2081,-2.379803 -0.26381,-0.426842 0.51484,-0.771268 1.73031,-0.765391 1.21547,0.0059 7.26213,-1.786988 13.43701,-3.984145 13.63174,-4.850472 15.78809,-5.281651 27.68433,-5.535691 5.14714,-0.1099155 10.32671,-0.7221648 11.51015,-1.3605552 3.58923,-1.9361664 10.23349,-1.315343 18.96388,1.7719422 4.5612,1.612959 8.5472,3.295254 8.85778,3.738433 0.31057,0.44318 4.01314,2.493008 8.22795,4.555173 6.25161,3.058714 8.33024,4.690043 11.28399,8.85579 1.99139,2.808519 5.19234,6.324387 7.1132,7.81304 1.92088,1.488652 4.47496,3.468078 5.67575,4.398725 1.54575,1.198006 2.37384,3.202216 2.83593,6.863854 0.87207,6.910213 -0.63845,6.650973 -3.92558,-0.67372 -1.84696,-4.115567 -3.23838,-5.937636 -4.70169,-6.156866 -1.27903,-0.191621 -4.01586,-3.075406 -7.11594,-7.49805 -4.97325,-7.094928 -5.19407,-7.263341 -17.29809,-13.192653 -15.13422,-7.413694 -19.75295,-8.732579 -26.24332,-7.493835 -2.66227,0.508115 -8.38683,1.097533 -12.72127,1.309818 -17.14793,0.839844 -25.7594,2.898975 -43.86531,10.48884 -2.99556,1.255716 -10.64687,5.60783 -17.00292,9.671361 -30.23194,19.327821 -32.72651,20.687028 -39.07163,21.28874 -3.07015,0.291144 -8.05621,1.770813 -11.37627,3.376035 -6.60194,3.191982 -12.03444,9.581105 -17.13915,20.157209 -1.56905,3.250825 -5.39215,11.230124 -8.49577,17.731774 -3.10361,6.501653 -7.97794,15.810833 -10.83185,20.687073 -2.85392,4.87623 -6.45546,11.11886 -8.00344,13.87251 -1.54798,2.75364 -4.05163,6.74329 -5.56367,8.86589 -6.10404,8.56886 -9.56457,14.23356 -9.56457,15.65668 0,2.5321 -1.70938,1.66433 -2.24544,-1.13989 -0.615,-3.21721 0.96449,-6.98302 3.23053,-7.70224 3.12183,-0.99083 3.89536,-4.69144 2.91949,-13.967 -0.50285,-4.77965 -0.92216,-9.24438 -0.93179,-9.92164 -0.0372,-2.61256 -3.0329,-1.03446 -6.395,3.36874 -1.93184,2.53006 -4.337365,5.17791 -5.345601,5.88411 -4.161197,2.91462 -5.864917,12.93292 -2.853708,16.78049 1.144409,1.46225 -0.93691,8.73979 -2.982041,10.42701 -1.176207,0.97035 -1.563129,0.96795 -1.892859,-0.0118 -0.878698,-2.61074 -2.356198,-1.13666 -1.72791,1.72392 0.357007,1.62541 0.393254,2.9553 0.08055,2.9553 -0.312692,0 -2.790353,-1.59622 -5.5059,-3.54714 -7.184139,-5.16127 -12.50675,-6.49089 -23.142507,-5.78109 l -8.865887,0.59168 -5.178642,-5.09232 c -2.848254,-2.80078 -5.42794,-6.2654 -5.732636,-7.69917 -0.967948,-4.55473 -3.489732,-10.93627 -4.590509,-11.61659 -0.714453,-0.44157 -0.829843,0.12002 -0.35213,1.71373 0.390807,1.30378 0.956644,4.21071 1.257416,6.45983 0.46505,3.47758 0.23275,4.25743 -1.552876,5.21306 -1.839898,0.98469 -2.524275,0.6615 -5.530477,-2.61166 -3.458017,-3.76511 -4.342338,-3.81399 -2.371295,-0.13106 1.488822,2.78189 0.337437,6.46296 -2.302524,7.36136 -1.756093,0.59762 -1.09325,0.90442 3.203859,1.48293 8.546788,1.15062 16.266915,5.10785 18.634479,9.55174 0.998322,1.87383 0.967848,2.60174 -0.164964,3.9404 -0.764217,0.90308 -2.56124,3.69613 -3.99338,6.20677 -2.152955,3.77427 -3.248056,4.69186 -6.323542,5.2985 -4.825399,0.95184 -14.976763,0.58783 -17.229537,-0.61781 -0.967526,-0.51782 -1.75914,-0.64227 -1.75914,-0.27659 0,1.42296 3.590279,3.28394 6.403141,3.31899 3.914198,0.0488 10.111451,1.80866 10.908099,3.09767 0.349665,0.56576 -0.625457,2.34509 -2.166938,3.95404 l -2.802693,2.92539 3.319619,-1.3958 c 2.02592,-0.85183 3.80613,-2.55286 4.568,-4.36482 1.397652,-3.32403 3.739086,-5.40435 2.833922,-2.51788 -0.306156,0.9763 0.58572,0.002 1.981945,-2.16531 1.396227,-2.16721 2.347183,-4.45142 2.113239,-5.07602 -0.233945,-0.62459 0.233595,-1.95447 1.038978,-2.95529 1.34374,-1.66982 1.369256,-1.61687 0.309852,0.64307 -0.831174,1.77307 0.32606,1.0491 4.132325,-2.58518 5.811668,-5.54909 12.137616,-8.25091 19.318429,-8.25091 5.281123,0 7.42107,1.04068 12.812312,6.23076 3.139692,3.02254 4.182896,4.77978 4.171578,7.02691 -0.01751,3.48417 -1.319725,5.96817 -2.686024,5.12376 -0.523147,-0.32333 -1.459303,0.52732 -2.080329,1.89034 -1.752919,3.84722 -1.368856,4.40164 1.792357,2.58735 2.736353,-1.57044 3.026415,-1.5718 4.576955,-0.0213 1.550533,1.55054 1.490245,1.85179 -0.951309,4.75341 -1.433718,1.70388 -2.600705,3.83971 -2.593309,4.7463 0.02586,3.1679 1.231531,6.1587 2.328448,5.77595 0.618491,-0.2158 1.636243,1.61176 2.309083,4.14639 l 1.203138,4.53228 -0.264728,-6.64942 c -0.1456,-3.65717 0.08875,-6.64941 0.520789,-6.64941 0.432028,0 0.837649,-0.77577 0.901373,-1.72392 0.112648,-1.67607 0.644964,0.82246 2.780874,13.05255 0.567734,3.25082 0.97462,8.57036 0.904195,11.82118 l -0.128053,5.91059 -0.876275,-6.89568 c -0.481957,-3.79263 -1.270156,-9.11216 -1.751559,-11.82119 -0.744092,-4.18724 -0.814199,-3.67047 -0.467727,3.44785 0.224159,4.60533 0.150845,7.70839 -0.162926,6.89569 -0.313771,-0.81271 -0.804594,-2.14259 -1.090726,-2.9553 -0.411894,-1.16992 -0.679858,-1.06735 -1.286728,0.49255 -0.849433,2.18342 -0.891265,2.07357 -2.625869,-6.89569 -0.635654,-3.28684 -0.849307,-2.27373 -1.288132,6.10818 -0.492005,9.39775 -1.83071,13.80187 -3.415745,11.23724 z m -7.468952,-14.14385 c -0.0122,-1.79233 -0.197821,-1.93371 -0.970014,-0.73882 -1.234252,1.90987 -1.234252,2.95529 0,2.95529 0.541804,0 0.97831,-0.99741 0.970014,-2.21647 z m 4.680113,-2.73555 c 0.09117,-2.28619 -0.237517,-3.72237 -0.775773,-3.38971 -1.121918,0.69339 -1.265199,7.35664 -0.158189,7.35664 0.426678,0 0.846958,-1.78512 0.933962,-3.96693 z m 4.321115,-50.87843 c -1.161283,-1.99701 -1.441704,-1.35781 -0.491111,1.1194 0.337842,0.88039 0.821764,1.39319 1.075395,1.13955 0.253638,-0.25363 -0.0092,-1.27016 -0.584284,-2.25895 z m 2.342493,-1.30526 c -0.369848,-1.16527 -0.894088,-1.89703 -1.164992,-1.62612 -0.270905,0.2709 -0.189952,1.44594 0.179889,2.61122 0.36984,1.16527 0.894087,1.89702 1.164992,1.62612 0.270897,-0.2709 0.189951,-1.44595 -0.179889,-2.61122 z m -12.299567,-1.46257 c -3.517648,-3.74436 -8.345796,-4.23391 -13.721872,-1.39134 l -4.465963,2.36136 9.333108,0.55026 c 5.13321,0.30265 9.742851,0.63512 10.243648,0.73882 0.500798,0.10371 -0.124217,-0.91288 -1.388921,-2.2591 z m 6.185422,-0.26135 c -0.348843,-0.94816 -1.272498,-2.72134 -2.052571,-3.9404 -0.920678,-1.43878 -1.032927,-2.21647 -0.319918,-2.21647 0.604114,0 1.098395,0.4433 1.098395,0.98511 0,0.5418 0.368939,0.98509 0.819865,0.98509 1.246123,0 0.104647,-10.95815 -1.462258,-14.03765 -2.102094,-4.13132 -3.171097,-3.23386 -2.104554,1.76683 0.52503,2.46171 0.706855,5.12148 0.40404,5.91059 -0.724496,1.88801 -3.567687,1.85382 -3.567687,-0.0429 0,-0.8127 -0.809799,-1.47764 -1.799554,-1.47764 -0.989754,0 -3.981991,-2.02666 -6.649415,-4.50368 -4.776428,-4.43548 -12.244516,-9.0659 -12.231369,-7.58379 0.0038,0.41735 1.555232,1.8134 3.447845,3.10229 2.335508,1.59052 3.441113,3.10826 3.441113,4.72386 0,2.2004 -0.279325,2.33511 -3.694119,1.78158 l -3.69412,-0.59883 4.201684,1.9904 c 5.179174,2.45344 6.066608,4.42563 3.311184,7.35865 -2.923656,3.11209 -2.614702,3.68885 1.007942,1.88163 3.871843,-1.93153 7.64386,-1.86269 11.657294,0.21273 3.074006,1.58964 3.093701,1.58456 1.973441,-0.50866 -2.049365,-3.82928 -0.396909,-2.98929 2.976566,1.51306 3.618294,4.8291 4.198027,5.31245 3.236196,2.69821 z m -60.380008,-0.24628 c -0.812706,-0.52522 -2.807531,-0.95492 -4.432943,-0.95492 -2.26744,0 -2.611368,0.22226 -1.477648,0.95492 0.812706,0.52522 2.807531,0.95493 4.432943,0.95493 2.267441,0 2.611368,-0.22226 1.477648,-0.95493 z m 97.834371,-23.52968 c 0.33787,-2.91794 0.43689,-5.12794 0.22006,-4.91111 -1.01843,1.01841 -4.34384,15.0418 -3.78235,15.95031 0.87407,1.41429 2.81775,-4.60896 3.56229,-11.0392 z m 2.6155,0.37987 c 0,-1.63146 -0.16417,-1.71614 -0.95492,-0.49255 -0.52522,0.8127 -0.95492,2.36423 -0.95492,3.44785 0,1.63146 0.16417,1.71614 0.95492,0.49255 0.52521,-0.81271 0.95492,-2.36424 0.95492,-3.44785 z m -6.19258,1.29294 c -0.31446,-0.78584 -0.54789,-0.55242 -0.59516,0.59517 -0.0428,1.03845 0.19004,1.62028 0.51739,1.29294 0.32734,-0.32735 0.36233,-1.177 0.0777,-1.88811 z m -22.116551,89.82867 c 0,-1.89631 0.202726,-2.67208 0.450506,-1.72392 0.247779,0.94815 0.247779,2.49968 0,3.44784 -0.24778,0.94816 -0.450506,0.1724 -0.450506,-1.72392 z m 5.386839,-5.91059 c -0.419799,-4.06353 -1.445701,-10.55493 -2.279781,-14.42533 -0.834081,-3.87039 -1.368324,-8.30333 -1.187209,-9.85098 0.181123,-1.54764 1.363913,3.39222 2.628433,10.97748 1.264511,7.58526 2.142227,15.34291 1.950473,17.23923 -0.242712,2.40028 -0.580546,1.20308 -1.111916,-3.9404 z m 80.088182,6.01264 c 0,-1.21927 6.69982,-6.99774 8.11351,-6.99774 0.63209,0 -0.69608,1.77318 -2.95151,3.94039 -4.19869,4.03449 -5.162,4.60503 -5.162,3.05735 z m 176.33263,-1.19073 c 0,-1.64615 6.01085,-4.99265 7.66948,-4.26994 0.92893,0.40476 2.46473,0.63993 3.41288,0.5226 1.95254,-0.2416 2.38496,1.76088 0.49255,2.28099 -4.23652,1.16437 -11.57491,2.09401 -11.57491,1.46635 z m -43.34433,-3.46048 c 0,-1.2186 5.8309,-7.21283 6.29143,-6.46767 0.57573,0.93154 -4.09408,7.07644 -5.37773,7.07644 -0.50254,0 -0.9137,-0.27395 -0.9137,-0.60877 z M 98.138898,202.30898 c -0.894745,-5.5535 -1.826018,-14.08691 -2.06949,-18.96315 l -0.442673,-8.86589 1.342731,10.83609 c 0.738506,5.95985 2.048138,14.31061 2.910308,18.55725 1.837606,9.05125 1.793466,8.53296 0.726756,8.53296 -0.46245,0 -1.572879,-4.54377 -2.467632,-10.09726 z m 38.771992,8.51536 c 0,-1.65039 4.13757,-13.62038 5.05461,-14.62297 1.45544,-1.59124 0.9719,1.76815 -1.13666,7.89678 -1.88857,5.48921 -3.91795,8.97318 -3.91795,6.72619 z m -99.037805,-4.08242 c 0.367363,-0.94815 1.026326,-3.6284 1.464362,-5.95609 1.026363,-5.45403 2.018889,-6.42042 2.018889,-1.96575 0,5.67578 -1.107671,9.64576 -2.691278,9.64576 -0.988103,0 -1.244047,-0.55711 -0.791973,-1.72392 z m 4.963577,-1.47764 c 1.437285,-7.06012 2.567851,-10.54016 3.639344,-11.20237 0.785538,-0.4855 0.883917,-0.12594 0.325546,1.18979 -0.440103,1.03702 -1.241528,4.43445 -1.780941,7.54983 -0.539413,3.11537 -1.398119,5.66431 -1.908235,5.66431 -0.523356,0 -0.643491,-1.395 -0.275714,-3.20156 z m 4.895445,-2.89319 c 1.273525,-3.42044 2.584882,-7.43803 2.914126,-8.928 0.329243,-1.48996 1.01956,-2.70902 1.534038,-2.70902 0.514477,0 0.749106,0.55412 0.521399,1.23137 -0.227709,0.67726 -0.671673,3.00067 -0.986587,5.16314 -0.666735,4.57837 -3.437792,10.57739 -5.127041,11.09945 -0.726463,0.22451 -0.291887,-2.00025 1.144065,-5.85694 z m 12.056671,4.12838 c -0.28282,-1.0815 -0.331757,-3.85209 -0.108749,-6.15686 l 0.405467,-4.19049 -1.43936,2.95529 c -0.791647,1.62541 -1.459354,3.92654 -1.483792,5.11362 -0.04278,2.07837 -1.659743,3.94297 -2.602099,3.00062 -0.787436,-0.78744 4.291227,-18.97622 5.153769,-18.45777 0.450703,0.27089 0.670143,1.37393 0.487643,2.45118 -0.290394,1.71411 -0.08375,1.65261 1.655267,-0.49255 2.722237,-3.35804 3.457151,-2.11511 1.697802,2.87142 -0.805756,2.28376 -1.543826,6.56419 -1.640156,9.5121 -0.17686,5.41229 -1.179362,7.01261 -2.125792,3.39344 z m 42.196732,-0.84518 c -1.63196,-5.14189 -3.490927,-19.33341 -3.492116,-26.65931 -7.39e-4,-4.56018 0.186619,-8.10328 0.416356,-7.87355 0.22973,0.22973 0.644831,4.84738 0.922444,10.26145 0.456476,8.90229 2.774076,23.00315 4.145496,25.22215 0.29767,0.48164 0.10164,0.87572 -0.43563,0.87572 -0.53727,0 -1.23771,-0.82191 -1.55655,-1.82646 z M 34.50706,205.018 c -0.02414,-1.4638 1.734254,-3.96574 2.352592,-3.3474 0.294764,0.29476 -0.11033,1.39015 -0.900206,2.43422 -0.789877,1.04405 -1.44345,1.45498 -1.452386,0.91318 z m 329.60534,-0.9851 c -0.31185,-0.81271 -0.0618,-1.47765 0.55586,-1.47765 0.6176,0 1.93628,-0.7361 2.93043,-1.63579 2.75063,-2.48928 3.43903,-0.66976 0.8067,2.13222 -2.66944,2.84149 -3.50577,3.03264 -4.29299,0.98122 z m 12.21285,0.68991 c -0.0526,-1.90211 2.82368,-7.09305 3.93027,-7.09305 0.52789,0 0.95759,0.55412 0.9549,1.23137 -0.007,1.67373 -4.84055,7.47389 -4.88517,5.86168 z M 25.576255,203.52892 c -1.974929,-1.22058 -0.637454,-2.18113 3.493373,-2.50889 2.361217,-0.18736 3.404946,0.10251 3.146066,0.8737 -0.213072,0.63474 -1.014183,1.16578 -1.780246,1.18011 -0.766063,0.0143 -1.857303,0.31755 -2.424976,0.67383 -0.567673,0.35627 -1.663071,0.25783 -2.434217,-0.21875 z M 337.90094,200.6064 c -0.0335,-4.94222 6.67716,-33.5147 7.87148,-33.5147 0.42149,0 -0.53446,4.98707 -2.12433,11.08236 -1.58986,6.0953 -3.1563,13.96377 -3.48097,17.4855 -0.73289,7.94993 -2.22369,11.20418 -2.26618,4.94684 z m 35.59352,-1.57439 c 1.78071,-2.47959 3.40149,-4.01682 3.60174,-3.41607 0.43879,1.31636 -4.43378,7.92442 -5.84321,7.92442 -0.54789,0 0.46077,-2.02876 2.24147,-4.50835 z m -270.41751,-4.87809 c -0.89629,-4.07893 -1.59105,-8.40105 -1.54393,-9.60471 0.0471,-1.20366 0.85115,1.13623 1.78672,5.19976 0.93557,4.06353 2.03513,8.38565 2.44345,9.60471 0.40944,1.22238 0.33897,2.21648 -0.15712,2.21648 -0.49474,0 -1.63286,-3.33731 -2.52912,-7.41624 z m 3.50351,0.24024 c -2.35157,-11.23089 -2.41876,-11.80605 -1.29806,-11.11344 0.59974,0.37067 1.0957,1.64519 1.10213,2.83227 0.007,1.18708 0.63094,4.48446 1.3878,7.32749 0.75685,2.84304 1.04035,5.37667 0.63,5.63029 -0.41037,0.2536 -1.2302,-1.85087 -1.82187,-4.67661 z m 3.28244,-2.92127 c -0.21367,-0.67725 -0.61321,-2.56125 -0.88786,-4.18666 -0.27466,-1.62541 -1.19416,-5.3792 -2.04334,-8.34175 -0.84918,-2.96254 -1.48356,-8.28208 -1.40973,-11.82118 l 0.13424,-6.43473 0.78199,8.07932 c 0.4301,4.44363 1.43579,9.54151 2.23487,11.32864 1.47145,3.29081 3.01072,12.60774 2.08295,12.60774 -0.27755,0 -0.67945,-0.55412 -0.89312,-1.23138 z m 1.43543,-4.24481 c 0,-0.84468 0.44329,-1.2618 0.9851,-0.92695 0.5418,0.33485 0.9851,1.02596 0.9851,1.53579 0,0.50982 -0.4433,0.92696 -0.9851,0.92696 -0.54181,0 -0.9851,-0.69111 -0.9851,-1.5358 z m 267.94679,-0.56441 c 0,-2.02334 4.00369,-7.63811 5.8685,-8.22997 1.00666,-0.3195 2.07897,-1.22897 2.38291,-2.02106 0.50358,-1.31227 4.55488,-2.13326 4.55488,-0.92304 0,0.58841 -11.82391,12.28917 -12.41851,12.28917 -0.21328,0 -0.38778,-0.50178 -0.38778,-1.1151 z m -103.43534,-2.82529 c 0,-1.08361 0.44329,-1.9702 0.9851,-1.9702 0.54181,0 0.9851,0.88659 0.9851,1.9702 0,1.08361 -0.44329,1.9702 -0.9851,1.9702 -0.54181,0 -0.9851,-0.88659 -0.9851,-1.9702 z m -161.55616,-0.49255 c 0,-1.77434 -1.94219,-2.00937 -2.03502,-0.24627 -0.17215,3.26967 -2.74738,-9.5181 -3.2237,-16.00786 -0.52337,-7.13077 -0.50817,-7.19942 0.43641,-1.97019 2.52605,13.98432 3.02215,15.76158 4.39961,15.76158 0.77429,0 1.40781,0.88658 1.40781,1.9702 0,1.0836 -0.22165,1.97019 -0.49256,1.97019 -0.2709,0 -0.49255,-0.66494 -0.49255,-1.47765 z m 73.44853,-2.9553 c 0.32295,-2.16721 1.02735,-4.38368 1.56533,-4.92548 1.06409,-1.07165 0.2236,3.40066 -1.29593,6.89568 -0.57418,1.32067 -0.663,0.67115 -0.2694,-1.9702 z m -27.13381,0.94992 c 0.0269,-1.69588 1.82782,-3.86833 2.58174,-3.1144 0.40356,0.40356 -0.0157,1.48313 -0.93154,2.39904 -0.91591,0.9159 -1.6585,1.23782 -1.6502,0.71536 z m -68.818724,-5.8754 c -0.05822,-3.68669 0.220206,-5.35462 0.739991,-4.43295 0.458337,0.81271 0.500346,3.47248 0.09335,5.91059 l -0.739991,4.43295 z m 11.032494,-2.9553 c -0.003,-4.87624 0.16358,-6.99527 0.37017,-4.70894 0.2066,2.28632 0.20906,6.27596 0.006,8.86589 -0.20359,2.58991 -0.37263,0.71929 -0.37562,-4.15695 z m 15.5101,5.22991 c -0.054,-1.99979 0.34511,-3.90996 0.88691,-4.24481 1.13949,-0.70425 1.13949,1.85997 0,5.41804 -0.70845,2.21212 -0.7987,2.09273 -0.88691,-1.17323 z m -1.91285,0.18813 c 0,-1.35451 0.2236,-1.90863 0.49687,-1.23138 0.27328,0.67726 0.27328,1.7855 0,2.46276 -0.27327,0.67725 -0.49687,0.12313 -0.49687,-1.23138 z m -27.371786,-1.72392 c 0.04603,-1.48996 -0.246006,-4.03891 -0.649042,-5.66432 -0.688798,-2.7779 -0.643183,-2.84051 0.759969,-1.04309 1.576525,2.0195 2.086365,9.41643 0.649042,9.41643 -0.464048,0 -0.806027,-1.21906 -0.759969,-2.70902 z m 38.742666,-2.93322 c 0.76359,-4.94677 1.27986,-5.34338 1.27986,-0.98322 0,1.95463 -0.41703,3.81163 -0.92675,4.12665 -0.55258,0.34151 -0.69514,-0.92762 -0.35311,-3.14343 z m 35.77339,0.96302 c 0.0118,-2.111 0.2259,-2.38282 0.97002,-1.23137 1.24557,1.92737 1.24557,3.94039 0,3.94039 -0.5418,0 -0.97831,-1.21906 -0.97002,-2.70902 z m -42.30507,-1.47765 c -0.0381,-1.48996 0.37405,-2.70902 0.91585,-2.70902 1.15623,0 1.15623,0.75717 0,3.44785 -0.75021,1.74584 -0.8545,1.6617 -0.91585,-0.73883 z m 10.23243,-3.44784 c 0.99762,-5.50251 1.04436,-5.56582 1.6361,-2.21648 0.60291,3.41253 0.61119,3.41757 0.80806,0.49256 0.10941,-1.62542 0.5799,-3.84189 1.04554,-4.9255 0.77564,-1.80499 0.85153,-1.7637 0.90503,0.49255 0.11492,4.84663 -1.16097,9.85099 -2.51156,9.85099 -0.74182,0 -1.34876,0.44329 -1.34876,0.9851 0,0.5418 -0.35131,0.98509 -0.78068,0.98509 -0.42938,0 -0.31855,-2.54894 0.24627,-5.66431 z m -18.01892,0.007 c -0.54327,-2.57731 -1.24166,-6.90248 -1.552,-9.61151 -0.40186,-3.50797 -0.0138,-2.58215 1.3486,3.21701 1.05208,4.47837 2.1636,8.54821 2.47008,9.04409 0.30646,0.49588 0.14408,1.15693 -0.36087,1.469 -0.50494,0.31208 -1.36256,-1.5413 -1.90581,-4.11859 z m 52.7855,4.10406 c -0.40635,-0.4098 -0.69885,-2.55522 -0.64997,-4.76759 l 0.0889,-4.02248 0.9497,3.29912 c 1.02693,3.56742 0.80559,6.69526 -0.38857,5.49095 z M 341.8957,170.0471 c -0.0298,-1.35451 0.37556,-3.12769 0.90078,-3.94039 0.78817,-1.2196 0.94547,-1.13359 0.90077,0.49255 -0.0298,1.0836 -0.43512,2.85678 -0.90077,3.94039 -0.77536,1.80436 -0.85119,1.76292 -0.90078,-0.49255 z m -225.64996,-1.41974 c -0.50292,-1.3228 -1.14712,-5.86657 -1.43156,-10.09726 l -0.51714,-7.69217 1.34973,7.38824 c 0.74235,4.06353 1.66723,8.6073 2.05528,10.09726 0.87365,3.35442 -0.21049,3.58067 -1.45631,0.30393 z m -17.420046,-0.5502 c 0.343502,-1.35452 0.630601,-3.23852 0.638004,-4.18667 0.0074,-0.94816 0.410062,-1.72392 0.894802,-1.72392 0.9732,0 -0.2613,6.64318 -1.433212,7.71255 -0.398278,0.36343 -0.443095,-0.44745 -0.09959,-1.80196 z m 69.332976,0.65825 c -0.39035,-0.99247 -0.6652,-3.43059 -0.61077,-5.41804 l 0.099,-3.61356 0.91623,3.91299 c 1.05538,4.50727 0.77096,8.10705 -0.40441,5.11861 z m 202.13213,-0.49299 c 1.3078,-2.44366 3.93174,-4.53111 4.71326,-3.74961 0.71102,0.71103 -3.50174,5.55454 -4.8312,5.55454 -0.46643,0 -0.41335,-0.81222 0.11794,-1.80493 z m -251.52057,-1.39664 c -1.21525,-6.03368 -1.44429,-8.61961 -0.76344,-8.61961 0.41175,0 1.19526,2.43812 1.74116,5.41804 0.54588,2.97992 0.64967,5.41804 0.23061,5.41804 -0.41904,0 -0.9628,-0.99741 -1.20833,-2.21647 z m 3.45963,-4.61067 c -0.71159,-3.20756 -1.05917,-6.41916 -0.77239,-7.13689 0.29701,-0.7434 0.55487,-0.40444 0.59917,0.78762 0.0428,1.15094 0.75131,4.00161 1.57451,6.33481 0.82319,2.3332 1.13578,4.60312 0.69462,5.04428 -0.44115,0.44116 -1.38432,-1.82226 -2.09591,-5.02982 z m 15.30395,0.424 c 0.34971,-3.25082 0.79591,-6.0953 0.99156,-6.32105 0.85695,-0.98882 0.22656,9.42614 -0.65093,10.75399 -0.66842,1.01151 -0.77588,-0.38691 -0.34063,-4.43294 z m 32.62905,-1.2709 c -0.27543,-2.05352 -0.16313,-5.48905 0.24957,-7.63451 0.74171,-3.85598 0.75179,-3.83853 0.87708,1.51717 0.0697,2.97993 0.39403,6.41546 0.72073,7.63452 0.32668,1.21906 0.15736,2.21647 -0.3763,2.21647 -0.53366,0 -1.19565,-1.68014 -1.47108,-3.73365 z m -43.42093,2.04591 c -1.23063,-1.99119 -3.46569,-15.53498 -2.69678,-16.34163 0.41425,-0.43457 1.03572,1.91315 1.38105,5.21718 0.34535,3.30402 1.1046,6.89805 1.68724,7.98671 1.16346,2.17395 0.8209,5.06711 -0.37151,3.13774 z m 13.40288,-5.95199 -0.21391,-6.6442 1.32259,4.79575 c 0.72743,2.63766 1.10446,5.6299 0.83786,6.64941 -0.95572,3.65465 -1.73627,1.72947 -1.94654,-4.80096 z M 129.0493,155.0246 c -2.17229,-7.11776 -2.80106,-10.58072 -2.00987,-11.0697 0.41772,-0.25816 1.0444,1.31228 1.39261,3.48989 0.34821,2.1776 1.23832,5.7159 1.97801,7.86287 0.7397,2.14699 1.02362,3.90361 0.63095,3.90361 -0.39267,0 -1.28893,-1.884 -1.9917,-4.18667 z m 43.73969,-0.31557 c -0.36289,-1.93442 -0.20659,-4.92666 0.34735,-6.64941 0.90663,-2.81961 1.0172,-2.46853 1.10772,3.51713 0.11097,7.33717 -0.44265,8.52893 -1.45507,3.13228 z m 170.99259,2.53204 c 0,-0.5418 0.44329,-0.9851 0.9851,-0.9851 0.5418,0 0.98509,0.4433 0.98509,0.9851 0,0.5418 -0.44329,0.9851 -0.98509,0.9851 -0.54181,0 -0.9851,-0.4433 -0.9851,-0.9851 z m -226.38061,-3.44785 c 0.0201,-1.62541 0.24086,-2.17109 0.49061,-1.21262 0.24976,0.95847 0.23335,2.28835 -0.0364,2.95529 -0.26985,0.66695 -0.4742,-0.11725 -0.45412,-1.74267 z m 224.90296,-0.49254 c 0.33485,-0.54181 0.80432,-0.9851 1.04324,-0.9851 0.23892,0 0.43441,0.44329 0.43441,0.9851 0,0.5418 -0.46946,0.9851 -1.04324,0.9851 -0.57378,0 -0.76927,-0.4433 -0.43441,-0.9851 z m -222.13972,-1.9702 c 0,-1.08361 0.4018,-1.9702 0.89288,-1.9702 0.49108,0 0.66103,0.88659 0.37766,1.9702 -0.28338,1.08361 -0.68517,1.9702 -0.89288,1.9702 -0.2077,0 -0.37766,-0.88659 -0.37766,-1.9702 z m 12.36965,-0.13003 c -2.01781,-8.83899 -2.45977,-11.6532 -2.37755,-15.139 0.0861,-3.64807 0.15753,-3.53845 0.96354,1.47765 0.47883,2.97993 1.32027,7.59006 1.86987,10.24475 0.98896,4.77695 0.57057,7.91285 -0.45586,3.4166 z m -29.08817,-5.40204 2.117,-3.06931 -2.54973,-2.54972 c -2.2367,-2.2367 -2.40943,-2.85765 -1.407,-5.05776 0.6285,-1.3794 1.52584,-2.50801 1.99409,-2.50801 0.46825,0 1.28285,-1.13491 1.81023,-2.52202 1.53465,-4.03646 2.70843,-1.94507 2.74789,4.89614 0.0339,5.87976 -0.2102,6.60624 -3.39647,10.10755 -2.79262,3.06874 -3.03812,3.1999 -1.31601,0.70313 z m 33.10729,0.82443 c -0.30535,-0.49407 -0.80062,-2.85086 -1.10056,-5.2373 l -0.54537,-4.33898 1.40737,4.92548 c 1.34175,4.69576 1.43908,6.59327 0.23856,4.6508 z m 208.2137,-5.0852 c 0,-0.50983 0.44329,-1.20094 0.98509,-1.53579 0.54181,-0.33486 0.97832,-1.58008 0.97002,-2.76716 -0.0123,-1.75469 -0.19367,-1.88199 -0.97002,-0.68069 -0.73805,1.14206 -0.97601,0.80647 -1.04778,-1.47764 -0.0511,-1.62542 -0.31645,-2.40118 -0.58973,-1.72392 -0.67643,1.67637 -2.30288,1.56041 -2.30288,-0.16419 0,-0.76755 -0.37975,-1.54332 -0.84388,-1.72392 -0.46414,-0.1806 -1.13912,-2.10154 -1.49997,-4.26876 l -0.6561,-3.9404 2.22954,2.92161 c 1.22626,1.60688 3.00948,3.58941 3.96273,4.4056 0.95324,0.81619 1.73318,2.05041 1.73318,2.74271 0,0.6923 0.33665,1.25871 0.74813,1.25871 0.41147,0 1.30182,0.88659 1.97855,1.9702 0.98381,1.57533 0.98381,2.36507 0,3.9404 -1.24265,1.9898 -4.69688,2.75702 -4.69688,1.04324 z m -206.22849,-6.08185 c -0.89501,-2.77124 -1.57873,-6.42842 -1.51936,-8.12707 0.0987,-2.82507 0.1761,-2.74458 0.90738,0.94384 0.43969,2.21777 1.49935,5.70743 2.35481,7.75482 1.80501,4.32001 1.8287,4.46702 0.71991,4.46702 -0.45949,0 -1.56773,-2.26738 -2.46274,-5.03861 z m -4.31429,-2.84218 c 0,-2.43812 0.19211,-3.43553 0.42691,-2.21647 0.23481,1.21906 0.23481,3.21388 0,4.43294 -0.2348,1.21906 -0.42691,0.22165 -0.42691,-2.21647 z m 8.34117,-0.33009 c -0.40214,-0.99426 -0.94057,-4.31896 -1.19649,-7.38824 l -0.46531,-5.5805 1.44483,5.41804 c 1.52084,5.70312 1.67771,11.16222 0.21697,7.5507 z m 50.56242,-2.6905 c -1.77049,-2.20312 -2.97626,-4.24849 -2.6795,-4.54524 0.64448,-0.6445 5.66194,3.14714 5.68979,4.29971 0.0106,0.44185 0.72148,1.57914 1.57955,2.5273 1.34261,1.48357 1.3558,1.72392 0.0947,1.72392 -0.806,0 -2.91403,-1.80256 -4.68451,-4.00569 z m 143.01637,-4.12137 c -0.7348,-2.2906 -1.0772,-2.64098 -1.20331,-1.23138 -0.11244,1.2567 -0.64658,0.5432 -1.47492,-1.97019 -1.05787,-3.20982 -1.3206,-3.48379 -1.41703,-1.47765 -0.19134,3.98081 -2.04783,0.18864 -1.92905,-3.9404 0.0546,-1.89631 0.29719,-2.69665 0.53919,-1.77853 0.2556,0.96976 1.03338,1.44163 1.85592,1.12599 0.92253,-0.35401 1.41593,0.10364 1.41593,1.31332 0,1.02116 0.88659,2.61578 1.9702,3.54359 1.08361,0.92782 1.9702,2.31997 1.9702,3.09367 0,0.77369 0.26906,2.10791 0.59794,2.96493 0.32887,0.85703 0.17135,1.55821 -0.35004,1.55821 -0.5214,0 -1.41016,-1.4407 -1.97503,-3.20156 z m -98.19292,0.3554 c -0.29777,-0.48178 -1.76463,-1.17958 -3.25971,-1.55067 -2.83253,-0.70305 -7.15128,-4.15346 -7.15128,-5.71344 0,-0.49552 1.3639,0.24669 3.03089,1.64937 1.66697,1.40267 3.61268,2.55031 4.3238,2.55031 1.63817,0 6.35505,3.86337 4.77091,3.90763 -0.64528,0.018 -1.41685,-0.36142 -1.71461,-0.8432 z m -91.56837,-2.18461 c -0.23412,-0.75479 -1.62209,-4.77575 -3.08438,-8.93545 -1.46229,-4.1597 -2.4244,-8.14935 -2.13803,-8.86589 0.34352,-0.85952 0.54715,-0.71256 0.59845,0.43186 0.0428,0.95406 0.92561,3.61382 1.96188,5.91059 2.60098,5.76481 4.33534,11.58369 3.6553,12.26372 -0.31215,0.31215 -0.75909,-0.05 -0.99322,-0.80483 z m 50.64035,-1.31708 c -1.14297,-3.00626 -1.60501,-13.0836 -0.64391,-14.04468 0.34258,-0.3426 0.63347,1.33498 0.64639,3.72795 0.0129,2.39297 0.43173,6.11159 0.93067,8.26359 1.07349,4.63015 0.51435,5.86037 -0.93315,2.05314 z m 2.9405,-2.49489 c -0.6096,-2.26388 -0.9489,-5.07922 -0.75402,-6.25631 0.21641,-1.30707 0.84788,0.0952 1.62222,3.60227 1.46803,6.64889 0.77663,8.76246 -0.8682,2.65404 z m 39.76225,2.49833 c -2.99802,-1.3047 -5.25678,-3.50657 -3.59715,-3.50657 0.45322,0 1.69844,0.6002 2.76715,1.33378 1.06871,0.73357 3.273,1.80681 4.89841,2.38497 2.09847,0.74643 2.38407,1.06257 0.9851,1.09041 -1.08361,0.0216 -3.35769,-0.56459 -5.05351,-1.30259 z m -35.28513,-0.46971 c -0.9246,-1.49605 -2.49204,-7.96235 -1.93008,-7.96235 0.70955,0 3.40395,7.24838 3.06848,8.25475 -0.19395,0.58187 -0.67431,0.45849 -1.1384,-0.2924 z m 3.68075,-0.30403 c -0.5404,-0.69036 -1.47239,-2.71107 -2.07109,-4.49049 -1.444,-4.29176 0.38673,-3.11494 2.30819,1.48373 1.54664,3.70165 1.43319,5.14051 -0.2371,3.00676 z m 41.06982,-0.5927 c -5.36615,-1.98501 -6.87468,-2.91734 -6.87468,-4.24881 0,-0.55401 1.49304,-0.0845 3.31785,1.04324 1.82481,1.1278 3.95655,2.05054 4.7372,2.05054 0.78066,0 2.27986,0.65084 3.33158,1.44632 2.45982,1.86052 1.06099,1.77021 -4.51195,-0.29129 z m -55.39967,-0.49678 c -0.40146,-0.99247 -0.76109,-2.76565 -0.79917,-3.94039 -0.067,-2.06775 -0.0962,-2.07302 -0.91586,-0.1657 -0.55975,1.30261 -0.82271,-0.70014 -0.77607,-5.91059 0.0567,-6.32646 0.20971,-7.10363 0.77607,-3.9404 l 0.70551,3.9404 0.27083,-3.9404 c 0.19776,-2.87734 0.50274,-1.81427 1.13046,3.9404 0.4728,4.33442 0.7423,8.76737 0.5989,9.85098 -0.24391,1.84299 -0.30787,1.85369 -0.99067,0.1657 z m 122.39658,-1.88962 c -1.83832,-3.01507 -2.53621,-5.66432 -1.49215,-5.66432 0.25699,0 1.2117,1.44071 2.12159,3.20157 0.90988,1.76087 2.36197,3.74159 3.22687,4.40161 1.42097,1.08439 1.405,1.20307 -0.16588,1.23138 -0.95611,0.0172 -2.61681,-1.40938 -3.69043,-3.17024 z m 4.89113,0.1619 c -1.61016,-3.00861 -0.49813,-3.35427 1.41207,-0.43892 0.8986,1.37142 1.19589,2.49349 0.66066,2.49349 -0.53523,0 -1.46795,-0.92456 -2.07273,-2.05457 z M 137.89599,114.7173 c 0,-6.0931 0.48849,-5.95108 1.41179,0.41046 0.44549,3.06947 0.31946,4.67922 -0.36633,4.67922 -0.60232,0 -1.04546,-2.15738 -1.04546,-5.08968 z m 115.61028,3.19564 c -3.01762,-1.84005 -5.0581,-4.01655 -3.76554,-4.01655 0.3547,0 1.96275,0.93839 3.57345,2.08531 2.28885,1.62981 3.82832,1.96436 7.04776,1.53158 l 4.11921,-0.55372 -2.9553,1.37928 c -3.89173,1.81632 -4.3854,1.79011 -8.01958,-0.4259 z m -44.16175,-2.29263 c -1.65739,-2.83218 -1.67569,-3.04043 -0.15861,-1.80494 2.07968,1.69368 3.95861,5.00651 2.83952,5.00651 -0.44405,0 -1.65046,-1.44071 -2.68091,-3.20157 z m 102.42572,0.88374 c -0.94697,-1.44524 -2.21562,-2.26432 -3.0257,-1.95346 -0.7706,0.29571 -1.67932,-0.20561 -2.03021,-1.12 -0.34936,-0.91043 -1.62064,-2.02999 -2.82504,-2.4879 -2.44215,-0.92851 -4.14357,-6.59981 -2.47926,-8.26411 1.06065,-1.06065 1.35689,0.0647 1.04828,3.98176 -0.23253,2.9515 1.54753,3.75109 2.37786,1.0681 0.63673,-2.05742 0.74443,-1.99384 1.60524,0.94768 1.05278,3.59753 3.52163,5.87996 2.61657,2.41901 -0.97203,-3.71703 0.66128,-2.28763 2.89461,2.53322 2.40649,5.19465 2.31212,6.68274 -0.18235,2.8757 z m -165.53556,-4.22511 c -0.89524,-2.09033 -1.80523,-5.57377 -2.02221,-7.74099 l -0.39452,-3.9404 1.35317,4.43295 c 0.74425,2.43812 1.86232,5.71349 2.48462,7.27859 1.72351,4.33468 0.43661,4.30738 -1.42106,-0.0301 z m 114.27187,2.65031 c -2.18694,-0.88647 -5.16887,-4.00744 -3.78053,-3.95683 0.47269,0.0172 1.71993,0.68218 2.77164,1.47764 1.05171,0.79548 3.15736,1.44633 4.67922,1.44633 1.52186,0 2.76701,0.44329 2.76701,0.9851 0,1.16789 -3.60785,1.19465 -6.43734,0.0478 z m -111.08162,-3.77477 c -0.83817,-2.09483 -1.81896,-5.54875 -2.17952,-7.67539 -0.36056,-2.12665 -0.88599,-4.697911 -1.16763,-5.713913 -0.3299,-1.190112 -0.12408,-1.607496 0.57856,-1.173237 0.59985,0.370727 1.09063,1.770104 1.09063,3.109732 0,1.339628 0.90874,5.133208 2.01941,8.430188 2.26249,6.7161 2.01456,8.91087 -0.34145,3.02262 z m 196.81939,1.36437 c -3.58862,-1.97774 -6.40314,-4.94609 -6.40314,-6.7531 0,-0.98019 -0.66494,-2.03734 -1.47765,-2.34921 -0.8127,-0.31187 -1.47765,-1.55913 -1.47765,-2.7717 0,-2.608817 -3.40971,-6.135829 -4.39328,-4.544395 -0.35666,0.577095 -1.06562,1.04927 -1.57544,1.04927 -1.60573,0 -1.01219,-2.858968 1.38455,-6.668994 1.27133,-2.020994 2.87071,-5.377707 3.55418,-7.459351 0.89827,-2.735924 1.54079,-3.48668 2.31844,-2.709024 0.77765,0.777657 0.74819,1.403397 -0.10633,2.257906 -1.44352,1.443528 -1.63068,12.017665 -0.19701,11.131616 0.59582,-0.368238 0.98509,0.99425 0.98509,3.447847 0,2.453597 0.38928,3.816075 0.9851,3.447835 0.54181,-0.33484 0.9851,0.0823 0.9851,0.92696 0,0.84469 0.88659,2.42238 1.9702,3.50599 1.08361,1.08361 1.9702,2.63514 1.9702,3.44785 0,1.74976 1.63687,1.98507 2.19345,0.31532 0.42004,-1.26012 3.71714,-0.42357 3.71714,0.94313 0,0.45526 -0.55412,1.51176 -1.23138,2.3478 -0.96308,1.18886 -1.66064,1.28348 -3.20157,0.43425 z m -75.85258,-2.08135 c -2.28688,-1.01107 -2.50969,-1.32128 -0.9851,-1.37152 2.11482,-0.0697 5.16992,1.47232 4.40441,2.22304 -0.25521,0.25028 -1.7939,-0.1329 -3.41931,-0.85152 z m -70.73657,-4.34074 c -4.38511,-4.8538 -7.02329,-8.845789 -6.31437,-9.554713 0.3004,-0.300391 1.0856,0.461743 1.74489,1.693643 0.65929,1.231893 3.19399,4.37291 5.63266,6.98006 2.43867,2.60713 3.98157,4.74024 3.42867,4.74024 -0.5529,0 -2.57424,-1.73665 -4.49185,-3.85923 z m -48.78747,-0.19081 c -0.48113,-1.2942 -1.19917,-4.12526 -1.59562,-6.29123 -0.39646,-2.165981 -1.03119,-4.160805 -1.41051,-4.432944 -0.37931,-0.272146 -0.39107,-1.824695 -0.0262,-3.450108 0.42832,-1.90771 0.71081,-2.256908 0.79692,-0.985096 0.0734,1.083611 0.97036,5.294907 1.99332,9.358438 1.82837,7.26292 1.96019,10.42266 0.24202,5.80094 z m 146.66604,-1.61428 c -1.2887,-4.640408 -1.30146,-6.156859 -0.0518,-6.156859 0.54181,0 0.98511,1.079377 0.98511,2.398619 0,1.31924 0.43231,3.53571 0.96071,4.92549 0.57832,1.52111 0.59676,2.52687 0.0463,2.52687 -0.50293,0 -1.37607,-1.66235 -1.94033,-3.69412 z m -91.58716,-2.90566 c -2.75236,-3.088074 -4.97966,-6.080311 -4.94956,-6.649412 0.0301,-0.569101 1.02751,0.289264 2.21648,1.907473 1.18895,1.618209 3.93471,4.610449 6.1017,6.649419 2.16697,2.03897 3.42149,3.70721 2.7878,3.70721 -0.63367,0 -3.40406,-2.52661 -6.15642,-5.61469 z m 142.15474,3.21218 c -0.8086,-2.10716 0.43673,-6.68411 1.61973,-5.952977 1.26076,0.779193 1.23307,6.097917 -0.0358,6.882147 -0.54564,0.3372 -1.25839,-0.0809 -1.58389,-0.92917 z m -147.33518,-3.26181 c -4.63903,-4.852922 -6.9089,-9.11216 -4.85613,-9.11216 0.48307,0 1.13162,1.0093 1.44124,2.242892 0.3096,1.233592 2.16538,4.115005 4.12394,6.403138 4.41209,5.15453 4.01945,5.41266 -0.70905,0.46613 z m 11.15251,0.57573 c -1.70256,-1.74142 -3.09345,-3.636184 -3.09086,-4.210582 0.003,-0.574399 1.57765,0.66834 3.50013,2.761652 4.26237,4.6411 3.91477,5.87167 -0.40927,1.44893 z m 54.31369,1.88702 c -1.38015,-1.78367 -2.30045,-4.684705 -1.47401,-4.646449 1.25013,0.05785 5.14086,3.693939 5.14086,4.804349 0,1.46502 -2.4942,1.35761 -3.66685,-0.1579 z m 26.93836,-0.28436 c -0.33783,-0.88038 -0.56972,-2.7835 -0.51529,-4.229152 0.0796,-2.114366 0.27531,-1.876849 1.0006,1.214352 0.92481,3.94159 0.6132,5.87746 -0.48531,3.0148 z M 151.92524,98.550658 c -1.4693,-3.753809 -2.68732,-16.181839 -1.58401,-16.162334 2.09201,0.03694 3.14388,1.749623 3.31872,5.403573 0.25492,5.327482 0.0168,6.277092 -0.98748,3.939771 -0.74408,-1.731559 -0.85501,-1.634227 -0.91586,0.803589 -0.0381,1.525583 0.4028,3.655804 0.97974,4.73383 0.57694,1.078025 0.88398,2.455075 0.68231,3.060103 -0.20168,0.60503 -0.87371,-0.19531 -1.49342,-1.778532 z m 117.87553,0.910172 c -1.22251,-1.502317 -1.17602,-1.618682 0.40911,-1.024106 1.48334,0.556386 1.68464,0.29383 1.18037,-1.53948 -0.59374,-2.158481 -0.57185,-2.165042 0.93396,-0.279911 0.84806,1.061698 1.39742,2.363875 1.22081,2.893722 -0.5706,1.711805 -2.3296,1.688215 -3.74425,-0.05024 z m 4.2478,-3.327648 c -0.65675,-1.05162 -1.17633,-2.472164 -1.15464,-3.156773 0.0216,-0.684602 0.72131,0.01352 1.55474,1.551375 1.73103,3.194209 1.40618,4.497709 -0.4001,1.605398 z m 10.6271,-0.461115 c 0,-1.354515 0.38182,-2.462751 0.84849,-2.462751 0.46667,0 0.63664,1.108236 0.37771,2.462751 -0.25893,1.354508 -0.64075,2.462744 -0.84849,2.462744 -0.20775,0 -0.37771,-1.108236 -0.37771,-2.462744 z m 60.95799,-2.768018 -2.19992,-4.528104 2.25886,-11.620969 c 2.29132,-11.787936 3.36762,-15.068809 4.94336,-15.068809 1.22331,0 0.16052,14.220704 -1.5206,20.346132 -1.70872,6.226077 -1.74947,8.663375 -0.18668,11.165801 0.92037,1.47374 0.93361,2.205338 0.0558,3.083142 -0.87781,0.877804 -1.67293,0.07642 -3.35083,-3.377193 z m -24.50935,2.275466 c 0,-0.541801 0.4433,-0.985096 0.9851,-0.985096 0.54181,0 0.9851,0.443295 0.9851,0.985096 0,0.541802 -0.44329,0.985096 -0.9851,0.985096 -0.5418,0 -0.9851,-0.443294 -0.9851,-0.985096 z m -2.29856,-3.612028 c -0.94146,-0.941454 -0.80981,-2.298563 0.22297,-2.298563 0.48384,0 1.13486,0.664942 1.44673,1.477648 0.5762,1.501563 -0.47314,2.017477 -1.6697,0.820915 z M 189.69097,90.5003 c -1.21291,-1.205111 -3.53161,-7.254357 -3.44445,-8.98619 0.0444,-0.881993 1.16914,0.781055 2.49943,3.695649 2.27839,4.991812 2.63095,6.965632 0.94502,5.290541 z m 2.39048,-4.438396 c -2.57657,-5.824763 -3.68983,-11.15149 -2.12902,-10.186846 0.62639,0.387123 1.13888,1.807348 1.13888,3.156057 0,1.348708 0.88354,4.280894 1.96341,6.515976 1.07986,2.235083 1.75018,4.277 1.48959,4.537591 -0.26059,0.260598 -1.36889,-1.549654 -2.46286,-4.022778 z m 3.99371,-0.336727 c -1.17084,-2.490863 -1.93744,-5.039806 -1.70355,-5.664312 0.23389,-0.624513 0.92443,0.194407 1.53452,1.81982 0.6101,1.625413 1.79624,4.174355 2.63586,5.664319 0.83962,1.489957 1.10706,2.709016 0.59428,2.709016 -0.51276,0 -1.89026,-2.037979 -3.06111,-4.528843 z m 124.04578,0.544344 c -1.65362,-3.992184 -0.52813,-4.855078 1.41968,-1.088443 0.85066,1.645021 1.15644,3.232111 0.67951,3.526872 -0.47694,0.294761 -1.42157,-0.802525 -2.09919,-2.438429 z m 3.61901,-1.900484 c -0.32791,-1.639495 -0.3122,-4.400805 0.0349,-6.136244 l 0.63106,-3.155347 1.26019,3.639971 c 1.03046,2.976412 1.0241,4.095043 -0.0349,6.136244 l -1.29508,2.496271 -0.59619,-2.980895 z m -36.24614,-2.028574 c 1.2791,-1.065584 2.83063,-1.922679 3.44785,-1.904652 0.61724,0.01803 0.0757,0.904616 -1.20336,1.9702 -1.27909,1.065584 -2.83062,1.922671 -3.44784,1.904651 -0.61723,-0.01803 -0.0758,-0.904616 1.20335,-1.970199 z m 40.28477,-4.64645 c -0.25577,-1.489958 -0.79681,-3.484782 -1.2023,-4.432939 -0.43677,-1.021283 -0.31168,-1.723923 0.30693,-1.723923 0.8825,0 3.08396,5.768618 3.10149,8.127062 0.015,2.010569 -1.80119,0.388636 -2.20612,-1.9702 z m -42.11782,0.39683 c 0,-0.771539 8.15946,-8.573588 8.55387,-8.179181 0.59598,0.59598 -4.56854,6.457615 -6.68992,7.592946 -1.02518,0.548651 -1.86395,0.812463 -1.86395,0.586235 z m -0.18445,-5.100293 c 2.15785,-2.451457 4.7073,-6.108635 5.66543,-8.127062 0.95811,-2.018429 1.91796,-3.142784 2.13299,-2.498567 0.66371,1.988462 -8.64208,15.08282 -10.71893,15.08282 -0.55158,0 0.76265,-2.005735 2.92051,-4.457191 z m 45.49898,2.695287 c 0,-0.969049 -0.8388,-3.407168 -1.864,-5.418043 -1.0252,-2.010875 -1.44682,-3.656136 -0.93694,-3.656136 0.98695,0 4.71315,7.535343 4.74951,9.604711 0.0119,0.677254 -0.42166,1.231372 -0.96346,1.231372 -0.54181,0 -0.98511,-0.792854 -0.98511,-1.761904 z m 7.88079,0.718669 c 0,-0.573779 0.4433,-0.769265 0.9851,-0.434411 0.54181,0.334853 0.9851,0.804312 0.9851,1.043232 0,0.238929 -0.44329,0.434414 -0.9851,0.434414 -0.5418,0 -0.9851,-0.469456 -0.9851,-1.043235 z M 278.7821,75.72382 c 0.009,-0.406353 1.18752,-1.84706 2.61812,-3.20157 2.7933,-2.644725 7.19044,-11.210302 7.20622,-14.037654 0.005,-0.948157 0.45291,-1.723922 0.99472,-1.723922 1.27495,0 1.26666,0.07809 -0.59834,5.62989 -2.16334,6.43989 -10.30664,17.063091 -10.22072,13.333256 z m 55.14849,-3.268424 c 0,-0.795297 -1.08188,-3.038123 -2.40418,-4.984061 -1.57495,-2.317745 -2.0702,-3.872039 -1.4359,-4.506349 0.63431,-0.634308 0.44423,-1.40321 -0.55111,-2.229268 -1.56555,-1.299288 -2.09149,-3.976409 -0.78058,-3.973283 0.40636,9.6e-4 1.99859,1.995794 3.5383,4.432943 2.7679,4.381196 4.34607,5.816538 3.24743,2.953535 -0.31186,-0.812707 -0.10852,-1.477648 0.45186,-1.477648 1.29513,0 0.41357,8.750737 -1.02665,10.190954 -0.72882,0.728826 -1.03917,0.60733 -1.03917,-0.406823 z m 6.89569,-0.483833 c 0,-0.844682 0.4433,-1.261815 0.9851,-0.926961 0.5418,0.334853 0.9851,1.025957 0.9851,1.535785 0,0.509829 -0.4433,0.926961 -0.9851,0.926961 -0.5418,0 -0.9851,-0.691103 -0.9851,-1.535785 z m -61.07611,-0.769619 c 0,-0.184363 1.37485,-3.086521 3.05522,-6.449237 1.68037,-3.362717 3.28905,-7.857311 3.57482,-9.987988 0.28579,-2.130676 0.85923,-3.664062 1.27431,-3.407524 0.4151,0.256538 0.34881,2.272963 -0.14729,4.480945 -1.20627,5.368691 -7.75706,18.343339 -7.75706,15.363804 z m 61.07611,-2.620088 c 0,-0.541805 0.4433,-0.985099 0.9851,-0.985099 0.5418,0 0.9851,0.443294 0.9851,0.985099 0,0.541804 -0.4433,0.985098 -0.9851,0.985098 -0.5418,0 -0.9851,-0.443294 -0.9851,-0.985098 z m -62.0612,-2.681998 c 0,-0.559435 0.63441,-1.543675 1.40981,-2.187197 0.7754,-0.643523 1.88363,-3.379387 2.46275,-6.079699 1.55014,-7.228075 1.12272,-10.211739 -0.50179,-3.502779 -0.76482,3.158566 -1.82264,6.483274 -2.35072,7.388239 -0.83405,1.429299 -0.96408,1.362721 -0.9901,-0.506949 -0.0165,-1.18379 0.45744,-3.400262 1.05315,-4.925493 0.59572,-1.525234 1.04699,-4.878799 1.00283,-7.452369 -0.0626,-3.652723 0.26311,-4.679218 1.48504,-4.679218 0.98666,0 1.3557,0.546238 0.99827,1.477647 -0.34539,0.900096 -0.002,1.477648 0.87971,1.477648 1.82698,0 1.81422,1.44319 -0.0866,9.800525 -0.87321,3.839209 -2.35757,7.487525 -3.44784,8.474205 -1.053,0.952928 -1.91452,1.274877 -1.91452,0.71544 z m 63.0463,-0.707709 c 0,-0.844682 0.44329,-1.535786 0.9851,-1.535786 0.54181,0 0.9851,0.417133 0.9851,0.926961 0,0.509829 -0.44329,1.200932 -0.9851,1.535786 -0.54181,0.334853 -0.9851,-0.08228 -0.9851,-0.926961 z m 0,-4.491082 c 0,-0.541803 0.41713,-0.985098 0.92696,-0.985098 0.50982,0 1.20093,0.443295 1.53578,0.985098 0.33486,0.541805 -0.0822,0.9851 -0.92695,0.9851 -0.84469,0 -1.53579,-0.443295 -1.53579,-0.9851 z m 7.06617,-3.371115 c 0.17714,-1.430401 0.76536,-2.586945 1.30717,-2.570102 1.4735,0.04581 1.18879,4.231486 -0.32207,4.735108 -0.91317,0.304393 -1.21009,-0.348154 -0.9851,-2.165006 z m -6.5512,-1.743109 c -0.37488,-0.916508 -0.53329,-2.426248 -0.35201,-3.354975 0.27753,-1.421913 0.50484,-1.469896 1.43922,-0.303818 0.64453,0.804363 0.79208,2.210568 0.35201,3.354976 -0.67729,1.761292 -0.82988,1.793507 -1.43922,0.303817 z"
     id="path4487"
     inkscape:connector-curvature="0" />
</svg>
