<?xml version="1.0" encoding="UTF-8" standalone="no"?>
<!-- Created with Inkscape (http://www.inkscape.org/) -->

<svg
   xmlns:dc="http://purl.org/dc/elements/1.1/"
   xmlns:cc="http://creativecommons.org/ns#"
   xmlns:rdf="http://www.w3.org/1999/02/22-rdf-syntax-ns#"
   xmlns:svg="http://www.w3.org/2000/svg"
   xmlns="http://www.w3.org/2000/svg"
   xmlns:xlink="http://www.w3.org/1999/xlink"
   xmlns:sodipodi="http://sodipodi.sourceforge.net/DTD/sodipodi-0.dtd"
   xmlns:inkscape="http://www.inkscape.org/namespaces/inkscape"
   width="745.2746"
   height="288.07001"
   id="svg2"
   version="1.1"
   inkscape:version="0.92.4 (5da689c313, 2019-01-14)"
   sodipodi:docname="l3-routing-full-v2.svg"
   inkscape:export-filename="/home/bernat/code/perso/www.luffy.cx/content/media/images/vxlan/multicast-native.png"
   inkscape:export-xdpi="36.425449"
   inkscape:export-ydpi="36.425449"
   viewBox="0 0 1117.9119 432.10501">
  <sodipodi:namedview
     id="base"
     pagecolor="#ffffff"
     bordercolor="#666666"
     borderopacity="1.0"
     inkscape:pageopacity="0.0"
     inkscape:pageshadow="2"
     inkscape:zoom="1"
     inkscape:cx="-101.36571"
     inkscape:cy="84.068561"
     inkscape:document-units="px"
     inkscape:current-layer="layer1"
     showgrid="false"
     inkscape:window-width="2552"
     inkscape:window-height="1408"
     inkscape:window-x="0"
     inkscape:window-y="24"
     inkscape:window-maximized="1"
     fit-margin-top="5"
     fit-margin-left="10"
     fit-margin-right="10"
     fit-margin-bottom="10"
     showguides="true"
     inkscape:guide-bbox="true"
     inkscape:pagecheckerboard="false"
     scale-x="2" />
  <defs
     id="defs4">
    <marker
       inkscape:stockid="Arrow2Mstart"
       orient="auto"
       refY="0"
       refX="0"
       id="Arrow2Mstart"
       style="overflow:visible">
      <path
         id="path7882"
         style="fill-rule:evenodd;stroke-width:0.625;stroke-linejoin:round"
         d="M 8.7185878,4.0337352 -2.2072895,0.01601326 8.7185884,-4.0017078 c -1.7454984,2.3720609 -1.7354408,5.6174519 -6e-7,8.035443 z"
         transform="scale(0.6)"
         inkscape:connector-curvature="0" />
    </marker>
    <linearGradient
       id="linearGradient12001">
      <stop
         style="stop-color:#1b4a78;stop-opacity:1;"
         offset="0"
         id="stop12003" />
      <stop
         style="stop-color:#5dacd1;stop-opacity:1;"
         offset="1"
         id="stop12005" />
    </linearGradient>
    <linearGradient
       id="linearGradient12828">
      <stop
         id="stop12830"
         offset="0"
         style="stop-color:#484849;stop-opacity:1;" />
      <stop
         style="stop-color:#434344;stop-opacity:1;"
         offset="0"
         id="stop12862" />
      <stop
         id="stop12832"
         offset="1.0000000"
         style="stop-color:#8f8f90;stop-opacity:0.0000000;" />
    </linearGradient>
    <linearGradient
       id="linearGradient1400">
      <stop
         id="stop1401"
         offset="0.0000000"
         style="stop-color:#000000;stop-opacity:0.67843139;" />
      <stop
         id="stop1403"
         offset="0.41707692"
         style="stop-color:#000000;stop-opacity:0.34831461;" />
      <stop
         id="stop1402"
         offset="1.0000000"
         style="stop-color:#ffffff;stop-opacity:0.0000000;" />
    </linearGradient>
    <linearGradient
       id="linearGradient853">
      <stop
         id="stop854"
         offset="0.0000000"
         style="stop-color:#e3f9ff;stop-opacity:1.0000000;" />
      <stop
         id="stop867"
         offset="0.36194703"
         style="stop-color:#73bee7;stop-opacity:1.0000000;" />
      <stop
         id="stop856"
         offset="0.62534887"
         style="stop-color:#438ec5;stop-opacity:1.0000000;" />
      <stop
         id="stop1185"
         offset="0.72607356"
         style="stop-color:#477daf;stop-opacity:1.0000000;" />
      <stop
         id="stop855"
         offset="1.0000000"
         style="stop-color:#020407;stop-opacity:1.0000000;" />
    </linearGradient>
    <linearGradient
       id="linearGradient865">
      <stop
         id="stop866"
         offset="0.00000000"
         style="stop-color:#ffffff;stop-opacity:1.0000000;" />
      <stop
         id="stop868"
         offset="1.0000000"
         style="stop-color:#ffffff;stop-opacity:0.00000000;" />
    </linearGradient>
    <linearGradient
       id="linearGradient2648">
      <stop
         id="stop2649"
         offset="0.0000000"
         style="stop-color:#ffffff;stop-opacity:1.0000000;" />
      <stop
         id="stop2650"
         offset="1.0000000"
         style="stop-color:#4d4d4d;stop-opacity:1.0000000;" />
    </linearGradient>
    <linearGradient
       id="linearGradient3070">
      <stop
         id="stop3071"
         offset="0.0000000"
         style="stop-color:#ffffff;stop-opacity:1.0000000;" />
      <stop
         id="stop3072"
         offset="1.0000000"
         style="stop-color:#ffffff;stop-opacity:0.0000000;" />
    </linearGradient>
    <linearGradient
       id="linearGradient2698">
      <stop
         id="stop2699"
         offset="0.0000000"
         style="stop-color:#000000;stop-opacity:1.0000000;" />
      <stop
         id="stop2700"
         offset="1.0000000"
         style="stop-color:#000000;stop-opacity:0.0000000;" />
    </linearGradient>
    <symbol
       viewBox="0 0 119.064 137.78"
       id="svg_56">
      <g
         id="svg_8">
        <linearGradient
           y2="0.50001299"
           y1="0.50001299"
           x2="0.99999702"
           x1="-2e-06"
           id="svg_50">
          <stop
             stop-color="#DFDFDF"
             offset="0"
             id="svg_55" />
          <stop
             stop-color="#DADADA"
             offset="0.2168"
             id="svg_54" />
          <stop
             stop-color="#CBCBCB"
             offset="0.4798"
             id="svg_53" />
          <stop
             stop-color="#B3B3B3"
             offset="0.7655"
             id="svg_52" />
          <stop
             stop-color="#9A9999"
             offset="1"
             id="svg_51" />
        </linearGradient>
        <path
           id="svg_49"
           d="m 59.244999,81.758003 c -16.197998,0 -34.292,0.913994 -49.353999,7.531998 -9.702,4.264 -8.862,9.426003 -8.862,18.819999 0,10.063 -1.553,16.549 8.862,21.125 15.061999,6.618 33.156001,7.532 49.353999,7.532 16.196003,0 34.290005,-0.914 49.353001,-7.532 10.408,-4.575 8.859,-11.047 8.859,-21.107 0,-9.400003 0.848,-14.572 -8.859,-18.837998 C 93.535004,82.671998 75.441002,81.758004 59.244999,81.758004"
           inkscape:connector-curvature="0"
           style="fill:url(#svg_50)" />
        <linearGradient
           y2="4.6125088"
           y1="-1.815531"
           x2="0.501445"
           x1="0.501445"
           id="svg_46">
          <stop
             stop-color="#FFFFFF"
             offset="0"
             id="svg_48" />
          <stop
             stop-color="#000000"
             offset="1"
             id="svg_47" />
        </linearGradient>
        <path
           id="svg_45"
           d="m 0.111,97.803001 c 0,7.477999 0,14.951999 0,22.429999 0,10.707 20.244,13.58299 27.649,14.884 19.037001,3.34 38.953997,3.471 58.076998,0.771 7.418999,-1.048 32.537002,-3.76401 32.537002,-15.165 1.182,-7.064 0,-15.253 0,-22.430001 0,-10.705002 -20.244002,-13.582001 -27.648002,-14.881996 C 71.688011,80.067001 51.772999,79.938003 32.650002,82.638 25.231001,83.685997 0.111,86.403999 0.111,97.803001 M 1.945,120.723 c 0,-7.115 -1.563,-16.009 0,-22.919999 0,-8.952003 21.52,-11.870003 27.212,-12.829002 19.661001,-3.309998 40.514997,-3.309998 60.175001,0 5.690002,0.959 27.208999,3.876999 27.208999,12.829002 0.727,3.216999 0,7.432999 0,10.713999 0,3.741 0.83,8.542 0,12.206 0,8.954 -21.515998,11.87 -27.208999,12.82999 -19.660004,3.31002 -40.514999,3.31002 -60.175001,0 C 23.463,132.593 1.945,129.677 1.945,120.723"
           inkscape:connector-curvature="0"
           style="fill:url(#svg_46)" />
        <path
           id="svg_44"
           d="m 115.27,94.800003 c 0.684,4.563995 0.051,9.645997 0.051,14.247997 0,3.567 1.216,9.359 -1.346,12.368 -4.271,5.016 -12.504,6.90601 -18.576997,8.336 -11.800003,2.774 -24.058006,3.65201 -36.152004,3.65201 -11.452,0 -23.014999,-0.80802 -34.229998,-3.22101 C 18.434,128.767 10.104,126.943 5.098,122.037 2.114,119.114 3.169,114.277 3.169,110.495 3.169,105.448 2.427,99.797997 3.221,94.799004 0.182,98.452004 1.946,107.188 1.946,111.491 c 0,3.515 -1.218,9.307 1.302,12.281 4.13,4.88201 12.11,6.751 17.999,8.17501 12.385,2.99299 25.292002,3.901 38.000002,3.901 12.085999,0 24.309998,-0.84801 36.130997,-3.47101 6.381001,-1.41499 14.459001,-3.22099 19.302001,-7.998 2.923,-2.884 1.863,-7.728 1.863,-11.439 -0.002,-4.587 1.957,-14.257 -1.273,-18.139995"
           inkscape:connector-curvature="0"
           style="fill:#c6c6c6" />
        <path
           id="svg_43"
           d="m 115.32,101.431 c 0,3.094 -9.531,6.556 -11.499,7.342 -13.090997,5.226 -27.680001,6.585 -41.647,6.774 -15.248001,0.207 -31.056999,-1.056 -45.492001,-6.316 C 15.898,108.947 1.985,103.03 3.19,101.36 c 0.262,-0.363 11.674,4.182 12.449,4.4 15.042,4.235 31,5.146 46.550999,4.978 13.896,-0.147 28.103001,-1.225 41.503001,-5.145 0.839,-0.244 11.627,-3.557 11.627,-4.162"
           inkscape:connector-curvature="0"
           style="fill:#e5e5e5" />
        <path
           id="svg_42"
           d="M 59.244999,0.097 C 42.931999,0.097 24.673,1.076 9.507,7.709 -0.749,12.193 0.111,18.006 0.111,27.771 c 0,9.221001 -1.663,16.163002 7.861,20.844002 C 23.212999,56.105 42.597,56.938 59.244999,56.938 c 16.313,0 34.568005,-0.980999 49.734001,-7.612999 10.256,-4.485001 9.396,-10.297001 9.396,-20.062 0,-9.222 1.663,-16.164001 -7.86,-20.844001 C 95.274002,0.93 75.891998,0.097 59.244999,0.097"
           inkscape:connector-curvature="0"
           style="fill:#f4f2f2" />
        <path
           id="svg_41"
           d="m 6.055,93.084999 c 4.915,4.905998 13.095999,6.689003 19.621001,8.074001 10.997,2.335 22.342001,3.196 33.568998,3.196 10.459003,0 20.991001,-0.771 31.272999,-2.734 C 97.709999,100.248 107.015,98.496002 112.43599,93.084999 107.521,88.176002 99.339989,86.393997 92.814004,85.007004 81.818002,82.671997 70.472001,81.810997 59.245,81.810997 c -10.459,0 -20.990997,0.771004 -31.272999,2.733002 -7.191999,1.373001 -16.497,3.126999 -21.917,8.541"
           inkscape:connector-curvature="0"
           style="fill:#7c7c7c" />
        <linearGradient
           y2="0.49999499"
           y1="0.49999499"
           x2="0.99999702"
           x1="-2e-06"
           id="svg_35">
          <stop
             stop-color="#DFDFDF"
             offset="0"
             id="svg_40" />
          <stop
             stop-color="#DADADA"
             offset="0.2168"
             id="svg_39" />
          <stop
             stop-color="#CBCBCB"
             offset="0.4798"
             id="svg_38" />
          <stop
             stop-color="#B3B3B3"
             offset="0.7655"
             id="svg_37" />
          <stop
             stop-color="#9A9999"
             offset="1"
             id="svg_36" />
        </linearGradient>
        <path
           id="svg_34"
           d="m 59.244999,41.384998 c -16.197998,0 -34.292,0.912003 -49.353999,7.531002 -9.702,4.263 -8.862,9.426998 -8.862,18.820999 0,10.065002 -1.553,16.546997 8.862,21.125 15.061999,6.616997 33.156001,7.529999 49.353999,7.529999 16.196003,0 34.290005,-0.913002 49.353001,-7.529999 10.408,-4.575996 8.859,-11.047997 8.859,-21.108002 0,-9.400997 0.848,-14.572998 -8.859,-18.837997 C 93.535004,42.297001 75.441002,41.384998 59.244999,41.384998"
           inkscape:connector-curvature="0"
           style="fill:url(#svg_35)" />
        <linearGradient
           y2="4.610373"
           y1="-1.826594"
           x2="0.49710399"
           x1="0.49710399"
           id="svg_31">
          <stop
             stop-color="#FFFFFF"
             offset="0"
             id="svg_33" />
          <stop
             stop-color="#000000"
             offset="1"
             id="svg_32" />
        </linearGradient>
        <path
           id="svg_30"
           d="m 0.111,57.429001 c 0,7.476997 0,14.954002 0,22.43 0,10.707001 20.243,13.584999 27.649,14.883995 19.037001,3.343002 38.953997,3.471001 58.076998,0.772003 C 93.25901,94.467002 118.374,91.75 118.374,80.348999 c 1.182,-7.066002 0,-15.251999 0,-22.431 0,-10.705997 -20.244002,-13.583 -27.648002,-14.882999 C 71.688011,39.692001 51.772999,39.563 32.650002,42.262001 25.231001,43.311001 0.111,46.028999 0.111,57.429001 m 1.834,22.919998 c 0,-7.114998 -1.564,-16.010002 0,-22.919998 0,-8.951 21.521,-11.871002 27.212,-12.829002 19.661001,-3.310997 40.514997,-3.310997 60.175001,0 5.690002,0.958 27.208999,3.878002 27.208999,12.829002 0.729,3.215 0,7.432999 0,10.712997 0,3.742004 0.83,8.542999 0,12.208 C 116.541,89.303001 95.022004,92.221 89.332001,93.18 69.671997,96.489998 48.817002,96.489998 29.157,93.18 23.464001,92.220001 1.945,89.302002 1.945,80.348999"
           inkscape:connector-curvature="0"
           style="fill:url(#svg_31)" />
        <path
           id="svg_29"
           d="m 115.27,54.424999 c 0.671,4.573002 0.051,9.643002 0.051,14.252003 0,3.564995 1.216,9.359001 -1.346,12.367996 -4.271,5.014999 -12.505,6.904999 -18.576997,8.334 -11.800003,2.777 -24.058006,3.653999 -36.152004,3.653999 -11.452,0 -23.014999,-0.809998 -34.229998,-3.223 C 18.434,88.396003 10.106,86.570999 5.098,81.666 2.114,78.742996 3.169,73.905998 3.169,70.124 3.169,65.068 2.441,59.433998 3.221,54.423999 0.18,58.077998 1.946,66.815002 1.946,71.117995 c 0,3.514008 -1.218,9.306007 1.302,12.282005 4.13,4.882996 12.11,6.75 17.999,8.172997 12.385,2.994003 25.292002,3.902 38.000002,3.902 12.085999,0 24.309998,-0.848 36.130997,-3.471001 6.381001,-1.414001 14.458001,-3.222 19.302001,-8 2.923,-2.880997 1.863,-7.726997 1.863,-11.438995 -0.002,-4.586006 1.959,-14.257004 -1.273,-18.140003"
           inkscape:connector-curvature="0"
           style="fill:#c6c6c6" />
        <path
           id="svg_28"
           d="m 115.32,61.056 c 0,3.097 -9.527,6.556 -11.499,7.343002 C 90.730003,73.625 76.140999,74.982002 62.174,75.170998 46.925999,75.377999 31.117001,74.117997 16.681999,68.857003 15.899,68.571999 1.982,62.652001 3.19,60.984002 c 0.264,-0.363003 11.671999,4.182999 12.449,4.400002 15.042,4.237 31,5.144997 46.550999,4.977997 13.896,-0.147003 28.103001,-1.223999 41.503001,-5.144997 0.839,-0.244003 11.627,-3.553001 11.627,-4.161003"
           inkscape:connector-curvature="0"
           style="fill:#e5e5e5" />
        <path
           id="svg_27"
           d="m 6.055,52.495998 c 4.914,4.908001 13.095999,6.691002 19.621001,8.076 10.997,2.334 22.344,3.195 33.568998,3.195 10.459003,0 20.991001,-0.771 31.272999,-2.731998 C 97.709999,59.662998 107.017,57.91 112.43599,52.495999 107.523,47.588002 99.339989,45.805001 92.814004,44.421002 c -10.996002,-2.334 -22.342003,-3.194 -33.569004,-3.194 -10.459,0 -20.990997,0.77 -31.272999,2.731998 -7.191999,1.371002 -16.497,3.124001 -21.917,8.536999"
           inkscape:connector-curvature="0"
           style="fill:#7c7c7c" />
        <linearGradient
           y2="0.499993"
           y1="0.499993"
           x2="0.99999702"
           x1="-2e-06"
           id="svg_21">
          <stop
             stop-color="#DFDFDF"
             offset="0"
             id="svg_26" />
          <stop
             stop-color="#DADADA"
             offset="0.2168"
             id="svg_25" />
          <stop
             stop-color="#CBCBCB"
             offset="0.4798"
             id="svg_24" />
          <stop
             stop-color="#B3B3B3"
             offset="0.7655"
             id="svg_23" />
          <stop
             stop-color="#9A9999"
             offset="1"
             id="svg_22" />
        </linearGradient>
        <path
           id="svg_20"
           d="m 59.244999,1.013 c -16.197998,0 -34.292,0.914 -49.353999,7.533 -9.702,4.263 -8.862,9.425001 -8.862,18.819 0,10.065001 -1.553,16.549002 8.862,21.125002 15.061999,6.618999 33.156001,7.532997 49.353999,7.532997 16.196003,0 34.290005,-0.913998 49.353001,-7.532997 10.408,-4.574001 8.859,-11.047001 8.859,-21.106001 C 117.457,17.983 118.305,12.811 108.598,8.546 93.535004,1.927001 75.441002,1.013 59.244999,1.013"
           inkscape:connector-curvature="0"
           style="fill:url(#svg_21)" />
        <linearGradient
           y2="4.6052451"
           y1="-1.811263"
           x2="0.501445"
           x1="0.501445"
           id="svg_17">
          <stop
             stop-color="#FFFFFF"
             offset="0"
             id="svg_19" />
          <stop
             stop-color="#000000"
             offset="1"
             id="svg_18" />
        </linearGradient>
        <path
           id="svg_16"
           d="m 0.111,17.058001 c 0,7.476999 0,14.951998 0,22.428999 0,10.706001 20.244,13.583 27.649,14.882999 19.037001,3.342003 38.953997,3.473 58.076998,0.773003 7.418999,-1.048 32.537002,-3.766003 32.537002,-15.165001 1.182,-7.066002 0,-15.253 0,-22.429001 C 118.374,6.841 98.132012,3.965 90.725998,2.664 71.688011,-0.678 51.772999,-0.807 32.650002,1.893 25.229001,2.94 0.111,5.657 0.111,17.058 m 1.834,22.92 c 0,-7.116001 -1.563,-16.009001 0,-22.919001 0,-8.954 21.519001,-11.87 27.212,-12.83 19.661001,-3.309 40.514997,-3.309 60.175001,0 5.693001,0.96 27.208999,3.875999 27.208999,12.83 0.727,3.216 0,7.431999 0,10.712999 0,3.742001 0.83,8.542 0,12.206001 0,8.952 -21.518996,11.869999 -27.208999,12.829998 -19.660004,3.309002 -40.514999,3.309002 -60.175001,0 C 23.464001,51.847998 1.945,48.929999 1.945,39.977999"
           inkscape:connector-curvature="0"
           style="fill:url(#svg_17)" />
        <path
           id="svg_15"
           d="m 115.27,14.055 c 0.688,4.560999 0.051,9.649 0.051,14.247999 0,3.565001 1.216,9.358999 -1.346,12.368002 C 109.704,45.687 101.471,47.577999 95.398003,49.007 83.598,51.782002 71.339997,52.66 59.245999,52.66 47.793999,52.66 36.231,51.852001 25.016001,49.439999 18.434,48.022999 10.104,46.199002 5.098,41.293999 2.114,38.369999 3.169,33.533001 3.169,29.752001 3.169,24.709 2.42,19.051001 3.221,14.056 0.182,17.709999 1.946,26.445 1.946,30.747999 c 0,3.516001 -1.218,9.305002 1.302,12.282 4.13,4.882 12.11,6.75 17.999,8.172001 12.385,2.994999 25.292002,3.903999 38.000002,3.903999 12.085999,0 24.309998,-0.848 36.130997,-3.471001 6.381001,-1.414997 14.458001,-3.222 19.302001,-8 2.923,-2.880997 1.863,-7.724998 1.863,-11.438 C 116.541,27.607 118.5,17.937999 115.27,14.055"
           inkscape:connector-curvature="0"
           style="fill:#c6c6c6" />
        <path
           id="svg_14"
           d="m 115.32,20.686001 c 0,3.094 -9.531,6.556 -11.499,7.341 C 90.730003,33.252999 76.140999,34.612 62.174,34.800999 46.925999,35.008 31.117001,33.745999 16.681999,28.485001 15.898,28.200001 1.985,22.284001 3.19,20.614001 c 0.262,-0.363001 11.674,4.181 12.449,4.4 15.042,4.235001 31,5.145 46.550999,4.978001 13.896,-0.148001 28.103001,-1.226 41.503001,-5.145 0.839,-0.243999 11.627,-3.556999 11.627,-4.160999"
           inkscape:connector-curvature="0"
           style="fill:#e5e5e5" />
        <path
           id="svg_13"
           d="m 6.406,14.686 c 15.486,8.523 36.565001,8.748 53.676001,8.582999 11.762001,-0.115 23.613998,-0.799999 35.222,-2.802 C 100.923,19.497 109.67,18.535 113.851,14.066 108.159,9.316 99.467003,7.761 92.414002,6.473 80.549012,4.307 68.414002,3.652 56.369,3.77 45.55,3.876 34.588002,4.46 23.972001,6.657 c -5.691999,1.176 -13.998,2.832 -17.566,8.029"
           inkscape:connector-curvature="0"
           style="fill:#eaeaea" />
        <path
           id="svg_12"
           d="m 75.179001,7.957 c 8.388,0.161 16.834999,0.947 24.992999,2.965 0.513,0.126 8.388,2.143 8.388,2.402 0,-1.625 -12.061,-3.779 -13.160998,-4.017 C 83.467003,6.721 71.218002,5.464 59.014,5.333 47.720001,5.214 36.308998,5.961 25.229,8.233 c -1.167999,0.239 -12.772,2.226 -12.772,4.119 0,3.243 36.385999,4.876 38.848001,4.988999 3.257,0.15 20.747002,3.581001 16.653999,-2.646999 C 64.019997,8.7 69.724999,7.852 75.179001,7.957"
           inkscape:connector-curvature="0"
           style="fill:#f4f4f4" />
        <path
           id="svg_11"
           d="m 1.712,33.571999 c 45.737001,14.099003 73.127996,12.257 117.202,-1.648998"
           inkscape:connector-curvature="0"
           style="fill:none;stroke:#9a9999" />
        <path
           id="svg_10"
           d="M 1.37,72.804001 C 47.106998,86.903999 74.498001,85.060997 118.572,71.154999"
           inkscape:connector-curvature="0"
           style="fill:none;stroke:#9a9999" />
        <path
           id="svg_9"
           d="m 0.916,112.063 c 45.737,14.098 73.127999,12.256 117.202,-1.65"
           inkscape:connector-curvature="0"
           style="fill:none;stroke:#9a9999" />
      </g>
    </symbol>
    <symbol
       viewBox="0 0 119.064 137.78"
       id="svg_56-1">
      <g
         id="svg_8-6">
        <linearGradient
           y2="0.50001299"
           y1="0.50001299"
           x2="0.99999702"
           x1="-2e-06"
           id="svg_50-2">
          <stop
             stop-color="#DFDFDF"
             offset="0"
             id="svg_55-2" />
          <stop
             stop-color="#DADADA"
             offset="0.2168"
             id="svg_54-3" />
          <stop
             stop-color="#CBCBCB"
             offset="0.4798"
             id="svg_53-9" />
          <stop
             stop-color="#B3B3B3"
             offset="0.7655"
             id="svg_52-4" />
          <stop
             stop-color="#9A9999"
             offset="1"
             id="svg_51-1" />
        </linearGradient>
        <path
           style="fill:url(#svg_50-2)"
           id="svg_49-7"
           d="m 59.244999,81.758003 c -16.197998,0 -34.292,0.913994 -49.353999,7.531998 -9.702,4.264 -8.862,9.426003 -8.862,18.819999 0,10.063 -1.553,16.549 8.862,21.125 15.061999,6.618 33.156001,7.532 49.353999,7.532 16.196003,0 34.290005,-0.914 49.353001,-7.532 10.408,-4.575 8.859,-11.047 8.859,-21.107 0,-9.400003 0.848,-14.572 -8.859,-18.837998 C 93.535004,82.671998 75.441002,81.758004 59.244999,81.758004"
           inkscape:connector-curvature="0" />
        <linearGradient
           y2="4.6125088"
           y1="-1.815531"
           x2="0.501445"
           x1="0.501445"
           id="svg_46-3">
          <stop
             stop-color="#FFFFFF"
             offset="0"
             id="svg_48-5" />
          <stop
             stop-color="#000000"
             offset="1"
             id="svg_47-9" />
        </linearGradient>
        <path
           style="fill:url(#svg_46-3)"
           id="svg_45-2"
           d="m 0.111,97.803001 c 0,7.477999 0,14.951999 0,22.429999 0,10.707 20.244,13.58299 27.649,14.884 19.037001,3.34 38.953997,3.471 58.076998,0.771 7.418999,-1.048 32.537002,-3.76401 32.537002,-15.165 1.182,-7.064 0,-15.253 0,-22.430001 0,-10.705002 -20.244002,-13.582001 -27.648002,-14.881996 C 71.688011,80.067001 51.772999,79.938003 32.650002,82.638 25.231001,83.685997 0.111,86.403999 0.111,97.803001 M 1.945,120.723 c 0,-7.115 -1.563,-16.009 0,-22.919999 0,-8.952003 21.52,-11.870003 27.212,-12.829002 19.661001,-3.309998 40.514997,-3.309998 60.175001,0 5.690002,0.959 27.208999,3.876999 27.208999,12.829002 0.727,3.216999 0,7.432999 0,10.713999 0,3.741 0.83,8.542 0,12.206 0,8.954 -21.515998,11.87 -27.208999,12.82999 -19.660004,3.31002 -40.514999,3.31002 -60.175001,0 C 23.463,132.593 1.945,129.677 1.945,120.723"
           inkscape:connector-curvature="0" />
        <path
           id="svg_44-0"
           d="m 115.27,94.800003 c 0.684,4.563995 0.051,9.645997 0.051,14.247997 0,3.567 1.216,9.359 -1.346,12.368 -4.271,5.016 -12.504,6.90601 -18.576997,8.336 -11.800003,2.774 -24.058006,3.65201 -36.152004,3.65201 -11.452,0 -23.014999,-0.80802 -34.229998,-3.22101 C 18.434,128.767 10.104,126.943 5.098,122.037 2.114,119.114 3.169,114.277 3.169,110.495 3.169,105.448 2.427,99.797997 3.221,94.799004 0.182,98.452004 1.946,107.188 1.946,111.491 c 0,3.515 -1.218,9.307 1.302,12.281 4.13,4.88201 12.11,6.751 17.999,8.17501 12.385,2.99299 25.292002,3.901 38.000002,3.901 12.085999,0 24.309998,-0.84801 36.130997,-3.47101 6.381001,-1.41499 14.459001,-3.22099 19.302001,-7.998 2.923,-2.884 1.863,-7.728 1.863,-11.439 -0.002,-4.587 1.957,-14.257 -1.273,-18.139995"
           inkscape:connector-curvature="0"
           style="fill:#c6c6c6" />
        <path
           id="svg_43-0"
           d="m 115.32,101.431 c 0,3.094 -9.531,6.556 -11.499,7.342 -13.090997,5.226 -27.680001,6.585 -41.647,6.774 -15.248001,0.207 -31.056999,-1.056 -45.492001,-6.316 C 15.898,108.947 1.985,103.03 3.19,101.36 c 0.262,-0.363 11.674,4.182 12.449,4.4 15.042,4.235 31,5.146 46.550999,4.978 13.896,-0.147 28.103001,-1.225 41.503001,-5.145 0.839,-0.244 11.627,-3.557 11.627,-4.162"
           inkscape:connector-curvature="0"
           style="fill:#e5e5e5" />
        <path
           id="svg_42-7"
           d="M 59.244999,0.097 C 42.931999,0.097 24.673,1.076 9.507,7.709 -0.749,12.193 0.111,18.006 0.111,27.771 c 0,9.221001 -1.663,16.163002 7.861,20.844002 C 23.212999,56.105 42.597,56.938 59.244999,56.938 c 16.313,0 34.568005,-0.980999 49.734001,-7.612999 10.256,-4.485001 9.396,-10.297001 9.396,-20.062 0,-9.222 1.663,-16.164001 -7.86,-20.844001 C 95.274002,0.93 75.891998,0.097 59.244999,0.097"
           inkscape:connector-curvature="0"
           style="fill:#f4f2f2" />
        <path
           id="svg_41-3"
           d="m 6.055,93.084999 c 4.915,4.905998 13.095999,6.689003 19.621001,8.074001 10.997,2.335 22.342001,3.196 33.568998,3.196 10.459003,0 20.991001,-0.771 31.272999,-2.734 C 97.709999,100.248 107.015,98.496002 112.43599,93.084999 107.521,88.176002 99.339989,86.393997 92.814004,85.007004 81.818002,82.671997 70.472001,81.810997 59.245,81.810997 c -10.459,0 -20.990997,0.771004 -31.272999,2.733002 -7.191999,1.373001 -16.497,3.126999 -21.917,8.541"
           inkscape:connector-curvature="0"
           style="fill:#7c7c7c" />
        <linearGradient
           y2="0.49999499"
           y1="0.49999499"
           x2="0.99999702"
           x1="-2e-06"
           id="svg_35-7">
          <stop
             stop-color="#DFDFDF"
             offset="0"
             id="svg_40-8" />
          <stop
             stop-color="#DADADA"
             offset="0.2168"
             id="svg_39-1" />
          <stop
             stop-color="#CBCBCB"
             offset="0.4798"
             id="svg_38-6" />
          <stop
             stop-color="#B3B3B3"
             offset="0.7655"
             id="svg_37-8" />
          <stop
             stop-color="#9A9999"
             offset="1"
             id="svg_36-0" />
        </linearGradient>
        <path
           style="fill:url(#svg_35-7)"
           id="svg_34-5"
           d="m 59.244999,41.384998 c -16.197998,0 -34.292,0.912003 -49.353999,7.531002 -9.702,4.263 -8.862,9.426998 -8.862,18.820999 0,10.065002 -1.553,16.546997 8.862,21.125 15.061999,6.616997 33.156001,7.529999 49.353999,7.529999 16.196003,0 34.290005,-0.913002 49.353001,-7.529999 10.408,-4.575996 8.859,-11.047997 8.859,-21.108002 0,-9.400997 0.848,-14.572998 -8.859,-18.837997 C 93.535004,42.297001 75.441002,41.384998 59.244999,41.384998"
           inkscape:connector-curvature="0" />
        <linearGradient
           y2="4.610373"
           y1="-1.826594"
           x2="0.49710399"
           x1="0.49710399"
           id="svg_31-3">
          <stop
             stop-color="#FFFFFF"
             offset="0"
             id="svg_33-2" />
          <stop
             stop-color="#000000"
             offset="1"
             id="svg_32-8" />
        </linearGradient>
        <path
           style="fill:url(#svg_31-3)"
           id="svg_30-3"
           d="m 0.111,57.429001 c 0,7.476997 0,14.954002 0,22.43 0,10.707001 20.243,13.584999 27.649,14.883995 19.037001,3.343002 38.953997,3.471001 58.076998,0.772003 C 93.25901,94.467002 118.374,91.75 118.374,80.348999 c 1.182,-7.066002 0,-15.251999 0,-22.431 0,-10.705997 -20.244002,-13.583 -27.648002,-14.882999 C 71.688011,39.692001 51.772999,39.563 32.650002,42.262001 25.231001,43.311001 0.111,46.028999 0.111,57.429001 m 1.834,22.919998 c 0,-7.114998 -1.564,-16.010002 0,-22.919998 0,-8.951 21.521,-11.871002 27.212,-12.829002 19.661001,-3.310997 40.514997,-3.310997 60.175001,0 5.690002,0.958 27.208999,3.878002 27.208999,12.829002 0.729,3.215 0,7.432999 0,10.712997 0,3.742004 0.83,8.542999 0,12.208 C 116.541,89.303001 95.022004,92.221 89.332001,93.18 69.671997,96.489998 48.817002,96.489998 29.157,93.18 23.464001,92.220001 1.945,89.302002 1.945,80.348999"
           inkscape:connector-curvature="0" />
        <path
           id="svg_29-4"
           d="m 115.27,54.424999 c 0.671,4.573002 0.051,9.643002 0.051,14.252003 0,3.564995 1.216,9.359001 -1.346,12.367996 -4.271,5.014999 -12.505,6.904999 -18.576997,8.334 -11.800003,2.777 -24.058006,3.653999 -36.152004,3.653999 -11.452,0 -23.014999,-0.809998 -34.229998,-3.223 C 18.434,88.396003 10.106,86.570999 5.098,81.666 2.114,78.742996 3.169,73.905998 3.169,70.124 3.169,65.068 2.441,59.433998 3.221,54.423999 0.18,58.077998 1.946,66.815002 1.946,71.117995 c 0,3.514008 -1.218,9.306007 1.302,12.282005 4.13,4.882996 12.11,6.75 17.999,8.172997 12.385,2.994003 25.292002,3.902 38.000002,3.902 12.085999,0 24.309998,-0.848 36.130997,-3.471001 6.381001,-1.414001 14.458001,-3.222 19.302001,-8 2.923,-2.880997 1.863,-7.726997 1.863,-11.438995 -0.002,-4.586006 1.959,-14.257004 -1.273,-18.140003"
           inkscape:connector-curvature="0"
           style="fill:#c6c6c6" />
        <path
           id="svg_28-8"
           d="m 115.32,61.056 c 0,3.097 -9.527,6.556 -11.499,7.343002 C 90.730003,73.625 76.140999,74.982002 62.174,75.170998 46.925999,75.377999 31.117001,74.117997 16.681999,68.857003 15.899,68.571999 1.982,62.652001 3.19,60.984002 c 0.264,-0.363003 11.671999,4.182999 12.449,4.400002 15.042,4.237 31,5.144997 46.550999,4.977997 13.896,-0.147003 28.103001,-1.223999 41.503001,-5.144997 0.839,-0.244003 11.627,-3.553001 11.627,-4.161003"
           inkscape:connector-curvature="0"
           style="fill:#e5e5e5" />
        <path
           id="svg_27-7"
           d="m 6.055,52.495998 c 4.914,4.908001 13.095999,6.691002 19.621001,8.076 10.997,2.334 22.344,3.195 33.568998,3.195 10.459003,0 20.991001,-0.771 31.272999,-2.731998 C 97.709999,59.662998 107.017,57.91 112.43599,52.495999 107.523,47.588002 99.339989,45.805001 92.814004,44.421002 c -10.996002,-2.334 -22.342003,-3.194 -33.569004,-3.194 -10.459,0 -20.990997,0.77 -31.272999,2.731998 -7.191999,1.371002 -16.497,3.124001 -21.917,8.536999"
           inkscape:connector-curvature="0"
           style="fill:#7c7c7c" />
        <linearGradient
           y2="0.499993"
           y1="0.499993"
           x2="0.99999702"
           x1="-2e-06"
           id="svg_21-5">
          <stop
             stop-color="#DFDFDF"
             offset="0"
             id="svg_26-5" />
          <stop
             stop-color="#DADADA"
             offset="0.2168"
             id="svg_25-9" />
          <stop
             stop-color="#CBCBCB"
             offset="0.4798"
             id="svg_24-9" />
          <stop
             stop-color="#B3B3B3"
             offset="0.7655"
             id="svg_23-8" />
          <stop
             stop-color="#9A9999"
             offset="1"
             id="svg_22-1" />
        </linearGradient>
        <path
           style="fill:url(#svg_21-5)"
           id="svg_20-5"
           d="m 59.244999,1.013 c -16.197998,0 -34.292,0.914 -49.353999,7.533 -9.702,4.263 -8.862,9.425001 -8.862,18.819 0,10.065001 -1.553,16.549002 8.862,21.125002 15.061999,6.618999 33.156001,7.532997 49.353999,7.532997 16.196003,0 34.290005,-0.913998 49.353001,-7.532997 10.408,-4.574001 8.859,-11.047001 8.859,-21.106001 C 117.457,17.983 118.305,12.811 108.598,8.546 93.535004,1.927001 75.441002,1.013 59.244999,1.013"
           inkscape:connector-curvature="0" />
        <linearGradient
           y2="4.6052451"
           y1="-1.811263"
           x2="0.501445"
           x1="0.501445"
           id="svg_17-1">
          <stop
             stop-color="#FFFFFF"
             offset="0"
             id="svg_19-0" />
          <stop
             stop-color="#000000"
             offset="1"
             id="svg_18-8" />
        </linearGradient>
        <path
           style="fill:url(#svg_17-1)"
           id="svg_16-6"
           d="m 0.111,17.058001 c 0,7.476999 0,14.951998 0,22.428999 0,10.706001 20.244,13.583 27.649,14.882999 19.037001,3.342003 38.953997,3.473 58.076998,0.773003 7.418999,-1.048 32.537002,-3.766003 32.537002,-15.165001 1.182,-7.066002 0,-15.253 0,-22.429001 C 118.374,6.841 98.132012,3.965 90.725998,2.664 71.688011,-0.678 51.772999,-0.807 32.650002,1.893 25.229001,2.94 0.111,5.657 0.111,17.058 m 1.834,22.92 c 0,-7.116001 -1.563,-16.009001 0,-22.919001 0,-8.954 21.519001,-11.87 27.212,-12.83 19.661001,-3.309 40.514997,-3.309 60.175001,0 5.693001,0.96 27.208999,3.875999 27.208999,12.83 0.727,3.216 0,7.431999 0,10.712999 0,3.742001 0.83,8.542 0,12.206001 0,8.952 -21.518996,11.869999 -27.208999,12.829998 -19.660004,3.309002 -40.514999,3.309002 -60.175001,0 C 23.464001,51.847998 1.945,48.929999 1.945,39.977999"
           inkscape:connector-curvature="0" />
        <path
           id="svg_15-9"
           d="m 115.27,14.055 c 0.688,4.560999 0.051,9.649 0.051,14.247999 0,3.565001 1.216,9.358999 -1.346,12.368002 C 109.704,45.687 101.471,47.577999 95.398003,49.007 83.598,51.782002 71.339997,52.66 59.245999,52.66 47.793999,52.66 36.231,51.852001 25.016001,49.439999 18.434,48.022999 10.104,46.199002 5.098,41.293999 2.114,38.369999 3.169,33.533001 3.169,29.752001 3.169,24.709 2.42,19.051001 3.221,14.056 0.182,17.709999 1.946,26.445 1.946,30.747999 c 0,3.516001 -1.218,9.305002 1.302,12.282 4.13,4.882 12.11,6.75 17.999,8.172001 12.385,2.994999 25.292002,3.903999 38.000002,3.903999 12.085999,0 24.309998,-0.848 36.130997,-3.471001 6.381001,-1.414997 14.458001,-3.222 19.302001,-8 2.923,-2.880997 1.863,-7.724998 1.863,-11.438 C 116.541,27.607 118.5,17.937999 115.27,14.055"
           inkscape:connector-curvature="0"
           style="fill:#c6c6c6" />
        <path
           id="svg_14-2"
           d="m 115.32,20.686001 c 0,3.094 -9.531,6.556 -11.499,7.341 C 90.730003,33.252999 76.140999,34.612 62.174,34.800999 46.925999,35.008 31.117001,33.745999 16.681999,28.485001 15.898,28.200001 1.985,22.284001 3.19,20.614001 c 0.262,-0.363001 11.674,4.181 12.449,4.4 15.042,4.235001 31,5.145 46.550999,4.978001 13.896,-0.148001 28.103001,-1.226 41.503001,-5.145 0.839,-0.243999 11.627,-3.556999 11.627,-4.160999"
           inkscape:connector-curvature="0"
           style="fill:#e5e5e5" />
        <path
           id="svg_13-8"
           d="m 6.406,14.686 c 15.486,8.523 36.565001,8.748 53.676001,8.582999 11.762001,-0.115 23.613998,-0.799999 35.222,-2.802 C 100.923,19.497 109.67,18.535 113.851,14.066 108.159,9.316 99.467003,7.761 92.414002,6.473 80.549012,4.307 68.414002,3.652 56.369,3.77 45.55,3.876 34.588002,4.46 23.972001,6.657 c -5.691999,1.176 -13.998,2.832 -17.566,8.029"
           inkscape:connector-curvature="0"
           style="fill:#eaeaea" />
        <path
           id="svg_12-9"
           d="m 75.179001,7.957 c 8.388,0.161 16.834999,0.947 24.992999,2.965 0.513,0.126 8.388,2.143 8.388,2.402 0,-1.625 -12.061,-3.779 -13.160998,-4.017 C 83.467003,6.721 71.218002,5.464 59.014,5.333 47.720001,5.214 36.308998,5.961 25.229,8.233 c -1.167999,0.239 -12.772,2.226 -12.772,4.119 0,3.243 36.385999,4.876 38.848001,4.988999 3.257,0.15 20.747002,3.581001 16.653999,-2.646999 C 64.019997,8.7 69.724999,7.852 75.179001,7.957"
           inkscape:connector-curvature="0"
           style="fill:#f4f4f4" />
        <path
           id="svg_11-0"
           d="m 1.712,33.571999 c 45.737001,14.099003 73.127996,12.257 117.202,-1.648998"
           inkscape:connector-curvature="0"
           style="fill:none;stroke:#9a9999" />
        <path
           id="svg_10-1"
           d="M 1.37,72.804001 C 47.106998,86.903999 74.498001,85.060997 118.572,71.154999"
           inkscape:connector-curvature="0"
           style="fill:none;stroke:#9a9999" />
        <path
           id="svg_9-8"
           d="m 0.916,112.063 c 45.737,14.098 73.127999,12.256 117.202,-1.65"
           inkscape:connector-curvature="0"
           style="fill:none;stroke:#9a9999" />
      </g>
    </symbol>
    <defs
       id="defs2234">
      <linearGradient
         id="svg_40-0">
        <stop
           stop-color="#484849"
           offset="0"
           id="svg_47-6" />
        <stop
           stop-color="#434344"
           id="svg_46-4"
           offset="0" />
        <stop
           stop-color="#8f8f90"
           stop-opacity="0"
           offset="1"
           id="svg_45-6" />
      </linearGradient>
      <radialGradient
         gradientUnits="userSpaceOnUse"
         gradientTransform="matrix(1,0,0,0.177184,0,495.9268)"
         r="147.14285"
         fy="602.7193"
         fx="328.57144"
         cy="602.7193"
         cx="328.57144"
         id="svg_44-8"
         xlink:href="#svg_40-0" />
      <linearGradient
         id="svg_39-3">
        <stop
           stop-color="#1b4a78"
           id="svg_43-1"
           offset="0" />
        <stop
           stop-color="#5dacd1"
           id="svg_42-3"
           offset="1" />
      </linearGradient>
      <linearGradient
         y2="737.01562"
         x2="470.00089"
         y1="737.01562"
         x1="175.71875"
         gradientTransform="matrix(0.471308,0,0,0.471308,118.8781,123.5182)"
         gradientUnits="userSpaceOnUse"
         id="svg_41-8"
         xlink:href="#svg_39-3" />
      <radialGradient
         r="147.14285"
         fy="602.7193"
         fx="328.57144"
         cy="602.7193"
         cx="328.57144"
         gradientTransform="matrix(1,0,0,0.177184,0,495.9268)"
         gradientUnits="userSpaceOnUse"
         id="svg_37-1"
         xlink:href="#svg_40-0" />
      <linearGradient
         y2="304.4902"
         x2="324.77875"
         y1="304.4902"
         x1="8.1449566"
         id="svg_35-5"
         xlink:href="#svg_39-3"
         gradientTransform="scale(0.97256809,1.0282056)"
         gradientUnits="userSpaceOnUse" />
    </defs>
    <radialGradient
       inkscape:collect="always"
       xlink:href="#linearGradient12828"
       id="radialGradient5414"
       gradientUnits="userSpaceOnUse"
       gradientTransform="matrix(1,0,0,0.177184,0,495.9268)"
       cx="328.57144"
       cy="602.7193"
       fx="328.57144"
       fy="602.7193"
       r="147.14285" />
    <linearGradient
       inkscape:collect="always"
       xlink:href="#linearGradient12001"
       id="linearGradient5416"
       gradientUnits="userSpaceOnUse"
       gradientTransform="matrix(0.471308,0,0,0.471308,118.8781,123.5182)"
       x1="175.71875"
       y1="737.01562"
       x2="470.00089"
       y2="737.01562" />
    <radialGradient
       inkscape:collect="always"
       xlink:href="#linearGradient1400"
       id="radialGradient5418"
       gradientUnits="userSpaceOnUse"
       cx="79.895966"
       cy="77.944687"
       fx="76.946266"
       fy="-0.84030241"
       r="68.379425" />
    <radialGradient
       inkscape:collect="always"
       xlink:href="#linearGradient1400"
       id="radialGradient5420"
       gradientUnits="userSpaceOnUse"
       cx="79.895966"
       cy="77.944687"
       fx="79.895966"
       fy="77.944687"
       r="68.379425" />
    <radialGradient
       inkscape:collect="always"
       xlink:href="#linearGradient853"
       id="radialGradient5422"
       gradientUnits="userSpaceOnUse"
       cx="227.00549"
       cy="477.83307"
       fx="240.38737"
       fy="325.7662"
       r="200.73203" />
    <linearGradient
       inkscape:collect="always"
       xlink:href="#linearGradient865"
       id="linearGradient5424"
       gradientUnits="userSpaceOnUse"
       gradientTransform="scale(1.1084886,0.90212926)"
       x1="105.80702"
       y1="25.611177"
       x2="82.344437"
       y2="46.947098" />
    <linearGradient
       inkscape:collect="always"
       xlink:href="#linearGradient865"
       id="linearGradient5426"
       gradientUnits="userSpaceOnUse"
       x1="43.39798"
       y1="-53.39077"
       x2="38.977112"
       y2="40.053986" />
    <linearGradient
       inkscape:collect="always"
       xlink:href="#linearGradient865"
       id="linearGradient5428"
       gradientUnits="userSpaceOnUse"
       x1="52.259628"
       y1="152.0437"
       x2="52.259628"
       y2="29.67622" />
    <linearGradient
       inkscape:collect="always"
       xlink:href="#linearGradient2648"
       id="linearGradient5430"
       gradientUnits="userSpaceOnUse"
       gradientTransform="scale(1.6098374,0.62118076)"
       x1="134.94148"
       y1="1157.434"
       x2="339.52332"
       y2="1586.8312" />
    <linearGradient
       inkscape:collect="always"
       xlink:href="#linearGradient3070"
       id="linearGradient5432"
       gradientUnits="userSpaceOnUse"
       gradientTransform="scale(0.22443922,4.4555493)"
       x1="1140.6471"
       y1="205.63876"
       x2="1140.6471"
       y2="190.8282" />
    <linearGradient
       inkscape:collect="always"
       xlink:href="#linearGradient3070"
       id="linearGradient5434"
       gradientUnits="userSpaceOnUse"
       gradientTransform="scale(0.22443922,4.4555493)"
       x1="1140.6471"
       y1="205.63876"
       x2="1140.6471"
       y2="190.8282" />
    <linearGradient
       inkscape:collect="always"
       xlink:href="#linearGradient3070"
       id="linearGradient5436"
       gradientUnits="userSpaceOnUse"
       gradientTransform="scale(0.22443922,4.4555493)"
       x1="1140.6471"
       y1="205.63876"
       x2="1140.6471"
       y2="190.8282" />
    <linearGradient
       inkscape:collect="always"
       xlink:href="#linearGradient3070"
       id="linearGradient5438"
       gradientUnits="userSpaceOnUse"
       gradientTransform="scale(0.22443922,4.4555493)"
       x1="1140.6471"
       y1="205.63876"
       x2="1140.6471"
       y2="190.8282" />
    <linearGradient
       inkscape:collect="always"
       xlink:href="#linearGradient2648"
       id="linearGradient5440"
       gradientUnits="userSpaceOnUse"
       gradientTransform="scale(0.75765742,1.3198577)"
       x1="144.79385"
       y1="329.12979"
       x2="1646.0771"
       y2="1429.5518" />
    <linearGradient
       inkscape:collect="always"
       xlink:href="#linearGradient2648"
       id="linearGradient5442"
       gradientUnits="userSpaceOnUse"
       gradientTransform="scale(0.75765742,1.3198577)"
       x1="1496.6718"
       y1="1288.6354"
       x2="65.46701"
       y2="253.68668" />
    <linearGradient
       inkscape:collect="always"
       xlink:href="#linearGradient2648"
       id="linearGradient5444"
       gradientUnits="userSpaceOnUse"
       gradientTransform="scale(1.6487938,0.60650399)"
       x1="109.32952"
       y1="792.8493"
       x2="166.32581"
       y2="1162.304" />
    <linearGradient
       inkscape:collect="always"
       xlink:href="#linearGradient2648"
       id="linearGradient5446"
       gradientUnits="userSpaceOnUse"
       x1="56.626186"
       y1="75.536827"
       x2="61.999554"
       y2="81.318069" />
    <linearGradient
       inkscape:collect="always"
       xlink:href="#linearGradient2698"
       id="linearGradient5448"
       gradientUnits="userSpaceOnUse"
       x1="54.852795"
       y1="71.86837"
       x2="58.014931"
       y2="77.28717" />
    <linearGradient
       inkscape:collect="always"
       xlink:href="#linearGradient2648"
       id="linearGradient5450"
       gradientUnits="userSpaceOnUse"
       gradientTransform="scale(1.6487938,0.60650399)"
       x1="100.40804"
       y1="957.48077"
       x2="203.60132"
       y2="1332.709" />
    <linearGradient
       inkscape:collect="always"
       xlink:href="#linearGradient2648"
       id="linearGradient5452"
       gradientUnits="userSpaceOnUse"
       gradientTransform="scale(1.4208373,0.70381035)"
       x1="100.91451"
       y1="1084.1949"
       x2="264.27274"
       y2="1664.448" />
    <linearGradient
       inkscape:collect="always"
       xlink:href="#linearGradient3070"
       id="linearGradient5454"
       gradientUnits="userSpaceOnUse"
       gradientTransform="scale(0.9041285,1.1060375)"
       x1="34.116974"
       y1="110.20041"
       x2="75.311592"
       y2="110.94734" />
  </defs>
  <metadata
     id="metadata7">
    <rdf:RDF>
      <cc:Work
         rdf:about="">
        <dc:format>image/svg+xml</dc:format>
        <dc:type
           rdf:resource="http://purl.org/dc/dcmitype/StillImage" />
        <dc:title />
      </cc:Work>
    </rdf:RDF>
  </metadata>
  <g
     style="display:inline"
     transform="translate(-184.68673,433.44968)"
     id="layer1"
     inkscape:groupmode="layer"
     inkscape:label="L3 Topology">
    <path
       inkscape:connector-curvature="0"
       id="path5394"
       d="m 857.44421,-407.87845 65.19597,142.99721"
       style="fill:none;stroke:#000000;stroke-width:4;stroke-linecap:butt;stroke-linejoin:miter;stroke-miterlimit:4;stroke-dasharray:none;stroke-opacity:1"
       sodipodi:nodetypes="cc" />
    <path
       sodipodi:nodetypes="cc"
       style="fill:none;stroke:#000000;stroke-width:4;stroke-linecap:butt;stroke-linejoin:miter;stroke-miterlimit:4;stroke-dasharray:none;stroke-opacity:1"
       d="m 857.44421,-407.87845 208.71119,144.53948"
       id="path5396"
       inkscape:connector-curvature="0" />
    <path
       inkscape:connector-curvature="0"
       id="path4849"
       d="M 861.87346,-404.21013 419.14018,-264.88124"
       style="fill:none;stroke:#000000;stroke-width:4;stroke-linecap:butt;stroke-linejoin:miter;stroke-miterlimit:4;stroke-dasharray:none;stroke-opacity:1"
       sodipodi:nodetypes="cc" />
    <path
       style="fill:none;stroke:#000000;stroke-width:4;stroke-linecap:butt;stroke-linejoin:miter;stroke-miterlimit:4;stroke-dasharray:none;stroke-opacity:1"
       d="M 531.38866,-402.66787 268.71093,-268.54956"
       id="path4847"
       inkscape:connector-curvature="0"
       sodipodi:nodetypes="cc" />
    <path
       sodipodi:nodetypes="cc"
       style="fill:none;stroke:#000000;stroke-width:4;stroke-linecap:butt;stroke-linejoin:miter;stroke-miterlimit:4;stroke-dasharray:none;stroke-opacity:1"
       d="M 531.38866,-402.66787 419.14018,-264.88124"
       id="path1057"
       inkscape:connector-curvature="0" />
    <path
       inkscape:connector-curvature="0"
       id="path1061"
       d="m 533.87346,-404.21014 202.78195,140.87117"
       style="fill:none;stroke:#000000;stroke-width:4;stroke-linecap:butt;stroke-linejoin:miter;stroke-miterlimit:4;stroke-dasharray:none;stroke-opacity:1"
       sodipodi:nodetypes="cc" />
    <path
       sodipodi:nodetypes="cc"
       inkscape:connector-curvature="0"
       id="path1055"
       d="M 861.87346,-404.21013 268.71093,-268.54956"
       style="fill:none;stroke:#000000;stroke-width:4;stroke-linecap:butt;stroke-linejoin:miter;stroke-miterlimit:4;stroke-dasharray:none;stroke-opacity:1" />
    <path
       sodipodi:nodetypes="cc"
       style="fill:none;stroke:#000000;stroke-width:4;stroke-linecap:butt;stroke-linejoin:miter;stroke-miterlimit:4;stroke-dasharray:none;stroke-opacity:1"
       d="m 857.44421,-407.87845 -120.7888,144.53948"
       id="path11910"
       inkscape:connector-curvature="0" />
    <path
       sodipodi:nodetypes="cc"
       style="fill:none;stroke:#000000;stroke-width:4;stroke-linecap:butt;stroke-linejoin:miter;stroke-miterlimit:4;stroke-dasharray:none;stroke-opacity:1"
       d="M 854.96984,-406.45869 593.46088,-268.54956"
       id="path1059"
       inkscape:connector-curvature="0" />
    <path
       sodipodi:nodetypes="cc"
       style="fill:none;stroke:#000000;stroke-width:4;stroke-linecap:butt;stroke-linejoin:miter;stroke-miterlimit:4;stroke-dasharray:none;stroke-opacity:1"
       d="m 529.44421,-407.87846 393.19597,142.99722"
       id="path1063"
       inkscape:connector-curvature="0" />
    <path
       inkscape:connector-curvature="0"
       id="path1065"
       d="m 529.44421,-407.87846 536.71119,144.53949"
       style="fill:none;stroke:#000000;stroke-width:4;stroke-linecap:butt;stroke-linejoin:miter;stroke-miterlimit:4;stroke-dasharray:none;stroke-opacity:1"
       sodipodi:nodetypes="cc" />
    <path
       inkscape:connector-curvature="0"
       id="path11912"
       d="m 526.96984,-406.4587 69.4031,140.40471"
       style="fill:none;stroke:#000000;stroke-width:4;stroke-linecap:butt;stroke-linejoin:miter;stroke-miterlimit:4;stroke-dasharray:none;stroke-opacity:1"
       sodipodi:nodetypes="cc" />
    <path
       sodipodi:nodetypes="czc"
       style="fill:none;stroke:#000000;stroke-width:4;stroke-linecap:butt;stroke-linejoin:miter;stroke-miterlimit:4;stroke-dasharray:none;stroke-opacity:1;marker-start:url(#Arrow2Mstart);marker-end:none"
       d="m 1141.3145,-255.66993 c 0,0 18.9116,0.61033 54.267,1.14526 35.3553,0.53493 30.5857,38.21637 30.5857,38.21637"
       id="path11547"
       inkscape:connector-curvature="0" />
    <text
       xml:space="preserve"
       style="font-style:normal;font-variant:normal;font-weight:normal;font-stretch:normal;line-height:0%;font-family:sans-serif;-inkscape-font-specification:sans-serif;text-align:center;letter-spacing:0px;word-spacing:0px;text-anchor:middle;fill:#000000;fill-opacity:1;stroke:none"
       x="1225.868"
       y="-195.58479"
       id="text6271"><tspan
         style="font-style:normal;font-variant:normal;font-weight:normal;font-stretch:normal;font-size:20px;line-height:1.25;font-family:sans-serif;-inkscape-font-specification:sans-serif;text-align:center;text-anchor:middle"
         sodipodi:role="line"
         x="1225.868"
         y="-195.58479"
         id="tspan11886">Leaves</tspan></text>
    <text
       xml:space="preserve"
       style="font-style:normal;font-variant:normal;font-weight:normal;font-stretch:normal;line-height:0%;font-family:sans-serif;-inkscape-font-specification:sans-serif;text-align:center;letter-spacing:0px;word-spacing:0px;text-anchor:middle;fill:#000000;fill-opacity:1;stroke:none"
       x="1229.1709"
       y="-34.854774"
       id="text11533"><tspan
         sodipodi:role="line"
         x="1229.1709"
         y="-34.854774"
         id="tspan11535"
         style="font-style:normal;font-variant:normal;font-weight:normal;font-stretch:normal;font-size:20px;line-height:1.25;font-family:sans-serif;-inkscape-font-specification:sans-serif;text-align:center;text-anchor:middle">Hypervisors</tspan></text>
    <path
       inkscape:connector-curvature="0"
       id="path7075"
       d="m 1141.3145,-96.66993 c 0,0 18.9116,0.61033 54.267,1.14526 35.3553,0.53493 30.5857,38.21637 30.5857,38.21637"
       style="fill:none;stroke:#000000;stroke-width:4;stroke-linecap:butt;stroke-linejoin:miter;stroke-miterlimit:4;stroke-dasharray:none;stroke-opacity:1;marker-start:url(#Arrow2Mstart);marker-end:none"
       sodipodi:nodetypes="czc" />
    <g
       style="display:inline"
       id="use3895"
       inkscape:label="Capa 1"
       transform="matrix(0.78202748,0,0,0.78202748,449.42613,-465.15382)">
      <g
         transform="translate(-168.5715,-361.4285)"
         id="g12818">
        <ellipse
           ry="26.071428"
           rx="147.14285"
           cy="602.7193"
           cx="328.57144"
           style="fill:url(#radialGradient5414);fill-opacity:1;stroke:none"
           id="path12820"
           transform="matrix(0.592567,0,0,1.045917,75.12109,-130.213)" />
        <path
           style="fill:url(#linearGradient5416);fill-opacity:1;stroke:none"
           d="m 201.71286,435.70728 v 0.29457 c 0.006,-0.0975 0.0206,-0.19729 0.0295,-0.29457 z m 138.62351,0 c 0.0302,0.33044 0.0589,0.66821 0.0589,1.00153 v -1.00153 z m 0.0589,1.00153 c -10e-6,15.05224 -31.07495,27.26223 -69.35594,27.26223 -37.68286,10e-6 -68.3765,-11.82771 -69.32649,-26.55527 v 40.67979 c -0.0151,0.23376 -0.0147,0.45704 -0.0147,0.69223 0,0.22546 8.7e-4,0.45335 0.0147,0.67751 0.91151,14.74102 31.61889,26.59945 69.32649,26.59945 37.7076,0 68.41498,-11.85843 69.32648,-26.59945 h 0.0295 v -0.50077 c 9.5e-4,-0.0587 0,-0.11794 0,-0.17674 0,-0.0588 9.4e-4,-0.11803 0,-0.17674 v -41.90224 z"
           id="path12822"
           inkscape:connector-curvature="0" />
        <ellipse
           ry="26.071428"
           rx="147.14285"
           cy="602.7193"
           cx="328.57144"
           style="fill:#3a78a0;fill-opacity:1;stroke:none"
           id="path12824"
           transform="matrix(0.471308,0,0,1.045917,116.1877,-191.5659)" />
        <g
           id="g12826"
           style="fill:#f2fdff;fill-opacity:0.71171169"
           transform="matrix(0.84958,0.276715,-0.703617,0.334119,443.2028,133.2284)">
          <path
             id="path12828"
             d="m 328.66945,592.8253 -5.97867,10.35298 -5.97867,10.35297 h 6.18436 v 21.24074 h 11.53226 v -21.24074 h 6.18435 l -5.97867,-10.35297 z"
             style="fill:#f2fdff;fill-opacity:0.71171169;stroke:none"
             inkscape:connector-curvature="0" />
          <path
             id="path12830"
             d="m 328.66945,687.10951 -5.97867,-10.35298 -5.97867,-10.35297 h 6.18436 v -21.24074 h 11.53226 v 21.24074 h 6.18435 l -5.97867,10.35297 z"
             style="fill:#f2fdff;fill-opacity:0.71171169;stroke:none"
             inkscape:connector-curvature="0" />
          <path
             id="path12832"
             d="m 333.74751,639.82449 10.35297,-5.97867 10.35297,-5.97867 v 6.18436 h 21.24074 v 11.53225 h -21.24074 v 6.18436 l -10.35297,-5.97867 z"
             style="fill:#f2fdff;fill-opacity:0.71171169;stroke:none"
             inkscape:connector-curvature="0" />
          <path
             id="path12834"
             d="m 323.35667,639.82449 -10.35297,-5.97867 -10.35298,-5.97867 v 6.18436 h -21.24073 v 11.53225 h 21.24073 v 6.18436 l 10.35298,-5.97867 z"
             style="fill:#f2fdff;fill-opacity:0.71171169;stroke:none"
             inkscape:connector-curvature="0" />
        </g>
      </g>
    </g>
    <use
       style="display:inline"
       x="0"
       y="0"
       xlink:href="#use3895"
       id="use10831"
       transform="translate(328,7.0031185e-6)"
       width="100%"
       height="100%" />
    <g
       id="g5338">
      <path
         sodipodi:nodetypes="cc"
         inkscape:connector-curvature="0"
         id="path4736"
         d="M 265.98633,-71.408544 416.23926,-253.54956"
         style="fill:none;stroke:#000000;stroke-width:4;stroke-linecap:butt;stroke-linejoin:miter;stroke-miterlimit:4;stroke-dasharray:none;stroke-opacity:1" />
      <path
         style="fill:none;stroke:#000000;stroke-width:4;stroke-linecap:butt;stroke-linejoin:miter;stroke-miterlimit:4;stroke-dasharray:none;stroke-opacity:1"
         d="M 350.98632,-71.408544 416.23926,-253.54956"
         id="path4738"
         inkscape:connector-curvature="0"
         sodipodi:nodetypes="cc" />
      <path
         sodipodi:nodetypes="cc"
         inkscape:connector-curvature="0"
         id="path4740"
         d="M 435.98633,-71.408544 416.23926,-253.54956"
         style="fill:none;stroke:#000000;stroke-width:4;stroke-linecap:butt;stroke-linejoin:miter;stroke-miterlimit:4;stroke-dasharray:none;stroke-opacity:1" />
      <path
         style="fill:none;stroke:#000000;stroke-width:4;stroke-linecap:butt;stroke-linejoin:miter;stroke-miterlimit:4;stroke-dasharray:none;stroke-opacity:1"
         d="M 350.98632,-71.408544 268.71093,-268.54956"
         id="path4465"
         inkscape:connector-curvature="0"
         sodipodi:nodetypes="cc" />
      <path
         sodipodi:nodetypes="cc"
         inkscape:connector-curvature="0"
         id="path4463"
         d="M 440.36734,-83.515666 268.71093,-268.54956"
         style="fill:none;stroke:#000000;stroke-width:4;stroke-linecap:butt;stroke-linejoin:miter;stroke-miterlimit:4;stroke-dasharray:none;stroke-opacity:1" />
      <path
         style="fill:none;stroke:#000000;stroke-width:4;stroke-linecap:butt;stroke-linejoin:miter;stroke-miterlimit:4;stroke-dasharray:none;stroke-opacity:1"
         d="m 265.98633,-71.408544 2.7246,-197.141016"
         id="path4461"
         inkscape:connector-curvature="0"
         sodipodi:nodetypes="cc" />
      <g
         id="g5559"
         transform="matrix(0.93844307,0,0,0.93844307,182.1377,-139.11958)">
        <circle
           r="68.379425"
           cy="77.944687"
           cx="79.895966"
           transform="matrix(-0.700276,0,0,0.250625,123.6198,94.1558)"
           style="fill:url(#radialGradient5418);fill-opacity:1;fill-rule:evenodd;stroke-width:1.00000003pt"
           id="path3115" />
        <g
           id="g970">
          <circle
             r="68.379425"
             cy="77.944687"
             cx="79.895966"
             transform="matrix(-0.700276,0,0,0.250625,150.6139,79.33446)"
             style="fill:url(#radialGradient5420);fill-opacity:1;fill-rule:evenodd;stroke-width:1.00000003pt"
             id="path1399" />
          <circle
             r="172.74803"
             cy="453.50235"
             cx="224.57243"
             transform="matrix(-0.235549,0,0,0.235549,145.5463,-37.04545)"
             style="fill:url(#radialGradient5422);fill-opacity:1;fill-rule:evenodd;stroke-width:1.00000003pt"
             id="path825" />
          <path
             transform="matrix(2.932405,0,0,2.932405,-136.1383,-124.3852)"
             style="fill:#0e7a0c;fill-opacity:0.59375;fill-rule:evenodd;stroke-width:1.00000003pt"
             sodipodi:nodetypes="ccczcccczzzcccccccccczzccccczccccccccccc"
             id="path846"
             d="m 80.468008,74.848774 c -1.829016,-0.212593 -1.847207,-3.308037 -0.03004,-3.558628 1.141715,0.642439 2.202251,-2.068492 2.784759,-0.986898 -0.481161,2.049117 2.133001,1.584971 2.63227,0.01106 0.742357,-1.270048 0.370407,1.097081 0.655083,1.600773 0.664408,1.631714 -1.392234,3.911852 -2.908552,2.532196 -1.084359,-0.963429 -2.079306,0.06081 -3.133519,0.401493 z m 3.826071,1.126906 c 0.183343,0.708561 0.556279,0.77226 0.799704,0.02525 0.243427,-0.707652 -0.671129,-0.576351 -0.799704,-0.02525 z M 70.447437,58.815866 c -1.510948,1.497153 -1.957599,3.658299 -2.460017,5.644067 0.373184,1.401407 1.499114,2.829063 0.202304,4.109161 -0.829076,1.80172 -3.497654,0.668076 -2.83269,-1.164272 -0.03369,-2.170606 -0.299446,-4.469559 0.743651,-6.467854 0.571376,-1.270601 1.652807,-2.800037 3.214469,-2.654626 0.412128,0.0916 0.777852,0.313763 1.132283,0.533524 z m 3.34019,5.010284 c -0.107193,-1.741564 1.794905,-1.592507 1.365943,-3.673053 -0.07308,-1.765397 -3.756973,-0.885834 -2.677968,-2.991691 1.004361,-1.573918 0.884594,-2.381797 3.39885,-2.787952 2.514258,-0.517495 5.204183,-1.122658 9.433179,1.99645 4.117655,3.119109 -3.424659,0.64565 -4.329074,1.790313 -1.4523,1.223323 -0.797656,3.901082 -2.491671,4.462933 -1.464056,0.938448 -1.347546,2.878841 -1.591998,4.399558 0.291324,1.24621 4.147596,0.361386 2.344407,2.071096 -1.833531,0.465222 -3.062663,-1.380776 -4.337534,-2.354502 -0.645814,-0.610663 -1.006942,-1.282927 -1.114134,-2.913152 z m 12.692721,-2.560811 c 1.557137,-0.09978 2.196067,1.686845 2.058949,2.983435 -0.848413,1.414533 1.018966,2.731994 1.941925,1.278507 0.994995,-1.757657 -0.628079,-3.957082 -2.147735,-4.887959 -0.672022,-0.595297 -1.995857,-0.514054 -1.853139,0.626017 z M 71.115475,76.184855 c 1.95606,-0.02954 3.930367,-0.473633 5.874412,-0.06506 0.758396,1.019154 2.8969,1.731759 2.925455,2.797242 -1.509791,1.055642 -3.470443,0.06419 -5.047177,-0.344917 -1.251848,-0.379539 -3.030891,-0.116201 -3.677743,-1.523599 -0.09114,-0.275716 -0.138508,-0.575594 -0.07495,-0.863666 z"
             inkscape:connector-curvature="0" />
          <path
             transform="matrix(-0.700276,0,0,0.700276,149.182,13.14436)"
             style="fill:url(#linearGradient5424);fill-opacity:1;fill-rule:evenodd;stroke-width:1.00000003pt"
             sodipodi:nodetypes="ccc"
             id="path863"
             d="m 66.012956,31.409303 c 25.43465,-15.50098 77.180964,7.42948 69.593684,50.62007 -10.27189,13.69585 -28.87287,-56.33339 -69.593684,-50.62007 z"
             inkscape:connector-curvature="0" />
          <circle
             r="49.665058"
             cy="31.15876"
             cx="51.104626"
             transform="matrix(-0.588639,0,0,0.395807,122.0548,37.37086)"
             style="fill:url(#linearGradient5426);fill-opacity:1;fill-rule:evenodd;stroke-width:1.00000003pt"
             id="path868" />
          <circle
             r="49.665058"
             cy="31.15876"
             cx="51.104626"
             transform="matrix(-0.61401,0,0,0.482073,124.4614,70.92427)"
             style="fill:url(#linearGradient5428);fill-opacity:1;fill-rule:evenodd;stroke-width:1.00000003pt"
             id="path884" />
          <rect
             y="732.31366"
             x="181.75784"
             width="161.96339"
             transform="matrix(0.141088,0,0,0.141088,16.62334,-8.271551)"
             style="fill:none;stroke:url(#linearGradient5430);stroke-width:5.32797384;stroke-linecap:round;stroke-linejoin:round"
             id="rect3102"
             height="59.425419" />
          <path
             transform="matrix(0.141088,0,0,0.141088,16.62334,-8.271551)"
             style="fill:none;stroke:url(#linearGradient5432);stroke-width:4.81603289;stroke-linecap:round;stroke-linejoin:round;stroke-opacity:1"
             id="path2940"
             d="M 191.46943,842.08488 V 927.2875"
             inkscape:connector-curvature="0" />
          <path
             transform="matrix(0.141088,0,0,0.141088,16.62334,-8.271551)"
             style="fill:none;stroke:url(#linearGradient5434);stroke-width:4.81603289;stroke-linecap:round;stroke-linejoin:round;stroke-opacity:1"
             id="path2941"
             d="M 216.64303,842.08488 V 927.2875"
             inkscape:connector-curvature="0" />
          <path
             transform="matrix(0.141088,0,0,0.141088,16.62334,-8.271551)"
             style="fill:none;stroke:url(#linearGradient5436);stroke-width:4.81603289;stroke-linecap:round;stroke-linejoin:round;stroke-opacity:1"
             id="path2942"
             d="M 241.81664,842.08488 V 927.2875"
             inkscape:connector-curvature="0" />
          <path
             transform="matrix(0.141088,0,0,0.141088,16.62334,-8.271551)"
             style="fill:none;stroke:url(#linearGradient5438);stroke-width:4.81603289;stroke-linecap:round;stroke-linejoin:round;stroke-opacity:1"
             id="path2943"
             d="M 266.99024,842.08488 V 927.2875"
             inkscape:connector-curvature="0" />
          <path
             transform="matrix(0.141088,0,0,0.141088,16.62334,-8.271551)"
             style="fill:none;stroke:#000000;stroke-width:4.81603289;stroke-linecap:round;stroke-linejoin:round;stroke-opacity:0.20754718"
             id="path3109"
             d="m 188.5729,842.44477 v 85.20262"
             inkscape:connector-curvature="0" />
          <path
             transform="matrix(0.141088,0,0,0.141088,16.62334,-8.271551)"
             style="fill:none;stroke:#000000;stroke-width:4.81603289;stroke-linecap:round;stroke-linejoin:round;stroke-opacity:0.20754718"
             id="path2930"
             d="m 213.74651,842.44477 v 85.20262"
             inkscape:connector-curvature="0" />
          <path
             transform="matrix(0.141088,0,0,0.141088,16.62334,-8.271551)"
             style="fill:none;stroke:#000000;stroke-width:4.81603289;stroke-linecap:round;stroke-linejoin:round;stroke-opacity:0.20754718"
             id="path2931"
             d="m 238.92011,842.44477 v 85.20262"
             inkscape:connector-curvature="0" />
          <path
             transform="matrix(0.141088,0,0,0.141088,16.62334,-8.271551)"
             style="fill:none;stroke:#000000;stroke-width:4.81603289;stroke-linecap:round;stroke-linejoin:round;stroke-opacity:0.20754718"
             id="path2932"
             d="m 264.09372,842.44477 v 85.20262"
             inkscape:connector-curvature="0" />
        </g>
        <g
           id="g1007">
          <path
             style="fill:#ffffff;fill-rule:evenodd;stroke-width:1.13477659"
             sodipodi:nodetypes="czzzzzzzz"
             id="path3542"
             d="m 25.455767,124.11752 0.686918,-65.944199 c 0.03292,-3.158069 3.367502,-10.269275 6.525753,-10.269275 h 32.62864 c 2.59053,0 5.495345,6.304909 5.495345,8.895439 v 64.913825 c 0,2.83337 -3.177162,6.01053 -6.010533,6.01053 H 30.607683 c -2.09625,0 -5.173734,-1.51022 -5.151916,-3.60632 z"
             inkscape:connector-curvature="0" />
          <path
             transform="matrix(0.141088,0,0,0.141088,16.62334,-8.271551)"
             style="fill:url(#linearGradient5440);fill-opacity:1;fill-rule:evenodd;stroke:url(#linearGradient5442);stroke-width:8.57062244"
             sodipodi:nodetypes="czzzzzzzz"
             id="path3098"
             d="m 61.025699,938.26551 4.868722,-467.39765 c 0.233355,-22.38368 23.8681,-72.78631 46.253069,-72.78631 h 231.26446 c 18.36109,0 38.94977,44.68778 38.94977,63.04887 v 460.09457 c 0,20.08229 -22.51901,42.60131 -42.60131,42.60131 H 97.541322 c -14.857749,0 -36.670263,-10.70411 -36.515623,-25.56079 z"
             inkscape:connector-curvature="0" />
          <rect
             y="486.32764"
             x="98.678825"
             width="247.24902"
             transform="matrix(0.141088,0,0,0.141088,16.62334,-8.271551)"
             style="fill:none;stroke:url(#linearGradient5444);stroke-width:5.32797384;stroke-linecap:round;stroke-linejoin:round"
             id="rect3099"
             height="87.78907" />
          <circle
             r="1.4446203"
             cy="76.854073"
             cx="57.945324"
             transform="matrix(3.026071,0,0,3.026071,-141.2021,-132.8789)"
             style="fill:url(#linearGradient5446);fill-opacity:1;fill-rule:evenodd;stroke:url(#linearGradient5448);stroke-width:0.24841228"
             id="path3100" />
          <rect
             y="600.797"
             x="97.8181"
             width="247.24902"
             transform="matrix(0.141088,0,0,0.141088,16.62334,-8.271551)"
             style="fill:none;stroke:url(#linearGradient5450);stroke-width:5.32797384;stroke-linecap:round;stroke-linejoin:round"
             id="rect3101"
             height="87.78907" />
          <rect
             y="820.57336"
             x="92.02359"
             width="251.85912"
             transform="matrix(0.141088,0,0,0.141088,16.62334,-8.271551)"
             style="fill:url(#linearGradient5452);fill-opacity:1;fill-rule:evenodd;stroke-width:0.2;stroke-linecap:round;stroke-linejoin:round;stroke-opacity:0.13836478"
             id="rect3103"
             height="124.75816" />
          <path
             style="fill:url(#linearGradient5454);fill-opacity:1;fill-rule:evenodd;stroke-width:1.00000003pt"
             sodipodi:nodetypes="czzccc"
             id="path3069"
             d="m 68.903078,74.796363 c -7.301806,14.194719 -9.717509,29.544197 -23.815603,32.078907 -14.098093,2.53471 -18.877431,12.01865 -18.313507,17.08807 0.563923,5.06943 38.910737,4.22453 40.60251,1.68981 1.69177,-2.53471 1.69177,-6.33678 1.69177,-8.44904 0,-2.11226 2.090525,-41.774069 -0.16517,-42.407747 z"
             inkscape:connector-curvature="0" />
          <path
             transform="matrix(0.141088,0,0,0.141088,16.62334,-8.271551)"
             style="fill:none;stroke:#ffffff;stroke-width:4.81603289;stroke-linecap:round;stroke-linejoin:round"
             id="path2944"
             d="M 166.29582,842.08488 V 927.2875"
             inkscape:connector-curvature="0" />
          <path
             transform="matrix(0.141088,0,0,0.141088,16.62334,-8.271551)"
             style="fill:none;stroke:#000000;stroke-width:4.81603289;stroke-linecap:round;stroke-linejoin:round;stroke-opacity:0.20754718"
             id="path2935"
             d="m 163.3993,842.44477 v 85.20262"
             inkscape:connector-curvature="0" />
        </g>
      </g>
      <use
         height="1080"
         width="1920"
         transform="translate(84.99999)"
         id="use4989"
         xlink:href="#g5559"
         y="0"
         x="0" />
      <g
         transform="translate(-256.9935,-930.6193)"
         id="g10862"
         style="display:inline">
        <use
           x="0"
           y="0"
           xlink:href="#use3895"
           id="use10856"
           transform="translate(-3.739784,1069.9482)"
           width="100%"
           height="100%" />
        <use
           height="100%"
           width="100%"
           transform="translate(142.26022,1069.9482)"
           id="use10858"
           xlink:href="#use3895"
           y="0"
           x="0" />
      </g>
      <use
         x="0"
         y="0"
         xlink:href="#g5559"
         id="use4448"
         transform="translate(170)"
         width="1920"
         height="1080" />
    </g>
    <use
       x="0"
       y="0"
       xlink:href="#g5338"
       id="use5378"
       transform="translate(324.74995)"
       width="100%"
       height="100%" />
    <use
       height="100%"
       width="100%"
       transform="translate(649.5)"
       id="use5380"
       xlink:href="#g5338"
       y="0"
       x="0" />
    <path
       inkscape:connector-curvature="0"
       id="path5456"
       d="m 1141.3145,-399.66993 c 0,0 18.9116,0.61033 54.267,1.14526 35.3553,0.53493 30.5857,38.21637 30.5857,38.21637"
       style="fill:none;stroke:#000000;stroke-width:4;stroke-linecap:butt;stroke-linejoin:miter;stroke-miterlimit:4;stroke-dasharray:none;stroke-opacity:1;marker-start:url(#Arrow2Mstart);marker-end:none"
       sodipodi:nodetypes="czc" />
    <text
       id="text5460"
       y="-339.58481"
       x="1225.868"
       style="font-style:normal;font-variant:normal;font-weight:normal;font-stretch:normal;line-height:0%;font-family:sans-serif;-inkscape-font-specification:sans-serif;text-align:center;letter-spacing:0px;word-spacing:0px;text-anchor:middle;fill:#000000;fill-opacity:1;stroke:none"
       xml:space="preserve"><tspan
         id="tspan5458"
         y="-339.58481"
         x="1225.868"
         sodipodi:role="line"
         style="font-style:normal;font-variant:normal;font-weight:normal;font-stretch:normal;font-size:20px;line-height:1.25;font-family:sans-serif;-inkscape-font-specification:sans-serif;text-align:center;text-anchor:middle">Spines</tspan></text>
  </g>
</svg>
