<?xml version="1.0" encoding="UTF-8" standalone="no"?>
<!-- Created with Inkscape (http://www.inkscape.org/) -->

<svg
   xmlns:dc="http://purl.org/dc/elements/1.1/"
   xmlns:cc="http://creativecommons.org/ns#"
   xmlns:rdf="http://www.w3.org/1999/02/22-rdf-syntax-ns#"
   xmlns:svg="http://www.w3.org/2000/svg"
   xmlns="http://www.w3.org/2000/svg"
   xmlns:xlink="http://www.w3.org/1999/xlink"
   xmlns:sodipodi="http://sodipodi.sourceforge.net/DTD/sodipodi-0.dtd"
   xmlns:inkscape="http://www.inkscape.org/namespaces/inkscape"
   width="300"
   height="300"
   id="svg2"
   version="1.1"
   inkscape:version="0.92.3 (2405546, 2018-03-11)"
   sodipodi:docname="minimal-snmpd.svg"
   inkscape:export-filename="/home/bernat/code/perso/www.luffy.cx/content/media/images/minimal-snmpd.png"
   inkscape:export-xdpi="66.540001"
   inkscape:export-ydpi="66.540001"
   viewBox="0 0 300 300">
  <defs
     id="defs4">
    <linearGradient
       id="linearGradient3884">
      <stop
         style="stop-color:#d95b43;stop-opacity:1;"
         offset="0"
         id="stop3886" />
      <stop
         style="stop-color:#d95b43;stop-opacity:0.80000001;"
         offset="1"
         id="stop3888" />
    </linearGradient>
    <linearGradient
       id="linearGradient3786">
      <stop
         style="stop-color:#c02942;stop-opacity:1;"
         offset="0"
         id="stop3788" />
      <stop
         style="stop-color:#c02942;stop-opacity:0.80000001;"
         offset="1"
         id="stop3790" />
    </linearGradient>
    <linearGradient
       id="linearGradient3776">
      <stop
         style="stop-color:#ecd078;stop-opacity:1;"
         offset="0"
         id="stop3778" />
      <stop
         style="stop-color:#ecd078;stop-opacity:0.80000001;"
         offset="1"
         id="stop3780" />
    </linearGradient>
    <linearGradient
       inkscape:collect="always"
       xlink:href="#linearGradient3776"
       id="linearGradient3784"
       x1="163.37708"
       y1="337.66675"
       x2="248.81654"
       y2="284.12866"
       gradientUnits="userSpaceOnUse" />
    <linearGradient
       inkscape:collect="always"
       xlink:href="#linearGradient3884"
       id="linearGradient3890"
       x1="164.38724"
       y1="336.65662"
       x2="244.77592"
       y2="278.06775"
       gradientUnits="userSpaceOnUse" />
    <linearGradient
       inkscape:collect="always"
       xlink:href="#linearGradient3786"
       id="linearGradient1159"
       gradientUnits="userSpaceOnUse"
       x1="164.38724"
       y1="335.64645"
       x2="240.73532"
       y2="272.00684" />
  </defs>
  <sodipodi:namedview
     id="base"
     pagecolor="#ffffff"
     bordercolor="#666666"
     borderopacity="1.0"
     inkscape:pageopacity="0.0"
     inkscape:pageshadow="2"
     inkscape:zoom="1"
     inkscape:cx="-76.008579"
     inkscape:cy="190.8493"
     inkscape:document-units="px"
     inkscape:current-layer="layer1"
     showgrid="false"
     inkscape:snap-global="true"
     showguides="false"
     inkscape:window-width="1912"
     inkscape:window-height="1056"
     inkscape:window-x="0"
     inkscape:window-y="16"
     inkscape:window-maximized="0"
     fit-margin-top="4"
     fit-margin-left="4"
     fit-margin-right="4"
     fit-margin-bottom="4"
     scale-x="1.333" />
  <metadata
     id="metadata7">
    <rdf:RDF>
      <cc:Work
         rdf:about="">
        <dc:format>image/svg+xml</dc:format>
        <dc:type
           rdf:resource="http://purl.org/dc/dcmitype/StillImage" />
        <dc:title></dc:title>
      </cc:Work>
    </rdf:RDF>
  </metadata>
  <g
     inkscape:label="Layer 1"
     inkscape:groupmode="layer"
     id="layer1"
     transform="translate(-69.130352,-350.91477)">
    <g
       id="g1149"
       transform="matrix(0.72400283,0,0,0.72400283,19.283135,178.78167)">
      <circle
         r="49.285713"
         cy="307.36218"
         cx="203.57143"
         transform="matrix(1.2254543,0,0,1.2254543,26.234427,26.510762)"
         id="path2985"
         style="color:#000000;display:inline;overflow:visible;visibility:visible;fill:url(#linearGradient3784);fill-opacity:1;fill-rule:nonzero;stroke:none;stroke-width:2;marker:none;enable-background:accumulate" />
      <circle
         r="49.285713"
         cy="307.36218"
         cx="203.57143"
         transform="translate(-81.155361,188.93838)"
         style="color:#000000;display:inline;overflow:visible;visibility:visible;fill:url(#linearGradient3890);fill-opacity:1;fill-rule:nonzero;stroke:none;stroke-width:2;marker:none;enable-background:accumulate"
         id="path3755" />
      <circle
         r="49.285713"
         cy="307.36218"
         cx="203.57143"
         transform="translate(8.9424845,290.26688)"
         style="color:#000000;display:inline;overflow:visible;visibility:visible;fill:url(#linearGradient1159);fill-opacity:1;fill-rule:nonzero;stroke:none;stroke-width:2;marker:none;enable-background:accumulate"
         id="path3757" />
      <use
         height="1052.3622"
         width="744.09448"
         transform="translate(134.68908,-5.7273597)"
         id="use3759"
         xlink:href="#path3757"
         y="0"
         x="0" />
      <use
         height="1052.3622"
         width="744.09448"
         transform="translate(82.44292,-101.7471)"
         id="use3761"
         xlink:href="#use3759"
         y="0"
         x="0" />
      <g
         id="text3894"
         style="font-style:normal;font-variant:normal;font-weight:normal;font-stretch:normal;line-height:0%;font-family:'Droid Sans';-inkscape-font-specification:'Droid Sans';text-align:center;letter-spacing:0px;word-spacing:0px;text-anchor:middle;fill:#000000;fill-opacity:1;stroke:none"
         aria-label="minimal master agent">
        <path
           inkscape:connector-curvature="0"
           id="path999"
           style="font-size:24px;line-height:0.89999998"
           d="m 248.84253,387.80344 v -8.28516 q 0,-1.52344 -0.58594,-2.28516 -0.58594,-0.76171 -1.8164,-0.76171 -0.85547,0 -1.45313,0.28125 -0.59766,0.26953 -0.98437,0.80859 -0.375,0.52734 -0.55079,1.32422 -0.17578,0.78515 -0.17578,1.8164 v 7.10157 h -2.14453 v -8.28516 q 0,-1.52344 -0.58594,-2.28516 -0.57421,-0.76171 -1.80468,-0.76171 -0.90235,0 -1.51172,0.30468 -0.60938,0.30469 -0.98438,0.90235 -0.36328,0.59765 -0.52734,1.46484 -0.15234,0.86719 -0.15234,1.99219 v 6.66797 h -2.13282 v -12.86719 h 1.73438 l 0.30469,1.73437 h 0.11718 q 0.28125,-0.5039 0.66797,-0.86718 0.38672,-0.375 0.84375,-0.6211 0.46875,-0.24609 0.98438,-0.36328 0.52734,-0.11719 1.0664,-0.11719 1.40625,0 2.33203,0.51563 0.9375,0.51562 1.38282,1.61719 h 0.0937 q 0.30468,-0.55078 0.72656,-0.94922 0.43359,-0.39844 0.9375,-0.65625 0.51562,-0.26953 1.07812,-0.39844 0.5625,-0.12891 1.14844,-0.12891 2.05078,0 3.08203,1.125 1.04297,1.11329 1.04297,3.57422 v 8.40235 z" />
        <path
           inkscape:connector-curvature="0"
           id="path1001"
           style="font-size:24px;line-height:0.89999998"
           d="M 257.08081,387.80344 H 254.948 v -12.86719 h 2.13281 z m -2.29687,-16.34766 q 0,-0.70312 0.35156,-1.01953 0.36328,-0.31641 0.89062,-0.31641 0.25782,0 0.48047,0.082 0.23438,0.0703 0.39844,0.23438 0.17578,0.16406 0.26953,0.42187 0.10547,0.2461 0.10547,0.59766 0,0.67969 -0.375,1.01953 -0.36328,0.32813 -0.87891,0.32813 -0.52734,0 -0.89062,-0.32813 -0.35156,-0.32812 -0.35156,-1.01953 z" />
        <path
           inkscape:connector-curvature="0"
           id="path1003"
           style="font-size:24px;line-height:0.89999998"
           d="m 269.22144,387.80344 v -8.28516 q 0,-1.52344 -0.6211,-2.28516 -0.60937,-0.76171 -1.92187,-0.76171 -0.94922,0 -1.59375,0.30468 -0.64453,0.30469 -1.04297,0.90235 -0.38672,0.59765 -0.5625,1.46484 -0.16406,0.86719 -0.16406,1.99219 v 6.66797 h -2.13282 v -12.86719 h 1.73438 l 0.30469,1.73437 h 0.11718 q 0.29297,-0.5039 0.69141,-0.86718 0.41016,-0.375 0.89062,-0.6211 0.48047,-0.24609 1.01954,-0.36328 0.53906,-0.11719 1.10156,-0.11719 2.14453,0 3.22265,1.125 1.08985,1.11329 1.08985,3.57422 v 8.40235 z" />
        <path
           inkscape:connector-curvature="0"
           id="path1005"
           style="font-size:24px;line-height:0.89999998"
           d="m 277.47144,387.80344 h -2.13282 v -12.86719 h 2.13282 z m -2.29688,-16.34766 q 0,-0.70312 0.35156,-1.01953 0.36328,-0.31641 0.89063,-0.31641 0.25781,0 0.48047,0.082 0.23437,0.0703 0.39843,0.23438 0.17579,0.16406 0.26954,0.42187 0.10546,0.2461 0.10546,0.59766 0,0.67969 -0.375,1.01953 -0.36328,0.32813 -0.8789,0.32813 -0.52735,0 -0.89063,-0.32813 -0.35156,-0.32812 -0.35156,-1.01953 z" />
        <path
           inkscape:connector-curvature="0"
           id="path1007"
           style="font-size:24px;line-height:0.89999998"
           d="m 296.98315,387.80344 v -8.28516 q 0,-1.52344 -0.58593,-2.28516 -0.58594,-0.76171 -1.81641,-0.76171 -0.85547,0 -1.45312,0.28125 -0.59766,0.26953 -0.98438,0.80859 -0.375,0.52734 -0.55078,1.32422 -0.17578,0.78515 -0.17578,1.8164 v 7.10157 h -2.14453 v -8.28516 q 0,-1.52344 -0.58594,-2.28516 -0.57422,-0.76171 -1.80469,-0.76171 -0.90234,0 -1.51172,0.30468 -0.60937,0.30469 -0.98437,0.90235 -0.36328,0.59765 -0.52735,1.46484 -0.15234,0.86719 -0.15234,1.99219 v 6.66797 H 281.573 v -12.86719 h 1.73437 l 0.30469,1.73437 h 0.11719 q 0.28125,-0.5039 0.66797,-0.86718 0.38672,-0.375 0.84375,-0.6211 0.46875,-0.24609 0.98437,-0.36328 0.52735,-0.11719 1.06641,-0.11719 1.40625,0 2.33203,0.51563 0.9375,0.51562 1.38281,1.61719 h 0.0937 q 0.30469,-0.55078 0.72656,-0.94922 0.4336,-0.39844 0.9375,-0.65625 0.51563,-0.26953 1.07813,-0.39844 0.5625,-0.12891 1.14844,-0.12891 2.05078,0 3.08203,1.125 1.04297,1.11329 1.04297,3.57422 v 8.40235 z" />
        <path
           inkscape:connector-curvature="0"
           id="path1009"
           style="font-size:24px;line-height:0.89999998"
           d="m 310.34253,387.80344 -0.43359,-1.78125 h -0.0937 q -0.38672,0.52734 -0.77344,0.91406 -0.38672,0.375 -0.84375,0.62109 -0.45703,0.2461 -1.01953,0.36328 -0.5625,0.11719 -1.30078,0.11719 -0.8086,0 -1.48829,-0.23437 -0.67968,-0.22266 -1.18359,-0.69141 -0.49219,-0.48047 -0.77344,-1.19531 -0.28125,-0.72656 -0.28125,-1.71094 0,-1.92187 1.34766,-2.95312 1.35937,-1.03125 4.125,-1.125 l 2.15625,-0.082 v -0.80859 q 0,-0.78516 -0.17578,-1.3125 -0.16406,-0.52734 -0.49219,-0.84375 -0.31641,-0.32812 -0.79687,-0.46875 -0.46875,-0.14062 -1.07813,-0.14062 -0.97266,0 -1.81641,0.28125 -0.83203,0.28125 -1.60546,0.67968 l -0.75,-1.60547 q 0.86718,-0.46875 1.93359,-0.79687 1.06641,-0.32813 2.23828,-0.32813 1.19531,0 2.0625,0.2461 0.87891,0.23437 1.44141,0.76172 0.57422,0.51562 0.85547,1.32422 0.28125,0.80859 0.28125,1.95703 v 8.8125 z m -3.91406,-1.48828 q 0.71484,0 1.32422,-0.22266 0.60937,-0.22266 1.05468,-0.66797 0.44532,-0.45703 0.69141,-1.13672 0.25781,-0.6914 0.25781,-1.61719 v -1.16015 l -1.67578,0.082 q -1.05469,0.0469 -1.76953,0.23437 -0.71484,0.1875 -1.14844,0.52735 -0.42187,0.32812 -0.60937,0.80859 -0.1875,0.46875 -0.1875,1.06641 0,1.07812 0.5625,1.58203 0.57422,0.50391 1.5,0.50391 z" />
        <path
           inkscape:connector-curvature="0"
           id="path1011"
           style="font-size:24px;line-height:0.89999998"
           d="m 317.97144,387.80344 h -2.13282 v -18.23438 h 2.13282 z" />
        <path
           inkscape:connector-curvature="0"
           id="path1013"
           style="font-size:24px;line-height:0.89999998"
           d="m 255.33472,409.40344 v -8.28516 q 0,-1.52344 -0.58594,-2.28516 -0.58594,-0.76172 -1.81641,-0.76172 -0.85547,0 -1.45312,0.28125 -0.59766,0.26954 -0.98438,0.8086 -0.375,0.52734 -0.55078,1.32422 -0.17578,0.78515 -0.17578,1.8164 v 7.10157 h -2.14453 v -8.28516 q 0,-1.52344 -0.58594,-2.28516 -0.57422,-0.76172 -1.80469,-0.76172 -0.90234,0 -1.51171,0.30469 -0.60938,0.30469 -0.98438,0.90235 -0.36328,0.59765 -0.52734,1.46484 -0.15235,0.86719 -0.15235,1.99219 v 6.66797 h -2.13281 v -12.86719 h 1.73438 l 0.30468,1.73437 h 0.11719 q 0.28125,-0.5039 0.66797,-0.86718 0.38672,-0.375 0.84375,-0.6211 0.46875,-0.24609 0.98437,-0.36328 0.52735,-0.11719 1.06641,-0.11719 1.40625,0 2.33203,0.51563 0.9375,0.51562 1.38281,1.61719 h 0.0937 q 0.30469,-0.55079 0.72657,-0.94922 0.43359,-0.39844 0.9375,-0.65625 0.51562,-0.26953 1.07812,-0.39844 0.5625,-0.12891 1.14844,-0.12891 2.05078,0 3.08203,1.125 1.04297,1.11328 1.04297,3.57422 v 8.40235 z" />
        <path
           inkscape:connector-curvature="0"
           id="path1015"
           style="font-size:24px;line-height:0.89999998"
           d="m 268.69409,409.40344 -0.43359,-1.78125 h -0.0937 q -0.38672,0.52734 -0.77344,0.91406 -0.38672,0.375 -0.84375,0.62109 -0.45703,0.2461 -1.01953,0.36328 -0.5625,0.11719 -1.30078,0.11719 -0.8086,0 -1.48828,-0.23437 -0.67969,-0.22266 -1.1836,-0.69141 -0.49218,-0.48047 -0.77343,-1.19531 -0.28125,-0.72657 -0.28125,-1.71094 0,-1.92188 1.34765,-2.95313 1.35938,-1.03125 4.125,-1.125 l 2.15625,-0.082 v -0.80859 q 0,-0.78516 -0.17578,-1.3125 -0.16406,-0.52734 -0.49219,-0.84375 -0.3164,-0.32813 -0.79687,-0.46875 -0.46875,-0.14063 -1.07813,-0.14063 -0.97265,0 -1.8164,0.28125 -0.83203,0.28125 -1.60547,0.67969 l -0.75,-1.60547 q 0.86719,-0.46875 1.93359,-0.79687 1.06641,-0.32813 2.23828,-0.32813 1.19532,0 2.0625,0.2461 0.87891,0.23437 1.44141,0.76172 0.57422,0.51562 0.85547,1.32421 0.28125,0.8086 0.28125,1.95704 v 8.8125 z m -3.91406,-1.48829 q 0.71484,0 1.32422,-0.22265 0.60937,-0.22266 1.05469,-0.66797 0.44531,-0.45703 0.6914,-1.13672 0.25781,-0.69141 0.25781,-1.61719 v -1.16015 l -1.67578,0.082 q -1.05468,0.0469 -1.76953,0.23437 -0.71484,0.1875 -1.14844,0.52735 -0.42187,0.32812 -0.60937,0.80859 -0.1875,0.46875 -0.1875,1.06641 0,1.07812 0.5625,1.58203 0.57422,0.5039 1.5,0.5039 z" />
        <path
           inkscape:connector-curvature="0"
           id="path1017"
           style="font-size:24px;line-height:0.89999998"
           d="m 281.8894,405.87609 q 0,0.9375 -0.33984,1.64063 -0.33984,0.70312 -0.98437,1.18359 -0.63282,0.46875 -1.53516,0.70313 -0.90234,0.23437 -2.02734,0.23437 -1.27735,0 -2.19141,-0.21094 -0.91406,-0.19922 -1.60547,-0.59765 v -1.94532 q 0.36328,0.1875 0.80859,0.375 0.44532,0.17579 0.9375,0.31641 0.49219,0.14063 1.00782,0.23438 0.52734,0.082 1.04297,0.082 0.76171,0 1.28906,-0.12891 0.53906,-0.12891 0.86719,-0.36328 0.33984,-0.24609 0.49218,-0.58594 0.15235,-0.35156 0.15235,-0.77344 0,-0.36328 -0.11719,-0.65625 -0.11719,-0.29296 -0.43359,-0.57421 -0.30469,-0.29297 -0.84375,-0.58594 -0.53907,-0.29297 -1.38282,-0.65625 -0.84375,-0.36328 -1.52343,-0.71485 -0.66797,-0.35156 -1.13672,-0.78515 -0.46875,-0.4336 -0.72657,-0.9961 -0.24609,-0.57421 -0.24609,-1.35937 0,-0.82031 0.31641,-1.45313 0.32812,-0.64453 0.91406,-1.07812 0.58594,-0.43359 1.40625,-0.65625 0.82031,-0.22266 1.82812,-0.22266 1.13672,0 2.07422,0.2461 0.94922,0.24609 1.79297,0.64453 l -0.73828,1.72265 q -0.76172,-0.33984 -1.57031,-0.58593 -0.79688,-0.25782 -1.62891,-0.25782 -1.19531,0 -1.76953,0.39844 -0.57422,0.38672 -0.57422,1.11328 0,0.41016 0.12891,0.71485 0.14062,0.30468 0.46875,0.57422 0.32812,0.26953 0.8789,0.55078 0.55079,0.26953 1.3711,0.60937 0.84375,0.35156 1.5,0.70313 0.66797,0.35156 1.13672,0.79687 0.46875,0.4336 0.71484,0.9961 0.24609,0.5625 0.24609,1.34765 z" />
        <path
           inkscape:connector-curvature="0"
           id="path1019"
           style="font-size:24px;line-height:0.89999998"
           d="m 288.90894,407.89172 q 0.21093,0 0.46875,-0.0234 0.26953,-0.0234 0.51562,-0.0586 0.24609,-0.0352 0.44531,-0.082 0.21094,-0.0469 0.31641,-0.082 v 1.61719 q -0.15234,0.0703 -0.38672,0.14063 -0.23437,0.0703 -0.51562,0.11718 -0.28125,0.0586 -0.58594,0.082 -0.30469,0.0352 -0.59766,0.0352 -0.72656,0 -1.34765,-0.1875 -0.6211,-0.1875 -1.07813,-0.64453 -0.44531,-0.45703 -0.70312,-1.23047 -0.25782,-0.78516 -0.25782,-1.96875 v -7.46484 h -1.8164 v -0.94922 l 1.8164,-0.91406 0.91407,-2.69532 h 1.23046 v 2.95313 h 3.23438 v 1.60547 h -3.23438 v 7.46484 q 0,1.13672 0.36329,1.71094 0.375,0.57422 1.21875,0.57422 z" />
        <path
           inkscape:connector-curvature="0"
           id="path1021"
           style="font-size:24px;line-height:0.89999998"
           d="m 298.2605,409.63781 q -1.28906,0 -2.35547,-0.43359 -1.06641,-0.4336 -1.83984,-1.26563 -0.76172,-0.83203 -1.1836,-2.0625 -0.42187,-1.23047 -0.42187,-2.8125 0,-1.59375 0.38672,-2.84765 0.38671,-1.25391 1.08984,-2.1211 0.70312,-0.8789 1.67578,-1.33594 0.98438,-0.45703 2.16797,-0.45703 1.16016,0 2.08594,0.42188 0.92578,0.41015 1.57031,1.17187 0.64453,0.75 0.98437,1.81641 0.35157,1.05469 0.35157,2.34375 V 403.38 h -8.10938 q 0.0586,2.26172 0.94922,3.32812 0.90234,1.06641 2.67188,1.06641 0.59765,0 1.10156,-0.0586 0.51562,-0.0586 0.98437,-0.16407 0.48047,-0.11718 0.92578,-0.28125 0.44532,-0.17578 0.90235,-0.38672 v 1.89844 q -0.46875,0.22266 -0.92578,0.38672 -0.44532,0.16406 -0.92578,0.26953 -0.46875,0.10547 -0.98438,0.15235 -0.50391,0.0469 -1.10156,0.0469 z m -0.52735,-11.56641 q -1.33593,0 -2.12109,0.91407 -0.77344,0.91406 -0.90234,2.66015 h 5.76562 q 0,-0.79687 -0.16406,-1.45312 -0.15234,-0.66797 -0.49219,-1.13672 -0.32812,-0.46875 -0.84375,-0.72656 -0.51562,-0.25782 -1.24219,-0.25782 z" />
        <path
           inkscape:connector-curvature="0"
           id="path1023"
           style="font-size:24px;line-height:0.89999998"
           d="m 311.58472,396.30187 q 0.33984,0 0.76172,0.0352 0.42187,0.0234 0.72656,0.082 l -0.28125,1.96875 q -0.32813,-0.0586 -0.67969,-0.0937 -0.33984,-0.0469 -0.64453,-0.0469 -0.73828,0 -1.34766,0.30468 -0.60937,0.29297 -1.05468,0.85547 -0.4336,0.55078 -0.67969,1.33594 -0.23438,0.77344 -0.23438,1.72266 v 6.9375 h -2.13281 v -12.86719 h 1.73438 l 0.25781,2.35547 h 0.0937 q 0.29297,-0.50391 0.62109,-0.97266 0.33985,-0.46875 0.75,-0.82031 0.42188,-0.36328 0.9375,-0.57422 0.51563,-0.22266 1.17188,-0.22266 z" />
        <path
           inkscape:connector-curvature="0"
           id="path1025"
           style="font-size:24px;line-height:0.89999998"
           d="m 254.84253,431.00344 -0.43359,-1.78125 h -0.0937 q -0.38672,0.52734 -0.77344,0.91406 -0.38672,0.375 -0.84375,0.62109 -0.45703,0.2461 -1.01953,0.36328 -0.5625,0.11719 -1.30078,0.11719 -0.8086,0 -1.48829,-0.23437 -0.67968,-0.22266 -1.18359,-0.69141 -0.49219,-0.48047 -0.77344,-1.19531 -0.28125,-0.72657 -0.28125,-1.71094 0,-1.92188 1.34766,-2.95313 1.35937,-1.03125 4.125,-1.125 l 2.15625,-0.082 v -0.80859 q 0,-0.78516 -0.17578,-1.3125 -0.16406,-0.52734 -0.49219,-0.84375 -0.31641,-0.32813 -0.79687,-0.46875 -0.46875,-0.14063 -1.07813,-0.14063 -0.97266,0 -1.81641,0.28125 -0.83203,0.28125 -1.60546,0.67969 l -0.75,-1.60547 q 0.86718,-0.46875 1.93359,-0.79687 1.06641,-0.32813 2.23828,-0.32813 1.19531,0 2.0625,0.2461 0.87891,0.23437 1.44141,0.76172 0.57422,0.51562 0.85547,1.32421 0.28125,0.8086 0.28125,1.95704 v 8.8125 z m -3.91406,-1.48829 q 0.71484,0 1.32422,-0.22265 0.60937,-0.22266 1.05468,-0.66797 0.44532,-0.45703 0.69141,-1.13672 0.25781,-0.69141 0.25781,-1.61719 v -1.16015 l -1.67578,0.082 q -1.05469,0.0469 -1.76953,0.23437 -0.71484,0.1875 -1.14844,0.52735 -0.42187,0.32812 -0.60937,0.80859 -0.1875,0.46875 -0.1875,1.06641 0,1.07812 0.5625,1.58203 0.57422,0.5039 1.5,0.5039 z" />
        <path
           inkscape:connector-curvature="0"
           id="path1027"
           style="font-size:24px;line-height:0.89999998"
           d="m 270.25269,418.13625 v 1.32422 l -2.3086,0.3164 q 0.32813,0.41016 0.55078,1.05469 0.22266,0.63281 0.22266,1.44141 0,0.89062 -0.28125,1.65234 -0.26953,0.75 -0.83203,1.30078 -0.55078,0.55078 -1.3711,0.86719 -0.82031,0.30469 -1.91015,0.30469 -0.25781,0 -0.51563,0 -0.25781,-0.0117 -0.42187,-0.0469 -0.19922,0.11719 -0.39844,0.26953 -0.1875,0.14063 -0.35156,0.32813 -0.15235,0.1875 -0.25781,0.42187 -0.0937,0.23438 -0.0937,0.51563 0,0.3164 0.14062,0.51562 0.14063,0.1875 0.375,0.29297 0.24609,0.10547 0.57422,0.14063 0.32812,0.0351 0.69141,0.0351 h 2.0625 q 1.08984,0 1.83984,0.28125 0.75,0.26953 1.21875,0.73828 0.48047,0.46875 0.69141,1.11329 0.21093,0.63281 0.21093,1.34765 0,1.03125 -0.38672,1.85156 -0.375,0.82032 -1.16015,1.38282 -0.78516,0.57422 -1.99219,0.8789 -1.19531,0.30469 -2.82422,0.30469 -1.2539,0 -2.1914,-0.24609 -0.9375,-0.2461 -1.5586,-0.71485 -0.62109,-0.46875 -0.9375,-1.13672 -0.30469,-0.65625 -0.30469,-1.48828 0,-0.70312 0.22266,-1.24218 0.23438,-0.52735 0.62109,-0.91407 0.38672,-0.38672 0.89063,-0.63281 0.51562,-0.24609 1.06641,-0.375 -0.49219,-0.22266 -0.8086,-0.70312 -0.3164,-0.48047 -0.3164,-1.10157 0,-0.71484 0.375,-1.23047 0.375,-0.52734 1.18359,-1.01953 -0.50391,-0.21093 -0.92578,-0.57422 -0.41016,-0.375 -0.70313,-0.84375 -0.28125,-0.48046 -0.44531,-1.04296 -0.15234,-0.5625 -0.15234,-1.16016 0,-1.04297 0.29297,-1.86328 0.29296,-0.82031 0.86718,-1.39453 0.57422,-0.57422 1.42969,-0.87891 0.85547,-0.30469 1.99219,-0.30469 0.43359,0 0.89062,0.0703 0.46875,0.0586 0.78516,0.16406 z m -9.50391,14.97656 q 0,0.43359 0.15234,0.80859 0.15235,0.375 0.49219,0.64454 0.35156,0.26953 0.91406,0.42187 0.57422,0.16406 1.41797,0.16406 2.17969,0 3.25781,-0.67968 1.08985,-0.66797 1.08985,-1.9336 0,-0.53906 -0.14063,-0.8789 -0.14062,-0.33985 -0.46875,-0.53907 -0.3164,-0.1875 -0.84375,-0.25781 -0.52734,-0.0703 -1.28906,-0.0703 h -2.0625 q -0.41016,0 -0.85547,0.0937 -0.44531,0.0937 -0.82031,0.35156 -0.36328,0.25781 -0.60938,0.70313 -0.23437,0.45703 -0.23437,1.17187 z m 1.07812,-10.83984 q 0,1.34765 0.63282,2.0039 0.63281,0.65625 1.79297,0.65625 1.17187,0 1.76953,-0.64453 0.60937,-0.65625 0.60937,-2.05078 0,-1.44141 -0.62109,-2.12109 -0.60938,-0.67969 -1.78125,-0.67969 -1.16016,0 -1.78125,0.70312 -0.6211,0.70313 -0.6211,2.13282 z" />
        <path
           inkscape:connector-curvature="0"
           id="path1029"
           style="font-size:24px;line-height:0.89999998"
           d="m 277.84644,431.23781 q -1.28907,0 -2.35547,-0.43359 -1.06641,-0.4336 -1.83985,-1.26563 -0.76172,-0.83203 -1.18359,-2.0625 -0.42188,-1.23047 -0.42188,-2.8125 0,-1.59375 0.38672,-2.84765 0.38672,-1.25391 1.08985,-2.1211 0.70312,-0.8789 1.67578,-1.33594 0.98437,-0.45703 2.16797,-0.45703 1.16015,0 2.08593,0.42188 0.92579,0.41015 1.57032,1.17187 0.64453,0.75 0.98437,1.81641 0.35156,1.05469 0.35156,2.34375 V 424.98 h -8.10937 q 0.0586,2.26172 0.94922,3.32812 0.90234,1.06641 2.67187,1.06641 0.59766,0 1.10157,-0.0586 0.51562,-0.0586 0.98437,-0.16407 0.48047,-0.11718 0.92578,-0.28125 0.44531,-0.17578 0.90235,-0.38672 v 1.89844 q -0.46875,0.22266 -0.92579,0.38672 -0.44531,0.16406 -0.92578,0.26953 -0.46875,0.10547 -0.98437,0.15235 -0.50391,0.0469 -1.10156,0.0469 z m -0.52735,-11.56641 q -1.33594,0 -2.12109,0.91407 -0.77344,0.91406 -0.90235,2.66015 h 5.76563 q 0,-0.79687 -0.16406,-1.45312 -0.15235,-0.66797 -0.49219,-1.13672 -0.32813,-0.46875 -0.84375,-0.72656 -0.51563,-0.25782 -1.24219,-0.25782 z" />
        <path
           inkscape:connector-curvature="0"
           id="path1031"
           style="font-size:24px;line-height:0.89999998"
           d="m 293.64331,431.00344 v -8.28516 q 0,-1.52344 -0.62109,-2.28516 -0.60938,-0.76172 -1.92188,-0.76172 -0.94922,0 -1.59375,0.30469 -0.64453,0.30469 -1.04297,0.90235 -0.38672,0.59765 -0.5625,1.46484 -0.16406,0.86719 -0.16406,1.99219 v 6.66797 h -2.13281 v -12.86719 h 1.73437 l 0.30469,1.73437 h 0.11719 q 0.29297,-0.5039 0.6914,-0.86718 0.41016,-0.375 0.89063,-0.6211 0.48047,-0.24609 1.01953,-0.36328 0.53906,-0.11719 1.10156,-0.11719 2.14453,0 3.22266,1.125 1.08984,1.11328 1.08984,3.57422 v 8.40235 z" />
        <path
           inkscape:connector-curvature="0"
           id="path1033"
           style="font-size:24px;line-height:0.89999998"
           d="m 303.65112,429.49172 q 0.21094,0 0.46875,-0.0234 0.26953,-0.0234 0.51563,-0.0586 0.24609,-0.0352 0.44531,-0.082 0.21094,-0.0469 0.31641,-0.082 v 1.61719 q -0.15235,0.0703 -0.38672,0.14063 -0.23438,0.0703 -0.51563,0.11718 -0.28125,0.0586 -0.58593,0.082 -0.30469,0.0352 -0.59766,0.0352 -0.72656,0 -1.34766,-0.1875 -0.62109,-0.1875 -1.07812,-0.64453 -0.44531,-0.45703 -0.70313,-1.23047 -0.25781,-0.78516 -0.25781,-1.96875 v -7.46484 h -1.81641 v -0.94922 l 1.81641,-0.91406 0.91406,-2.69532 h 1.23047 v 2.95313 h 3.23438 v 1.60547 h -3.23438 v 7.46484 q 0,1.13672 0.36328,1.71094 0.375,0.57422 1.21875,0.57422 z" />
      </g>
      <g
         id="text3902"
         style="font-style:normal;font-variant:normal;font-weight:normal;font-stretch:normal;line-height:0%;font-family:'Droid Sans';-inkscape-font-specification:'Droid Sans';text-align:center;letter-spacing:0px;word-spacing:0px;text-anchor:middle;fill:#000000;fill-opacity:1;stroke:none"
         aria-label="lldpd">
        <path
           inkscape:connector-curvature="0"
           id="path988"
           style="font-size:24px;line-height:0.85000002"
           d="m 406.48965,496.38898 h -2.13281 V 478.1546 h 2.13281 z" />
        <path
           inkscape:connector-curvature="0"
           id="path990"
           style="font-size:24px;line-height:0.85000002"
           d="m 412.72403,496.38898 h -2.13281 V 478.1546 h 2.13281 z" />
        <path
           inkscape:connector-curvature="0"
           id="path992"
           style="font-size:24px;line-height:0.85000002"
           d="m 424.7709,494.66632 h -0.0937 q -0.25781,0.39844 -0.60937,0.76172 -0.33984,0.35156 -0.79688,0.62109 -0.44531,0.26953 -1.00781,0.42188 -0.5625,0.15234 -1.26562,0.15234 -1.08985,0 -1.99219,-0.42187 -0.90234,-0.42188 -1.54688,-1.25391 -0.64453,-0.84375 -0.99609,-2.08594 -0.35156,-1.24218 -0.35156,-2.88281 0,-1.65234 0.35156,-2.89453 0.35156,-1.25391 0.99609,-2.09766 0.64454,-0.84375 1.54688,-1.26562 0.90234,-0.4336 1.99219,-0.4336 0.6914,0 1.2539,0.15235 0.5625,0.15234 1.00782,0.41015 0.45703,0.25782 0.80859,0.59766 0.35156,0.33984 0.60937,0.71484 h 0.14063 q -0.0352,-0.39843 -0.0703,-0.76171 -0.0234,-0.30469 -0.0469,-0.6211 -0.0234,-0.32812 -0.0234,-0.51562 v -5.10938 h 2.13282 v 18.23438 h -1.72266 z m -3.36328,0.1875 q 0.89063,0 1.5,-0.26953 0.6211,-0.26953 0.9961,-0.82031 0.38672,-0.55078 0.5625,-1.3711 0.1875,-0.83203 0.21093,-1.93359 v -0.48047 q 0,-1.18359 -0.16406,-2.09766 -0.15234,-0.92578 -0.53906,-1.54687 -0.375,-0.63281 -1.00781,-0.94922 -0.63282,-0.32812 -1.58203,-0.32812 -1.58204,0 -2.33204,1.27734 -0.73828,1.27734 -0.73828,3.66797 0,2.44922 0.73828,3.65625 0.75,1.19531 2.35547,1.19531 z" />
        <path
           inkscape:connector-curvature="0"
           id="path994"
           style="font-size:24px;line-height:0.85000002"
           d="m 436.70059,496.62335 q -0.6914,0 -1.2539,-0.15234 -0.5625,-0.15235 -1.01954,-0.39844 -0.44531,-0.25781 -0.79687,-0.59766 -0.33984,-0.33984 -0.60938,-0.71484 h -0.14062 q 0.0352,0.39844 0.0703,0.76172 0.0234,0.30469 0.0469,0.63281 0.0234,0.31641 0.0234,0.50391 v 5.49609 h -2.13281 v -18.63281 h 1.73438 l 0.30468,1.73437 h 0.0937 q 0.26954,-0.41015 0.60938,-0.76171 0.33984,-0.36329 0.78516,-0.6211 0.45703,-0.26953 1.01953,-0.42187 0.5625,-0.16407 1.26562,-0.16407 1.10156,0 2.00391,0.42188 0.90234,0.42187 1.53515,1.26562 0.64454,0.83204 0.9961,2.07422 0.35156,1.24219 0.35156,2.88282 0,1.65234 -0.35156,2.90625 -0.35156,1.24218 -0.9961,2.08593 -0.63281,0.84375 -1.53515,1.27735 -0.90235,0.42187 -2.00391,0.42187 z m -0.41015,-11.5664 q -0.89063,0 -1.51172,0.26953 -0.60938,0.26953 -0.9961,0.82031 -0.375,0.55078 -0.5625,1.37109 -0.17578,0.82032 -0.19922,1.9336 v 0.48047 q 0,1.18359 0.15235,2.10937 0.16406,0.91406 0.53906,1.54688 0.38672,0.62109 1.01953,0.94921 0.63281,0.31641 1.58203,0.31641 1.58203,0 2.32032,-1.27734 0.75,-1.27735 0.75,-3.66797 0,-2.4375 -0.75,-3.64453 -0.73829,-1.20703 -2.34375,-1.20703 z" />
        <path
           inkscape:connector-curvature="0"
           id="path996"
           style="font-size:24px;line-height:0.85000002"
           d="m 452.8959,494.66632 h -0.0937 q -0.25781,0.39844 -0.60937,0.76172 -0.33984,0.35156 -0.79688,0.62109 -0.44531,0.26953 -1.00781,0.42188 -0.5625,0.15234 -1.26562,0.15234 -1.08985,0 -1.99219,-0.42187 -0.90234,-0.42188 -1.54688,-1.25391 -0.64453,-0.84375 -0.99609,-2.08594 -0.35156,-1.24218 -0.35156,-2.88281 0,-1.65234 0.35156,-2.89453 0.35156,-1.25391 0.99609,-2.09766 0.64454,-0.84375 1.54688,-1.26562 0.90234,-0.4336 1.99219,-0.4336 0.6914,0 1.2539,0.15235 0.5625,0.15234 1.00782,0.41015 0.45703,0.25782 0.80859,0.59766 0.35156,0.33984 0.60937,0.71484 h 0.14063 q -0.0352,-0.39843 -0.0703,-0.76171 -0.0234,-0.30469 -0.0469,-0.6211 -0.0234,-0.32812 -0.0234,-0.51562 v -5.10938 h 2.13282 v 18.23438 h -1.72266 z m -3.36328,0.1875 q 0.89063,0 1.5,-0.26953 0.6211,-0.26953 0.9961,-0.82031 0.38672,-0.55078 0.5625,-1.3711 0.1875,-0.83203 0.21093,-1.93359 v -0.48047 q 0,-1.18359 -0.16406,-2.09766 -0.15234,-0.92578 -0.53906,-1.54687 -0.375,-0.63281 -1.00781,-0.94922 -0.63282,-0.32812 -1.58203,-0.32812 -1.58204,0 -2.33204,1.27734 -0.73828,1.27734 -0.73828,3.66797 0,2.44922 0.73828,3.65625 0.75,1.19531 2.35547,1.19531 z" />
      </g>
      <g
         id="text3915"
         style="font-style:normal;font-variant:normal;font-weight:normal;font-stretch:normal;line-height:0%;font-family:'Droid Sans';-inkscape-font-specification:'Droid Sans';text-align:center;letter-spacing:0px;word-spacing:0px;text-anchor:middle;fill:#000000;fill-opacity:1;stroke:none"
         aria-label="Keep alived">
        <path
           inkscape:connector-curvature="0"
           id="path967"
           style="font-size:24px;line-height:0.89999998"
           d="m 334.73425,589.5509 h -2.47265 l -5.28516,-8.17968 -1.62891,1.33593 v 6.84375 h -2.17968 v -17.13281 h 2.17968 v 8.56641 l 1.41797,-1.96875 5.29688,-6.59766 h 2.44922 l -6.09375,7.46484 z" />
        <path
           inkscape:connector-curvature="0"
           id="path969"
           style="font-size:24px;line-height:0.89999998"
           d="m 341.88269,589.78528 q -1.28906,0 -2.35547,-0.4336 -1.0664,-0.43359 -1.83984,-1.26562 -0.76172,-0.83203 -1.1836,-2.0625 -0.42187,-1.23047 -0.42187,-2.8125 0,-1.59375 0.38672,-2.84766 0.38672,-1.2539 1.08984,-2.12109 0.70313,-0.87891 1.67578,-1.33594 0.98438,-0.45703 2.16797,-0.45703 1.16016,0 2.08594,0.42188 0.92578,0.41015 1.57031,1.17187 0.64453,0.75 0.98438,1.81641 0.35156,1.05468 0.35156,2.34375 v 1.32422 h -8.10938 q 0.0586,2.26171 0.94922,3.32812 0.90235,1.06641 2.67188,1.06641 0.59765,0 1.10156,-0.0586 0.51563,-0.0586 0.98438,-0.16406 0.48046,-0.11719 0.92578,-0.28125 0.44531,-0.17578 0.90234,-0.38672 v 1.89844 q -0.46875,0.22266 -0.92578,0.38672 -0.44531,0.16406 -0.92578,0.26953 -0.46875,0.10547 -0.98438,0.15234 -0.5039,0.0469 -1.10156,0.0469 z m -0.52734,-11.56641 q -1.33594,0 -2.1211,0.91406 -0.77343,0.91407 -0.90234,2.66016 h 5.76562 q 0,-0.79687 -0.16406,-1.45312 -0.15234,-0.66797 -0.49219,-1.13672 -0.32812,-0.46875 -0.84375,-0.72657 -0.51562,-0.25781 -1.24218,-0.25781 z" />
        <path
           inkscape:connector-curvature="0"
           id="path971"
           style="font-size:24px;line-height:0.89999998"
           d="m 354.72644,589.78528 q -1.28906,0 -2.35547,-0.4336 -1.0664,-0.43359 -1.83984,-1.26562 -0.76172,-0.83203 -1.1836,-2.0625 -0.42187,-1.23047 -0.42187,-2.8125 0,-1.59375 0.38672,-2.84766 0.38672,-1.2539 1.08984,-2.12109 0.70313,-0.87891 1.67578,-1.33594 0.98438,-0.45703 2.16797,-0.45703 1.16016,0 2.08594,0.42188 0.92578,0.41015 1.57031,1.17187 0.64453,0.75 0.98438,1.81641 0.35156,1.05468 0.35156,2.34375 v 1.32422 h -8.10938 q 0.0586,2.26171 0.94922,3.32812 0.90235,1.06641 2.67188,1.06641 0.59765,0 1.10156,-0.0586 0.51563,-0.0586 0.98438,-0.16406 0.48046,-0.11719 0.92578,-0.28125 0.44531,-0.17578 0.90234,-0.38672 v 1.89844 q -0.46875,0.22266 -0.92578,0.38672 -0.44531,0.16406 -0.92578,0.26953 -0.46875,0.10547 -0.98438,0.15234 -0.5039,0.0469 -1.10156,0.0469 z m -0.52734,-11.56641 q -1.33594,0 -2.1211,0.91406 -0.77343,0.91407 -0.90234,2.66016 h 5.76562 q 0,-0.79687 -0.16406,-1.45312 -0.15234,-0.66797 -0.49219,-1.13672 -0.32812,-0.46875 -0.84375,-0.72657 -0.51562,-0.25781 -1.24218,-0.25781 z" />
        <path
           inkscape:connector-curvature="0"
           id="path973"
           style="font-size:24px;line-height:0.89999998"
           d="m 368.29675,589.78528 q -0.6914,0 -1.2539,-0.15235 -0.5625,-0.15234 -1.01953,-0.39843 -0.44532,-0.25782 -0.79688,-0.59766 -0.33984,-0.33984 -0.60937,-0.71484 h -0.14063 q 0.0352,0.39843 0.0703,0.76172 0.0234,0.30468 0.0469,0.63281 0.0234,0.3164 0.0234,0.5039 v 5.4961 h -2.13282 v -18.63281 h 1.73438 l 0.30469,1.73437 h 0.0937 q 0.26953,-0.41016 0.60937,-0.76172 0.33984,-0.36328 0.78516,-0.62109 0.45703,-0.26953 1.01953,-0.42188 0.5625,-0.16406 1.26562,-0.16406 1.10157,0 2.00391,0.42188 0.90234,0.42187 1.53516,1.26562 0.64453,0.83203 0.99609,2.07422 0.35156,1.24219 0.35156,2.88281 0,1.65235 -0.35156,2.90625 -0.35156,1.24219 -0.99609,2.08594 -0.63282,0.84375 -1.53516,1.27734 -0.90234,0.42188 -2.00391,0.42188 z m -0.41015,-11.56641 q -0.89063,0 -1.51172,0.26953 -0.60938,0.26953 -0.9961,0.82032 -0.375,0.55078 -0.5625,1.37109 -0.17578,0.82031 -0.19921,1.93359 v 0.48047 q 0,1.1836 0.15234,2.10938 0.16406,0.91406 0.53906,1.54687 0.38672,0.6211 1.01953,0.94922 0.63282,0.31641 1.58203,0.31641 1.58204,0 2.32032,-1.27735 0.75,-1.27734 0.75,-3.66797 0,-2.4375 -0.75,-3.64453 -0.73828,-1.20703 -2.34375,-1.20703 z" />
        <path
           inkscape:connector-curvature="0"
           id="path975"
           style="font-size:24px;line-height:0.89999998"
           d="m 325.16003,611.1509 -0.43359,-1.78125 h -0.0937 q -0.38672,0.52735 -0.77344,0.91407 -0.38672,0.375 -0.84375,0.62109 -0.45703,0.24609 -1.01953,0.36328 -0.5625,0.11719 -1.30078,0.11719 -0.80859,0 -1.48828,-0.23438 -0.67969,-0.22265 -1.18359,-0.6914 -0.49219,-0.48047 -0.77344,-1.19532 -0.28125,-0.72656 -0.28125,-1.71093 0,-1.92188 1.34765,-2.95313 1.35938,-1.03125 4.125,-1.125 l 2.15625,-0.082 v -0.80859 q 0,-0.78516 -0.17578,-1.3125 -0.16406,-0.52735 -0.49218,-0.84375 -0.31641,-0.32813 -0.79688,-0.46875 -0.46875,-0.14063 -1.07812,-0.14063 -0.97266,0 -1.81641,0.28125 -0.83203,0.28125 -1.60547,0.67969 l -0.75,-1.60547 q 0.86719,-0.46875 1.93359,-0.79687 1.06641,-0.32813 2.23829,-0.32813 1.19531,0 2.0625,0.24609 0.8789,0.23438 1.4414,0.76172 0.57422,0.51563 0.85547,1.32422 0.28125,0.8086 0.28125,1.95703 v 8.8125 z m -3.91406,-1.48828 q 0.71485,0 1.32422,-0.22265 0.60938,-0.22266 1.05469,-0.66797 0.44531,-0.45703 0.6914,-1.13672 0.25782,-0.69141 0.25782,-1.61719 v -1.16016 l -1.67578,0.082 q -1.05469,0.0469 -1.76954,0.23437 -0.71484,0.1875 -1.14843,0.52734 -0.42188,0.32813 -0.60938,0.8086 -0.1875,0.46875 -0.1875,1.0664 0,1.07813 0.5625,1.58204 0.57422,0.5039 1.5,0.5039 z" />
        <path
           inkscape:connector-curvature="0"
           id="path977"
           style="font-size:24px;line-height:0.89999998"
           d="m 332.78894,611.1509 h -2.13281 v -18.23437 h 2.13281 z" />
        <path
           inkscape:connector-curvature="0"
           id="path979"
           style="font-size:24px;line-height:0.89999998"
           d="m 339.02332,611.1509 h -2.13282 v -12.86718 h 2.13282 z m -2.29688,-16.34765 q 0,-0.70313 0.35156,-1.01953 0.36328,-0.31641 0.89063,-0.31641 0.25781,0 0.48047,0.082 0.23437,0.0703 0.39843,0.23438 0.17579,0.16406 0.26954,0.42187 0.10546,0.24609 0.10546,0.59766 0,0.67968 -0.375,1.01953 -0.36328,0.32812 -0.8789,0.32812 -0.52735,0 -0.89063,-0.32812 -0.35156,-0.32813 -0.35156,-1.01953 z" />
        <path
           inkscape:connector-curvature="0"
           id="path981"
           style="font-size:24px;line-height:0.89999998"
           d="m 345.48035,611.1509 -4.39453,-12.86718 h 2.20312 l 2.33203,7.16015 q 0.12891,0.38672 0.30469,0.9961 0.17578,0.60937 0.35156,1.24218 0.17578,0.63282 0.31641,1.19532 0.15234,0.5625 0.19922,0.85546 h 0.082 q 0.0586,-0.29296 0.19922,-0.85546 0.14062,-0.5625 0.3164,-1.19532 0.17578,-0.63281 0.35157,-1.24218 0.17578,-0.60938 0.30468,-0.9961 l 2.33203,-7.16015 h 2.20313 l -4.39453,12.86718 z" />
        <path
           inkscape:connector-curvature="0"
           id="path983"
           style="font-size:24px;line-height:0.89999998"
           d="m 359.69519,611.38528 q -1.28906,0 -2.35547,-0.4336 -1.0664,-0.43359 -1.83984,-1.26562 -0.76172,-0.83203 -1.1836,-2.0625 -0.42187,-1.23047 -0.42187,-2.8125 0,-1.59375 0.38672,-2.84766 0.38672,-1.2539 1.08984,-2.12109 0.70313,-0.87891 1.67578,-1.33594 0.98438,-0.45703 2.16797,-0.45703 1.16016,0 2.08594,0.42188 0.92578,0.41015 1.57031,1.17187 0.64453,0.75 0.98438,1.81641 0.35156,1.05468 0.35156,2.34375 v 1.32422 h -8.10938 q 0.0586,2.26171 0.94922,3.32812 0.90235,1.06641 2.67188,1.06641 0.59765,0 1.10156,-0.0586 0.51563,-0.0586 0.98438,-0.16406 0.48046,-0.11719 0.92578,-0.28125 0.44531,-0.17578 0.90234,-0.38672 v 1.89844 q -0.46875,0.22266 -0.92578,0.38672 -0.44531,0.16406 -0.92578,0.26953 -0.46875,0.10547 -0.98438,0.15234 -0.5039,0.0469 -1.10156,0.0469 z m -0.52734,-11.56641 q -1.33594,0 -2.1211,0.91406 -0.77343,0.91407 -0.90234,2.66016 h 5.76562 q 0,-0.79687 -0.16406,-1.45312 -0.15234,-0.66797 -0.49219,-1.13672 -0.32812,-0.46875 -0.84375,-0.72657 -0.51562,-0.25781 -1.24218,-0.25781 z" />
        <path
           inkscape:connector-curvature="0"
           id="path985"
           style="font-size:24px;line-height:0.89999998"
           d="m 375.39832,609.42825 h -0.0937 q -0.25782,0.39843 -0.60938,0.76172 -0.33984,0.35156 -0.79687,0.62109 -0.44532,0.26953 -1.00782,0.42187 -0.5625,0.15235 -1.26562,0.15235 -1.08985,0 -1.99219,-0.42188 -0.90234,-0.42187 -1.54687,-1.2539 -0.64454,-0.84375 -0.9961,-2.08594 -0.35156,-1.24219 -0.35156,-2.88281 0,-1.65235 0.35156,-2.89453 0.35156,-1.25391 0.9961,-2.09766 0.64453,-0.84375 1.54687,-1.26563 0.90234,-0.43359 1.99219,-0.43359 0.6914,0 1.2539,0.15234 0.5625,0.15235 1.00782,0.41016 0.45703,0.25781 0.80859,0.59766 0.35156,0.33984 0.60938,0.71484 h 0.14062 q -0.0352,-0.39844 -0.0703,-0.76172 -0.0234,-0.30469 -0.0469,-0.62109 -0.0234,-0.32813 -0.0234,-0.51563 v -5.10937 h 2.13281 v 18.23437 h -1.72266 z m -3.36329,0.1875 q 0.89063,0 1.5,-0.26953 0.6211,-0.26954 0.9961,-0.82032 0.38672,-0.55078 0.5625,-1.37109 0.1875,-0.83203 0.21094,-1.93359 v -0.48047 q 0,-1.1836 -0.16407,-2.09766 -0.15234,-0.92578 -0.53906,-1.54687 -0.375,-0.63282 -1.00781,-0.94922 -0.63281,-0.32813 -1.58203,-0.32813 -1.58203,0 -2.33203,1.27735 -0.73829,1.27734 -0.73829,3.66796 0,2.44922 0.73829,3.65625 0.75,1.19532 2.35546,1.19532 z" />
      </g>
      <g
         id="text3921"
         style="font-style:normal;font-variant:normal;font-weight:normal;font-stretch:normal;line-height:0%;font-family:'Droid Sans';-inkscape-font-specification:'Droid Sans';letter-spacing:0px;word-spacing:0px;fill:#000000;fill-opacity:1;stroke:none"
         aria-label="snmpd">
        <path
           inkscape:connector-curvature="0"
           id="path956"
           style="font-size:24px;line-height:1.25"
           d="m 95.427788,499.0076 q 0,0.9375 -0.339844,1.64062 -0.339844,0.70313 -0.984375,1.1836 -0.632812,0.46875 -1.535156,0.70312 -0.902344,0.23438 -2.027344,0.23438 -1.277344,0 -2.191406,-0.21094 -0.914063,-0.19922 -1.605469,-0.59766 v -1.94531 q 0.363281,0.1875 0.808594,0.375 0.445312,0.17578 0.9375,0.31641 0.492187,0.14062 1.007812,0.23437 0.527344,0.082 1.042969,0.082 0.761719,0 1.289063,-0.1289 0.539062,-0.12891 0.867187,-0.36328 0.339844,-0.2461 0.492188,-0.58594 0.152343,-0.35156 0.152343,-0.77344 0,-0.36328 -0.117187,-0.65625 -0.117188,-0.29297 -0.433594,-0.57422 -0.304687,-0.29297 -0.84375,-0.58593 -0.539062,-0.29297 -1.382812,-0.65625 -0.84375,-0.36329 -1.523438,-0.71485 -0.667969,-0.35156 -1.136719,-0.78515 -0.46875,-0.4336 -0.726562,-0.9961 -0.246094,-0.57422 -0.246094,-1.35937 0,-0.82032 0.316406,-1.45313 0.328125,-0.64453 0.914063,-1.07812 0.585937,-0.4336 1.40625,-0.65625 0.820312,-0.22266 1.828125,-0.22266 1.136719,0 2.074219,0.24609 0.949218,0.2461 1.792968,0.64454 l -0.738281,1.72265 q -0.761719,-0.33984 -1.570312,-0.58594 -0.796875,-0.25781 -1.628907,-0.25781 -1.195312,0 -1.769531,0.39844 -0.574219,0.38672 -0.574219,1.11328 0,0.41016 0.128907,0.71484 0.140625,0.30469 0.46875,0.57422 0.328125,0.26953 0.878906,0.55078 0.550781,0.26954 1.371094,0.60938 0.84375,0.35156 1.5,0.70312 0.667968,0.35157 1.136718,0.79688 0.46875,0.43359 0.714844,0.99609 0.246094,0.5625 0.246094,1.34766 z" />
        <path
           inkscape:connector-curvature="0"
           id="path958"
           style="font-size:24px;line-height:1.25"
           d="m 106.59576,502.53494 v -8.28515 q 0,-1.52344 -0.6211,-2.28516 -0.60937,-0.76172 -1.92187,-0.76172 -0.94922,0 -1.59375,0.30469 -0.64453,0.30469 -1.04297,0.90234 -0.38672,0.59766 -0.5625,1.46485 -0.16406,0.86718 -0.16406,1.99218 v 6.66797 h -2.132816 v -12.86718 h 1.734376 l 0.30469,1.73437 h 0.11718 q 0.29297,-0.50391 0.69141,-0.86719 0.41016,-0.375 0.89063,-0.62109 0.48046,-0.24609 1.01953,-0.36328 0.53906,-0.11719 1.10156,-0.11719 2.14453,0 3.22266,1.125 1.08984,1.11328 1.08984,3.57422 v 8.40234 z" />
        <path
           inkscape:connector-curvature="0"
           id="path960"
           style="font-size:24px;line-height:1.25"
           d="m 128.1231,502.53494 v -8.28515 q 0,-1.52344 -0.58594,-2.28516 -0.58593,-0.76172 -1.8164,-0.76172 -0.85547,0 -1.45313,0.28125 -0.59765,0.26953 -0.98437,0.8086 -0.375,0.52734 -0.55078,1.32421 -0.17579,0.78516 -0.17579,1.81641 v 7.10156 h -2.14453 v -8.28515 q 0,-1.52344 -0.58593,-2.28516 -0.57422,-0.76172 -1.80469,-0.76172 -0.90235,0 -1.51172,0.30469 -0.60938,0.30469 -0.98438,0.90234 -0.36328,0.59766 -0.52734,1.46485 -0.15234,0.86718 -0.15234,1.99218 v 6.66797 h -2.13282 v -12.86718 h 1.73438 l 0.30469,1.73437 h 0.11718 q 0.28125,-0.50391 0.66797,-0.86719 0.38672,-0.375 0.84375,-0.62109 0.46875,-0.24609 0.98438,-0.36328 0.52734,-0.11719 1.0664,-0.11719 1.40625,0 2.33204,0.51563 0.9375,0.51562 1.38281,1.61718 h 0.0937 q 0.30469,-0.55078 0.72656,-0.94922 0.43359,-0.39843 0.9375,-0.65625 0.51563,-0.26953 1.07813,-0.39843 0.5625,-0.12891 1.14843,-0.12891 2.05078,0 3.08203,1.125 1.04297,1.11328 1.04297,3.57422 v 8.40234 z" />
        <path
           inkscape:connector-curvature="0"
           id="path962"
           style="font-size:24px;line-height:1.25"
           d="m 140.04107,502.76932 q -0.69141,0 -1.25391,-0.15235 -0.5625,-0.15234 -1.01953,-0.39843 -0.44531,-0.25782 -0.79687,-0.59766 -0.33985,-0.33984 -0.60938,-0.71484 h -0.14062 q 0.0351,0.39843 0.0703,0.76172 0.0234,0.30468 0.0469,0.63281 0.0234,0.3164 0.0234,0.5039 v 5.4961 h -2.13281 v -18.63281 h 1.73437 l 0.30469,1.73437 h 0.0937 q 0.26953,-0.41016 0.60938,-0.76172 0.33984,-0.36328 0.78515,-0.62109 0.45703,-0.26953 1.01953,-0.42188 0.5625,-0.16406 1.26563,-0.16406 1.10156,0 2.00391,0.42188 0.90234,0.42187 1.53515,1.26562 0.64453,0.83203 0.9961,2.07422 0.35156,1.24219 0.35156,2.88281 0,1.65235 -0.35156,2.90625 -0.35157,1.24219 -0.9961,2.08594 -0.63281,0.84375 -1.53515,1.27734 -0.90235,0.42188 -2.00391,0.42188 z m -0.41016,-11.56641 q -0.89062,0 -1.51172,0.26953 -0.60937,0.26953 -0.99609,0.82032 -0.375,0.55078 -0.5625,1.37109 -0.17578,0.82031 -0.19922,1.93359 v 0.48047 q 0,1.1836 0.15235,2.10938 0.16406,0.91406 0.53906,1.54687 0.38672,0.6211 1.01953,0.94922 0.63281,0.31641 1.58203,0.31641 1.58203,0 2.32031,-1.27735 0.75,-1.27734 0.75,-3.66797 0,-2.4375 -0.75,-3.64453 -0.73828,-1.20703 -2.34375,-1.20703 z" />
        <path
           inkscape:connector-curvature="0"
           id="path964"
           style="font-size:24px;line-height:1.25"
           d="m 156.23638,500.81229 h -0.0937 q -0.25781,0.39843 -0.60937,0.76172 -0.33985,0.35156 -0.79688,0.62109 -0.44531,0.26953 -1.00781,0.42187 -0.5625,0.15235 -1.26563,0.15235 -1.08984,0 -1.99218,-0.42188 -0.90235,-0.42187 -1.54688,-1.2539 -0.64453,-0.84375 -0.99609,-2.08594 -0.35156,-1.24219 -0.35156,-2.88281 0,-1.65235 0.35156,-2.89453 0.35156,-1.25391 0.99609,-2.09766 0.64453,-0.84375 1.54688,-1.26563 0.90234,-0.43359 1.99218,-0.43359 0.69141,0 1.25391,0.15234 0.5625,0.15235 1.00781,0.41016 0.45703,0.25781 0.8086,0.59766 0.35156,0.33984 0.60937,0.71484 h 0.14063 q -0.0352,-0.39844 -0.0703,-0.76172 -0.0234,-0.30469 -0.0469,-0.62109 -0.0234,-0.32813 -0.0234,-0.51563 v -5.10937 h 2.13281 v 18.23437 h -1.72265 z m -3.36328,0.1875 q 0.89063,0 1.5,-0.26953 0.62109,-0.26954 0.99609,-0.82032 0.38672,-0.55078 0.5625,-1.37109 0.1875,-0.83203 0.21094,-1.93359 v -0.48047 q 0,-1.1836 -0.16406,-2.09766 -0.15234,-0.92578 -0.53906,-1.54687 -0.375,-0.63282 -1.00782,-0.94922 -0.63281,-0.32813 -1.58203,-0.32813 -1.58203,0 -2.33203,1.27735 -0.73828,1.27734 -0.73828,3.66796 0,2.44922 0.73828,3.65625 0.75,1.19532 2.35547,1.19532 z" />
      </g>
      <g
         id="text3925"
         style="font-style:normal;font-variant:normal;font-weight:normal;font-stretch:normal;line-height:0%;font-family:'Droid Sans';-inkscape-font-specification:'Droid Sans';text-align:center;letter-spacing:0px;word-spacing:0px;text-anchor:middle;fill:#000000;fill-opacity:1;stroke:none"
         aria-label="snmp- bridge- mib">
        <path
           inkscape:connector-curvature="0"
           id="path925"
           style="font-size:24px;line-height:0.89999998"
           d="m 187.54126,578.9353 q 0,0.9375 -0.33984,1.64063 -0.33985,0.70312 -0.98438,1.18359 -0.63281,0.46875 -1.53516,0.70313 -0.90234,0.23437 -2.02734,0.23437 -1.27734,0 -2.19141,-0.21094 -0.91406,-0.19921 -1.60546,-0.59765 v -1.94531 q 0.36328,0.1875 0.80859,0.375 0.44531,0.17578 0.9375,0.3164 0.49219,0.14063 1.00781,0.23438 0.52735,0.082 1.04297,0.082 0.76172,0 1.28906,-0.12891 0.53907,-0.1289 0.86719,-0.36328 0.33984,-0.24609 0.49219,-0.58594 0.15234,-0.35156 0.15234,-0.77343 0,-0.36329 -0.11719,-0.65625 -0.11718,-0.29297 -0.43359,-0.57422 -0.30469,-0.29297 -0.84375,-0.58594 -0.53906,-0.29297 -1.38281,-0.65625 -0.84375,-0.36328 -1.52344,-0.71484 -0.66797,-0.35157 -1.13672,-0.78516 -0.46875,-0.43359 -0.72656,-0.99609 -0.24609,-0.57422 -0.24609,-1.35938 0,-0.82031 0.3164,-1.45312 0.32813,-0.64454 0.91406,-1.07813 0.58594,-0.43359 1.40625,-0.65625 0.82032,-0.22266 1.82813,-0.22266 1.13672,0 2.07422,0.2461 0.94922,0.24609 1.79297,0.64453 l -0.73828,1.72266 q -0.76172,-0.33985 -1.57032,-0.58594 -0.79687,-0.25781 -1.6289,-0.25781 -1.19532,0 -1.76953,0.39843 -0.57422,0.38672 -0.57422,1.11328 0,0.41016 0.1289,0.71485 0.14063,0.30469 0.46875,0.57422 0.32813,0.26953 0.87891,0.55078 0.55078,0.26953 1.37109,0.60937 0.84375,0.35157 1.5,0.70313 0.66797,0.35156 1.13672,0.79687 0.46875,0.4336 0.71485,0.9961 0.24609,0.5625 0.24609,1.34765 z" />
        <path
           inkscape:connector-curvature="0"
           id="path927"
           style="font-size:24px;line-height:0.89999998"
           d="m 198.70923,582.46265 v -8.28516 q 0,-1.52344 -0.6211,-2.28516 -0.60937,-0.76171 -1.92187,-0.76171 -0.94922,0 -1.59375,0.30468 -0.64453,0.30469 -1.04297,0.90235 -0.38672,0.59765 -0.5625,1.46484 -0.16406,0.86719 -0.16406,1.99219 v 6.66797 h -2.13281 v -12.86719 h 1.73437 l 0.30469,1.73437 h 0.11719 q 0.29296,-0.5039 0.6914,-0.86718 0.41016,-0.375 0.89063,-0.6211 0.48047,-0.24609 1.01953,-0.36328 0.53906,-0.11719 1.10156,-0.11719 2.14453,0 3.22266,1.125 1.08984,1.11329 1.08984,3.57422 v 8.40235 z" />
        <path
           inkscape:connector-curvature="0"
           id="path929"
           style="font-size:24px;line-height:0.89999998"
           d="m 220.23657,582.46265 v -8.28516 q 0,-1.52344 -0.58594,-2.28516 -0.58593,-0.76171 -1.8164,-0.76171 -0.85547,0 -1.45313,0.28125 -0.59765,0.26953 -0.98437,0.80859 -0.375,0.52734 -0.55078,1.32422 -0.17578,0.78515 -0.17578,1.8164 v 7.10157 h -2.14454 v -8.28516 q 0,-1.52344 -0.58593,-2.28516 -0.57422,-0.76171 -1.80469,-0.76171 -0.90234,0 -1.51172,0.30468 -0.60937,0.30469 -0.98437,0.90235 -0.36329,0.59765 -0.52735,1.46484 -0.15234,0.86719 -0.15234,1.99219 v 6.66797 h -2.13281 v -12.86719 h 1.73437 l 0.30469,1.73437 h 0.11719 q 0.28125,-0.5039 0.66796,-0.86718 0.38672,-0.375 0.84375,-0.6211 0.46875,-0.24609 0.98438,-0.36328 0.52734,-0.11719 1.06641,-0.11719 1.40625,0 2.33203,0.51563 0.9375,0.51562 1.38281,1.61719 h 0.0937 q 0.30469,-0.55078 0.72656,-0.94922 0.4336,-0.39844 0.9375,-0.65625 0.51563,-0.26953 1.07813,-0.39844 0.5625,-0.12891 1.14843,-0.12891 2.05079,0 3.08204,1.125 1.04296,1.11329 1.04296,3.57422 v 8.40235 z" />
        <path
           inkscape:connector-curvature="0"
           id="path931"
           style="font-size:24px;line-height:0.89999998"
           d="m 232.15454,582.69702 q -0.69141,0 -1.25391,-0.15234 -0.5625,-0.15235 -1.01953,-0.39844 -0.44531,-0.25781 -0.79687,-0.59766 -0.33985,-0.33984 -0.60938,-0.71484 h -0.14062 q 0.0352,0.39844 0.0703,0.76172 0.0234,0.30469 0.0469,0.63281 0.0234,0.31641 0.0234,0.50391 v 5.49609 h -2.13281 v -18.63281 h 1.73438 l 0.30468,1.73437 h 0.0937 q 0.26953,-0.41015 0.60938,-0.76171 0.33984,-0.36329 0.78515,-0.6211 0.45704,-0.26953 1.01954,-0.42187 0.5625,-0.16407 1.26562,-0.16407 1.10156,0 2.00391,0.42188 0.90234,0.42187 1.53515,1.26562 0.64453,0.83204 0.9961,2.07422 0.35156,1.24219 0.35156,2.88282 0,1.65234 -0.35156,2.90625 -0.35157,1.24218 -0.9961,2.08593 -0.63281,0.84375 -1.53515,1.27735 -0.90235,0.42187 -2.00391,0.42187 z m -0.41016,-11.5664 q -0.89062,0 -1.51171,0.26953 -0.60938,0.26953 -0.9961,0.82031 -0.375,0.55078 -0.5625,1.37109 -0.17578,0.82032 -0.19922,1.9336 v 0.48047 q 0,1.18359 0.15235,2.10937 0.16406,0.91406 0.53906,1.54688 0.38672,0.62109 1.01953,0.94921 0.63281,0.31641 1.58203,0.31641 1.58203,0 2.32031,-1.27734 0.75,-1.27735 0.75,-3.66797 0,-2.4375 -0.75,-3.64453 -0.73828,-1.20703 -2.34375,-1.20703 z" />
        <path
           inkscape:connector-curvature="0"
           id="path933"
           style="font-size:24px;line-height:0.89999998"
           d="m 239.32642,577.01343 v -1.96875 h 5.8125 v 1.96875 z" />
        <path
           inkscape:connector-curvature="0"
           id="path935"
           style="font-size:24px;line-height:0.89999998"
           d="m 181.34204,590.96108 q 1.10156,0 2.00391,0.42188 0.90234,0.42187 1.53515,1.26562 0.64453,0.83203 0.9961,2.07422 0.35156,1.24219 0.35156,2.88281 0,1.65235 -0.35156,2.90625 -0.35157,1.24219 -0.9961,2.08594 -0.63281,0.84375 -1.53515,1.27735 -0.90235,0.42187 -2.00391,0.42187 -0.69141,0 -1.25391,-0.15234 -0.5625,-0.15235 -1.01953,-0.39844 -0.44531,-0.25781 -0.79687,-0.59766 -0.33985,-0.33984 -0.60938,-0.71484 h -0.14062 l -0.4336,1.62891 h -1.55859 v -18.23438 h 2.13281 v 4.40625 q 0,0.41016 -0.0117,0.87891 -0.0117,0.45703 -0.0352,0.85547 -0.0234,0.46875 -0.0469,0.91406 h 0.0937 q 0.26953,-0.41016 0.60938,-0.76172 0.33984,-0.35156 0.78515,-0.60938 0.45704,-0.25781 1.01954,-0.39843 0.5625,-0.15235 1.26562,-0.15235 z m -0.41016,1.76953 q -0.9375,0 -1.57031,0.30469 -0.62109,0.29297 -1.00781,0.90235 -0.375,0.60937 -0.53906,1.52343 -0.15235,0.91407 -0.15235,2.14453 0,1.1836 0.15235,2.10938 0.16406,0.91406 0.53906,1.54687 0.38672,0.6211 1.01953,0.94922 0.63281,0.31641 1.58203,0.31641 1.58203,0 2.32031,-1.27734 0.75,-1.27735 0.75,-3.66797 0,-2.4375 -0.75,-3.64453 -0.73828,-1.20704 -2.34375,-1.20704 z" />
        <path
           inkscape:connector-curvature="0"
           id="path937"
           style="font-size:24px;line-height:0.89999998"
           d="m 195.15845,590.96108 q 0.33984,0 0.76172,0.0352 0.42187,0.0234 0.72656,0.082 l -0.28125,1.96875 q -0.32813,-0.0586 -0.67969,-0.0937 -0.33984,-0.0469 -0.64453,-0.0469 -0.73828,0 -1.34766,0.30468 -0.60937,0.29297 -1.05468,0.85547 -0.4336,0.55078 -0.67969,1.33594 -0.23438,0.77344 -0.23438,1.72266 v 6.9375 h -2.13281 v -12.86719 h 1.73438 l 0.25781,2.35547 h 0.0937 q 0.29297,-0.50391 0.62109,-0.97266 0.33985,-0.46875 0.75,-0.82031 0.42188,-0.36328 0.9375,-0.57422 0.51563,-0.22266 1.17188,-0.22266 z" />
        <path
           inkscape:connector-curvature="0"
           id="path939"
           style="font-size:24px;line-height:0.89999998"
           d="m 201.28735,604.06265 h -2.13281 v -12.86719 h 2.13281 z m -2.29687,-16.34766 q 0,-0.70313 0.35156,-1.01953 0.36328,-0.31641 0.89063,-0.31641 0.25781,0 0.48046,0.082 0.23438,0.0703 0.39844,0.23438 0.17578,0.16406 0.26953,0.42187 0.10547,0.2461 0.10547,0.59766 0,0.67969 -0.375,1.01953 -0.36328,0.32813 -0.8789,0.32813 -0.52735,0 -0.89063,-0.32813 -0.35156,-0.32812 -0.35156,-1.01953 z" />
        <path
           inkscape:connector-curvature="0"
           id="path941"
           style="font-size:24px;line-height:0.89999998"
           d="m 213.33423,602.33999 h -0.0937 q -0.25781,0.39844 -0.60938,0.76172 -0.33984,0.35156 -0.79687,0.62109 -0.44531,0.26953 -1.00781,0.42188 -0.5625,0.15234 -1.26563,0.15234 -1.08984,0 -1.99219,-0.42187 -0.90234,-0.42188 -1.54687,-1.25391 -0.64453,-0.84375 -0.9961,-2.08594 -0.35156,-1.24219 -0.35156,-2.88281 0,-1.65234 0.35156,-2.89453 0.35157,-1.25391 0.9961,-2.09766 0.64453,-0.84375 1.54687,-1.26562 0.90235,-0.4336 1.99219,-0.4336 0.69141,0 1.25391,0.15235 0.5625,0.15234 1.00781,0.41015 0.45703,0.25782 0.80859,0.59766 0.35157,0.33984 0.60938,0.71484 h 0.14062 q -0.0352,-0.39843 -0.0703,-0.76172 -0.0234,-0.30468 -0.0469,-0.62109 -0.0234,-0.32812 -0.0234,-0.51562 v -5.10938 h 2.13281 v 18.23438 h -1.72266 z m -3.36328,0.1875 q 0.89062,0 1.5,-0.26953 0.62109,-0.26953 0.99609,-0.82031 0.38672,-0.55079 0.5625,-1.3711 0.1875,-0.83203 0.21094,-1.93359 v -0.48047 q 0,-1.18359 -0.16406,-2.09766 -0.15235,-0.92578 -0.53907,-1.54687 -0.375,-0.63281 -1.00781,-0.94922 -0.63281,-0.32813 -1.58203,-0.32813 -1.58203,0 -2.33203,1.27735 -0.73828,1.27734 -0.73828,3.66797 0,2.44922 0.73828,3.65625 0.75,1.19531 2.35547,1.19531 z" />
        <path
           inkscape:connector-curvature="0"
           id="path943"
           style="font-size:24px;line-height:0.89999998"
           d="m 229.36548,591.19546 v 1.32422 l -2.3086,0.3164 q 0.32813,0.41016 0.55079,1.05469 0.22265,0.63281 0.22265,1.44141 0,0.89062 -0.28125,1.65234 -0.26953,0.75 -0.83203,1.30078 -0.55078,0.55078 -1.37109,0.86719 -0.82032,0.30469 -1.91016,0.30469 -0.25781,0 -0.51562,0 -0.25782,-0.0117 -0.42188,-0.0469 -0.19922,0.11719 -0.39844,0.26953 -0.1875,0.14063 -0.35156,0.32813 -0.15234,0.1875 -0.25781,0.42187 -0.0937,0.23438 -0.0937,0.51563 0,0.3164 0.14062,0.51562 0.14063,0.1875 0.375,0.29297 0.2461,0.10547 0.57422,0.14063 0.32813,0.0352 0.69141,0.0352 h 2.0625 q 1.08984,0 1.83984,0.28125 0.75,0.26953 1.21875,0.73828 0.48047,0.46875 0.69141,1.11329 0.21094,0.63281 0.21094,1.34765 0,1.03125 -0.38672,1.85156 -0.375,0.82032 -1.16016,1.38282 -0.78516,0.57422 -1.99219,0.8789 -1.19531,0.30469 -2.82422,0.30469 -1.2539,0 -2.1914,-0.24609 -0.9375,-0.2461 -1.5586,-0.71485 -0.62109,-0.46875 -0.9375,-1.13672 -0.30468,-0.65625 -0.30468,-1.48828 0,-0.70312 0.22265,-1.24218 0.23438,-0.52735 0.6211,-0.91407 0.38672,-0.38672 0.89062,-0.63281 0.51563,-0.24609 1.06641,-0.375 -0.49219,-0.22266 -0.8086,-0.70312 -0.3164,-0.48047 -0.3164,-1.10157 0,-0.71484 0.375,-1.23047 0.375,-0.52734 1.18359,-1.01953 -0.5039,-0.21093 -0.92578,-0.57422 -0.41016,-0.375 -0.70312,-0.84375 -0.28125,-0.48046 -0.44532,-1.04296 -0.15234,-0.5625 -0.15234,-1.16016 0,-1.04297 0.29297,-1.86328 0.29297,-0.82031 0.86719,-1.39453 0.57421,-0.57422 1.42968,-0.87891 0.85547,-0.30469 1.99219,-0.30469 0.43359,0 0.89063,0.0703 0.46875,0.0586 0.78515,0.16406 z m -9.50391,14.97656 q 0,0.43359 0.15235,0.80859 0.15234,0.375 0.49218,0.64454 0.35157,0.26953 0.91407,0.42187 0.57421,0.16406 1.41796,0.16406 2.17969,0 3.25782,-0.67968 1.08984,-0.66797 1.08984,-1.9336 0,-0.53906 -0.14062,-0.8789 -0.14063,-0.33985 -0.46875,-0.53907 -0.31641,-0.1875 -0.84375,-0.25781 -0.52735,-0.0703 -1.28907,-0.0703 h -2.0625 q -0.41015,0 -0.85547,0.0937 -0.44531,0.0937 -0.82031,0.35156 -0.36328,0.25781 -0.60937,0.70313 -0.23438,0.45703 -0.23438,1.17187 z m 1.07813,-10.83984 q 0,1.34765 0.63281,2.0039 0.63281,0.65625 1.79297,0.65625 1.17187,0 1.76953,-0.64453 0.60937,-0.65625 0.60937,-2.05078 0,-1.44141 -0.62109,-2.12109 -0.60937,-0.67969 -1.78125,-0.67969 -1.16016,0 -1.78125,0.70312 -0.62109,0.70313 -0.62109,2.13282 z" />
        <path
           inkscape:connector-curvature="0"
           id="path945"
           style="font-size:24px;line-height:0.89999998"
           d="m 236.95923,604.29702 q -1.28906,0 -2.35547,-0.43359 -1.06641,-0.4336 -1.83984,-1.26563 -0.76172,-0.83203 -1.1836,-2.0625 -0.42187,-1.23047 -0.42187,-2.8125 0,-1.59375 0.38672,-2.84765 0.38671,-1.25391 1.08984,-2.1211 0.70312,-0.8789 1.67578,-1.33594 0.98438,-0.45703 2.16797,-0.45703 1.16016,0 2.08594,0.42188 0.92578,0.41015 1.57031,1.17187 0.64453,0.75 0.98437,1.81641 0.35157,1.05469 0.35157,2.34375 v 1.32422 h -8.10938 q 0.0586,2.26172 0.94922,3.32812 0.90234,1.06641 2.67188,1.06641 0.59765,0 1.10156,-0.0586 0.51562,-0.0586 0.98437,-0.16407 0.48047,-0.11718 0.92578,-0.28125 0.44532,-0.17578 0.90235,-0.38672 v 1.89844 q -0.46875,0.22266 -0.92578,0.38672 -0.44532,0.16406 -0.92578,0.26953 -0.46875,0.10547 -0.98438,0.15235 -0.50391,0.0469 -1.10156,0.0469 z m -0.52735,-11.56641 q -1.33593,0 -2.12109,0.91407 -0.77344,0.91406 -0.90234,2.66015 h 5.76562 q 0,-0.79687 -0.16406,-1.45312 -0.15234,-0.66797 -0.49219,-1.13672 -0.32812,-0.46875 -0.84375,-0.72656 -0.51562,-0.25782 -1.24219,-0.25782 z" />
        <path
           inkscape:connector-curvature="0"
           id="path947"
           style="font-size:24px;line-height:0.89999998"
           d="m 243.63892,598.61343 v -1.96875 h 5.8125 v 1.96875 z" />
        <path
           inkscape:connector-curvature="0"
           id="path949"
           style="font-size:24px;line-height:0.89999998"
           d="m 208.49438,625.66265 v -8.28516 q 0,-1.52344 -0.58593,-2.28516 -0.58594,-0.76172 -1.81641,-0.76172 -0.85547,0 -1.45312,0.28125 -0.59766,0.26954 -0.98438,0.8086 -0.375,0.52734 -0.55078,1.32422 -0.17578,0.78515 -0.17578,1.8164 v 7.10157 h -2.14453 v -8.28516 q 0,-1.52344 -0.58594,-2.28516 -0.57422,-0.76172 -1.80469,-0.76172 -0.90234,0 -1.51172,0.30469 -0.60937,0.30469 -0.98437,0.90235 -0.36328,0.59765 -0.52735,1.46484 -0.15234,0.86719 -0.15234,1.99219 v 6.66797 h -2.13281 v -12.86719 h 1.73437 l 0.30469,1.73437 h 0.11719 q 0.28125,-0.5039 0.66797,-0.86718 0.38672,-0.375 0.84375,-0.6211 0.46875,-0.24609 0.98437,-0.36328 0.52735,-0.11719 1.06641,-0.11719 1.40625,0 2.33203,0.51563 0.9375,0.51562 1.38281,1.61719 h 0.0937 q 0.30469,-0.55079 0.72656,-0.94922 0.4336,-0.39844 0.9375,-0.65625 0.51563,-0.26953 1.07813,-0.39844 0.5625,-0.12891 1.14844,-0.12891 2.05078,0 3.08203,1.125 1.04297,1.11328 1.04297,3.57422 v 8.40235 z" />
        <path
           inkscape:connector-curvature="0"
           id="path951"
           style="font-size:24px;line-height:0.89999998"
           d="m 216.73267,625.66265 h -2.13282 v -12.86719 h 2.13282 z m -2.29688,-16.34766 q 0,-0.70313 0.35156,-1.01953 0.36328,-0.31641 0.89063,-0.31641 0.25781,0 0.48047,0.082 0.23437,0.0703 0.39843,0.23438 0.17579,0.16406 0.26954,0.42187 0.10546,0.2461 0.10546,0.59766 0,0.67969 -0.375,1.01953 -0.36328,0.32813 -0.8789,0.32813 -0.52735,0 -0.89063,-0.32813 -0.35156,-0.32812 -0.35156,-1.01953 z" />
        <path
           inkscape:connector-curvature="0"
           id="path953"
           style="font-size:24px;line-height:0.89999998"
           d="m 226.64673,612.56108 q 1.10156,0 2.0039,0.42188 0.90235,0.42187 1.53516,1.26562 0.64453,0.83203 0.99609,2.07422 0.35157,1.24219 0.35157,2.88281 0,1.65235 -0.35157,2.90625 -0.35156,1.24219 -0.99609,2.08594 -0.63281,0.84375 -1.53516,1.27735 -0.90234,0.42187 -2.0039,0.42187 -0.69141,0 -1.25391,-0.15234 -0.5625,-0.15235 -1.01953,-0.39844 -0.44531,-0.25781 -0.79687,-0.59766 -0.33985,-0.33984 -0.60938,-0.71484 h -0.14062 l -0.4336,1.62891 h -1.55859 v -18.23438 h 2.13281 v 4.40625 q 0,0.41016 -0.0117,0.87891 -0.0117,0.45703 -0.0351,0.85547 -0.0234,0.46875 -0.0469,0.91406 h 0.0937 q 0.26953,-0.41016 0.60938,-0.76172 0.33984,-0.35156 0.78515,-0.60938 0.45703,-0.25781 1.01953,-0.39843 0.5625,-0.15235 1.26563,-0.15235 z m -0.41016,1.76953 q -0.9375,0 -1.57031,0.30469 -0.62109,0.29297 -1.00781,0.90235 -0.375,0.60937 -0.53907,1.52343 -0.15234,0.91407 -0.15234,2.14453 0,1.1836 0.15234,2.10938 0.16407,0.91406 0.53907,1.54687 0.38672,0.6211 1.01953,0.94922 0.63281,0.31641 1.58203,0.31641 1.58203,0 2.32031,-1.27734 0.75,-1.27735 0.75,-3.66797 0,-2.4375 -0.75,-3.64453 -0.73828,-1.20704 -2.34375,-1.20704 z" />
      </g>
      <path
         inkscape:connector-curvature="0"
         d="m 316.43033,259.2062 c -45.31787,20.65962 -34.65485,55.64768 -34.65485,55.9809 h 14.99488 l -24.15841,20.15979 -20.3264,-20.32639 h 15.16148 c 0,0 -11.32945,-48.48347 48.9833,-55.8143 z"
         id="path968"
         sodipodi:nodetypes="ccccccc"
         sodipodi:stroke-cmyk="(0 0 0 0.8)"
         style="font-size:12px;fill:#542437;fill-opacity:0.86666667;fill-rule:evenodd;stroke:#542437;stroke-width:2;stroke-linecap:round;stroke-linejoin:round;stroke-miterlimit:4;stroke-dasharray:none;stroke-opacity:1" />
      <path
         style="font-size:12px;fill:#542437;fill-opacity:0.86666667;fill-rule:evenodd;stroke:#542437;stroke-width:2;stroke-linecap:round;stroke-linejoin:round;stroke-miterlimit:4;stroke-dasharray:none;stroke-opacity:1"
         sodipodi:stroke-cmyk="(0 0 0 0.8)"
         sodipodi:nodetypes="ccccccc"
         id="use4076"
         d="m 207.4408,396.87223 c -49.79851,-0.79878 -55.19048,35.37844 -55.33355,35.67938 l 13.54245,6.43807 -30.474,7.83464 -9.63039,-27.08469 13.69291,6.50959 c 0,0 10.58435,-48.65156 68.20258,-29.37699 z"
         inkscape:connector-curvature="0" />
      <path
         style="font-size:12px;fill:#542437;fill-opacity:0.86666667;fill-rule:evenodd;stroke:#542437;stroke-width:2;stroke-linecap:round;stroke-linejoin:round;stroke-miterlimit:4;stroke-dasharray:none;stroke-opacity:1"
         sodipodi:stroke-cmyk="(0 0 0 0.8)"
         sodipodi:nodetypes="ccccccc"
         id="use4078"
         d="M 252.17557,462.48315 C 208.95489,487.23193 222.79749,521.0882 222.8282,521.42 l 14.93105,-1.38213 -22.19737,22.30073 -22.11343,-18.3663 15.09694,-1.39749 c 0,0 -15.75011,-47.2328 43.63018,-60.09166 z"
         inkscape:connector-curvature="0" />
      <path
         style="font-size:12px;fill:#542437;fill-opacity:0.86666667;fill-rule:evenodd;stroke:#542437;stroke-width:2;stroke-linecap:round;stroke-linejoin:round;stroke-miterlimit:4;stroke-dasharray:none;stroke-opacity:1"
         sodipodi:stroke-cmyk="(0 0 0 0.8)"
         sodipodi:nodetypes="ccccccc"
         id="use4080"
         d="m 341.07269,391.17242 c 56.53927,-22.24139 69.63642,25.79472 69.63642,25.79472 l 13.3363,-7.21205 -8.21054,27.54835 -30.83981,-6.24117 13.18975,-7.1328 c -0.1585,-0.2931 -7.42233,-36.14141 -57.11212,-32.75705 z"
         inkscape:connector-curvature="0" />
      <path
         style="font-size:12px;fill:#542437;fill-opacity:0.86666667;fill-rule:evenodd;stroke:#542437;stroke-width:2;stroke-linecap:round;stroke-linejoin:round;stroke-miterlimit:4;stroke-dasharray:none;stroke-opacity:1"
         sodipodi:stroke-cmyk="(0 0 0 0.8)"
         sodipodi:nodetypes="ccccccc"
         id="use4082"
         d="m 352.78663,516.04086 h 15.16148 l -20.3264,20.32639 -24.15841,-20.15979 h 14.99488 c 0,-0.33322 10.66302,-35.32128 -34.65485,-55.9809 60.31275,7.33083 48.9833,55.8143 48.9833,55.8143 z"
         inkscape:connector-curvature="0" />
      <g
         id="text4088"
         style="font-style:normal;font-variant:normal;font-weight:normal;font-stretch:normal;font-size:24px;line-height:0%;font-family:'Droid Sans';-inkscape-font-specification:'Droid Sans';letter-spacing:0px;word-spacing:0px;fill:#000000;fill-opacity:1;stroke:none"
         transform="translate(-4,-4)"
         aria-label="SNMP">
        <path
           inkscape:connector-curvature="0"
           id="path916"
           d="m 263.20166,293.5484 q 1.12629,0.15357 1.96495,0.68187 0.82863,0.51511 1.34271,1.34214 0.51407,0.82704 0.69353,1.93961 0.16785,1.11099 -0.0142,2.44629 -0.17573,1.28885 -0.53831,2.38665 -0.34938,1.08777 -0.84707,1.78868 l -2.06681,-0.28181 q 0.23961,-0.36946 0.49346,-0.84341 0.24384,-0.48715 0.45917,-1.02549 0.21533,-0.53835 0.38896,-1.11786 0.16202,-0.58109 0.24118,-1.16166 0.25332,-1.85781 -0.32304,-2.83526 -0.57477,-0.98907 -1.87524,-1.16638 -0.62701,-0.0855 -1.11521,0.0253 -0.48662,0.0992 -0.92837,0.47661 -0.45178,0.36417 -0.9083,1.02338 -0.46814,0.65763 -1.045,1.67891 -0.5473,0.97799 -1.12786,1.67942 -0.59058,0.68825 -1.26245,1.1052 -0.67028,0.40535 -1.46987,0.5447 -0.79801,0.12773 -1.77336,-0.005 -1.0218,-0.13932 -1.77232,-0.62012 -0.75051,-0.4808 -1.20442,-1.22867 -0.46552,-0.74945 -0.62914,-1.71794 -0.16205,-0.98009 -0.008,-2.10639 0.18841,-1.38175 0.60587,-2.44841 0.40586,-1.06824 0.92941,-1.87207 l 1.70529,1.02494 q -0.43964,0.70882 -0.81488,1.63932 -0.38527,0.91729 -0.5246,1.93909 -0.19315,1.41658 0.36262,2.28478 0.54416,0.86662 1.65885,1.0186 0.66184,0.0903 1.17326,-0.0174 0.49982,-0.10926 0.95001,-0.46182 0.43859,-0.35415 0.87717,-0.9685 0.42855,-0.62754 0.94472,-1.55065 0.56208,-0.99963 1.11096,-1.72904 0.55048,-0.74102 1.18065,-1.19914 0.63017,-0.45813 1.39809,-0.62545 0.76951,-0.17893 1.76809,-0.0428 z" />
        <path
           inkscape:connector-curvature="0"
           id="path918"
           d="m 274.38541,279.29297 -1.1569,2.23821 -16.46537,0.9741 -0.043,0.0833 q 0.83388,0.35187 1.64659,0.71918 0.69819,0.30812 1.44809,0.66934 0.75527,0.35082 1.34866,0.65753 l 8.25538,4.26708 -0.92552,1.79057 -15.21988,-7.86692 1.14613,-2.21739 16.38677,-0.97515 0.0377,-0.0729 q -0.80733,-0.37772 -1.59922,-0.73427 -0.33851,-0.16178 -0.69281,-0.31853 -0.35933,-0.17254 -0.71363,-0.32929 -0.35934,-0.17254 -0.68744,-0.32894 -0.32272,-0.16681 -0.59338,-0.30671 l -8.32826,-4.30475 0.93628,-1.81139 z" />
        <path
           inkscape:connector-curvature="0"
           id="path920"
           d="m 281.46332,272.49733 -13.47867,-8.38309 -0.0728,0.059 q 0.60072,0.62937 1.17584,1.26439 0.50133,0.54399 1.03611,1.16647 0.5365,0.60599 0.95714,1.12488 l 6.44977,7.9563 -1.56577,1.2693 -10.78898,-13.30906 2.51252,-2.03678 12.54706,7.81077 0.0546,-0.0443 -5.02772,-13.90632 2.51252,-2.03677 10.78898,13.30906 -1.69322,1.37261 -6.54571,-8.07465 q -0.38374,-0.47337 -0.85996,-1.09806 -0.47623,-0.62468 -0.89908,-1.20212 -0.48753,-0.67585 -0.99894,-1.36254 l -0.0728,0.059 5.36195,14.93273 z" />
        <path
           inkscape:connector-curvature="0"
           id="path922"
           d="m 298.6081,250.21582 q 0.36726,1.00117 0.39822,2.03833 0.042,1.03312 -0.38883,2.0025 -0.43483,0.95838 -1.42163,1.80718 -0.97983,0.83376 -2.65211,1.4472 l -1.65028,0.60538 2.29638,6.26006 -2.04635,0.75067 -5.90038,-16.08474 3.98268,-1.46097 q 1.47425,-0.5408 2.65847,-0.61322 1.18019,-0.0834 2.09528,0.26742 0.91105,0.33985 1.56397,1.09892 0.65292,0.75908 1.06458,1.88127 z m -6.35229,6.16229 1.41924,-0.52062 q 1.02317,-0.37533 1.71773,-0.82983 0.70556,-0.45854 1.05939,-1.02522 0.36079,-0.58171 0.38783,-1.29064 0.023,-0.71993 -0.3039,-1.61109 -0.57309,-1.56226 -1.74968,-1.97945 -1.18063,-0.42819 -3.09495,0.27404 l -1.7603,0.64573 z" />
      </g>
      <g
         id="text4105"
         style="font-style:normal;font-variant:normal;font-weight:normal;font-stretch:normal;font-size:24px;line-height:0%;font-family:'Droid Sans';-inkscape-font-specification:'Droid Sans';letter-spacing:0px;word-spacing:0px;fill:#000000;fill-opacity:1;stroke:none"
         transform="translate(-4,-6)"
         aria-label="AgentX">
        <path
           inkscape:connector-curvature="0"
           id="path903"
           d="m 146.03723,410.80519 -5.5586,-0.89373 -3.05602,5.60811 3.75302,4.20714 -1.05419,1.93454 -12.09472,-13.75742 0.95326,-1.74932 18.12265,2.69556 z m -7.5873,-1.21183 -5.1929,-0.85459 q -0.21887,-0.0392 -0.53688,-0.0924 -0.3124,-0.0635 -0.67157,-0.13909 -0.35917,-0.0756 -0.73892,-0.16243 -0.39004,-0.0924 -0.75389,-0.18394 0.27974,0.24586 0.56885,0.52351 0.2891,0.27766 0.55763,0.5441 0.25824,0.26083 0.47531,0.49923 0.2124,0.22251 0.35368,0.37957 l 3.54994,3.8696 z" />
        <path
           inkscape:connector-curvature="0"
           id="path905"
           d="m 146.61491,391.27591 0.93372,0.93901 -1.41393,1.85216 q 0.52187,0.0595 1.13422,0.35953 0.60409,0.29173 1.17423,0.8651 0.62799,0.63155 0.96564,1.37 0.33771,0.72187 0.32719,1.50905 -0.002,0.77892 -0.36078,1.58169 -0.36685,0.79447 -1.13966,1.56292 -0.18282,0.18179 -0.36563,0.36357 -0.19108,0.17348 -0.33221,0.26423 -0.0586,0.22357 -0.0925,0.47206 -0.0338,0.23193 -0.0179,0.48057 0.0242,0.24037 0.11465,0.48093 0.0988,0.2323 0.2971,0.43174 0.2231,0.22436 0.46328,0.26647 0.23193,0.0338 0.47249,-0.0567 0.24887,-0.0987 0.50634,-0.30516 0.25746,-0.20644 0.51506,-0.46259 l 1.46253,-1.45428 q 0.77281,-0.76845 1.50295,-1.09784 0.72187,-0.33771 1.38478,-0.33583 0.67122,-0.006 1.27526,0.30191 0.59578,0.3 1.09982,0.8069 0.72714,0.73126 1.03132,1.58562 0.31249,0.8461 0.15236,1.79859 -0.15188,0.9608 -0.79295,2.02794 -0.63276,1.05887 -1.78782,2.20742 -0.88915,0.88414 -1.72746,1.37067 -0.8383,0.48653 -1.60924,0.59207 -0.77094,0.10555 -1.46629,-0.14501 -0.67878,-0.25051 -1.26545,-0.84051 -0.49578,-0.49859 -0.71799,-1.03783 -0.20563,-0.5392 -0.20409,-1.0861 0.002,-0.54691 0.18535,-1.07672 0.19211,-0.53807 0.49178,-1.01784 -0.50601,0.18916 -1.06916,0.0716 -0.56314,-0.11761 -1.00108,-0.55803 -0.50404,-0.50689 -0.6017,-1.13694 -0.10591,-0.63835 0.12042,-1.55751 -0.50606,0.20573 -1.06136,0.24559 -0.55526,0.0233 -1.09352,-0.10252 -0.53822,-0.1424 -1.05118,-0.42558 -0.50465,-0.29146 -0.92606,-0.71526 -0.7354,-0.73957 -1.10606,-1.52783 -0.37066,-0.78826 -0.36837,-1.60032 0.002,-0.81207 0.39408,-1.63132 0.39178,-0.81925 1.19783,-1.62075 0.30746,-0.30573 0.68112,-0.57813 0.37371,-0.28897 0.67244,-0.43728 z m 3.82081,17.32117 q 0.30573,0.30747 0.67817,0.46596 0.37244,0.1585 0.80347,0.11 0.43934,-0.0568 0.94563,-0.34536 0.52287,-0.28855 1.12117,-0.88348 1.54562,-1.53691 1.83087,-2.77907 0.30183,-1.24211 -0.59057,-2.13957 -0.3801,-0.38225 -0.71944,-0.52408 -0.33934,-0.14183 -0.71249,-0.0517 -0.35657,0.0901 -0.78009,0.41212 -0.42352,0.32197 -0.96365,0.85906 l -1.46253,1.45428 q -0.29084,0.2892 -0.54051,0.66967 -0.24967,0.38047 -0.3338,0.8277 -0.0758,0.43897 0.0637,0.92827 0.15606,0.48934 0.6601,0.99623 z m -6.87873,-8.44675 q 0.95024,0.95563 1.86169,0.97478 0.91146,0.0191 1.73413,-0.79889 0.83098,-0.82629 0.80032,-1.70474 -0.0306,-0.89502 -1.01391,-1.88389 -1.01634,-1.0221 -1.93601,-1.06614 -0.91137,-0.0523 -1.74234,0.774 -0.82267,0.81804 -0.76732,1.75456 0.0554,0.93652 1.06344,1.95032 z" />
        <path
           inkscape:connector-curvature="0"
           id="path907"
           d="m 162.51399,396.92405 q -1.1477,0.58692 -2.29458,0.68641 -1.14687,0.0995 -2.21432,-0.28915 -1.05701,-0.39397 -1.99286,-1.29742 -0.93584,-0.90345 -1.65615,-2.31199 -0.72564,-1.41898 -0.95223,-2.71145 -0.2266,-1.29247 0.005,-2.3847 0.22585,-1.10266 0.88375,-1.95242 0.66834,-0.8551 1.72213,-1.39399 1.03293,-0.52823 2.04927,-0.57413 1.011,-0.0563 1.93167,0.3284 0.91532,0.3743 1.70344,1.16903 0.79321,0.77896 1.38012,1.92665 l 0.60292,1.17901 -7.22007,3.69222 q 1.08193,1.98701 2.36042,2.53097 1.28893,0.53862 2.86441,-0.26706 0.53212,-0.27211 0.95408,-0.55371 0.43241,-0.28693 0.80173,-0.59426 0.37442,-0.32309 0.6962,-0.67192 0.31645,-0.35925 0.62732,-0.75514 l 0.86436,1.69024 q -0.31597,0.41167 -0.64818,0.76582 -0.32178,0.34883 -0.70154,0.66149 -0.36932,0.30732 -0.80706,0.58382 -0.4273,0.27117 -0.95942,0.54328 z m -5.73573,-10.05789 q -1.18943,0.60825 -1.47231,1.77956 -0.27245,1.16597 0.40779,2.77927 l 5.13334,-2.6251 q -0.36282,-0.70949 -0.80768,-1.21907 -0.43976,-0.52536 -0.95576,-0.78797 -0.50557,-0.26795 -1.08203,-0.26272 -0.57646,0.005 -1.22335,0.33603 z" />
        <path
           inkscape:connector-curvature="0"
           id="path909"
           d="m 177.55068,392.48022 -1.30374,-8.18193 q -0.23972,-1.50446 -0.97294,-2.15896 -0.72165,-0.65633 -2.0178,-0.4498 -0.93739,0.14937 -1.52595,0.55168 -0.58855,0.40231 -0.88798,1.05522 -0.28785,0.65107 -0.32499,1.53511 -0.0256,0.8822 0.15147,1.99319 l 1.04926,6.58489 -2.10624,0.33562 -2.02476,-12.70688 1.71277,-0.27292 0.57381,1.66482 0.11573,-0.0184 q 0.21002,-0.54373 0.54633,-0.96518 0.34604,-0.43487 0.7818,-0.75351 0.43575,-0.31863 0.94966,-0.51918 0.51391,-0.20056 1.0694,-0.28907 2.11781,-0.33746 3.35953,0.60387 1.25145,0.92792 1.6387,3.35819 l 1.32218,8.29767 z" />
        <path
           inkscape:connector-curvature="0"
           id="path911"
           d="m 187.64081,391.02683 q 0.21065,0.0109 0.46933,9e-4 0.27039,-0.009 0.51797,-0.0318 0.24759,-0.0224 0.44897,-0.0588 0.21308,-0.0359 0.32023,-0.0655 l -0.0839,1.61501 q -0.15579,0.0623 -0.39349,0.12038 -0.23771,0.0581 -0.52101,0.0903 -0.28391,0.0439 -0.58941,0.0515 -0.3061,0.0193 -0.59867,0.004 -0.72559,-0.0377 -1.33612,-0.25714 -0.61053,-0.21945 -1.04325,-0.69957 -0.42101,-0.47951 -0.63837,-1.26528 -0.21675,-0.79747 -0.15537,-1.97947 l 0.38713,-7.4548 -1.81397,-0.0942 0.0492,-0.94794 1.86136,-0.81863 1.05261,-2.64429 1.22882,0.0638 -0.15315,2.94915 3.23002,0.16773 -0.0833,1.60331 -3.23002,-0.16774 -0.38712,7.4548 q -0.0589,1.13519 0.27406,1.72748 0.34472,0.59289 1.18734,0.63665 z" />
        <path
           inkscape:connector-curvature="0"
           id="path913"
           d="m 202.68402,395.13204 -2.42352,-0.49049 -2.58989,-8.11643 -5.69143,6.44041 -2.15934,-0.43703 6.97909,-7.72217 -3.22448,-8.99812 2.2742,0.46027 2.51387,7.19237 5.13573,-5.64419 2.18231,0.44167 -6.44417,6.96957 z" />
      </g>
      <g
         id="text4120"
         style="font-style:normal;font-variant:normal;font-weight:normal;font-stretch:normal;font-size:24px;line-height:0%;font-family:'Droid Sans';-inkscape-font-specification:'Droid Sans';letter-spacing:0px;word-spacing:0px;fill:#000000;fill-opacity:1;stroke:none"
         transform="translate(-6,-4)"
         aria-label="AgentX">
        <path
           inkscape:connector-curvature="0"
           id="path890"
           d="m 206.44872,506.84095 -5.19238,2.17622 0.36611,6.37622 5.40869,1.59101 0.12628,2.1995 -17.53556,-5.29649 -0.1142,-1.98891 16.81343,-7.28045 z m -7.08316,2.97733 -4.86116,2.01634 q -0.20656,0.0823 -0.5047,0.20505 -0.29881,0.11107 -0.64375,0.23651 -0.34494,0.12545 -0.71328,0.25224 -0.38004,0.12747 -0.73735,0.24189 0.36739,0.0611 0.75952,0.1442 0.39213,0.0831 0.76086,0.16759 0.35703,0.0851 0.66726,0.17298 0.29786,0.0768 0.50078,0.13558 l 5.05799,1.4116 z" />
        <path
           inkscape:connector-curvature="0"
           id="path892"
           d="m 196.5825,489.98264 1.28975,0.30017 -0.21513,2.32022 q 0.47386,-0.22661 1.15209,-0.29737 0.66681,-0.0734 1.45435,0.10986 0.86745,0.20189 1.54559,0.64848 0.66938,0.43252 1.07832,1.10522 0.4116,0.6613 0.53382,1.53198 0.11082,0.86802 -0.13622,1.9295 -0.0584,0.2511 -0.11688,0.5022 -0.0699,0.24845 -0.14128,0.40027 0.069,0.2206 0.1722,0.44916 0.0945,0.2145 0.23989,0.41679 0.14809,0.19088 0.35246,0.34673 0.20702,0.14444 0.48095,0.20819 0.30817,0.0717 0.53408,-0.0201 0.21449,-0.0945 0.37034,-0.29883 0.15851,-0.21578 0.26713,-0.52739 0.10862,-0.31162 0.19096,-0.66544 l 0.46752,-2.00882 q 0.24704,-1.06147 0.69097,-1.7282 0.43252,-0.66938 0.99532,-1.01968 0.56546,-0.36171 1.24103,-0.42105 0.66416,-0.062 1.36039,0.10003 1.00441,0.23375 1.71571,0.79635 0.71396,0.55118 1.08384,1.44341 0.3813,0.89488 0.40446,2.13955 0.0258,1.23327 -0.34342,2.81977 -0.28423,1.22127 -0.73643,2.07859 -0.45219,0.85731 -1.04953,1.35599 -0.59733,0.49867 -1.31963,0.65543 -0.70824,0.148 -1.51861,-0.0406 -0.68482,-0.15938 -1.15938,-0.49843 -0.46049,-0.34781 -0.74949,-0.81212 -0.28899,-0.46431 -0.41446,-1.01089 -0.12281,-0.55798 -0.12351,-1.12365 -0.32843,0.42891 -0.86811,0.62817 -0.53968,0.19926 -1.14461,0.0585 -0.69624,-0.16203 -1.11344,-0.64415 -0.42861,-0.48477 -0.7247,-1.38389 -0.31967,0.44298 -0.76913,0.77153 -0.45821,0.31447 -0.98116,0.49356 -0.53172,0.16502 -1.11677,0.19731 -0.58239,0.0209 -1.16449,-0.1146 -1.01582,-0.23641 -1.74837,-0.7077 -0.73255,-0.47128 -1.16166,-1.16072 -0.42911,-0.68943 -0.53196,-1.5917 -0.10284,-0.90226 0.15482,-2.00939 0.0983,-0.42231 0.27036,-0.85151 0.16333,-0.44326 0.33777,-0.72753 z m 12.43245,12.65132 q 0.4223,0.0983 0.82208,0.0349 0.39977,-0.0634 0.73932,-0.33328 0.3422,-0.28131 0.61808,-0.79464 0.28996,-0.52208 0.48121,-1.34387 0.49408,-2.12295 0.0765,-3.32708 -0.40354,-1.21289 -1.63623,-1.49977 -0.52503,-0.12219 -0.8879,-0.0623 -0.36288,0.0599 -0.63129,0.33436 -0.25434,0.26566 -0.44235,0.76334 -0.18802,0.49768 -0.36068,1.23957 l -0.46752,2.00882 q -0.093,0.39948 -0.1026,0.85445 -0.01,0.45497 0.15647,0.87865 0.16875,0.41227 0.54669,0.7529 0.39201,0.33187 1.08825,0.4939 z m -10.31331,-3.50717 q 1.31258,0.30548 2.09519,-0.16211 0.78261,-0.46758 1.04558,-1.59754 0.26564,-1.14137 -0.22664,-1.86957 -0.50104,-0.74227 -1.85927,-1.05837 -1.40389,-0.32673 -2.20667,0.12413 -0.80013,0.43944 -1.06576,1.58082 -0.26298,1.12995 0.28106,1.89426 0.54404,0.76431 1.93651,1.08838 z" />
        <path
           inkscape:connector-curvature="0"
           id="path894"
           d="m 213.03749,486.32226 q -0.65924,1.10774 -1.57721,1.80239 -0.91798,0.69466 -2.02852,0.93379 -1.10454,0.22906 -2.37768,-0.0377 -1.27314,-0.26675 -2.63264,-1.07582 -1.36956,-0.81506 -2.24931,-1.78864 -0.87976,-0.97359 -1.26538,-2.0213 -0.39568,-1.0537 -0.291,-2.12327 0.11068,-1.07964 0.71598,-2.09675 0.59332,-0.99696 1.42931,-1.57676 0.82592,-0.5858 1.81011,-0.75012 0.97412,-0.17031 2.06432,0.083 1.08613,0.23727 2.19386,0.89651 l 1.13795,0.67722 -4.14723,6.96867 q 1.97354,1.10632 3.34542,0.88635 1.37787,-0.23004 2.28283,-1.75066 0.30565,-0.51359 0.513,-0.97658 0.21334,-0.47306 0.36244,-0.92981 0.14501,-0.47282 0.23176,-0.93939 0.0767,-0.47257 0.12915,-0.97319 l 1.6314,0.97088 q -0.0484,0.51668 -0.14114,0.99333 -0.0868,0.46658 -0.24184,0.9334 -0.14909,0.45675 -0.3725,0.92382 -0.21743,0.45699 -0.52308,0.97058 z m -10.20911,-5.46204 q -0.68321,1.14802 -0.29927,2.2902 0.38995,1.1321 1.8245,2.13585 l 2.94861,-4.9546 q -0.68478,-0.40754 -1.33262,-0.60217 -0.65192,-0.21069 -1.22854,-0.15837 -0.57062,0.0422 -1.05586,0.35349 -0.48525,0.31124 -0.85682,0.9356 z" />
        <path
           inkscape:connector-curvature="0"
           id="path896"
           d="m 223.42188,474.5767 -5.4354,-6.25302 q -0.99943,-1.14978 -1.96791,-1.31721 -0.95963,-0.17511 -1.9502,0.68594 -0.7164,0.62273 -1.00296,1.27552 -0.28656,0.6528 -0.19518,1.36525 0.10022,0.70477 0.53646,1.47458 0.44509,0.76212 1.18313,1.61119 l 4.37446,5.03249 -1.60969,1.39921 -8.44139,-9.7112 1.30897,-1.13782 1.36778,1.10909 0.0884,-0.0769 q -0.10947,-0.57251 -0.0471,-1.10808 0.0635,-0.5521 0.26471,-1.05304 0.20118,-0.50094 0.53114,-0.94303 0.32997,-0.44209 0.7545,-0.81112 1.61853,-1.4069 3.17027,-1.26512 1.55289,0.12524 3.16736,1.98257 l 5.51228,6.34147 z" />
        <path
           inkscape:connector-curvature="0"
           id="path898"
           d="m 231.24061,468.03219 q 0.18504,-0.10126 0.39995,-0.24558 0.2252,-0.14994 0.42421,-0.29892 0.199,-0.14897 0.35127,-0.28573 0.16254,-0.14238 0.23818,-0.22385 l 0.77632,1.41867 q -0.0999,0.13482 -0.27174,0.30901 -0.17185,0.17419 -0.39608,0.35032 -0.21859,0.18641 -0.47463,0.35324 -0.25041,0.1771 -0.50742,0.31774 -0.63737,0.34878 -1.27223,0.48244 -0.63486,0.13367 -1.25518,-0.0479 -0.61004,-0.18716 -1.20749,-0.74189 -0.60307,-0.56502 -1.17125,-1.60332 l -3.58342,-6.54851 -1.59344,0.87195 -0.45566,-0.8327 1.15465,-1.6738 -0.49201,-2.80324 1.07943,-0.59068 1.41762,2.59062 2.83734,-1.55263 0.77069,1.40839 -2.83734,1.55263 3.58343,6.54851 q 0.54567,0.99718 1.14,1.32652 0.60462,0.32372 1.3448,-0.0813 z" />
        <path
           inkscape:connector-curvature="0"
           id="path900"
           d="m 246.21704,463.67705 -2.32374,0.84515 -6.44206,-5.57529 -1.49828,8.46324 -2.07044,0.75303 1.92869,-10.22838 -7.44329,-5.99674 2.18057,-0.79308 5.89536,4.82642 1.43927,-7.49407 2.09246,-0.76104 -1.86466,9.30727 z" />
      </g>
      <g
         id="text4127"
         style="font-style:normal;font-variant:normal;font-weight:normal;font-stretch:normal;font-size:24px;line-height:0%;font-family:'Droid Sans';-inkscape-font-specification:'Droid Sans';letter-spacing:0px;word-spacing:0px;fill:#000000;fill-opacity:1;stroke:none"
         transform="translate(4,-6)"
         aria-label="AgentX">
        <path
           inkscape:connector-curvature="0"
           id="path877"
           d="m 322.30448,464.22868 -0.37313,-5.61761 -6.14986,-1.72322 -3.26035,4.59949 -2.12142,-0.59443 10.7012,-14.86719 1.9183,0.53752 1.42925,18.2662 z m -0.51719,-7.66604 -0.32942,-5.25243 q -0.0108,-0.22209 -0.0301,-0.54393 -0.008,-0.31868 -0.0148,-0.68567 -0.007,-0.36698 -0.007,-0.75653 0.003,-0.40083 0.0105,-0.77593 -0.17701,0.32767 -0.3829,0.67159 -0.2059,0.34392 -0.40548,0.66527 -0.19641,0.31007 -0.38018,0.575 -0.16932,0.25681 -0.29077,0.42967 l -2.97683,4.326 z" />
        <path
           inkscape:connector-curvature="0"
           id="path879"
           d="m 341.04241,458.97447 -0.61401,1.17326 -2.19214,-0.79011 q 0.10054,0.51555 -0.001,1.18984 -0.0962,0.66392 -0.47107,1.38034 -0.41297,0.78909 -1.01535,1.33357 -0.58656,0.53952 -1.34033,0.7667 -0.74338,0.23261 -1.61689,0.13258 -0.86807,-0.1104 -1.83368,-0.61574 -0.22842,-0.11954 -0.45684,-0.23909 -0.22299,-0.12992 -0.35205,-0.23714 -0.23085,0.0115 -0.478,0.0541 -0.23133,0.0376 -0.46363,0.1277 -0.22191,0.0955 -0.42403,0.25424 -0.19174,0.16419 -0.32215,0.41338 -0.14671,0.28034 -0.11449,0.52205 0.0377,0.23133 0.19641,0.43345 0.16913,0.20756 0.44355,0.39085 0.27442,0.18329 0.59629,0.35174 l 1.82738,0.95634 q 0.96561,0.50533 1.4997,1.10228 0.53953,0.58657 0.73749,1.21923 0.20835,0.6381 0.0964,1.30696 -0.10653,0.65848 -0.43798,1.29184 -0.47817,0.91369 -1.20117,1.46117 -0.71261,0.55292 -1.66908,0.68724 -0.96191,0.1447 -2.17262,-0.14502 -1.20033,-0.28429 -2.64354,-1.03958 -1.11097,-0.58141 -1.82749,-1.23415 -0.71652,-0.65274 -1.04946,-1.35604 -0.33294,-0.7033 -0.30355,-1.44183 0.0343,-0.72272 0.42013,-1.4599 0.32602,-0.62297 0.77325,-0.99734 0.45217,-0.35856 0.97412,-0.52188 0.52195,-0.16332 1.08252,-0.14771 0.57095,0.0211 1.11872,0.16222 -0.33284,-0.42549 -0.39039,-0.9979 -0.0576,-0.57241 0.23043,-1.1227 0.33146,-0.63335 0.90279,-0.91632 0.57677,-0.29335 1.52141,-0.3545 -0.34866,-0.42054 -0.554,-0.93802 -0.18952,-0.52244 -0.23174,-1.07359 -0.0264,-0.55611 0.0891,-1.13056 0.12584,-0.56901 0.40296,-1.09854 0.4836,-0.92407 1.12353,-1.51503 0.63994,-0.59096 1.41495,-0.83346 0.77501,-0.24251 1.67424,-0.1158 0.89922,0.12671 1.90636,0.65378 0.38417,0.20105 0.75649,0.47526 0.38815,0.26927 0.61958,0.50942 z m -15.36481,8.86252 q -0.20105,0.38417 -0.23995,0.78706 -0.0389,0.40289 0.13722,0.79927 0.18651,0.40182 0.61425,0.79762 0.43269,0.41161 1.18025,0.80284 1.93121,1.01067 3.20159,0.90837 1.27533,-0.0865 1.86218,-1.20783 0.24995,-0.47761 0.28293,-0.84392 0.033,-0.36631 -0.16536,-0.69496 -0.1934,-0.31284 -0.62802,-0.61965 -0.43463,-0.30682 -1.10952,-0.66001 l -1.82738,-0.95634 q -0.3634,-0.19018 -0.80142,-0.3136 -0.43801,-0.12342 -0.88981,-0.0689 -0.44141,0.06 -0.86593,0.34041 -0.41957,0.29626 -0.75103,0.92961 z m 5.98143,-9.10423 q -0.62488,1.19403 -0.3685,2.06889 0.25639,0.87486 1.28429,1.4128 1.03829,0.54337 1.86667,0.24944 0.84419,-0.29889 1.49081,-1.53445 0.66835,-1.27709 0.43321,-2.16728 -0.22475,-0.88476 -1.26303,-1.42814 -1.0279,-0.53794 -1.90422,-0.20295 -0.87631,0.33498 -1.53923,1.60169 z" />
        <path
           inkscape:connector-curvature="0"
           id="path881"
           d="m 340.68667,475.55075 q -0.94408,-0.87772 -1.42985,-1.92139 -0.48578,-1.04367 -0.48569,-2.17967 0.009,-1.12801 0.53752,-2.31643 0.52886,-1.18842 1.60606,-2.34706 1.08519,-1.16723 2.2222,-1.82224 1.13701,-0.65501 2.24243,-0.81136 1.1134,-0.16493 2.13694,0.16263 1.03213,0.33555 1.89896,1.14146 0.84967,0.78995 1.24044,1.72929 0.39874,0.93075 0.35212,1.92748 -0.0386,0.98814 -0.51586,2.00055 -0.46066,1.0118 -1.33838,1.95588 l -0.90167,0.96983 -5.9391,-5.52169 q -1.4971,1.69633 -1.57094,3.08377 -0.0653,1.39541 1.2307,2.60029 0.4377,0.40694 0.84665,0.70714 0.41753,0.30818 0.83264,0.55011 0.43168,0.24132 0.86952,0.42438 0.44583,0.17448 0.92418,0.33119 l -1.29265,1.39036 q -0.49491,-0.1561 -0.94134,-0.34714 -0.43785,-0.18306 -0.86154,-0.43297 -0.41512,-0.24192 -0.82467,-0.55868 -0.40096,-0.30878 -0.83867,-0.71573 z m 7.48937,-8.83002 q -0.97841,-0.90964 -2.17583,-0.77482 -1.18883,0.14281 -2.47215,1.33383 l 4.2226,3.92582 q 0.54259,-0.58361 0.86928,-1.17594 0.34324,-0.59294 0.41352,-1.16764 0.0789,-0.56672 -0.12322,-1.10663 -0.20209,-0.5399 -0.7342,-1.03462 z" />
        <path
           inkscape:connector-curvature="0"
           id="path883"
           d="m 349.95534,488.1815 7.31099,-3.89786 q 1.34431,-0.71672 1.72426,-1.62314 0.38547,-0.89609 -0.23201,-2.05426 -0.44657,-0.83761 -1.01866,-1.26302 -0.57209,-0.4254 -1.28693,-0.49581 -0.70932,-0.0601 -1.55724,0.19279 -0.84241,0.26321 -1.83513,0.79248 l -5.88395,3.13703 -1.00341,-1.88204 11.35426,-6.05353 0.81596,1.53045 -1.3871,1.08482 0.0551,0.10341 q 0.58249,0.0215 1.09051,0.20213 0.52387,0.18551 0.96707,0.4937 0.4432,0.3082 0.80022,0.72875 0.35701,0.42054 0.62165,0.91691 1.00892,1.89237 0.52341,3.373 -0.46965,1.48546 -2.64123,2.64324 l -7.41439,3.95299 z" />
        <path
           inkscape:connector-curvature="0"
           id="path885"
           d="m 354.29448,497.43098 q 0.0475,0.20553 0.12833,0.45145 0.0835,0.25734 0.17314,0.48921 0.0896,0.23187 0.18015,0.41543 0.0931,0.19497 0.15113,0.28982 l -1.57569,0.36397 q -0.1028,-0.13261 -0.22406,-0.34515 -0.12125,-0.21254 -0.23022,-0.47602 -0.12039,-0.26085 -0.2118,-0.55244 -0.10283,-0.28896 -0.16877,-0.57441 -0.16352,-0.70793 -0.12061,-1.35529 0.0429,-0.64735 0.38535,-1.19552 0.34508,-0.53675 1.04065,-0.96202 0.70699,-0.4279 1.86022,-0.69428 l 7.27333,-1.68005 -0.4088,-1.7698 0.92487,-0.21364 1.29941,1.56409 2.83188,0.284 0.27693,1.1989 -2.87736,0.66464 0.72793,3.15139 -1.56428,0.36133 -0.72793,-3.1514 -7.27333,1.68005 q -1.10755,0.25583 -1.58528,0.73903 -0.47509,0.49461 -0.28519,1.31671 z" />
        <path
           inkscape:connector-curvature="0"
           id="path887"
           d="m 353.69272,513.07815 -0.024,-2.47254 7.40086,-4.22035 -7.48273,-4.22847 -0.0214,-2.20302 9.00414,5.22159 8.13139,-5.02434 0.0225,2.32021 -6.51277,3.95391 6.58839,3.85041 0.0216,2.22646 -8.1568,-4.85479 z" />
      </g>
      <g
         id="text4134"
         style="font-style:normal;font-variant:normal;font-weight:normal;font-stretch:normal;font-size:24px;line-height:0%;font-family:'Droid Sans';-inkscape-font-specification:'Droid Sans';letter-spacing:0px;word-spacing:0px;fill:#000000;fill-opacity:1;stroke:none"
         transform="translate(4,-6)"
         aria-label="AgentX">
        <path
           inkscape:connector-curvature="0"
           id="path864"
           d="m 357.73209,386.15452 -3.09264,-4.70451 -6.20058,1.53067 -0.57083,5.60886 -2.13891,0.52801 1.98659,-18.20995 1.93412,-0.47746 10.24392,15.19075 z m -4.2273,-6.41605 -2.87466,-4.40827 q -0.11882,-0.18794 -0.29424,-0.45847 -0.16404,-0.27334 -0.35069,-0.58938 -0.18665,-0.31604 -0.37892,-0.65483 -0.19508,-0.35017 -0.37316,-0.6804 0.007,0.37236 -0.002,0.77308 -0.01,0.40073 -0.025,0.7787 -0.0181,0.36659 -0.0475,0.68768 -0.0208,0.3069 -0.0413,0.51716 l -0.45887,5.23118 z" />
        <path
           inkscape:connector-curvature="0"
           id="path866"
           d="m 371.33521,372.25432 0.0548,1.32309 -2.29353,0.41161 q 0.34481,0.39623 0.59393,1.031 0.24863,0.62307 0.28207,1.43097 0.0368,0.88986 -0.21267,1.66256 -0.23829,0.76051 -0.77753,1.33408 -0.52753,0.57309 -1.33406,0.92315 -0.80701,0.33835 -1.89592,0.38342 -0.25759,0.0107 -0.51518,0.0213 -0.25808,-0.001 -0.42345,-0.0294 -0.19421,0.12533 -0.38695,0.28578 -0.18153,0.14826 -0.3377,0.34239 -0.14446,0.19364 -0.24014,0.43217 -0.084,0.23805 -0.0723,0.51906 0.0131,0.31614 0.16183,0.50937 0.14826,0.18152 0.3868,0.27721 0.25024,0.0952 0.57954,0.11676 0.3293,0.0216 0.69227,0.007 l 2.06073,-0.0853 q 1.08891,-0.0451 1.8499,0.20492 0.76051,0.23828 1.24824,0.68725 0.49945,0.44847 0.73686,1.08373 0.23693,0.62355 0.26649,1.33778 0.0427,1.03037 -0.30982,1.86597 -0.34075,0.83512 -1.10197,1.42961 -0.76074,0.6062 -1.95414,0.96054 -1.18169,0.35386 -2.8092,0.42123 -1.25284,0.0519 -2.19971,-0.15526 -0.94688,-0.20711 -1.58682,-0.64978 -0.63995,-0.44266 -0.98371,-1.09697 -0.33157,-0.64309 -0.36598,-1.47441 -0.0291,-0.70252 0.1711,-1.25033 0.21236,-0.53659 0.58276,-0.93897 0.37039,-0.40238 0.86369,-0.6691 0.50501,-0.26721 1.04999,-0.41878 -0.50098,-0.20211 -0.83698,-0.66909 -0.33601,-0.46697 -0.36169,-1.08753 -0.0296,-0.71423 0.32379,-1.24493 0.35287,-0.5424 1.14042,-1.0676 -0.5122,-0.18992 -0.94874,-0.53545 -0.42531,-0.35771 -0.73742,-0.81395 -0.30088,-0.46842 -0.48806,-1.02366 -0.17548,-0.55571 -0.20019,-1.15286 -0.0431,-1.04208 0.21566,-1.8738 0.25879,-0.83173 0.80877,-1.4292 0.54998,-0.59748 1.39212,-0.93728 0.84214,-0.33981 1.97788,-0.38682 0.43323,-0.0179 0.89277,0.0334 0.47078,0.0392 0.79127,0.13145 z m -8.87641,15.35679 q 0.0179,0.43322 0.18565,0.8016 0.16772,0.36838 0.51842,0.62363 0.36241,0.25476 0.93073,0.38371 0.58051,0.14018 1.42354,0.10528 2.17782,-0.0901 3.22691,-0.81383 1.06129,-0.71247 1.00895,-1.97701 -0.0223,-0.5386 -0.17685,-0.87234 -0.15456,-0.33374 -0.49064,-0.51922 -0.32389,-0.17425 -0.85369,-0.2227 -0.5298,-0.0484 -1.29087,-0.0169 l -2.06074,0.0853 q -0.4098,0.017 -0.85086,0.12904 -0.44105,0.11209 -0.80507,0.38519 -0.35231,0.27262 -0.57977,0.72773 -0.21528,0.46633 -0.18571,1.18056 z m 0.62891,-10.87516 q 0.0557,1.34651 0.71515,1.97603 0.65941,0.62951 1.81857,0.58154 1.17087,-0.0485 1.74136,-0.71716 0.58172,-0.68089 0.52405,-2.07423 -0.0596,-1.44017 -0.70828,-2.0936 -0.63697,-0.6539 -1.80784,-0.60544 -1.15916,0.048 -1.75065,0.77619 -0.59148,0.72821 -0.53236,2.15667 z" />
        <path
           inkscape:connector-curvature="0"
           id="path868"
           d="m 379.32317,386.72948 q -1.2587,-0.27811 -2.20645,-0.93156 -0.94774,-0.65346 -1.52346,-1.63276 -0.56427,-0.97677 -0.71074,-2.26928 -0.14648,-1.29251 0.19484,-2.83728 0.34384,-1.55622 0.99198,-2.69716 0.64814,-1.14095 1.52179,-1.83602 0.87619,-0.70651 1.92454,-0.94293 1.0598,-0.23389 2.21552,0.0215 1.13283,0.2503 1.94579,0.86197 0.81549,0.60023 1.28051,1.48307 0.46754,0.87139 0.56931,1.986 0.11574,1.1057 -0.16237,2.3644 l -0.2857,1.29304 -7.91839,-1.74956 q -0.43074,2.22109 0.20883,3.45453 0.65102,1.23597 2.37888,1.61774 0.58358,0.12894 1.08826,0.18044 0.51613,0.054 0.99659,0.0522 0.49444,-0.0108 0.96466,-0.0749 0.47275,-0.0756 0.96453,-0.18293 l -0.40958,1.85373 q -0.50575,0.11628 -0.98742,0.17788 -0.47022,0.0641 -0.96212,0.0634 -0.48047,0.002 -0.99406,-0.0636 -0.50216,-0.063 -1.08574,-0.19189 z m 1.98048,-11.40778 q -1.30448,-0.28823 -2.26835,0.43492 -0.95243,0.72567 -1.45501,2.40283 l 5.62984,1.24391 q 0.17193,-0.77811 0.15331,-1.4543 -0.005,-0.68511 -0.23535,-1.21614 -0.21927,-0.5285 -0.66713,-0.89149 -0.44786,-0.36298 -1.15731,-0.51973 z" />
        <path
           inkscape:connector-curvature="0"
           id="path870"
           d="m 393.7303,392.88553 4.31089,-7.07531 q 0.79267,-1.30097 0.65861,-2.27463 -0.12406,-0.96755 -1.2449,-1.65047 -0.81061,-0.49389 -1.51955,-0.56905 -0.70895,-0.0752 -1.36018,0.2279 -0.64121,0.30917 -1.24254,0.95826 -0.59131,0.65519 -1.17667,1.61591 l -3.46945,5.69428 -1.82136,-1.10974 6.695,-10.98824 1.48111,0.90242 -0.64223,1.63964 0.10008,0.061 q 0.51237,-0.27789 1.04165,-0.38081 0.54538,-0.10683 1.08373,-0.067 0.53836,0.0398 1.05968,0.22025 0.52132,0.1804 1.00168,0.47308 1.83137,1.11583 2.16671,2.63752 0.35144,1.51778 -0.92903,3.61935 l -4.37187,7.17539 z" />
        <path
           inkscape:connector-curvature="0"
           id="path872"
           d="m 402.15888,398.66258 q 0.14482,0.15337 0.33886,0.32473 0.20209,0.17989 0.3966,0.33468 0.19452,0.1548 0.36537,0.26747 0.1789,0.12118 0.27688,0.17373 l -1.17584,1.11027 q -0.15572,-0.0625 -0.36775,-0.18463 -0.21203,-0.12214 -0.4392,-0.29445 -0.2357,-0.16427 -0.46192,-0.36971 -0.23474,-0.1974 -0.43588,-0.41041 -0.49882,-0.52828 -0.78889,-1.1086 -0.29008,-0.58031 -0.27155,-1.22639 0.0266,-0.63755 0.41193,-1.356 0.39388,-0.7265 1.25445,-1.53909 l 5.4276,-5.12494 -1.24704,-1.32069 0.69017,-0.65168 1.91164,0.69314 2.58728,-1.18584 0.84477,0.89466 -2.14718,2.02745 2.22054,2.35167 -1.16732,1.10223 -2.22054,-2.35168 -5.4276,5.12495 q -0.8265,0.7804 -0.99459,1.43877 -0.16006,0.66688 0.41921,1.28036 z" />
        <path
           inkscape:connector-curvature="0"
           id="path874"
           d="m 409.50812,412.49883 -1.26281,-2.12587 4.27912,-7.36704 -8.59422,0.10279 -1.12516,-1.89414 10.40863,-0.008 4.5069,-8.42919 1.185,1.99489 -3.64507,6.69053 7.631,0.0196 1.13713,1.91429 -9.4917,-0.10013 z" />
      </g>
    </g>
  </g>
</svg>
