<?xml version="1.0" encoding="UTF-8" standalone="no"?>
<!-- Created with Inkscape (http://www.inkscape.org/) -->

<svg
   xmlns:dc="http://purl.org/dc/elements/1.1/"
   xmlns:cc="http://creativecommons.org/ns#"
   xmlns:rdf="http://www.w3.org/1999/02/22-rdf-syntax-ns#"
   xmlns:svg="http://www.w3.org/2000/svg"
   xmlns="http://www.w3.org/2000/svg"
   xmlns:xlink="http://www.w3.org/1999/xlink"
   xmlns:sodipodi="http://sodipodi.sourceforge.net/DTD/sodipodi-0.dtd"
   xmlns:inkscape="http://www.inkscape.org/namespaces/inkscape"
   width="270.38257"
   height="501.13971"
   viewBox="0 0 71.538724 132.59321"
   version="1.1"
   id="svg8"
   inkscape:version="0.92.3 (2405546, 2018-03-11)"
   sodipodi:docname="multitier-lb-l7.svg">
  <defs
     id="defs2">
    <marker
       inkscape:isstock="true"
       style="overflow:visible"
       id="marker20349"
       refX="0"
       refY="0"
       orient="auto"
       inkscape:stockid="Arrow2Mend">
      <path
         inkscape:connector-curvature="0"
         transform="scale(-0.6)"
         d="M 8.7185878,4.0337352 -2.2072895,0.01601326 8.7185884,-4.0017078 c -1.7454984,2.3720609 -1.7354408,5.6174519 -6e-7,8.035443 z"
         style="fill:#a29bfe;fill-opacity:1;fill-rule:evenodd;stroke:#a29bfe;stroke-width:0.625;stroke-linejoin:round;stroke-opacity:1"
         id="path20347" />
    </marker>
    <marker
       inkscape:isstock="true"
       style="overflow:visible"
       id="marker20207"
       refX="0"
       refY="0"
       orient="auto"
       inkscape:stockid="Arrow2Mstart">
      <path
         inkscape:connector-curvature="0"
         transform="scale(0.6)"
         d="M 8.7185878,4.0337352 -2.2072895,0.01601326 8.7185884,-4.0017078 c -1.7454984,2.3720609 -1.7354408,5.6174519 -6e-7,8.035443 z"
         style="fill:#a29bfe;fill-opacity:1;fill-rule:evenodd;stroke:#a29bfe;stroke-width:0.625;stroke-linejoin:round;stroke-opacity:1"
         id="path20205" />
    </marker>
    <marker
       inkscape:stockid="Arrow2Mend"
       orient="auto"
       refY="0"
       refX="0"
       id="marker20046"
       style="overflow:visible"
       inkscape:isstock="true">
      <path
         id="path20044"
         style="fill:#ff7675;fill-opacity:1;fill-rule:evenodd;stroke:#ff7675;stroke-width:0.625;stroke-linejoin:round;stroke-opacity:1"
         d="M 8.7185878,4.0337352 -2.2072895,0.01601326 8.7185884,-4.0017078 c -1.7454984,2.3720609 -1.7354408,5.6174519 -6e-7,8.035443 z"
         transform="scale(-0.6)"
         inkscape:connector-curvature="0" />
    </marker>
    <marker
       inkscape:stockid="Arrow2Mstart"
       orient="auto"
       refY="0"
       refX="0"
       id="marker19916"
       style="overflow:visible"
       inkscape:isstock="true">
      <path
         inkscape:connector-curvature="0"
         id="path19914"
         style="fill:#ff7675;fill-opacity:1;fill-rule:evenodd;stroke:#ff7675;stroke-width:0.625;stroke-linejoin:round;stroke-opacity:1"
         d="M 8.7185878,4.0337352 -2.2072895,0.01601326 8.7185884,-4.0017078 c -1.7454984,2.3720609 -1.7354408,5.6174519 -6e-7,8.035443 z"
         transform="scale(0.6)" />
    </marker>
    <marker
       inkscape:isstock="true"
       style="overflow:visible"
       id="marker19166"
       refX="0"
       refY="0"
       orient="auto"
       inkscape:stockid="Arrow2Mend">
      <path
         inkscape:connector-curvature="0"
         transform="scale(-0.6)"
         d="M 8.7185878,4.0337352 -2.2072895,0.01601326 8.7185884,-4.0017078 c -1.7454984,2.3720609 -1.7354408,5.6174519 -6e-7,8.035443 z"
         style="fill:#a29bfe;fill-opacity:1;fill-rule:evenodd;stroke:#a29bfe;stroke-width:0.625;stroke-linejoin:round;stroke-opacity:1"
         id="path19164" />
    </marker>
    <marker
       inkscape:isstock="true"
       style="overflow:visible"
       id="marker19048"
       refX="0"
       refY="0"
       orient="auto"
       inkscape:stockid="Arrow2Mstart">
      <path
         inkscape:connector-curvature="0"
         transform="scale(0.6)"
         d="M 8.7185878,4.0337352 -2.2072895,0.01601326 8.7185884,-4.0017078 c -1.7454984,2.3720609 -1.7354408,5.6174519 -6e-7,8.035443 z"
         style="fill:#a29bfe;fill-opacity:1;fill-rule:evenodd;stroke:#a29bfe;stroke-width:0.625;stroke-linejoin:round;stroke-opacity:1"
         id="path19046" />
    </marker>
    <marker
       inkscape:isstock="true"
       style="overflow:visible"
       id="marker18743"
       refX="0"
       refY="0"
       orient="auto"
       inkscape:stockid="Arrow2Mend">
      <path
         inkscape:connector-curvature="0"
         transform="scale(-0.6)"
         d="M 8.7185878,4.0337352 -2.2072895,0.01601326 8.7185884,-4.0017078 c -1.7454984,2.3720609 -1.7354408,5.6174519 -6e-7,8.035443 z"
         style="fill:#ff7675;fill-opacity:1;fill-rule:evenodd;stroke:#ff7675;stroke-width:0.625;stroke-linejoin:round;stroke-opacity:1"
         id="path18741" />
    </marker>
    <marker
       inkscape:isstock="true"
       style="overflow:visible"
       id="marker18637"
       refX="0"
       refY="0"
       orient="auto"
       inkscape:stockid="Arrow2Mstart">
      <path
         transform="scale(0.6)"
         d="M 8.7185878,4.0337352 -2.2072895,0.01601326 8.7185884,-4.0017078 c -1.7454984,2.3720609 -1.7354408,5.6174519 -6e-7,8.035443 z"
         style="fill:#ff7675;fill-opacity:1;fill-rule:evenodd;stroke:#ff7675;stroke-width:0.625;stroke-linejoin:round;stroke-opacity:1"
         id="path18635"
         inkscape:connector-curvature="0" />
    </marker>
    <marker
       inkscape:isstock="true"
       style="overflow:visible"
       id="marker16157"
       refX="0"
       refY="0"
       orient="auto"
       inkscape:stockid="Arrow2Mend"
       inkscape:collect="always">
      <path
         inkscape:connector-curvature="0"
         transform="scale(-0.6)"
         d="M 8.7185878,4.0337352 -2.2072895,0.01601326 8.7185884,-4.0017078 c -1.7454984,2.3720609 -1.7354408,5.6174519 -6e-7,8.035443 z"
         style="fill:#ff7675;fill-opacity:1;fill-rule:evenodd;stroke:#ff7675;stroke-width:0.625;stroke-linejoin:round;stroke-opacity:1"
         id="path16155" />
    </marker>
    <marker
       inkscape:isstock="true"
       style="overflow:visible"
       id="marker16063"
       refX="0"
       refY="0"
       orient="auto"
       inkscape:stockid="Arrow2Mstart"
       inkscape:collect="always">
      <path
         transform="scale(0.6)"
         d="M 8.7185878,4.0337352 -2.2072895,0.01601326 8.7185884,-4.0017078 c -1.7454984,2.3720609 -1.7354408,5.6174519 -6e-7,8.035443 z"
         style="fill:#ff7675;fill-opacity:1;fill-rule:evenodd;stroke:#ff7675;stroke-width:0.625;stroke-linejoin:round;stroke-opacity:1"
         id="path16061"
         inkscape:connector-curvature="0" />
    </marker>
    <marker
       inkscape:stockid="Arrow2Mend"
       orient="auto"
       refY="0"
       refX="0"
       id="marker15169"
       style="overflow:visible"
       inkscape:isstock="true"
       inkscape:collect="always">
      <path
         id="path15167"
         style="fill:#ff7675;fill-opacity:1;fill-rule:evenodd;stroke:#ff7675;stroke-width:0.625;stroke-linejoin:round;stroke-opacity:1"
         d="M 8.7185878,4.0337352 -2.2072895,0.01601326 8.7185884,-4.0017078 c -1.7454984,2.3720609 -1.7354408,5.6174519 -6e-7,8.035443 z"
         transform="scale(-0.6)"
         inkscape:connector-curvature="0" />
    </marker>
    <marker
       inkscape:stockid="Arrow2Mstart"
       orient="auto"
       refY="0"
       refX="0"
       id="marker15087"
       style="overflow:visible"
       inkscape:isstock="true"
       inkscape:collect="always">
      <path
         inkscape:connector-curvature="0"
         id="path15085"
         style="fill:#ff7675;fill-opacity:1;fill-rule:evenodd;stroke:#ff7675;stroke-width:0.625;stroke-linejoin:round;stroke-opacity:1"
         d="M 8.7185878,4.0337352 -2.2072895,0.01601326 8.7185884,-4.0017078 c -1.7454984,2.3720609 -1.7354408,5.6174519 -6e-7,8.035443 z"
         transform="scale(0.6)" />
    </marker>
    <marker
       inkscape:stockid="Arrow2Mend"
       orient="auto"
       refY="0"
       refX="0"
       id="marker14986"
       style="overflow:visible"
       inkscape:isstock="true">
      <path
         id="path14984"
         style="fill:#00b894;fill-opacity:1;fill-rule:evenodd;stroke:#00b894;stroke-width:0.625;stroke-linejoin:round;stroke-opacity:1"
         d="M 8.7185878,4.0337352 -2.2072895,0.01601326 8.7185884,-4.0017078 c -1.7454984,2.3720609 -1.7354408,5.6174519 -6e-7,8.035443 z"
         transform="scale(-0.6)"
         inkscape:connector-curvature="0" />
    </marker>
    <marker
       inkscape:stockid="Arrow2Mstart"
       orient="auto"
       refY="0"
       refX="0"
       id="marker14916"
       style="overflow:visible"
       inkscape:isstock="true">
      <path
         id="path14914"
         style="fill:#00b894;fill-opacity:1;fill-rule:evenodd;stroke:#00b894;stroke-width:0.625;stroke-linejoin:round;stroke-opacity:1"
         d="M 8.7185878,4.0337352 -2.2072895,0.01601326 8.7185884,-4.0017078 c -1.7454984,2.3720609 -1.7354408,5.6174519 -6e-7,8.035443 z"
         transform="scale(0.6)"
         inkscape:connector-curvature="0" />
    </marker>
    <marker
       inkscape:isstock="true"
       style="overflow:visible"
       id="marker11363"
       refX="0"
       refY="0"
       orient="auto"
       inkscape:stockid="Arrow2Mend"
       inkscape:collect="always">
      <path
         inkscape:connector-curvature="0"
         transform="scale(-0.6)"
         d="M 8.7185878,4.0337352 -2.2072895,0.01601326 8.7185884,-4.0017078 c -1.7454984,2.3720609 -1.7354408,5.6174519 -6e-7,8.035443 z"
         style="fill:#00b894;fill-opacity:1;fill-rule:evenodd;stroke:#00b894;stroke-width:0.625;stroke-linejoin:round;stroke-opacity:1"
         id="path11361" />
    </marker>
    <marker
       inkscape:isstock="true"
       style="overflow:visible"
       id="marker11317"
       refX="0"
       refY="0"
       orient="auto"
       inkscape:stockid="Arrow2Mstart"
       inkscape:collect="always">
      <path
         inkscape:connector-curvature="0"
         transform="scale(0.6)"
         d="M 8.7185878,4.0337352 -2.2072895,0.01601326 8.7185884,-4.0017078 c -1.7454984,2.3720609 -1.7354408,5.6174519 -6e-7,8.035443 z"
         style="fill:#00b894;fill-opacity:1;fill-rule:evenodd;stroke:#00b894;stroke-width:0.625;stroke-linejoin:round;stroke-opacity:1"
         id="path11315" />
    </marker>
    <marker
       inkscape:isstock="true"
       style="overflow:visible"
       id="marker6787"
       refX="0"
       refY="0"
       orient="auto"
       inkscape:stockid="Arrow2Mend">
      <path
         inkscape:connector-curvature="0"
         transform="scale(-0.6)"
         d="M 8.7185878,4.0337352 -2.2072895,0.01601326 8.7185884,-4.0017078 c -1.7454984,2.3720609 -1.7354408,5.6174519 -6e-7,8.035443 z"
         style="fill:#00b894;fill-opacity:1;fill-rule:evenodd;stroke:#00b894;stroke-width:0.625;stroke-linejoin:round;stroke-opacity:1"
         id="path6785" />
    </marker>
    <marker
       inkscape:isstock="true"
       style="overflow:visible"
       id="marker6753"
       refX="0"
       refY="0"
       orient="auto"
       inkscape:stockid="Arrow2Mstart">
      <path
         inkscape:connector-curvature="0"
         transform="scale(0.6)"
         d="M 8.7185878,4.0337352 -2.2072895,0.01601326 8.7185884,-4.0017078 c -1.7454984,2.3720609 -1.7354408,5.6174519 -6e-7,8.035443 z"
         style="fill:#00b894;fill-opacity:1;fill-rule:evenodd;stroke:#00b894;stroke-width:0.625;stroke-linejoin:round;stroke-opacity:1"
         id="path6751" />
    </marker>
    <marker
       inkscape:isstock="true"
       style="overflow:visible"
       id="marker11317-2"
       refX="0"
       refY="0"
       orient="auto"
       inkscape:stockid="Arrow2Mstart">
      <path
         inkscape:connector-curvature="0"
         transform="scale(0.6)"
         d="M 8.7185878,4.0337352 -2.2072895,0.01601326 8.7185884,-4.0017078 c -1.7454984,2.3720609 -1.7354408,5.6174519 -6e-7,8.035443 z"
         style="fill:#00b894;fill-opacity:1;fill-rule:evenodd;stroke:#00b894;stroke-width:0.625;stroke-linejoin:round;stroke-opacity:1"
         id="path11315-7" />
    </marker>
    <marker
       inkscape:isstock="true"
       style="overflow:visible"
       id="marker11363-0"
       refX="0"
       refY="0"
       orient="auto"
       inkscape:stockid="Arrow2Mend">
      <path
         inkscape:connector-curvature="0"
         transform="scale(-0.6)"
         d="M 8.7185878,4.0337352 -2.2072895,0.01601326 8.7185884,-4.0017078 c -1.7454984,2.3720609 -1.7354408,5.6174519 -6e-7,8.035443 z"
         style="fill:#00b894;fill-opacity:1;fill-rule:evenodd;stroke:#00b894;stroke-width:0.625;stroke-linejoin:round;stroke-opacity:1"
         id="path11361-9" />
    </marker>
  </defs>
  <sodipodi:namedview
     id="base"
     pagecolor="#ffffff"
     bordercolor="#666666"
     borderopacity="1.0"
     inkscape:pageopacity="0.0"
     inkscape:pageshadow="2"
     inkscape:zoom="1"
     inkscape:cx="-14.665999"
     inkscape:cy="195.10621"
     inkscape:document-units="mm"
     inkscape:current-layer="layer1"
     showgrid="false"
     inkscape:window-width="1912"
     inkscape:window-height="1056"
     inkscape:window-x="0"
     inkscape:window-y="16"
     inkscape:window-maximized="1"
     fit-margin-top="10"
     fit-margin-left="10"
     fit-margin-right="10"
     fit-margin-bottom="10"
     units="px" />
  <metadata
     id="metadata5">
    <rdf:RDF>
      <cc:Work
         rdf:about="">
        <dc:format>image/svg+xml</dc:format>
        <dc:type
           rdf:resource="http://purl.org/dc/dcmitype/StillImage" />
        <dc:title></dc:title>
      </cc:Work>
    </rdf:RDF>
  </metadata>
  <g
     inkscape:label="Layer 1"
     inkscape:groupmode="layer"
     id="layer1"
     transform="translate(-19.580036,-62.891734)">
    <g
       id="g2423"
       transform="matrix(0.69476882,0,0,0.69476882,16.894362,39.43231)">
      <path
         sodipodi:nodetypes="cc"
         inkscape:connector-curvature="0"
         id="path11155"
         d="m 49.194539,74.912223 c 2.088051,33.100957 4.58085,39.273047 -22.20617,62.811277"
         style="opacity:1;vector-effect:none;fill:none;fill-opacity:1;fill-rule:evenodd;stroke:#00b894;stroke-width:0.79400003;stroke-linecap:butt;stroke-linejoin:miter;stroke-miterlimit:4;stroke-dasharray:none;stroke-dashoffset:0;stroke-opacity:1;marker:none;marker-start:url(#marker11317);marker-mid:none;marker-end:url(#marker11363)" />
      <path
         style="opacity:1;vector-effect:none;fill:none;fill-opacity:1;fill-rule:evenodd;stroke:#ff7675;stroke-width:0.79400003;stroke-linecap:butt;stroke-linejoin:miter;stroke-miterlimit:4;stroke-dasharray:none;stroke-dashoffset:0;stroke-opacity:1;marker:none;marker-start:url(#marker15087);marker-mid:none;marker-end:url(#marker15169)"
         d="m 54.664365,74.912223 2.819457,62.624187"
         id="path14912"
         inkscape:connector-curvature="0"
         sodipodi:nodetypes="cc" />
      <path
         sodipodi:nodetypes="cc"
         inkscape:connector-curvature="0"
         id="path18633"
         d="m 60.134191,74.912223 3.14938,62.811277"
         style="opacity:1;vector-effect:none;fill:none;fill-opacity:1;fill-rule:evenodd;stroke:#a29bfe;stroke-width:0.79400003;stroke-linecap:butt;stroke-linejoin:miter;stroke-miterlimit:4;stroke-dasharray:none;stroke-dashoffset:0;stroke-opacity:1;marker:none;marker-start:url(#marker19048);marker-mid:none;marker-end:url(#marker19166)" />
      <ellipse
         ry="23.94479"
         rx="18.520834"
         cy="105.71135"
         cx="52.703571"
         id="path26141"
         style="color:#000000;clip-rule:nonzero;display:inline;overflow:visible;visibility:visible;opacity:1;isolation:auto;mix-blend-mode:normal;color-interpolation:sRGB;color-interpolation-filters:linearRGB;solid-color:#000000;solid-opacity:1;vector-effect:none;fill:#ffffff;fill-opacity:1;fill-rule:nonzero;stroke:#545454;stroke-width:1.77794456;stroke-linecap:round;stroke-linejoin:miter;stroke-miterlimit:4;stroke-dasharray:none;stroke-dashoffset:0;stroke-opacity:1;marker:none;marker-start:url(#marker11529);marker-mid:none;marker-end:url(#marker11581);color-rendering:auto;image-rendering:auto;shape-rendering:auto;text-rendering:auto;enable-background:accumulate" />
      <g
         transform="translate(-34.886198,32.808332)"
         id="g1469">
        <path
           style="color:#000000;clip-rule:nonzero;display:inline;overflow:visible;visibility:visible;opacity:1;isolation:auto;mix-blend-mode:normal;color-interpolation:sRGB;color-interpolation-filters:linearRGB;solid-color:#000000;solid-opacity:1;vector-effect:none;fill:#ffffff;fill-opacity:1;fill-rule:nonzero;stroke:#000000;stroke-width:1.32291663;stroke-linecap:round;stroke-linejoin:miter;stroke-miterlimit:4;stroke-dasharray:none;stroke-dashoffset:0;stroke-opacity:1;marker:none;color-rendering:auto;image-rendering:auto;shape-rendering:auto;text-rendering:auto;enable-background:accumulate"
           d="M 86.734049,5.4287021 C 81.072427,5.3399381 75.720672,9.5218576 74.43391,15.040241 c -7.828516,1.667761 -12.140531,11.522524 -8.054817,18.408398 2.354617,4.565083 7.555734,6.969772 12.542269,6.616078 10.925879,-0.0098 21.891018,0.01963 32.792348,-0.01472 6.08472,-0.04159 10.77331,-6.732669 8.78032,-12.469724 -1.41616,-5.064878 -7.41254,-8.119405 -12.33123,-6.252535 -1.61732,-3.286294 -5.2453,-5.448855 -8.905118,-5.273862 C 98.364469,10.058265 92.792178,5.329246 86.734049,5.4287021 Z"
           id="path1325"
           inkscape:connector-curvature="0" />
        <g
           id="g1435"
           transform="matrix(0.05942749,0,0,0.05942749,74.459731,11.961804)"
           style="stroke-width:4.45220423">
          <g
             id="g1360"
             style="stroke-width:4.45220423">
            <g
               id="g1358"
               style="stroke-width:4.45220423">
              <path
                 id="path1356"
                 d="m 344.214,276.755 -43.582,-19.37 c -3.079,-1.368 -5.067,-4.429 -5.067,-7.797 V 237.62 c 14.64,-11.665 24.05,-29.628 24.05,-49.758 v -16.847 c 4.823,-2.665 8.016,-7.815 8.016,-13.583 v -1.635 c 0,-35.076 -28.537,-63.613 -63.613,-63.613 h -16.032 c -35.076,0 -63.613,28.537 -63.613,63.613 v 14.835 c 0,5.07 2.182,9.663 5.985,12.602 0.645,0.498 1.324,0.936 2.031,1.315 v 3.312 c 0,20.13 9.409,38.093 24.048,49.757 v 11.969 c 0,3.368 -1.989,6.429 -5.067,7.797 l -43.582,19.37 c -14.273,6.343 -23.496,20.535 -23.496,36.154 v 99.404 c 0,4.142 3.358,7.5 7.5,7.5 4.142,0 7.5,-3.358 7.5,-7.5 v -99.403 c 0,-0.869 0.062,-1.728 0.152,-2.58 l 20.082,20.082 c 3.125,3.126 4.847,7.281 4.847,11.702 v 70.2 c 0,4.142 3.358,7.5 7.5,7.5 4.142,0 7.5,-3.358 7.5,-7.5 v -70.2 c 0,-8.427 -3.281,-16.349 -9.24,-22.308 l -23.941,-23.942 c 2.157,-2.238 4.745,-4.093 7.689,-5.402 l 42.847,-19.043 31.775,31.775 v 109.119 c 0,4.142 3.358,7.5 7.5,7.5 4.142,0 7.5,-3.358 7.5,-7.5 V 303.194 l 31.775,-31.775 42.846,19.042 c 2.944,1.309 5.532,3.164 7.689,5.403 l -23.941,23.941 c -5.959,5.959 -9.24,13.881 -9.24,22.308 v 70.2 c 0,4.142 3.358,7.5 7.5,7.5 4.142,0 7.5,-3.358 7.5,-7.5 v -70.2 c 0,-4.42 1.721,-8.576 4.847,-11.702 L 352.56,310.33 c 0.09,0.852 0.152,1.709 0.152,2.578 v 99.404 c 0,4.142 3.358,7.5 7.5,7.5 4.142,0 7.5,-3.358 7.5,-7.5 v -99.403 c -0.003,-15.619 -9.225,-29.811 -23.498,-36.154 z M 256,289.481 228.119,261.599 c 2.12,-3.567 3.317,-7.694 3.317,-12.011 v -3.052 c 7.563,3.178 15.862,4.939 24.565,4.939 8.703,0 17.001,-1.76 24.563,-4.938 v 3.051 c 0,4.318 1.197,8.444 3.318,12.012 z m 10e-4,-53.007 c -26.805,0.001 -48.613,-21.807 -48.613,-48.612 v -3.373 c 4.68,-1.855 9.248,-4.807 13.621,-8.842 3.043,-2.809 3.234,-7.554 0.424,-10.598 -2.809,-3.043 -7.553,-3.234 -10.598,-0.425 -3.751,3.463 -7.499,5.7 -11.137,6.65 -0.088,0.023 -0.153,0.033 -0.199,0.037 -0.054,-0.105 -0.127,-0.325 -0.127,-0.678 v -14.835 c 0,-26.805 21.808,-48.613 48.613,-48.613 h 16.032 c 26.806,0 48.613,21.808 48.613,48.613 v 1.635 c 0,0.243 -0.146,0.454 -0.338,0.492 -44.911,8.87 -67.437,-7.847 -75.037,-15.447 -2.929,-2.929 -7.678,-2.929 -10.606,0 -2.929,2.929 -2.929,7.678 0,10.606 23.29,23.29 57.275,23.71 77.965,21.224 v 13.553 c 0,26.805 -21.808,48.613 -48.613,48.613 z"
                 inkscape:connector-curvature="0"
                 style="stroke-width:4.45220423" />
            </g>
          </g>
          <g
             id="g1366"
             style="stroke-width:4.45220423">
            <g
               id="g1364"
               style="stroke-width:4.45220423">
              <path
                 id="path1362"
                 d="m 135.242,235.961 v -16.035 c 0,-19.566 -10.168,-36.79 -25.489,-46.702 0.946,-3.035 1.44,-6.214 1.44,-9.411 0,-17.396 -14.152,-31.548 -31.548,-31.548 -17.396,0 -31.548,14.153 -31.548,31.548 0,3.237 0.49,6.385 1.438,9.413 -15.32,9.911 -25.487,27.135 -25.487,46.7 v 16.032 c 0,18.947 9.533,35.701 24.048,45.743 v 16.493 c 0,3.253 -1.807,6.177 -4.716,7.632 l -25.941,12.97 C 6.682,324.176 0,334.988 0,347.015 v 65.299 c 0,4.142 3.358,7.5 7.5,7.5 4.142,0 7.5,-3.358 7.5,-7.5 v -62.055 l 12.218,12.218 c 3.125,3.126 4.847,7.281 4.847,11.702 v 38.135 c 0,4.142 3.358,7.5 7.5,7.5 4.142,0 7.5,-3.358 7.5,-7.5 v -38.135 c 0,-8.427 -3.282,-16.349 -9.24,-22.308 L 20.82,334.866 c -0.082,-0.082 -0.17,-0.153 -0.254,-0.23 1.067,-0.942 2.264,-1.762 3.582,-2.422 l 25.941,-12.97 c 1.329,-0.665 2.566,-1.45 3.719,-2.322 l 18.337,18.338 v 77.055 c 0,4.142 3.358,7.5 7.5,7.5 4.142,0 7.5,-3.358 7.5,-7.5 v -77.056 l 18.338,-18.338 c 1.154,0.873 2.39,1.658 3.719,2.322 l 7.153,3.577 c 1.077,0.539 2.221,0.794 3.349,0.794 2.751,0 5.4,-1.52 6.714,-4.147 1.853,-3.705 0.351,-8.21 -3.354,-10.062 l -7.153,-3.577 c -2.91,-1.455 -4.717,-4.379 -4.717,-7.631 v -16.493 c 14.515,-10.042 24.048,-26.797 24.048,-45.743 z M 79.645,147.265 c 9.125,0 16.548,7.424 16.548,16.548 0,1.005 -0.09,1.99 -0.262,2.955 -5.154,-1.582 -10.621,-2.439 -16.286,-2.439 -5.657,0 -11.117,0.854 -16.263,2.432 -0.173,-0.965 -0.285,-1.945 -0.285,-2.948 0,-9.125 7.423,-16.548 16.548,-16.548 z m 0,32.065 c 22.385,0 40.597,18.212 40.597,40.597 v 2.718 c -31.225,9.56 -49.834,-14.193 -50.629,-15.234 -1.305,-1.739 -3.3,-2.827 -5.468,-2.981 -2.168,-0.152 -4.298,0.641 -5.835,2.178 -7.159,7.159 -14.171,10.612 -19.235,12.279 0.555,-21.906 18.534,-39.557 40.57,-39.557 z m 0,142.215 -17.331,-17.331 c 0.506,-1.934 0.783,-3.95 0.783,-6.019 v -9.155 c 5.229,1.634 10.788,2.515 16.548,2.515 5.76,0 11.319,-0.881 16.548,-2.515 v 9.155 c 0,2.069 0.277,4.086 0.783,6.019 z m 0,-44.99 c -22.385,0 -40.597,-18.212 -40.597,-40.597 v -1.554 c 5.981,-1.374 14.849,-4.567 24.1,-12.007 3.273,3.088 7.951,6.876 13.908,10.125 7.046,3.843 16.777,7.398 28.663,7.398 4.517,0 9.35,-0.525 14.459,-1.731 -1.163,21.352 -18.897,38.366 -40.533,38.366 z"
                 inkscape:connector-curvature="0"
                 style="stroke-width:4.45220423" />
            </g>
          </g>
          <g
             id="g1372"
             style="stroke-width:4.45220423">
            <g
               id="g1370"
               style="stroke-width:4.45220423">
              <path
                 id="path1368"
                 d="m 494.561,302.765 -41.973,-20.987 c -2.909,-1.455 -4.716,-4.379 -4.716,-7.631 v -10.629 c 9.825,-8.723 16.032,-21.435 16.032,-35.575 v -8.537 c 0.173,0 0.343,0.005 0.516,0.005 4.142,0 7.5,-3.358 7.5,-7.5 v -16.032 c 0,-26.236 -21.345,-47.581 -47.581,-47.581 h -16.032 c -26.236,0 -47.581,21.345 -47.581,47.581 v 16.032 c 0,4.142 3.358,7.5 7.5,7.5 0.062,0 0.242,-0.002 0.516,-0.013 v 8.545 c 0,14.141 6.208,26.853 16.033,35.576 v 10.629 c 0,3.253 -1.807,6.177 -4.717,7.631 -3.705,1.852 -5.207,6.357 -3.354,10.062 1.314,2.628 3.963,4.148 6.714,4.148 1.127,0 2.271,-0.255 3.348,-0.793 1.329,-0.665 2.566,-1.45 3.719,-2.322 l 18.338,18.338 v 101.103 c 0,4.142 3.358,7.5 7.5,7.5 4.142,0 7.5,-3.358 7.5,-7.5 V 311.21 l 18.337,-18.338 c 1.154,0.873 2.39,1.658 3.719,2.322 l 40.615,20.308 -12.319,12.319 c -5.958,5.959 -9.24,13.881 -9.24,22.308 v 62.184 c 0,4.142 3.358,7.5 7.5,7.5 4.142,0 7.5,-3.358 7.5,-7.5 v -62.184 c 0,-4.42 1.721,-8.576 4.847,-11.702 l 11.669,-11.669 c 0.354,1.357 0.548,2.772 0.548,4.224 v 81.331 c 0,4.142 3.358,7.5 7.5,7.5 4.142,0 7.5,-3.358 7.5,-7.5 V 330.982 C 512,318.956 505.318,308.144 494.561,302.765 Z M 375.725,202.868 v -6.99 h 10e-4 c 0,-17.965 14.616,-32.581 32.581,-32.581 h 16.032 c 17.965,0 32.581,14.616 32.581,32.581 v 8.331 c -32.603,-1.759 -52.278,-14.446 -52.469,-14.571 -1.269,-0.846 -2.717,-1.26 -4.158,-1.26 -1.936,0 -3.856,0.748 -5.306,2.197 -7.176,7.176 -14.207,10.63 -19.262,12.293 z m 40.598,94.629 -17.331,-17.331 c 0.506,-1.934 0.783,-3.95 0.783,-6.019 v -1.597 c 5.156,1.919 10.731,2.973 16.548,2.973 5.817,0 11.392,-1.054 16.548,-2.973 v 1.597 c 0,2.069 0.276,4.085 0.783,6.019 z m 0,-36.973 c -17.965,0 -32.581,-14.615 -32.581,-32.581 v -12.091 0 c 5.253,-2.099 11.373,-5.436 17.601,-10.742 7.876,4.098 24.354,11.181 47.561,13.521 v 9.312 c 0,17.965 -14.616,32.581 -32.581,32.581 z"
                 inkscape:connector-curvature="0"
                 style="stroke-width:4.45220423" />
            </g>
          </g>
          <g
             id="g1374"
             style="stroke-width:4.45220423" />
          <g
             id="g1376"
             style="stroke-width:4.45220423" />
          <g
             id="g1378"
             style="stroke-width:4.45220423" />
          <g
             id="g1380"
             style="stroke-width:4.45220423" />
          <g
             id="g1382"
             style="stroke-width:4.45220423" />
          <g
             id="g1384"
             style="stroke-width:4.45220423" />
          <g
             id="g1386"
             style="stroke-width:4.45220423" />
          <g
             id="g1388"
             style="stroke-width:4.45220423" />
          <g
             id="g1390"
             style="stroke-width:4.45220423" />
          <g
             id="g1392"
             style="stroke-width:4.45220423" />
          <g
             id="g1394"
             style="stroke-width:4.45220423" />
          <g
             id="g1396"
             style="stroke-width:4.45220423" />
          <g
             id="g1398"
             style="stroke-width:4.45220423" />
          <g
             id="g1400"
             style="stroke-width:4.45220423" />
          <g
             id="g1402"
             style="stroke-width:4.45220423" />
        </g>
      </g>
      <g
         transform="translate(5.2916718,-5.2916667)"
         id="g1765">
        <g
           id="g1304"
           transform="matrix(0.67197905,0,0,0.67197905,-18.818009,100.75934)">
          <rect
             style="color:#000000;clip-rule:nonzero;display:inline;overflow:visible;visibility:visible;opacity:1;isolation:auto;mix-blend-mode:normal;color-interpolation:sRGB;color-interpolation-filters:linearRGB;solid-color:#000000;solid-opacity:1;vector-effect:none;fill:#ffffff;fill-opacity:1;fill-rule:nonzero;stroke:#545454;stroke-width:2.64583325;stroke-linecap:round;stroke-linejoin:miter;stroke-miterlimit:4;stroke-dasharray:none;stroke-dashoffset:0;stroke-opacity:1;marker:none;color-rendering:auto;image-rendering:auto;shape-rendering:auto;text-rendering:auto;enable-background:accumulate"
             id="rect1280"
             width="32.267857"
             height="24.160622"
             x="45.357143"
             y="65.708427" />
          <g
             id="g1294"
             transform="translate(-10.397378,35.70972)">
            <g
               id="g1286">
              <path
                 sodipodi:nodetypes="cc"
                 inkscape:connector-curvature="0"
                 id="path1282"
                 d="m 59.305949,42.079018 h 8.350395"
                 style="fill:none;fill-rule:evenodd;stroke:#1062d8;stroke-width:2.64583325;stroke-linecap:butt;stroke-linejoin:miter;stroke-miterlimit:4;stroke-dasharray:none;stroke-opacity:1" />
              <path
                 sodipodi:nodetypes="cccc"
                 inkscape:connector-curvature="0"
                 id="path1284"
                 d="m 66.025486,39.125305 v 5.907426 l 5.216299,-2.953713 z"
                 style="fill:#1062d8;fill-opacity:1;fill-rule:evenodd;stroke:none;stroke-width:0.41474146px;stroke-linecap:butt;stroke-linejoin:miter;stroke-opacity:1" />
            </g>
            <g
               transform="translate(13.229165)"
               id="use1288">
              <path
                 sodipodi:nodetypes="cc"
                 inkscape:connector-curvature="0"
                 id="path2307"
                 d="m 59.305949,42.079018 h 8.350395"
                 style="fill:none;fill-rule:evenodd;stroke:#1062d8;stroke-width:2.64583325;stroke-linecap:butt;stroke-linejoin:miter;stroke-miterlimit:4;stroke-dasharray:none;stroke-opacity:1" />
              <path
                 sodipodi:nodetypes="cccc"
                 inkscape:connector-curvature="0"
                 id="path2309"
                 d="m 66.025486,39.125305 v 5.907426 l 5.216299,-2.953713 z"
                 style="fill:#1062d8;fill-opacity:1;fill-rule:evenodd;stroke:none;stroke-width:0.41474146px;stroke-linecap:butt;stroke-linejoin:miter;stroke-opacity:1" />
            </g>
            <g
               transform="rotate(-22.31308,57.663114,8.5394343)"
               id="use1290">
              <path
                 sodipodi:nodetypes="cc"
                 inkscape:connector-curvature="0"
                 id="path2313"
                 d="m 59.305949,42.079018 h 8.350395"
                 style="fill:none;fill-rule:evenodd;stroke:#1062d8;stroke-width:2.64583325;stroke-linecap:butt;stroke-linejoin:miter;stroke-miterlimit:4;stroke-dasharray:none;stroke-opacity:1" />
              <path
                 sodipodi:nodetypes="cccc"
                 inkscape:connector-curvature="0"
                 id="path2315"
                 d="m 66.025486,39.125305 v 5.907426 l 5.216299,-2.953713 z"
                 style="fill:#1062d8;fill-opacity:1;fill-rule:evenodd;stroke:none;stroke-width:0.41474146px;stroke-linecap:butt;stroke-linejoin:miter;stroke-opacity:1" />
            </g>
            <g
               transform="matrix(0.92512307,0.37966736,0.37966736,-0.92512307,1.0754926,61.625827)"
               id="use1292">
              <path
                 sodipodi:nodetypes="cc"
                 inkscape:connector-curvature="0"
                 id="path2319"
                 d="m 59.305949,42.079018 h 8.350395"
                 style="fill:none;fill-rule:evenodd;stroke:#1062d8;stroke-width:2.64583325;stroke-linecap:butt;stroke-linejoin:miter;stroke-miterlimit:4;stroke-dasharray:none;stroke-opacity:1" />
              <path
                 sodipodi:nodetypes="cccc"
                 inkscape:connector-curvature="0"
                 id="path2321"
                 d="m 66.025486,39.125305 v 5.907426 l 5.216299,-2.953713 z"
                 style="fill:#1062d8;fill-opacity:1;fill-rule:evenodd;stroke:none;stroke-width:0.41474146px;stroke-linecap:butt;stroke-linejoin:miter;stroke-opacity:1" />
            </g>
          </g>
          <g
             id="g1302">
            <circle
               r="6.8153734"
               cy="89.064301"
               cx="46.23893"
               id="circle1296"
               style="color:#000000;clip-rule:nonzero;display:inline;overflow:visible;visibility:visible;opacity:1;isolation:auto;mix-blend-mode:normal;color-interpolation:sRGB;color-interpolation-filters:linearRGB;solid-color:#000000;solid-opacity:1;vector-effect:none;fill:#060606;fill-opacity:1;fill-rule:nonzero;stroke:none;stroke-width:2.64583325;stroke-linecap:round;stroke-linejoin:miter;stroke-miterlimit:4;stroke-dasharray:none;stroke-dashoffset:0;stroke-opacity:1;marker:none;color-rendering:auto;image-rendering:auto;shape-rendering:auto;text-rendering:auto;enable-background:accumulate" />
            <g
               id="text1300"
               style="font-style:normal;font-variant:normal;font-weight:normal;font-stretch:normal;font-size:6.4354682px;line-height:4.02216768px;font-family:sans-serif;-inkscape-font-specification:sans-serif;text-align:start;letter-spacing:0px;word-spacing:0px;text-anchor:start;fill:#ffffff;fill-opacity:1;stroke:none;stroke-width:0.26458332px;stroke-linecap:butt;stroke-linejoin:miter;stroke-opacity:1"
               aria-label="L7">
              <path
                 inkscape:connector-curvature="0"
                 id="path3574"
                 style="font-style:normal;font-variant:normal;font-weight:normal;font-stretch:normal;font-family:sans-serif;-inkscape-font-specification:sans-serif;letter-spacing:0px;fill:#ffffff;fill-opacity:1;stroke-width:0.26458332px"
                 d="m 42.897075,86.71856 h 0.634748 v 4.157288 h 2.284465 v 0.534194 h -2.919213 z" />
              <path
                 inkscape:connector-curvature="0"
                 id="path3576"
                 style="font-style:normal;font-variant:normal;font-weight:normal;font-stretch:normal;font-family:sans-serif;-inkscape-font-specification:sans-serif;letter-spacing:0px;fill:#ffffff;fill-opacity:1;stroke-width:0.26458332px"
                 d="m 46.375621,86.71856 h 3.016626 v 0.27024 l -1.703137,4.421242 h -0.663029 l 1.602582,-4.157288 h -2.253042 z" />
            </g>
          </g>
        </g>
        <use
           x="0"
           y="0"
           xlink:href="#g1304"
           id="use1481"
           transform="translate(31.750001)"
           width="100%"
           height="100%" />
        <use
           height="100%"
           width="100%"
           transform="translate(63.500003)"
           id="use1483"
           xlink:href="#g1304"
           y="0"
           x="0" />
      </g>
      <g
         transform="translate(4.4380363e-6,-37.041668)"
         id="g1943">
        <g
           id="g1726"
           transform="translate(-13.494452,5.2916667)">
          <g
             id="g1666"
             transform="translate(-124.35417,116.68125)">
            <g
               id="g1658"
               transform="matrix(0.67197905,0,0,0.67197905,119.0306,50.275617)">
              <rect
                 y="65.708427"
                 x="45.357143"
                 height="24.160622"
                 width="32.267857"
                 id="rect1644"
                 style="color:#000000;clip-rule:nonzero;display:inline;overflow:visible;visibility:visible;opacity:1;isolation:auto;mix-blend-mode:normal;color-interpolation:sRGB;color-interpolation-filters:linearRGB;solid-color:#000000;solid-opacity:1;vector-effect:none;fill:#ffffff;fill-opacity:1;fill-rule:nonzero;stroke:#545454;stroke-width:2.64591575;stroke-linecap:round;stroke-linejoin:miter;stroke-miterlimit:4;stroke-dasharray:none;stroke-dashoffset:0;stroke-opacity:1;marker:none;color-rendering:auto;image-rendering:auto;shape-rendering:auto;text-rendering:auto;enable-background:accumulate" />
              <g
                 transform="translate(-10.397378,35.70972)"
                 id="g1648">
                <g
                   id="g1646" />
              </g>
              <g
                 id="g1656">
                <circle
                   style="color:#000000;clip-rule:nonzero;display:inline;overflow:visible;visibility:visible;opacity:1;isolation:auto;mix-blend-mode:normal;color-interpolation:sRGB;color-interpolation-filters:linearRGB;solid-color:#000000;solid-opacity:1;vector-effect:none;fill:#060606;fill-opacity:1;fill-rule:nonzero;stroke:none;stroke-width:2.64583325;stroke-linecap:round;stroke-linejoin:miter;stroke-miterlimit:4;stroke-dasharray:none;stroke-dashoffset:0;stroke-opacity:1;marker:none;color-rendering:auto;image-rendering:auto;shape-rendering:auto;text-rendering:auto;enable-background:accumulate"
                   id="circle1650"
                   cx="46.23893"
                   cy="89.064301"
                   r="6.8153734" />
                <g
                   id="text1654"
                   style="font-style:normal;font-variant:normal;font-weight:normal;font-stretch:normal;font-size:4.33073187px;line-height:2.70670748px;font-family:sans-serif;-inkscape-font-specification:sans-serif;text-align:start;letter-spacing:-0.19686873px;word-spacing:0px;text-anchor:start;fill:#ffffff;fill-opacity:1;stroke:none;stroke-width:0.17805067px;stroke-linecap:butt;stroke-linejoin:miter;stroke-opacity:1"
                   transform="scale(0.9400326,1.0637929)"
                   aria-label="WWW">
                  <path
                     inkscape:connector-curvature="0"
                     id="path3579"
                     style="font-style:normal;font-variant:normal;font-weight:normal;font-stretch:normal;font-family:sans-serif;-inkscape-font-specification:sans-serif;letter-spacing:-0.19686873px;fill:#ffffff;fill-opacity:1;stroke-width:0.17805067px"
                     d="m 43.107222,82.144782 h 0.431382 l 0.663989,2.668645 0.661875,-2.668645 h 0.480017 l 0.663989,2.668645 0.661875,-2.668645 h 0.433496 l -0.792981,3.157121 h -0.537112 l -0.666104,-2.740541 -0.672447,2.740541 h -0.537113 z" />
                  <path
                     inkscape:connector-curvature="0"
                     id="path3581"
                     style="font-style:normal;font-variant:normal;font-weight:normal;font-stretch:normal;font-family:sans-serif;-inkscape-font-specification:sans-serif;letter-spacing:-0.19686873px;fill:#ffffff;fill-opacity:1;stroke-width:0.17805067px"
                     d="m 47.190335,82.144782 h 0.431381 l 0.663989,2.668645 0.661875,-2.668645 h 0.480017 l 0.66399,2.668645 0.661874,-2.668645 h 0.433496 l -0.79298,3.157121 h -0.537113 l -0.666103,-2.740541 -0.672448,2.740541 h -0.537112 z" />
                  <path
                     inkscape:connector-curvature="0"
                     id="path3583"
                     style="font-style:normal;font-variant:normal;font-weight:normal;font-stretch:normal;font-family:sans-serif;-inkscape-font-specification:sans-serif;letter-spacing:-0.19686873px;fill:#ffffff;fill-opacity:1;stroke-width:0.17805067px"
                     d="m 51.273447,82.144782 h 0.431381 l 0.663989,2.668645 0.661875,-2.668645 h 0.480018 l 0.663989,2.668645 0.661874,-2.668645 h 0.433496 l -0.79298,3.157121 h -0.537112 l -0.666104,-2.740541 -0.672448,2.740541 h -0.537112 z" />
                </g>
              </g>
            </g>
          </g>
          <g
             transform="matrix(0.08366843,0,0,0.08366843,29.515121,211.47939)"
             id="g1695">
            <title
               id="title1689">Layer 1</title>
            <g
               id="layer1-6">
              <g
                 id="g2344">
                <path
                   style="fill:#aad4ff;fill-opacity:0;stroke:#000000;stroke-width:3.75000095;stroke-linecap:round;stroke-linejoin:round;stroke-miterlimit:4;stroke-dashoffset:0"
                   inkscape:connector-curvature="0"
                   d="m 26.35516,42.21759 v 9.352081 H 17.705111 V 143.03448 H 139.65822 V 51.569671 H 54.51167 V 42.21759 Z"
                   id="rect2324"
                   stroke-miterlimit="4" />
                <rect
                   style="fill:#1062d8;fill-opacity:1;stroke:#000000;stroke-width:3.60805988;stroke-linecap:round;stroke-linejoin:round;stroke-miterlimit:4;stroke-dashoffset:0"
                   height="84.671791"
                   id="rect2328"
                   transform="matrix(1,0,-0.397105,0.917773,0,0)"
                   width="121.95309"
                   x="81.52655"
                   y="71.41153"
                   stroke-miterlimit="4" />
              </g>
            </g>
          </g>
        </g>
        <g
           id="g1905"
           transform="translate(-1.0583333)">
          <use
             transform="translate(11.641667,10.583333)"
             height="100%"
             width="100%"
             id="use1728"
             xlink:href="#g1726"
             y="0"
             x="0" />
          <use
             x="0"
             y="0"
             xlink:href="#g1726"
             id="use1788"
             width="100%"
             height="100%"
             transform="translate(22.225001,21.166667)" />
        </g>
        <g
           id="g1915"
           transform="translate(30.691667,-15.875)">
          <use
             x="0"
             y="0"
             xlink:href="#g1726"
             id="use1907"
             width="100%"
             height="100%"
             transform="translate(11.641667,10.583333)" />
          <use
             transform="translate(22.225001,21.166667)"
             height="100%"
             width="100%"
             id="use1909"
             xlink:href="#g1726"
             y="0"
             x="0" />
          <use
             x="0"
             y="0"
             xlink:href="#g1726"
             id="use1911"
             width="100%"
             height="100%"
             transform="translate(32.808335,31.750001)" />
        </g>
      </g>
      <path
         style="font-style:normal;font-variant:normal;font-weight:normal;font-stretch:normal;font-size:78.43415833px;line-height:49.02134705px;font-family:sans-serif;-inkscape-font-specification:sans-serif;text-align:center;letter-spacing:0px;word-spacing:0px;text-anchor:middle;fill:#000000;fill-opacity:1;stroke:none;stroke-width:0.18784866px;stroke-linecap:butt;stroke-linejoin:miter;stroke-opacity:1"
         d="m 49.51234,116.12147 c 1.391414,0 2.782834,0 4.174249,0 0,1.74099 0,3.48197 0,5.22296 -1.391415,0 -2.782835,0 -4.174249,0 0,-1.74099 0,-3.48197 0,-5.22296 z m 4.050871,-3.02273 c -1.309164,0 -2.618334,0 -3.927498,0 0.09183,-2.55235 -0.426792,-5.42122 1.190902,-7.62645 1.432296,-2.09125 3.661119,-3.47873 5.109613,-5.548097 1.092358,-1.54179 1.072604,-3.87272 -0.398945,-5.17147 -2.040161,-1.832152 -5.105865,-1.468373 -7.449822,-0.480031 -1.255073,0.456851 -2.577129,1.404971 -3.592448,1.935061 0,-1.26506 0,-2.530128 0,-3.795194 3.668599,-2.258214 8.46675,-3.181304 12.511989,-1.392438 2.60605,1.228275 4.226906,4.167232 3.851242,7.027492 -0.34245,2.908857 -2.707728,4.891027 -4.692177,6.791607 -1.080744,1.09875 -2.400427,2.23798 -2.519951,3.88408 -0.180575,1.45036 -0.03501,2.91792 -0.0829,4.37544 z"
         id="path2514"
         inkscape:connector-curvature="0" />
      <path
         sodipodi:nodetypes="cc"
         inkscape:connector-curvature="0"
         id="path11155-3"
         d="m 24.781372,157.96517 -2.089103,19.51308"
         style="opacity:1;vector-effect:none;fill:none;fill-opacity:1;fill-rule:evenodd;stroke:#00b894;stroke-width:0.79400003;stroke-linecap:butt;stroke-linejoin:miter;stroke-miterlimit:4;stroke-dasharray:none;stroke-dashoffset:0;stroke-opacity:1;marker:none;marker-start:url(#marker11317-2);marker-mid:none;marker-end:url(#marker11363-0)" />
      <path
         sodipodi:nodetypes="cc"
         inkscape:connector-curvature="0"
         id="path16059"
         d="m 37.68355,187.99449 22.793691,-30.4396"
         style="opacity:1;vector-effect:none;fill:none;fill-opacity:1;fill-rule:evenodd;stroke:#ff7675;stroke-width:0.79400003;stroke-linecap:butt;stroke-linejoin:miter;stroke-miterlimit:4;stroke-dasharray:none;stroke-dashoffset:0;stroke-opacity:1;marker:none;marker-start:url(#marker16063);marker-mid:none;marker-end:url(#marker16157)" />
      <path
         style="opacity:1;vector-effect:none;fill:none;fill-opacity:1;fill-rule:evenodd;stroke:#a29bfe;stroke-width:0.79400003;stroke-linecap:butt;stroke-linejoin:miter;stroke-miterlimit:4;stroke-dasharray:none;stroke-dashoffset:0;stroke-opacity:1;marker:none;marker-start:url(#marker20207);marker-mid:none;marker-end:url(#marker20349)"
         d="m 93.99724,193.04588 c -0.374178,-22.26355 -4.895433,-8.73731 -28.842782,-35.3039"
         id="path19912"
         inkscape:connector-curvature="0"
         sodipodi:nodetypes="cc" />
    </g>
  </g>
</svg>
