<?xml version="1.0" encoding="UTF-8" standalone="no"?>
<!-- Created with Inkscape (http://www.inkscape.org/) -->

<svg
   xmlns:dc="http://purl.org/dc/elements/1.1/"
   xmlns:cc="http://creativecommons.org/ns#"
   xmlns:rdf="http://www.w3.org/1999/02/22-rdf-syntax-ns#"
   xmlns:svg="http://www.w3.org/2000/svg"
   xmlns="http://www.w3.org/2000/svg"
   xmlns:xlink="http://www.w3.org/1999/xlink"
   xmlns:sodipodi="http://sodipodi.sourceforge.net/DTD/sodipodi-0.dtd"
   xmlns:inkscape="http://www.inkscape.org/namespaces/inkscape"
   width="744.09448819"
   height="1052.3622047"
   id="svg3265"
   version="1.1"
   inkscape:version="0.48.1 r9760"
   sodipodi:docname="New document 2">
  <defs
     id="defs3267">
    <filter
       color-interpolation-filters="sRGB"
       inkscape:collect="always"
       id="filter3469">
      <feGaussianBlur
         inkscape:collect="always"
         stdDeviation="8.7859392"
         id="feGaussianBlur3471" />
    </filter>
    <clipPath
       clipPathUnits="userSpaceOnUse"
       id="clipPath2481">
      <use
         x="0"
         y="0"
         xlink:href="#rect6771"
         id="use2483"
         transform="matrix(1,0,0,-1,0,926.18759)"
         width="1"
         height="1" />
    </clipPath>
    <filter
       color-interpolation-filters="sRGB"
       inkscape:collect="always"
       id="filter3323">
      <feGaussianBlur
         inkscape:collect="always"
         stdDeviation="6.1077012"
         id="feGaussianBlur3325" />
    </filter>
    <linearGradient
       inkscape:collect="always"
       xlink:href="#linearGradient3240"
       id="linearGradient3127"
       gradientUnits="userSpaceOnUse"
       gradientTransform="matrix(0.9856012,0,0,0.8989258,6.0293745,57.583187)"
       x1="204.59337"
       y1="532.23389"
       x2="453.81619"
       y2="532.23389" />
    <linearGradient
       id="linearGradient3240">
      <stop
         style="stop-color:#e0060f;stop-opacity:0.18796992;"
         offset="0"
         id="stop3242" />
      <stop
         style="stop-color:#e02306;stop-opacity:1;"
         offset="1"
         id="stop3244" />
    </linearGradient>
    <linearGradient
       inkscape:collect="always"
       xlink:href="#linearGradient3357"
       id="linearGradient3364"
       x1="707.33795"
       y1="241.85957"
       x2="550.2276"
       y2="87.800804"
       gradientUnits="userSpaceOnUse" />
    <linearGradient
       id="linearGradient3357">
      <stop
         style="stop-color:#000000;stop-opacity:1"
         offset="0"
         id="stop3360" />
      <stop
         id="stop3366"
         offset="0.65968657"
         style="stop-color:#000000;stop-opacity:0.7368421;" />
      <stop
         style="stop-color:#000000;stop-opacity:0.48872182;"
         offset="1"
         id="stop3362" />
    </linearGradient>
    <linearGradient
       inkscape:collect="always"
       xlink:href="#linearGradient3240"
       id="linearGradient3203"
       gradientUnits="userSpaceOnUse"
       gradientTransform="matrix(0.9856012,0,0,0.8989258,6.0293745,57.583187)"
       x1="204.59337"
       y1="532.23389"
       x2="453.81619"
       y2="532.23389" />
    <linearGradient
       id="linearGradient3205">
      <stop
         style="stop-color:#e0060f;stop-opacity:0.18796992;"
         offset="0"
         id="stop3207" />
      <stop
         style="stop-color:#e02306;stop-opacity:1;"
         offset="1"
         id="stop3209" />
    </linearGradient>
    <linearGradient
       inkscape:collect="always"
       xlink:href="#linearGradient14866"
       id="linearGradient2955"
       gradientUnits="userSpaceOnUse"
       gradientTransform="matrix(2.0805659,2.0805659,-2.0954967,2.0954967,-171.49318,-529.14228)"
       x1="322.93912"
       y1="22.0123"
       x2="320.74347"
       y2="93.8899" />
    <linearGradient
       id="linearGradient14866">
      <stop
         offset="0"
         style="stop-color:#ffffff;stop-opacity:1;"
         id="stop14868" />
      <stop
         offset="1"
         style="stop-color:#ffffff;stop-opacity:0;"
         id="stop14870" />
    </linearGradient>
    <linearGradient
       inkscape:collect="always"
       xlink:href="#linearGradient3240"
       id="linearGradient3369"
       gradientUnits="userSpaceOnUse"
       gradientTransform="matrix(0.9856012,0,0,0.8989258,6.0293745,57.583187)"
       x1="204.59337"
       y1="532.23389"
       x2="453.81619"
       y2="532.23389" />
  </defs>
  <sodipodi:namedview
     id="base"
     pagecolor="#ffffff"
     bordercolor="#666666"
     borderopacity="1.0"
     inkscape:pageopacity="0.0"
     inkscape:pageshadow="2"
     inkscape:zoom="0.35"
     inkscape:cx="375"
     inkscape:cy="520"
     inkscape:document-units="px"
     inkscape:current-layer="layer1"
     showgrid="false"
     inkscape:window-width="494"
     inkscape:window-height="416"
     inkscape:window-x="241"
     inkscape:window-y="69"
     inkscape:window-maximized="0" />
  <metadata
     id="metadata3270">
    <rdf:RDF>
      <cc:Work
         rdf:about="">
        <dc:format>image/svg+xml</dc:format>
        <dc:type
           rdf:resource="http://purl.org/dc/dcmitype/StillImage" />
        <dc:title></dc:title>
      </cc:Work>
    </rdf:RDF>
  </metadata>
  <g
     inkscape:label="Layer 1"
     inkscape:groupmode="layer"
     id="layer1">
    <g
       transform="matrix(2.3892435,0,0,2.3892435,203.54669,388.86567)"
       style="display:inline"
       id="g3159">
      <use
         style="opacity:0.53871562;filter:url(#filter3469)"
         height="1052.3622"
         width="744.09448"
         transform="matrix(0.2169348,0,0,0.2169348,11.331841,13.331514)"
         id="use3370"
         xlink:href="#rect6771"
         y="0"
         x="0" />
      <g
         transform="matrix(0.2169348,0,0,0.2169348,12.199581,9.8605574)"
         id="g3452">
        <rect
           style="fill:#000000;fill-opacity:1;fill-rule:evenodd;stroke:#ffffff;stroke-width:0;stroke-linejoin:miter;stroke-miterlimit:4;stroke-opacity:1;stroke-dasharray:none"
           id="rect6771"
           width="422.20157"
           rx="8.6570473"
           ry="6.7357121"
           y="-198.37158"
           x="277.52863"
           height="410.72037"
           transform="matrix(0.7071068,0.7071068,-0.7071068,0.7071068,0,0)" />
        <use
           x="0"
           y="0"
           xlink:href="#g3311"
           id="use2473"
           transform="matrix(1,0,0,-1,0,926.18759)"
           width="744.09448"
           height="1052.3622"
           clip-path="url(#clipPath2481)"
           style="opacity:0.88379205;filter:url(#filter3323)" />
        <rect
           transform="matrix(0.7071068,0.7071068,-0.7071068,0.7071068,0,0)"
           height="410.72037"
           x="277.52863"
           y="-198.37158"
           ry="6.7357121"
           rx="8.6570473"
           width="422.20157"
           id="rect3355"
           style="fill:url(#linearGradient3364);fill-opacity:1;fill-rule:evenodd;stroke:#ffffff;stroke-width:0;stroke-linejoin:miter;stroke-miterlimit:4;stroke-opacity:1;stroke-dasharray:none" />
        <g
           id="g3311"
           transform="matrix(0.6792459,0.2470026,-0.2470026,0.6792459,245.20917,-105.60563)"
           style="filter:url(#filter2483)">
          <path
             id="path3305"
             d="m 114.28571,585.93361 c -0.16104,-0.0805 -1.16646,8.80754 -1.42857,11.42857 -0.37066,3.70661 -0.71428,7.50799 -0.71428,11.42857 0,4.76191 0,9.52381 0,14.28572 0,4.18894 0.65754,7.57344 1.42857,11.42857 0.80607,4.03034 1.02963,8.1535 1.42857,12.14286 0.50109,5.01092 2.60091,10.14741 3.57143,15 0.83254,4.16268 2.50418,7.15121 4.28571,10.71428 2.41467,4.82934 6.38502,9.93466 9.28572,14.28572 4.78471,7.17706 12.42779,10.7267 19.28571,15.71428 8.2737,6.01724 13.89567,12.35902 22.14286,17.85715 4.74503,3.16335 10.14837,4.97308 15,6.42857 6.35674,1.90702 13.18073,0.81136 20,2.85714 5.38707,1.61612 11.61301,2.30416 17.14286,2.85714 4.58546,0.45855 8.66198,-0.58954 12.85714,-1.42857 5.96607,-1.19321 11.12847,-2.4814 17.14286,-4.28571 5.33397,-1.6002 11.77973,-2.03911 17.14285,-3.57143 7.5372,-2.15349 15.62575,-2.12515 22.85715,-3.57143 9.35536,-1.87107 10.99761,-3.9226 14.28571,-12.14286 2.76439,-6.91098 -4.79846,-8.91938 -9.28571,-10.71428 -13.45549,-5.3822 -26.28345,-9.4276 -39.28572,-15 -17.07904,-7.31959 -32.53431,-15.19123 -47.14286,-26.42857 -8.48012,-6.52318 -18.91576,-10.17217 -28.57142,-15 -11.39284,-5.69643 -23.19637,-10.02897 -32.14286,-17.85715 -7.27002,-6.36127 -13.72824,-23.80664 -19.28572,-32.14286 -5.10848,-7.66271 -14.03577,-6.07498 -20,-4.28571 z"
             style="fill:#ffffff;fill-opacity:1;stroke:none"
             inkscape:connector-curvature="0" />
          <path
             id="path3309"
             d="m 439.28571,392.36218 c -4.77621,-0.31684 -8.04324,3.26657 -11.42857,10.71429 -3.73054,8.2072 12.98379,13.76494 17.85715,15.71428 10.30773,4.1231 10.88903,-0.88733 15.71428,-7.85714 5.37549,-7.76459 -11.41632,-17.06775 -16.42857,-18.57143 -0.50994,-0.15298 -0.95238,-0.47619 -1.42857,-0.71428"
             style="fill:#ffffff;fill-opacity:1;stroke:none"
             inkscape:connector-curvature="0" />
          <path
             id="path3303"
             d="m 206.42857,603.07647 c -8.69342,-1.61845 -10.63304,3.67411 -15.71428,12.14286 -2.06396,3.43991 0.84544,10.65578 1.42857,13.57142 1.94868,9.7434 22.08442,13.93357 28.57143,16.42858 8.91542,3.429 8.68495,-5.2917 10,-11.42858 3.80585,-17.76064 1.15754,-21.92122 -13.57143,-29.28571 -2.75497,-1.37748 -7.69349,-1.12649 -10.71429,-1.42857 z"
             style="fill:#ffffff;fill-opacity:1;stroke:none"
             inkscape:connector-curvature="0" />
          <path
             id="path3299"
             d="m 208.57143,449.50504 -27.14286,43.57143 c 3.14906,8.56838 0.68386,17.32543 -0.71428,25.71428 -1.33068,7.98404 -4.19681,14.82523 -5,22.85715 -0.74568,7.45677 -2.08632,9.56844 -0.71429,16.42857 1.56984,7.8492 5.02745,15.81493 7.14286,23.57143 3.33136,12.21498 5.22094,15.71896 15.71428,12.85714 16.44593,-4.48525 21.59952,-4.45666 34.28572,-17.14286 10.82661,-10.82661 13.26958,-26.51229 17.14285,-40.71428 1.8625,-6.82917 -3.5e-4,-13.57214 -2.85714,-19.28572 -3.22512,-6.45023 -2.17904,-13.21899 -2.85714,-20 -0.73564,-7.35637 -2.35213,-14.00815 -3.57143,-20.71428 -1.31943,-7.25684 -8.43896,-15.87273 -12.14286,-21.42858 -5.05631,-7.58446 -15.39762,-7.8403 -22.14285,-9.28571 -1.49072,-0.31944 1.90476,2.38095 2.85714,3.57143 z"
             style="fill:#ffffff;fill-opacity:1;fill-rule:evenodd;stroke:none"
             inkscape:connector-curvature="0" />
          <path
             sodipodi:nodetypes="csssssssssssssssssssssssssssssssssssssssssssssssssssssssssssssssssssssssssssssccsssccsssccssccssccssccsssssssssssssssssssssssssssssccssccssccsssccssssssccssccscccccsssssssssssscccsssssssssssssssssssssssssccssccsssc"
             style="fill:#faf49a"
             d="m 217.63642,733.59861 c -1.3414,-1.3414 -5.27629,-1.89772 -12.85763,-1.81781 -2.83237,0.0299 -7.10737,-0.58042 -9.5,-1.35616 -2.39262,-0.77574 -5.96521,-1.44429 -7.9391,-1.48565 -4.18978,-0.0878 -8.69545,-1.64307 -11.12204,-3.83911 -0.94303,-0.85343 -2.32912,-1.31586 -3.08021,-1.02764 -1.88442,0.72312 -9.86462,-4.73238 -11.78283,-8.05508 -1.08293,-1.87586 -2.54016,-2.82232 -4.67111,-3.03387 -3.54022,-0.35147 -8.05359,-4.38152 -9.49529,-8.47851 -0.59854,-1.70089 -2.49549,-3.55894 -4.87043,-4.77054 -2.13953,-1.09151 -4.99915,-3.74148 -6.35471,-5.88884 -1.35557,-2.14735 -4.32797,-5.40061 -6.60535,-7.22946 -3.88312,-3.11835 -7.92915,-9.22231 -7.92915,-11.96216 0,-0.66916 -1.58507,-3.5181 -3.52238,-6.33099 -2.59042,-3.76117 -3.67154,-6.55866 -4.08614,-10.57318 -0.31006,-3.00237 -1.19999,-7.15546 -1.97762,-9.22909 -0.77762,-2.07363 -1.41386,-6.40455 -1.41386,-9.62427 0,-3.21972 -0.70606,-7.82311 -1.56902,-10.22976 -1.28412,-3.58118 -1.44992,-7.00865 -0.9131,-18.87573 0.36075,-7.975 1.29181,-17.03996 2.06902,-20.14434 0.7772,-3.10439 1.42378,-7.37939 1.43684,-9.5 0.0131,-2.12062 1.17933,-6.55566 2.59173,-9.85566 1.4124,-3.3 3.01441,-8.23273 3.56002,-10.96163 1.10753,-5.53931 2.76274,-9.13843 6.91606,-15.03837 1.54871,-2.2 3.5676,-6.25 4.48643,-9 1.88888,-5.65332 6.25253,-12.43491 9.79355,-15.22029 1.30889,-1.02957 3.30056,-3.65119 4.42594,-5.82583 1.12539,-2.17463 4.8059,-6.65388 8.17892,-9.95388 3.37302,-3.3 7.44463,-8.28106 9.04803,-11.06901 2.8415,-4.94076 13.87631,-16.43099 15.77973,-16.43099 1.81443,0 9.02632,-10.53341 12.32402,-18 5.13958,-11.63692 10.46507,-20.528 17.19814,-28.71284 3.39553,-4.12766 7.07347,-8.68347 8.17319,-10.12401 3.00463,-3.9358 15.54974,-14.74611 24.52698,-21.13527 8.94387,-6.36541 25.29646,-13.98125 36.47352,-16.9867 1.65,-0.44367 6.375,-1.71302 10.5,-2.82078 4.125,-1.10775 14.67601,-3.02111 23.44668,-4.2519 17.94061,-2.51761 26.78895,-2.30665 40.17087,0.95776 9.35392,2.28181 17.80125,1.72168 27.53847,-1.82604 13.99558,-5.09924 77.40765,-8.53712 99.84398,-5.41304 4.675,0.65096 10.64022,2.13491 13.25604,3.29766 2.61582,1.16275 7.93387,2.9484 11.81788,3.96812 3.88402,1.01971 9.41695,3.41772 12.29541,5.32891 2.87845,1.91119 7.12987,4.44232 9.44758,5.62472 3.98207,2.0315 17.49932,15.0312 27.0011,25.96728 2.76708,3.18477 4.96063,7.06316 6.10716,10.79797 0.98404,3.20549 2.72921,7.62816 3.87815,9.82816 1.24845,2.39052 2.69023,8.37077 3.58323,14.86256 1.30692,9.50086 1.31673,12.46186 0.0783,23.62061 -0.77878,7.01692 -1.91738,14.05377 -2.53024,15.63744 -0.61286,1.58366 -2.61421,9.27101 -4.44744,17.08298 -1.83323,7.81197 -4.89453,17.71197 -6.80288,22 -1.90835,4.28803 -4.38695,9.92092 -5.508,12.51754 -1.12105,2.59662 -4.93604,8.89662 -8.47775,14 -3.54171,5.10338 -7.13895,10.62887 -7.99387,12.27887 -0.85493,1.65 -3.87024,5.7 -6.70069,9 -2.83046,3.3 -6.80176,8.77692 -8.82513,12.17093 -3.30655,5.54645 -28.44116,33.03036 -58.26249,63.70823 -8.5736,8.81985 -10.02221,9.91003 -13.50984,10.16704 -5.55334,0.40923 -12.0958,3.47629 -24.28374,11.38403 -5.84252,3.79073 -12.51939,7.44865 -14.83748,8.12872 -2.3181,0.68006 -5.6931,2.50692 -7.5,4.05967 -2.76737,2.37812 -3.04882,2.98863 -1.78529,3.8726 1.28586,0.8996 1.16298,1.33203 -0.86078,3.0291 -1.29844,1.08882 -2.92525,1.97968 -3.61515,1.97968 -0.68989,0 -2.32754,0.80736 -3.63921,1.79413 -1.31167,0.98677 -4.93081,2.57166 -8.04252,3.52199 -3.11171,0.95033 -10.46495,3.97833 -16.34052,6.72891 -11.50323,5.38508 -20.91673,8.95497 -23.61355,8.95497 -0.92457,0 -4.99017,1.39366 -9.03466,3.09702 -7.45875,3.1413 -9.57255,3.67096 -25.00003,6.2643 -4.75553,0.7994 -10.83053,2.41967 -13.5,3.60061 -3.96984,1.7562 -6.76543,2.14445 -15.35358,2.1323 -10.46879,-0.0148 -14.13672,0.61091 -21.26048,3.6269 -3.19106,1.35099 -4.34353,1.39965 -7.61094,0.3213 -3.30802,-1.09174 -4.19881,-1.04252 -6.32313,0.34939 -1.95769,1.28272 -3.0971,1.40247 -5.47087,0.57497 -2.07745,-0.7242 -3.8376,-0.72604 -5.73149,-0.006 -3.64429,1.38555 -7.92644,1.31584 -9.39524,-0.15296 z m 4.41147,-15.33626 c 1.39062,-1.39062 2.34517,-3.07812 2.12121,-3.75 -0.7484,-2.24519 -4.95678,-1.31255 -7.11378,1.57652 -1.79414,2.40306 -1.87997,2.93034 -0.60792,3.73469 2.19612,1.38865 2.82629,1.21299 5.60049,-1.56121 z m -22.87068,-3.67795 c 2.4558,-2.03812 1.07907,-5.2618 -2.39114,-5.59898 -2.52477,-0.24532 -3.55677,0.27645 -5.25,2.65437 -3.22659,4.53133 -2.79138,5.51594 2.09289,4.73492 2.31021,-0.36942 4.80692,-1.17506 5.54825,-1.79031 z m 66.65744,-3.07564 c 0.74406,-1.17957 0.71748,-1.99444 -0.0914,-2.80334 -1.624,-1.624 -3.31466,-0.23273 -3.31466,2.72769 0,2.75745 1.69076,2.79501 3.40608,0.0756 z m -87.40608,-3.718 c 1.28242,-2.39622 -0.25516,-6 -2.55993,-6 -1.68583,0 -3.78684,4.65394 -3.01227,6.67245 0.77443,2.01813 4.36409,1.58493 5.5722,-0.67245 z m 116.6256,-0.55135 c 1.22153,-1.86429 1.3738,-2.84925 0.56544,-3.65761 -1.5759,-1.5759 -4.19104,0.81483 -4.19104,3.8314 0,3.09806 1.52985,3.02473 3.6256,-0.17379 z m -125.6256,-6.49967 c 0,-3.62319 2.72354,-4.99894 8.54239,-4.31505 4.01202,0.47153 5.99935,0.24113 7.73623,-0.89692 1.70493,-1.11711 2.82832,-1.25667 4.15214,-0.51582 2.86732,1.60463 1.44649,-0.50562 -3.05088,-4.53127 -2.26607,-2.02838 -5.64107,-3.97314 -7.5,-4.32169 -8.45064,-1.58449 -30.57163,-19.17028 -39.61693,-31.49475 -3.38005,-4.60541 -7.24007,-9.49848 -8.57781,-10.87348 -1.50256,-1.54441 -2.63735,-4.13949 -2.9688,-6.78922 -0.68697,-5.49176 -2.16892,-7.21078 -6.21634,-7.21078 -1.79031,0 -3.81531,-0.675 -4.5,-1.5 -0.68469,-0.825 -1.6973,-1.5 -2.25025,-1.5 -1.56877,0 0.0465,8.13736 2.20481,11.10767 1.4757,2.03083 1.85776,4.13231 1.72716,9.5 -0.1533,6.30071 0.0678,7.12448 2.57529,9.59688 1.50865,1.4875 2.74322,3.5125 2.74349,4.5 2.8e-4,0.9875 0.90028,4.16278 2,7.05618 1.09973,2.8934 1.9995,6.3809 1.9995,7.75 0,1.47632 0.57421,2.48927 1.41111,2.48927 2.20283,0 6.58721,-5.85986 6.6042,-8.82673 0.008,-1.4703 0.4388,-3.34307 0.95639,-4.16171 0.7818,-1.23654 1.52173,-0.92564 4.37203,1.83698 1.88703,1.82898 4.21669,5.06784 5.17701,7.19745 1.64199,3.64128 1.64591,4.08306 0.0657,7.41302 -1.90889,4.02269 -3.48047,4.42059 -6.08647,1.54099 -2.2307,-2.46489 -3.50687,-2.55661 -3.47839,-0.25 0.0248,2.00504 4.89837,6.45986 9.85845,9.01131 2.3692,1.2187 3.7674,2.89764 4.67521,5.6139 1.76957,5.29474 2.99682,6.38561 5.45612,4.84975 2.5641,-1.60131 5.03499,-1.50459 7.40657,0.2899 2.23958,1.69461 4.58204,0.38287 4.58204,-2.56588 z M 150.03262,688.4905 c -1.54394,-1.12896 -1.66127,-1.7243 -0.69548,-3.52891 1.34463,-2.51245 3.32869,-2.7948 5.05156,-0.71887 2.86802,3.45576 -0.69186,6.92713 -4.35608,4.24778 z m -25.91655,-43.34557 c -1.47104,-1.47104 -0.69742,-4.50273 1.0625,-4.1638 0.9625,0.18536 1.75,1.19336 1.75,2.23999 0,1.98954 -1.63108,3.10523 -2.8125,1.92381 z m 79.12213,51.89583 c -0.18536,-0.9625 -1.22469,-1.75 -2.30963,-1.75 -1.08494,0 -2.12427,0.7875 -2.30963,1.75 -0.25243,1.31075 0.32729,1.75 2.30963,1.75 1.98234,0 2.56206,-0.43925 2.30963,-1.75 z m 19.60858,-68.85699 c 3.20552,-1.23007 1.49205,-4.18475 -5.39804,-9.30827 -3.83891,-2.85464 -7.32641,-5.77582 -7.75,-6.49151 -0.4236,-0.71569 -1.78267,-1.83279 -3.02017,-2.48243 -1.97165,-1.03504 -2.25,-0.93744 -2.25,0.78892 0,5.26602 7.68488,15.07342 13.19335,16.83728 1.81866,0.58236 3.38235,1.10476 3.47486,1.16091 0.0925,0.0562 0.88002,-0.17105 1.75,-0.5049 z m -99.75695,-9.14301 c -0.55232,-3.44953 -3.5945,-7.25 -5.80343,-7.25 -3.09962,0 -0.37684,9.43832 2.97928,10.32745 3.22199,0.8536 3.41916,0.63874 2.82415,-3.07745 z m -4.15394,-28.08447 c -0.59833,-1.55268 -0.70538,-1.55232 -1.57993,0.005 -0.61145,1.08899 -0.52085,2.65598 0.26017,4.5 l 1.19829,2.82921 0.38165,-2.83447 c 0.2099,-1.55896 0.0928,-3.58396 -0.26018,-4.5 z m 104.20383,-22.85517 c 0.61964,-1.61477 -3.12233,-5.9887 -5.86932,-6.86056 -3.19121,-1.01285 -2.01089,-2.17064 2.76124,-2.70853 2.53168,-0.28536 5.3049,-1.22067 6.16271,-2.07848 1.41287,-1.41287 1.20605,-1.99118 -2.19758,-6.14487 -3.21477,-3.9232 -3.5668,-4.81468 -2.43822,-6.17453 1.13518,-1.36782 0.79991,-2.02515 -2.40553,-4.71636 -4.19292,-3.52027 -4.44384,-4.60062 -2.02108,-8.70203 1.64614,-2.78669 1.62448,-2.99028 -0.64474,-6.05956 -2.14676,-2.90366 -2.23828,-3.47971 -1.06732,-6.71795 1.25877,-3.48108 1.21471,-3.59742 -2.56422,-6.77002 -3.62309,-3.04177 -3.76709,-3.37366 -2.49497,-5.75064 0.74252,-1.38741 3.02802,-3.19396 5.07889,-4.01456 5.69618,-2.27916 6.6718,-7.2419 2.6013,-13.23218 l -2.38769,-3.5138 2.46155,-2.46155 c 2.81925,-2.81925 2.62793,-4.7619 -0.5145,-5.22429 -1.19442,-0.17575 -2.17167,-0.76398 -2.17167,-1.30718 0,-2.69789 2.3885,-9.9508 3.6111,-10.96548 1.61044,-1.33654 1.79467,-4.74302 0.37359,-6.90779 -0.87528,-1.33333 -1.0941,-1.33333 -1.96938,0 -0.54158,0.825 -0.99158,2.48594 -1,3.69098 -0.0229,3.2822 -1.87028,3.7939 -4.56324,1.26399 -2.23078,-2.09571 -2.44839,-2.12813 -3.08845,-0.46016 -0.44916,1.17049 -0.0646,2.25067 1.10601,3.10664 1.13068,0.82677 1.8382,2.71553 1.91248,5.10539 0.10567,3.40005 -0.15822,3.82509 -2.54627,4.1013 -1.96892,0.22773 -2.83463,-0.22895 -3.31739,-1.75 -0.78349,-2.46856 -2.3434,-2.67788 -3.20593,-0.43018 -0.40051,1.04372 0.22184,2.26651 1.73416,3.40725 2.11436,1.59486 2.2314,2.05906 1.12913,4.47828 -1.10753,2.43075 -1.58821,2.63172 -4.8368,2.02229 -2.90745,-0.54544 -3.49969,-0.39689 -3.05348,0.76591 1.60938,4.19398 1.82174,10.59338 0.44191,13.3166 -0.80308,1.58494 -1.77011,4.59286 -2.14896,6.68427 -0.37886,2.0914 -1.31693,4.04358 -2.08462,4.33817 -0.76768,0.29459 -2.16808,2.55783 -3.11199,5.02942 -1.46424,3.83405 -1.55145,5.39935 -0.59404,10.66183 1.97743,10.86901 2.36205,17.39768 1.26498,21.47191 -1.55619,5.77923 1.62019,13.66335 7.47719,18.55919 5.11248,4.27351 8.15372,5.60166 14.97,6.53762 5.87015,0.80605 8.46338,0.35832 9.21115,-1.59034 z m 1.28885,-38.34174 c 0,-1.19717 -2.82062,-2.48133 -3.64326,-1.65869 -0.87571,0.87571 0.60965,2.69007 2.20228,2.69007 0.79254,0 1.44098,-0.46412 1.44098,-1.03138 z m 220,-129.96862 c 0,-0.55 -0.675,-1 -1.5,-1 -0.825,0 -1.5,0.45 -1.5,1 0,0.55 0.675,1 1.5,1 0.825,0 1.5,-0.45 1.5,-1 z"
             id="path2460"
             inkscape:connector-curvature="0" />
          <path
             sodipodi:nodetypes="csssssssssssssssssssssssssssssssssssssssssssssssssssssssssssssssssssssssssssssssssssssssssssssssssccsssccsssssccssccsssccsssccssccssccsssssssssssssssssssssssssssssssssssssscccsssssssssssssssssssssscccsssssssssssssssssssssssssssssscccsssssssssssssssssccsssccsssccsssssssssssssssssssssssssccsssccsssccssccsssccsssccssccsssccsssssssssssssssssssssssssssssssssscccsssccssccsssssssssssssssssssssccssccssccsssccsssccssccsssssssccssccsssc"
             style="fill:#fbea63"
             d="m 216.97594,732.16678 c -1.9953,-1.11653 -5.235,-1.63794 -9.99203,-1.60816 -3.87167,0.0242 -8.84299,-0.53982 -11.04737,-1.25347 -2.20438,-0.71364 -6.59569,-1.53883 -9.75845,-1.83376 -3.6549,-0.34081 -6.71049,-1.29137 -8.38486,-2.60843 -1.44891,-1.13971 -3.45113,-2.0722 -4.44939,-2.0722 -2.63776,0 -10.58924,-5.64524 -11.19061,-7.94491 -0.30001,-1.14722 -1.70116,-2.21967 -3.36913,-2.57876 -5.51473,-1.18723 -7.16668,-2.37626 -8.96535,-6.45304 -1.26115,-2.85845 -3.25664,-5.00019 -6.54256,-7.02203 -4.45472,-2.74102 -7.64997,-6.53224 -6.48622,-7.696 0.2879,-0.28789 1.78686,0.37311 3.33103,1.46889 1.54416,1.09578 3.70414,2.16287 4.79996,2.37132 1.09581,0.20844 2.57388,1.72348 3.28461,3.36676 3.53228,8.16707 3.3456,8.01676 9.50663,7.6539 5.62338,-0.33119 5.68225,-0.30553 7.3568,3.20604 2.05604,4.31156 2.95781,4.69962 9.20235,3.96004 4.39354,-0.52035 5.08023,-0.94754 6.58062,-4.0939 1.02174,-2.14261 1.43809,-4.59246 1.06735,-6.28042 -0.33431,-1.52212 -0.1735,-3.03593 0.35736,-3.36401 0.53085,-0.32809 3.8197,0.29826 7.30854,1.39189 8.35332,2.61848 11.29723,2.52432 16.50549,-0.52792 7.71021,-4.51848 4.15466,-10.45785 -6.26048,-10.45785 -3.40773,0 -12.65416,-3.98151 -13.88991,-5.98098 -0.34638,-0.56046 -2.1437,-1.01902 -3.99404,-1.01902 -2.0733,0 -4.44895,-0.90723 -6.19098,-2.36427 -1.5547,-1.30034 -5.47449,-4.11284 -8.71065,-6.25 -3.23615,-2.13715 -7.28615,-4.84767 -9,-6.02337 -7.08008,-4.85695 -12.29483,-13.50418 -8.92385,-14.79775 1.05198,-0.40368 1.32985,-1.29278 0.88345,-2.82676 -2.98392,-10.25379 -6.56693,-25.71721 -7.5872,-32.7445 -1.65809,-11.42042 -0.80321,-39.65524 1.40494,-46.40228 0.88362,-2.69991 1.60658,-5.60241 1.60658,-6.45 0,-3.37462 -1.89214,0.83337 -5.10758,11.35893 -3.35425,10.97993 -3.36041,11.03829 -3.3764,31.98238 -0.0154,20.19443 0.0591,20.99678 1.98398,21.36568 2.75093,0.52722 3.41316,1.91223 2.77997,5.81413 -0.29756,1.8336 0.0298,5.37263 0.7275,7.86449 1.39309,4.97562 1.0655,5.95992 -1.68211,5.05426 -2.96721,-0.97805 -8.04918,-9.81021 -11.38076,-19.77908 -2.64269,-7.90755 -3.18285,-11.24447 -3.60358,-22.26161 -0.40937,-10.71949 -0.7902,-13.16657 -2.2031,-14.1562 -0.9395,-0.65805 -2.78597,-3.49757 -4.10326,-6.31005 -1.31729,-2.81247 -2.72447,-4.76718 -3.12707,-4.34379 -1.86186,1.958 -4.01863,19.54927 -4.20608,34.30616 -0.19595,15.42494 -0.9479,18.2743 -2.72729,10.33449 -0.97937,-4.37003 0.24195,-33.29358 1.4912,-35.31491 0.44662,-0.72264 1.17716,-4.93572 1.62341,-9.36239 0.5478,-5.43398 1.6397,-9.64506 3.36127,-12.96331 1.40245,-2.70315 2.5499,-5.93114 2.5499,-7.17331 0,-3.75605 2.09247,-8.70555 6.6601,-15.75372 2.38694,-3.68323 4.3443,-7.28323 4.34967,-8 0.0221,-2.95244 5.08728,-11.90035 8.75945,-15.47412 2.16398,-2.106 4.73835,-5.38949 5.72081,-7.29663 0.98247,-1.90714 5.21163,-7.12941 9.39814,-11.60505 4.18651,-4.47565 8.88351,-10.22609 10.43778,-12.77877 1.55427,-2.55268 4.90024,-6.33041 7.43549,-8.39495 10.33584,-8.41681 14.07005,-13.30485 21.1757,-27.71875 8.89888,-18.05147 17.99189,-30.39268 30.48645,-41.37679 3.34202,-2.93802 7.20141,-6.34331 8.57641,-7.56731 4.03355,-3.5906 14.01567,-10.07293 20.70481,-13.44557 14.80161,-7.46292 31.30581,-12.22314 54.29519,-15.66007 22.25931,-3.32779 27.69918,-3.19257 44.5,1.10607 7.02609,1.79769 16.34274,0.89164 25.65602,-2.49505 14.04846,-5.1086 75.91836,-8.46899 99.5182,-5.40521 5.04582,0.65505 10.95359,2.09878 13.12837,3.20827 2.17479,1.10949 6.94216,2.76782 10.59418,3.68518 3.65201,0.91735 9.21924,3.24039 12.37162,5.16231 3.15239,1.92191 7.75661,4.58742 10.23161,5.92334 4.19731,2.26557 8.70259,6.20239 18.5,16.16576 8.29534,8.43586 11.81179,13.33922 14.11323,19.67961 1.3049,3.59497 3.23617,8.22915 4.29171,10.29818 1.05987,2.07752 2.58202,8.67011 3.39961,14.72409 1.26826,9.39104 1.29005,12.68218 0.15202,22.96224 -0.73064,6.6 -2.26285,15.15 -3.40492,19 -1.14206,3.85 -3.14627,11.72669 -4.4538,17.50375 -3.08262,13.61998 -11.86452,34.19234 -18.13449,42.48162 -1.67016,2.20805 -5.68559,8.06463 -8.92318,13.01463 -3.23759,4.95 -7.79268,11.19549 -10.12241,13.87887 -2.32974,2.68338 -5.27123,6.89188 -6.53663,9.35224 -2.34515,4.55971 -3.46286,5.82698 -21.94346,24.87963 -5.80927,5.98909 -14.64168,15.40774 -19.62756,20.93032 -19.93849,22.08472 -27.01448,28.27709 -30.69723,26.86389 -1.81919,-0.69809 -11.87819,4.39625 -22.57143,11.43122 -4.65219,3.06063 -11.17719,6.66271 -14.5,8.00464 -8.00614,3.23329 -12.83164,6.94155 -12.19599,9.37227 0.62915,2.40585 -5.54984,6.42668 -13.84547,9.00959 -3.3,1.02748 -11.175,4.28043 -17.5,7.22877 -6.325,2.94834 -14.2,6.09934 -17.5,7.00223 -12.29511,3.36397 -14.09074,3.94941 -17.9742,5.86025 -4.09844,2.01662 -11.92481,3.90358 -21.5258,5.18994 -3.025,0.40529 -8.47944,1.80773 -12.12099,3.11652 -5.35967,1.9263 -8.59821,2.38045 -17,2.38398 -8.47548,0.004 -11.66282,0.45752 -17.37901,2.47526 -5.84925,2.0647 -7.54395,2.29463 -10.30881,1.39868 -2.37601,-0.76995 -4.06749,-0.76132 -6,0.0306 -1.48015,0.60656 -4.49119,1.04564 -6.69119,0.97573 -2.2,-0.0699 -5.8,0.1588 -8,0.50825 -2.82863,0.44929 -4.86465,0.1515 -6.95263,-1.01688 z m 8.07715,-13.49671 c 3.93056,-3.80965 4.10181,-6.72018 0.50063,-8.50874 -3.38163,-1.67951 -7.23782,-0.0582 -11.00186,4.62564 -4.94653,6.15529 -4.13105,8.47413 2.71232,7.71262 3.16652,-0.35236 5.26679,-1.38499 7.78891,-3.82952 z m -35.62452,1.62069 c 1.375,-0.78602 4.37469,-1.44508 6.66597,-1.46456 3.64494,-0.031 4.56112,-0.53435 7.32542,-4.02457 1.73769,-2.19402 3.01301,-4.74423 2.83403,-5.66713 -0.51505,-2.65584 -8.2335,-4.83156 -11.84024,-3.3376 -3.9812,1.64907 -10.46169,11.58852 -9.38502,14.39427 0.74045,1.92959 1.18113,1.93957 4.39984,0.0996 z m 53.43101,-6.84494 c 0.64728,-2.56761 0.58401,-4.04004 -0.20762,-4.83167 -1.78754,-1.78754 -4.22339,0.8842 -4.22339,4.63239 0,5.89444 2.96169,6.02764 4.43101,0.19928 z m 23.98039,0.26787 c 2.80665,-3.33552 4.16283,-7.18478 3.12373,-8.86609 -0.90875,-1.47038 -7.0762,-1.32654 -8.2823,0.19316 -1.71579,2.16192 -2.47776,8.77405 -1.18992,10.3258 1.801,2.17007 3.505,1.72642 6.34849,-1.65287 z m 26.7259,-1.49393 c 3.1308,-1.619 7.5307,-9.53914 6.35558,-11.44053 -1.12773,-1.82469 -6.09463,-1.04129 -8.30318,1.3096 -2.33055,2.48076 -3.78797,7.70048 -2.83991,10.17107 0.73043,1.90348 1.03388,1.90094 4.78751,-0.0401 z m -70.5227,-9.08421 c 5.23919,-3.99613 6.15961,-6.29945 3.40774,-8.52779 -6.59284,-5.33855 -15.93602,1.87022 -11.98716,9.24874 1.43082,2.67351 4.46314,2.4187 8.57942,-0.72095 z m 104.23144,-13.37527 c 0.30212,-2.07253 0.14347,-2.2057 -1.25,-1.04923 -1.88703,1.5661 -2.14522,4.42724 -0.34604,3.83472 0.6875,-0.22642 1.40572,-1.47989 1.59604,-2.78549 z m -74.16176,-25.05873 c 2.37364,-1.14906 4.31572,-2.4633 4.31572,-2.92054 0,-0.45724 -1.4625,-1.17201 -3.25,-1.58839 -3.03988,-0.70811 -5.82984,-0.95931 -19.75,-1.77823 -8.15103,-0.47953 -13.81694,-1.69813 -15.10357,-3.24842 -0.62772,-0.75637 -2.64348,-1.37521 -4.47945,-1.37521 -3.80845,0 -4.63969,-0.75501 -7.70685,-7 -2.24906,-4.57926 -5.35602,-6.15186 -5.0379,-2.54995 0.32279,3.65475 -2.49007,7.55038 -5.44791,7.54498 -5.45541,-0.01 -12.21169,-8.72998 -20.91574,-26.99503 -4.22472,-8.86537 -5.34994,-12.53226 -7.22787,-23.55415 -2.00878,-11.78989 -2.11389,-14.06581 -1.0853,-23.5 1.12358,-10.30538 5.83943,-26.78813 8.56828,-29.94768 0.71341,-0.82601 1.76729,-2.73851 2.34196,-4.25 0.94312,-2.4806 3.09435,-3.86497 3.09435,-1.99129 0,0.41628 -1.50818,4.59854 -3.3515,9.29391 -1.84333,4.69538 -4.11021,12.56728 -5.03751,17.49313 -0.92731,4.92584 -2.08348,10.75608 -2.56927,12.95608 -1.83768,8.32225 1.07835,22.86498 5.28476,26.35599 0.80209,0.66568 2.01135,2.5454 2.68725,4.17717 0.6759,1.63176 1.62432,2.96684 2.10759,2.96684 1.40808,0 1.01664,-4.61472 -0.77024,-9.08058 -1.37172,-3.42826 -1.53693,-6.24749 -0.98278,-16.77023 0.71094,-13.50015 3.75699,-29.70305 6.00698,-31.95304 1.1559,-1.1559 1.69174,-0.91077 3.47092,1.58785 1.15719,1.62514 2.53352,4.08454 3.0585,5.46535 0.75508,1.986 2.7675,3.16658 9.63147,5.65025 4.77233,1.72683 10.76651,3.61001 13.32039,4.18484 5.03853,1.13408 15.42021,0.35272 18.64344,-1.40316 1.1,-0.59924 4.025,-1.33517 6.5,-1.6354 3.09072,-0.37493 4.5,-1.01564 4.5,-2.04588 0,-0.94727 -0.95447,-1.5 -2.59022,-1.5 -1.42462,0 -3.33989,-0.6199 -4.25616,-1.37756 -0.91627,-0.75766 -3.03547,-1.65766 -4.70934,-2 -3.99308,-0.81667 -4.18922,-2.35068 -0.44428,-3.47475 3.83255,-1.15037 10.55878,-3.62925 12.5,-4.60674 3.6534,-1.83965 1.88982,-5.99255 -2.55887,-6.02564 -1.13238,-0.008 -2.93238,-0.65404 -4,-1.43472 -1.90781,-1.39504 -1.90251,-1.46052 0.30887,-3.81445 3.02395,-3.21888 2.86227,-4.11585 -1.37086,-7.60515 l -3.62087,-2.98463 2.9437,-1.52224 c 6.57534,-3.40024 5.97933,-7.37058 -1.28366,-8.55114 -5.60014,-0.91028 -5.42885,-3.9328 0.33169,-5.85298 2.3375,-0.77917 4.24938,-1.94167 4.24861,-2.58333 -7.6e-4,-0.64167 -2.70076,-1.95991 -6,-2.92943 -3.60965,-1.06074 -5.99861,-2.31643 -5.99861,-3.15301 0,-0.76463 1.64103,-2.70672 3.64673,-4.31575 2.5247,-2.02538 3.70726,-3.82439 3.84347,-5.84699 0.10821,-1.60682 0.26719,-3.69743 0.35328,-4.64581 0.0861,-0.94838 1.50652,-2.42243 3.15652,-3.27568 2.31319,-1.1962 3,-2.23229 3,-4.52568 0,-3.43083 -2.21657,-3.99329 -5.17739,-1.31378 -1.00918,0.91329 -2.03877,1.45663 -2.28798,1.20743 -0.69153,-0.69154 2.41695,-11.86111 3.96732,-14.25559 0.75224,-1.16181 1.91188,-4.36238 2.57696,-7.11238 0.66509,-2.75 1.61382,-5.79418 2.10829,-6.76484 0.64625,-1.26858 0.46514,-1.93134 -0.64408,-2.35699 -0.98134,-0.37657 -1.54312,-1.85772 -1.54312,-4.06849 0,-4.5745 2.38067,-3.927 2.8213,0.76733 0.4164,4.43618 1.45041,5.39476 4.0608,3.76455 2.21895,-1.38576 2.82591,-4.28595 1.1179,-5.34156 -1.98089,-1.22426 -1.01143,-6.41706 1.81375,-9.7152 6.90401,-8.0598 7.49465,-9.47038 6.80089,-16.24187 -0.55509,-5.418 -0.36597,-6.61341 1.37071,-8.66406 l 2.01465,-2.37887 1.94312,2.29054 c 1.90447,2.24499 1.96414,2.25127 3,0.31574 1.29458,-2.41894 1.36659,-6.53707 0.15509,-8.86985 -0.49598,-0.95504 -1.28348,-3.53643 -1.75,-5.73643 -1.16748,-5.50563 -4.17169,-5.90906 -7.8724,-1.05717 -2.28761,2.99921 -3.32199,3.55717 -6.5945,3.55717 -3.44068,0 -3.88131,0.27512 -3.88131,2.4234 0,1.33288 1.52521,4.42154 3.38935,6.8637 3.89628,5.10441 4.90655,7.66947 3.74718,9.51407 -1.41218,2.24684 -5.45301,-0.49383 -8.15735,-5.53267 -2.91016,-5.42233 -5.34193,-7.30575 -7.12743,-5.52025 -0.93773,0.93773 -0.62327,2.36732 1.42484,6.47753 3.31265,6.64791 4.22072,10.34883 2.76063,11.25122 -1.88242,1.1634 -4.03722,-1.52684 -4.03722,-5.04043 0,-6.93757 -4.24129,-5.02827 -5.69436,2.56343 -0.67884,3.5467 -1.3278,4.56714 -3.06338,4.81692 -1.58444,0.22803 -2.53259,1.42007 -3.38046,4.25 -1.19073,3.97432 -3.44173,5.19135 -4.50017,2.43308 -0.884,-2.30365 -1.99508,-1.79915 -3.37509,1.53248 -1.16405,2.81028 -1.41109,2.92911 -3.37132,1.62172 -1.16337,-0.77593 -2.18338,-2.47804 -2.26668,-3.78249 -0.0833,-1.30444 -0.1958,-2.7537 -0.25,-3.22058 -0.16181,-1.39388 -8.64578,7.45869 -12.44499,12.98568 -6.67682,9.71328 -12.63557,25.47643 -12.66645,33.50753 -0.007,1.84562 -0.92268,6.25831 -2.03462,9.80599 -1.84371,5.88238 -2.21147,10.70692 -1.93152,25.33912 0.0336,1.75765 -1.94317,5.82647 -5.34425,11 -2.96868,4.5158 -6.39371,10.17041 -7.61117,12.56579 -4.04531,7.95923 -11.09644,18.2437 -12.08794,17.63092 -1.57046,-0.9706 -1.13536,-4.87529 1.1085,-9.94791 2.30159,-5.20311 1.93902,-9.89277 -0.72323,-9.35469 -1.76907,0.35755 -5.78035,6.97834 -8.51419,14.05302 l -1.83033,4.73659 2.24082,-0.23659 c 3.29486,-0.34786 3.32426,2.99825 0.17638,20.07209 -3.12276,16.93757 -3.38955,30.58269 -0.86404,44.19133 2.64949,14.27665 12.22452,31.60397 15.59935,28.22914 0.80777,-0.80777 0.83437,-1.52452 0.0904,-2.43676 -0.57965,-0.71081 -1.03293,-5.34238 -1.00727,-10.29238 0.0308,-5.93686 -0.51009,-10.53157 -1.58914,-13.5 -1.49682,-4.11769 -2.47297,-21.14141 -1.13558,-19.80402 0.29112,0.29113 0.98244,4.51713 1.53626,9.39111 0.63764,5.61166 1.94468,10.88834 3.56376,14.38736 6.60953,14.28389 10.86375,22.04086 12.30031,22.42786 0.86369,0.23268 3.37035,0.72761 5.57035,1.09986 2.2,0.37224 4.60875,1.18002 5.35278,1.79506 0.74404,0.61505 3.89404,1.13845 7,1.16312 3.10597,0.0247 6.32176,0.47699 7.14619,1.00515 0.82444,0.52815 4.13618,1.27123 7.35942,1.65128 4.85713,0.57271 6.48371,1.29383 9.50103,4.21218 4.54972,4.4005 8.29026,5.46694 19.57486,5.58085 7.14579,0.0721 9.7982,-0.32803 13.25,-1.99902 z m -92.98347,-74.24809 c -0.78917,-2.05653 0.80073,-18.57731 2.27431,-23.63272 1.52491,-5.23147 5.26208,-12.68395 5.71503,-11.39661 0.36799,1.0459 -4.6252,27.04676 -6.4964,33.82844 -0.66303,2.40302 -0.9447,2.62958 -1.49294,1.20089 z m 193.79919,65.3373 c 0.33992,-0.55 0.16803,-1 -0.38197,-1 -0.55,0 -1.27811,0.45 -1.61803,1 -0.33992,0.55 -0.16803,1 0.38197,1 0.55,0 1.27811,-0.45 1.61803,-1 z m -117.5,-12.72836 c 1.03595,-2.22962 2.20027,-3.23505 3.76357,-3.25 1.24496,-0.0119 3.13936,-0.56858 4.20978,-1.23707 1.52745,-0.95391 2.66945,-0.95391 5.30743,0 4.43422,1.60343 6.38307,1.5338 7.06856,-0.25254 0.67625,-1.7623 0.50508,-1.86601 -5.84934,-3.54412 -2.85134,-0.75299 -6.61273,-2.75304 -8.75288,-4.65417 -2.06409,-1.83356 -4.55585,-3.33374 -5.53726,-3.33374 -0.9814,0 -5.19614,-2.26255 -9.36608,-5.02789 -6.95027,-4.60914 -7.75823,-5.50444 -9.70134,-10.75 -1.93276,-5.2176 -1.97771,-5.82781 -0.50981,-6.921 2.6042,-1.93942 0.86628,-5.76319 -4.77046,-10.49598 -2.82008,-2.36782 -6.12876,-5.88235 -7.35263,-7.81007 -1.22388,-1.92772 -3.41944,-4.14406 -4.87903,-4.92521 -2.40179,-1.2854 -2.78779,-1.23745 -4.06488,0.50494 -5.32774,7.26884 0.66983,27.93972 12.29379,42.37109 4.57927,5.68525 4.98912,6.55938 3.47324,7.40771 -1.36484,0.7638 -2.24513,0.26275 -4.27567,-2.43368 -1.40635,-1.86753 -5.38546,-6.326 -8.84248,-9.90771 -5.793,-6.00195 -6.2376,-6.27714 -5.67429,-3.5122 0.33617,1.65 1.92714,5.65071 3.5355,8.89046 3.43773,6.92472 3.66063,9.66859 0.92428,11.37747 -2.36677,1.47807 -2.64737,5.04642 -0.46275,5.88474 1.89663,0.7278 5.46275,-2.34082 5.46275,-4.70067 0,-3.43558 5.76419,-3.98705 8.59501,-0.82229 4.44548,4.96989 16.90555,10.96549 21.90499,10.54036 1.18352,-0.10064 2.61236,-1.48802 3.5,-3.39843 z m -45.55279,-13.35705 c -0.32197,-0.52097 -1.01165,-0.68378 -1.53262,-0.3618 -0.52097,0.32197 -0.68378,1.01165 -0.3618,1.53262 0.32197,0.52097 1.01165,0.68378 1.53262,0.3618 0.52097,-0.32197 0.68378,-1.01165 0.3618,-1.53262 z m -67.44721,-55.28959 c 0,-0.75625 -0.28851,-2.81755 -0.64113,-4.58066 -0.45116,-2.25582 -0.89108,-2.81138 -1.48469,-1.875 -1.01019,1.59353 -1.14441,6.22709 -0.20751,7.16399 1.11608,1.11609 2.33333,0.74657 2.33333,-0.70833 z m 10,-26.125 c 0,-5.31365 -1.14077,-7.1815 -2.39301,-3.91821 -0.81311,2.11893 -0.77357,7.9183 0.0597,8.75154 1.65891,1.65891 2.33333,0.26189 2.33333,-4.83333 z m 113,-7.71398 c 0,-0.55 -0.7118,-0.72685 -1.58179,-0.39301 -0.86998,0.33385 -1.79654,0.60699 -2.05901,0.60699 -0.26248,0 -0.21127,0.43035 0.11381,0.95633 0.71751,1.16096 3.52699,0.22873 3.52699,-1.17031 z M 145.79828,527.54076 c 0.33164,-1.2375 0.57258,-3.15 0.53542,-4.25 -0.0528,-1.5633 -0.36751,-1.34495 -1.44124,1 -0.75553,1.65 -1.39398,3.5625 -1.41879,4.25 -0.0769,2.1324 1.68872,1.37285 2.32461,-1 z m 98.02348,-29.01156 c 1.5115,-2.39623 -0.30081,-3.58527 -1.97495,-1.29574 -0.78003,1.06676 -1.41824,2.34105 -1.41824,2.83176 0,1.33788 2.212,0.33656 3.39319,-1.53602 z m 7.60681,-12.85647 c 0,-0.55 -0.45,-0.72189 -1,-0.38197 -0.55,0.33992 -1,1.06803 -1,1.61803 0,0.55 0.45,0.72189 1,0.38197 0.55,-0.33992 1,-1.06803 1,-1.61803 z m 201,-58.34095 c 0,-0.78264 -0.45332,-1.70315 -1.00738,-2.04558 -0.83636,-0.5169 -4.99262,-8.16179 -4.99262,-9.18327 0,-1.30604 6.0135,0.35497 13.99826,3.86653 11.52001,5.0663 18.49739,6.01378 22.68163,3.08003 1.55106,-1.08751 5.17732,-2.75003 8.05835,-3.69447 2.88103,-0.94445 5.50711,-2.15222 5.83572,-2.68394 1.02169,-1.65311 -4.38397,-7.67281 -9.97102,-11.10367 -9.20269,-5.65111 -13.80927,-8.90366 -13.31305,-9.39987 0.64142,-0.64142 11.21002,2.96329 12.96967,4.42367 0.76596,0.63569 3.90453,2.26667 6.9746,3.6244 3.07008,1.35774 5.90266,2.98751 6.29462,3.62171 1.20441,1.94878 12.66725,8.95344 14.65194,8.95344 1.78844,0 1.79681,-0.14281 0.19051,-3.25 -2.57735,-4.98556 -7.5672,-10.79944 -10.62711,-12.38206 -1.51573,-0.78396 -4.61554,-3.44287 -6.88846,-5.9087 -2.27292,-2.46583 -4.63277,-4.42459 -5.24412,-4.3528 -3.30906,0.38857 -4.53404,-0.45547 -6.00823,-4.13985 -1.95131,-4.87679 -3.57096,-5.62742 -8.57736,-3.97515 -3.28653,1.08465 -4.15253,1.03331 -6.14816,-0.36448 -1.27754,-0.89483 -3.70767,-1.62696 -5.4003,-1.62696 -1.69262,0 -3.56918,-0.49169 -4.17013,-1.09264 -0.79019,-0.79019 -1.67598,-0.78045 -3.2,0.0352 -3.51882,1.88322 -2.52627,3.37699 1.85352,2.78953 4.96995,-0.66661 6.40166,0.81852 5.48736,5.69213 -0.79259,4.2249 -2.82283,4.64219 -6.91703,1.42169 -3.1767,-2.4988 -12.041,-3.40244 -16.33116,-1.66482 -1.48503,0.60147 -6.07505,1.40939 -10.20005,1.79537 -4.125,0.38599 -9.525,1.21906 -12,1.85127 -2.475,0.63222 -6.19091,1.40065 -8.25757,1.70762 -2.55274,0.37918 -4.29983,1.38573 -5.44875,3.13922 -1.65696,2.52883 -1.62612,2.63922 1.52334,5.45326 1.76799,1.57971 3.8777,2.87219 4.68824,2.87219 0.81053,0 4.29093,1.08871 7.73422,2.41935 3.44329,1.33064 7.91591,2.69501 9.93916,3.03193 2.02326,0.33691 4.72326,1.52711 6,2.64488 l 2.32136,2.0323 -6.75965,-0.44985 c -6.50903,-0.43317 -6.78253,-0.35873 -7.37646,2.00769 -0.79643,3.1732 4.78207,9.27657 8.58228,9.38978 1.40461,0.0418 4.12883,0.65297 6.05383,1.35806 5.0547,1.85143 13,1.91675 13,0.10688 z m 89.5,-5.54102 c 0,-1.28333 -0.56226,-2.52075 -1.24947,-2.74982 -1.53306,-0.51102 -2.68467,2.17608 -1.85699,4.33298 0.87971,2.2925 3.10646,1.15767 3.10646,-1.58316 z m -268.5,-6.94098 c 0,-3.37101 1.48299,-4.73299 3.41113,-3.13278 1.82679,1.51611 3.18718,-0.36124 4.04866,-5.58718 0.83466,-5.06328 3.52382,-7.89817 6.19442,-6.53011 2.544,1.30321 9.44103,3.45074 9.74032,3.03285 0.13464,-0.18799 0.79401,-2.2543 1.46528,-4.5918 1.0897,-3.79462 1.54466,-4.25 4.24607,-4.25 1.66408,0 3.89143,-0.46338 4.94967,-1.02973 1.40961,-0.7544 2.5284,-0.6444 4.18426,0.41139 1.36422,0.86984 4.24226,1.34825 7.26019,1.20684 4.4832,-0.21006 5.22967,-0.5885 7.22206,-3.66139 1.22213,-1.88491 2.94078,-4.16943 3.81922,-5.07671 1.47126,-1.51957 1.33396,-1.73647 -1.74166,-2.75151 -3.41081,-1.12568 -6.56933,-0.85033 -25.91315,2.259 -5.98874,0.96263 -9.78657,2.18164 -12.463,4.00032 -2.53251,1.72089 -4.18714,2.27812 -4.83647,1.62879 -1.97479,-1.97479 -4.67726,-1.02652 -5.73684,2.013 -1.1628,3.3356 -1.64649,3.50555 -5.27349,1.85298 -1.94301,-0.8853 -2.86647,-0.85736 -4.04706,0.12244 -2.00397,1.66315 -2.02623,10.16355 -0.0367,14.0109 0.82111,1.58784 1.22297,3.5905 0.89301,4.45034 -0.73571,1.91723 0.18203,4.56334 1.58269,4.56334 0.56726,0 1.03138,-1.32344 1.03138,-2.94098 z m 260,-4.99559 c 0,-2.68368 -2.44347,-4.43893 -3.83884,-2.75761 -0.82029,0.98838 -0.70825,1.89579 0.43574,3.52906 1.70263,2.43085 3.4031,2.04537 3.4031,-0.77145 z m -12,-8.62245 c 0,-0.79254 -0.675,-1.44098 -1.5,-1.44098 -1.50623,0 -2.05568,2.11099 -0.86052,3.30615 0.93324,0.93324 2.36052,-0.19452 2.36052,-1.86517 z m -7,-6.48643 c 0,-1.125 -1.13361,-3.17906 -2.51912,-4.56458 -3.41455,-3.41455 -7.56641,-2.96996 -8.93972,0.95728 -1.30036,3.71864 1.14603,5.65275 7.14997,5.65275 3.67412,0 4.30887,-0.30132 4.30887,-2.04545 z m -125.162,-9.85552 c 0.26651,-1.87705 -0.0152,-2.24502 -1.33179,-1.73979 -0.91838,0.35242 -1.85798,0.64076 -2.088,0.64076 -0.23001,0 -0.41821,0.933 -0.41821,2.07332 0,2.94533 3.40417,2.08116 3.838,-0.97429 z M 130.15641,685.71796 c -4.58609,-3.78025 -4.73039,-5.06713 -0.47784,-4.26149 4.28797,0.81236 5.75,2.07269 5.75,4.95673 0,3.10514 -0.78765,3.00127 -5.27216,-0.69524 z m -6.06117,-7.59387 c -0.36667,-0.36666 -0.66667,-1.37527 -0.66667,-2.24134 0,-0.86607 -1.62526,-3.93448 -3.6117,-6.8187 -2.60835,-3.7872 -3.99115,-7.26219 -4.97758,-12.50866 -0.75123,-3.99555 -1.8122,-9.4012 -2.3577,-12.01256 -0.54551,-2.61136 -0.69749,-5.51499 -0.33773,-6.4525 0.89794,-2.34001 5.24094,11.92868 5.26576,17.30039 0.0136,2.95205 0.86236,5.26425 3.03131,8.2584 3.59923,4.96859 6.79108,17.61175 3.65431,14.47497 z m 16.94032,-2.91512 c -0.85768,-2.23506 -0.79004,-2.41821 0.89301,-2.41821 0.83333,0 1.5,0.88889 1.5,2 0,2.38425 -1.53559,2.65261 -2.39301,0.41821 z m -22.952,-67.24695 c -0.91025,-1.00581 -1.65499,-2.96841 -1.65499,-4.36133 0,-2.18369 0.35573,-2.46458 2.58215,-2.03898 3.00752,0.57493 3.8823,2.24242 3.00665,5.73129 -0.7458,2.97147 -1.70282,3.13423 -3.93381,0.66902 z"
             id="path2458"
             inkscape:connector-curvature="0" />
          <path
             sodipodi:nodetypes="csssssssssssssssssssscccsssssssssssssssssssssssssssssscccssssssssssssssssccsssssssssssssssssssssssssssssssssssssssssssssssssssscccsssssssssssssssssssssssssssssssssssssssssssssssssssssssssssssccssccsssccsssssssssssssssssssssssssssscccssssssccssccssccsssccsssccssccsssssssssccsssccssccssssccssccssccsssssssssssssssssssssssssssssccssssc"
             style="fill:#facb19"
             d="m 218.21205,731.81634 c -2.87562,-1.54251 -5.1265,-1.91044 -9.94807,-1.62613 -4.2607,0.25123 -7.98745,-0.22045 -11.78348,-1.49141 -3.05356,-1.02238 -7.62874,-1.86993 -10.16707,-1.88345 -3.07188,-0.0164 -5.46536,-0.69337 -7.15773,-2.02459 -1.39842,-1.1 -3.63937,-2 -4.97987,-2 -1.34051,0 -3.25177,-0.9 -4.24726,-2 -0.99549,-1.1 -2.42185,-2 -3.16969,-2 -0.74784,0 -2.24034,-1.44809 -3.31668,-3.21798 -1.44487,-2.3759 -3.07653,-3.48804 -6.2353,-4.25 -5.44586,-1.31365 -5.11808,-2.94335 0.67084,-3.33535 4.27017,-0.28917 4.5469,-0.14184 5.92384,3.15364 1.61462,3.86433 4.22538,5.11645 8.64442,4.14586 2.56056,-0.56239 3.10835,-0.29556 3.95278,1.92548 0.53916,1.41809 1.20728,2.57835 1.48472,2.57835 0.27743,0 1.466,-1.9125 2.64126,-4.25 2.3515,-4.67695 4.75395,-7.75 6.0588,-7.75 1.40788,0 0.95556,1.56652 -1.15499,4 -2.71571,3.13124 -3.00746,8.29472 -0.6089,10.77673 0.99831,1.03306 2.11186,0.88833 5.83437,-0.75832 3.60387,-1.59416 5.17514,-1.8166 7.25265,-1.02673 3.48297,1.32423 2.98222,1.49067 7.32834,-2.43579 l 3.81222,-3.44412 -0.0593,4.69412 c -0.0588,4.6479 -0.0249,4.69738 3.44066,5.02678 5.37255,0.51065 10.32138,-1.42921 16.51289,-6.47278 6.47931,-5.27801 7.56105,-4.97689 8.10249,2.25549 0.19584,2.61584 0.79342,5.19342 1.32796,5.72796 1.18653,1.18653 4.05666,-0.93411 4.05666,-2.99733 0,-0.77501 0.94617,-4.20741 2.10261,-7.62756 1.8102,-5.35368 1.93167,-6.69418 0.87347,-9.63935 -1.08886,-3.03049 -1.01497,-3.57761 0.64739,-4.79405 1.03209,-0.75524 3.19687,-1.24083 4.81061,-1.0791 2.23559,0.22405 3.10643,0.94383 3.65802,3.0235 0.39817,1.5012 1.44033,3.44584 2.31592,4.32143 0.96926,0.96926 1.59198,3.2979 1.59198,5.95316 0,3.45494 0.40775,4.4906 1.96223,4.98397 2.78465,0.88382 5.20818,-0.69798 10.42477,-6.80407 4.09566,-4.79401 16.83428,-13.68394 19.6081,-13.68394 0.62204,0 0.39126,1.28597 -0.56139,3.12818 -2.29436,4.43682 -4.63582,12.73579 -3.92001,13.89398 2.0562,3.32702 9.78296,-1.08816 14.72521,-8.41419 5.34448,-7.92227 12.31638,-14.8388 14.5338,-14.41837 1.01744,0.19291 1.85443,1.42406 2.03665,2.99577 0.5301,4.57218 2.53732,5.30978 7.24668,2.66298 4.91856,-2.76439 7.1593,-6.55072 7.8995,-13.34835 0.53962,-4.95558 0.58,-5.00501 4.54446,-5.56434 3.92077,-0.55316 12.84531,-5.34052 17.19912,-9.22608 4.5379,-4.04985 6.44217,0.0253 2.23852,4.79042 -0.97039,1.1 -1.91583,2.9 -2.10099,4 -0.54628,3.24541 3.31793,2.47112 5.64268,-1.13064 1.11137,-1.72185 4.17476,-4.64685 6.80753,-6.5 10.72502,-7.5491 10.97344,-7.84009 10.29817,-12.06298 -1.14974,-7.19005 2.38423,-11.0364 27.41497,-29.83828 3.575,-2.68536 8.75,-6.94616 11.5,-9.46843 l 5,-4.58596 -4,0.40292 c -2.2,0.2216 -7.825,2.07492 -12.5,4.11848 -4.675,2.04357 -10.21629,4.34687 -12.31397,5.11845 -3.75502,1.38118 -11.13373,5.55259 -21.42065,12.10975 -2.87903,1.83518 -5.46129,3.33669 -5.73834,3.33669 -0.27706,0 -4.48595,2.475 -9.35311,5.5 -4.86715,3.025 -9.4849,5.5044 -10.26165,5.50977 -0.77675,0.005 -3.88728,1.17101 -6.91228,2.5903 -9.12006,4.27903 -21.75212,8.57309 -24.19923,8.22613 -2.956,-0.4191 -2.8343,-2.00588 0.26755,-3.48849 1.33742,-0.63927 7.15668,-3.42962 12.93168,-6.2008 5.775,-2.77117 16.125,-7.68341 23,-10.91608 12.71973,-5.98089 19.5146,-10.57917 18.36987,-12.43139 -0.92417,-1.49534 -18.36322,-0.078 -33.62918,2.73319 -11.94024,2.19877 -14.47588,2.3169 -39.5,1.84022 -37.64062,-0.71701 -72.34403,-9.98498 -80.34751,-18.2703 -3.7296,-3.86094 -4.68605,-5.61317 -5.17935,-9.48861 -0.72547,-5.69949 -3.54741,-11.52874 -8.77551,-18.12743 -2.66266,-8.2239 -1.09985,-8.26633 1.43073,-10.73304 -0.0611,-1.18426 20.12681,2.49644 25.63095,1.02724 4.125,-1.10107 8.4,-2.07429 9.5,-2.16271 5.97842,-0.48056 14.76458,-3.26073 16.65111,-5.26885 3.81819,-4.06428 2.33883,-5.05741 -10.40111,-6.98256 -2.0625,-0.31166 -3.75,-0.8943 -3.75,-1.29474 0,-1.04739 11.94885,-7.06185 14.02968,-7.06185 0.96181,0 2.7702,-0.82712 4.01865,-1.83805 3.31037,-2.68057 1.69287,-4.5247 -3.37271,-3.84527 -4.35015,0.58348 -7.67562,-0.57657 -7.67562,-2.67755 0,-1.91119 4.60502,-5.8907 6.97043,-6.02363 1.13035,-0.0635 2.01991,-0.5655 1.9768,-1.1155 -0.0431,-0.55 -0.7741,-0.85624 -1.62441,-0.68053 -0.85032,0.1757 -2.50831,-0.55034 -3.68443,-1.61343 -1.17611,-1.0631 -2.97185,-2.37546 -3.99052,-2.91638 -1.61176,-0.85584 -1.12509,-1.39378 3.75,-4.14511 3.08117,-1.73891 5.60213,-3.80053 5.60213,-4.58138 0,-0.90503 -1.99395,-1.86596 -5.5,-2.65058 -3.025,-0.67697 -5.5,-1.41886 -5.5,-1.64864 0,-0.22979 1.35,-1.7678 3,-3.4178 1.65,-1.65 3,-3.58528 3,-4.30063 0,-2.19552 -3.15189,-4.04552 -6.89246,-4.04552 -4.6201,0 -5.73392,-3.12683 -1.42398,-3.99752 1.54904,-0.31294 5.63325,-1.95536 9.07602,-3.64982 6.16613,-3.03484 8.46703,-6.05895 6.73824,-8.85618 -0.37975,-0.61446 -0.11131,-2.51537 0.59653,-4.22426 1.17566,-2.83831 1.0975,-3.23288 -0.90368,-4.56161 -2.35579,-1.56419 -2.77473,-4.54422 -1.21542,-8.64551 0.74899,-1.96998 0.66139,-2.5651 -0.37756,-2.5651 -0.74404,0 -1.913,0.675 -2.59769,1.5 -1.59285,1.91926 -4,1.93968 -4,0.0339 0,-0.80634 0.62295,-2.94384 1.38433,-4.75 1.75492,-4.16305 3.61567,-12.05345 3.61567,-15.33201 0,-1.80818 0.96569,-3.08914 3.42091,-4.53775 2.74164,-1.61761 3.55937,-2.85193 4.11824,-6.21628 0.90255,-5.43318 2.96798,-9.40668 5.26926,-10.13708 1.00669,-0.31951 2.8251,-1.9264 4.04091,-3.57087 1.56705,-2.11955 3.05135,-2.98994 5.09883,-2.98994 4.82346,0 6.05185,-0.93044 6.05185,-4.58394 0,-2.51137 0.65161,-3.79691 2.55761,-5.04576 1.40668,-0.9217 3.48699,-3.51957 4.62292,-5.77305 2.68565,-5.32789 2.59689,-5.2659 4.3298,-3.02425 1.4437,1.86753 1.53373,1.87015 2.91735,0.0848 0.78523,-1.01323 1.72439,-3.59837 2.08702,-5.74476 0.7857,-4.65053 1.70781,-5.41228 4.47514,-3.69689 1.72364,1.06845 2.22475,1.03703 2.98633,-0.18722 0.76008,-1.22181 1.63643,-1.27857 5.17173,-0.33494 3.43908,0.91794 4.64458,0.86437 6.27685,-0.27891 2.89889,-2.03047 4.34167,-1.77013 7.18343,1.29618 2.07931,2.24361 2.6721,2.45921 3.43694,1.25 0.50834,-0.80367 0.93115,-2.84873 0.93957,-4.54456 0.0217,-4.36036 0.8674,-4.71892 4.30599,-1.82554 3.25513,2.73902 4.66358,2.05831 4.69401,-2.26865 0.009,-1.22979 1.35214,-3.22375 3.08682,-4.58134 l 3.07152,-2.40383 -5.94656,-2.66865 c -3.89863,-1.7496 -7.67869,-2.66866 -10.97614,-2.66866 -9.61606,0 -31.73264,2.9841 -36.98106,4.9897 -2.8934,1.10566 -6.4934,2.02461 -8,2.0421 -1.5066,0.0175 -3.61278,0.6925 -4.6804,1.5 -1.06762,0.80751 -3.58538,1.4682 -5.59501,1.4682 -2.30244,0 -4.28137,0.69336 -5.3504,1.87463 -0.9837,1.08698 -3.59596,2.08872 -6.21725,2.38418 -2.6334,0.29682 -5.44597,1.37876 -6.73695,2.59157 -1.21891,1.14511 -4.16664,2.77017 -6.55052,3.61125 -2.38387,0.84108 -5.87421,2.88129 -7.75632,4.5338 -1.88211,1.65252 -4.04869,3.00457 -4.81464,3.00457 -0.76594,0 -2.21278,1.01477 -3.2152,2.25505 -1.00242,1.24028 -3.17258,3.10599 -4.82258,4.14604 -1.65,1.04004 -4.27026,3.40027 -5.8228,5.24495 -1.55255,1.84468 -3.46505,3.35396 -4.25,3.35396 -0.78496,0 -1.4272,0.41227 -1.4272,0.91615 0,0.50388 -1.83582,2.86638 -4.07959,5.25 -2.24378,2.38362 -5.42152,5.84361 -7.06166,7.68886 -5.36937,6.04091 -4.1084,2.53583 2.019,-5.61211 6.38035,-8.48431 19.57208,-21.87479 23.66038,-24.01687 1.35403,-0.70945 2.46187,-1.65061 2.46187,-2.09148 0,-1.0436 13.9365,-10.05401 21,-13.5772 11.88641,-5.9288 34.45185,-12.18419 54.18652,-15.02112 15.04579,-2.16289 27.20124,-1.974 38.13341,0.59257 10.88754,2.55609 18.40351,2.18724 30.18007,-1.4811 18.06721,-5.62785 72.15986,-8.92188 96.62293,-5.88397 5.87009,0.72897 12.49991,2.34176 17,4.13546 4.05739,1.61724 9.02861,3.24486 11.04715,3.61692 2.01854,0.37207 6.51854,2.42537 10,4.5629 3.48146,2.13752 8.22907,4.80934 10.55025,5.93737 2.32118,1.12803 5.47118,3.4099 7,5.07083 1.52882,1.66093 3.66962,3.78328 4.75734,4.71633 9.18723,7.88085 19.16348,20.26993 20.88513,25.93635 0.79545,2.61806 2.57077,7.23511 3.94515,10.26011 3.15268,6.93905 5.19684,23.17376 4.26415,33.8659 -0.74669,8.55985 -1.83518,13.93499 -6.43815,31.79245 -1.72367,6.68709 -3.13395,12.87103 -3.13395,13.74208 0,3.58411 -11.6493,28.66411 -16.88237,36.34637 -3.0897,4.53574 -7.07971,10.61074 -8.86669,13.5 -1.78699,2.88926 -4.95674,7.2782 -7.0439,9.7532 -4.95546,5.87631 -8.24046,10.53156 -10.70704,15.17319 -1.1,2.06999 -9.00767,11.09034 -17.57261,20.04522 -8.56493,8.95487 -21.04501,22.13159 -27.73351,29.28159 -18.91588,20.22107 -20.39112,21.49766 -24.86179,21.51407 -4.17612,0.0153 -13.018,4.40965 -25.70884,12.77703 -4.03365,2.65948 -9.9865,5.81121 -13.22857,7.00384 -6.46387,2.37781 -12.83843,7.6063 -11.98501,9.83025 0.55318,1.44158 -7.62733,7.31848 -10.23911,7.35581 -1.95628,0.028 -13.38901,4.70048 -23.65999,9.66976 -4.94419,2.39208 -9.98013,4.34924 -11.19098,4.34924 -1.21086,0 -2.47967,0.45 -2.81959,1 -0.33992,0.55 -1.60398,1.00581 -2.80902,1.0129 -2.83462,0.0167 -14.00304,3.51891 -16.92739,5.30812 -2.18253,1.33535 -5.848,2.22254 -19.76359,4.78356 -3.575,0.65794 -8.94129,2.09038 -11.9251,3.1832 -3.98251,1.45859 -8.39953,2.04939 -16.61094,2.22178 -8.49847,0.17841 -12.83097,0.78229 -18.03344,2.51356 -5.57697,1.8559 -7.53513,2.09523 -10.55278,1.28977 -2.48468,-0.6632 -4.30776,-0.65174 -5.53451,0.0348 -1.00613,0.56306 -4.53246,1.08612 -7.83628,1.16235 -3.30382,0.0762 -6.68195,0.44698 -7.50695,0.82388 -0.825,0.3769 -3.17244,-0.21184 -5.21652,-1.30832 z m 228.71652,-83.52221 c 4.82643,-2.02235 10.79369,-9.58579 8.62183,-10.92808 -1.38568,-0.85639 -16.12183,10.49284 -16.12183,12.41643 0,1.2009 2.05549,0.79299 7.5,-1.48835 z m -33.5,-0.50337 c 0,-0.55 -0.19844,-1 -0.44098,-1 -0.24254,0 -0.7191,0.45 -1.05902,1 -0.33992,0.55 -0.14148,1 0.44098,1 0.58246,0 1.05902,-0.45 1.05902,-1 z m 26.9654,-214.60283 c 3.18256,-1.27341 4.65607,-1.37617 7.16946,-0.5 4.92856,1.7181 8.18328,1.32069 11.92086,-1.45557 3.28588,-2.44075 3.97316,-2.54656 14.94428,-2.30087 9.30376,0.20835 12.90495,-0.14865 18.85661,-1.86931 4.04613,-1.16976 7.94847,-1.89971 8.67186,-1.62212 2.51362,0.96457 5.47153,-1.56786 5.47153,-4.68448 0,-1.63065 0.38248,-2.96482 0.84996,-2.96482 0.46748,0 2.78462,1.4625 5.1492,3.25 7.35707,5.56157 6.99135,5.42054 8.5641,3.30246 1.73887,-2.34181 1.16484,-4.58746 -2.67732,-10.4739 -1.58727,-2.4318 -2.88594,-4.79962 -2.88594,-5.26182 0,-1.02606 8.05051,0.10352 9.64241,1.35294 0.62833,0.49315 1.68923,2.21675 2.35755,3.83022 0.66832,1.61348 2.10998,3.21761 3.20369,3.56474 1.15146,0.36545 2.84108,2.68255 4.01377,5.50437 2.43289,5.85419 5.2833,7.2658 7.97051,3.94724 0.99664,-1.2308 1.81207,-3.131 1.81207,-4.22266 0,-2.89377 -3.69051,-7.60942 -6.24265,-7.97672 -1.71628,-0.24701 -2.3901,-1.27382 -3.05628,-4.65743 -0.66693,-3.38741 -1.53285,-4.70497 -3.94333,-6 -1.6988,-0.91269 -6.50176,-4.5846 -10.67324,-8.15979 -4.17147,-3.57519 -8.32419,-7.07811 -9.22825,-7.78426 -1.85929,-1.45227 -14.75816,-5.21539 -17.87684,-5.21539 -1.12524,0 -4.26598,-1.125 -6.97941,-2.5 -2.71343,-1.375 -6.18597,-2.50487 -7.71676,-2.51082 -1.53078,-0.006 -4.91744,-0.65844 -7.5259,-1.44996 -5.48139,-1.6633 -39.45458,-1.52359 -43.75734,0.17995 -1.375,0.54439 -5.24205,0.78129 -8.59344,0.52645 -5.20075,-0.39547 -7.09303,-0.023 -12.9165,2.54268 l -6.82307,3.00603 -3.82621,-1.99434 c -3.46716,-1.80719 -4.22149,-1.86791 -8.0384,-0.64716 -4.39658,1.40615 -8.52987,6.50897 -7.48269,9.23788 0.287,0.74792 4.16065,3.9242 8.60812,7.05841 7.89479,5.56362 21.55421,18.5659 29.57219,28.14953 5.88657,7.03602 8.21376,8.83332 12.31312,9.50945 2.02778,0.33445 4.01527,0.67195 4.41664,0.75 0.40137,0.078 2.53241,-0.57937 4.73564,-1.46093 z M 233.09524,706.12409 c -1.3271,-1.3271 -0.62492,-3.33333 1.16666,-3.33333 2.54019,0 3.35667,1.06614 2.03555,2.65799 -1.23051,1.48267 -2.19209,1.68547 -3.20221,0.67534 z m -89.16667,-7.94382 c -1.95876,-1.51499 -1.95006,-1.54011 0.42167,-1.2182 1.33192,0.18078 2.60692,0.89119 2.83334,1.57869 0.55267,1.67817 -0.81502,1.5267 -3.25501,-0.36049 z m 128.6875,-0.45201 c 0.24062,-0.72188 1.02812,-1.50937 1.75,-1.75 0.75,-0.25 1.125,0.125 0.875,0.875 -0.24062,0.72188 -1.02812,1.50937 -1.75,1.75 -0.75,0.25 -1.125,-0.125 -0.875,-0.875 z M 131.5701,685.64577 c -1.18626,-1.8995 -1.14721,-2.07117 0.34124,-1.5 0.92444,0.35475 1.869,0.64499 2.09902,0.64499 0.23001,0 0.41821,0.675 0.41821,1.5 0,2.14462 -1.29945,1.85141 -2.85847,-0.64499 z m -17.06258,-36.43834 c 0.048,-1.16495 0.28494,-1.4019 0.60416,-0.60417 0.28888,0.72188 0.25335,1.58438 -0.0789,1.91667 -0.33229,0.33229 -0.56864,-0.25834 -0.52522,-1.3125 z m 15.94019,-28.61717 c -1.75608,-2.8803 -2.01214,-5.03725 -2.0154,-16.97714 -0.005,-18.02818 1.33346,-26.87373 6.07907,-40.17719 3.92916,-11.01468 5.3903,-13.97542 8.36497,-16.9501 2.59141,-2.5914 8.31138,-10.32866 9.88409,-13.36995 1.71779,-3.32183 5.66813,-7.1474 5.66813,-5.4891 0,0.6303 -2.15239,5.31255 -4.78308,10.40499 -6.42988,12.44683 -11.74468,25.5686 -15.38492,37.98403 -2.71087,9.24569 -3.06798,12.10604 -3.56493,28.55407 -0.30374,10.05352 -0.93117,18.51329 -1.39427,18.7995 -0.46309,0.28621 -1.74724,-0.96439 -2.85366,-2.77911 z m -21.01914,-8.7995 c 0,-0.55 0.45,-1 1,-1 0.55,0 1,0.45 1,1 0,0.55 -0.45,1 -1,1 -0.55,0 -1,-0.45 -1,-1 z m 81.18329,-15 c -1.05238,-2.70014 -1.9103,-12.54774 -1.24476,-14.28792 0.84134,-2.19983 0.8497,-2.198 1.50987,0.32959 0.56022,2.14493 0.30793,15.42858 -0.26511,13.95833 z m -8.18329,-10.14967 c 0,-8.86276 1.54499,-19.71142 3.02556,-21.24497 1.61401,-1.67178 2.27049,4.61487 1.07355,10.28067 -0.65229,3.08768 -1.6069,8.49193 -2.12135,12.00944 -0.51445,3.5175 -1.1699,6.63 -1.45656,6.91666 -0.28666,0.28666 -0.5212,-3.29615 -0.5212,-7.9618 z m -68.94239,-6.91883 c -0.11034,-3.00412 2.96022,-11.70134 4.61142,-13.06167 1.49084,-1.22823 1.59703,-1.10595 1.0273,1.18292 -0.98962,3.97572 -5.57426,13.6339 -5.63872,11.87875 z m 32.02134,-0.51483 c 0.048,-1.16495 0.28494,-1.4019 0.60416,-0.60417 0.28888,0.72188 0.25335,1.58437 -0.0789,1.91667 -0.3323,0.33229 -0.56864,-0.25834 -0.52522,-1.3125 z m -20.50385,-11.18006 c -0.32621,-1.02778 -0.14173,-4.24878 0.40995,-7.15777 0.55168,-2.90899 0.74067,-5.71362 0.41997,-6.23252 -0.83638,-1.35329 -3.30103,0.95554 -4.89466,4.58522 -0.74096,1.68765 -1.38141,2.39346 -1.42321,1.56846 -0.17683,-3.49021 2.30103,-9.44058 6.46238,-15.51885 2.44776,-3.57532 4.45047,-7.1339 4.45047,-7.90796 0,-3.29541 4.24403,-10.86985 8.44346,-15.06928 2.49061,-2.49061 5.399,-6.21037 6.4631,-8.26614 1.0641,-2.05577 4.48182,-6.21277 7.59495,-9.23777 3.11312,-3.025 7.58162,-8.44764 9.93001,-12.05031 2.34838,-3.60267 6.4351,-8.32767 9.0816,-10.5 2.64651,-2.17233 7.20696,-6.42469 10.13434,-9.44969 2.92738,-3.025 5.32927,-4.88127 5.33753,-4.12505 0.0351,3.21412 -5.57814,13.85447 -8.80703,16.69448 -3.161,2.78029 -3.43908,3.44708 -2.95202,7.07841 0.73661,5.49182 -1.24351,9.62688 -6.40273,13.37077 -5.42491,3.9367 -5.9447,2.58566 -2.3192,-6.02813 4.28398,-10.1783 1.46816,-9.23023 -6.01428,2.02497 -4.62203,6.95252 -5.32877,9.66817 -3.34344,12.84719 1.6003,2.56248 0.49897,6.00469 -3.66671,11.46031 -5.7381,7.51497 -6.29393,6.56022 -3.88574,-6.67465 0.62118,-3.41387 0.48825,-3.81076 -1.16944,-3.49152 -2.05179,0.39514 -5.43013,5.80052 -7.4495,11.91928 -1.13259,3.43177 -1.07279,4.32698 0.4819,7.21386 1.73623,3.22398 1.72334,3.40291 -0.59093,8.20264 -3.66089,7.59259 -5.05273,7.1315 -4.77018,-1.58029 0.29624,-9.13366 -1.22963,-10.05432 -4.5587,-2.75057 -4.06774,8.92432 -4.63819,13.1791 -2.34149,17.46425 1.89881,3.54276 1.90738,3.81949 0.2334,7.53172 -2.28484,5.06687 -4.06535,6.56314 -4.8538,4.07894 z m 40.4249,-29.07684 c 0,-2.59113 4.77666,-10.90036 9.46176,-16.45918 4.4738,-5.30811 7.07306,-6.43534 3.3449,-1.45059 -1.33689,1.7875 -4.60447,6.9625 -7.26129,11.5 -2.65681,4.5375 -4.9914,8.25 -5.18797,8.25 -0.19657,0 -0.3574,-0.8281 -0.3574,-1.84023 z"
             id="path2456"
             inkscape:connector-curvature="0" />
          <path
             sodipodi:nodetypes="cssssssssscccsssssssscccsssssssssssssssssssssssssssssssssscccssssssssssssssccsssssssscccssssssssssssssssssssssssssssssssssssssssssssssssssssssssssssssssssssssssssssssssssssssssccssssssccssssccssssssccssccsssccssssssssssssssssssssccsssscccsssssssssssssssssscccscccccsccccssccssccssssssssssssssssccssccsssssssssssssssssssssssssssssssccssssssccssccsssccssccsssccssccssssccsssccccsssssssssssssccsssccssssccsscccsssc"
             style="fill:#eea903"
             d="m 217.96003,731.68127 c -3.22316,-1.72885 -5.0739,-2.02842 -9.85371,-1.59501 -4.26989,0.38718 -7.43488,0.0149 -11.53146,-1.35634 -3.10546,-1.03949 -7.7231,-1.90105 -10.26143,-1.91457 -3.07188,-0.0164 -5.46536,-0.69337 -7.15773,-2.02459 -1.39842,-1.1 -3.63937,-2 -4.97987,-2 -1.34051,0 -3.25177,-0.9 -4.24726,-2 -0.99549,-1.1 -2.43041,-2 -3.18871,-2 -0.75831,0 -2.30801,-1.575 -3.44379,-3.5 -1.16789,-1.97942 -2.86276,-3.5 -3.90118,-3.5 -1.00986,0 -3.10292,-0.52816 -4.65122,-1.17369 l -2.8151,-1.17369 3.5,-0.6127 c 5.0258,-0.8798 6.67453,-0.23989 8.07153,3.13276 1.75776,4.24361 4.97719,6.1395 8.28802,4.88072 2.27449,-0.86476 2.85055,-0.66238 4.26674,1.499 1.18641,1.81068 2.18655,2.32439 3.63212,1.86558 1.44264,-0.45787 2.60769,0.13538 4.20852,2.14301 2.1349,2.67741 2.29837,2.71681 4.59586,1.10758 2.68552,-1.88101 8.46992,-2.23368 9.49271,-0.57876 0.39204,0.63432 1.99402,0.84208 3.83299,0.49709 2.36544,-0.44376 4.03303,0.008 6.63548,1.79945 l 3.47603,2.39217 6.06692,-2.27553 c 3.3368,-1.25155 7.93137,-3.22671 10.21016,-4.38926 5.52879,-2.82058 6.22292,-2.68826 6.22292,1.18627 0,3.81679 1.50161,5.7 4.54501,5.7 2.83033,0 5.45499,-3.01374 5.45499,-6.26364 0,-6.30778 5.38707,-11.70045 10.17138,-10.18196 1.81384,0.57568 1.99654,1.20387 1.46916,5.05152 -0.57474,4.19316 -0.48657,4.39408 1.92825,4.39408 3.56887,0 7.39404,-2.19203 14.11069,-8.08619 4.99905,-4.38688 11.99765,-8.91381 13.78068,-8.91381 1.09462,0 0.4921,4.03226 -1.10203,7.37518 -1.85294,3.88566 -1.28819,6.63068 1.36049,6.61277 3.25319,-0.022 10.71688,-5.08133 15.63729,-10.5999 2.67076,-2.99543 6.23787,-6.16087 7.92693,-7.03431 2.9833,-1.54273 3.12547,-1.51333 4.97749,1.02909 1.04857,1.43944 2.4668,2.61717 3.15163,2.61717 2.75367,0 10.66086,-6.4106 14.68222,-11.90332 4.02661,-5.49988 11.28546,-11.09668 14.39201,-11.09668 0.77257,0 1.99595,1.2375 2.71861,2.75 2.23617,4.6802 5.09291,4.08211 12.05763,-2.52443 3.43066,-3.25423 8.22971,-7.08164 10.66454,-8.50534 4.13302,-2.41668 4.61774,-2.48991 7.29998,-1.10287 1.58015,0.81713 3.74812,1.20794 4.8177,0.86847 1.06958,-0.33947 5.87046,-4.41266 10.66861,-9.05153 4.79816,-4.63886 9.27126,-8.4343 9.94023,-8.4343 0.66897,0 2.40828,0.45319 3.86513,1.00708 3.37872,1.28459 7.09339,-0.76067 10.52709,-5.79609 1.34986,-1.97953 4.47929,-5.56519 6.95429,-7.96813 4.04294,-3.92524 4.86731,-4.31277 8.1163,-3.81549 5.79014,0.88623 9.30848,-2.28522 15.40565,-13.88672 2.87877,-5.47764 5.72742,-10.12377 6.33033,-10.32474 0.60291,-0.20097 2.10792,0.34323 3.34447,1.20934 3.54079,2.48007 5.56393,1.8878 8.79698,-2.57529 5.55784,-7.67238 2.8658,-11.85959 -5.03376,-7.82954 -2.28458,1.16551 -4.44767,1.82478 -4.80688,1.46504 -0.3592,-0.35973 -0.65309,-2.52862 -0.65309,-4.81976 l 0,-4.1657 -4.69783,-0.30266 c -2.98707,-0.19244 -5.89118,0.31445 -7.97486,1.39196 -1.80237,0.93204 -7.33835,2.70392 -12.30217,3.9375 -4.96383,1.23358 -13.07514,4.21563 -18.02514,6.62679 -15.22996,7.41855 -25.43777,10.84641 -32.29948,10.84641 -3.35445,0 -10.73434,0.86818 -16.39976,1.92929 -5.66542,1.06111 -12.77576,2.23092 -15.80076,2.59958 -3.025,0.36865 -8.2,1.29382 -11.5,2.05592 -3.3,0.76211 -8.925,1.4119 -12.5,1.44398 -3.575,0.0321 -8.525,0.47282 -11,0.97942 -2.475,0.50661 -13.38432,1.41859 -24.24294,2.02664 -16.88613,0.94557 -21.17404,0.87802 -29.63312,-0.46683 -10.36869,-1.64846 -39.73054,-11.69965 -41.71946,-14.09615 -0.65247,-0.78618 -2.28085,-4.64749 -3.61861,-8.58069 -1.33777,-3.9332 -3.25933,-8.37846 -4.27013,-9.87836 -1.01079,-1.4999 -2.47133,-3.9855 -3.24563,-5.52356 -3.04599,-2.7292 -8.1386,-9.96171 -2.66297,-12.80373 4.28571,-1.52532 20.50748,-0.24349 32.39286,-1.63647 10.85699,-1.27246 11.85574,-1.50687 18,-4.22463 9.3535,-4.13729 11.5,-5.63442 11.5,-8.02097 0,-1.91138 -0.59573,-2.35211 -3.5,-2.58936 -3.95338,-0.32296 -9,-2.09739 -9,-3.16446 0,-0.38926 2.3625,-1.74313 5.25,-3.00861 2.8875,-1.26547 8.56443,-3.92989 12.6154,-5.92093 10.79763,-5.30701 13.22095,-9.85541 4.55874,-8.55643 -2.41919,0.36278 -5.55093,0.37036 -6.95943,0.0168 l -2.56091,-0.64275 2.0481,-2.60373 c 3.21217,-4.08361 2.71945,-6.33402 -1.3868,-6.33402 -1.8892,0 -4.7017,-0.48173 -6.25,-1.07051 -2.79351,-1.0623 -2.75506,-1.10185 5.01522,-5.15776 12.34425,-6.44344 14.0024,-11.49675 3.31897,-10.11481 -4.36747,0.56495 -4.81492,0.44165 -4.49151,-1.23767 0.19755,-1.02583 2.11532,-2.85021 4.26171,-4.05419 2.14638,-1.20399 4.29599,-2.89216 4.7769,-3.7515 0.74531,-1.3318 0.0942,-1.55609 -4.411,-1.51942 -10.66973,0.0869 -14.78531,-0.15419 -14.78208,-0.86578 0.003,-0.69378 18.00316,-9.22836 19.46325,-9.22836 0.93008,0 13.76271,-5.45498 20.03344,-8.51595 2.75,-1.34237 7.025,-3.37695 9.5,-4.52127 8.72276,-4.03301 12.1815,-6.23733 16.98826,-10.82692 2.67037,-2.54972 6.25307,-5.69305 7.96155,-6.98517 3.09816,-2.34312 6.4715,-8.60086 5.71293,-10.59782 -0.65873,-1.73414 1.16992,-5.55287 2.65906,-5.55287 2.72957,0 15.48069,-20.93293 18.15119,-29.79799 0.72353,-2.40184 -1.03271,-5.59215 -2.55912,-4.64878 -0.47274,0.29217 -1.33809,2.30849 -1.92301,4.48071 -0.58492,2.17223 -3.18465,6.56038 -5.77717,9.75145 -2.59253,3.19108 -5.21192,6.6823 -5.82087,7.75828 -0.60895,1.07598 -1.95895,2.10707 -3,2.2913 -1.04105,0.18424 -3.2806,1.94967 -4.97677,3.92318 -1.93647,2.25311 -3.34003,3.17388 -3.77217,2.47465 -0.37853,-0.61247 0.15833,-1.9279 1.193,-2.92319 1.03468,-0.99528 2.16533,-2.99571 2.51256,-4.4454 0.34723,-1.44968 1.75288,-3.69968 3.12367,-5 1.37079,-1.30031 2.50011,-2.88921 2.50961,-3.53088 0.01,-0.64166 0.54185,-1.34152 1.183,-1.55523 0.64114,-0.21372 2.01442,-2.83872 3.05174,-5.83334 3.36528,-9.7152 3.31853,-9.31819 1.02672,-8.71887 -2.75504,0.72046 -3.6342,-2.57099 -1.69063,-6.32945 0.79555,-1.53841 1.44645,-4.42908 1.44645,-6.4237 0,-4.03679 4.38621,-9.4605 7.67308,-9.48805 1.0048,-0.008 2.50192,-0.44561 3.32692,-0.97154 4.03882,-2.57467 -6.99811,-9.20011 -18.60074,-11.16596 -9.49745,-1.60918 -29.77876,0.36663 -45.39926,4.42279 -6.325,1.64241 -13.37608,3.35816 -15.66906,3.81278 -2.29298,0.45462 -5.88631,1.74699 -7.98519,2.87192 -2.09887,1.12492 -4.73084,2.04532 -5.84881,2.04532 -1.11797,0 -3.59963,1.05807 -5.51481,2.35126 -1.91517,1.29319 -5.11522,2.88513 -7.11121,3.53764 -1.996,0.65252 -4.46993,2.11552 -5.49764,3.25112 -1.02771,1.13561 -3.21962,2.75765 -4.87092,3.60454 -4.6563,2.38805 -20.39502,16.42605 -26.49056,23.628 -3.01851,3.56641 -5.64603,6.32654 -5.83895,6.13362 -1.45577,-1.45576 19.88711,-24.40985 25.36528,-27.28015 1.35403,-0.70945 2.46187,-1.65061 2.46187,-2.09148 0,-1.0436 13.9365,-10.05401 21,-13.5772 11.88641,-5.9288 34.45185,-12.18419 54.18652,-15.02112 15.04579,-2.16289 27.20124,-1.974 38.13341,0.59257 10.88754,2.55609 18.40351,2.18724 30.18007,-1.4811 18.06721,-5.62785 72.15986,-8.92188 96.62293,-5.88397 5.87009,0.72897 12.49991,2.34176 17,4.13546 4.05739,1.61724 9.02861,3.24486 11.04715,3.61692 2.01854,0.37207 6.51854,2.42537 10,4.5629 3.48146,2.13752 8.22907,4.80934 10.55025,5.93737 2.32118,1.12803 5.47118,3.4099 7,5.07083 1.52882,1.66093 3.66962,3.78328 4.75734,4.71633 9.18723,7.88085 19.16348,20.26993 20.88513,25.93635 0.79545,2.61806 2.57077,7.23511 3.94515,10.26011 3.15268,6.93905 5.19684,23.17376 4.26415,33.8659 -0.74669,8.55985 -1.83518,13.93499 -6.43815,31.79245 -1.72367,6.68709 -3.13395,12.87103 -3.13395,13.74208 0,3.58411 -11.6493,28.66411 -16.88237,36.34637 -3.0897,4.53574 -7.07971,10.61074 -8.86669,13.5 -1.78699,2.88926 -4.95674,7.2782 -7.0439,9.7532 -4.95546,5.87631 -8.24046,10.53156 -10.70704,15.17319 -1.1,2.06999 -9.00767,11.09034 -17.57261,20.04522 -8.56493,8.95487 -21.04501,22.13159 -27.73351,29.28159 -18.91588,20.22107 -20.39112,21.49766 -24.86179,21.51407 -4.17612,0.0153 -13.018,4.40965 -25.70884,12.77703 -4.03365,2.65948 -9.9865,5.81121 -13.22857,7.00384 -6.46387,2.37781 -12.83843,7.6063 -11.98501,9.83025 0.55318,1.44158 -7.62733,7.31848 -10.23911,7.35581 -1.95628,0.028 -13.38901,4.70048 -23.65999,9.66976 -4.94419,2.39208 -9.98013,4.34924 -11.19098,4.34924 -1.21086,0 -2.47967,0.45 -2.81959,1 -0.33992,0.55 -1.60398,1.00581 -2.80902,1.0129 -2.83462,0.0167 -14.00304,3.51891 -16.92739,5.30812 -2.18253,1.33535 -5.848,2.22254 -19.76359,4.78356 -3.575,0.65794 -8.94129,2.09038 -11.9251,3.1832 -3.98251,1.45859 -8.39953,2.04939 -16.61094,2.22178 -8.49847,0.17841 -12.83097,0.78229 -18.03344,2.51356 -5.78419,1.92486 -7.47012,2.11258 -10.85614,1.2088 -2.90321,-0.77491 -4.56909,-0.76084 -6.04145,0.051 -1.11811,0.61655 -4.50793,1.17156 -7.53293,1.23337 -3.025,0.0618 -6.175,0.42524 -7,0.80761 -0.8404,0.38952 -3.2451,-0.24081 -5.46854,-1.43343 z m 225.72389,-81.15655 c 5.70076,-2.76832 8.5487,-4.86123 10.75,-7.90004 3.58186,-4.94462 3.74337,-6.62139 0.74465,-7.73072 -2.34221,-0.86647 -8.75,1.43335 -8.75,3.14045 0,0.48027 -2.0737,2.75942 -4.60821,5.06478 -5.67257,5.15969 -8.73023,9.33495 -7.86338,10.73753 0.36018,0.58279 0.95113,0.92336 1.31323,0.75683 0.3621,-0.16654 4.14827,-1.99751 8.41371,-4.06883 z M 343.17857,514.8472 c 2.33649,-1.94918 2.98585,-4.05644 1.25,-4.05644 -0.55,0 -1,0.71713 -1,1.59362 0,0.87649 -0.9,1.82897 -2,2.11663 -1.1,0.28766 -2,0.92053 -2,1.40638 0,1.36166 1.28105,0.99949 3.75,-1.06019 z m -5.93237,-7.55644 c 1.65969,-1.39654 4.23859,-2.5 5.84275,-2.5 2.33824,0 3.47239,-0.91762 6.10564,-4.93995 1.77869,-2.71698 3.23398,-5.41698 3.23398,-6 0,-1.49655 -1.54282,-1.31584 -2.91857,0.34184 -0.63991,0.77103 -2.15904,1.65176 -3.37585,1.95716 -2.2334,0.56054 -14.71762,11.50111 -14.7098,12.89095 0.009,1.54846 2.95401,0.66313 5.82185,-1.75 z m 20.50141,-3.39425 c 0.96535,-1.15504 0.73771,-1.26342 -1.32688,-0.63172 -2.80771,0.85908 -5.99216,3.37675 -5.99216,4.73749 0,1.06678 5.64047,-2.09736 7.31904,-4.10577 z m 8.49346,-6.04325 c 0.25,-0.75 -0.125,-1.125 -0.875,-0.875 -0.72188,0.24062 -1.50937,1.02812 -1.75,1.75 -0.25,0.75 0.125,1.125 0.875,0.875 0.72188,-0.24062 1.50937,-1.02812 1.75,-1.75 z m -36.1276,-3.22871 c 1.54831,-0.64141 3.12054,-1.20391 3.49386,-1.25 0.37332,-0.0461 1.49832,-0.8609 2.5,-1.8107 5.56972,-5.28126 7.11549,-6.45957 10.07124,-7.67705 1.7875,-0.73627 3.25,-1.79345 3.25,-2.34928 0,-0.55583 1.54096,-2.46392 3.42436,-4.24019 1.8834,-1.77628 3.51172,-3.85441 3.61848,-4.61808 0.40875,-2.92362 -0.1128,-3.88849 -2.10186,-3.88849 -1.13246,0 -1.82187,-0.38371 -1.53203,-0.85268 0.28984,-0.46897 -0.0211,-1.58596 -0.69098,-2.48219 -1.05363,-1.40964 -1.69024,-1.45924 -4.71797,-0.3676 -5.79759,2.09031 -8,3.66989 -8,5.73765 0,2.07999 1.46206,2.64424 2.5,0.96482 0.33992,-0.55 2.63231,-1 5.0942,-1 4.21474,0 4.41155,0.12073 3.36988,2.06712 -0.60846,1.13691 -3.2051,3.39814 -5.77031,5.02495 -2.56522,1.62681 -5.26256,4.10018 -5.9941,5.49637 -0.74249,1.41709 -3.31751,3.39045 -5.82889,4.46695 -2.47435,1.06063 -4.24997,2.33107 -3.94581,2.82321 0.30415,0.49213 -0.11704,1.45087 -0.93598,2.13054 -1.38883,1.15263 -2.03669,2.99086 -1.05409,2.99086 0.2392,0 1.7017,-0.52479 3.25,-1.16621 z m 50.51156,-9.06077 c 4.72637,-4.69455 8.92073,-9.56691 9.32082,-10.82747 0.40009,-1.26056 1.13071,-2.77649 1.62361,-3.36874 3.89436,-4.67928 4.86858,-5.95887 4.93342,-6.47982 0.42447,-3.41013 1.2018,-5.75201 2.33829,-7.04465 0.75065,-0.85379 1.68611,-3.06248 2.07882,-4.90821 l 0.714,-3.35588 -3.10271,2.29394 c -1.70649,1.26166 -3.10271,3.00909 -3.10271,3.88318 0,0.8741 -1.2375,2.75524 -2.75,4.18031 -1.5125,1.42508 -3.4919,3.66279 -4.39867,4.97269 -0.90676,1.3099 -1.9915,2.04689 -2.41053,1.63776 -0.41903,-0.40913 -0.0146,-1.56956 0.89866,-2.57874 0.9133,-1.00918 1.66054,-2.69961 1.66054,-3.7565 0,-3.27047 2.74512,-14.64586 4.92459,-20.40677 2.20618,-5.83155 2.74857,-12.01412 1.05397,-12.01412 -0.56179,0 -1.51978,1.2375 -2.12887,2.75 -1.86788,4.63839 -6.89156,15.49768 -9.43614,20.39738 -1.32745,2.55606 -2.41355,6.26856 -2.41355,8.25 0,2.58382 -0.43735,3.60262 -1.54651,3.60262 -0.85058,0 -2.31308,1.34715 -3.25,2.99368 -0.93692,1.64652 -2.27713,2.99652 -2.97824,3 -0.70111,0.003 -1.72627,1.1939 -2.27812,2.64538 -0.55186,1.45149 -2.11572,3.96102 -3.47525,5.57673 -2.64901,3.14817 -3.33165,7.78421 -1.14619,7.78421 0.72912,0 2.38256,-1.125 3.67431,-2.5 1.46682,-1.56136 3.44663,-2.5 5.27309,-2.5 l 2.92446,0 -2.09877,3.55716 c -1.15433,1.95644 -2.09878,4.13457 -2.09878,4.84029 0,0.70572 -1.6875,2.4841 -3.75,3.95196 l -3.75,2.66884 3.05153,-0.35484 c 2.25214,-0.26189 5.30272,-2.59087 11.64493,-8.89039 z m -2.73204,-11.11101 c -0.87432,-4.6605 1.57424,-8.93938 4.84878,-8.47328 3.46097,0.49264 3.17312,3.90133 -0.69679,8.25122 l -3.46334,3.8929 -0.68865,-3.67084 z m -19.6411,16.00512 c 0.19138,-0.98676 -0.31876,-1.66713 -1.25,-1.66713 -0.92763,0 -1.57332,0.855 -1.57332,2.08333 0,2.43705 2.33677,2.09257 2.82332,-0.4162 z m -23.40511,-12.27412 c 0.86999,-0.33384 1.58179,-1.51373 1.58179,-2.62197 0,-1.85069 -0.17899,-1.89614 -2.19519,-0.55743 -3.87307,2.57162 -3.45463,4.74045 0.6134,3.1794 z m 27.31594,-10.14301 c 1.39655,-3.64023 6.46605,-10.25 7.86145,-10.25 1.44138,0 3.32936,-3.65118 3.87815,-7.5 0.44216,-3.10095 2.27903,-7.22918 3.57229,-8.02846 0.80806,-0.49941 0.44087,-1.37918 -1.18831,-2.84714 -1.29675,-1.16842 -2.40273,-2.6869 -2.45773,-3.3744 -0.49335,-6.16687 -0.36486,-5.88008 -1.79205,-4 -2.13831,2.81688 -2.90942,2.03674 -2.22394,-2.25 0.39218,-2.45258 0.2482,-4 -0.37219,-4 -0.5565,0 -1.01182,1.28931 -1.01182,2.86514 0,1.57583 -0.7875,3.94152 -1.75,5.2571 -3.02063,4.1287 -4.25,6.77305 -4.25,9.14168 0,3.14229 -2.7092,6.7849 -4.52737,6.08721 -1.47197,-0.56486 -2.01999,1.79587 -1.71755,7.39887 0.0684,1.26741 -0.45993,2.25 -1.20983,2.25 -1.94975,0 -2.78383,2.97122 -1.02368,3.64665 0.81832,0.31402 2.212,2.09698 3.09708,3.96215 1.74748,3.68254 4.04906,4.42095 5.1155,1.6412 z M 403.979,444.30304 c 0.37014,-2.46824 0.41183,-5.16824 0.0927,-6 -1.19821,-3.12247 -2.14971,-1.29878 -2.34619,4.49681 -0.23751,7.00579 1.27688,8.01595 2.25353,1.50319 z m 38.75161,-6.99401 c 2.8674,-1.19808 4.58376,-1.27339 8.96561,-0.39339 4.61275,0.92638 5.91634,0.83134 8.75883,-0.63857 3.39527,-1.75577 14.46835,-2.19409 21.72793,-0.86009 2.11629,0.38888 4.06769,0.0651 5.57994,-0.92572 1.41237,-0.92543 6.02446,-1.78629 11.74559,-2.19236 5.18103,-0.36774 10.85191,-1.10729 12.60195,-1.64345 2.56219,-0.78498 3.96641,-0.5746 7.21016,1.08024 4.94532,2.52291 5.25728,2.52745 8.03678,0.11679 1.65221,-1.43295 2.14834,-2.7977 1.90301,-5.2348 -0.25167,-2.5001 0.0883,-3.3778 1.40716,-3.63293 1.78119,-0.34456 3.10011,1.84953 4.18886,6.96843 0.5731,2.6945 8.95055,8.83758 12.05198,8.83758 2.02998,0 3.42476,-3.11232 2.46481,-5.5 -0.44224,-1.1 -0.85165,-4.025 -0.9098,-6.5 -0.0582,-2.475 -0.65227,-5.46343 -1.32029,-6.64096 -3.00284,-5.29322 -19.36184,-22.52157 -25.33736,-26.68384 -1.71754,-1.19636 -5.77484,-4.03302 -9.01621,-6.3037 -4.47724,-3.13642 -7.75041,-4.51253 -13.62128,-5.72665 -4.25032,-0.87899 -9.41803,-2.45658 -11.48379,-3.50576 -7.71377,-3.91777 -14.47543,-4.64396 -42.25592,-4.53825 -20.40228,0.0776 -28.34082,0.48028 -34.5,1.74983 -4.4,0.90694 -10.1681,1.64906 -12.818,1.64916 -5.1803,1.8e-4 -25.63338,4.36648 -29.58322,6.31538 -3.86069,1.90492 -4.97497,4.52258 -2.65765,6.24336 1.06762,0.79279 2.83625,1.44143 3.93028,1.44143 1.09404,0 4.72053,1.72717 8.05887,3.83816 3.33835,2.11099 8.65544,5.35499 11.81576,7.20889 3.64604,2.13883 7.11798,5.27221 9.5,8.57362 2.06468,2.8616 5.55396,6.22779 7.75396,7.48043 2.2,1.25263 7.6,5.9731 12,10.48993 6.67882,6.85616 8.74316,8.3761 12.5,9.2036 6.38676,1.40677 7.32887,1.38373 11.30204,-0.27636 z m -67.30204,-11.51827 c 0,-0.55 0.675,-1 1.5,-1 0.825,0 1.5,-0.46412 1.5,-1.03138 0,-1.41571 -2.65386,-2.31542 -4.61262,-1.56378 -1.21594,0.4666 -1.34107,0.94603 -0.50868,1.949 0.60717,0.7316 0.80785,1.62627 0.44596,1.98817 -0.3619,0.36189 -0.13299,0.65799 0.50867,0.65799 0.64167,0 1.16667,-0.45 1.16667,-1 z m 20,-4.7 c 0,-1.85714 -0.32241,-2.37759 -1.03278,-1.66722 -0.56803,0.56803 -0.74489,1.78303 -0.39301,2.7 0.92629,2.41389 1.42579,2.05207 1.42579,-1.03278 z m -251.44113,277.1682 c -1.06762,-0.80751 -1.49113,-1.4682 -0.94113,-1.4682 0.55,0 1.87351,0.66069 2.94113,1.4682 1.06762,0.8075 1.49113,1.46819 0.94113,1.46819 -0.55,0 -1.87351,-0.66069 -2.94113,-1.46819 z M 131.62339,685.7311 c -1.18796,-1.90221 -1.1299,-1.97597 0.75945,-0.96481 1.12515,0.60216 2.04573,1.529 2.04573,2.05965 0,1.63657 -1.45373,1.06919 -2.80518,-1.09484 z m -22.19482,-73.94034 c 0,-0.55 0.45,-1 1,-1 0.55,0 1,0.45 1,1 0,0.55 -0.45,1 -1,1 -0.55,0 -1,-0.45 -1,-1 z m 4.03265,-32.0685 c -0.056,-2.68931 2.96191,-11.8101 4.15086,-12.54491 1.2526,-0.77416 1.08709,-0.0964 -2.10347,8.61341 -1.10811,3.025 -2.02944,4.79418 -2.04739,3.9315 z m 22.00278,-7.52495 c -0.0431,-2.5487 3.63082,-13.4728 4.98736,-14.82934 1.49699,-1.49699 1.14135,1.51168 -0.52279,4.42279 -0.78602,1.375 -1.46102,3.625 -1.5,5 -0.039,1.375 -0.71398,3.625 -1.5,5 -1.32678,2.32096 -1.43167,2.35007 -1.46457,0.40655 z m -15.39828,-14.90655 c 0.35394,-1.65 1.31741,-4.35 2.14105,-6 2.04547,-4.09774 7.45943,-11.59571 7.98979,-11.06534 0.91533,0.91532 -2.10993,7.88667 -4.7306,10.90111 -1.51299,1.74033 -3.49179,4.51423 -4.39733,6.16423 l -1.64643,3 0.64352,-3 z m 10.36285,-19.69838 c 0,-3.50512 4.12566,-10.97991 8.44346,-15.29771 2.49061,-2.49061 5.399,-6.21037 6.4631,-8.26614 1.0641,-2.05577 4.48182,-6.21277 7.59495,-9.23777 3.11312,-3.025 7.58162,-8.44764 9.93001,-12.05031 2.34838,-3.60267 6.4351,-8.32767 9.0816,-10.5 2.64651,-2.17233 7.24795,-6.42469 10.22543,-9.44969 4.32681,-4.39586 5.27046,-4.99812 4.70053,-3 -1.61447,5.66021 -7.78413,12.79095 -14.58223,16.85376 -3.81218,2.2783 -7.44911,6.48818 -10.17038,11.77259 -0.88547,1.71949 -4.91412,6.66949 -8.95255,11 -4.03843,4.33051 -8.5908,10.03876 -10.11637,12.68501 -1.52558,2.64625 -3.40761,5.05458 -4.1823,5.35186 -0.77469,0.29728 -2.98954,3.06809 -4.92189,6.15735 -1.93235,3.08927 -3.51336,4.88074 -3.51336,3.98105 z m 71,-98.68359 c 0,-0.55 0.45,-1.27811 1,-1.61803 0.55,-0.33992 1,-0.16803 1,0.38197 0,0.55 -0.45,1.27811 -1,1.61803 -0.55,0.33992 -1,0.16803 -1,-0.38197 z m 128.5475,-19.90174 c -0.33627,-1.53105 0.0123,-4.56855 0.77464,-6.75 0.76233,-2.18146 1.69413,-5.638 2.07068,-7.68121 0.9691,-5.25843 2.21687,-5.47047 4.60818,-0.78311 2.03749,3.9938 2.04344,4.18315 0.30757,9.78532 -2.50513,8.08476 -6.55547,10.91804 -7.76107,5.429 z m -18.08147,0.16075 c -1.28384,-2.03532 0.59481,-14.56399 2.26744,-15.12153 0.62952,-0.20984 2.34488,0.40495 3.81192,1.36619 2.59958,1.70331 2.7125,1.68787 4.44404,-0.60768 l 1.77668,-2.3554 0.6916,3.42069 c 0.38038,1.88138 0.91641,4.21788 1.19117,5.19223 0.40645,1.44133 -0.0549,1.72929 -2.47504,1.54488 -3.67696,-0.28017 -5.8483,1.42492 -6.68902,5.25268 -0.716,3.25995 -3.35386,3.9474 -5.01879,1.30794 z"
             id="path2454"
             inkscape:connector-curvature="0" />
          <path
             sodipodi:nodetypes="cssssssssssssssssssssssssssssssssccsccc"
             style="opacity:0.89296695;fill:#9c1515;fill-opacity:1"
             d="m 257.6329,628.30297 c -7.94407,-1.57652 -33.21606,-8.46347 -34.9222,-15.85478 -1.01124,-4.3809 -2.89797,-7.89893 -7.71005,-14.37627 -6.32452,-8.51317 -8.04656,-14.03644 -5.7644,-16.20847 2.11591,-2.01381 20.19571,-0.73064 31.69232,-1.58691 9.69219,-0.72187 26.45256,-4.56945 29.98378,-6.8832 1.19419,-0.78246 4.38637,-2.10342 7.09374,-2.93546 4.57971,-1.40746 30.31244,-13.02116 42.09489,-18.99827 2.84483,-1.44315 6.89483,-3.03547 9,-3.53849 12.03725,-2.87623 16.44847,-4.60392 23.75775,-9.3049 9.8129,-6.31119 16.71749,-12.65448 21.09009,-19.37558 1.80702,-2.77757 7.2667,-9.10004 12.13262,-14.04993 11.48169,-11.67983 17.49168,-20.73355 22.86432,-34.44382 4.10841,-10.48413 7.48281,-25.19979 7.48281,-32.63235 0,-1.84385 0.51355,-3.32378 1.15338,-3.32378 0.63435,0 3.49731,2.1375 6.36213,4.75 2.86481,2.6125 6.82022,5.875 8.78979,7.25 1.96958,1.375 4.13995,3.625 4.82305,5 0.68311,1.375 2.72941,4.75 4.54734,7.5 4.5696,6.91248 7.32974,15.31978 7.29654,22.22502 -0.0153,3.17624 -0.84603,11.22301 -1.84613,17.88172 -1.77679,11.82997 -2.00476,12.46229 -9.97223,27.66033 -7.78294,14.84604 -9.28344,18.73293 -7.23168,18.73293 0.50721,0 2.79978,-2.1375 5.09461,-4.75 4.96633,-5.65381 5.00436,-5.80176 -2.24899,8.75 -3.64704,7.31676 -7.28465,13.05098 -10,15.76375 -4.53405,4.52974 -12.51082,10.18775 -14.4056,10.21805 -0.62578,0.01 -3.32578,1.49858 -6,3.30793 -2.67421,1.80935 -7.94483,4.84685 -11.71248,6.75 -3.76765,1.90315 -8.94265,5.43465 -11.5,7.84778 -15.19682,14.33981 -27.95594,20.96946 -54.14973,28.13627 -5.775,1.58008 -12.075,3.35529 -14,3.94493 -5.16773,1.58288 -29.98095,4.04933 -39.35681,3.91209 -4.47875,-0.0656 -10.97624,-0.68143 -14.43886,-1.36859 z M 452.12693,504.29076 c 0.54648,-4.8976 0.95756,-6.25197 1.6441,-5.41667 0.18835,0.22917 -0.23005,2.66667 -0.92978,5.41667 l -1.27223,5 0.55791,-5 z"
             id="path2452"
             inkscape:connector-curvature="0" />
          <path
             id="path3248"
             d="m 261.46787,625.4114 c -7.82968,-1.41717 -32.73778,-6.09279 -34.41935,-12.73704 -0.99668,-3.9381 -4.37146,-11.64624 -9.11426,-17.46889 -6.23345,-7.6527 -7.93069,-12.61772 -5.6814,-14.57021 2.08545,-1.81026 19.90492,-0.65679 31.23599,-1.42653 9.55263,-0.64889 26.07167,-4.10758 29.55204,-6.18747 1.177,-0.70338 4.32322,-1.89082 6.9916,-2.63876 4.51377,-1.26521 29.87598,-11.70505 41.48877,-17.07804 2.80386,-1.29728 6.79555,-2.72865 8.87041,-3.18083 11.86392,-2.58553 16.21163,-4.13859 23.41567,-8.36442 9.6716,-5.67329 16.47677,-11.37544 20.7864,-17.41721 1.781,-2.49683 7.16207,-8.18026 11.95793,-12.62986 11.31636,-10.4993 17.23982,-18.63792 22.53511,-30.96243 4.04924,-9.42445 7.37506,-22.65274 7.37506,-29.33405 0,-1.65749 1.89511,-11.82666 2.52573,-11.82666 0.62521,0 4.83591,2.17397 7.65948,4.52242 2.82357,2.34844 6.72202,6.79642 8.66322,8.03244 2.56146,3.44016 4.12606,11.88081 6.96264,14.77212 4.5038,6.2138 5.20389,10.23579 5.17116,16.44309 -0.0151,2.85522 -0.83385,12.61405 -1.81954,18.59973 -1.75121,10.63426 -2.98604,10.6976 -10.8388,24.3595 -7.67087,13.3455 -6.62439,21.89028 -4.60216,21.89028 9.11548,-6.38692 9.63897,-13.12386 0.27926,2.58556 -3.59452,6.57721 -5.66453,9.20648 -8.34077,11.64506 -7.06991,9.25861 -12.44845,10.32462 -19.10165,13.16901 -2.6357,1.62647 -7.83042,6.88233 -11.54382,8.59312 -3.7134,1.7108 -8.81389,4.88535 -11.33442,7.05458 -14.978,12.89043 -25.53309,19.86013 -51.34972,26.30257 -5.69185,1.42037 -5.84022,0.49077 -13.79842,3.04113 -5.03606,1.61389 -25.00358,5.15526 -34.24444,5.0319 -4.41425,-0.0589 -15.86895,0.3976 -19.28172,-0.22011 z M 451.64618,510.90317 c 0.53862,-4.40259 0.94377,-5.62006 1.62043,-4.86919 0.18563,0.20601 -0.22674,2.39715 -0.9164,4.86919 l -1.25391,4.49461 0.54988,-4.49461 z"
             style="fill:url(#linearGradient3369);fill-opacity:1"
             sodipodi:nodetypes="csssssssssssssssccsssccccsssssccsccc"
             inkscape:connector-curvature="0" />
        </g>
        <path
           style="opacity:0.7;fill:url(#linearGradient2955);fill-opacity:1;fill-rule:evenodd;stroke:none"
           id="path6773"
           sodipodi:nodetypes="ccccccccc"
           d="M 340.83428,75.438586 616.00511,350.60935 c 3.20421,3.2042 3.18554,8.38202 -0.0417,11.60924 L 476.9949,501.18711 c -3.22728,3.22729 -8.40485,3.24572 -11.60906,0.0415 -75.98918,-205.2126 -183.06735,-186.18751 -275.1708,-275.17078 -3.20421,-3.20423 -3.1858,-8.3818 0.0415,-11.60907 L 329.22504,75.480246 c 3.22725,-3.22727 8.40504,-3.24589 11.60924,-0.04166 z"
           inkscape:connector-curvature="0" />
      </g>
    </g>
  </g>
</svg>
