<?xml version="1.0" encoding="UTF-8" standalone="no"?><svg width="84" height="75" viewBox="0 0 84 75" xmlns="http://www.w3.org/2000/svg" xmlns:xlink="http://www.w3.org/1999/xlink"><svg height="29" width="28" viewBox="-2 -2 28 29" id="copy" xmlns="http://www.w3.org/2000/svg"><path d="M0-23h48v48H0z" fill="none"/><path d="M17 2H5a2 2 0 00-2 2v14h2V4h12zm2 3H8a2 2 0 00-2 2v14a2 2 0 002 2h11a2 2 0 002-2V7a2 2 0 00-2-2zm0 16H8V7h11z"/></svg><svg width="28" height="28" viewBox="-2 -2 28 28" id="facebook" x="28" xmlns="http://www.w3.org/2000/svg"><circle style="isolation:auto;mix-blend-mode:normal;solid-color:#000;solid-opacity:1;marker:none" cx="12" cy="12" r="11.5" color="#000" overflow="visible" fill="#f9f9f9" stroke="#878787"/><path d="M12.658 18.51h-2.442v-5.76h-1.22v-1.984h1.22V9.574c0-1.618.689-2.582 2.647-2.582h1.63v1.986h-1.019c-.762 0-.813.277-.813.795l-.003.993h1.846l-.216 1.984h-1.63v5.76z" fill-rule="evenodd"/><path style="isolation:auto;mix-blend-mode:normal;solid-color:#000;solid-opacity:1;marker:none" d="M2.556 9.297A9.823 9.823 0 018.38 2.87" color="#000" overflow="visible" fill="none" stroke="#878787" stroke-width=".5"/></svg><svg height="28" width="28" viewBox="-2 -2 28 28" id="linkedin" x="56" xmlns="http://www.w3.org/2000/svg"><circle style="isolation:auto;mix-blend-mode:normal;solid-color:#000;solid-opacity:1;marker:none;font-variant-east_asian:normal" cx="12" cy="12" r="11.5" color="#000" overflow="visible" fill="#f9f9f9" stroke="#878787"/><path d="M7.252 10.207h1.95v6.792h-1.95zm.925-.85h-.014C7.457 9.357 7 8.837 7 8.18 7 7.509 7.471 7 8.19 7c.72 0 1.162.508 1.176 1.178 0 .658-.456 1.179-1.189 1.179zM17 17h-2.21v-3.516c0-.92-.346-1.547-1.106-1.547-.582 0-.905.423-1.055.832-.057.146-.048.35-.048.555V17h-2.19s.029-6.227 0-6.793h2.19v1.066c.13-.466.829-1.132 1.945-1.132 1.386 0 2.474.978 2.474 3.081z" fill-rule="evenodd"/><path style="isolation:auto;mix-blend-mode:normal;solid-color:#000;solid-opacity:1;marker:none" d="M2.556 9.297A9.823 9.823 0 018.38 2.868" color="#000" overflow="visible" fill="none" stroke="#878787" stroke-width=".5"/></svg><svg height="28" width="28" viewBox="-2 -2 28 28" id="mail" y="29" xmlns="http://www.w3.org/2000/svg"><circle style="isolation:auto;mix-blend-mode:normal;solid-color:#000;solid-opacity:1;marker:none;font-variant-east_asian:normal" cx="12" cy="12" r="11.5" color="#000" overflow="visible" fill="#f9f9f9" stroke="#878787"/><path d="M7.556 10.466l1.258.81c.7.448 1.236.794 1.608 1.036l.261.174c.133.089.244.16.332.216.088.055.194.116.319.184.125.068.242.12.353.154.11.034.213.05.307.05h.012c.094 0 .197-.016.307-.05a1.93 1.93 0 00.353-.154 6.552 6.552 0 00.65-.4l.262-.174 2.872-1.846c.3-.193.549-.426.75-.699.2-.273.3-.559.3-.858a.84.84 0 00-.292-.642.988.988 0 00-.69-.267H7.482c-.315 0-.557.098-.727.295-.17.197-.255.444-.255.74 0 .238.113.496.338.775.225.278.464.497.718.656zm9.33.608c-1.342.84-2.361 1.494-3.057 1.96-.233.16-.422.283-.568.372-.145.09-.338.18-.58.273-.241.093-.466.14-.675.14h-.012a1.89 1.89 0 01-.675-.14 3.62 3.62 0 01-.58-.273 14.496 14.496 0 01-.568-.372 123.51 123.51 0 00-3.051-1.96 3.198 3.198 0 01-.62-.494v4.51c0 .25.096.465.288.643a.985.985 0 00.694.267h9.036c.27 0 .501-.089.694-.267a.844.844 0 00.288-.642V10.58c-.176.181-.38.346-.614.494z" fill-rule="evenodd"/><path style="isolation:auto;mix-blend-mode:normal;solid-color:#000;solid-opacity:1;marker:none" d="M2.556 9.297A9.823 9.823 0 018.38 2.868" color="#000" overflow="visible" fill="none" stroke="#878787" stroke-width=".5"/></svg><svg height="28" width="28" viewBox="-2 -2 28 28" id="reddit" x="28" y="29" xmlns="http://www.w3.org/2000/svg"><circle style="isolation:auto;mix-blend-mode:normal;solid-color:#000;solid-opacity:1;marker:none;font-variant-east_asian:normal" cx="12" cy="12" r="11.5" color="#000" overflow="visible" fill="#f9f9f9" stroke="#878787"/><path d="M10.04 14.898a.196.196 0 00-.028.008.263.263 0 00-.197.31c.01.053.036.102.074.14.56.591 1.395.685 2.062.687h.051c.671 0 1.51-.09 2.077-.687a.274.274 0 00.004-.372.24.24 0 00-.206-.078.248.248 0 00-.145.084c-.395.416-1.09.523-1.708.526h-.029a.09.09 0 00-.014 0h-.037c-.615-.003-1.308-.111-1.7-.526a.244.244 0 00-.203-.092zm3.91-3.182c-.495 0-.899.425-.899.946 0 .521.404.946.898.946s.898-.425.898-.946c0-.52-.404-.946-.898-.946zm-3.924 0c-.494 0-.898.425-.898.946 0 .521.404.946.898.946s.898-.425.898-.946c0-.521-.404-.946-.898-.946zm6.978-1.122c.543 0 .977.457.977 1.03 0 .333-.148.627-.376.817-.212-.621-.624-1.183-1.173-1.648a.913.913 0 01.572-.199zm-10.047 0c.205 0 .387.071.543.184-.547.458-.96 1.013-1.18 1.625a1.045 1.045 0 01-.34-.779c0-.573.434-1.03.977-1.03zm5.002-.748c1.492 0 2.835.425 3.793 1.084.958.66 1.512 1.532 1.512 2.48s-.554 1.83-1.512 2.488c-.958.659-2.301 1.076-3.793 1.076s-2.836-.417-3.793-1.076c-.958-.659-1.528-1.54-1.528-2.488s.57-1.82 1.528-2.48c.957-.659 2.3-1.084 3.793-1.084zm4.43-3.312c.399 0 .716.342.716.763 0 .422-.317.756-.717.756-.4 0-.716-.334-.716-.756 0-.421.316-.763.716-.763zm0-.534c-.5 0-.936.326-1.122.786l-2.273-.565a.254.254 0 00-.08-.015.254.254 0 00-.217.191l-.89 2.93c-1.498.027-2.856.445-3.873 1.13a1.42 1.42 0 00-.977-.39c-.813 0-1.476.7-1.476 1.557 0 .557.283 1.05.702 1.328a2.93 2.93 0 00-.044.458c0 1.166.696 2.197 1.752 2.923 1.055.725 2.488 1.167 4.068 1.167 1.58 0 3.012-.442 4.068-1.167 1.055-.726 1.737-1.757 1.737-2.923 0-.146-.009-.294-.03-.435.446-.27.746-.773.746-1.35 0-.858-.663-1.558-1.476-1.558-.385 0-.73.158-.992.413-.97-.663-2.253-1.081-3.677-1.145l.767-2.541 2.07.51c.005.703.549 1.275 1.216 1.275.67 0 1.217-.575 1.217-1.282 0-.706-.547-1.297-1.217-1.297z" fill-rule="evenodd"/><path style="isolation:auto;mix-blend-mode:normal;solid-color:#000;solid-opacity:1;marker:none" d="M2.556 9.297A9.823 9.823 0 018.38 2.868" color="#000" overflow="visible" fill="none" stroke="#878787" stroke-width=".5"/></svg><svg width="18" height="18" viewBox="-2 -2 18 18" id="search" y="57" xmlns="http://www.w3.org/2000/svg"><g transform="matrix(-1.12748 0 0 1.12748 13.763 0)" fill="none" stroke="#adafaf" stroke-width="2"><path d="M11.29 11.71l-4-4"/><circle r="4" cy="5" cx="5"/></g></svg><svg height="28" width="28" viewBox="-2 -2 28 28" id="twitter" x="56" y="29" xmlns="http://www.w3.org/2000/svg"><circle style="isolation:auto;mix-blend-mode:normal;solid-color:#000;solid-opacity:1;marker:none;font-variant-east_asian:normal" cx="12" cy="12" r="11.5" color="#000" overflow="visible" fill="#f9f9f9" stroke="#878787"/><path d="M16.263 9.423c.445-.28.786-.726.947-1.257-.417.261-.877.45-1.368.552A2.097 2.097 0 0014.269 8c-1.19 0-2.153 1.017-2.153 2.272 0 .178.018.351.055.517-1.79-.095-3.377-.998-4.44-2.374a2.362 2.362 0 00-.292 1.143c0 .788.38 1.483.959 1.892a2.077 2.077 0 01-.976-.284v.027c0 1.102.742 2.02 1.728 2.228a2.026 2.026 0 01-.973.04c.274.902 1.07 1.56 2.012 1.577A4.182 4.182 0 017 15.98 5.874 5.874 0 0010.302 17c3.963 0 6.129-3.462 6.129-6.464a6.64 6.64 0 00-.006-.294c.421-.32.787-.721 1.075-1.177-.386.181-.802.303-1.237.358z" fill-rule="evenodd"/><path style="isolation:auto;mix-blend-mode:normal;solid-color:#000;solid-opacity:1;marker:none" d="M2.556 9.297A9.823 9.823 0 018.38 2.868" color="#000" overflow="visible" fill="none" stroke="#878787" stroke-width=".5"/></svg></svg>