<?xml version="1.0" encoding="UTF-8" standalone="no"?><svg width="48" height="47" viewBox="0 0 48 47" xmlns="http://www.w3.org/2000/svg" xmlns:xlink="http://www.w3.org/1999/xlink"><svg height="29" width="28" viewBox="-2 -2 28 29" id="copy" xmlns="http://www.w3.org/2000/svg"><path d="M0-23h48v48H0z" fill="none"/><path d="M17 2H5a2 2 0 00-2 2v14h2V4h12zm2 3H8a2 2 0 00-2 2v14a2 2 0 002 2h11a2 2 0 002-2V7a2 2 0 00-2-2zm0 16H8V7h11z"/></svg><svg width="20" height="20" viewBox="-2 -2 20 20" id="rss" x="28" xmlns="http://www.w3.org/2000/svg"><path d="M8 0a8 8 0 00-8 8 8 8 0 008 8 8 8 0 008-8 8 8 0 00-8-8zM5.816 11.678c-.194.194-.46.31-.754.31A1.063 1.063 0 014 10.93c0-.293.119-.556.312-.75a1.053 1.053 0 011.5 0 1.053 1.053 0 01.004 1.497zM7.744 12a3.742 3.742 0 00-1.097-2.653A3.73 3.73 0 004 8.247V6.719c1.456 0 2.772.593 3.728 1.55A5.276 5.276 0 019.278 12zm2.725 0c-.003-3.569-2.9-6.472-6.466-6.472V4c2.206 0 4.203.897 5.65 2.347A7.995 7.995 0 0112 12z" style="isolation:auto;mix-blend-mode:normal;solid-color:#000;solid-opacity:1" color="#000" overflow="visible" fill="#e18319"/></svg><svg width="18" height="18" viewBox="-2 -2 18 18" id="search" y="29" xmlns="http://www.w3.org/2000/svg"><g transform="matrix(-1.12748 0 0 1.12748 13.763 0)" fill="none" stroke="#adafaf" stroke-width="2"><path d="M11.29 11.71l-4-4"/><circle r="4" cy="5" cx="5"/></g></svg></svg>