<?xml version="1.0" encoding="UTF-8" standalone="no"?><svg width="46" height="29" viewBox="0 0 46 29" xmlns="http://www.w3.org/2000/svg" xmlns:xlink="http://www.w3.org/1999/xlink"><svg height="29" width="28" viewBox="-2 -2 28 29" id="copy" xmlns="http://www.w3.org/2000/svg"><path d="M0-23h48v48H0z" fill="none"/><path d="M17 2H5a2 2 0 00-2 2v14h2V4h12zm2 3H8a2 2 0 00-2 2v14a2 2 0 002 2h11a2 2 0 002-2V7a2 2 0 00-2-2zm0 16H8V7h11z"/></svg><svg width="18" height="18" viewBox="-2 -2 18 18" id="search" x="28" xmlns="http://www.w3.org/2000/svg"><g transform="matrix(-1.12748 0 0 1.12748 13.763 0)" fill="none" stroke="#adafaf" stroke-width="2"><path d="M11.29 11.71l-4-4"/><circle r="4" cy="5" cx="5"/></g></svg></svg>