<?xml version="1.0" encoding="UTF-8" standalone="no"?><svg width="138" height="83" viewBox="0 0 138 83" xmlns="http://www.w3.org/2000/svg" xmlns:xlink="http://www.w3.org/1999/xlink"><svg height="29" width="28" viewBox="-2 -2 28 29" id="copy" x="54" xmlns="http://www.w3.org/2000/svg"><path d="M0-23h48v48H0z" fill="none"/><path d="M17 2H5a2 2 0 0 0-2 2v14h2V4h12zm2 3H8a2 2 0 0 0-2 2v14a2 2 0 0 0 2 2h11a2 2 0 0 0 2-2V7a2 2 0 0 0-2-2zm0 16H8V7h11z"/></svg><svg width="28" height="28" viewBox="-2 -2 28 28" id="facebook" x="82" xmlns="http://www.w3.org/2000/svg"><path d="M12.658 18.51h-2.442v-5.76h-1.22v-1.984h1.22V9.574c0-1.618.689-2.582 2.647-2.582h1.63v1.986h-1.019c-.762 0-.813.277-.813.795l-.003.993h1.846l-.216 1.984h-1.63v5.76z" fill-rule="evenodd"/><circle style="isolation:auto;mix-blend-mode:normal;solid-color:#000;solid-opacity:1;marker:none" cx="12" cy="12" r="11.5" color="#000" overflow="visible" opacity=".499" fill="none" stroke="#000"/></svg><svg width="28" height="28" viewBox="-2 -2 28 28" id="hackernews" y="55" xmlns="http://www.w3.org/2000/svg"><path d="M7.133 6.228H8.81l3.2 4.748 3.178-4.748h1.678l-4.082 6.046v5.498h-1.57v-5.498z" style="-inkscape-font-specification:MetaPlusNormal-Roman" font-weight="500" font-size="21.537" font-family="MetaPlusNormal-"/><circle style="isolation:auto;mix-blend-mode:normal;solid-color:#000;solid-opacity:1;marker:none" cx="12" cy="12" r="11.5" color="#000" overflow="visible" opacity=".499" fill="none" stroke="#000"/></svg><svg height="28" width="28" viewBox="-2 -2 28 28" id="linkedin" x="28" y="55" xmlns="http://www.w3.org/2000/svg"><path d="M7.252 10.207h1.95v6.792h-1.95zm.925-.85h-.014C7.457 9.357 7 8.837 7 8.18 7 7.509 7.471 7 8.19 7c.72 0 1.162.508 1.176 1.178 0 .658-.456 1.179-1.189 1.179zM17 17h-2.21v-3.516c0-.92-.346-1.547-1.106-1.547-.582 0-.905.423-1.055.832-.057.146-.048.35-.048.555V17h-2.19s.029-6.227 0-6.793h2.19v1.066c.13-.466.829-1.132 1.945-1.132 1.386 0 2.474.978 2.474 3.081z" fill-rule="evenodd"/><circle style="isolation:auto;mix-blend-mode:normal;solid-color:#000;solid-opacity:1;marker:none" cx="12" cy="12" r="11.5" color="#000" overflow="visible" opacity=".499" fill="none" stroke="#000"/></svg><svg height="28" width="28" viewBox="-2 -2 28 28" id="mail" x="56" y="55" xmlns="http://www.w3.org/2000/svg"><path d="M7.556 10.466l1.258.81c.7.448 1.236.794 1.608 1.036l.261.174c.133.089.244.16.332.216.088.055.194.116.319.184.125.068.242.12.353.154.11.034.213.05.307.05h.012c.094 0 .197-.016.307-.05a1.93 1.93 0 0 0 .353-.154 6.552 6.552 0 0 0 .65-.4l.262-.174 2.872-1.846c.3-.193.549-.426.75-.699.2-.273.3-.559.3-.858a.84.84 0 0 0-.292-.642.988.988 0 0 0-.69-.267H7.482c-.315 0-.557.098-.727.295-.17.197-.255.444-.255.74 0 .238.113.496.338.775.225.278.464.497.718.656zm9.33.608c-1.342.84-2.361 1.494-3.057 1.96-.233.16-.422.283-.568.372-.145.09-.338.18-.58.273-.241.093-.466.14-.675.14h-.012a1.89 1.89 0 0 1-.675-.14 3.62 3.62 0 0 1-.58-.273 14.496 14.496 0 0 1-.568-.372 123.51 123.51 0 0 0-3.051-1.96 3.198 3.198 0 0 1-.62-.494v4.51c0 .25.096.465.288.643a.985.985 0 0 0 .694.267h9.036c.27 0 .501-.089.694-.267a.844.844 0 0 0 .288-.642V10.58c-.176.181-.38.346-.614.494z" fill-rule="evenodd"/><circle style="isolation:auto;mix-blend-mode:normal;solid-color:#000;solid-opacity:1;marker:none" cx="12" cy="12" r="11.5" color="#000" overflow="visible" opacity=".499" fill="none" stroke="#000"/></svg><svg height="28" width="28" viewBox="-2 -2 28 28" id="reddit" x="110" xmlns="http://www.w3.org/2000/svg"><path d="M10.04 14.898a.196.196 0 0 0-.028.008.263.263 0 0 0-.197.31c.01.053.036.102.074.14.56.591 1.395.685 2.062.687h.051c.671 0 1.51-.09 2.077-.687a.274.274 0 0 0 .004-.372.24.24 0 0 0-.206-.078.248.248 0 0 0-.145.084c-.395.416-1.09.523-1.708.526h-.029a.09.09 0 0 0-.014 0h-.037c-.615-.003-1.308-.111-1.7-.526a.244.244 0 0 0-.203-.092zm3.91-3.182c-.495 0-.899.425-.899.946 0 .521.404.946.898.946s.898-.425.898-.946c0-.52-.404-.946-.898-.946zm-3.924 0c-.494 0-.898.425-.898.946 0 .521.404.946.898.946s.898-.425.898-.946c0-.521-.404-.946-.898-.946zm6.978-1.122c.543 0 .977.457.977 1.03 0 .333-.148.627-.376.817-.212-.621-.624-1.183-1.173-1.648a.913.913 0 0 1 .572-.199zm-10.047 0c.205 0 .387.071.543.184-.547.458-.96 1.013-1.18 1.625a1.045 1.045 0 0 1-.34-.779c0-.573.434-1.03.977-1.03zm5.002-.748c1.492 0 2.835.425 3.793 1.084.958.66 1.512 1.532 1.512 2.48s-.554 1.83-1.512 2.488c-.958.659-2.301 1.076-3.793 1.076s-2.836-.417-3.793-1.076c-.958-.659-1.528-1.54-1.528-2.488s.57-1.82 1.528-2.48c.957-.659 2.3-1.084 3.793-1.084zm4.43-3.312c.399 0 .716.342.716.763 0 .422-.317.756-.717.756-.4 0-.716-.334-.716-.756 0-.421.316-.763.716-.763zm0-.534c-.5 0-.936.326-1.122.786l-2.273-.565a.254.254 0 0 0-.08-.015.254.254 0 0 0-.217.191l-.89 2.93c-1.498.027-2.856.445-3.873 1.13a1.42 1.42 0 0 0-.977-.39c-.813 0-1.476.7-1.476 1.557 0 .557.283 1.05.702 1.328a2.93 2.93 0 0 0-.044.458c0 1.166.696 2.197 1.752 2.923 1.055.725 2.488 1.167 4.068 1.167 1.58 0 3.012-.442 4.068-1.167 1.055-.726 1.737-1.757 1.737-2.923 0-.146-.009-.294-.03-.435.446-.27.746-.773.746-1.35 0-.858-.663-1.558-1.476-1.558-.385 0-.73.158-.992.413-.97-.663-2.253-1.081-3.677-1.145l.767-2.541 2.07.51c.005.703.549 1.275 1.216 1.275.67 0 1.217-.575 1.217-1.282 0-.706-.547-1.297-1.217-1.297z" fill-rule="evenodd"/><circle style="isolation:auto;mix-blend-mode:normal;solid-color:#000;solid-opacity:1;marker:none" cx="12" cy="12" r="11.5" color="#000" overflow="visible" opacity=".499" fill="none" stroke="#000"/></svg><svg width="18" height="18" viewBox="-2 -2 18 18" id="search" x="110" y="56" xmlns="http://www.w3.org/2000/svg"><g transform="matrix(-1.12748 0 0 1.12748 13.763 0)" fill="none" stroke="#adafaf" stroke-width="2"><path d="M11.29 11.71l-4-4"/><circle r="4" cy="5" cx="5"/></g></svg><svg width="54" height="55" viewBox="-2 -2 50.88 51.81" id="strawhat" xmlns="http://www.w3.org/2000/svg"><defs><clipPath clipPathUnits="userSpaceOnUse" id="he"><use xlink:href="#ha" transform="matrix(1 0 0 -1 0 926.188)" width="1" height="1"/></clipPath><linearGradient id="hb"><stop offset="0" stop-color="#e0060f" stop-opacity=".188"/><stop offset="1" stop-color="#e02306"/></linearGradient><linearGradient xlink:href="#hc" id="hg" x1="707.338" y1="241.86" x2="550.228" y2="87.801" gradientUnits="userSpaceOnUse"/><linearGradient id="hc"><stop offset="0"/><stop offset=".66" stop-opacity=".737"/><stop offset="1" stop-opacity=".489"/></linearGradient><linearGradient xlink:href="#hd" id="hi" gradientUnits="userSpaceOnUse" gradientTransform="rotate(45 552.985 -471.58) scale(2.94236 2.96348)" x1="322.939" y1="22.012" x2="320.743" y2="93.89"/><linearGradient id="hd"><stop offset="0" stop-color="#fff"/><stop offset="1" stop-color="#fff" stop-opacity="0"/></linearGradient><linearGradient xlink:href="#hb" id="hh" gradientUnits="userSpaceOnUse" gradientTransform="matrix(.9856 0 0 .89893 6.03 57.583)" x1="204.593" y1="532.234" x2="453.816" y2="532.234"/></defs><g transform="translate(-3.959 -4.285) scale(.08044)"><rect transform="rotate(45)" height="410.72" x="277.529" y="-198.372" ry="6.736" rx="8.657" width="422.202" id="ha" fill="#000" fill-opacity="1" fill-rule="evenodd" stroke="#fff" stroke-width="0" stroke-linejoin="miter" stroke-miterlimit="4" stroke-dasharray="none" stroke-opacity="1"/><use clip-path="url(#he)" height="1052.362" width="744.094" transform="matrix(1 0 0 -1 0 926.188)" xlink:href="#hf" opacity=".884"/><rect width="422.202" rx="8.657" ry="6.736" y="-198.372" x="277.529" height="410.72" transform="rotate(45)" fill="url(#hg)" fill-rule="evenodd"/><g id="hf"><path d="M114.286 585.934c-3.036 19.263-3.027 38.998.545 58.181 1.502 16.179 7.973 31.69 18.628 43.968 7.672 9.251 19.357 13.974 27.976 22.274 10.71 11.537 26.173 18.157 41.876 18.17 12.526 2.676 25.695 6.016 38.295 1.764 13.532-3.342 27.029-6.942 40.804-9.015 8.54-1.305 19.254-.622 25.06-8.148 8.227-10.2-3.534-17.232-12.677-18.683-28.886-10.623-58.364-21.521-82.787-40.793-17.96-11.694-39.508-16.96-56.69-29.927-12.442-9.54-13.656-27.356-25.2-37.505-4.836-2.785-10.757-1.802-15.83-.286zM439.286 392.362c-4.777-.317-8.044 3.267-11.429 10.714-3.73 8.208 12.984 13.765 17.857 15.715 10.308 4.123 10.89-.888 15.715-7.857 5.375-7.765-11.417-17.068-16.429-18.572-.51-.153-.952-.476-1.429-.714" fill="#fff" transform="rotate(19.983 422.312 643.114) scale(.72276)"/><path d="M206.429 603.076c-8.694-1.618-10.633 3.675-15.715 12.143-2.064 3.44.846 10.656 1.429 13.572 1.949 9.743 22.084 13.933 28.571 16.428 8.916 3.43 8.685-5.291 10-11.428 3.806-17.76 1.158-21.921-13.571-29.286-2.755-1.377-7.694-1.126-10.714-1.429z" fill="#fff" transform="rotate(19.983 422.312 643.114) scale(.72276)"/><path d="M208.571 449.505l-27.142 43.571c6.21 24.764-13.563 48.841-4.34 73.48 5.44 8.417 2.749 21.025 11.524 27.015 12.39 4.615 25.772-4.229 36.595-9.734 16.759-12.598 22.332-34.43 24.773-54.227-1.461-9.985-7.275-19.01-6.307-29.477-.895-17.855-5.685-37.285-20.25-48.9-1.199-3.054-20.777-7.185-14.853-1.728z" fill="#fff" fill-rule="evenodd" transform="rotate(19.983 422.312 643.114) scale(.72276)"/><path d="M217.636 733.599c-76.837 1.125-128.138-85.5-105.878-155.337 14.72-60.274 67.25-98.492 96.728-150.647 34.892-49.566 100.218-58.37 156.253-52.664 63.097-10.444 147.536-21.404 187.6 41.47 34.695 67.889-13.587 141.649-58.112 192.041-41.164 49.275-99.26 80.905-157.61 105.385-38.274 12.852-78.62 19.43-118.98 19.752zm4.412-15.337c4.947-13.22-11.503 8.036 0 0zm-22.87-3.678c-3.579-17.024-12.277 14.3 0 0zm66.657-3.075c.974-12.859-7.303 7.664 0 0zm-87.406-3.718c3.1-18.387-13.509 8.92 0 0zm116.625-.552c2.856-15.76-7.788 9.067 0 0zm-125.625-6.5c35.55-17.613-43.192-34.864-42-63.7-39.321-16.19 30.981 73.803 18.644 43.064-16.977 6.835 15.986 31.242 23.356 20.637zm-19.396-12.249c-4.702-13.209 12.44 4.351 0 0zm-25.917-43.345c-6.09-8.386 8.814.018 0 0zm79.122 51.896c-5.275-8.87-5.188 10.145 0 0zm19.609-68.857c-4.634-26.722-30.974-4.376 0 0zm-99.757-9.143c-.328-19.239-11.914 3.937 0 0zm-4.154-28.085c-8.89 3.903 8.274 6.978 0 0zm104.204-22.855c-11.723-29.733-1.98-88.652-11.709-101.58-21.45 25.277-41.19 105.208 11.709 101.58zm1.289-38.342c-1.38-7.112-4.967 4.641 0 0zm220-129.968c-3.01-5.6-3.113 5.68 0 0z" fill="#faf49a" transform="rotate(19.983 422.312 643.114) scale(.72276)"/><path d="M216.976 732.167c-27.686.234-56.052-11.457-73.327-33.52 13.766 13.976 53.37 18.08 55.034-7.77-24.386-9.458-51.406-24.61-54.482-53.471-5.258-17.016 2.64-51.826-5.637-58.088-11.115 17.55 11.537 45.982-6.018 58.184-11.032-10.343 2.642-46.297-18.757-39.874.955 9.357-6.395 20.64-4.615 4.14 3.845-50.896 35.83-94.188 70.76-129.145 21.98-39.06 51.172-80.122 97.415-91.066 42.9-12.05 88.175-1.243 131.468-11.13 45.537-5.906 99.77-4.5 132.331 32.875 23.294 25.951 28.818 64.655 16.32 96.838-17.24 61.873-62.806 110.81-109.85 152.186-29.672 18.103-59.135 36.873-90.176 52.497-44.086 19.41-92.626 26.326-140.466 27.344zm8.077-13.497c-4.88-21.406-11.095 18.17 0 0zm-35.624 1.62c27.096-2.531-15.918-19.794 0 0zm53.43-6.844c3.752-11.873-6.755 8.232 0 0zm23.981.268c18.186-13.835-14.384-4.807 0 0zm26.726-1.494c23.267-4.27-9.058-11.995 0 0zm-70.523-9.084c8.335-18.725-18.33 8.904 0 0zm104.232-13.376c-6.66-3.731 3.462 5.31 0 0zm-74.162-25.058c-22.582-12.58-52.36-7.84-71.901-26.596-14.922-27.915-20.61-64.17-3.559-92.471-2.832 16.231-12.31 38.32-2.014 52.112-5.005-24.197 25.557-40.846 41.678-22.702 27.352-2.097 27.02-38.233 17.294-56.87-2.385-33.337 6.573-67.873 27.021-94.565 8.576-19.341-17.886-24.817-19.075-3.779-15.922 18.034-47.891 20.916-53.628 47.566-7.415 24.063-2.06 58.067-22.614 74.866-22.976 13.41-16.726 43.061-18.523 65.268-5.815 10.503 11.231 45.302 16.156 23.374 1.61-13.087 8.816 22.245 21.854 19.312 21.314 8.39 43.846 18.42 67.31 14.485zm-92.984-74.249c-9.68-9.637 12.705-27.026 2.86-7.057-.714 2.45-1.786 4.75-2.86 7.057zm193.8 65.338c-4.735-3.634 2.498 10.819 0 0zm-117.5-12.729c21.163-15.562-28.952-21.603-17.544-42.808-11.048-22.685-36.344 5.105-16.004 16.904-20.35 14.487 12.349 26.634 26.462 25.718l2.381.102zm-45.553-13.357c-4.911-3.757 1.59 4.999 0 0zm-67.447-55.29c7.9-7.96-8.444-3.78 0 0zm10-26.124c-1.24-9.57-1.691 10.804 0 0zm113-7.714c-4.24-5.101-1.01 6.345 0 0zm-100.63-13.036c9.04-5.86-4.835-2.216 0 0zm98.023-29.012c-.53-9.118-2.062 6.998 0 0zm7.607-12.856c-5.8-1.472 5.147 6.655 0 0zm201-58.341c9.486-11.48 51.662 1.835 33.856-22.866 14.674 6.03 25.519.376 10.965-12.243-20.487-17.203-47.343-1.619-70.826-4.17-20.826 7.006.567 39.508 14.477 39.811 3.852.167 7.699-.155 11.528-.532zm89.5-5.541c-2.083-11.533-3.64 7.895 0 0zm-268.5-6.941c1.445-23.035 43.368-9.03 41.145-30.786-16.69.02-55.381 5.121-41.145 30.786zm260-4.996c2.19-15.197-9.215 2.134 0 0zm-12-8.622c-4.14-4.775.634 4.913 0 0zm-7-6.487c-8.554-24.507-11.695 16.08 0 0zm-125.162-9.855c-4.575-9.84-.353 7.918 0 0zm-259.11 300.828c-7.082-8.284 9.502 5.036 0 0zm-6.062-7.594c-11.314-4.728-6.783-33.942-1.795-10.331 1.03 3.344 1.833 6.808 1.795 10.331zm16.94-2.915c-6.986-5.083 2.506-4.77 0 0zm-22.951-67.247c-11.94-9.586 10.64-4.444 0 0z" fill="#fbea63" transform="rotate(19.983 422.312 643.114) scale(.72276)"/><path d="M218.212 731.816c-19.028-2.63-54.23-5.604-58.743-22.557 7.33 4.595 24.172 14.892 25.902-.406-8.09 16.69 13.243 15.768 21.396 8.896 7.026 20.167 32.605-16.344 31.605 8.385 8.685-3.991 6.626-37.368 17.39-17.9 2.622 26.986 38.026-25.873 29.887 1.93 14.21 13.008 23.631-28.765 37.859-13.3 7.248-9.625 25.554-33.71 33.463-23.86 6.638 9.784 23.555-14.986 23.58-24.545 7.755-11.334 38.239-24.7 33.831-32.434-35.297 8.736-61.639 38.142-97.708 44.764 7.143-14.409 32.435-13.823 44.707-25.757 14.824-14.236-21.103-2.609-27.825-3.526-37.607 3.884-77.569 2.597-112.558-13.039-11.001-7.948-32.95-44.949-4.143-41.09 11.317 3.046 51.477-6.051 26.897-15.663 7.235-7.478 19.65-9.463 6.052-16.536 7.933-7.258-6.68-10.779 3.994-19.76-9.716-2.848.297-18.594-12.931-19.133 20.118 1.993 22.829-29.375 10.866-35.746 1.495-23.027 18.78-38.63 34.432-53.072 8.539-19.602 27.807-18.863 44.483-21.187 19.066-1.76 8.846-22.016-7.246-16.533-43.458 3.29-88.219 19.49-116.114 54.428-4.945.016 15.132-21.985 22.311-26.374 34.411-27.672 81.24-37.62 124.383-30.062 28.443-.884 55.909-10.695 84.563-9.467 42.324-2.911 89.376 11.387 112.813 48.996 20.19 33.022 10.356 73.402-2.295 107.206-21.944 51.796-64.008 91.266-102.288 131.15-27.415 8.943-49.892 27.02-73.644 42.112-42.303 19.445-88.095 30.45-134.488 33.697-6.73-.062-14.012 3.352-20.43.383zm228.717-83.522c27.179-22.754-24.21 6.04 0 0zm-33.5-.503c-1.805-3.403-1.66 4.053 0 0zm26.965-214.603c25.014-1.279 52.171-7.028 74.271-11.486 15.31 9.495-2.862-27.358 13.387-7.426 2.64 9.18 22.845 18.48 14.03 2.22-15.737-22.477-40.889-36.692-68.057-39.43-22.694-3.778-46.286-3-68.447 3.388-26.332-8.276-27.56 20.252-3.4 25.79 10.924 10.078 20.636 30.761 38.216 26.944zM233.095 706.124c-1.746-7.594 7.8 2.18 0 0zm-89.166-7.944c-3.604-6.397 10.285 7.594 0 0zm128.687-.452c3.068-7.644 2.701 3.902 0 0zM131.57 685.646c.014-6.997 4.647 6.927 0 0zm-17.062-36.439c1.21-3.565.068 4.7 0 0zm15.94-28.617c-6.947-32.33 2.27-68.702 26.754-91.575-13.16 27.7-25.6 57.27-23.077 88.607.394 2.847-.65 8.76-3.677 2.968zm-21.02-8.8c2.298-4.224 2.298 4.226 0 0zm81.184-15c-4.555-8.883 2.288-20.495.42-3.958zm-8.183-10.149c-4.046-9.121 7.988-28.558 3.592-8.227.249 3.794-4.277 20.733-3.592 8.227zm-68.943-6.919c.695-14.804 11.521-14.447 0 0zm32.022-.515c1.21-3.565.068 4.7 0 0zm-20.504-11.18c7.787-14.217-11.395-7.587-1.471-18.837 14.182-29.464 36.11-54.527 59.213-77.31 4.252 3.055-7.094 29.222-16.473 33.183 4.844-23.131-11.067 1.853-9.262 12.48-2.073 10.642-9.946 12.268-8.06.763-13.55 2.313-4.064 42.49-13.577 18.901-13.262-6.098 1.548 28.978-10.37 30.82zm40.425-29.076c.781-11.338 21.247-26.028 5.757-7.383-1.495 1.479-2.859 10.882-5.757 7.383z" fill="#facb19" transform="rotate(19.983 422.312 643.114) scale(.72276)"/><path d="M217.96 731.681c-14.661.504-49.277-7.023-48.677-16.082 27.529 12.981 60.055 12.052 87.832.48 22.632-5.353 47.898-4.245 66.91-19.578 22.618-15.577 50.623-19.258 73.712-34.062 25.68-14.286 49.186-32.482 69.399-53.814-15.625-18.885-41.134-4.425-58.607 3.752-28.226 10.629-58.927 10.861-88.342 16.194-26.68 2.554-54.298 4.21-80.516-2.018-20.155-3.985-45.48-39.382-15.921-48.226 22.783 3.28 43.835-8.433 49.257-31.323-1.728-15.304-7.727-37.438-.212-49.594 33.323-10.87 66.439-32.662 78.498-67.101-2.117-10.8-18.666 15.768-13.024-3.478 10.62-18.39 15.507-56.534-17.147-48.422-42.105 1.927-84.627 19.226-112.303 51.726 32.953-45.838 94.853-61.64 148.536-52.435 49.684-6.737 103.226-19.69 150.98 2.498 40.816 15.686 63.146 63.807 52.315 105.552-12.762 65.625-60.233 116.524-106.371 161.702-23.684 18.417-52.524 28.633-76.51 46.74-35.593 20.328-76.645 29.691-116.995 35.048a375.743 375.743 0 0 1-42.814 2.441zm225.724-81.156c24.214-12.375-22.338-13.29-4.583 3.3l2.753-1.1zM343.179 514.847c10.078-9.072-7.289 2.955 0 0zm-5.933-7.556c20.293-4.09-5.617-16.855-2.618 1.188zm20.502-3.394c-8.495-3.614-1.187 9.631 0 0zm8.493-6.044c-5.715-2.372 2.637 7.755 0 0zm-36.128-3.228c15.403 8.834 22.95-29.861 17.273-21.465 4.496 11.55-23.625 8.385-17.273 21.465zm50.512-9.061c11.647-6.342 18.722-25.234 10.128-31.453 3.688-10.231-.768-22.21-5.528-6.558-6.941 9.332-23.488 41.325-7.72 40.98zm-2.732-11.111c-6.707-14.841 13.89-3.617 0 0zm-19.641 16.005c-3.283-5.325-.449 5.386 0 0zm-23.405-12.274c11.54-3.086-7.931 2.685 0 0zm27.316-10.143c23.758-.883 6.566-49.63-4.314-18.932-3.349 6.015-6.471 18.638 4.314 18.932zm41.816-23.738c6.293-7.32-2.002-5.054-1.713.442zm38.752-6.994c30.568-2.246 61.212-3.961 91.593-8.181 25.934 8.453 1.827-30.24-9.877-34.671-37.259-26.03-85.215-23.43-128.036-17.959-17.54-4.434-33.276 19.038-9.407 23.055 20.64 9.813 29.509 39.732 55.727 37.756zm-67.302-11.518c15.308-4.817-7.937-3.987 0 0zm20-4.7c-3.626-6.233 2.453 14.725 0 0zM143.987 698.259c-2.663-5.76 9.475 9.65 0 0zm-12.364-12.528c4.55-1.921 1.894 11.125 0 0zm-22.194-73.94c1.819-4.93 1.79 4.8 0 0zm4.032-32.069c-2.556-11.764 11.46-10.088 0 0zm22.003-7.525c-2.75-10.746 9.547-8.473 0 0zm-15.398-14.906c.533-13.89 12.134-8.468 0 0zm10.363-19.699c11.626-22.83 28.579-42.598 47.753-59.437-13.5 21.702-34.092 37.859-47.753 59.437zm71-98.683c-3.736-8.19 5.41 2.159 0 0zm128.547-19.902c-6.988-20.323 19.322-4.585 3.405 1.059l-3.405-1.059zm-18.081.16c-6.433-25.492 29.151-1.387 0 0z" fill="#eea903" transform="rotate(19.983 422.312 643.114) scale(.72276)"/><path d="M257.633 628.303c-11.494-2.896-23.839-5.511-33.258-13.116-3.314-10.09-11.07-17.976-15.484-27.597-1.94-11.886 16.299-5.273 23.784-7.002 15.626-.043 31.222-3.502 45.331-10.13 16.845-6.295 32.668-14.998 49.2-21.975 18.032-3.325 34.814-13.337 45.893-27.987 10.342-14.595 25.664-25.564 32.726-42.48 6.506-13.44 9.662-28.313 11.307-42.965 7.442 4.27 15.703 10.963 21.168 18.105 7.283 10.432 13.231 22.936 10.547 35.995-1.114 12.242-3.03 24.686-9.86 35.222-2.608 6.865-9.826 14.603-8.636 21.418 3.815-2.708 11.896-13.357 6.172-2.696-5.477 11.765-11.77 24.021-23.537 30.626-9.644 4.648-18.764 10.52-28.112 15.842-10.93 8.877-21.377 18.874-34.808 23.98-14.739 5.866-30.125 10.353-45.649 13.515-15.476 1.799-31.287 4.044-46.784 1.245zm194.494-124.012c1.96-11.28 1.261.522-.558 5l.558-5z" opacity=".893" fill="#9c1515" transform="rotate(19.983 422.312 643.114) scale(.72276)"/><path d="M261.468 625.411c-11.133-2.413-23.164-3.786-32.779-10.34-3.9-8.174-7.439-16.99-13.787-23.885-5.81-5.426-3.722-14 5.163-11.595 19.556.192 39.853-.218 57.915-8.58 17.325-5.548 33.594-13.893 50.545-20.382 18.8-3.157 36.735-13.14 48.014-28.688 11.343-12.255 25.248-22.856 31.546-38.928 5.787-11.95 7.906-25.103 9.403-38.132 1.935-11.942 14.363 4.9 18.74 8.767 3.051 11.354 13.726 20.266 11.064 32.98-.936 11.461-1.563 23.704-8.74 33.28-4.684 8.388-11.698 17.88-9.066 27.907 4.734-.183 10.89-11.85 4.026-1.904-6.769 11.533-14.563 24.356-28.05 28.694-8.728 6.051-18.062 11.526-26.712 17.842-16.201 15.039-37.412 23.477-59.043 26.801-18.83 5.668-38.665 7.366-58.24 6.163zm190.178-114.508c1.922-10.152 1.263.457-.55 4.495l.55-4.495z" fill="url(#hh)" transform="rotate(19.983 422.312 643.114) scale(.72276)"/></g><path d="M340.834 75.439l275.171 275.17c3.204 3.205 3.186 8.382-.042 11.61L476.995 501.187c-3.227 3.227-8.405 3.246-11.61.042-75.988-205.213-183.067-186.188-275.17-275.171-3.204-3.204-3.186-8.382.042-11.61L329.225 75.48c3.227-3.227 8.405-3.246 11.61-.041z" opacity=".7" fill="url(#hi)" fill-rule="evenodd"/></g></svg><svg height="28" width="28" viewBox="-2 -2 28 28" id="twitter" x="110" y="28" xmlns="http://www.w3.org/2000/svg"><path d="M16.263 9.423c.445-.28.786-.726.947-1.257-.417.261-.877.45-1.368.552A2.097 2.097 0 0 0 14.269 8c-1.19 0-2.153 1.017-2.153 2.272 0 .178.018.351.055.517-1.79-.095-3.377-.998-4.44-2.374a2.362 2.362 0 0 0-.292 1.143c0 .788.38 1.483.959 1.892a2.077 2.077 0 0 1-.976-.284v.027c0 1.102.742 2.02 1.728 2.228a2.026 2.026 0 0 1-.973.04c.274.902 1.07 1.56 2.012 1.577A4.182 4.182 0 0 1 7 15.98 5.874 5.874 0 0 0 10.302 17c3.963 0 6.129-3.462 6.129-6.464a6.64 6.64 0 0 0-.006-.294c.421-.32.787-.721 1.075-1.177-.386.181-.802.303-1.237.358z" fill-rule="evenodd"/><circle style="isolation:auto;mix-blend-mode:normal;solid-color:#000;solid-opacity:1;marker:none" cx="12" cy="12" r="11.5" color="#000" overflow="visible" opacity=".499" fill="none" stroke="#000"/></svg></svg>