<?xml version="1.0" encoding="utf-8" standalone="no"?>
<!DOCTYPE svg PUBLIC "-//W3C//DTD SVG 1.1//EN"
  "http://www.w3.org/Graphics/SVG/1.1/DTD/svg11.dtd">
<!-- Created with matplotlib (http://matplotlib.org/) -->
<svg height="217pt" version="1.1" viewBox="0 0 430 217" width="430pt" xmlns="http://www.w3.org/2000/svg" xmlns:xlink="http://www.w3.org/1999/xlink">
 <defs>
  <style type="text/css">
*{stroke-linecap:butt;stroke-linejoin:round;}
  </style>
 </defs>
 <g id="figure_1">
  <g id="axes_1">
   <g id="line2d_1">
    <path clip-path="url(#p6b6bd9946f)" d="M 29.381388 186.586738 
L 132.830044 186.440589 
L 154.19134 186.14829 
L 167.69344 185.709842 
L 177.649484 185.125245 
L 185.553946 184.394499 
L 191.162932 183.663753 
L 196.278648 182.786858 
L 200.927537 181.763813 
L 205.160329 180.594619 
L 209.030252 179.279276 
L 212.585709 177.817783 
L 215.868469 176.210142 
L 218.913844 174.456351 
L 221.751491 172.556411 
L 224.406322 170.510322 
L 226.899325 168.318083 
L 229.3861 165.833546 
L 231.835129 163.05671 
L 234.118698 160.133726 
L 236.355786 156.918442 
L 238.620783 153.264711 
L 240.803451 149.318682 
L 242.972623 144.934205 
L 245.109358 140.11128 
L 247.25593 134.703758 
L 249.387489 128.711639 
L 251.486564 122.134924 
L 253.581129 114.827462 
L 255.651816 106.789254 
L 257.717337 97.87415 
L 259.788205 87.936002 
L 261.843017 76.974809 
L 263.913425 64.698273 
L 265.975254 51.106394 
L 267.43408 40.583649 
L 267.43408 40.583649 
" style="fill:none;opacity:0.2;stroke:#0000ff;"/>
   </g>
   <g id="matplotlib.axis_1">
    <g id="xtick_1">
     <g id="line2d_2">
      <path clip-path="url(#p6b6bd9946f)" d="M 29.381388 197.16 
L 29.381388 22.2 
" style="fill:none;stroke:#cbcbcb;stroke-width:0.75;"/>
     </g>
     <g id="line2d_3"/>
     <g id="text_1">
      <!-- 10 -->
      <defs>
       <path d="M 33.890625 0 
L 28.03125 0 
L 28.03125 64.0625 
L 8.6875 56.890625 
L 8.6875 62.359375 
L 32.90625 71.34375 
L 33.890625 71.34375 
z
" id="Roboto-Light-31"/>
       <path d="M 49.5625 29.640625 
Q 49.5625 14.59375 44.046875 6.796875 
Q 38.53125 -0.984375 27.78125 -0.984375 
Q 17.234375 -0.984375 11.609375 6.65625 
Q 6 14.3125 5.859375 28.90625 
L 5.859375 41.65625 
Q 5.859375 56.640625 11.421875 64.359375 
Q 17 72.078125 27.6875 72.078125 
Q 38.234375 72.078125 43.796875 64.625 
Q 49.359375 57.171875 49.5625 42.671875 
z
M 43.703125 42.390625 
Q 43.703125 54.59375 39.71875 60.84375 
Q 35.75 67.09375 27.6875 67.09375 
Q 19.78125 67.09375 15.765625 60.984375 
Q 11.765625 54.890625 11.671875 42.96875 
L 11.671875 29 
Q 11.671875 16.84375 15.796875 10.390625 
Q 19.921875 3.953125 27.78125 3.953125 
Q 35.59375 3.953125 39.625 10.25 
Q 43.65625 16.546875 43.703125 28.71875 
z
" id="Roboto-Light-30"/>
      </defs>
      <g transform="translate(23.839201 208.16)scale(0.1 -0.1)">
       <use xlink:href="#Roboto-Light-31"/>
       <use x="55.419922" xlink:href="#Roboto-Light-30"/>
      </g>
     </g>
    </g>
    <g id="xtick_2">
     <g id="line2d_4">
      <path clip-path="url(#p6b6bd9946f)" d="M 74.288263 197.16 
L 74.288263 22.2 
" style="fill:none;stroke:#cbcbcb;stroke-width:0.75;"/>
     </g>
     <g id="line2d_5"/>
     <g id="text_2">
      <!-- 100 -->
      <g transform="translate(65.974982 208.16)scale(0.1 -0.1)">
       <use xlink:href="#Roboto-Light-31"/>
       <use x="55.419922" xlink:href="#Roboto-Light-30"/>
       <use x="110.839844" xlink:href="#Roboto-Light-30"/>
      </g>
     </g>
    </g>
    <g id="xtick_3">
     <g id="line2d_6">
      <path clip-path="url(#p6b6bd9946f)" d="M 119.195138 197.16 
L 119.195138 22.2 
" style="fill:none;stroke:#cbcbcb;stroke-width:0.75;"/>
     </g>
     <g id="line2d_7"/>
     <g id="text_3">
      <!-- 1 k -->
      <defs>
       <path id="Roboto-Light-20"/>
       <path d="M 20.171875 26.609375 
L 13.484375 20.171875 
L 13.484375 0 
L 7.625 0 
L 7.625 75 
L 13.484375 75 
L 13.484375 27 
L 19 32.953125 
L 39.203125 52.828125 
L 46.578125 52.828125 
L 24.171875 30.5625 
L 48.53125 0 
L 41.546875 0 
z
" id="Roboto-Light-6b"/>
      </defs>
      <g transform="translate(112.759982 208.16)scale(0.1 -0.1)">
       <use xlink:href="#Roboto-Light-31"/>
       <use x="55.419922" xlink:href="#Roboto-Light-20"/>
       <use x="79.736328" xlink:href="#Roboto-Light-6b"/>
      </g>
     </g>
    </g>
    <g id="xtick_4">
     <g id="line2d_8">
      <path clip-path="url(#p6b6bd9946f)" d="M 164.102013 197.16 
L 164.102013 22.2 
" style="fill:none;stroke:#cbcbcb;stroke-width:0.75;"/>
     </g>
     <g id="line2d_9"/>
     <g id="text_4">
      <!-- 10 k -->
      <g transform="translate(154.895763 208.16)scale(0.1 -0.1)">
       <use xlink:href="#Roboto-Light-31"/>
       <use x="55.419922" xlink:href="#Roboto-Light-30"/>
       <use x="110.839844" xlink:href="#Roboto-Light-20"/>
       <use x="135.15625" xlink:href="#Roboto-Light-6b"/>
      </g>
     </g>
    </g>
    <g id="xtick_5">
     <g id="line2d_10">
      <path clip-path="url(#p6b6bd9946f)" d="M 209.008888 197.16 
L 209.008888 22.2 
" style="fill:none;stroke:#cbcbcb;stroke-width:0.75;"/>
     </g>
     <g id="line2d_11"/>
     <g id="text_5">
      <!-- 100 k -->
      <g transform="translate(197.031545 208.16)scale(0.1 -0.1)">
       <use xlink:href="#Roboto-Light-31"/>
       <use x="55.419922" xlink:href="#Roboto-Light-30"/>
       <use x="110.839844" xlink:href="#Roboto-Light-30"/>
       <use x="166.259766" xlink:href="#Roboto-Light-20"/>
       <use x="190.576172" xlink:href="#Roboto-Light-6b"/>
      </g>
     </g>
    </g>
    <g id="xtick_6">
     <g id="line2d_12">
      <path clip-path="url(#p6b6bd9946f)" d="M 253.915763 197.16 
L 253.915763 22.2 
" style="fill:none;stroke:#cbcbcb;stroke-width:0.75;"/>
     </g>
     <g id="line2d_13"/>
     <g id="text_6">
      <!-- 1 M -->
      <defs>
       <path d="M 16.9375 71.09375 
L 43.171875 8.34375 
L 69.484375 71.09375 
L 77.484375 71.09375 
L 77.484375 0 
L 71.484375 0 
L 71.484375 30.953125 
L 71.96875 62.703125 
L 45.515625 0 
L 40.875 0 
L 14.5 62.453125 
L 14.984375 31.15625 
L 14.984375 0 
L 8.984375 0 
L 8.984375 71.09375 
z
" id="Roboto-Light-4d"/>
      </defs>
      <g transform="translate(245.602482 208.16)scale(0.1 -0.1)">
       <use xlink:href="#Roboto-Light-31"/>
       <use x="55.419922" xlink:href="#Roboto-Light-20"/>
       <use x="79.736328" xlink:href="#Roboto-Light-4d"/>
      </g>
     </g>
    </g>
    <g id="xtick_7">
     <g id="line2d_14"/>
    </g>
    <g id="xtick_8">
     <g id="line2d_15"/>
    </g>
    <g id="xtick_9">
     <g id="line2d_16"/>
    </g>
    <g id="xtick_10">
     <g id="line2d_17"/>
    </g>
    <g id="xtick_11">
     <g id="line2d_18"/>
    </g>
    <g id="xtick_12">
     <g id="line2d_19"/>
    </g>
    <g id="xtick_13">
     <g id="line2d_20"/>
    </g>
    <g id="xtick_14">
     <g id="line2d_21"/>
    </g>
    <g id="xtick_15">
     <g id="line2d_22"/>
    </g>
    <g id="xtick_16">
     <g id="line2d_23"/>
    </g>
    <g id="xtick_17">
     <g id="line2d_24"/>
    </g>
    <g id="xtick_18">
     <g id="line2d_25"/>
    </g>
    <g id="xtick_19">
     <g id="line2d_26"/>
    </g>
    <g id="xtick_20">
     <g id="line2d_27"/>
    </g>
    <g id="xtick_21">
     <g id="line2d_28"/>
    </g>
    <g id="xtick_22">
     <g id="line2d_29"/>
    </g>
    <g id="xtick_23">
     <g id="line2d_30"/>
    </g>
    <g id="xtick_24">
     <g id="line2d_31"/>
    </g>
    <g id="xtick_25">
     <g id="line2d_32"/>
    </g>
    <g id="xtick_26">
     <g id="line2d_33"/>
    </g>
    <g id="xtick_27">
     <g id="line2d_34"/>
    </g>
    <g id="xtick_28">
     <g id="line2d_35"/>
    </g>
    <g id="xtick_29">
     <g id="line2d_36"/>
    </g>
    <g id="xtick_30">
     <g id="line2d_37"/>
    </g>
    <g id="xtick_31">
     <g id="line2d_38"/>
    </g>
    <g id="xtick_32">
     <g id="line2d_39"/>
    </g>
    <g id="xtick_33">
     <g id="line2d_40"/>
    </g>
    <g id="xtick_34">
     <g id="line2d_41"/>
    </g>
    <g id="xtick_35">
     <g id="line2d_42"/>
    </g>
    <g id="xtick_36">
     <g id="line2d_43"/>
    </g>
    <g id="xtick_37">
     <g id="line2d_44"/>
    </g>
    <g id="xtick_38">
     <g id="line2d_45"/>
    </g>
    <g id="xtick_39">
     <g id="line2d_46"/>
    </g>
    <g id="xtick_40">
     <g id="line2d_47"/>
    </g>
    <g id="xtick_41">
     <g id="line2d_48"/>
    </g>
    <g id="xtick_42">
     <g id="line2d_49"/>
    </g>
    <g id="xtick_43">
     <g id="line2d_50"/>
    </g>
    <g id="xtick_44">
     <g id="line2d_51"/>
    </g>
    <g id="xtick_45">
     <g id="line2d_52"/>
    </g>
    <g id="xtick_46">
     <g id="line2d_53"/>
    </g>
    <g id="xtick_47">
     <g id="line2d_54"/>
    </g>
    <g id="xtick_48">
     <g id="line2d_55"/>
    </g>
    <g id="xtick_49">
     <g id="line2d_56"/>
    </g>
    <g id="xtick_50">
     <g id="line2d_57"/>
    </g>
   </g>
   <g id="matplotlib.axis_2">
    <g id="ytick_1">
     <g id="line2d_58">
      <path clip-path="url(#p6b6bd9946f)" d="M 27.326563 186.587468 
L 283.581108 186.587468 
" style="fill:none;stroke:#cbcbcb;stroke-width:0.75;"/>
     </g>
     <g id="line2d_59"/>
     <g id="text_7">
      <!-- 0 -->
      <g transform="translate(18.284375 190.337468)scale(0.1 -0.1)">
       <use xlink:href="#Roboto-Light-30"/>
      </g>
     </g>
    </g>
    <g id="ytick_2">
     <g id="line2d_60">
      <path clip-path="url(#p6b6bd9946f)" d="M 27.326563 148.145805 
L 283.581108 148.145805 
" style="fill:none;stroke:#cbcbcb;stroke-width:0.75;"/>
     </g>
     <g id="line2d_61"/>
     <g id="text_8">
      <!-- 1 M -->
      <g transform="translate(7.2 151.895805)scale(0.1 -0.1)">
       <use xlink:href="#Roboto-Light-31"/>
       <use x="55.419922" xlink:href="#Roboto-Light-20"/>
       <use x="79.736328" xlink:href="#Roboto-Light-4d"/>
      </g>
     </g>
    </g>
    <g id="ytick_3">
     <g id="line2d_62">
      <path clip-path="url(#p6b6bd9946f)" d="M 27.326563 109.704141 
L 283.581108 109.704141 
" style="fill:none;stroke:#cbcbcb;stroke-width:0.75;"/>
     </g>
     <g id="line2d_63"/>
     <g id="text_9">
      <!-- 2 M -->
      <defs>
       <path d="M 51.21875 0 
L 6.6875 0 
L 6.6875 4.5 
L 31.0625 32.125 
Q 37.109375 39.109375 39.453125 43.640625 
Q 41.796875 48.1875 41.796875 52.484375 
Q 41.796875 59.234375 37.84375 63.15625 
Q 33.890625 67.09375 26.953125 67.09375 
Q 19.78125 67.09375 15.359375 62.5 
Q 10.9375 57.90625 10.9375 50.59375 
L 5.125 50.59375 
Q 5.125 56.59375 7.828125 61.515625 
Q 10.546875 66.453125 15.546875 69.265625 
Q 20.5625 72.078125 26.953125 72.078125 
Q 36.71875 72.078125 42.203125 66.9375 
Q 47.703125 61.8125 47.703125 52.984375 
Q 47.703125 48 44.59375 42.09375 
Q 41.5 36.1875 33.6875 27.34375 
L 13.875 4.9375 
L 51.21875 4.9375 
z
" id="Roboto-Light-32"/>
      </defs>
      <g transform="translate(7.2 113.454141)scale(0.1 -0.1)">
       <use xlink:href="#Roboto-Light-32"/>
       <use x="55.419922" xlink:href="#Roboto-Light-20"/>
       <use x="79.736328" xlink:href="#Roboto-Light-4d"/>
      </g>
     </g>
    </g>
    <g id="ytick_4">
     <g id="line2d_64">
      <path clip-path="url(#p6b6bd9946f)" d="M 27.326563 71.262478 
L 283.581108 71.262478 
" style="fill:none;stroke:#cbcbcb;stroke-width:0.75;"/>
     </g>
     <g id="line2d_65"/>
     <g id="text_10">
      <!-- 3 M -->
      <defs>
       <path d="M 19.671875 38.71875 
L 25.734375 38.71875 
Q 30.765625 38.71875 34.515625 40.5 
Q 38.28125 42.28125 40.25 45.375 
Q 42.234375 48.484375 42.234375 52.546875 
Q 42.234375 59.375 38.375 63.234375 
Q 34.515625 67.09375 27.296875 67.09375 
Q 20.453125 67.09375 16.078125 63.0625 
Q 11.71875 59.03125 11.71875 52.4375 
L 5.859375 52.4375 
Q 5.859375 57.953125 8.640625 62.515625 
Q 11.421875 67.09375 16.359375 69.578125 
Q 21.296875 72.078125 27.296875 72.078125 
Q 36.96875 72.078125 42.53125 66.796875 
Q 48.09375 61.53125 48.09375 52.34375 
Q 48.09375 47.21875 44.84375 42.890625 
Q 41.609375 38.578125 35.9375 36.421875 
Q 42.578125 34.578125 46 30.046875 
Q 49.421875 25.53125 49.421875 19.28125 
Q 49.421875 10.15625 43.453125 4.578125 
Q 37.5 -0.984375 27.546875 -0.984375 
Q 21.1875 -0.984375 15.890625 1.5625 
Q 10.59375 4.109375 7.6875 8.671875 
Q 4.78125 13.234375 4.78125 19.28125 
L 10.640625 19.28125 
Q 10.640625 12.5 15.375 8.21875 
Q 20.125 3.953125 27.546875 3.953125 
Q 35.109375 3.953125 39.328125 7.828125 
Q 43.5625 11.71875 43.5625 19.09375 
Q 43.5625 26.21875 38.984375 29.96875 
Q 34.421875 33.734375 25.53125 33.734375 
L 19.671875 33.734375 
z
" id="Roboto-Light-33"/>
      </defs>
      <g transform="translate(7.2 75.012478)scale(0.1 -0.1)">
       <use xlink:href="#Roboto-Light-33"/>
       <use x="55.419922" xlink:href="#Roboto-Light-20"/>
       <use x="79.736328" xlink:href="#Roboto-Light-4d"/>
      </g>
     </g>
    </g>
    <g id="ytick_5">
     <g id="line2d_66">
      <path clip-path="url(#p6b6bd9946f)" d="M 27.326563 32.820815 
L 283.581108 32.820815 
" style="fill:none;stroke:#cbcbcb;stroke-width:0.75;"/>
     </g>
     <g id="line2d_67"/>
     <g id="text_11">
      <!-- 4 M -->
      <defs>
       <path d="M 42.578125 22.90625 
L 53.65625 22.90625 
L 53.65625 17.96875 
L 42.578125 17.96875 
L 42.578125 0 
L 36.71875 0 
L 36.71875 17.96875 
L 3.265625 17.96875 
L 3.265625 21.296875 
L 36.1875 71.09375 
L 42.578125 71.09375 
z
M 10.453125 22.90625 
L 36.71875 22.90625 
L 36.71875 63.53125 
L 34.125 59.03125 
z
" id="Roboto-Light-34"/>
      </defs>
      <g transform="translate(7.2 36.570815)scale(0.1 -0.1)">
       <use xlink:href="#Roboto-Light-34"/>
       <use x="55.419922" xlink:href="#Roboto-Light-20"/>
       <use x="79.736328" xlink:href="#Roboto-Light-4d"/>
      </g>
     </g>
    </g>
   </g>
   <g id="LineCollection_1">
    <path clip-path="url(#p6b6bd9946f)" d="M 78.330543 186.534188 
L 78.330543 186.534188 
" style="fill:none;stroke:#fdcab5;"/>
    <path clip-path="url(#p6b6bd9946f)" d="M 109.719102 186.543875 
L 109.719102 186.543875 
" style="fill:none;stroke:#fdcab5;"/>
    <path clip-path="url(#p6b6bd9946f)" d="M 123.237418 186.507548 
L 123.237418 186.507548 
" style="fill:none;stroke:#fdcab5;"/>
    <path clip-path="url(#p6b6bd9946f)" d="M 136.755734 186.430049 
L 136.755734 186.430049 
" style="fill:none;stroke:#fdcab5;"/>
    <path clip-path="url(#p6b6bd9946f)" d="M 154.625977 186.199976 
L 154.625977 186.199976 
" style="fill:none;stroke:#fdcab5;"/>
    <path clip-path="url(#p6b6bd9946f)" d="M 169.761205 185.814906 
L 169.761205 185.814906 
" style="fill:none;stroke:#fdcab5;"/>
    <path clip-path="url(#p6b6bd9946f)" d="M 183.279521 185.044765 
L 183.279521 185.044765 
" style="fill:none;stroke:#fdcab5;"/>
    <path clip-path="url(#p6b6bd9946f)" d="M 191.187229 184.277047 
L 191.187229 184.277047 
" style="fill:none;stroke:#fdcab5;"/>
    <path clip-path="url(#p6b6bd9946f)" d="M 196.797838 183.506907 
L 196.797838 183.506907 
" style="fill:none;stroke:#fdcab5;"/>
    <path clip-path="url(#p6b6bd9946f)" d="M 199.532852 182.739188 
L 199.532852 182.739188 
" style="fill:none;stroke:#fdcab5;"/>
    <path clip-path="url(#p6b6bd9946f)" d="M 213.051168 178.895752 
L 213.051168 178.895752 
" style="fill:none;stroke:#fdcab5;"/>
    <path clip-path="url(#p6b6bd9946f)" d="M 226.569484 171.206459 
L 226.569484 171.206459 
" style="fill:none;stroke:#fdcab5;"/>
    <path clip-path="url(#p6b6bd9946f)" d="M 244.439727 148.140999 
L 244.439727 148.140999 
" style="fill:none;stroke:#fdcab5;"/>
    <path clip-path="url(#p6b6bd9946f)" d="M 257.958043 109.699375 
L 257.958043 109.699375 
" style="fill:none;stroke:#fdcab5;"/>
    <path clip-path="url(#p6b6bd9946f)" d="M 271.476359 32.816125 
L 271.476359 32.816125 
" style="fill:none;stroke:#fdcab5;"/>
   </g>
   <g id="LineCollection_2">
    <path clip-path="url(#p6b6bd9946f)" d="M 76.309403 183.868368 
L 76.309403 183.868368 
" style="fill:none;stroke:#fc9777;"/>
    <path clip-path="url(#p6b6bd9946f)" d="M 107.697962 183.880477 
L 107.697962 183.880477 
" style="fill:none;stroke:#fc9777;"/>
    <path clip-path="url(#p6b6bd9946f)" d="M 121.216278 183.84415 
L 121.216278 183.84415 
" style="fill:none;stroke:#fc9777;"/>
    <path clip-path="url(#p6b6bd9946f)" d="M 134.734595 183.766651 
L 134.734595 183.766651 
" style="fill:none;stroke:#fc9777;"/>
    <path clip-path="url(#p6b6bd9946f)" d="M 152.604837 183.536578 
L 152.604837 183.536578 
" style="fill:none;stroke:#fc9777;"/>
    <path clip-path="url(#p6b6bd9946f)" d="M 166.931609 183.151508 
L 166.931609 183.151508 
" style="fill:none;stroke:#fc9777;"/>
    <path clip-path="url(#p6b6bd9946f)" d="M 180.449926 182.381368 
L 180.449926 182.381368 
" style="fill:none;stroke:#fc9777;"/>
    <path clip-path="url(#p6b6bd9946f)" d="M 188.357634 181.613649 
L 188.357634 181.613649 
" style="fill:none;stroke:#fc9777;"/>
    <path clip-path="url(#p6b6bd9946f)" d="M 193.968242 180.843509 
L 193.968242 180.843509 
" style="fill:none;stroke:#fc9777;"/>
    <path clip-path="url(#p6b6bd9946f)" d="M 197.511712 180.07579 
L 197.511712 180.07579 
" style="fill:none;stroke:#fc9777;"/>
    <path clip-path="url(#p6b6bd9946f)" d="M 211.030028 176.232354 
L 211.030028 176.232354 
" style="fill:none;stroke:#fc9777;"/>
    <path clip-path="url(#p6b6bd9946f)" d="M 224.548345 168.543061 
L 224.548345 168.543061 
" style="fill:none;stroke:#fc9777;"/>
    <path clip-path="url(#p6b6bd9946f)" d="M 242.418587 145.477602 
L 242.418587 145.477602 
" style="fill:none;stroke:#fc9777;"/>
    <path clip-path="url(#p6b6bd9946f)" d="M 255.936903 107.035977 
L 255.936903 107.035977 
" style="fill:none;stroke:#fc9777;"/>
    <path clip-path="url(#p6b6bd9946f)" d="M 269.45522 30.152727 
L 269.45522 30.152727 
" style="fill:none;stroke:#fc9777;"/>
   </g>
   <g id="LineCollection_3">
    <path clip-path="url(#p6b6bd9946f)" d="M 72.267124 183.868368 
L 72.267124 183.868368 
" style="fill:none;stroke:#f96245;"/>
    <path clip-path="url(#p6b6bd9946f)" d="M 103.655682 183.880477 
L 103.655682 183.880477 
" style="fill:none;stroke:#f96245;"/>
    <path clip-path="url(#p6b6bd9946f)" d="M 117.173999 183.84415 
L 117.173999 183.84415 
" style="fill:none;stroke:#f96245;"/>
    <path clip-path="url(#p6b6bd9946f)" d="M 130.692315 183.766651 
L 130.692315 183.766651 
" style="fill:none;stroke:#f96245;"/>
    <path clip-path="url(#p6b6bd9946f)" d="M 148.562557 183.536578 
L 148.562557 183.536578 
" style="fill:none;stroke:#f96245;"/>
    <path clip-path="url(#p6b6bd9946f)" d="M 161.272418 183.151508 
L 161.272418 183.151508 
" style="fill:none;stroke:#f96245;"/>
    <path clip-path="url(#p6b6bd9946f)" d="M 174.790734 182.381368 
L 174.790734 182.381368 
" style="fill:none;stroke:#f96245;"/>
    <path clip-path="url(#p6b6bd9946f)" d="M 182.698442 181.613649 
L 182.698442 181.613649 
" style="fill:none;stroke:#f96245;"/>
    <path clip-path="url(#p6b6bd9946f)" d="M 188.309051 180.843509 
L 188.309051 180.843509 
" style="fill:none;stroke:#f96245;"/>
    <path clip-path="url(#p6b6bd9946f)" d="M 193.469432 180.07579 
L 193.469432 180.07579 
" style="fill:none;stroke:#f96245;"/>
    <path clip-path="url(#p6b6bd9946f)" d="M 206.987749 176.232354 
L 206.987749 176.232354 
" style="fill:none;stroke:#f96245;"/>
    <path clip-path="url(#p6b6bd9946f)" d="M 220.506065 168.543061 
L 220.506065 168.543061 
" style="fill:none;stroke:#f96245;"/>
    <path clip-path="url(#p6b6bd9946f)" d="M 238.376307 145.477602 
L 238.376307 145.477602 
" style="fill:none;stroke:#f96245;"/>
    <path clip-path="url(#p6b6bd9946f)" d="M 251.894624 107.035977 
L 251.894624 107.035977 
" style="fill:none;stroke:#f96245;"/>
    <path clip-path="url(#p6b6bd9946f)" d="M 265.41294 30.152727 
L 265.41294 30.152727 
" style="fill:none;stroke:#f96245;"/>
   </g>
   <g id="LineCollection_4">
    <path clip-path="url(#p6b6bd9946f)" d="M 70.245984 186.531766 
L 70.245984 186.531766 
" style="fill:none;stroke:#de2b25;"/>
    <path clip-path="url(#p6b6bd9946f)" d="M 101.634543 186.543875 
L 101.634543 186.543875 
" style="fill:none;stroke:#de2b25;"/>
    <path clip-path="url(#p6b6bd9946f)" d="M 115.152859 186.507548 
L 115.152859 186.507548 
" style="fill:none;stroke:#de2b25;"/>
    <path clip-path="url(#p6b6bd9946f)" d="M 128.671175 186.430049 
L 128.671175 186.430049 
" style="fill:none;stroke:#de2b25;"/>
    <path clip-path="url(#p6b6bd9946f)" d="M 146.541418 186.199976 
L 146.541418 186.199976 
" style="fill:none;stroke:#de2b25;"/>
    <path clip-path="url(#p6b6bd9946f)" d="M 158.442822 185.814906 
L 158.442822 185.814906 
" style="fill:none;stroke:#de2b25;"/>
    <path clip-path="url(#p6b6bd9946f)" d="M 171.961139 185.044765 
L 171.961139 185.044765 
" style="fill:none;stroke:#de2b25;"/>
    <path clip-path="url(#p6b6bd9946f)" d="M 179.868847 184.277047 
L 179.868847 184.277047 
" style="fill:none;stroke:#de2b25;"/>
    <path clip-path="url(#p6b6bd9946f)" d="M 185.479455 183.506907 
L 185.479455 183.506907 
" style="fill:none;stroke:#de2b25;"/>
    <path clip-path="url(#p6b6bd9946f)" d="M 191.448293 182.739188 
L 191.448293 182.739188 
" style="fill:none;stroke:#de2b25;"/>
    <path clip-path="url(#p6b6bd9946f)" d="M 204.966609 178.895752 
L 204.966609 178.895752 
" style="fill:none;stroke:#de2b25;"/>
    <path clip-path="url(#p6b6bd9946f)" d="M 218.484925 171.206459 
L 218.484925 171.206459 
" style="fill:none;stroke:#de2b25;"/>
    <path clip-path="url(#p6b6bd9946f)" d="M 236.355168 148.140999 
L 236.355168 148.140999 
" style="fill:none;stroke:#de2b25;"/>
    <path clip-path="url(#p6b6bd9946f)" d="M 249.873484 109.699375 
L 249.873484 109.699375 
" style="fill:none;stroke:#de2b25;"/>
    <path clip-path="url(#p6b6bd9946f)" d="M 263.3918 32.816125 
L 263.3918 32.816125 
" style="fill:none;stroke:#de2b25;"/>
   </g>
   <g id="LineCollection_5">
    <path clip-path="url(#p6b6bd9946f)" d="M 72.267124 189.195164 
L 72.267124 189.195164 
" style="fill:none;stroke:#af1117;"/>
    <path clip-path="url(#p6b6bd9946f)" d="M 103.655682 189.207273 
L 103.655682 189.207273 
" style="fill:none;stroke:#af1117;"/>
    <path clip-path="url(#p6b6bd9946f)" d="M 117.173999 189.170945 
L 117.173999 189.170945 
" style="fill:none;stroke:#af1117;"/>
    <path clip-path="url(#p6b6bd9946f)" d="M 130.692315 189.093447 
L 130.692315 189.093447 
" style="fill:none;stroke:#af1117;"/>
    <path clip-path="url(#p6b6bd9946f)" d="M 148.562557 188.863374 
L 148.562557 188.863374 
" style="fill:none;stroke:#af1117;"/>
    <path clip-path="url(#p6b6bd9946f)" d="M 161.272418 188.478303 
L 161.272418 188.478303 
" style="fill:none;stroke:#af1117;"/>
    <path clip-path="url(#p6b6bd9946f)" d="M 174.790734 187.708163 
L 174.790734 187.708163 
" style="fill:none;stroke:#af1117;"/>
    <path clip-path="url(#p6b6bd9946f)" d="M 182.698442 186.940445 
L 182.698442 186.940445 
" style="fill:none;stroke:#af1117;"/>
    <path clip-path="url(#p6b6bd9946f)" d="M 188.309051 186.170304 
L 188.309051 186.170304 
" style="fill:none;stroke:#af1117;"/>
    <path clip-path="url(#p6b6bd9946f)" d="M 193.469432 185.402586 
L 193.469432 185.402586 
" style="fill:none;stroke:#af1117;"/>
    <path clip-path="url(#p6b6bd9946f)" d="M 206.987749 181.55915 
L 206.987749 181.55915 
" style="fill:none;stroke:#af1117;"/>
    <path clip-path="url(#p6b6bd9946f)" d="M 220.506065 173.869856 
L 220.506065 173.869856 
" style="fill:none;stroke:#af1117;"/>
    <path clip-path="url(#p6b6bd9946f)" d="M 238.376307 150.804397 
L 238.376307 150.804397 
" style="fill:none;stroke:#af1117;"/>
    <path clip-path="url(#p6b6bd9946f)" d="M 251.894624 112.362772 
L 251.894624 112.362772 
" style="fill:none;stroke:#af1117;"/>
    <path clip-path="url(#p6b6bd9946f)" d="M 265.41294 35.479523 
L 265.41294 35.479523 
" style="fill:none;stroke:#af1117;"/>
   </g>
   <g id="LineCollection_6">
    <path clip-path="url(#p6b6bd9946f)" d="M 76.309403 189.098291 
L 76.309403 189.098291 
" style="fill:none;stroke:#67000d;"/>
    <path clip-path="url(#p6b6bd9946f)" d="M 107.697962 189.197585 
L 107.697962 189.197585 
" style="fill:none;stroke:#67000d;"/>
    <path clip-path="url(#p6b6bd9946f)" d="M 121.216278 189.170945 
L 121.216278 189.170945 
" style="fill:none;stroke:#67000d;"/>
    <path clip-path="url(#p6b6bd9946f)" d="M 134.734595 189.093447 
L 134.734595 189.093447 
" style="fill:none;stroke:#67000d;"/>
    <path clip-path="url(#p6b6bd9946f)" d="M 152.604837 188.863374 
L 152.604837 188.863374 
" style="fill:none;stroke:#67000d;"/>
    <path clip-path="url(#p6b6bd9946f)" d="M 166.931609 188.478303 
L 166.931609 188.478303 
" style="fill:none;stroke:#67000d;"/>
    <path clip-path="url(#p6b6bd9946f)" d="M 180.449926 187.708163 
L 180.449926 187.708163 
" style="fill:none;stroke:#67000d;"/>
    <path clip-path="url(#p6b6bd9946f)" d="M 188.357634 186.940445 
L 188.357634 186.940445 
" style="fill:none;stroke:#67000d;"/>
    <path clip-path="url(#p6b6bd9946f)" d="M 193.968242 186.170304 
L 193.968242 186.170304 
" style="fill:none;stroke:#67000d;"/>
    <path clip-path="url(#p6b6bd9946f)" d="M 197.511712 185.402586 
L 197.511712 185.402586 
" style="fill:none;stroke:#67000d;"/>
    <path clip-path="url(#p6b6bd9946f)" d="M 211.030028 181.55915 
L 211.030028 181.55915 
" style="fill:none;stroke:#67000d;"/>
    <path clip-path="url(#p6b6bd9946f)" d="M 224.548345 173.869856 
L 224.548345 173.869856 
" style="fill:none;stroke:#67000d;"/>
    <path clip-path="url(#p6b6bd9946f)" d="M 242.418587 150.804397 
L 242.418587 150.804397 
" style="fill:none;stroke:#67000d;"/>
    <path clip-path="url(#p6b6bd9946f)" d="M 255.936903 112.362772 
L 255.936903 112.362772 
" style="fill:none;stroke:#67000d;"/>
    <path clip-path="url(#p6b6bd9946f)" d="M 269.45522 35.479523 
L 269.45522 35.479523 
" style="fill:none;stroke:#67000d;"/>
   </g>
   <g id="LineCollection_7">
    <path clip-path="url(#p6b6bd9946f)" d="M 162.530016 185.814906 
L 162.530016 185.814906 
" style="fill:none;stroke:#008000;"/>
    <path clip-path="url(#p6b6bd9946f)" d="M 176.048332 185.044765 
L 176.048332 185.044765 
" style="fill:none;stroke:#008000;"/>
    <path clip-path="url(#p6b6bd9946f)" d="M 183.95604 184.277047 
L 183.95604 184.277047 
" style="fill:none;stroke:#008000;"/>
    <path clip-path="url(#p6b6bd9946f)" d="M 189.566649 183.506907 
L 189.566649 183.506907 
" style="fill:none;stroke:#008000;"/>
    <path clip-path="url(#p6b6bd9946f)" d="M 195.490572 182.739188 
L 195.490572 182.739188 
" style="fill:none;stroke:#008000;"/>
    <path clip-path="url(#p6b6bd9946f)" d="M 209.008888 178.895752 
L 209.008888 178.895752 
" style="fill:none;stroke:#008000;"/>
    <path clip-path="url(#p6b6bd9946f)" d="M 222.527205 171.206459 
L 222.527205 171.206459 
" style="fill:none;stroke:#008000;"/>
    <path clip-path="url(#p6b6bd9946f)" d="M 240.397447 148.140999 
L 240.397447 148.140999 
" style="fill:none;stroke:#008000;"/>
    <path clip-path="url(#p6b6bd9946f)" d="M 253.915763 109.73328 
L 253.915763 109.73328 
" style="fill:none;stroke:#008000;"/>
    <path clip-path="url(#p6b6bd9946f)" d="M 267.43408 32.881514 
L 267.43408 32.881514 
" style="fill:none;stroke:#008000;"/>
   </g>
   <g id="LineCollection_8">
    <path clip-path="url(#p6b6bd9946f)" d="M 29.381388 186.582624 
L 29.381388 186.582624 
" style="fill:none;stroke:#0000ff;"/>
    <path clip-path="url(#p6b6bd9946f)" d="M 74.288263 186.575359 
L 74.288263 186.575359 
" style="fill:none;stroke:#0000ff;"/>
    <path clip-path="url(#p6b6bd9946f)" d="M 105.676822 186.543875 
L 105.676822 186.543875 
" style="fill:none;stroke:#0000ff;"/>
    <path clip-path="url(#p6b6bd9946f)" d="M 119.195138 186.507548 
L 119.195138 186.507548 
" style="fill:none;stroke:#0000ff;"/>
    <path clip-path="url(#p6b6bd9946f)" d="M 132.713455 186.430049 
L 132.713455 186.430049 
" style="fill:none;stroke:#0000ff;"/>
    <path clip-path="url(#p6b6bd9946f)" d="M 150.583697 186.202398 
L 150.583697 186.202398 
" style="fill:none;stroke:#0000ff;"/>
    <path clip-path="url(#p6b6bd9946f)" d="M 165.674011 185.827015 
L 165.674011 185.827015 
" style="fill:none;stroke:#0000ff;"/>
    <path clip-path="url(#p6b6bd9946f)" d="M 179.192327 185.095624 
L 179.192327 185.095624 
" style="fill:none;stroke:#0000ff;"/>
    <path clip-path="url(#p6b6bd9946f)" d="M 187.100036 184.395716 
L 187.100036 184.395716 
" style="fill:none;stroke:#0000ff;"/>
    <path clip-path="url(#p6b6bd9946f)" d="M 192.710644 183.661903 
L 192.710644 183.661903 
" style="fill:none;stroke:#0000ff;"/>
   </g>
   <g id="line2d_68">
    <defs>
     <path d="M 0 1.5 
C 0.397805 1.5 0.77937 1.341951 1.06066 1.06066 
C 1.341951 0.77937 1.5 0.397805 1.5 0 
C 1.5 -0.397805 1.341951 -0.77937 1.06066 -1.06066 
C 0.77937 -1.341951 0.397805 -1.5 0 -1.5 
C -0.397805 -1.5 -0.77937 -1.341951 -1.06066 -1.06066 
C -1.341951 -0.77937 -1.5 -0.397805 -1.5 0 
C -1.5 0.397805 -1.341951 0.77937 -1.06066 1.06066 
C -0.77937 1.341951 -0.397805 1.5 0 1.5 
z
" id="mb862ccea87" style="stroke:#fdcab5;"/>
    </defs>
    <g clip-path="url(#p6b6bd9946f)">
     <use style="fill:#fdcab5;stroke:#fdcab5;" x="78.330543" xlink:href="#mb862ccea87" y="186.534188"/>
     <use style="fill:#fdcab5;stroke:#fdcab5;" x="109.719102" xlink:href="#mb862ccea87" y="186.543875"/>
     <use style="fill:#fdcab5;stroke:#fdcab5;" x="123.237418" xlink:href="#mb862ccea87" y="186.507548"/>
     <use style="fill:#fdcab5;stroke:#fdcab5;" x="136.755734" xlink:href="#mb862ccea87" y="186.430049"/>
     <use style="fill:#fdcab5;stroke:#fdcab5;" x="154.625977" xlink:href="#mb862ccea87" y="186.199976"/>
     <use style="fill:#fdcab5;stroke:#fdcab5;" x="169.761205" xlink:href="#mb862ccea87" y="185.814906"/>
     <use style="fill:#fdcab5;stroke:#fdcab5;" x="183.279521" xlink:href="#mb862ccea87" y="185.044765"/>
     <use style="fill:#fdcab5;stroke:#fdcab5;" x="191.187229" xlink:href="#mb862ccea87" y="184.277047"/>
     <use style="fill:#fdcab5;stroke:#fdcab5;" x="196.797838" xlink:href="#mb862ccea87" y="183.506907"/>
     <use style="fill:#fdcab5;stroke:#fdcab5;" x="199.532852" xlink:href="#mb862ccea87" y="182.739188"/>
     <use style="fill:#fdcab5;stroke:#fdcab5;" x="213.051168" xlink:href="#mb862ccea87" y="178.895752"/>
     <use style="fill:#fdcab5;stroke:#fdcab5;" x="226.569484" xlink:href="#mb862ccea87" y="171.206459"/>
     <use style="fill:#fdcab5;stroke:#fdcab5;" x="244.439727" xlink:href="#mb862ccea87" y="148.140999"/>
     <use style="fill:#fdcab5;stroke:#fdcab5;" x="257.958043" xlink:href="#mb862ccea87" y="109.699375"/>
     <use style="fill:#fdcab5;stroke:#fdcab5;" x="271.476359" xlink:href="#mb862ccea87" y="32.816125"/>
    </g>
   </g>
   <g id="line2d_69">
    <defs>
     <path d="M 0 1.5 
C 0.397805 1.5 0.77937 1.341951 1.06066 1.06066 
C 1.341951 0.77937 1.5 0.397805 1.5 0 
C 1.5 -0.397805 1.341951 -0.77937 1.06066 -1.06066 
C 0.77937 -1.341951 0.397805 -1.5 0 -1.5 
C -0.397805 -1.5 -0.77937 -1.341951 -1.06066 -1.06066 
C -1.341951 -0.77937 -1.5 -0.397805 -1.5 0 
C -1.5 0.397805 -1.341951 0.77937 -1.06066 1.06066 
C -0.77937 1.341951 -0.397805 1.5 0 1.5 
z
" id="m6bf8058c64" style="stroke:#fc9777;"/>
    </defs>
    <g clip-path="url(#p6b6bd9946f)">
     <use style="fill:#fc9777;stroke:#fc9777;" x="76.309403" xlink:href="#m6bf8058c64" y="183.868368"/>
     <use style="fill:#fc9777;stroke:#fc9777;" x="107.697962" xlink:href="#m6bf8058c64" y="183.880477"/>
     <use style="fill:#fc9777;stroke:#fc9777;" x="121.216278" xlink:href="#m6bf8058c64" y="183.84415"/>
     <use style="fill:#fc9777;stroke:#fc9777;" x="134.734595" xlink:href="#m6bf8058c64" y="183.766651"/>
     <use style="fill:#fc9777;stroke:#fc9777;" x="152.604837" xlink:href="#m6bf8058c64" y="183.536578"/>
     <use style="fill:#fc9777;stroke:#fc9777;" x="166.931609" xlink:href="#m6bf8058c64" y="183.151508"/>
     <use style="fill:#fc9777;stroke:#fc9777;" x="180.449926" xlink:href="#m6bf8058c64" y="182.381368"/>
     <use style="fill:#fc9777;stroke:#fc9777;" x="188.357634" xlink:href="#m6bf8058c64" y="181.613649"/>
     <use style="fill:#fc9777;stroke:#fc9777;" x="193.968242" xlink:href="#m6bf8058c64" y="180.843509"/>
     <use style="fill:#fc9777;stroke:#fc9777;" x="197.511712" xlink:href="#m6bf8058c64" y="180.07579"/>
     <use style="fill:#fc9777;stroke:#fc9777;" x="211.030028" xlink:href="#m6bf8058c64" y="176.232354"/>
     <use style="fill:#fc9777;stroke:#fc9777;" x="224.548345" xlink:href="#m6bf8058c64" y="168.543061"/>
     <use style="fill:#fc9777;stroke:#fc9777;" x="242.418587" xlink:href="#m6bf8058c64" y="145.477602"/>
     <use style="fill:#fc9777;stroke:#fc9777;" x="255.936903" xlink:href="#m6bf8058c64" y="107.035977"/>
     <use style="fill:#fc9777;stroke:#fc9777;" x="269.45522" xlink:href="#m6bf8058c64" y="30.152727"/>
    </g>
   </g>
   <g id="line2d_70">
    <defs>
     <path d="M 0 1.5 
C 0.397805 1.5 0.77937 1.341951 1.06066 1.06066 
C 1.341951 0.77937 1.5 0.397805 1.5 0 
C 1.5 -0.397805 1.341951 -0.77937 1.06066 -1.06066 
C 0.77937 -1.341951 0.397805 -1.5 0 -1.5 
C -0.397805 -1.5 -0.77937 -1.341951 -1.06066 -1.06066 
C -1.341951 -0.77937 -1.5 -0.397805 -1.5 0 
C -1.5 0.397805 -1.341951 0.77937 -1.06066 1.06066 
C -0.77937 1.341951 -0.397805 1.5 0 1.5 
z
" id="m45c2f37c09" style="stroke:#f96245;"/>
    </defs>
    <g clip-path="url(#p6b6bd9946f)">
     <use style="fill:#f96245;stroke:#f96245;" x="72.267124" xlink:href="#m45c2f37c09" y="183.868368"/>
     <use style="fill:#f96245;stroke:#f96245;" x="103.655682" xlink:href="#m45c2f37c09" y="183.880477"/>
     <use style="fill:#f96245;stroke:#f96245;" x="117.173999" xlink:href="#m45c2f37c09" y="183.84415"/>
     <use style="fill:#f96245;stroke:#f96245;" x="130.692315" xlink:href="#m45c2f37c09" y="183.766651"/>
     <use style="fill:#f96245;stroke:#f96245;" x="148.562557" xlink:href="#m45c2f37c09" y="183.536578"/>
     <use style="fill:#f96245;stroke:#f96245;" x="161.272418" xlink:href="#m45c2f37c09" y="183.151508"/>
     <use style="fill:#f96245;stroke:#f96245;" x="174.790734" xlink:href="#m45c2f37c09" y="182.381368"/>
     <use style="fill:#f96245;stroke:#f96245;" x="182.698442" xlink:href="#m45c2f37c09" y="181.613649"/>
     <use style="fill:#f96245;stroke:#f96245;" x="188.309051" xlink:href="#m45c2f37c09" y="180.843509"/>
     <use style="fill:#f96245;stroke:#f96245;" x="193.469432" xlink:href="#m45c2f37c09" y="180.07579"/>
     <use style="fill:#f96245;stroke:#f96245;" x="206.987749" xlink:href="#m45c2f37c09" y="176.232354"/>
     <use style="fill:#f96245;stroke:#f96245;" x="220.506065" xlink:href="#m45c2f37c09" y="168.543061"/>
     <use style="fill:#f96245;stroke:#f96245;" x="238.376307" xlink:href="#m45c2f37c09" y="145.477602"/>
     <use style="fill:#f96245;stroke:#f96245;" x="251.894624" xlink:href="#m45c2f37c09" y="107.035977"/>
     <use style="fill:#f96245;stroke:#f96245;" x="265.41294" xlink:href="#m45c2f37c09" y="30.152727"/>
    </g>
   </g>
   <g id="line2d_71">
    <defs>
     <path d="M 0 1.5 
C 0.397805 1.5 0.77937 1.341951 1.06066 1.06066 
C 1.341951 0.77937 1.5 0.397805 1.5 0 
C 1.5 -0.397805 1.341951 -0.77937 1.06066 -1.06066 
C 0.77937 -1.341951 0.397805 -1.5 0 -1.5 
C -0.397805 -1.5 -0.77937 -1.341951 -1.06066 -1.06066 
C -1.341951 -0.77937 -1.5 -0.397805 -1.5 0 
C -1.5 0.397805 -1.341951 0.77937 -1.06066 1.06066 
C -0.77937 1.341951 -0.397805 1.5 0 1.5 
z
" id="m1fb6467834" style="stroke:#de2b25;"/>
    </defs>
    <g clip-path="url(#p6b6bd9946f)">
     <use style="fill:#de2b25;stroke:#de2b25;" x="70.245984" xlink:href="#m1fb6467834" y="186.531766"/>
     <use style="fill:#de2b25;stroke:#de2b25;" x="101.634543" xlink:href="#m1fb6467834" y="186.543875"/>
     <use style="fill:#de2b25;stroke:#de2b25;" x="115.152859" xlink:href="#m1fb6467834" y="186.507548"/>
     <use style="fill:#de2b25;stroke:#de2b25;" x="128.671175" xlink:href="#m1fb6467834" y="186.430049"/>
     <use style="fill:#de2b25;stroke:#de2b25;" x="146.541418" xlink:href="#m1fb6467834" y="186.199976"/>
     <use style="fill:#de2b25;stroke:#de2b25;" x="158.442822" xlink:href="#m1fb6467834" y="185.814906"/>
     <use style="fill:#de2b25;stroke:#de2b25;" x="171.961139" xlink:href="#m1fb6467834" y="185.044765"/>
     <use style="fill:#de2b25;stroke:#de2b25;" x="179.868847" xlink:href="#m1fb6467834" y="184.277047"/>
     <use style="fill:#de2b25;stroke:#de2b25;" x="185.479455" xlink:href="#m1fb6467834" y="183.506907"/>
     <use style="fill:#de2b25;stroke:#de2b25;" x="191.448293" xlink:href="#m1fb6467834" y="182.739188"/>
     <use style="fill:#de2b25;stroke:#de2b25;" x="204.966609" xlink:href="#m1fb6467834" y="178.895752"/>
     <use style="fill:#de2b25;stroke:#de2b25;" x="218.484925" xlink:href="#m1fb6467834" y="171.206459"/>
     <use style="fill:#de2b25;stroke:#de2b25;" x="236.355168" xlink:href="#m1fb6467834" y="148.140999"/>
     <use style="fill:#de2b25;stroke:#de2b25;" x="249.873484" xlink:href="#m1fb6467834" y="109.699375"/>
     <use style="fill:#de2b25;stroke:#de2b25;" x="263.3918" xlink:href="#m1fb6467834" y="32.816125"/>
    </g>
   </g>
   <g id="line2d_72">
    <defs>
     <path d="M 0 1.5 
C 0.397805 1.5 0.77937 1.341951 1.06066 1.06066 
C 1.341951 0.77937 1.5 0.397805 1.5 0 
C 1.5 -0.397805 1.341951 -0.77937 1.06066 -1.06066 
C 0.77937 -1.341951 0.397805 -1.5 0 -1.5 
C -0.397805 -1.5 -0.77937 -1.341951 -1.06066 -1.06066 
C -1.341951 -0.77937 -1.5 -0.397805 -1.5 0 
C -1.5 0.397805 -1.341951 0.77937 -1.06066 1.06066 
C -0.77937 1.341951 -0.397805 1.5 0 1.5 
z
" id="maf515db876" style="stroke:#af1117;"/>
    </defs>
    <g clip-path="url(#p6b6bd9946f)">
     <use style="fill:#af1117;stroke:#af1117;" x="72.267124" xlink:href="#maf515db876" y="189.195164"/>
     <use style="fill:#af1117;stroke:#af1117;" x="103.655682" xlink:href="#maf515db876" y="189.207273"/>
     <use style="fill:#af1117;stroke:#af1117;" x="117.173999" xlink:href="#maf515db876" y="189.170945"/>
     <use style="fill:#af1117;stroke:#af1117;" x="130.692315" xlink:href="#maf515db876" y="189.093447"/>
     <use style="fill:#af1117;stroke:#af1117;" x="148.562557" xlink:href="#maf515db876" y="188.863374"/>
     <use style="fill:#af1117;stroke:#af1117;" x="161.272418" xlink:href="#maf515db876" y="188.478303"/>
     <use style="fill:#af1117;stroke:#af1117;" x="174.790734" xlink:href="#maf515db876" y="187.708163"/>
     <use style="fill:#af1117;stroke:#af1117;" x="182.698442" xlink:href="#maf515db876" y="186.940445"/>
     <use style="fill:#af1117;stroke:#af1117;" x="188.309051" xlink:href="#maf515db876" y="186.170304"/>
     <use style="fill:#af1117;stroke:#af1117;" x="193.469432" xlink:href="#maf515db876" y="185.402586"/>
     <use style="fill:#af1117;stroke:#af1117;" x="206.987749" xlink:href="#maf515db876" y="181.55915"/>
     <use style="fill:#af1117;stroke:#af1117;" x="220.506065" xlink:href="#maf515db876" y="173.869856"/>
     <use style="fill:#af1117;stroke:#af1117;" x="238.376307" xlink:href="#maf515db876" y="150.804397"/>
     <use style="fill:#af1117;stroke:#af1117;" x="251.894624" xlink:href="#maf515db876" y="112.362772"/>
     <use style="fill:#af1117;stroke:#af1117;" x="265.41294" xlink:href="#maf515db876" y="35.479523"/>
    </g>
   </g>
   <g id="line2d_73">
    <defs>
     <path d="M 0 1.5 
C 0.397805 1.5 0.77937 1.341951 1.06066 1.06066 
C 1.341951 0.77937 1.5 0.397805 1.5 0 
C 1.5 -0.397805 1.341951 -0.77937 1.06066 -1.06066 
C 0.77937 -1.341951 0.397805 -1.5 0 -1.5 
C -0.397805 -1.5 -0.77937 -1.341951 -1.06066 -1.06066 
C -1.341951 -0.77937 -1.5 -0.397805 -1.5 0 
C -1.5 0.397805 -1.341951 0.77937 -1.06066 1.06066 
C -0.77937 1.341951 -0.397805 1.5 0 1.5 
z
" id="m5d50245cd4" style="stroke:#67000d;"/>
    </defs>
    <g clip-path="url(#p6b6bd9946f)">
     <use style="fill:#67000d;stroke:#67000d;" x="76.309403" xlink:href="#m5d50245cd4" y="189.098291"/>
     <use style="fill:#67000d;stroke:#67000d;" x="107.697962" xlink:href="#m5d50245cd4" y="189.197585"/>
     <use style="fill:#67000d;stroke:#67000d;" x="121.216278" xlink:href="#m5d50245cd4" y="189.170945"/>
     <use style="fill:#67000d;stroke:#67000d;" x="134.734595" xlink:href="#m5d50245cd4" y="189.093447"/>
     <use style="fill:#67000d;stroke:#67000d;" x="152.604837" xlink:href="#m5d50245cd4" y="188.863374"/>
     <use style="fill:#67000d;stroke:#67000d;" x="166.931609" xlink:href="#m5d50245cd4" y="188.478303"/>
     <use style="fill:#67000d;stroke:#67000d;" x="180.449926" xlink:href="#m5d50245cd4" y="187.708163"/>
     <use style="fill:#67000d;stroke:#67000d;" x="188.357634" xlink:href="#m5d50245cd4" y="186.940445"/>
     <use style="fill:#67000d;stroke:#67000d;" x="193.968242" xlink:href="#m5d50245cd4" y="186.170304"/>
     <use style="fill:#67000d;stroke:#67000d;" x="197.511712" xlink:href="#m5d50245cd4" y="185.402586"/>
     <use style="fill:#67000d;stroke:#67000d;" x="211.030028" xlink:href="#m5d50245cd4" y="181.55915"/>
     <use style="fill:#67000d;stroke:#67000d;" x="224.548345" xlink:href="#m5d50245cd4" y="173.869856"/>
     <use style="fill:#67000d;stroke:#67000d;" x="242.418587" xlink:href="#m5d50245cd4" y="150.804397"/>
     <use style="fill:#67000d;stroke:#67000d;" x="255.936903" xlink:href="#m5d50245cd4" y="112.362772"/>
     <use style="fill:#67000d;stroke:#67000d;" x="269.45522" xlink:href="#m5d50245cd4" y="35.479523"/>
    </g>
   </g>
   <g id="line2d_74">
    <defs>
     <path d="M 0 1.5 
C 0.397805 1.5 0.77937 1.341951 1.06066 1.06066 
C 1.341951 0.77937 1.5 0.397805 1.5 0 
C 1.5 -0.397805 1.341951 -0.77937 1.06066 -1.06066 
C 0.77937 -1.341951 0.397805 -1.5 0 -1.5 
C -0.397805 -1.5 -0.77937 -1.341951 -1.06066 -1.06066 
C -1.341951 -0.77937 -1.5 -0.397805 -1.5 0 
C -1.5 0.397805 -1.341951 0.77937 -1.06066 1.06066 
C -0.77937 1.341951 -0.397805 1.5 0 1.5 
z
" id="mb41344e128" style="stroke:#008000;"/>
    </defs>
    <g clip-path="url(#p6b6bd9946f)">
     <use style="fill:#008000;stroke:#008000;" x="162.530016" xlink:href="#mb41344e128" y="185.814906"/>
     <use style="fill:#008000;stroke:#008000;" x="176.048332" xlink:href="#mb41344e128" y="185.044765"/>
     <use style="fill:#008000;stroke:#008000;" x="183.95604" xlink:href="#mb41344e128" y="184.277047"/>
     <use style="fill:#008000;stroke:#008000;" x="189.566649" xlink:href="#mb41344e128" y="183.506907"/>
     <use style="fill:#008000;stroke:#008000;" x="195.490572" xlink:href="#mb41344e128" y="182.739188"/>
     <use style="fill:#008000;stroke:#008000;" x="209.008888" xlink:href="#mb41344e128" y="178.895752"/>
     <use style="fill:#008000;stroke:#008000;" x="222.527205" xlink:href="#mb41344e128" y="171.206459"/>
     <use style="fill:#008000;stroke:#008000;" x="240.397447" xlink:href="#mb41344e128" y="148.140999"/>
     <use style="fill:#008000;stroke:#008000;" x="253.915763" xlink:href="#mb41344e128" y="109.73328"/>
     <use style="fill:#008000;stroke:#008000;" x="267.43408" xlink:href="#mb41344e128" y="32.881514"/>
    </g>
   </g>
   <g id="line2d_75">
    <defs>
     <path d="M 0 1.5 
C 0.397805 1.5 0.77937 1.341951 1.06066 1.06066 
C 1.341951 0.77937 1.5 0.397805 1.5 0 
C 1.5 -0.397805 1.341951 -0.77937 1.06066 -1.06066 
C 0.77937 -1.341951 0.397805 -1.5 0 -1.5 
C -0.397805 -1.5 -0.77937 -1.341951 -1.06066 -1.06066 
C -1.341951 -0.77937 -1.5 -0.397805 -1.5 0 
C -1.5 0.397805 -1.341951 0.77937 -1.06066 1.06066 
C -0.77937 1.341951 -0.397805 1.5 0 1.5 
z
" id="m942dc614a5" style="stroke:#0000ff;"/>
    </defs>
    <g clip-path="url(#p6b6bd9946f)">
     <use style="fill:#0000ff;stroke:#0000ff;" x="29.381388" xlink:href="#m942dc614a5" y="186.582624"/>
     <use style="fill:#0000ff;stroke:#0000ff;" x="74.288263" xlink:href="#m942dc614a5" y="186.575359"/>
     <use style="fill:#0000ff;stroke:#0000ff;" x="105.676822" xlink:href="#m942dc614a5" y="186.543875"/>
     <use style="fill:#0000ff;stroke:#0000ff;" x="119.195138" xlink:href="#m942dc614a5" y="186.507548"/>
     <use style="fill:#0000ff;stroke:#0000ff;" x="132.713455" xlink:href="#m942dc614a5" y="186.430049"/>
     <use style="fill:#0000ff;stroke:#0000ff;" x="150.583697" xlink:href="#m942dc614a5" y="186.202398"/>
     <use style="fill:#0000ff;stroke:#0000ff;" x="165.674011" xlink:href="#m942dc614a5" y="185.827015"/>
     <use style="fill:#0000ff;stroke:#0000ff;" x="179.192327" xlink:href="#m942dc614a5" y="185.095624"/>
     <use style="fill:#0000ff;stroke:#0000ff;" x="187.100036" xlink:href="#m942dc614a5" y="184.395716"/>
     <use style="fill:#0000ff;stroke:#0000ff;" x="192.710644" xlink:href="#m942dc614a5" y="183.661903"/>
    </g>
   </g>
   <g id="patch_3">
    <path d="M 27.326563 197.16 
L 27.326563 22.2 
" style="fill:none;"/>
   </g>
   <g id="patch_4">
    <path d="M 283.581108 197.16 
L 283.581108 22.2 
" style="fill:none;"/>
   </g>
   <g id="patch_5">
    <path d="M 27.326563 197.16 
L 283.581108 197.16 
" style="fill:none;"/>
   </g>
   <g id="patch_6">
    <path d="M 27.326563 22.2 
L 283.581108 22.2 
" style="fill:none;"/>
   </g>
   <g id="text_12">
    <!-- nodes -->
    <defs>
     <path d="M 17.09375 52.828125 
L 17.4375 46.734375 
Q 23.296875 53.8125 32.8125 53.8125 
Q 49.3125 53.8125 49.609375 34.90625 
L 49.609375 0 
L 37.75 0 
L 37.75 34.234375 
Q 37.75 39.265625 35.578125 41.671875 
Q 33.40625 44.09375 28.46875 44.09375 
Q 21.296875 44.09375 17.78125 37.59375 
L 17.78125 0 
L 5.90625 0 
L 5.90625 52.828125 
z
" id="Roboto-Medium-6e"/>
     <path d="M 3.859375 26.90625 
Q 3.859375 34.671875 6.9375 40.890625 
Q 10.015625 47.125 15.578125 50.46875 
Q 21.140625 53.8125 28.375 53.8125 
Q 39.0625 53.8125 45.71875 46.921875 
Q 52.390625 40.046875 52.9375 28.65625 
L 52.984375 25.875 
Q 52.984375 18.0625 49.96875 11.90625 
Q 46.96875 5.765625 41.375 2.390625 
Q 35.796875 -0.984375 28.46875 -0.984375 
Q 17.28125 -0.984375 10.5625 6.46875 
Q 3.859375 13.921875 3.859375 26.3125 
z
M 15.71875 25.875 
Q 15.71875 17.71875 19.09375 13.109375 
Q 22.46875 8.5 28.46875 8.5 
Q 34.46875 8.5 37.8125 13.1875 
Q 41.15625 17.875 41.15625 26.90625 
Q 41.15625 34.90625 37.71875 39.59375 
Q 34.28125 44.28125 28.375 44.28125 
Q 22.5625 44.28125 19.140625 39.671875 
Q 15.71875 35.0625 15.71875 25.875 
" id="Roboto-Medium-6f"/>
     <path d="M 3.859375 26.8125 
Q 3.859375 39.015625 9.515625 46.40625 
Q 15.1875 53.8125 24.703125 53.8125 
Q 33.109375 53.8125 38.28125 47.953125 
L 38.28125 75 
L 50.140625 75 
L 50.140625 0 
L 39.40625 0 
L 38.8125 5.46875 
Q 33.5 -0.984375 24.609375 -0.984375 
Q 15.328125 -0.984375 9.59375 6.484375 
Q 3.859375 13.96875 3.859375 26.8125 
M 15.71875 25.78125 
Q 15.71875 17.71875 18.8125 13.203125 
Q 21.921875 8.6875 27.640625 8.6875 
Q 34.90625 8.6875 38.28125 15.1875 
L 38.28125 37.75 
Q 35.015625 44.09375 27.734375 44.09375 
Q 21.96875 44.09375 18.84375 39.53125 
Q 15.71875 34.96875 15.71875 25.78125 
" id="Roboto-Medium-64"/>
     <path d="M 29.34375 -0.984375 
Q 18.0625 -0.984375 11.046875 6.125 
Q 4.046875 13.234375 4.046875 25.046875 
L 4.046875 26.515625 
Q 4.046875 34.421875 7.09375 40.640625 
Q 10.15625 46.875 15.671875 50.34375 
Q 21.1875 53.8125 27.984375 53.8125 
Q 38.765625 53.8125 44.640625 46.921875 
Q 50.53125 40.046875 50.53125 27.4375 
L 50.53125 22.65625 
L 16.015625 22.65625 
Q 16.546875 16.109375 20.375 12.296875 
Q 24.21875 8.5 30.03125 8.5 
Q 38.1875 8.5 43.3125 15.09375 
L 49.703125 8.984375 
Q 46.53125 4.25 41.234375 1.625 
Q 35.9375 -0.984375 29.34375 -0.984375 
M 27.9375 44.28125 
Q 23.046875 44.28125 20.046875 40.859375 
Q 17.046875 37.453125 16.21875 31.34375 
L 38.8125 31.34375 
L 38.8125 32.234375 
Q 38.421875 38.1875 35.640625 41.234375 
Q 32.859375 44.28125 27.9375 44.28125 
" id="Roboto-Medium-65"/>
     <path d="M 35.6875 14.359375 
Q 35.6875 17.53125 33.078125 19.1875 
Q 30.46875 20.84375 24.40625 22.109375 
Q 18.359375 23.390625 14.3125 25.34375 
Q 5.421875 29.640625 5.421875 37.796875 
Q 5.421875 44.625 11.171875 49.21875 
Q 16.9375 53.8125 25.828125 53.8125 
Q 35.296875 53.8125 41.125 49.125 
Q 46.96875 44.4375 46.96875 36.96875 
L 35.109375 36.96875 
Q 35.109375 40.375 32.5625 42.640625 
Q 30.03125 44.921875 25.828125 44.921875 
Q 21.921875 44.921875 19.453125 43.109375 
Q 17 41.3125 17 38.28125 
Q 17 35.546875 19.28125 34.03125 
Q 21.578125 32.515625 28.5625 30.96875 
Q 35.546875 29.4375 39.515625 27.3125 
Q 43.5 25.203125 45.421875 22.21875 
Q 47.359375 19.234375 47.359375 14.984375 
Q 47.359375 7.859375 41.453125 3.4375 
Q 35.546875 -0.984375 25.984375 -0.984375 
Q 19.484375 -0.984375 14.40625 1.359375 
Q 9.328125 3.71875 6.484375 7.8125 
Q 3.65625 11.921875 3.65625 16.65625 
L 15.1875 16.65625 
Q 15.4375 12.453125 18.359375 10.171875 
Q 21.296875 7.90625 26.125 7.90625 
Q 30.8125 7.90625 33.25 9.6875 
Q 35.6875 11.46875 35.6875 14.359375 
" id="Roboto-Medium-73"/>
    </defs>
    <g transform="translate(138.997898 16.2)scale(0.12 -0.12)">
     <use xlink:href="#Roboto-Medium-6e"/>
     <use x="55.615234" xlink:href="#Roboto-Medium-6f"/>
     <use x="112.548828" xlink:href="#Roboto-Medium-64"/>
     <use x="168.994141" xlink:href="#Roboto-Medium-65"/>
     <use x="222.65625" xlink:href="#Roboto-Medium-73"/>
    </g>
   </g>
   <g id="legend_1">
    <g id="LineCollection_9">
     <path d="M 323.206563 35.2 
L 323.206563 25.2 
" style="fill:none;stroke:#fdcab5;"/>
    </g>
    <g id="line2d_76"/>
    <g id="line2d_77">
     <g>
      <use style="fill:#fdcab5;stroke:#fdcab5;" x="323.206563" xlink:href="#mb862ccea87" y="30.2"/>
     </g>
    </g>
    <g id="text_13">
     <!-- /48, density 0.001 -->
     <defs>
      <path d="M 6.78125 -6.109375 
L 1.46875 -6.109375 
L 31.15625 71.09375 
L 36.421875 71.09375 
z
" id="Roboto-Light-2f"/>
      <path d="M 48.578125 52.78125 
Q 48.578125 47.265625 45.359375 42.890625 
Q 42.140625 38.53125 36.859375 36.46875 
Q 43.015625 34.375 46.71875 29.6875 
Q 50.4375 25 50.4375 18.84375 
Q 50.4375 9.71875 44.234375 4.359375 
Q 38.03125 -0.984375 27.828125 -0.984375 
Q 17.53125 -0.984375 11.34375 4.34375 
Q 5.171875 9.671875 5.171875 18.84375 
Q 5.171875 24.90625 8.734375 29.640625 
Q 12.3125 34.375 18.5 36.46875 
Q 13.234375 38.53125 10.109375 42.890625 
Q 6.984375 47.265625 6.984375 52.78125 
Q 6.984375 61.625 12.671875 66.84375 
Q 18.359375 72.078125 27.734375 72.078125 
Q 37.109375 72.078125 42.84375 66.796875 
Q 48.578125 61.53125 48.578125 52.78125 
M 44.578125 18.796875 
Q 44.578125 25.4375 39.84375 29.703125 
Q 35.109375 33.984375 27.734375 33.984375 
Q 20.359375 33.984375 15.671875 29.78125 
Q 10.984375 25.59375 10.984375 18.796875 
Q 10.984375 12.015625 15.515625 7.984375 
Q 20.0625 3.953125 27.828125 3.953125 
Q 35.40625 3.953125 39.984375 7.953125 
Q 44.578125 11.96875 44.578125 18.796875 
M 42.71875 52.828125 
Q 42.71875 58.9375 38.5 63.015625 
Q 34.28125 67.09375 27.734375 67.09375 
Q 21.09375 67.09375 16.96875 63.15625 
Q 12.84375 59.234375 12.84375 52.828125 
Q 12.84375 46.578125 16.96875 42.765625 
Q 21.09375 38.96875 27.78125 38.96875 
Q 34.375 38.96875 38.546875 42.796875 
Q 42.71875 46.625 42.71875 52.828125 
" id="Roboto-Light-38"/>
      <path d="M 6.390625 -13.28125 
L 2.9375 -10.75 
Q 7.375 -4.78125 7.515625 1.609375 
L 7.515625 9.1875 
L 13.234375 9.1875 
L 13.234375 3.078125 
Q 13.234375 -7.078125 6.390625 -13.28125 
" id="Roboto-Light-2c"/>
      <path d="M 5.28125 26.90625 
Q 5.28125 39.203125 10.765625 46.5 
Q 16.265625 53.8125 25.6875 53.8125 
Q 36.375 53.8125 42 45.359375 
L 42 75 
L 47.796875 75 
L 47.796875 0 
L 42.328125 0 
L 42.09375 7.03125 
Q 36.46875 -0.984375 25.59375 -0.984375 
Q 16.453125 -0.984375 10.859375 6.359375 
Q 5.28125 13.71875 5.28125 26.21875 
z
M 11.1875 25.875 
Q 11.1875 15.765625 15.234375 9.9375 
Q 19.28125 4.109375 26.65625 4.109375 
Q 37.453125 4.109375 42 13.625 
L 42 38.421875 
Q 37.453125 48.734375 26.765625 48.734375 
Q 19.390625 48.734375 15.28125 42.9375 
Q 11.1875 37.15625 11.1875 25.875 
" id="Roboto-Light-64"/>
      <path d="M 28.078125 -0.984375 
Q 21.34375 -0.984375 15.890625 2.34375 
Q 10.453125 5.671875 7.421875 11.59375 
Q 4.390625 17.53125 4.390625 24.90625 
L 4.390625 27 
Q 4.390625 34.625 7.34375 40.71875 
Q 10.296875 46.828125 15.5625 50.3125 
Q 20.84375 53.8125 27 53.8125 
Q 36.625 53.8125 42.265625 47.234375 
Q 47.90625 40.671875 47.90625 29.296875 
L 47.90625 26.03125 
L 10.203125 26.03125 
L 10.203125 24.90625 
Q 10.203125 15.921875 15.359375 9.9375 
Q 20.515625 3.953125 28.328125 3.953125 
Q 33.015625 3.953125 36.59375 5.65625 
Q 40.1875 7.375 43.109375 11.140625 
L 46.78125 8.34375 
Q 40.328125 -0.984375 28.078125 -0.984375 
M 27 48.828125 
Q 20.40625 48.828125 15.890625 43.984375 
Q 11.375 39.15625 10.40625 31 
L 42.09375 31 
L 42.09375 31.640625 
Q 41.84375 39.265625 37.734375 44.046875 
Q 33.640625 48.828125 27 48.828125 
" id="Roboto-Light-65"/>
      <path d="M 13.1875 52.828125 
L 13.375 43.796875 
Q 16.359375 48.6875 20.796875 51.25 
Q 25.25 53.8125 30.609375 53.8125 
Q 39.109375 53.8125 43.25 49.015625 
Q 47.40625 44.234375 47.46875 34.671875 
L 47.46875 0 
L 41.65625 0 
L 41.65625 34.71875 
Q 41.609375 41.796875 38.640625 45.265625 
Q 35.6875 48.734375 29.203125 48.734375 
Q 23.78125 48.734375 19.609375 45.328125 
Q 15.4375 41.9375 13.421875 36.1875 
L 13.421875 0 
L 7.625 0 
L 7.625 52.828125 
z
" id="Roboto-Light-6e"/>
      <path d="M 39.265625 13.421875 
Q 39.265625 17.78125 35.765625 20.40625 
Q 32.28125 23.046875 25.25 24.53125 
Q 18.21875 26.03125 14.328125 27.953125 
Q 10.453125 29.890625 8.5625 32.671875 
Q 6.6875 35.453125 6.6875 39.40625 
Q 6.6875 45.65625 11.90625 49.734375 
Q 17.140625 53.8125 25.296875 53.8125 
Q 34.125 53.8125 39.46875 49.4375 
Q 44.828125 45.0625 44.828125 38.03125 
L 38.96875 38.03125 
Q 38.96875 42.671875 35.078125 45.75 
Q 31.203125 48.828125 25.296875 48.828125 
Q 19.53125 48.828125 16.03125 46.265625 
Q 12.546875 43.703125 12.546875 39.59375 
Q 12.546875 35.640625 15.453125 33.46875 
Q 18.359375 31.296875 26.046875 29.484375 
Q 33.734375 27.6875 37.5625 25.625 
Q 41.40625 23.578125 43.265625 20.703125 
Q 45.125 17.828125 45.125 13.71875 
Q 45.125 7.03125 39.71875 3.015625 
Q 34.328125 -0.984375 25.640625 -0.984375 
Q 16.40625 -0.984375 10.671875 3.484375 
Q 4.9375 7.953125 4.9375 14.796875 
L 10.796875 14.796875 
Q 11.140625 9.671875 15.109375 6.8125 
Q 19.09375 3.953125 25.640625 3.953125 
Q 31.734375 3.953125 35.5 6.640625 
Q 39.265625 9.328125 39.265625 13.421875 
" id="Roboto-Light-73"/>
      <path d="M 14.15625 0 
L 8.296875 0 
L 8.296875 52.828125 
L 14.15625 52.828125 
z
M 7.28125 68.109375 
Q 7.28125 69.78125 8.34375 70.921875 
Q 9.421875 72.078125 11.28125 72.078125 
Q 13.140625 72.078125 14.234375 70.921875 
Q 15.328125 69.78125 15.328125 68.109375 
Q 15.328125 66.453125 14.234375 65.328125 
Q 13.140625 64.203125 11.28125 64.203125 
Q 9.421875 64.203125 8.34375 65.328125 
Q 7.28125 66.453125 7.28125 68.109375 
" id="Roboto-Light-69"/>
      <path d="M 16.703125 66.359375 
L 16.703125 52.828125 
L 27.640625 52.828125 
L 27.640625 48.046875 
L 16.703125 48.046875 
L 16.703125 12.84375 
Q 16.703125 8.453125 18.28125 6.296875 
Q 19.875 4.15625 23.578125 4.15625 
Q 25.046875 4.15625 28.328125 4.640625 
L 28.5625 -0.140625 
Q 26.265625 -0.984375 22.3125 -0.984375 
Q 16.3125 -0.984375 13.578125 2.5 
Q 10.84375 6 10.84375 12.796875 
L 10.84375 48.046875 
L 1.125 48.046875 
L 1.125 52.828125 
L 10.84375 52.828125 
L 10.84375 66.359375 
z
" id="Roboto-Light-74"/>
      <path d="M 24.359375 8.40625 
L 39.796875 52.828125 
L 46.09375 52.828125 
L 23.53125 -8.984375 
L 22.359375 -11.71875 
Q 18.015625 -21.34375 8.9375 -21.34375 
Q 6.84375 -21.34375 4.4375 -20.65625 
L 4.390625 -15.828125 
L 7.421875 -16.109375 
Q 11.71875 -16.109375 14.375 -13.984375 
Q 17.046875 -11.859375 18.890625 -6.6875 
L 21.484375 0.4375 
L 1.5625 52.828125 
L 7.953125 52.828125 
z
" id="Roboto-Light-79"/>
      <path d="M 7.078125 3.515625 
Q 7.078125 5.21875 8.171875 6.421875 
Q 9.28125 7.625 11.234375 7.625 
Q 13.1875 7.625 14.3125 6.421875 
Q 15.4375 5.21875 15.4375 3.515625 
Q 15.4375 1.8125 14.3125 0.703125 
Q 13.1875 -0.390625 11.234375 -0.390625 
Q 9.28125 -0.390625 8.171875 0.703125 
Q 7.078125 1.8125 7.078125 3.515625 
" id="Roboto-Light-2e"/>
     </defs>
     <g transform="translate(341.206563 33.7)scale(0.1 -0.1)">
      <use xlink:href="#Roboto-Light-2f"/>
      <use x="39.697266" xlink:href="#Roboto-Light-34"/>
      <use x="95.117188" xlink:href="#Roboto-Light-38"/>
      <use x="150.537109" xlink:href="#Roboto-Light-2c"/>
      <use x="169.677734" xlink:href="#Roboto-Light-20"/>
      <use x="193.994141" xlink:href="#Roboto-Light-64"/>
      <use x="249.560547" xlink:href="#Roboto-Light-65"/>
      <use x="301.220703" xlink:href="#Roboto-Light-6e"/>
      <use x="356.152344" xlink:href="#Roboto-Light-73"/>
      <use x="406.787109" xlink:href="#Roboto-Light-69"/>
      <use x="429.199219" xlink:href="#Roboto-Light-74"/>
      <use x="461.328125" xlink:href="#Roboto-Light-79"/>
      <use x="508.837891" xlink:href="#Roboto-Light-20"/>
      <use x="533.154297" xlink:href="#Roboto-Light-30"/>
      <use x="588.574219" xlink:href="#Roboto-Light-2e"/>
      <use x="612.451172" xlink:href="#Roboto-Light-30"/>
      <use x="667.871094" xlink:href="#Roboto-Light-30"/>
      <use x="723.291016" xlink:href="#Roboto-Light-31"/>
     </g>
    </g>
    <g id="LineCollection_10">
     <path d="M 323.206563 49.834375 
L 323.206563 39.834375 
" style="fill:none;stroke:#fc9777;"/>
    </g>
    <g id="line2d_78"/>
    <g id="line2d_79">
     <g>
      <use style="fill:#fc9777;stroke:#fc9777;" x="323.206563" xlink:href="#m6bf8058c64" y="44.834375"/>
     </g>
    </g>
    <g id="text_14">
     <!-- /48, density 0.01 -->
     <g transform="translate(341.206563 48.334375)scale(0.1 -0.1)">
      <use xlink:href="#Roboto-Light-2f"/>
      <use x="39.697266" xlink:href="#Roboto-Light-34"/>
      <use x="95.117188" xlink:href="#Roboto-Light-38"/>
      <use x="150.537109" xlink:href="#Roboto-Light-2c"/>
      <use x="169.677734" xlink:href="#Roboto-Light-20"/>
      <use x="193.994141" xlink:href="#Roboto-Light-64"/>
      <use x="249.560547" xlink:href="#Roboto-Light-65"/>
      <use x="301.220703" xlink:href="#Roboto-Light-6e"/>
      <use x="356.152344" xlink:href="#Roboto-Light-73"/>
      <use x="406.787109" xlink:href="#Roboto-Light-69"/>
      <use x="429.199219" xlink:href="#Roboto-Light-74"/>
      <use x="461.328125" xlink:href="#Roboto-Light-79"/>
      <use x="508.837891" xlink:href="#Roboto-Light-20"/>
      <use x="533.154297" xlink:href="#Roboto-Light-30"/>
      <use x="588.574219" xlink:href="#Roboto-Light-2e"/>
      <use x="612.451172" xlink:href="#Roboto-Light-30"/>
      <use x="667.871094" xlink:href="#Roboto-Light-31"/>
     </g>
    </g>
    <g id="LineCollection_11">
     <path d="M 323.206563 64.46875 
L 323.206563 54.46875 
" style="fill:none;stroke:#f96245;"/>
    </g>
    <g id="line2d_80"/>
    <g id="line2d_81">
     <g>
      <use style="fill:#f96245;stroke:#f96245;" x="323.206563" xlink:href="#m45c2f37c09" y="59.46875"/>
     </g>
    </g>
    <g id="text_15">
     <!-- /48, density 0.05 -->
     <defs>
      <path d="M 10.640625 36.421875 
L 14.109375 71.09375 
L 49.65625 71.09375 
L 49.65625 65.671875 
L 19.140625 65.671875 
L 16.65625 41.65625 
Q 22.359375 45.5625 30.03125 45.5625 
Q 39.65625 45.5625 45.359375 39.3125 
Q 51.078125 33.0625 51.078125 22.65625 
Q 51.078125 11.421875 45.5 5.21875 
Q 39.9375 -0.984375 29.828125 -0.984375 
Q 20.5625 -0.984375 14.796875 4.1875 
Q 9.03125 9.375 8.203125 18.703125 
L 13.8125 18.703125 
Q 14.65625 11.421875 18.75 7.6875 
Q 22.859375 3.953125 29.828125 3.953125 
Q 37.453125 3.953125 41.328125 8.78125 
Q 45.21875 13.625 45.21875 22.5625 
Q 45.21875 30.375 40.875 35.296875 
Q 36.53125 40.234375 29 40.234375 
Q 24.859375 40.234375 21.78125 39.1875 
Q 18.703125 38.140625 15.28125 35.109375 
z
" id="Roboto-Light-35"/>
     </defs>
     <g transform="translate(341.206563 62.96875)scale(0.1 -0.1)">
      <use xlink:href="#Roboto-Light-2f"/>
      <use x="39.697266" xlink:href="#Roboto-Light-34"/>
      <use x="95.117188" xlink:href="#Roboto-Light-38"/>
      <use x="150.537109" xlink:href="#Roboto-Light-2c"/>
      <use x="169.677734" xlink:href="#Roboto-Light-20"/>
      <use x="193.994141" xlink:href="#Roboto-Light-64"/>
      <use x="249.560547" xlink:href="#Roboto-Light-65"/>
      <use x="301.220703" xlink:href="#Roboto-Light-6e"/>
      <use x="356.152344" xlink:href="#Roboto-Light-73"/>
      <use x="406.787109" xlink:href="#Roboto-Light-69"/>
      <use x="429.199219" xlink:href="#Roboto-Light-74"/>
      <use x="461.328125" xlink:href="#Roboto-Light-79"/>
      <use x="508.837891" xlink:href="#Roboto-Light-20"/>
      <use x="533.154297" xlink:href="#Roboto-Light-30"/>
      <use x="588.574219" xlink:href="#Roboto-Light-2e"/>
      <use x="612.451172" xlink:href="#Roboto-Light-30"/>
      <use x="667.871094" xlink:href="#Roboto-Light-35"/>
     </g>
    </g>
    <g id="LineCollection_12">
     <path d="M 323.206563 79.103125 
L 323.206563 69.103125 
" style="fill:none;stroke:#de2b25;"/>
    </g>
    <g id="line2d_82"/>
    <g id="line2d_83">
     <g>
      <use style="fill:#de2b25;stroke:#de2b25;" x="323.206563" xlink:href="#m1fb6467834" y="74.103125"/>
     </g>
    </g>
    <g id="text_16">
     <!-- /48, density 0.1 -->
     <g transform="translate(341.206563 77.603125)scale(0.1 -0.1)">
      <use xlink:href="#Roboto-Light-2f"/>
      <use x="39.697266" xlink:href="#Roboto-Light-34"/>
      <use x="95.117188" xlink:href="#Roboto-Light-38"/>
      <use x="150.537109" xlink:href="#Roboto-Light-2c"/>
      <use x="169.677734" xlink:href="#Roboto-Light-20"/>
      <use x="193.994141" xlink:href="#Roboto-Light-64"/>
      <use x="249.560547" xlink:href="#Roboto-Light-65"/>
      <use x="301.220703" xlink:href="#Roboto-Light-6e"/>
      <use x="356.152344" xlink:href="#Roboto-Light-73"/>
      <use x="406.787109" xlink:href="#Roboto-Light-69"/>
      <use x="429.199219" xlink:href="#Roboto-Light-74"/>
      <use x="461.328125" xlink:href="#Roboto-Light-79"/>
      <use x="508.837891" xlink:href="#Roboto-Light-20"/>
      <use x="533.154297" xlink:href="#Roboto-Light-30"/>
      <use x="588.574219" xlink:href="#Roboto-Light-2e"/>
      <use x="612.451172" xlink:href="#Roboto-Light-31"/>
     </g>
    </g>
    <g id="LineCollection_13">
     <path d="M 323.206563 93.7375 
L 323.206563 83.7375 
" style="fill:none;stroke:#af1117;"/>
    </g>
    <g id="line2d_84"/>
    <g id="line2d_85">
     <g>
      <use style="fill:#af1117;stroke:#af1117;" x="323.206563" xlink:href="#maf515db876" y="88.7375"/>
     </g>
    </g>
    <g id="text_17">
     <!-- /48, density 0.5 -->
     <g transform="translate(341.206563 92.2375)scale(0.1 -0.1)">
      <use xlink:href="#Roboto-Light-2f"/>
      <use x="39.697266" xlink:href="#Roboto-Light-34"/>
      <use x="95.117188" xlink:href="#Roboto-Light-38"/>
      <use x="150.537109" xlink:href="#Roboto-Light-2c"/>
      <use x="169.677734" xlink:href="#Roboto-Light-20"/>
      <use x="193.994141" xlink:href="#Roboto-Light-64"/>
      <use x="249.560547" xlink:href="#Roboto-Light-65"/>
      <use x="301.220703" xlink:href="#Roboto-Light-6e"/>
      <use x="356.152344" xlink:href="#Roboto-Light-73"/>
      <use x="406.787109" xlink:href="#Roboto-Light-69"/>
      <use x="429.199219" xlink:href="#Roboto-Light-74"/>
      <use x="461.328125" xlink:href="#Roboto-Light-79"/>
      <use x="508.837891" xlink:href="#Roboto-Light-20"/>
      <use x="533.154297" xlink:href="#Roboto-Light-30"/>
      <use x="588.574219" xlink:href="#Roboto-Light-2e"/>
      <use x="612.451172" xlink:href="#Roboto-Light-35"/>
     </g>
    </g>
    <g id="LineCollection_14">
     <path d="M 323.206563 108.371875 
L 323.206563 98.371875 
" style="fill:none;stroke:#67000d;"/>
    </g>
    <g id="line2d_86"/>
    <g id="line2d_87">
     <g>
      <use style="fill:#67000d;stroke:#67000d;" x="323.206563" xlink:href="#m5d50245cd4" y="103.371875"/>
     </g>
    </g>
    <g id="text_18">
     <!-- /48, density 1.0 -->
     <g transform="translate(341.206563 106.871875)scale(0.1 -0.1)">
      <use xlink:href="#Roboto-Light-2f"/>
      <use x="39.697266" xlink:href="#Roboto-Light-34"/>
      <use x="95.117188" xlink:href="#Roboto-Light-38"/>
      <use x="150.537109" xlink:href="#Roboto-Light-2c"/>
      <use x="169.677734" xlink:href="#Roboto-Light-20"/>
      <use x="193.994141" xlink:href="#Roboto-Light-64"/>
      <use x="249.560547" xlink:href="#Roboto-Light-65"/>
      <use x="301.220703" xlink:href="#Roboto-Light-6e"/>
      <use x="356.152344" xlink:href="#Roboto-Light-73"/>
      <use x="406.787109" xlink:href="#Roboto-Light-69"/>
      <use x="429.199219" xlink:href="#Roboto-Light-74"/>
      <use x="461.328125" xlink:href="#Roboto-Light-79"/>
      <use x="508.837891" xlink:href="#Roboto-Light-20"/>
      <use x="533.154297" xlink:href="#Roboto-Light-31"/>
      <use x="588.574219" xlink:href="#Roboto-Light-2e"/>
      <use x="612.451172" xlink:href="#Roboto-Light-30"/>
     </g>
    </g>
    <g id="LineCollection_15">
     <path d="M 323.206563 123.475 
L 323.206563 113.475 
" style="fill:none;stroke:#008000;"/>
    </g>
    <g id="line2d_88"/>
    <g id="line2d_89">
     <g>
      <use style="fill:#008000;stroke:#008000;" x="323.206563" xlink:href="#mb41344e128" y="118.475"/>
     </g>
    </g>
    <g id="text_19">
     <!-- /128 (random) -->
     <defs>
      <path d="M 6.84375 28.71875 
Q 6.84375 39.359375 9.578125 49.390625 
Q 12.3125 59.421875 17.578125 67.75 
Q 22.859375 76.078125 28.90625 79.6875 
L 30.328125 75.734375 
Q 27.09375 73.4375 23.921875 69.046875 
Q 20.75 64.65625 18.25 58.59375 
Q 15.765625 52.546875 14.234375 45 
Q 12.703125 37.453125 12.703125 27.875 
Q 12.703125 17.671875 15.015625 8.25 
Q 17.328125 -1.171875 21.375 -8.375 
Q 25.4375 -15.578125 30.328125 -19.1875 
L 28.90625 -22.953125 
Q 22.703125 -19.234375 17.421875 -10.953125 
Q 12.15625 -2.6875 9.5 7.25 
Q 6.84375 17.1875 6.84375 28.71875 
" id="Roboto-Light-28"/>
      <path d="M 32.03125 47.859375 
Q 30.171875 48.1875 28.078125 48.1875 
Q 22.609375 48.1875 18.828125 45.140625 
Q 15.046875 42.09375 13.421875 36.28125 
L 13.421875 0 
L 7.625 0 
L 7.625 52.828125 
L 13.328125 52.828125 
L 13.421875 44.4375 
Q 18.0625 53.8125 28.328125 53.8125 
Q 30.765625 53.8125 32.171875 53.171875 
z
" id="Roboto-Light-72"/>
      <path d="M 40.96875 0 
Q 40.09375 2.484375 39.84375 7.375 
Q 36.765625 3.375 32 1.1875 
Q 27.25 -0.984375 21.921875 -0.984375 
Q 14.3125 -0.984375 9.59375 3.265625 
Q 4.890625 7.515625 4.890625 14.015625 
Q 4.890625 21.734375 11.296875 26.21875 
Q 17.71875 30.71875 29.203125 30.71875 
L 39.796875 30.71875 
L 39.796875 36.71875 
Q 39.796875 42.390625 36.296875 45.625 
Q 32.8125 48.875 26.125 48.875 
Q 20.015625 48.875 16.015625 45.75 
Q 12.015625 42.625 12.015625 38.234375 
L 6.15625 38.28125 
Q 6.15625 44.578125 12.015625 49.1875 
Q 17.875 53.8125 26.421875 53.8125 
Q 35.25 53.8125 40.34375 49.390625 
Q 45.453125 44.96875 45.609375 37.0625 
L 45.609375 12.0625 
Q 45.609375 4.390625 47.21875 0.59375 
L 47.21875 0 
z
M 22.609375 4.203125 
Q 28.46875 4.203125 33.078125 7.03125 
Q 37.703125 9.859375 39.796875 14.59375 
L 39.796875 26.21875 
L 29.34375 26.21875 
Q 20.609375 26.125 15.671875 23.015625 
Q 10.75 19.921875 10.75 14.5 
Q 10.75 10.0625 14.03125 7.125 
Q 17.328125 4.203125 22.609375 4.203125 
" id="Roboto-Light-61"/>
      <path d="M 4.390625 27.203125 
Q 4.390625 34.8125 7.34375 40.90625 
Q 10.296875 47.015625 15.6875 50.40625 
Q 21.09375 53.8125 27.9375 53.8125 
Q 38.484375 53.8125 45.015625 46.40625 
Q 51.5625 39.015625 51.5625 26.8125 
L 51.5625 25.59375 
Q 51.5625 17.921875 48.609375 11.796875 
Q 45.65625 5.671875 40.28125 2.34375 
Q 34.90625 -0.984375 28.03125 -0.984375 
Q 17.53125 -0.984375 10.953125 6.40625 
Q 4.390625 13.8125 4.390625 26.03125 
z
M 10.25 25.59375 
Q 10.25 16.109375 15.15625 10.03125 
Q 20.0625 3.953125 28.03125 3.953125 
Q 35.9375 3.953125 40.84375 10.03125 
Q 45.75 16.109375 45.75 26.078125 
L 45.75 27.203125 
Q 45.75 33.25 43.5 38.28125 
Q 41.265625 43.3125 37.203125 46.0625 
Q 33.15625 48.828125 27.9375 48.828125 
Q 20.125 48.828125 15.1875 42.703125 
Q 10.25 36.578125 10.25 26.65625 
z
" id="Roboto-Light-6f"/>
      <path d="M 12.9375 52.828125 
L 13.140625 44.234375 
Q 16.0625 49.03125 20.453125 51.421875 
Q 24.859375 53.8125 30.21875 53.8125 
Q 42.71875 53.8125 46.09375 43.5625 
Q 48.921875 48.484375 53.65625 51.140625 
Q 58.40625 53.8125 64.109375 53.8125 
Q 81.109375 53.8125 81.453125 35.25 
L 81.453125 0 
L 75.59375 0 
L 75.59375 34.8125 
Q 75.53125 41.890625 72.53125 45.3125 
Q 69.53125 48.734375 62.75 48.734375 
Q 56.453125 48.640625 52.09375 44.65625 
Q 47.75 40.671875 47.265625 34.96875 
L 47.265625 0 
L 41.40625 0 
L 41.40625 35.25 
Q 41.359375 42.046875 38.203125 45.390625 
Q 35.0625 48.734375 28.515625 48.734375 
Q 23 48.734375 19.046875 45.578125 
Q 15.09375 42.4375 13.1875 36.234375 
L 13.1875 0 
L 7.328125 0 
L 7.328125 52.828125 
z
" id="Roboto-Light-6d"/>
      <path d="M 25.09375 27.984375 
Q 25.09375 17.234375 22.4375 7.296875 
Q 19.78125 -2.640625 14.546875 -10.890625 
Q 9.328125 -19.140625 3.03125 -22.953125 
L 1.609375 -19.1875 
Q 6.390625 -15.765625 10.46875 -8.59375 
Q 14.546875 -1.421875 16.890625 8.125 
Q 19.234375 17.671875 19.234375 28.859375 
Q 19.234375 38.96875 16.890625 48.359375 
Q 14.546875 57.765625 10.421875 65.15625 
Q 6.296875 72.5625 1.609375 75.921875 
L 3.03125 79.6875 
Q 9.1875 75.921875 14.40625 67.671875 
Q 19.625 59.421875 22.359375 49.359375 
Q 25.09375 39.3125 25.09375 27.984375 
" id="Roboto-Light-29"/>
     </defs>
     <g transform="translate(341.206563 121.975)scale(0.1 -0.1)">
      <use xlink:href="#Roboto-Light-2f"/>
      <use x="39.697266" xlink:href="#Roboto-Light-31"/>
      <use x="95.117188" xlink:href="#Roboto-Light-32"/>
      <use x="150.537109" xlink:href="#Roboto-Light-38"/>
      <use x="205.957031" xlink:href="#Roboto-Light-20"/>
      <use x="230.273438" xlink:href="#Roboto-Light-28"/>
      <use x="262.158203" xlink:href="#Roboto-Light-72"/>
      <use x="295.800781" xlink:href="#Roboto-Light-61"/>
      <use x="349.365234" xlink:href="#Roboto-Light-6e"/>
      <use x="404.296875" xlink:href="#Roboto-Light-64"/>
      <use x="459.863281" xlink:href="#Roboto-Light-6f"/>
      <use x="515.869141" xlink:href="#Roboto-Light-6d"/>
      <use x="604.492188" xlink:href="#Roboto-Light-29"/>
     </g>
    </g>
    <g id="LineCollection_16">
     <path d="M 323.206563 138.270313 
L 323.206563 128.270313 
" style="fill:none;stroke:#0000ff;"/>
    </g>
    <g id="line2d_90"/>
    <g id="line2d_91">
     <g>
      <use style="fill:#0000ff;stroke:#0000ff;" x="323.206563" xlink:href="#m942dc614a5" y="133.270313"/>
     </g>
    </g>
    <g id="text_20">
     <!-- from full view -->
     <defs>
      <path d="M 11.8125 0 
L 11.8125 48.046875 
L 3.078125 48.046875 
L 3.078125 52.828125 
L 11.8125 52.828125 
L 11.8125 59.234375 
Q 11.8125 67.328125 15.9375 71.671875 
Q 20.0625 76.03125 27.4375 76.03125 
Q 30.765625 76.03125 33.640625 75.203125 
L 33.203125 70.3125 
Q 30.765625 70.90625 27.875 70.90625 
Q 23.046875 70.90625 20.359375 67.890625 
Q 17.671875 64.890625 17.671875 59.375 
L 17.671875 52.828125 
L 30.28125 52.828125 
L 30.28125 48.046875 
L 17.671875 48.046875 
L 17.671875 0 
z
" id="Roboto-Light-66"/>
      <path d="M 41.609375 6.6875 
Q 36.328125 -0.984375 24.75 -0.984375 
Q 16.3125 -0.984375 11.90625 3.921875 
Q 7.515625 8.84375 7.421875 18.453125 
L 7.421875 52.828125 
L 13.234375 52.828125 
L 13.234375 19.1875 
Q 13.234375 4.109375 25.4375 4.109375 
Q 38.140625 4.109375 41.5 14.59375 
L 41.5 52.828125 
L 47.359375 52.828125 
L 47.359375 0 
L 41.703125 0 
z
" id="Roboto-Light-75"/>
      <path d="M 14.15625 0 
L 8.296875 0 
L 8.296875 75 
L 14.15625 75 
z
" id="Roboto-Light-6c"/>
      <path d="M 24.078125 8.0625 
L 40.140625 52.828125 
L 46.140625 52.828125 
L 26.421875 0 
L 21.6875 0 
L 1.859375 52.828125 
L 7.859375 52.828125 
z
" id="Roboto-Light-76"/>
      <path d="M 20.265625 12.15625 
L 21.140625 7.625 
L 22.3125 12.40625 
L 35.015625 52.828125 
L 39.984375 52.828125 
L 52.546875 12.75 
L 53.90625 7.171875 
L 55.03125 12.3125 
L 65.875 52.828125 
L 71.921875 52.828125 
L 56.546875 0 
L 51.5625 0 
L 37.984375 41.890625 
L 37.359375 44.78125 
L 36.71875 41.84375 
L 23.390625 0 
L 18.40625 0 
L 3.078125 52.828125 
L 9.078125 52.828125 
z
" id="Roboto-Light-77"/>
     </defs>
     <g transform="translate(341.206563 136.770313)scale(0.1 -0.1)">
      <use xlink:href="#Roboto-Light-66"/>
      <use x="33.105469" xlink:href="#Roboto-Light-72"/>
      <use x="66.748047" xlink:href="#Roboto-Light-6f"/>
      <use x="122.753906" xlink:href="#Roboto-Light-6d"/>
      <use x="211.376953" xlink:href="#Roboto-Light-20"/>
      <use x="235.693359" xlink:href="#Roboto-Light-66"/>
      <use x="268.798828" xlink:href="#Roboto-Light-75"/>
      <use x="323.730469" xlink:href="#Roboto-Light-6c"/>
      <use x="346.142578" xlink:href="#Roboto-Light-6c"/>
      <use x="368.554688" xlink:href="#Roboto-Light-20"/>
      <use x="392.871094" xlink:href="#Roboto-Light-76"/>
      <use x="440.966797" xlink:href="#Roboto-Light-69"/>
      <use x="463.378906" xlink:href="#Roboto-Light-65"/>
      <use x="515.039062" xlink:href="#Roboto-Light-77"/>
     </g>
    </g>
   </g>
  </g>
 </g>
 <defs>
  <clipPath id="p6b6bd9946f">
   <rect height="174.96" width="256.254545" x="27.326563" y="22.2"/>
  </clipPath>
 </defs>
</svg>
