<?xml version="1.0" encoding="utf-8" standalone="no"?>
<!DOCTYPE svg PUBLIC "-//W3C//DTD SVG 1.1//EN"
  "http://www.w3.org/Graphics/SVG/1.1/DTD/svg11.dtd">
<!-- Created with matplotlib (http://matplotlib.org/) -->
<svg height="217pt" version="1.1" viewBox="0 0 432 217" width="432pt" xmlns="http://www.w3.org/2000/svg" xmlns:xlink="http://www.w3.org/1999/xlink">
 <defs>
  <style type="text/css">
*{stroke-linecap:butt;stroke-linejoin:round;}
  </style>
 </defs>
 <g id="figure_1">
  <g id="axes_1">
   <g id="line2d_1">
    <path clip-path="url(#p33baa54261)" d="M 31.334513 186.867932 
L 134.783169 186.71106 
L 156.144465 186.397316 
L 169.646565 185.9267 
L 179.602609 185.299212 
L 186.16198 184.671723 
L 192.11595 183.887363 
L 197.467008 182.94613 
L 202.280621 181.848026 
L 206.138232 180.749921 
L 209.776757 179.494945 
L 213.193396 178.083096 
L 216.397503 176.514375 
L 219.403663 174.788782 
L 222.228103 172.906318 
L 224.886907 170.866981 
L 227.395192 168.670771 
L 229.915081 166.160818 
L 232.277653 163.493993 
L 234.618261 160.513423 
L 236.915296 157.21911 
L 239.154928 153.611052 
L 241.328933 149.68925 
L 243.506762 145.296832 
L 245.664312 140.433798 
L 247.784881 135.100147 
L 249.910467 129.139008 
L 252.018191 122.550381 
L 254.09201 115.334265 
L 256.159641 107.333789 
L 258.237514 98.392081 
L 260.302694 88.50914 
L 262.366834 77.528095 
L 264.435631 65.292073 
L 266.487928 51.801074 
L 268.549537 36.741355 
L 269.387205 30.152727 
L 269.387205 30.152727 
" style="fill:none;opacity:0.2;stroke:#0000ff;"/>
   </g>
   <g id="matplotlib.axis_1">
    <g id="xtick_1">
     <g id="line2d_2">
      <path clip-path="url(#p33baa54261)" d="M 31.334513 197.16 
L 31.334513 22.2 
" style="fill:none;stroke:#cbcbcb;stroke-width:0.75;"/>
     </g>
     <g id="line2d_3"/>
     <g id="text_1">
      <!-- 10 -->
      <defs>
       <path d="M 33.890625 0 
L 28.03125 0 
L 28.03125 64.0625 
L 8.6875 56.890625 
L 8.6875 62.359375 
L 32.90625 71.34375 
L 33.890625 71.34375 
z
" id="Roboto-Light-31"/>
       <path d="M 49.5625 29.640625 
Q 49.5625 14.59375 44.046875 6.796875 
Q 38.53125 -0.984375 27.78125 -0.984375 
Q 17.234375 -0.984375 11.609375 6.65625 
Q 6 14.3125 5.859375 28.90625 
L 5.859375 41.65625 
Q 5.859375 56.640625 11.421875 64.359375 
Q 17 72.078125 27.6875 72.078125 
Q 38.234375 72.078125 43.796875 64.625 
Q 49.359375 57.171875 49.5625 42.671875 
z
M 43.703125 42.390625 
Q 43.703125 54.59375 39.71875 60.84375 
Q 35.75 67.09375 27.6875 67.09375 
Q 19.78125 67.09375 15.765625 60.984375 
Q 11.765625 54.890625 11.671875 42.96875 
L 11.671875 29 
Q 11.671875 16.84375 15.796875 10.390625 
Q 19.921875 3.953125 27.78125 3.953125 
Q 35.59375 3.953125 39.625 10.25 
Q 43.65625 16.546875 43.703125 28.71875 
z
" id="Roboto-Light-30"/>
      </defs>
      <g transform="translate(25.792326 208.16)scale(0.1 -0.1)">
       <use xlink:href="#Roboto-Light-31"/>
       <use x="55.419922" xlink:href="#Roboto-Light-30"/>
      </g>
     </g>
    </g>
    <g id="xtick_2">
     <g id="line2d_4">
      <path clip-path="url(#p33baa54261)" d="M 76.241388 197.16 
L 76.241388 22.2 
" style="fill:none;stroke:#cbcbcb;stroke-width:0.75;"/>
     </g>
     <g id="line2d_5"/>
     <g id="text_2">
      <!-- 100 -->
      <g transform="translate(67.928107 208.16)scale(0.1 -0.1)">
       <use xlink:href="#Roboto-Light-31"/>
       <use x="55.419922" xlink:href="#Roboto-Light-30"/>
       <use x="110.839844" xlink:href="#Roboto-Light-30"/>
      </g>
     </g>
    </g>
    <g id="xtick_3">
     <g id="line2d_6">
      <path clip-path="url(#p33baa54261)" d="M 121.148263 197.16 
L 121.148263 22.2 
" style="fill:none;stroke:#cbcbcb;stroke-width:0.75;"/>
     </g>
     <g id="line2d_7"/>
     <g id="text_3">
      <!-- 1 k -->
      <defs>
       <path id="Roboto-Light-20"/>
       <path d="M 20.171875 26.609375 
L 13.484375 20.171875 
L 13.484375 0 
L 7.625 0 
L 7.625 75 
L 13.484375 75 
L 13.484375 27 
L 19 32.953125 
L 39.203125 52.828125 
L 46.578125 52.828125 
L 24.171875 30.5625 
L 48.53125 0 
L 41.546875 0 
z
" id="Roboto-Light-6b"/>
      </defs>
      <g transform="translate(114.713107 208.16)scale(0.1 -0.1)">
       <use xlink:href="#Roboto-Light-31"/>
       <use x="55.419922" xlink:href="#Roboto-Light-20"/>
       <use x="79.736328" xlink:href="#Roboto-Light-6b"/>
      </g>
     </g>
    </g>
    <g id="xtick_4">
     <g id="line2d_8">
      <path clip-path="url(#p33baa54261)" d="M 166.055138 197.16 
L 166.055138 22.2 
" style="fill:none;stroke:#cbcbcb;stroke-width:0.75;"/>
     </g>
     <g id="line2d_9"/>
     <g id="text_4">
      <!-- 10 k -->
      <g transform="translate(156.848888 208.16)scale(0.1 -0.1)">
       <use xlink:href="#Roboto-Light-31"/>
       <use x="55.419922" xlink:href="#Roboto-Light-30"/>
       <use x="110.839844" xlink:href="#Roboto-Light-20"/>
       <use x="135.15625" xlink:href="#Roboto-Light-6b"/>
      </g>
     </g>
    </g>
    <g id="xtick_5">
     <g id="line2d_10">
      <path clip-path="url(#p33baa54261)" d="M 210.962013 197.16 
L 210.962013 22.2 
" style="fill:none;stroke:#cbcbcb;stroke-width:0.75;"/>
     </g>
     <g id="line2d_11"/>
     <g id="text_5">
      <!-- 100 k -->
      <g transform="translate(198.98467 208.16)scale(0.1 -0.1)">
       <use xlink:href="#Roboto-Light-31"/>
       <use x="55.419922" xlink:href="#Roboto-Light-30"/>
       <use x="110.839844" xlink:href="#Roboto-Light-30"/>
       <use x="166.259766" xlink:href="#Roboto-Light-20"/>
       <use x="190.576172" xlink:href="#Roboto-Light-6b"/>
      </g>
     </g>
    </g>
    <g id="xtick_6">
     <g id="line2d_12">
      <path clip-path="url(#p33baa54261)" d="M 255.868888 197.16 
L 255.868888 22.2 
" style="fill:none;stroke:#cbcbcb;stroke-width:0.75;"/>
     </g>
     <g id="line2d_13"/>
     <g id="text_6">
      <!-- 1 M -->
      <defs>
       <path d="M 16.9375 71.09375 
L 43.171875 8.34375 
L 69.484375 71.09375 
L 77.484375 71.09375 
L 77.484375 0 
L 71.484375 0 
L 71.484375 30.953125 
L 71.96875 62.703125 
L 45.515625 0 
L 40.875 0 
L 14.5 62.453125 
L 14.984375 31.15625 
L 14.984375 0 
L 8.984375 0 
L 8.984375 71.09375 
z
" id="Roboto-Light-4d"/>
      </defs>
      <g transform="translate(247.555607 208.16)scale(0.1 -0.1)">
       <use xlink:href="#Roboto-Light-31"/>
       <use x="55.419922" xlink:href="#Roboto-Light-20"/>
       <use x="79.736328" xlink:href="#Roboto-Light-4d"/>
      </g>
     </g>
    </g>
    <g id="xtick_7">
     <g id="line2d_14"/>
    </g>
    <g id="xtick_8">
     <g id="line2d_15"/>
    </g>
    <g id="xtick_9">
     <g id="line2d_16"/>
    </g>
    <g id="xtick_10">
     <g id="line2d_17"/>
    </g>
    <g id="xtick_11">
     <g id="line2d_18"/>
    </g>
    <g id="xtick_12">
     <g id="line2d_19"/>
    </g>
    <g id="xtick_13">
     <g id="line2d_20"/>
    </g>
    <g id="xtick_14">
     <g id="line2d_21"/>
    </g>
    <g id="xtick_15">
     <g id="line2d_22"/>
    </g>
    <g id="xtick_16">
     <g id="line2d_23"/>
    </g>
    <g id="xtick_17">
     <g id="line2d_24"/>
    </g>
    <g id="xtick_18">
     <g id="line2d_25"/>
    </g>
    <g id="xtick_19">
     <g id="line2d_26"/>
    </g>
    <g id="xtick_20">
     <g id="line2d_27"/>
    </g>
    <g id="xtick_21">
     <g id="line2d_28"/>
    </g>
    <g id="xtick_22">
     <g id="line2d_29"/>
    </g>
    <g id="xtick_23">
     <g id="line2d_30"/>
    </g>
    <g id="xtick_24">
     <g id="line2d_31"/>
    </g>
    <g id="xtick_25">
     <g id="line2d_32"/>
    </g>
    <g id="xtick_26">
     <g id="line2d_33"/>
    </g>
    <g id="xtick_27">
     <g id="line2d_34"/>
    </g>
    <g id="xtick_28">
     <g id="line2d_35"/>
    </g>
    <g id="xtick_29">
     <g id="line2d_36"/>
    </g>
    <g id="xtick_30">
     <g id="line2d_37"/>
    </g>
    <g id="xtick_31">
     <g id="line2d_38"/>
    </g>
    <g id="xtick_32">
     <g id="line2d_39"/>
    </g>
    <g id="xtick_33">
     <g id="line2d_40"/>
    </g>
    <g id="xtick_34">
     <g id="line2d_41"/>
    </g>
    <g id="xtick_35">
     <g id="line2d_42"/>
    </g>
    <g id="xtick_36">
     <g id="line2d_43"/>
    </g>
    <g id="xtick_37">
     <g id="line2d_44"/>
    </g>
    <g id="xtick_38">
     <g id="line2d_45"/>
    </g>
    <g id="xtick_39">
     <g id="line2d_46"/>
    </g>
    <g id="xtick_40">
     <g id="line2d_47"/>
    </g>
    <g id="xtick_41">
     <g id="line2d_48"/>
    </g>
    <g id="xtick_42">
     <g id="line2d_49"/>
    </g>
    <g id="xtick_43">
     <g id="line2d_50"/>
    </g>
    <g id="xtick_44">
     <g id="line2d_51"/>
    </g>
    <g id="xtick_45">
     <g id="line2d_52"/>
    </g>
    <g id="xtick_46">
     <g id="line2d_53"/>
    </g>
    <g id="xtick_47">
     <g id="line2d_54"/>
    </g>
    <g id="xtick_48">
     <g id="line2d_55"/>
    </g>
    <g id="xtick_49">
     <g id="line2d_56"/>
    </g>
    <g id="xtick_50">
     <g id="line2d_57"/>
    </g>
   </g>
   <g id="matplotlib.axis_2">
    <g id="ytick_1">
     <g id="line2d_58">
      <path clip-path="url(#p33baa54261)" d="M 29.279688 186.868716 
L 285.534233 186.868716 
" style="fill:none;stroke:#cbcbcb;stroke-width:0.75;"/>
     </g>
     <g id="line2d_59"/>
     <g id="text_7">
      <!-- 0 s -->
      <defs>
       <path d="M 39.265625 13.421875 
Q 39.265625 17.78125 35.765625 20.40625 
Q 32.28125 23.046875 25.25 24.53125 
Q 18.21875 26.03125 14.328125 27.953125 
Q 10.453125 29.890625 8.5625 32.671875 
Q 6.6875 35.453125 6.6875 39.40625 
Q 6.6875 45.65625 11.90625 49.734375 
Q 17.140625 53.8125 25.296875 53.8125 
Q 34.125 53.8125 39.46875 49.4375 
Q 44.828125 45.0625 44.828125 38.03125 
L 38.96875 38.03125 
Q 38.96875 42.671875 35.078125 45.75 
Q 31.203125 48.828125 25.296875 48.828125 
Q 19.53125 48.828125 16.03125 46.265625 
Q 12.546875 43.703125 12.546875 39.59375 
Q 12.546875 35.640625 15.453125 33.46875 
Q 18.359375 31.296875 26.046875 29.484375 
Q 33.734375 27.6875 37.5625 25.625 
Q 41.40625 23.578125 43.265625 20.703125 
Q 45.125 17.828125 45.125 13.71875 
Q 45.125 7.03125 39.71875 3.015625 
Q 34.328125 -0.984375 25.640625 -0.984375 
Q 16.40625 -0.984375 10.671875 3.484375 
Q 4.9375 7.953125 4.9375 14.796875 
L 10.796875 14.796875 
Q 11.140625 9.671875 15.109375 6.8125 
Q 19.09375 3.953125 25.640625 3.953125 
Q 31.734375 3.953125 35.5 6.640625 
Q 39.265625 9.328125 39.265625 13.421875 
" id="Roboto-Light-73"/>
      </defs>
      <g transform="translate(12.742188 190.618716)scale(0.1 -0.1)">
       <use xlink:href="#Roboto-Light-30"/>
       <use x="55.419922" xlink:href="#Roboto-Light-20"/>
       <use x="79.736328" xlink:href="#Roboto-Light-73"/>
      </g>
     </g>
    </g>
    <g id="ytick_2">
     <g id="line2d_60">
      <path clip-path="url(#p33baa54261)" d="M 29.279688 143.174012 
L 285.534233 143.174012 
" style="fill:none;stroke:#cbcbcb;stroke-width:0.75;"/>
     </g>
     <g id="line2d_61"/>
     <g id="text_8">
      <!-- 20 s -->
      <defs>
       <path d="M 51.21875 0 
L 6.6875 0 
L 6.6875 4.5 
L 31.0625 32.125 
Q 37.109375 39.109375 39.453125 43.640625 
Q 41.796875 48.1875 41.796875 52.484375 
Q 41.796875 59.234375 37.84375 63.15625 
Q 33.890625 67.09375 26.953125 67.09375 
Q 19.78125 67.09375 15.359375 62.5 
Q 10.9375 57.90625 10.9375 50.59375 
L 5.125 50.59375 
Q 5.125 56.59375 7.828125 61.515625 
Q 10.546875 66.453125 15.546875 69.265625 
Q 20.5625 72.078125 26.953125 72.078125 
Q 36.71875 72.078125 42.203125 66.9375 
Q 47.703125 61.8125 47.703125 52.984375 
Q 47.703125 48 44.59375 42.09375 
Q 41.5 36.1875 33.6875 27.34375 
L 13.875 4.9375 
L 51.21875 4.9375 
z
" id="Roboto-Light-32"/>
      </defs>
      <g transform="translate(7.2 146.924012)scale(0.1 -0.1)">
       <use xlink:href="#Roboto-Light-32"/>
       <use x="55.419922" xlink:href="#Roboto-Light-30"/>
       <use x="110.839844" xlink:href="#Roboto-Light-20"/>
       <use x="135.15625" xlink:href="#Roboto-Light-73"/>
      </g>
     </g>
    </g>
    <g id="ytick_3">
     <g id="line2d_62">
      <path clip-path="url(#p33baa54261)" d="M 29.279688 99.479308 
L 285.534233 99.479308 
" style="fill:none;stroke:#cbcbcb;stroke-width:0.75;"/>
     </g>
     <g id="line2d_63"/>
     <g id="text_9">
      <!-- 40 s -->
      <defs>
       <path d="M 42.578125 22.90625 
L 53.65625 22.90625 
L 53.65625 17.96875 
L 42.578125 17.96875 
L 42.578125 0 
L 36.71875 0 
L 36.71875 17.96875 
L 3.265625 17.96875 
L 3.265625 21.296875 
L 36.1875 71.09375 
L 42.578125 71.09375 
z
M 10.453125 22.90625 
L 36.71875 22.90625 
L 36.71875 63.53125 
L 34.125 59.03125 
z
" id="Roboto-Light-34"/>
      </defs>
      <g transform="translate(7.2 103.229308)scale(0.1 -0.1)">
       <use xlink:href="#Roboto-Light-34"/>
       <use x="55.419922" xlink:href="#Roboto-Light-30"/>
       <use x="110.839844" xlink:href="#Roboto-Light-20"/>
       <use x="135.15625" xlink:href="#Roboto-Light-73"/>
      </g>
     </g>
    </g>
    <g id="ytick_4">
     <g id="line2d_64">
      <path clip-path="url(#p33baa54261)" d="M 29.279688 55.784604 
L 285.534233 55.784604 
" style="fill:none;stroke:#cbcbcb;stroke-width:0.75;"/>
     </g>
     <g id="line2d_65"/>
     <g id="text_10">
      <!-- 60 s -->
      <defs>
       <path d="M 41.15625 71.625 
L 41.15625 66.5 
L 40.484375 66.5 
Q 27.734375 66.5 20.40625 59 
Q 13.09375 51.515625 12.3125 38.1875 
Q 15.234375 42.234375 19.765625 44.453125 
Q 24.3125 46.6875 29.9375 46.6875 
Q 39.3125 46.6875 44.84375 40.203125 
Q 50.390625 33.734375 50.390625 23.296875 
Q 50.390625 16.359375 47.796875 10.78125 
Q 45.21875 5.21875 40.375 2.109375 
Q 35.546875 -0.984375 29.34375 -0.984375 
Q 19.140625 -0.984375 12.734375 6.40625 
Q 6.34375 13.8125 6.34375 25.53125 
L 6.34375 31.390625 
Q 6.34375 50.484375 15.03125 60.953125 
Q 23.734375 71.4375 39.703125 71.625 
z
M 29 41.65625 
Q 23.4375 41.65625 18.625 38.359375 
Q 13.8125 35.0625 12.203125 29.984375 
L 12.203125 25 
Q 12.203125 15.71875 16.96875 9.859375 
Q 21.734375 4 29.34375 4 
Q 36.1875 4 40.40625 9.421875 
Q 44.625 14.84375 44.625 23.09375 
Q 44.625 31.5 40.40625 36.578125 
Q 36.1875 41.65625 29 41.65625 
" id="Roboto-Light-36"/>
      </defs>
      <g transform="translate(7.2 59.534604)scale(0.1 -0.1)">
       <use xlink:href="#Roboto-Light-36"/>
       <use x="55.419922" xlink:href="#Roboto-Light-30"/>
       <use x="110.839844" xlink:href="#Roboto-Light-20"/>
       <use x="135.15625" xlink:href="#Roboto-Light-73"/>
      </g>
     </g>
    </g>
   </g>
   <g id="LineCollection_1">
    <path clip-path="url(#p33baa54261)" d="M 80.283668 186.846869 
L 80.283668 186.846869 
" style="fill:none;stroke:#fdcab5;"/>
    <path clip-path="url(#p33baa54261)" d="M 111.672227 186.868716 
L 111.672227 186.868716 
" style="fill:none;stroke:#fdcab5;"/>
    <path clip-path="url(#p33baa54261)" d="M 125.190543 186.846869 
L 125.190543 186.846869 
" style="fill:none;stroke:#fdcab5;"/>
    <path clip-path="url(#p33baa54261)" d="M 138.708859 186.846869 
L 138.708859 186.846869 
" style="fill:none;stroke:#fdcab5;"/>
    <path clip-path="url(#p33baa54261)" d="M 156.579102 186.781327 
L 156.579102 186.781327 
" style="fill:none;stroke:#fdcab5;"/>
    <path clip-path="url(#p33baa54261)" d="M 171.71433 186.5847 
L 171.71433 186.5847 
" style="fill:none;stroke:#fdcab5;"/>
    <path clip-path="url(#p33baa54261)" d="M 185.232646 185.972975 
L 185.232646 185.972975 
" style="fill:none;stroke:#fdcab5;"/>
    <path clip-path="url(#p33baa54261)" d="M 193.140354 184.85876 
L 193.140354 184.85876 
" style="fill:none;stroke:#fdcab5;"/>
    <path clip-path="url(#p33baa54261)" d="M 198.750963 183.438682 
L 198.750963 183.438682 
" style="fill:none;stroke:#fdcab5;"/>
    <path clip-path="url(#p33baa54261)" d="M 201.485977 181.581657 
L 201.485977 181.581657 
" style="fill:none;stroke:#fdcab5;"/>
    <path clip-path="url(#p33baa54261)" d="M 215.004293 166.091884 
L 215.004293 166.091884 
" style="fill:none;stroke:#fdcab5;"/>
    <path clip-path="url(#p33baa54261)" d="M 228.522609 103.761389 
L 228.522609 103.761389 
" style="fill:none;stroke:#fdcab5;"/>
    <path clip-path="url(#p33baa54261)" d="M 246.392852 57.838255 
L 246.392852 57.838255 
" style="fill:none;stroke:#fdcab5;"/>
    <path clip-path="url(#p33baa54261)" d="M 259.911168 56.003078 
L 259.911168 56.003078 
" style="fill:none;stroke:#fdcab5;"/>
    <path clip-path="url(#p33baa54261)" d="M 273.429484 50.235377 
L 273.429484 50.235377 
" style="fill:none;stroke:#fdcab5;"/>
   </g>
   <g id="LineCollection_2">
    <path clip-path="url(#p33baa54261)" d="M 78.262528 184.489113 
L 78.262528 184.489113 
" style="fill:none;stroke:#fc9777;"/>
    <path clip-path="url(#p33baa54261)" d="M 109.651087 184.510961 
L 109.651087 184.510961 
" style="fill:none;stroke:#fc9777;"/>
    <path clip-path="url(#p33baa54261)" d="M 123.169403 184.510961 
L 123.169403 184.510961 
" style="fill:none;stroke:#fc9777;"/>
    <path clip-path="url(#p33baa54261)" d="M 136.68772 184.467266 
L 136.68772 184.467266 
" style="fill:none;stroke:#fc9777;"/>
    <path clip-path="url(#p33baa54261)" d="M 154.557962 184.445419 
L 154.557962 184.445419 
" style="fill:none;stroke:#fc9777;"/>
    <path clip-path="url(#p33baa54261)" d="M 168.884734 184.248793 
L 168.884734 184.248793 
" style="fill:none;stroke:#fc9777;"/>
    <path clip-path="url(#p33baa54261)" d="M 182.403051 183.637067 
L 182.403051 183.637067 
" style="fill:none;stroke:#fc9777;"/>
    <path clip-path="url(#p33baa54261)" d="M 190.310759 182.544699 
L 190.310759 182.544699 
" style="fill:none;stroke:#fc9777;"/>
    <path clip-path="url(#p33baa54261)" d="M 195.921367 181.168316 
L 195.921367 181.168316 
" style="fill:none;stroke:#fc9777;"/>
    <path clip-path="url(#p33baa54261)" d="M 199.464837 179.202054 
L 199.464837 179.202054 
" style="fill:none;stroke:#fc9777;"/>
    <path clip-path="url(#p33baa54261)" d="M 212.983153 163.734129 
L 212.983153 163.734129 
" style="fill:none;stroke:#fc9777;"/>
    <path clip-path="url(#p33baa54261)" d="M 226.50147 101.643955 
L 226.50147 101.643955 
" style="fill:none;stroke:#fc9777;"/>
    <path clip-path="url(#p33baa54261)" d="M 244.371712 55.349416 
L 244.371712 55.349416 
" style="fill:none;stroke:#fc9777;"/>
    <path clip-path="url(#p33baa54261)" d="M 257.890028 53.645322 
L 257.890028 53.645322 
" style="fill:none;stroke:#fc9777;"/>
    <path clip-path="url(#p33baa54261)" d="M 271.408345 49.669104 
L 271.408345 49.669104 
" style="fill:none;stroke:#fc9777;"/>
   </g>
   <g id="LineCollection_3">
    <path clip-path="url(#p33baa54261)" d="M 74.220249 184.459219 
L 74.220249 184.459219 
" style="fill:none;stroke:#f96245;"/>
    <path clip-path="url(#p33baa54261)" d="M 105.608807 184.459219 
L 105.608807 184.459219 
" style="fill:none;stroke:#f96245;"/>
    <path clip-path="url(#p33baa54261)" d="M 119.127124 184.481067 
L 119.127124 184.481067 
" style="fill:none;stroke:#f96245;"/>
    <path clip-path="url(#p33baa54261)" d="M 132.64544 184.459219 
L 132.64544 184.459219 
" style="fill:none;stroke:#f96245;"/>
    <path clip-path="url(#p33baa54261)" d="M 150.515682 184.415525 
L 150.515682 184.415525 
" style="fill:none;stroke:#f96245;"/>
    <path clip-path="url(#p33baa54261)" d="M 163.225543 184.240746 
L 163.225543 184.240746 
" style="fill:none;stroke:#f96245;"/>
    <path clip-path="url(#p33baa54261)" d="M 176.743859 183.585325 
L 176.743859 183.585325 
" style="fill:none;stroke:#f96245;"/>
    <path clip-path="url(#p33baa54261)" d="M 184.651567 182.536652 
L 184.651567 182.536652 
" style="fill:none;stroke:#f96245;"/>
    <path clip-path="url(#p33baa54261)" d="M 190.262176 181.116574 
L 190.262176 181.116574 
" style="fill:none;stroke:#f96245;"/>
    <path clip-path="url(#p33baa54261)" d="M 195.422557 179.259549 
L 195.422557 179.259549 
" style="fill:none;stroke:#f96245;"/>
    <path clip-path="url(#p33baa54261)" d="M 208.940874 163.638693 
L 208.940874 163.638693 
" style="fill:none;stroke:#f96245;"/>
    <path clip-path="url(#p33baa54261)" d="M 222.45919 101.526671 
L 222.45919 101.526671 
" style="fill:none;stroke:#f96245;"/>
    <path clip-path="url(#p33baa54261)" d="M 240.329432 53.506191 
L 240.329432 53.506191 
" style="fill:none;stroke:#f96245;"/>
    <path clip-path="url(#p33baa54261)" d="M 253.847749 51.714709 
L 253.847749 51.714709 
" style="fill:none;stroke:#f96245;"/>
    <path clip-path="url(#p33baa54261)" d="M 267.366065 47.913269 
L 267.366065 47.913269 
" style="fill:none;stroke:#f96245;"/>
   </g>
   <g id="LineCollection_4">
    <path clip-path="url(#p33baa54261)" d="M 72.199109 186.846869 
L 72.199109 186.846869 
" style="fill:none;stroke:#de2b25;"/>
    <path clip-path="url(#p33baa54261)" d="M 103.587668 186.846869 
L 103.587668 186.846869 
" style="fill:none;stroke:#de2b25;"/>
    <path clip-path="url(#p33baa54261)" d="M 117.105984 186.825021 
L 117.105984 186.825021 
" style="fill:none;stroke:#de2b25;"/>
    <path clip-path="url(#p33baa54261)" d="M 130.6243 186.846869 
L 130.6243 186.846869 
" style="fill:none;stroke:#de2b25;"/>
    <path clip-path="url(#p33baa54261)" d="M 148.494543 186.759479 
L 148.494543 186.759479 
" style="fill:none;stroke:#de2b25;"/>
    <path clip-path="url(#p33baa54261)" d="M 160.395947 186.5847 
L 160.395947 186.5847 
" style="fill:none;stroke:#de2b25;"/>
    <path clip-path="url(#p33baa54261)" d="M 173.914264 186.016669 
L 173.914264 186.016669 
" style="fill:none;stroke:#de2b25;"/>
    <path clip-path="url(#p33baa54261)" d="M 181.821972 184.902454 
L 181.821972 184.902454 
" style="fill:none;stroke:#de2b25;"/>
    <path clip-path="url(#p33baa54261)" d="M 187.43258 183.416834 
L 187.43258 183.416834 
" style="fill:none;stroke:#de2b25;"/>
    <path clip-path="url(#p33baa54261)" d="M 193.401418 181.581657 
L 193.401418 181.581657 
" style="fill:none;stroke:#de2b25;"/>
    <path clip-path="url(#p33baa54261)" d="M 206.919734 166.026342 
L 206.919734 166.026342 
" style="fill:none;stroke:#de2b25;"/>
    <path clip-path="url(#p33baa54261)" d="M 220.43805 103.914321 
L 220.43805 103.914321 
" style="fill:none;stroke:#de2b25;"/>
    <path clip-path="url(#p33baa54261)" d="M 238.308293 56.571109 
L 238.308293 56.571109 
" style="fill:none;stroke:#de2b25;"/>
    <path clip-path="url(#p33baa54261)" d="M 251.826609 55.740909 
L 251.826609 55.740909 
" style="fill:none;stroke:#de2b25;"/>
    <path clip-path="url(#p33baa54261)" d="M 265.344925 52.485654 
L 265.344925 52.485654 
" style="fill:none;stroke:#de2b25;"/>
   </g>
   <g id="LineCollection_5">
    <path clip-path="url(#p33baa54261)" d="M 74.220249 189.14882 
L 74.220249 189.14882 
" style="fill:none;stroke:#af1117;"/>
    <path clip-path="url(#p33baa54261)" d="M 105.608807 189.192515 
L 105.608807 189.192515 
" style="fill:none;stroke:#af1117;"/>
    <path clip-path="url(#p33baa54261)" d="M 119.127124 189.170667 
L 119.127124 189.170667 
" style="fill:none;stroke:#af1117;"/>
    <path clip-path="url(#p33baa54261)" d="M 132.64544 189.14882 
L 132.64544 189.14882 
" style="fill:none;stroke:#af1117;"/>
    <path clip-path="url(#p33baa54261)" d="M 150.515682 189.061431 
L 150.515682 189.061431 
" style="fill:none;stroke:#af1117;"/>
    <path clip-path="url(#p33baa54261)" d="M 163.225543 188.908499 
L 163.225543 188.908499 
" style="fill:none;stroke:#af1117;"/>
    <path clip-path="url(#p33baa54261)" d="M 176.743859 188.231231 
L 176.743859 188.231231 
" style="fill:none;stroke:#af1117;"/>
    <path clip-path="url(#p33baa54261)" d="M 184.651567 187.269948 
L 184.651567 187.269948 
" style="fill:none;stroke:#af1117;"/>
    <path clip-path="url(#p33baa54261)" d="M 190.262176 185.806175 
L 190.262176 185.806175 
" style="fill:none;stroke:#af1117;"/>
    <path clip-path="url(#p33baa54261)" d="M 195.422557 183.927303 
L 195.422557 183.927303 
" style="fill:none;stroke:#af1117;"/>
    <path clip-path="url(#p33baa54261)" d="M 208.940874 168.43753 
L 208.940874 168.43753 
" style="fill:none;stroke:#af1117;"/>
    <path clip-path="url(#p33baa54261)" d="M 222.45919 106.107035 
L 222.45919 106.107035 
" style="fill:none;stroke:#af1117;"/>
    <path clip-path="url(#p33baa54261)" d="M 240.329432 59.484786 
L 240.329432 59.484786 
" style="fill:none;stroke:#af1117;"/>
    <path clip-path="url(#p33baa54261)" d="M 253.847749 57.365593 
L 253.847749 57.365593 
" style="fill:none;stroke:#af1117;"/>
    <path clip-path="url(#p33baa54261)" d="M 267.366065 55.027926 
L 267.366065 55.027926 
" style="fill:none;stroke:#af1117;"/>
   </g>
   <g id="LineCollection_6">
    <path clip-path="url(#p33baa54261)" d="M 78.262528 189.185425 
L 78.262528 189.185425 
" style="fill:none;stroke:#67000d;"/>
    <path clip-path="url(#p33baa54261)" d="M 109.651087 189.207273 
L 109.651087 189.207273 
" style="fill:none;stroke:#67000d;"/>
    <path clip-path="url(#p33baa54261)" d="M 123.169403 189.207273 
L 123.169403 189.207273 
" style="fill:none;stroke:#67000d;"/>
    <path clip-path="url(#p33baa54261)" d="M 136.68772 189.163578 
L 136.68772 189.163578 
" style="fill:none;stroke:#67000d;"/>
    <path clip-path="url(#p33baa54261)" d="M 154.557962 189.098036 
L 154.557962 189.098036 
" style="fill:none;stroke:#67000d;"/>
    <path clip-path="url(#p33baa54261)" d="M 168.884734 188.988799 
L 168.884734 188.988799 
" style="fill:none;stroke:#67000d;"/>
    <path clip-path="url(#p33baa54261)" d="M 182.403051 188.355226 
L 182.403051 188.355226 
" style="fill:none;stroke:#67000d;"/>
    <path clip-path="url(#p33baa54261)" d="M 190.310759 187.262858 
L 190.310759 187.262858 
" style="fill:none;stroke:#67000d;"/>
    <path clip-path="url(#p33baa54261)" d="M 195.921367 185.755391 
L 195.921367 185.755391 
" style="fill:none;stroke:#67000d;"/>
    <path clip-path="url(#p33baa54261)" d="M 199.464837 183.920214 
L 199.464837 183.920214 
" style="fill:none;stroke:#67000d;"/>
    <path clip-path="url(#p33baa54261)" d="M 212.983153 168.299357 
L 212.983153 168.299357 
" style="fill:none;stroke:#67000d;"/>
    <path clip-path="url(#p33baa54261)" d="M 226.50147 106.121793 
L 226.50147 106.121793 
" style="fill:none;stroke:#67000d;"/>
    <path clip-path="url(#p33baa54261)" d="M 244.371712 59.062597 
L 244.371712 59.062597 
" style="fill:none;stroke:#67000d;"/>
    <path clip-path="url(#p33baa54261)" d="M 257.890028 58.101313 
L 257.890028 58.101313 
" style="fill:none;stroke:#67000d;"/>
    <path clip-path="url(#p33baa54261)" d="M 271.408345 54.190637 
L 271.408345 54.190637 
" style="fill:none;stroke:#67000d;"/>
   </g>
   <g id="LineCollection_7">
    <path clip-path="url(#p33baa54261)" d="M 164.483141 186.628395 
L 164.483141 186.628395 
" style="fill:none;stroke:#008000;"/>
    <path clip-path="url(#p33baa54261)" d="M 178.001457 185.907433 
L 178.001457 185.907433 
" style="fill:none;stroke:#008000;"/>
    <path clip-path="url(#p33baa54261)" d="M 185.909165 184.85876 
L 185.909165 184.85876 
" style="fill:none;stroke:#008000;"/>
    <path clip-path="url(#p33baa54261)" d="M 191.519774 183.416834 
L 191.519774 183.416834 
" style="fill:none;stroke:#008000;"/>
    <path clip-path="url(#p33baa54261)" d="M 197.443697 181.47242 
L 197.443697 181.47242 
" style="fill:none;stroke:#008000;"/>
    <path clip-path="url(#p33baa54261)" d="M 210.962013 165.654937 
L 210.962013 165.654937 
" style="fill:none;stroke:#008000;"/>
    <path clip-path="url(#p33baa54261)" d="M 224.48033 102.778258 
L 224.48033 102.778258 
" style="fill:none;stroke:#008000;"/>
    <path clip-path="url(#p33baa54261)" d="M 242.350572 55.282115 
L 242.350572 55.282115 
" style="fill:none;stroke:#008000;"/>
    <path clip-path="url(#p33baa54261)" d="M 255.868888 51.830233 
L 255.868888 51.830233 
" style="fill:none;stroke:#008000;"/>
    <path clip-path="url(#p33baa54261)" d="M 269.387205 45.516349 
L 269.387205 45.516349 
" style="fill:none;stroke:#008000;"/>
   </g>
   <g id="LineCollection_8">
    <path clip-path="url(#p33baa54261)" d="M 31.334513 186.781327 
L 31.334513 186.781327 
" style="fill:none;stroke:#0000ff;"/>
    <path clip-path="url(#p33baa54261)" d="M 76.241388 186.825021 
L 76.241388 186.825021 
" style="fill:none;stroke:#0000ff;"/>
    <path clip-path="url(#p33baa54261)" d="M 107.629947 186.825021 
L 107.629947 186.825021 
" style="fill:none;stroke:#0000ff;"/>
    <path clip-path="url(#p33baa54261)" d="M 121.148263 186.803174 
L 121.148263 186.803174 
" style="fill:none;stroke:#0000ff;"/>
    <path clip-path="url(#p33baa54261)" d="M 134.66658 186.825021 
L 134.66658 186.825021 
" style="fill:none;stroke:#0000ff;"/>
    <path clip-path="url(#p33baa54261)" d="M 152.536822 186.781327 
L 152.536822 186.781327 
" style="fill:none;stroke:#0000ff;"/>
    <path clip-path="url(#p33baa54261)" d="M 167.627136 186.5847 
L 167.627136 186.5847 
" style="fill:none;stroke:#0000ff;"/>
    <path clip-path="url(#p33baa54261)" d="M 181.145452 185.907433 
L 181.145452 185.907433 
" style="fill:none;stroke:#0000ff;"/>
    <path clip-path="url(#p33baa54261)" d="M 189.053161 184.815065 
L 189.053161 184.815065 
" style="fill:none;stroke:#0000ff;"/>
    <path clip-path="url(#p33baa54261)" d="M 194.663769 183.416834 
L 194.663769 183.416834 
" style="fill:none;stroke:#0000ff;"/>
   </g>
   <g id="line2d_66">
    <defs>
     <path d="M 0 1.5 
C 0.397805 1.5 0.77937 1.341951 1.06066 1.06066 
C 1.341951 0.77937 1.5 0.397805 1.5 0 
C 1.5 -0.397805 1.341951 -0.77937 1.06066 -1.06066 
C 0.77937 -1.341951 0.397805 -1.5 0 -1.5 
C -0.397805 -1.5 -0.77937 -1.341951 -1.06066 -1.06066 
C -1.341951 -0.77937 -1.5 -0.397805 -1.5 0 
C -1.5 0.397805 -1.341951 0.77937 -1.06066 1.06066 
C -0.77937 1.341951 -0.397805 1.5 0 1.5 
z
" id="mbc872cf45c" style="stroke:#fdcab5;"/>
    </defs>
    <g clip-path="url(#p33baa54261)">
     <use style="fill:#fdcab5;stroke:#fdcab5;" x="80.283668" xlink:href="#mbc872cf45c" y="186.846869"/>
     <use style="fill:#fdcab5;stroke:#fdcab5;" x="111.672227" xlink:href="#mbc872cf45c" y="186.868716"/>
     <use style="fill:#fdcab5;stroke:#fdcab5;" x="125.190543" xlink:href="#mbc872cf45c" y="186.846869"/>
     <use style="fill:#fdcab5;stroke:#fdcab5;" x="138.708859" xlink:href="#mbc872cf45c" y="186.846869"/>
     <use style="fill:#fdcab5;stroke:#fdcab5;" x="156.579102" xlink:href="#mbc872cf45c" y="186.781327"/>
     <use style="fill:#fdcab5;stroke:#fdcab5;" x="171.71433" xlink:href="#mbc872cf45c" y="186.5847"/>
     <use style="fill:#fdcab5;stroke:#fdcab5;" x="185.232646" xlink:href="#mbc872cf45c" y="185.972975"/>
     <use style="fill:#fdcab5;stroke:#fdcab5;" x="193.140354" xlink:href="#mbc872cf45c" y="184.85876"/>
     <use style="fill:#fdcab5;stroke:#fdcab5;" x="198.750963" xlink:href="#mbc872cf45c" y="183.438682"/>
     <use style="fill:#fdcab5;stroke:#fdcab5;" x="201.485977" xlink:href="#mbc872cf45c" y="181.581657"/>
     <use style="fill:#fdcab5;stroke:#fdcab5;" x="215.004293" xlink:href="#mbc872cf45c" y="166.091884"/>
     <use style="fill:#fdcab5;stroke:#fdcab5;" x="228.522609" xlink:href="#mbc872cf45c" y="103.761389"/>
     <use style="fill:#fdcab5;stroke:#fdcab5;" x="246.392852" xlink:href="#mbc872cf45c" y="57.838255"/>
     <use style="fill:#fdcab5;stroke:#fdcab5;" x="259.911168" xlink:href="#mbc872cf45c" y="56.003078"/>
     <use style="fill:#fdcab5;stroke:#fdcab5;" x="273.429484" xlink:href="#mbc872cf45c" y="50.235377"/>
    </g>
   </g>
   <g id="line2d_67">
    <defs>
     <path d="M 0 1.5 
C 0.397805 1.5 0.77937 1.341951 1.06066 1.06066 
C 1.341951 0.77937 1.5 0.397805 1.5 0 
C 1.5 -0.397805 1.341951 -0.77937 1.06066 -1.06066 
C 0.77937 -1.341951 0.397805 -1.5 0 -1.5 
C -0.397805 -1.5 -0.77937 -1.341951 -1.06066 -1.06066 
C -1.341951 -0.77937 -1.5 -0.397805 -1.5 0 
C -1.5 0.397805 -1.341951 0.77937 -1.06066 1.06066 
C -0.77937 1.341951 -0.397805 1.5 0 1.5 
z
" id="m98e857da58" style="stroke:#fc9777;"/>
    </defs>
    <g clip-path="url(#p33baa54261)">
     <use style="fill:#fc9777;stroke:#fc9777;" x="78.262528" xlink:href="#m98e857da58" y="184.489113"/>
     <use style="fill:#fc9777;stroke:#fc9777;" x="109.651087" xlink:href="#m98e857da58" y="184.510961"/>
     <use style="fill:#fc9777;stroke:#fc9777;" x="123.169403" xlink:href="#m98e857da58" y="184.510961"/>
     <use style="fill:#fc9777;stroke:#fc9777;" x="136.68772" xlink:href="#m98e857da58" y="184.467266"/>
     <use style="fill:#fc9777;stroke:#fc9777;" x="154.557962" xlink:href="#m98e857da58" y="184.445419"/>
     <use style="fill:#fc9777;stroke:#fc9777;" x="168.884734" xlink:href="#m98e857da58" y="184.248793"/>
     <use style="fill:#fc9777;stroke:#fc9777;" x="182.403051" xlink:href="#m98e857da58" y="183.637067"/>
     <use style="fill:#fc9777;stroke:#fc9777;" x="190.310759" xlink:href="#m98e857da58" y="182.544699"/>
     <use style="fill:#fc9777;stroke:#fc9777;" x="195.921367" xlink:href="#m98e857da58" y="181.168316"/>
     <use style="fill:#fc9777;stroke:#fc9777;" x="199.464837" xlink:href="#m98e857da58" y="179.202054"/>
     <use style="fill:#fc9777;stroke:#fc9777;" x="212.983153" xlink:href="#m98e857da58" y="163.734129"/>
     <use style="fill:#fc9777;stroke:#fc9777;" x="226.50147" xlink:href="#m98e857da58" y="101.643955"/>
     <use style="fill:#fc9777;stroke:#fc9777;" x="244.371712" xlink:href="#m98e857da58" y="55.349416"/>
     <use style="fill:#fc9777;stroke:#fc9777;" x="257.890028" xlink:href="#m98e857da58" y="53.645322"/>
     <use style="fill:#fc9777;stroke:#fc9777;" x="271.408345" xlink:href="#m98e857da58" y="49.669104"/>
    </g>
   </g>
   <g id="line2d_68">
    <defs>
     <path d="M 0 1.5 
C 0.397805 1.5 0.77937 1.341951 1.06066 1.06066 
C 1.341951 0.77937 1.5 0.397805 1.5 0 
C 1.5 -0.397805 1.341951 -0.77937 1.06066 -1.06066 
C 0.77937 -1.341951 0.397805 -1.5 0 -1.5 
C -0.397805 -1.5 -0.77937 -1.341951 -1.06066 -1.06066 
C -1.341951 -0.77937 -1.5 -0.397805 -1.5 0 
C -1.5 0.397805 -1.341951 0.77937 -1.06066 1.06066 
C -0.77937 1.341951 -0.397805 1.5 0 1.5 
z
" id="m158a129ec3" style="stroke:#f96245;"/>
    </defs>
    <g clip-path="url(#p33baa54261)">
     <use style="fill:#f96245;stroke:#f96245;" x="74.220249" xlink:href="#m158a129ec3" y="184.459219"/>
     <use style="fill:#f96245;stroke:#f96245;" x="105.608807" xlink:href="#m158a129ec3" y="184.459219"/>
     <use style="fill:#f96245;stroke:#f96245;" x="119.127124" xlink:href="#m158a129ec3" y="184.481067"/>
     <use style="fill:#f96245;stroke:#f96245;" x="132.64544" xlink:href="#m158a129ec3" y="184.459219"/>
     <use style="fill:#f96245;stroke:#f96245;" x="150.515682" xlink:href="#m158a129ec3" y="184.415525"/>
     <use style="fill:#f96245;stroke:#f96245;" x="163.225543" xlink:href="#m158a129ec3" y="184.240746"/>
     <use style="fill:#f96245;stroke:#f96245;" x="176.743859" xlink:href="#m158a129ec3" y="183.585325"/>
     <use style="fill:#f96245;stroke:#f96245;" x="184.651567" xlink:href="#m158a129ec3" y="182.536652"/>
     <use style="fill:#f96245;stroke:#f96245;" x="190.262176" xlink:href="#m158a129ec3" y="181.116574"/>
     <use style="fill:#f96245;stroke:#f96245;" x="195.422557" xlink:href="#m158a129ec3" y="179.259549"/>
     <use style="fill:#f96245;stroke:#f96245;" x="208.940874" xlink:href="#m158a129ec3" y="163.638693"/>
     <use style="fill:#f96245;stroke:#f96245;" x="222.45919" xlink:href="#m158a129ec3" y="101.526671"/>
     <use style="fill:#f96245;stroke:#f96245;" x="240.329432" xlink:href="#m158a129ec3" y="53.506191"/>
     <use style="fill:#f96245;stroke:#f96245;" x="253.847749" xlink:href="#m158a129ec3" y="51.714709"/>
     <use style="fill:#f96245;stroke:#f96245;" x="267.366065" xlink:href="#m158a129ec3" y="47.913269"/>
    </g>
   </g>
   <g id="line2d_69">
    <defs>
     <path d="M 0 1.5 
C 0.397805 1.5 0.77937 1.341951 1.06066 1.06066 
C 1.341951 0.77937 1.5 0.397805 1.5 0 
C 1.5 -0.397805 1.341951 -0.77937 1.06066 -1.06066 
C 0.77937 -1.341951 0.397805 -1.5 0 -1.5 
C -0.397805 -1.5 -0.77937 -1.341951 -1.06066 -1.06066 
C -1.341951 -0.77937 -1.5 -0.397805 -1.5 0 
C -1.5 0.397805 -1.341951 0.77937 -1.06066 1.06066 
C -0.77937 1.341951 -0.397805 1.5 0 1.5 
z
" id="mb1ac08e36d" style="stroke:#de2b25;"/>
    </defs>
    <g clip-path="url(#p33baa54261)">
     <use style="fill:#de2b25;stroke:#de2b25;" x="72.199109" xlink:href="#mb1ac08e36d" y="186.846869"/>
     <use style="fill:#de2b25;stroke:#de2b25;" x="103.587668" xlink:href="#mb1ac08e36d" y="186.846869"/>
     <use style="fill:#de2b25;stroke:#de2b25;" x="117.105984" xlink:href="#mb1ac08e36d" y="186.825021"/>
     <use style="fill:#de2b25;stroke:#de2b25;" x="130.6243" xlink:href="#mb1ac08e36d" y="186.846869"/>
     <use style="fill:#de2b25;stroke:#de2b25;" x="148.494543" xlink:href="#mb1ac08e36d" y="186.759479"/>
     <use style="fill:#de2b25;stroke:#de2b25;" x="160.395947" xlink:href="#mb1ac08e36d" y="186.5847"/>
     <use style="fill:#de2b25;stroke:#de2b25;" x="173.914264" xlink:href="#mb1ac08e36d" y="186.016669"/>
     <use style="fill:#de2b25;stroke:#de2b25;" x="181.821972" xlink:href="#mb1ac08e36d" y="184.902454"/>
     <use style="fill:#de2b25;stroke:#de2b25;" x="187.43258" xlink:href="#mb1ac08e36d" y="183.416834"/>
     <use style="fill:#de2b25;stroke:#de2b25;" x="193.401418" xlink:href="#mb1ac08e36d" y="181.581657"/>
     <use style="fill:#de2b25;stroke:#de2b25;" x="206.919734" xlink:href="#mb1ac08e36d" y="166.026342"/>
     <use style="fill:#de2b25;stroke:#de2b25;" x="220.43805" xlink:href="#mb1ac08e36d" y="103.914321"/>
     <use style="fill:#de2b25;stroke:#de2b25;" x="238.308293" xlink:href="#mb1ac08e36d" y="56.571109"/>
     <use style="fill:#de2b25;stroke:#de2b25;" x="251.826609" xlink:href="#mb1ac08e36d" y="55.740909"/>
     <use style="fill:#de2b25;stroke:#de2b25;" x="265.344925" xlink:href="#mb1ac08e36d" y="52.485654"/>
    </g>
   </g>
   <g id="line2d_70">
    <defs>
     <path d="M 0 1.5 
C 0.397805 1.5 0.77937 1.341951 1.06066 1.06066 
C 1.341951 0.77937 1.5 0.397805 1.5 0 
C 1.5 -0.397805 1.341951 -0.77937 1.06066 -1.06066 
C 0.77937 -1.341951 0.397805 -1.5 0 -1.5 
C -0.397805 -1.5 -0.77937 -1.341951 -1.06066 -1.06066 
C -1.341951 -0.77937 -1.5 -0.397805 -1.5 0 
C -1.5 0.397805 -1.341951 0.77937 -1.06066 1.06066 
C -0.77937 1.341951 -0.397805 1.5 0 1.5 
z
" id="m1cb524ce5a" style="stroke:#af1117;"/>
    </defs>
    <g clip-path="url(#p33baa54261)">
     <use style="fill:#af1117;stroke:#af1117;" x="74.220249" xlink:href="#m1cb524ce5a" y="189.14882"/>
     <use style="fill:#af1117;stroke:#af1117;" x="105.608807" xlink:href="#m1cb524ce5a" y="189.192515"/>
     <use style="fill:#af1117;stroke:#af1117;" x="119.127124" xlink:href="#m1cb524ce5a" y="189.170667"/>
     <use style="fill:#af1117;stroke:#af1117;" x="132.64544" xlink:href="#m1cb524ce5a" y="189.14882"/>
     <use style="fill:#af1117;stroke:#af1117;" x="150.515682" xlink:href="#m1cb524ce5a" y="189.061431"/>
     <use style="fill:#af1117;stroke:#af1117;" x="163.225543" xlink:href="#m1cb524ce5a" y="188.908499"/>
     <use style="fill:#af1117;stroke:#af1117;" x="176.743859" xlink:href="#m1cb524ce5a" y="188.231231"/>
     <use style="fill:#af1117;stroke:#af1117;" x="184.651567" xlink:href="#m1cb524ce5a" y="187.269948"/>
     <use style="fill:#af1117;stroke:#af1117;" x="190.262176" xlink:href="#m1cb524ce5a" y="185.806175"/>
     <use style="fill:#af1117;stroke:#af1117;" x="195.422557" xlink:href="#m1cb524ce5a" y="183.927303"/>
     <use style="fill:#af1117;stroke:#af1117;" x="208.940874" xlink:href="#m1cb524ce5a" y="168.43753"/>
     <use style="fill:#af1117;stroke:#af1117;" x="222.45919" xlink:href="#m1cb524ce5a" y="106.107035"/>
     <use style="fill:#af1117;stroke:#af1117;" x="240.329432" xlink:href="#m1cb524ce5a" y="59.484786"/>
     <use style="fill:#af1117;stroke:#af1117;" x="253.847749" xlink:href="#m1cb524ce5a" y="57.365593"/>
     <use style="fill:#af1117;stroke:#af1117;" x="267.366065" xlink:href="#m1cb524ce5a" y="55.027926"/>
    </g>
   </g>
   <g id="line2d_71">
    <defs>
     <path d="M 0 1.5 
C 0.397805 1.5 0.77937 1.341951 1.06066 1.06066 
C 1.341951 0.77937 1.5 0.397805 1.5 0 
C 1.5 -0.397805 1.341951 -0.77937 1.06066 -1.06066 
C 0.77937 -1.341951 0.397805 -1.5 0 -1.5 
C -0.397805 -1.5 -0.77937 -1.341951 -1.06066 -1.06066 
C -1.341951 -0.77937 -1.5 -0.397805 -1.5 0 
C -1.5 0.397805 -1.341951 0.77937 -1.06066 1.06066 
C -0.77937 1.341951 -0.397805 1.5 0 1.5 
z
" id="m45e43adb82" style="stroke:#67000d;"/>
    </defs>
    <g clip-path="url(#p33baa54261)">
     <use style="fill:#67000d;stroke:#67000d;" x="78.262528" xlink:href="#m45e43adb82" y="189.185425"/>
     <use style="fill:#67000d;stroke:#67000d;" x="109.651087" xlink:href="#m45e43adb82" y="189.207273"/>
     <use style="fill:#67000d;stroke:#67000d;" x="123.169403" xlink:href="#m45e43adb82" y="189.207273"/>
     <use style="fill:#67000d;stroke:#67000d;" x="136.68772" xlink:href="#m45e43adb82" y="189.163578"/>
     <use style="fill:#67000d;stroke:#67000d;" x="154.557962" xlink:href="#m45e43adb82" y="189.098036"/>
     <use style="fill:#67000d;stroke:#67000d;" x="168.884734" xlink:href="#m45e43adb82" y="188.988799"/>
     <use style="fill:#67000d;stroke:#67000d;" x="182.403051" xlink:href="#m45e43adb82" y="188.355226"/>
     <use style="fill:#67000d;stroke:#67000d;" x="190.310759" xlink:href="#m45e43adb82" y="187.262858"/>
     <use style="fill:#67000d;stroke:#67000d;" x="195.921367" xlink:href="#m45e43adb82" y="185.755391"/>
     <use style="fill:#67000d;stroke:#67000d;" x="199.464837" xlink:href="#m45e43adb82" y="183.920214"/>
     <use style="fill:#67000d;stroke:#67000d;" x="212.983153" xlink:href="#m45e43adb82" y="168.299357"/>
     <use style="fill:#67000d;stroke:#67000d;" x="226.50147" xlink:href="#m45e43adb82" y="106.121793"/>
     <use style="fill:#67000d;stroke:#67000d;" x="244.371712" xlink:href="#m45e43adb82" y="59.062597"/>
     <use style="fill:#67000d;stroke:#67000d;" x="257.890028" xlink:href="#m45e43adb82" y="58.101313"/>
     <use style="fill:#67000d;stroke:#67000d;" x="271.408345" xlink:href="#m45e43adb82" y="54.190637"/>
    </g>
   </g>
   <g id="line2d_72">
    <defs>
     <path d="M 0 1.5 
C 0.397805 1.5 0.77937 1.341951 1.06066 1.06066 
C 1.341951 0.77937 1.5 0.397805 1.5 0 
C 1.5 -0.397805 1.341951 -0.77937 1.06066 -1.06066 
C 0.77937 -1.341951 0.397805 -1.5 0 -1.5 
C -0.397805 -1.5 -0.77937 -1.341951 -1.06066 -1.06066 
C -1.341951 -0.77937 -1.5 -0.397805 -1.5 0 
C -1.5 0.397805 -1.341951 0.77937 -1.06066 1.06066 
C -0.77937 1.341951 -0.397805 1.5 0 1.5 
z
" id="m8d2b3c2131" style="stroke:#008000;"/>
    </defs>
    <g clip-path="url(#p33baa54261)">
     <use style="fill:#008000;stroke:#008000;" x="164.483141" xlink:href="#m8d2b3c2131" y="186.628395"/>
     <use style="fill:#008000;stroke:#008000;" x="178.001457" xlink:href="#m8d2b3c2131" y="185.907433"/>
     <use style="fill:#008000;stroke:#008000;" x="185.909165" xlink:href="#m8d2b3c2131" y="184.85876"/>
     <use style="fill:#008000;stroke:#008000;" x="191.519774" xlink:href="#m8d2b3c2131" y="183.416834"/>
     <use style="fill:#008000;stroke:#008000;" x="197.443697" xlink:href="#m8d2b3c2131" y="181.47242"/>
     <use style="fill:#008000;stroke:#008000;" x="210.962013" xlink:href="#m8d2b3c2131" y="165.654937"/>
     <use style="fill:#008000;stroke:#008000;" x="224.48033" xlink:href="#m8d2b3c2131" y="102.778258"/>
     <use style="fill:#008000;stroke:#008000;" x="242.350572" xlink:href="#m8d2b3c2131" y="55.282115"/>
     <use style="fill:#008000;stroke:#008000;" x="255.868888" xlink:href="#m8d2b3c2131" y="51.830233"/>
     <use style="fill:#008000;stroke:#008000;" x="269.387205" xlink:href="#m8d2b3c2131" y="45.516349"/>
    </g>
   </g>
   <g id="line2d_73">
    <defs>
     <path d="M 0 1.5 
C 0.397805 1.5 0.77937 1.341951 1.06066 1.06066 
C 1.341951 0.77937 1.5 0.397805 1.5 0 
C 1.5 -0.397805 1.341951 -0.77937 1.06066 -1.06066 
C 0.77937 -1.341951 0.397805 -1.5 0 -1.5 
C -0.397805 -1.5 -0.77937 -1.341951 -1.06066 -1.06066 
C -1.341951 -0.77937 -1.5 -0.397805 -1.5 0 
C -1.5 0.397805 -1.341951 0.77937 -1.06066 1.06066 
C -0.77937 1.341951 -0.397805 1.5 0 1.5 
z
" id="m2e8480843b" style="stroke:#0000ff;"/>
    </defs>
    <g clip-path="url(#p33baa54261)">
     <use style="fill:#0000ff;stroke:#0000ff;" x="31.334513" xlink:href="#m2e8480843b" y="186.781327"/>
     <use style="fill:#0000ff;stroke:#0000ff;" x="76.241388" xlink:href="#m2e8480843b" y="186.825021"/>
     <use style="fill:#0000ff;stroke:#0000ff;" x="107.629947" xlink:href="#m2e8480843b" y="186.825021"/>
     <use style="fill:#0000ff;stroke:#0000ff;" x="121.148263" xlink:href="#m2e8480843b" y="186.803174"/>
     <use style="fill:#0000ff;stroke:#0000ff;" x="134.66658" xlink:href="#m2e8480843b" y="186.825021"/>
     <use style="fill:#0000ff;stroke:#0000ff;" x="152.536822" xlink:href="#m2e8480843b" y="186.781327"/>
     <use style="fill:#0000ff;stroke:#0000ff;" x="167.627136" xlink:href="#m2e8480843b" y="186.5847"/>
     <use style="fill:#0000ff;stroke:#0000ff;" x="181.145452" xlink:href="#m2e8480843b" y="185.907433"/>
     <use style="fill:#0000ff;stroke:#0000ff;" x="189.053161" xlink:href="#m2e8480843b" y="184.815065"/>
     <use style="fill:#0000ff;stroke:#0000ff;" x="194.663769" xlink:href="#m2e8480843b" y="183.416834"/>
    </g>
   </g>
   <g id="patch_3">
    <path d="M 29.279688 197.16 
L 29.279688 22.2 
" style="fill:none;"/>
   </g>
   <g id="patch_4">
    <path d="M 285.534233 197.16 
L 285.534233 22.2 
" style="fill:none;"/>
   </g>
   <g id="patch_5">
    <path d="M 29.279688 197.16 
L 285.534233 197.16 
" style="fill:none;"/>
   </g>
   <g id="patch_6">
    <path d="M 29.279688 22.2 
L 285.534233 22.2 
" style="fill:none;"/>
   </g>
   <g id="text_11">
    <!-- insertion time -->
    <defs>
     <path d="M 18.703125 0 
L 6.84375 0 
L 6.84375 52.828125 
L 18.703125 52.828125 
z
M 6.109375 66.546875 
Q 6.109375 69.28125 7.84375 71.09375 
Q 9.578125 72.90625 12.796875 72.90625 
Q 16.015625 72.90625 17.765625 71.09375 
Q 19.53125 69.28125 19.53125 66.546875 
Q 19.53125 63.875 17.765625 62.078125 
Q 16.015625 60.296875 12.796875 60.296875 
Q 9.578125 60.296875 7.84375 62.078125 
Q 6.109375 63.875 6.109375 66.546875 
" id="Roboto-Medium-69"/>
     <path d="M 17.09375 52.828125 
L 17.4375 46.734375 
Q 23.296875 53.8125 32.8125 53.8125 
Q 49.3125 53.8125 49.609375 34.90625 
L 49.609375 0 
L 37.75 0 
L 37.75 34.234375 
Q 37.75 39.265625 35.578125 41.671875 
Q 33.40625 44.09375 28.46875 44.09375 
Q 21.296875 44.09375 17.78125 37.59375 
L 17.78125 0 
L 5.90625 0 
L 5.90625 52.828125 
z
" id="Roboto-Medium-6e"/>
     <path d="M 35.6875 14.359375 
Q 35.6875 17.53125 33.078125 19.1875 
Q 30.46875 20.84375 24.40625 22.109375 
Q 18.359375 23.390625 14.3125 25.34375 
Q 5.421875 29.640625 5.421875 37.796875 
Q 5.421875 44.625 11.171875 49.21875 
Q 16.9375 53.8125 25.828125 53.8125 
Q 35.296875 53.8125 41.125 49.125 
Q 46.96875 44.4375 46.96875 36.96875 
L 35.109375 36.96875 
Q 35.109375 40.375 32.5625 42.640625 
Q 30.03125 44.921875 25.828125 44.921875 
Q 21.921875 44.921875 19.453125 43.109375 
Q 17 41.3125 17 38.28125 
Q 17 35.546875 19.28125 34.03125 
Q 21.578125 32.515625 28.5625 30.96875 
Q 35.546875 29.4375 39.515625 27.3125 
Q 43.5 25.203125 45.421875 22.21875 
Q 47.359375 19.234375 47.359375 14.984375 
Q 47.359375 7.859375 41.453125 3.4375 
Q 35.546875 -0.984375 25.984375 -0.984375 
Q 19.484375 -0.984375 14.40625 1.359375 
Q 9.328125 3.71875 6.484375 7.8125 
Q 3.65625 11.921875 3.65625 16.65625 
L 15.1875 16.65625 
Q 15.4375 12.453125 18.359375 10.171875 
Q 21.296875 7.90625 26.125 7.90625 
Q 30.8125 7.90625 33.25 9.6875 
Q 35.6875 11.46875 35.6875 14.359375 
" id="Roboto-Medium-73"/>
     <path d="M 29.34375 -0.984375 
Q 18.0625 -0.984375 11.046875 6.125 
Q 4.046875 13.234375 4.046875 25.046875 
L 4.046875 26.515625 
Q 4.046875 34.421875 7.09375 40.640625 
Q 10.15625 46.875 15.671875 50.34375 
Q 21.1875 53.8125 27.984375 53.8125 
Q 38.765625 53.8125 44.640625 46.921875 
Q 50.53125 40.046875 50.53125 27.4375 
L 50.53125 22.65625 
L 16.015625 22.65625 
Q 16.546875 16.109375 20.375 12.296875 
Q 24.21875 8.5 30.03125 8.5 
Q 38.1875 8.5 43.3125 15.09375 
L 49.703125 8.984375 
Q 46.53125 4.25 41.234375 1.625 
Q 35.9375 -0.984375 29.34375 -0.984375 
M 27.9375 44.28125 
Q 23.046875 44.28125 20.046875 40.859375 
Q 17.046875 37.453125 16.21875 31.34375 
L 38.8125 31.34375 
L 38.8125 32.234375 
Q 38.421875 38.1875 35.640625 41.234375 
Q 32.859375 44.28125 27.9375 44.28125 
" id="Roboto-Medium-65"/>
     <path d="M 33.734375 42 
Q 31.390625 42.390625 28.90625 42.390625 
Q 20.75 42.390625 17.921875 36.140625 
L 17.921875 0 
L 6.0625 0 
L 6.0625 52.828125 
L 17.390625 52.828125 
L 17.671875 46.921875 
Q 21.96875 53.8125 29.59375 53.8125 
Q 32.125 53.8125 33.796875 53.125 
z
" id="Roboto-Medium-72"/>
     <path d="M 20.953125 65.671875 
L 20.953125 52.828125 
L 30.28125 52.828125 
L 30.28125 44.046875 
L 20.953125 44.046875 
L 20.953125 14.546875 
Q 20.953125 11.53125 22.140625 10.1875 
Q 23.34375 8.84375 26.421875 8.84375 
Q 28.46875 8.84375 30.5625 9.328125 
L 30.5625 0.140625 
Q 26.515625 -0.984375 22.75 -0.984375 
Q 9.078125 -0.984375 9.078125 14.109375 
L 9.078125 44.046875 
L 0.390625 44.046875 
L 0.390625 52.828125 
L 9.078125 52.828125 
L 9.078125 65.671875 
z
" id="Roboto-Medium-74"/>
     <path d="M 3.859375 26.90625 
Q 3.859375 34.671875 6.9375 40.890625 
Q 10.015625 47.125 15.578125 50.46875 
Q 21.140625 53.8125 28.375 53.8125 
Q 39.0625 53.8125 45.71875 46.921875 
Q 52.390625 40.046875 52.9375 28.65625 
L 52.984375 25.875 
Q 52.984375 18.0625 49.96875 11.90625 
Q 46.96875 5.765625 41.375 2.390625 
Q 35.796875 -0.984375 28.46875 -0.984375 
Q 17.28125 -0.984375 10.5625 6.46875 
Q 3.859375 13.921875 3.859375 26.3125 
z
M 15.71875 25.875 
Q 15.71875 17.71875 19.09375 13.109375 
Q 22.46875 8.5 28.46875 8.5 
Q 34.46875 8.5 37.8125 13.1875 
Q 41.15625 17.875 41.15625 26.90625 
Q 41.15625 34.90625 37.71875 39.59375 
Q 34.28125 44.28125 28.375 44.28125 
Q 22.5625 44.28125 19.140625 39.671875 
Q 15.71875 35.0625 15.71875 25.875 
" id="Roboto-Medium-6f"/>
     <path id="Roboto-Medium-20"/>
     <path d="M 17.234375 52.828125 
L 17.578125 47.3125 
Q 23.140625 53.8125 32.8125 53.8125 
Q 43.40625 53.8125 47.3125 45.703125 
Q 53.078125 53.8125 63.53125 53.8125 
Q 72.265625 53.8125 76.53125 48.96875 
Q 80.8125 44.140625 80.90625 34.71875 
L 80.90625 0 
L 69.046875 0 
L 69.046875 34.375 
Q 69.046875 39.40625 66.84375 41.75 
Q 64.65625 44.09375 59.578125 44.09375 
Q 55.515625 44.09375 52.953125 41.921875 
Q 50.390625 39.75 49.359375 36.234375 
L 49.421875 0 
L 37.546875 0 
L 37.546875 34.765625 
Q 37.3125 44.09375 28.03125 44.09375 
Q 20.90625 44.09375 17.921875 38.28125 
L 17.921875 0 
L 6.0625 0 
L 6.0625 52.828125 
z
" id="Roboto-Medium-6d"/>
    </defs>
    <g transform="translate(120.37196 16.2)scale(0.12 -0.12)">
     <use xlink:href="#Roboto-Medium-69"/>
     <use x="25.537109" xlink:href="#Roboto-Medium-6e"/>
     <use x="81.152344" xlink:href="#Roboto-Medium-73"/>
     <use x="132.763672" xlink:href="#Roboto-Medium-65"/>
     <use x="186.425781" xlink:href="#Roboto-Medium-72"/>
     <use x="221.582031" xlink:href="#Roboto-Medium-74"/>
     <use x="254.833984" xlink:href="#Roboto-Medium-69"/>
     <use x="280.371094" xlink:href="#Roboto-Medium-6f"/>
     <use x="337.304688" xlink:href="#Roboto-Medium-6e"/>
     <use x="392.919922" xlink:href="#Roboto-Medium-20"/>
     <use x="417.822266" xlink:href="#Roboto-Medium-74"/>
     <use x="451.074219" xlink:href="#Roboto-Medium-69"/>
     <use x="476.611328" xlink:href="#Roboto-Medium-6d"/>
     <use x="563.623047" xlink:href="#Roboto-Medium-65"/>
    </g>
   </g>
   <g id="legend_1">
    <g id="LineCollection_9">
     <path d="M 325.159688 35.2 
L 325.159688 25.2 
" style="fill:none;stroke:#fdcab5;"/>
    </g>
    <g id="line2d_74"/>
    <g id="line2d_75">
     <g>
      <use style="fill:#fdcab5;stroke:#fdcab5;" x="325.159688" xlink:href="#mbc872cf45c" y="30.2"/>
     </g>
    </g>
    <g id="text_12">
     <!-- /48, density 0.001 -->
     <defs>
      <path d="M 6.78125 -6.109375 
L 1.46875 -6.109375 
L 31.15625 71.09375 
L 36.421875 71.09375 
z
" id="Roboto-Light-2f"/>
      <path d="M 48.578125 52.78125 
Q 48.578125 47.265625 45.359375 42.890625 
Q 42.140625 38.53125 36.859375 36.46875 
Q 43.015625 34.375 46.71875 29.6875 
Q 50.4375 25 50.4375 18.84375 
Q 50.4375 9.71875 44.234375 4.359375 
Q 38.03125 -0.984375 27.828125 -0.984375 
Q 17.53125 -0.984375 11.34375 4.34375 
Q 5.171875 9.671875 5.171875 18.84375 
Q 5.171875 24.90625 8.734375 29.640625 
Q 12.3125 34.375 18.5 36.46875 
Q 13.234375 38.53125 10.109375 42.890625 
Q 6.984375 47.265625 6.984375 52.78125 
Q 6.984375 61.625 12.671875 66.84375 
Q 18.359375 72.078125 27.734375 72.078125 
Q 37.109375 72.078125 42.84375 66.796875 
Q 48.578125 61.53125 48.578125 52.78125 
M 44.578125 18.796875 
Q 44.578125 25.4375 39.84375 29.703125 
Q 35.109375 33.984375 27.734375 33.984375 
Q 20.359375 33.984375 15.671875 29.78125 
Q 10.984375 25.59375 10.984375 18.796875 
Q 10.984375 12.015625 15.515625 7.984375 
Q 20.0625 3.953125 27.828125 3.953125 
Q 35.40625 3.953125 39.984375 7.953125 
Q 44.578125 11.96875 44.578125 18.796875 
M 42.71875 52.828125 
Q 42.71875 58.9375 38.5 63.015625 
Q 34.28125 67.09375 27.734375 67.09375 
Q 21.09375 67.09375 16.96875 63.15625 
Q 12.84375 59.234375 12.84375 52.828125 
Q 12.84375 46.578125 16.96875 42.765625 
Q 21.09375 38.96875 27.78125 38.96875 
Q 34.375 38.96875 38.546875 42.796875 
Q 42.71875 46.625 42.71875 52.828125 
" id="Roboto-Light-38"/>
      <path d="M 6.390625 -13.28125 
L 2.9375 -10.75 
Q 7.375 -4.78125 7.515625 1.609375 
L 7.515625 9.1875 
L 13.234375 9.1875 
L 13.234375 3.078125 
Q 13.234375 -7.078125 6.390625 -13.28125 
" id="Roboto-Light-2c"/>
      <path d="M 5.28125 26.90625 
Q 5.28125 39.203125 10.765625 46.5 
Q 16.265625 53.8125 25.6875 53.8125 
Q 36.375 53.8125 42 45.359375 
L 42 75 
L 47.796875 75 
L 47.796875 0 
L 42.328125 0 
L 42.09375 7.03125 
Q 36.46875 -0.984375 25.59375 -0.984375 
Q 16.453125 -0.984375 10.859375 6.359375 
Q 5.28125 13.71875 5.28125 26.21875 
z
M 11.1875 25.875 
Q 11.1875 15.765625 15.234375 9.9375 
Q 19.28125 4.109375 26.65625 4.109375 
Q 37.453125 4.109375 42 13.625 
L 42 38.421875 
Q 37.453125 48.734375 26.765625 48.734375 
Q 19.390625 48.734375 15.28125 42.9375 
Q 11.1875 37.15625 11.1875 25.875 
" id="Roboto-Light-64"/>
      <path d="M 28.078125 -0.984375 
Q 21.34375 -0.984375 15.890625 2.34375 
Q 10.453125 5.671875 7.421875 11.59375 
Q 4.390625 17.53125 4.390625 24.90625 
L 4.390625 27 
Q 4.390625 34.625 7.34375 40.71875 
Q 10.296875 46.828125 15.5625 50.3125 
Q 20.84375 53.8125 27 53.8125 
Q 36.625 53.8125 42.265625 47.234375 
Q 47.90625 40.671875 47.90625 29.296875 
L 47.90625 26.03125 
L 10.203125 26.03125 
L 10.203125 24.90625 
Q 10.203125 15.921875 15.359375 9.9375 
Q 20.515625 3.953125 28.328125 3.953125 
Q 33.015625 3.953125 36.59375 5.65625 
Q 40.1875 7.375 43.109375 11.140625 
L 46.78125 8.34375 
Q 40.328125 -0.984375 28.078125 -0.984375 
M 27 48.828125 
Q 20.40625 48.828125 15.890625 43.984375 
Q 11.375 39.15625 10.40625 31 
L 42.09375 31 
L 42.09375 31.640625 
Q 41.84375 39.265625 37.734375 44.046875 
Q 33.640625 48.828125 27 48.828125 
" id="Roboto-Light-65"/>
      <path d="M 13.1875 52.828125 
L 13.375 43.796875 
Q 16.359375 48.6875 20.796875 51.25 
Q 25.25 53.8125 30.609375 53.8125 
Q 39.109375 53.8125 43.25 49.015625 
Q 47.40625 44.234375 47.46875 34.671875 
L 47.46875 0 
L 41.65625 0 
L 41.65625 34.71875 
Q 41.609375 41.796875 38.640625 45.265625 
Q 35.6875 48.734375 29.203125 48.734375 
Q 23.78125 48.734375 19.609375 45.328125 
Q 15.4375 41.9375 13.421875 36.1875 
L 13.421875 0 
L 7.625 0 
L 7.625 52.828125 
z
" id="Roboto-Light-6e"/>
      <path d="M 14.15625 0 
L 8.296875 0 
L 8.296875 52.828125 
L 14.15625 52.828125 
z
M 7.28125 68.109375 
Q 7.28125 69.78125 8.34375 70.921875 
Q 9.421875 72.078125 11.28125 72.078125 
Q 13.140625 72.078125 14.234375 70.921875 
Q 15.328125 69.78125 15.328125 68.109375 
Q 15.328125 66.453125 14.234375 65.328125 
Q 13.140625 64.203125 11.28125 64.203125 
Q 9.421875 64.203125 8.34375 65.328125 
Q 7.28125 66.453125 7.28125 68.109375 
" id="Roboto-Light-69"/>
      <path d="M 16.703125 66.359375 
L 16.703125 52.828125 
L 27.640625 52.828125 
L 27.640625 48.046875 
L 16.703125 48.046875 
L 16.703125 12.84375 
Q 16.703125 8.453125 18.28125 6.296875 
Q 19.875 4.15625 23.578125 4.15625 
Q 25.046875 4.15625 28.328125 4.640625 
L 28.5625 -0.140625 
Q 26.265625 -0.984375 22.3125 -0.984375 
Q 16.3125 -0.984375 13.578125 2.5 
Q 10.84375 6 10.84375 12.796875 
L 10.84375 48.046875 
L 1.125 48.046875 
L 1.125 52.828125 
L 10.84375 52.828125 
L 10.84375 66.359375 
z
" id="Roboto-Light-74"/>
      <path d="M 24.359375 8.40625 
L 39.796875 52.828125 
L 46.09375 52.828125 
L 23.53125 -8.984375 
L 22.359375 -11.71875 
Q 18.015625 -21.34375 8.9375 -21.34375 
Q 6.84375 -21.34375 4.4375 -20.65625 
L 4.390625 -15.828125 
L 7.421875 -16.109375 
Q 11.71875 -16.109375 14.375 -13.984375 
Q 17.046875 -11.859375 18.890625 -6.6875 
L 21.484375 0.4375 
L 1.5625 52.828125 
L 7.953125 52.828125 
z
" id="Roboto-Light-79"/>
      <path d="M 7.078125 3.515625 
Q 7.078125 5.21875 8.171875 6.421875 
Q 9.28125 7.625 11.234375 7.625 
Q 13.1875 7.625 14.3125 6.421875 
Q 15.4375 5.21875 15.4375 3.515625 
Q 15.4375 1.8125 14.3125 0.703125 
Q 13.1875 -0.390625 11.234375 -0.390625 
Q 9.28125 -0.390625 8.171875 0.703125 
Q 7.078125 1.8125 7.078125 3.515625 
" id="Roboto-Light-2e"/>
     </defs>
     <g transform="translate(343.159688 33.7)scale(0.1 -0.1)">
      <use xlink:href="#Roboto-Light-2f"/>
      <use x="39.697266" xlink:href="#Roboto-Light-34"/>
      <use x="95.117188" xlink:href="#Roboto-Light-38"/>
      <use x="150.537109" xlink:href="#Roboto-Light-2c"/>
      <use x="169.677734" xlink:href="#Roboto-Light-20"/>
      <use x="193.994141" xlink:href="#Roboto-Light-64"/>
      <use x="249.560547" xlink:href="#Roboto-Light-65"/>
      <use x="301.220703" xlink:href="#Roboto-Light-6e"/>
      <use x="356.152344" xlink:href="#Roboto-Light-73"/>
      <use x="406.787109" xlink:href="#Roboto-Light-69"/>
      <use x="429.199219" xlink:href="#Roboto-Light-74"/>
      <use x="461.328125" xlink:href="#Roboto-Light-79"/>
      <use x="508.837891" xlink:href="#Roboto-Light-20"/>
      <use x="533.154297" xlink:href="#Roboto-Light-30"/>
      <use x="588.574219" xlink:href="#Roboto-Light-2e"/>
      <use x="612.451172" xlink:href="#Roboto-Light-30"/>
      <use x="667.871094" xlink:href="#Roboto-Light-30"/>
      <use x="723.291016" xlink:href="#Roboto-Light-31"/>
     </g>
    </g>
    <g id="LineCollection_10">
     <path d="M 325.159688 49.834375 
L 325.159688 39.834375 
" style="fill:none;stroke:#fc9777;"/>
    </g>
    <g id="line2d_76"/>
    <g id="line2d_77">
     <g>
      <use style="fill:#fc9777;stroke:#fc9777;" x="325.159688" xlink:href="#m98e857da58" y="44.834375"/>
     </g>
    </g>
    <g id="text_13">
     <!-- /48, density 0.01 -->
     <g transform="translate(343.159688 48.334375)scale(0.1 -0.1)">
      <use xlink:href="#Roboto-Light-2f"/>
      <use x="39.697266" xlink:href="#Roboto-Light-34"/>
      <use x="95.117188" xlink:href="#Roboto-Light-38"/>
      <use x="150.537109" xlink:href="#Roboto-Light-2c"/>
      <use x="169.677734" xlink:href="#Roboto-Light-20"/>
      <use x="193.994141" xlink:href="#Roboto-Light-64"/>
      <use x="249.560547" xlink:href="#Roboto-Light-65"/>
      <use x="301.220703" xlink:href="#Roboto-Light-6e"/>
      <use x="356.152344" xlink:href="#Roboto-Light-73"/>
      <use x="406.787109" xlink:href="#Roboto-Light-69"/>
      <use x="429.199219" xlink:href="#Roboto-Light-74"/>
      <use x="461.328125" xlink:href="#Roboto-Light-79"/>
      <use x="508.837891" xlink:href="#Roboto-Light-20"/>
      <use x="533.154297" xlink:href="#Roboto-Light-30"/>
      <use x="588.574219" xlink:href="#Roboto-Light-2e"/>
      <use x="612.451172" xlink:href="#Roboto-Light-30"/>
      <use x="667.871094" xlink:href="#Roboto-Light-31"/>
     </g>
    </g>
    <g id="LineCollection_11">
     <path d="M 325.159688 64.46875 
L 325.159688 54.46875 
" style="fill:none;stroke:#f96245;"/>
    </g>
    <g id="line2d_78"/>
    <g id="line2d_79">
     <g>
      <use style="fill:#f96245;stroke:#f96245;" x="325.159688" xlink:href="#m158a129ec3" y="59.46875"/>
     </g>
    </g>
    <g id="text_14">
     <!-- /48, density 0.05 -->
     <defs>
      <path d="M 10.640625 36.421875 
L 14.109375 71.09375 
L 49.65625 71.09375 
L 49.65625 65.671875 
L 19.140625 65.671875 
L 16.65625 41.65625 
Q 22.359375 45.5625 30.03125 45.5625 
Q 39.65625 45.5625 45.359375 39.3125 
Q 51.078125 33.0625 51.078125 22.65625 
Q 51.078125 11.421875 45.5 5.21875 
Q 39.9375 -0.984375 29.828125 -0.984375 
Q 20.5625 -0.984375 14.796875 4.1875 
Q 9.03125 9.375 8.203125 18.703125 
L 13.8125 18.703125 
Q 14.65625 11.421875 18.75 7.6875 
Q 22.859375 3.953125 29.828125 3.953125 
Q 37.453125 3.953125 41.328125 8.78125 
Q 45.21875 13.625 45.21875 22.5625 
Q 45.21875 30.375 40.875 35.296875 
Q 36.53125 40.234375 29 40.234375 
Q 24.859375 40.234375 21.78125 39.1875 
Q 18.703125 38.140625 15.28125 35.109375 
z
" id="Roboto-Light-35"/>
     </defs>
     <g transform="translate(343.159688 62.96875)scale(0.1 -0.1)">
      <use xlink:href="#Roboto-Light-2f"/>
      <use x="39.697266" xlink:href="#Roboto-Light-34"/>
      <use x="95.117188" xlink:href="#Roboto-Light-38"/>
      <use x="150.537109" xlink:href="#Roboto-Light-2c"/>
      <use x="169.677734" xlink:href="#Roboto-Light-20"/>
      <use x="193.994141" xlink:href="#Roboto-Light-64"/>
      <use x="249.560547" xlink:href="#Roboto-Light-65"/>
      <use x="301.220703" xlink:href="#Roboto-Light-6e"/>
      <use x="356.152344" xlink:href="#Roboto-Light-73"/>
      <use x="406.787109" xlink:href="#Roboto-Light-69"/>
      <use x="429.199219" xlink:href="#Roboto-Light-74"/>
      <use x="461.328125" xlink:href="#Roboto-Light-79"/>
      <use x="508.837891" xlink:href="#Roboto-Light-20"/>
      <use x="533.154297" xlink:href="#Roboto-Light-30"/>
      <use x="588.574219" xlink:href="#Roboto-Light-2e"/>
      <use x="612.451172" xlink:href="#Roboto-Light-30"/>
      <use x="667.871094" xlink:href="#Roboto-Light-35"/>
     </g>
    </g>
    <g id="LineCollection_12">
     <path d="M 325.159688 79.103125 
L 325.159688 69.103125 
" style="fill:none;stroke:#de2b25;"/>
    </g>
    <g id="line2d_80"/>
    <g id="line2d_81">
     <g>
      <use style="fill:#de2b25;stroke:#de2b25;" x="325.159688" xlink:href="#mb1ac08e36d" y="74.103125"/>
     </g>
    </g>
    <g id="text_15">
     <!-- /48, density 0.1 -->
     <g transform="translate(343.159688 77.603125)scale(0.1 -0.1)">
      <use xlink:href="#Roboto-Light-2f"/>
      <use x="39.697266" xlink:href="#Roboto-Light-34"/>
      <use x="95.117188" xlink:href="#Roboto-Light-38"/>
      <use x="150.537109" xlink:href="#Roboto-Light-2c"/>
      <use x="169.677734" xlink:href="#Roboto-Light-20"/>
      <use x="193.994141" xlink:href="#Roboto-Light-64"/>
      <use x="249.560547" xlink:href="#Roboto-Light-65"/>
      <use x="301.220703" xlink:href="#Roboto-Light-6e"/>
      <use x="356.152344" xlink:href="#Roboto-Light-73"/>
      <use x="406.787109" xlink:href="#Roboto-Light-69"/>
      <use x="429.199219" xlink:href="#Roboto-Light-74"/>
      <use x="461.328125" xlink:href="#Roboto-Light-79"/>
      <use x="508.837891" xlink:href="#Roboto-Light-20"/>
      <use x="533.154297" xlink:href="#Roboto-Light-30"/>
      <use x="588.574219" xlink:href="#Roboto-Light-2e"/>
      <use x="612.451172" xlink:href="#Roboto-Light-31"/>
     </g>
    </g>
    <g id="LineCollection_13">
     <path d="M 325.159688 93.7375 
L 325.159688 83.7375 
" style="fill:none;stroke:#af1117;"/>
    </g>
    <g id="line2d_82"/>
    <g id="line2d_83">
     <g>
      <use style="fill:#af1117;stroke:#af1117;" x="325.159688" xlink:href="#m1cb524ce5a" y="88.7375"/>
     </g>
    </g>
    <g id="text_16">
     <!-- /48, density 0.5 -->
     <g transform="translate(343.159688 92.2375)scale(0.1 -0.1)">
      <use xlink:href="#Roboto-Light-2f"/>
      <use x="39.697266" xlink:href="#Roboto-Light-34"/>
      <use x="95.117188" xlink:href="#Roboto-Light-38"/>
      <use x="150.537109" xlink:href="#Roboto-Light-2c"/>
      <use x="169.677734" xlink:href="#Roboto-Light-20"/>
      <use x="193.994141" xlink:href="#Roboto-Light-64"/>
      <use x="249.560547" xlink:href="#Roboto-Light-65"/>
      <use x="301.220703" xlink:href="#Roboto-Light-6e"/>
      <use x="356.152344" xlink:href="#Roboto-Light-73"/>
      <use x="406.787109" xlink:href="#Roboto-Light-69"/>
      <use x="429.199219" xlink:href="#Roboto-Light-74"/>
      <use x="461.328125" xlink:href="#Roboto-Light-79"/>
      <use x="508.837891" xlink:href="#Roboto-Light-20"/>
      <use x="533.154297" xlink:href="#Roboto-Light-30"/>
      <use x="588.574219" xlink:href="#Roboto-Light-2e"/>
      <use x="612.451172" xlink:href="#Roboto-Light-35"/>
     </g>
    </g>
    <g id="LineCollection_14">
     <path d="M 325.159688 108.371875 
L 325.159688 98.371875 
" style="fill:none;stroke:#67000d;"/>
    </g>
    <g id="line2d_84"/>
    <g id="line2d_85">
     <g>
      <use style="fill:#67000d;stroke:#67000d;" x="325.159688" xlink:href="#m45e43adb82" y="103.371875"/>
     </g>
    </g>
    <g id="text_17">
     <!-- /48, density 1.0 -->
     <g transform="translate(343.159688 106.871875)scale(0.1 -0.1)">
      <use xlink:href="#Roboto-Light-2f"/>
      <use x="39.697266" xlink:href="#Roboto-Light-34"/>
      <use x="95.117188" xlink:href="#Roboto-Light-38"/>
      <use x="150.537109" xlink:href="#Roboto-Light-2c"/>
      <use x="169.677734" xlink:href="#Roboto-Light-20"/>
      <use x="193.994141" xlink:href="#Roboto-Light-64"/>
      <use x="249.560547" xlink:href="#Roboto-Light-65"/>
      <use x="301.220703" xlink:href="#Roboto-Light-6e"/>
      <use x="356.152344" xlink:href="#Roboto-Light-73"/>
      <use x="406.787109" xlink:href="#Roboto-Light-69"/>
      <use x="429.199219" xlink:href="#Roboto-Light-74"/>
      <use x="461.328125" xlink:href="#Roboto-Light-79"/>
      <use x="508.837891" xlink:href="#Roboto-Light-20"/>
      <use x="533.154297" xlink:href="#Roboto-Light-31"/>
      <use x="588.574219" xlink:href="#Roboto-Light-2e"/>
      <use x="612.451172" xlink:href="#Roboto-Light-30"/>
     </g>
    </g>
    <g id="LineCollection_15">
     <path d="M 325.159688 123.475 
L 325.159688 113.475 
" style="fill:none;stroke:#008000;"/>
    </g>
    <g id="line2d_86"/>
    <g id="line2d_87">
     <g>
      <use style="fill:#008000;stroke:#008000;" x="325.159688" xlink:href="#m8d2b3c2131" y="118.475"/>
     </g>
    </g>
    <g id="text_18">
     <!-- /128 (random) -->
     <defs>
      <path d="M 6.84375 28.71875 
Q 6.84375 39.359375 9.578125 49.390625 
Q 12.3125 59.421875 17.578125 67.75 
Q 22.859375 76.078125 28.90625 79.6875 
L 30.328125 75.734375 
Q 27.09375 73.4375 23.921875 69.046875 
Q 20.75 64.65625 18.25 58.59375 
Q 15.765625 52.546875 14.234375 45 
Q 12.703125 37.453125 12.703125 27.875 
Q 12.703125 17.671875 15.015625 8.25 
Q 17.328125 -1.171875 21.375 -8.375 
Q 25.4375 -15.578125 30.328125 -19.1875 
L 28.90625 -22.953125 
Q 22.703125 -19.234375 17.421875 -10.953125 
Q 12.15625 -2.6875 9.5 7.25 
Q 6.84375 17.1875 6.84375 28.71875 
" id="Roboto-Light-28"/>
      <path d="M 32.03125 47.859375 
Q 30.171875 48.1875 28.078125 48.1875 
Q 22.609375 48.1875 18.828125 45.140625 
Q 15.046875 42.09375 13.421875 36.28125 
L 13.421875 0 
L 7.625 0 
L 7.625 52.828125 
L 13.328125 52.828125 
L 13.421875 44.4375 
Q 18.0625 53.8125 28.328125 53.8125 
Q 30.765625 53.8125 32.171875 53.171875 
z
" id="Roboto-Light-72"/>
      <path d="M 40.96875 0 
Q 40.09375 2.484375 39.84375 7.375 
Q 36.765625 3.375 32 1.1875 
Q 27.25 -0.984375 21.921875 -0.984375 
Q 14.3125 -0.984375 9.59375 3.265625 
Q 4.890625 7.515625 4.890625 14.015625 
Q 4.890625 21.734375 11.296875 26.21875 
Q 17.71875 30.71875 29.203125 30.71875 
L 39.796875 30.71875 
L 39.796875 36.71875 
Q 39.796875 42.390625 36.296875 45.625 
Q 32.8125 48.875 26.125 48.875 
Q 20.015625 48.875 16.015625 45.75 
Q 12.015625 42.625 12.015625 38.234375 
L 6.15625 38.28125 
Q 6.15625 44.578125 12.015625 49.1875 
Q 17.875 53.8125 26.421875 53.8125 
Q 35.25 53.8125 40.34375 49.390625 
Q 45.453125 44.96875 45.609375 37.0625 
L 45.609375 12.0625 
Q 45.609375 4.390625 47.21875 0.59375 
L 47.21875 0 
z
M 22.609375 4.203125 
Q 28.46875 4.203125 33.078125 7.03125 
Q 37.703125 9.859375 39.796875 14.59375 
L 39.796875 26.21875 
L 29.34375 26.21875 
Q 20.609375 26.125 15.671875 23.015625 
Q 10.75 19.921875 10.75 14.5 
Q 10.75 10.0625 14.03125 7.125 
Q 17.328125 4.203125 22.609375 4.203125 
" id="Roboto-Light-61"/>
      <path d="M 4.390625 27.203125 
Q 4.390625 34.8125 7.34375 40.90625 
Q 10.296875 47.015625 15.6875 50.40625 
Q 21.09375 53.8125 27.9375 53.8125 
Q 38.484375 53.8125 45.015625 46.40625 
Q 51.5625 39.015625 51.5625 26.8125 
L 51.5625 25.59375 
Q 51.5625 17.921875 48.609375 11.796875 
Q 45.65625 5.671875 40.28125 2.34375 
Q 34.90625 -0.984375 28.03125 -0.984375 
Q 17.53125 -0.984375 10.953125 6.40625 
Q 4.390625 13.8125 4.390625 26.03125 
z
M 10.25 25.59375 
Q 10.25 16.109375 15.15625 10.03125 
Q 20.0625 3.953125 28.03125 3.953125 
Q 35.9375 3.953125 40.84375 10.03125 
Q 45.75 16.109375 45.75 26.078125 
L 45.75 27.203125 
Q 45.75 33.25 43.5 38.28125 
Q 41.265625 43.3125 37.203125 46.0625 
Q 33.15625 48.828125 27.9375 48.828125 
Q 20.125 48.828125 15.1875 42.703125 
Q 10.25 36.578125 10.25 26.65625 
z
" id="Roboto-Light-6f"/>
      <path d="M 12.9375 52.828125 
L 13.140625 44.234375 
Q 16.0625 49.03125 20.453125 51.421875 
Q 24.859375 53.8125 30.21875 53.8125 
Q 42.71875 53.8125 46.09375 43.5625 
Q 48.921875 48.484375 53.65625 51.140625 
Q 58.40625 53.8125 64.109375 53.8125 
Q 81.109375 53.8125 81.453125 35.25 
L 81.453125 0 
L 75.59375 0 
L 75.59375 34.8125 
Q 75.53125 41.890625 72.53125 45.3125 
Q 69.53125 48.734375 62.75 48.734375 
Q 56.453125 48.640625 52.09375 44.65625 
Q 47.75 40.671875 47.265625 34.96875 
L 47.265625 0 
L 41.40625 0 
L 41.40625 35.25 
Q 41.359375 42.046875 38.203125 45.390625 
Q 35.0625 48.734375 28.515625 48.734375 
Q 23 48.734375 19.046875 45.578125 
Q 15.09375 42.4375 13.1875 36.234375 
L 13.1875 0 
L 7.328125 0 
L 7.328125 52.828125 
z
" id="Roboto-Light-6d"/>
      <path d="M 25.09375 27.984375 
Q 25.09375 17.234375 22.4375 7.296875 
Q 19.78125 -2.640625 14.546875 -10.890625 
Q 9.328125 -19.140625 3.03125 -22.953125 
L 1.609375 -19.1875 
Q 6.390625 -15.765625 10.46875 -8.59375 
Q 14.546875 -1.421875 16.890625 8.125 
Q 19.234375 17.671875 19.234375 28.859375 
Q 19.234375 38.96875 16.890625 48.359375 
Q 14.546875 57.765625 10.421875 65.15625 
Q 6.296875 72.5625 1.609375 75.921875 
L 3.03125 79.6875 
Q 9.1875 75.921875 14.40625 67.671875 
Q 19.625 59.421875 22.359375 49.359375 
Q 25.09375 39.3125 25.09375 27.984375 
" id="Roboto-Light-29"/>
     </defs>
     <g transform="translate(343.159688 121.975)scale(0.1 -0.1)">
      <use xlink:href="#Roboto-Light-2f"/>
      <use x="39.697266" xlink:href="#Roboto-Light-31"/>
      <use x="95.117188" xlink:href="#Roboto-Light-32"/>
      <use x="150.537109" xlink:href="#Roboto-Light-38"/>
      <use x="205.957031" xlink:href="#Roboto-Light-20"/>
      <use x="230.273438" xlink:href="#Roboto-Light-28"/>
      <use x="262.158203" xlink:href="#Roboto-Light-72"/>
      <use x="295.800781" xlink:href="#Roboto-Light-61"/>
      <use x="349.365234" xlink:href="#Roboto-Light-6e"/>
      <use x="404.296875" xlink:href="#Roboto-Light-64"/>
      <use x="459.863281" xlink:href="#Roboto-Light-6f"/>
      <use x="515.869141" xlink:href="#Roboto-Light-6d"/>
      <use x="604.492188" xlink:href="#Roboto-Light-29"/>
     </g>
    </g>
    <g id="LineCollection_16">
     <path d="M 325.159688 138.270313 
L 325.159688 128.270313 
" style="fill:none;stroke:#0000ff;"/>
    </g>
    <g id="line2d_88"/>
    <g id="line2d_89">
     <g>
      <use style="fill:#0000ff;stroke:#0000ff;" x="325.159688" xlink:href="#m2e8480843b" y="133.270313"/>
     </g>
    </g>
    <g id="text_19">
     <!-- from full view -->
     <defs>
      <path d="M 11.8125 0 
L 11.8125 48.046875 
L 3.078125 48.046875 
L 3.078125 52.828125 
L 11.8125 52.828125 
L 11.8125 59.234375 
Q 11.8125 67.328125 15.9375 71.671875 
Q 20.0625 76.03125 27.4375 76.03125 
Q 30.765625 76.03125 33.640625 75.203125 
L 33.203125 70.3125 
Q 30.765625 70.90625 27.875 70.90625 
Q 23.046875 70.90625 20.359375 67.890625 
Q 17.671875 64.890625 17.671875 59.375 
L 17.671875 52.828125 
L 30.28125 52.828125 
L 30.28125 48.046875 
L 17.671875 48.046875 
L 17.671875 0 
z
" id="Roboto-Light-66"/>
      <path d="M 41.609375 6.6875 
Q 36.328125 -0.984375 24.75 -0.984375 
Q 16.3125 -0.984375 11.90625 3.921875 
Q 7.515625 8.84375 7.421875 18.453125 
L 7.421875 52.828125 
L 13.234375 52.828125 
L 13.234375 19.1875 
Q 13.234375 4.109375 25.4375 4.109375 
Q 38.140625 4.109375 41.5 14.59375 
L 41.5 52.828125 
L 47.359375 52.828125 
L 47.359375 0 
L 41.703125 0 
z
" id="Roboto-Light-75"/>
      <path d="M 14.15625 0 
L 8.296875 0 
L 8.296875 75 
L 14.15625 75 
z
" id="Roboto-Light-6c"/>
      <path d="M 24.078125 8.0625 
L 40.140625 52.828125 
L 46.140625 52.828125 
L 26.421875 0 
L 21.6875 0 
L 1.859375 52.828125 
L 7.859375 52.828125 
z
" id="Roboto-Light-76"/>
      <path d="M 20.265625 12.15625 
L 21.140625 7.625 
L 22.3125 12.40625 
L 35.015625 52.828125 
L 39.984375 52.828125 
L 52.546875 12.75 
L 53.90625 7.171875 
L 55.03125 12.3125 
L 65.875 52.828125 
L 71.921875 52.828125 
L 56.546875 0 
L 51.5625 0 
L 37.984375 41.890625 
L 37.359375 44.78125 
L 36.71875 41.84375 
L 23.390625 0 
L 18.40625 0 
L 3.078125 52.828125 
L 9.078125 52.828125 
z
" id="Roboto-Light-77"/>
     </defs>
     <g transform="translate(343.159688 136.770313)scale(0.1 -0.1)">
      <use xlink:href="#Roboto-Light-66"/>
      <use x="33.105469" xlink:href="#Roboto-Light-72"/>
      <use x="66.748047" xlink:href="#Roboto-Light-6f"/>
      <use x="122.753906" xlink:href="#Roboto-Light-6d"/>
      <use x="211.376953" xlink:href="#Roboto-Light-20"/>
      <use x="235.693359" xlink:href="#Roboto-Light-66"/>
      <use x="268.798828" xlink:href="#Roboto-Light-75"/>
      <use x="323.730469" xlink:href="#Roboto-Light-6c"/>
      <use x="346.142578" xlink:href="#Roboto-Light-6c"/>
      <use x="368.554688" xlink:href="#Roboto-Light-20"/>
      <use x="392.871094" xlink:href="#Roboto-Light-76"/>
      <use x="440.966797" xlink:href="#Roboto-Light-69"/>
      <use x="463.378906" xlink:href="#Roboto-Light-65"/>
      <use x="515.039062" xlink:href="#Roboto-Light-77"/>
     </g>
    </g>
   </g>
  </g>
 </g>
 <defs>
  <clipPath id="p33baa54261">
   <rect height="174.96" width="256.254545" x="29.279688" y="22.2"/>
  </clipPath>
 </defs>
</svg>
