<?xml version="1.0" encoding="utf-8" standalone="no"?>
<!DOCTYPE svg PUBLIC "-//W3C//DTD SVG 1.1//EN"
  "http://www.w3.org/Graphics/SVG/1.1/DTD/svg11.dtd">
<!-- Created with matplotlib (http://matplotlib.org/) -->
<svg height="298pt" version="1.1" viewBox="0 0 475 298" width="475pt" xmlns="http://www.w3.org/2000/svg" xmlns:xlink="http://www.w3.org/1999/xlink">
 <defs>
  <style type="text/css">
*{stroke-linecap:butt;stroke-linejoin:round;}
  </style>
 </defs>
 <g id="figure_1">
  <g id="patch_1">
   <path d="M 0 298.170697 
L 475.928562 298.170697 
L 475.928562 0 
L 0 0 
z
" style="fill:#ffffff;"/>
  </g>
  <g id="axes_1">
   <g id="patch_2">
    <path d="M 42.776563 249.77175 
L 468.728562 249.77175 
L 468.728562 22.32375 
L 42.776563 22.32375 
z
" style="fill:#ffffff;"/>
   </g>
   <g id="matplotlib.axis_1">
    <g id="xtick_1">
     <g id="line2d_1">
      <path clip-path="url(#pc4275e321a)" d="M 62.138017 249.77175 
L 62.138017 22.32375 
" style="fill:none;stroke:#cbcbcb;stroke-width:0.75;"/>
     </g>
     <g id="line2d_2"/>
     <g id="text_1">
      <!-- 2.6.39.4 -->
      <defs>
       <path d="M 51.21875 0 
L 6.6875 0 
L 6.6875 4.5 
L 31.0625 32.125 
Q 37.109375 39.109375 39.453125 43.640625 
Q 41.796875 48.1875 41.796875 52.484375 
Q 41.796875 59.234375 37.84375 63.15625 
Q 33.890625 67.09375 26.953125 67.09375 
Q 19.78125 67.09375 15.359375 62.5 
Q 10.9375 57.90625 10.9375 50.59375 
L 5.125 50.59375 
Q 5.125 56.59375 7.828125 61.515625 
Q 10.546875 66.453125 15.546875 69.265625 
Q 20.5625 72.078125 26.953125 72.078125 
Q 36.71875 72.078125 42.203125 66.9375 
Q 47.703125 61.8125 47.703125 52.984375 
Q 47.703125 48 44.59375 42.09375 
Q 41.5 36.1875 33.6875 27.34375 
L 13.875 4.9375 
L 51.21875 4.9375 
z
" id="Roboto-Light-32"/>
       <path d="M 7.078125 3.515625 
Q 7.078125 5.21875 8.171875 6.421875 
Q 9.28125 7.625 11.234375 7.625 
Q 13.1875 7.625 14.3125 6.421875 
Q 15.4375 5.21875 15.4375 3.515625 
Q 15.4375 1.8125 14.3125 0.703125 
Q 13.1875 -0.390625 11.234375 -0.390625 
Q 9.28125 -0.390625 8.171875 0.703125 
Q 7.078125 1.8125 7.078125 3.515625 
" id="Roboto-Light-2e"/>
       <path d="M 41.15625 71.625 
L 41.15625 66.5 
L 40.484375 66.5 
Q 27.734375 66.5 20.40625 59 
Q 13.09375 51.515625 12.3125 38.1875 
Q 15.234375 42.234375 19.765625 44.453125 
Q 24.3125 46.6875 29.9375 46.6875 
Q 39.3125 46.6875 44.84375 40.203125 
Q 50.390625 33.734375 50.390625 23.296875 
Q 50.390625 16.359375 47.796875 10.78125 
Q 45.21875 5.21875 40.375 2.109375 
Q 35.546875 -0.984375 29.34375 -0.984375 
Q 19.140625 -0.984375 12.734375 6.40625 
Q 6.34375 13.8125 6.34375 25.53125 
L 6.34375 31.390625 
Q 6.34375 50.484375 15.03125 60.953125 
Q 23.734375 71.4375 39.703125 71.625 
z
M 29 41.65625 
Q 23.4375 41.65625 18.625 38.359375 
Q 13.8125 35.0625 12.203125 29.984375 
L 12.203125 25 
Q 12.203125 15.71875 16.96875 9.859375 
Q 21.734375 4 29.34375 4 
Q 36.1875 4 40.40625 9.421875 
Q 44.625 14.84375 44.625 23.09375 
Q 44.625 31.5 40.40625 36.578125 
Q 36.1875 41.65625 29 41.65625 
" id="Roboto-Light-36"/>
       <path d="M 19.671875 38.71875 
L 25.734375 38.71875 
Q 30.765625 38.71875 34.515625 40.5 
Q 38.28125 42.28125 40.25 45.375 
Q 42.234375 48.484375 42.234375 52.546875 
Q 42.234375 59.375 38.375 63.234375 
Q 34.515625 67.09375 27.296875 67.09375 
Q 20.453125 67.09375 16.078125 63.0625 
Q 11.71875 59.03125 11.71875 52.4375 
L 5.859375 52.4375 
Q 5.859375 57.953125 8.640625 62.515625 
Q 11.421875 67.09375 16.359375 69.578125 
Q 21.296875 72.078125 27.296875 72.078125 
Q 36.96875 72.078125 42.53125 66.796875 
Q 48.09375 61.53125 48.09375 52.34375 
Q 48.09375 47.21875 44.84375 42.890625 
Q 41.609375 38.578125 35.9375 36.421875 
Q 42.578125 34.578125 46 30.046875 
Q 49.421875 25.53125 49.421875 19.28125 
Q 49.421875 10.15625 43.453125 4.578125 
Q 37.5 -0.984375 27.546875 -0.984375 
Q 21.1875 -0.984375 15.890625 1.5625 
Q 10.59375 4.109375 7.6875 8.671875 
Q 4.78125 13.234375 4.78125 19.28125 
L 10.640625 19.28125 
Q 10.640625 12.5 15.375 8.21875 
Q 20.125 3.953125 27.546875 3.953125 
Q 35.109375 3.953125 39.328125 7.828125 
Q 43.5625 11.71875 43.5625 19.09375 
Q 43.5625 26.21875 38.984375 29.96875 
Q 34.421875 33.734375 25.53125 33.734375 
L 19.671875 33.734375 
z
" id="Roboto-Light-33"/>
       <path d="M 43.171875 32.90625 
Q 40.046875 28.328125 35.40625 25.8125 
Q 30.765625 23.296875 25.34375 23.296875 
Q 19.28125 23.296875 14.640625 26.421875 
Q 10.015625 29.546875 7.46875 35.0625 
Q 4.9375 40.578125 4.9375 47.125 
Q 4.9375 54.15625 7.640625 59.90625 
Q 10.359375 65.671875 15.203125 68.875 
Q 20.0625 72.078125 26.421875 72.078125 
Q 37.109375 72.078125 43.0625 64.578125 
Q 49.03125 57.078125 49.03125 43.3125 
L 49.03125 38.03125 
Q 49.03125 18.796875 40.828125 9.125 
Q 32.625 -0.53125 15.765625 -0.53125 
L 14.703125 -0.53125 
L 14.75 4.546875 
L 16.796875 4.546875 
Q 29.546875 4.734375 36.1875 11.765625 
Q 42.828125 18.796875 43.171875 32.90625 
M 26.078125 28.328125 
Q 31.9375 28.328125 36.59375 31.8125 
Q 41.265625 35.296875 43.21875 40.875 
L 43.21875 44.234375 
Q 43.21875 55.078125 38.703125 61.0625 
Q 34.1875 67.046875 26.515625 67.046875 
Q 19.578125 67.046875 15.125 61.453125 
Q 10.6875 55.859375 10.6875 47.359375 
Q 10.6875 39.203125 14.953125 33.765625 
Q 19.234375 28.328125 26.078125 28.328125 
" id="Roboto-Light-39"/>
       <path d="M 42.578125 22.90625 
L 53.65625 22.90625 
L 53.65625 17.96875 
L 42.578125 17.96875 
L 42.578125 0 
L 36.71875 0 
L 36.71875 17.96875 
L 3.265625 17.96875 
L 3.265625 21.296875 
L 36.1875 71.09375 
L 42.578125 71.09375 
z
M 10.453125 22.90625 
L 36.71875 22.90625 
L 36.71875 63.53125 
L 34.125 59.03125 
z
" id="Roboto-Light-34"/>
      </defs>
      <g transform="translate(42.942184 287.223033)rotate(-60)scale(0.1 -0.1)">
       <use xlink:href="#Roboto-Light-32"/>
       <use x="55.419922" xlink:href="#Roboto-Light-2e"/>
       <use x="79.296875" xlink:href="#Roboto-Light-36"/>
       <use x="134.716797" xlink:href="#Roboto-Light-2e"/>
       <use x="158.59375" xlink:href="#Roboto-Light-33"/>
       <use x="214.013672" xlink:href="#Roboto-Light-39"/>
       <use x="269.433594" xlink:href="#Roboto-Light-2e"/>
       <use x="293.310547" xlink:href="#Roboto-Light-34"/>
      </g>
     </g>
    </g>
    <g id="xtick_2">
     <g id="line2d_3">
      <path clip-path="url(#pc4275e321a)" d="M 73.872232 249.77175 
L 73.872232 22.32375 
" style="fill:none;stroke:#cbcbcb;stroke-width:0.75;"/>
     </g>
     <g id="line2d_4"/>
     <g id="text_2">
      <!-- 3.0.101 -->
      <defs>
       <path d="M 49.5625 29.640625 
Q 49.5625 14.59375 44.046875 6.796875 
Q 38.53125 -0.984375 27.78125 -0.984375 
Q 17.234375 -0.984375 11.609375 6.65625 
Q 6 14.3125 5.859375 28.90625 
L 5.859375 41.65625 
Q 5.859375 56.640625 11.421875 64.359375 
Q 17 72.078125 27.6875 72.078125 
Q 38.234375 72.078125 43.796875 64.625 
Q 49.359375 57.171875 49.5625 42.671875 
z
M 43.703125 42.390625 
Q 43.703125 54.59375 39.71875 60.84375 
Q 35.75 67.09375 27.6875 67.09375 
Q 19.78125 67.09375 15.765625 60.984375 
Q 11.765625 54.890625 11.671875 42.96875 
L 11.671875 29 
Q 11.671875 16.84375 15.796875 10.390625 
Q 19.921875 3.953125 27.78125 3.953125 
Q 35.59375 3.953125 39.625 10.25 
Q 43.65625 16.546875 43.703125 28.71875 
z
" id="Roboto-Light-30"/>
       <path d="M 33.890625 0 
L 28.03125 0 
L 28.03125 64.0625 
L 8.6875 56.890625 
L 8.6875 62.359375 
L 32.90625 71.34375 
L 33.890625 71.34375 
z
" id="Roboto-Light-31"/>
      </defs>
      <g transform="translate(55.870149 285.155397)rotate(-60)scale(0.1 -0.1)">
       <use xlink:href="#Roboto-Light-33"/>
       <use x="55.419922" xlink:href="#Roboto-Light-2e"/>
       <use x="79.296875" xlink:href="#Roboto-Light-30"/>
       <use x="134.716797" xlink:href="#Roboto-Light-2e"/>
       <use x="158.59375" xlink:href="#Roboto-Light-31"/>
       <use x="214.013672" xlink:href="#Roboto-Light-30"/>
       <use x="269.433594" xlink:href="#Roboto-Light-31"/>
      </g>
     </g>
    </g>
    <g id="xtick_3">
     <g id="line2d_5">
      <path clip-path="url(#pc4275e321a)" d="M 85.606447 249.77175 
L 85.606447 22.32375 
" style="fill:none;stroke:#000000;stroke-width:0.75;"/>
     </g>
     <g id="line2d_6"/>
     <g id="text_3">
      <!-- 3.1.10 -->
      <defs>
       <path d="M 19.1875 41.796875 
L 26.703125 41.796875 
Q 32.078125 41.796875 34.65625 44.484375 
Q 37.25 47.171875 37.25 51.609375 
Q 37.25 55.90625 34.6875 58.296875 
Q 32.125 60.6875 27.640625 60.6875 
Q 23.578125 60.6875 20.84375 58.46875 
Q 18.109375 56.25 18.109375 52.6875 
L 4 52.6875 
Q 4 58.25 7 62.671875 
Q 10.015625 67.09375 15.40625 69.578125 
Q 20.796875 72.078125 27.296875 72.078125 
Q 38.578125 72.078125 44.96875 66.671875 
Q 51.375 61.28125 51.375 51.8125 
Q 51.375 46.921875 48.390625 42.8125 
Q 45.40625 38.71875 40.578125 36.53125 
Q 46.578125 34.375 49.53125 30.078125 
Q 52.484375 25.78125 52.484375 19.921875 
Q 52.484375 10.453125 45.578125 4.734375 
Q 38.671875 -0.984375 27.296875 -0.984375 
Q 16.65625 -0.984375 9.890625 4.625 
Q 3.125 10.25 3.125 19.484375 
L 17.234375 19.484375 
Q 17.234375 15.484375 20.234375 12.9375 
Q 23.25 10.40625 27.640625 10.40625 
Q 32.671875 10.40625 35.515625 13.0625 
Q 38.375 15.71875 38.375 20.125 
Q 38.375 30.765625 26.65625 30.765625 
L 19.1875 30.765625 
z
" id="Roboto-Bold-33"/>
       <path d="M 6.15625 6.9375 
Q 6.15625 10.296875 8.421875 12.390625 
Q 10.6875 14.5 14.109375 14.5 
Q 17.578125 14.5 19.84375 12.390625 
Q 22.125 10.296875 22.125 6.9375 
Q 22.125 3.609375 19.875 1.53125 
Q 17.625 -0.53125 14.109375 -0.53125 
Q 10.640625 -0.53125 8.390625 1.53125 
Q 6.15625 3.609375 6.15625 6.9375 
" id="Roboto-Bold-2e"/>
       <path d="M 39.109375 0 
L 25 0 
L 25 54.390625 
L 8.15625 49.171875 
L 8.15625 60.640625 
L 37.59375 71.1875 
L 39.109375 71.1875 
z
" id="Roboto-Bold-31"/>
       <path d="M 52.6875 29.390625 
Q 52.6875 14.65625 46.578125 6.828125 
Q 40.484375 -0.984375 28.71875 -0.984375 
Q 17.09375 -0.984375 10.9375 6.6875 
Q 4.78125 14.359375 4.640625 28.65625 
L 4.640625 41.75 
Q 4.640625 56.640625 10.8125 64.359375 
Q 17 72.078125 28.609375 72.078125 
Q 40.234375 72.078125 46.390625 64.421875 
Q 52.546875 56.78125 52.6875 42.484375 
z
M 38.578125 43.75 
Q 38.578125 52.59375 36.15625 56.609375 
Q 33.734375 60.640625 28.609375 60.640625 
Q 23.640625 60.640625 21.265625 56.8125 
Q 18.890625 52.984375 18.75 44.828125 
L 18.75 27.546875 
Q 18.75 18.84375 21.109375 14.625 
Q 23.484375 10.40625 28.71875 10.40625 
Q 33.890625 10.40625 36.1875 14.453125 
Q 38.484375 18.5 38.578125 26.859375 
z
" id="Roboto-Bold-30"/>
      </defs>
      <g transform="translate(69.467645 281.928099)rotate(-60)scale(0.1 -0.1)">
       <use xlink:href="#Roboto-Bold-33"/>
       <use x="57.373047" xlink:href="#Roboto-Bold-2e"/>
       <use x="86.425781" xlink:href="#Roboto-Bold-31"/>
       <use x="143.798828" xlink:href="#Roboto-Bold-2e"/>
       <use x="172.851562" xlink:href="#Roboto-Bold-31"/>
       <use x="230.224609" xlink:href="#Roboto-Bold-30"/>
      </g>
     </g>
    </g>
    <g id="xtick_4">
     <g id="line2d_7">
      <path clip-path="url(#pc4275e321a)" d="M 97.340662 249.77175 
L 97.340662 22.32375 
" style="fill:none;stroke:#cbcbcb;stroke-width:0.75;"/>
     </g>
     <g id="line2d_8"/>
     <g id="text_4">
      <!-- 3.2.91 -->
      <g transform="translate(82.109673 280.355722)rotate(-60)scale(0.1 -0.1)">
       <use xlink:href="#Roboto-Light-33"/>
       <use x="55.419922" xlink:href="#Roboto-Light-2e"/>
       <use x="79.296875" xlink:href="#Roboto-Light-32"/>
       <use x="134.716797" xlink:href="#Roboto-Light-2e"/>
       <use x="158.59375" xlink:href="#Roboto-Light-39"/>
       <use x="214.013672" xlink:href="#Roboto-Light-31"/>
      </g>
     </g>
    </g>
    <g id="xtick_5">
     <g id="line2d_9">
      <path clip-path="url(#pc4275e321a)" d="M 109.074877 249.77175 
L 109.074877 22.32375 
" style="fill:none;stroke:#cbcbcb;stroke-width:0.75;"/>
     </g>
     <g id="line2d_10"/>
     <g id="text_5">
      <!-- 3.3.8 -->
      <defs>
       <path d="M 48.578125 52.78125 
Q 48.578125 47.265625 45.359375 42.890625 
Q 42.140625 38.53125 36.859375 36.46875 
Q 43.015625 34.375 46.71875 29.6875 
Q 50.4375 25 50.4375 18.84375 
Q 50.4375 9.71875 44.234375 4.359375 
Q 38.03125 -0.984375 27.828125 -0.984375 
Q 17.53125 -0.984375 11.34375 4.34375 
Q 5.171875 9.671875 5.171875 18.84375 
Q 5.171875 24.90625 8.734375 29.640625 
Q 12.3125 34.375 18.5 36.46875 
Q 13.234375 38.53125 10.109375 42.890625 
Q 6.984375 47.265625 6.984375 52.78125 
Q 6.984375 61.625 12.671875 66.84375 
Q 18.359375 72.078125 27.734375 72.078125 
Q 37.109375 72.078125 42.84375 66.796875 
Q 48.578125 61.53125 48.578125 52.78125 
M 44.578125 18.796875 
Q 44.578125 25.4375 39.84375 29.703125 
Q 35.109375 33.984375 27.734375 33.984375 
Q 20.359375 33.984375 15.671875 29.78125 
Q 10.984375 25.59375 10.984375 18.796875 
Q 10.984375 12.015625 15.515625 7.984375 
Q 20.0625 3.953125 27.828125 3.953125 
Q 35.40625 3.953125 39.984375 7.953125 
Q 44.578125 11.96875 44.578125 18.796875 
M 42.71875 52.828125 
Q 42.71875 58.9375 38.5 63.015625 
Q 34.28125 67.09375 27.734375 67.09375 
Q 21.09375 67.09375 16.96875 63.15625 
Q 12.84375 59.234375 12.84375 52.828125 
Q 12.84375 46.578125 16.96875 42.765625 
Q 21.09375 38.96875 27.78125 38.96875 
Q 34.375 38.96875 38.546875 42.796875 
Q 42.71875 46.625 42.71875 52.828125 
" id="Roboto-Light-38"/>
      </defs>
      <g transform="translate(96.614981 275.556047)rotate(-60)scale(0.1 -0.1)">
       <use xlink:href="#Roboto-Light-33"/>
       <use x="55.419922" xlink:href="#Roboto-Light-2e"/>
       <use x="79.296875" xlink:href="#Roboto-Light-33"/>
       <use x="134.716797" xlink:href="#Roboto-Light-2e"/>
       <use x="158.59375" xlink:href="#Roboto-Light-38"/>
      </g>
     </g>
    </g>
    <g id="xtick_6">
     <g id="line2d_11">
      <path clip-path="url(#pc4275e321a)" d="M 120.809091 249.77175 
L 120.809091 22.32375 
" style="fill:none;stroke:#cbcbcb;stroke-width:0.75;"/>
     </g>
     <g id="line2d_12"/>
     <g id="text_6">
      <!-- 3.4.113 -->
      <g transform="translate(102.807009 285.155397)rotate(-60)scale(0.1 -0.1)">
       <use xlink:href="#Roboto-Light-33"/>
       <use x="55.419922" xlink:href="#Roboto-Light-2e"/>
       <use x="79.296875" xlink:href="#Roboto-Light-34"/>
       <use x="134.716797" xlink:href="#Roboto-Light-2e"/>
       <use x="158.59375" xlink:href="#Roboto-Light-31"/>
       <use x="214.013672" xlink:href="#Roboto-Light-31"/>
       <use x="269.433594" xlink:href="#Roboto-Light-33"/>
      </g>
     </g>
    </g>
    <g id="xtick_7">
     <g id="line2d_13">
      <path clip-path="url(#pc4275e321a)" d="M 132.543306 249.77175 
L 132.543306 22.32375 
" style="fill:none;stroke:#cbcbcb;stroke-width:0.75;"/>
     </g>
     <g id="line2d_14"/>
     <g id="text_7">
      <!-- 3.5.7 -->
      <defs>
       <path d="M 10.640625 36.421875 
L 14.109375 71.09375 
L 49.65625 71.09375 
L 49.65625 65.671875 
L 19.140625 65.671875 
L 16.65625 41.65625 
Q 22.359375 45.5625 30.03125 45.5625 
Q 39.65625 45.5625 45.359375 39.3125 
Q 51.078125 33.0625 51.078125 22.65625 
Q 51.078125 11.421875 45.5 5.21875 
Q 39.9375 -0.984375 29.828125 -0.984375 
Q 20.5625 -0.984375 14.796875 4.1875 
Q 9.03125 9.375 8.203125 18.703125 
L 13.8125 18.703125 
Q 14.65625 11.421875 18.75 7.6875 
Q 22.859375 3.953125 29.828125 3.953125 
Q 37.453125 3.953125 41.328125 8.78125 
Q 45.21875 13.625 45.21875 22.5625 
Q 45.21875 30.375 40.875 35.296875 
Q 36.53125 40.234375 29 40.234375 
Q 24.859375 40.234375 21.78125 39.1875 
Q 18.703125 38.140625 15.28125 35.109375 
z
" id="Roboto-Light-35"/>
       <path d="M 50.484375 67.71875 
L 20.125 0 
L 14.015625 0 
L 44.1875 66.109375 
L 3.765625 66.109375 
L 3.765625 71.09375 
L 50.484375 71.09375 
z
" id="Roboto-Light-37"/>
      </defs>
      <g transform="translate(120.083411 275.556047)rotate(-60)scale(0.1 -0.1)">
       <use xlink:href="#Roboto-Light-33"/>
       <use x="55.419922" xlink:href="#Roboto-Light-2e"/>
       <use x="79.296875" xlink:href="#Roboto-Light-35"/>
       <use x="134.716797" xlink:href="#Roboto-Light-2e"/>
       <use x="158.59375" xlink:href="#Roboto-Light-37"/>
      </g>
     </g>
    </g>
    <g id="xtick_8">
     <g id="line2d_15">
      <path clip-path="url(#pc4275e321a)" d="M 144.277521 249.77175 
L 144.277521 22.32375 
" style="fill:none;stroke:#cbcbcb;stroke-width:0.75;"/>
     </g>
     <g id="line2d_16"/>
     <g id="text_8">
      <!-- 3.6.11 -->
      <g transform="translate(129.046532 280.355722)rotate(-60)scale(0.1 -0.1)">
       <use xlink:href="#Roboto-Light-33"/>
       <use x="55.419922" xlink:href="#Roboto-Light-2e"/>
       <use x="79.296875" xlink:href="#Roboto-Light-36"/>
       <use x="134.716797" xlink:href="#Roboto-Light-2e"/>
       <use x="158.59375" xlink:href="#Roboto-Light-31"/>
       <use x="214.013672" xlink:href="#Roboto-Light-31"/>
      </g>
     </g>
    </g>
    <g id="xtick_9">
     <g id="line2d_17">
      <path clip-path="url(#pc4275e321a)" d="M 156.011736 249.77175 
L 156.011736 22.32375 
" style="fill:none;stroke:#cbcbcb;stroke-width:0.75;"/>
     </g>
     <g id="line2d_18"/>
     <g id="text_9">
      <!-- 3.7.10 -->
      <g transform="translate(140.780747 280.355722)rotate(-60)scale(0.1 -0.1)">
       <use xlink:href="#Roboto-Light-33"/>
       <use x="55.419922" xlink:href="#Roboto-Light-2e"/>
       <use x="79.296875" xlink:href="#Roboto-Light-37"/>
       <use x="134.716797" xlink:href="#Roboto-Light-2e"/>
       <use x="158.59375" xlink:href="#Roboto-Light-31"/>
       <use x="214.013672" xlink:href="#Roboto-Light-30"/>
      </g>
     </g>
    </g>
    <g id="xtick_10">
     <g id="line2d_19">
      <path clip-path="url(#pc4275e321a)" d="M 167.745951 249.77175 
L 167.745951 22.32375 
" style="fill:none;stroke:#cbcbcb;stroke-width:0.75;"/>
     </g>
     <g id="line2d_20"/>
     <g id="text_10">
      <!-- 3.8.13 -->
      <g transform="translate(152.514962 280.355722)rotate(-60)scale(0.1 -0.1)">
       <use xlink:href="#Roboto-Light-33"/>
       <use x="55.419922" xlink:href="#Roboto-Light-2e"/>
       <use x="79.296875" xlink:href="#Roboto-Light-38"/>
       <use x="134.716797" xlink:href="#Roboto-Light-2e"/>
       <use x="158.59375" xlink:href="#Roboto-Light-31"/>
       <use x="214.013672" xlink:href="#Roboto-Light-33"/>
      </g>
     </g>
    </g>
    <g id="xtick_11">
     <g id="line2d_21">
      <path clip-path="url(#pc4275e321a)" d="M 179.480166 249.77175 
L 179.480166 22.32375 
" style="fill:none;stroke:#000000;stroke-width:0.75;"/>
     </g>
     <g id="line2d_22"/>
     <g id="text_11">
      <!-- 3.9.11 -->
      <defs>
       <path d="M 37.84375 28.421875 
Q 32.328125 23 24.953125 23 
Q 15.53125 23 9.859375 29.46875 
Q 4.203125 35.9375 4.203125 46.921875 
Q 4.203125 53.90625 7.25 59.734375 
Q 10.296875 65.578125 15.765625 68.828125 
Q 21.234375 72.078125 28.078125 72.078125 
Q 35.109375 72.078125 40.578125 68.5625 
Q 46.046875 65.046875 49.0625 58.453125 
Q 52.09375 51.859375 52.15625 43.359375 
L 52.15625 38.140625 
Q 52.15625 20.359375 43.3125 10.203125 
Q 34.46875 0.046875 18.265625 -0.640625 
L 14.796875 -0.6875 
L 14.796875 11.078125 
L 17.921875 11.140625 
Q 36.328125 11.96875 37.84375 28.421875 
M 28.421875 33.796875 
Q 31.84375 33.796875 34.296875 35.546875 
Q 36.765625 37.3125 38.03125 39.796875 
L 38.03125 45.609375 
Q 38.03125 52.78125 35.296875 56.734375 
Q 32.5625 60.6875 27.984375 60.6875 
Q 23.734375 60.6875 21 56.8125 
Q 18.265625 52.9375 18.265625 47.078125 
Q 18.265625 41.265625 20.921875 37.53125 
Q 23.578125 33.796875 28.421875 33.796875 
" id="Roboto-Bold-39"/>
      </defs>
      <g transform="translate(163.341364 281.928099)rotate(-60)scale(0.1 -0.1)">
       <use xlink:href="#Roboto-Bold-33"/>
       <use x="57.373047" xlink:href="#Roboto-Bold-2e"/>
       <use x="86.425781" xlink:href="#Roboto-Bold-39"/>
       <use x="143.798828" xlink:href="#Roboto-Bold-2e"/>
       <use x="172.851562" xlink:href="#Roboto-Bold-31"/>
       <use x="230.224609" xlink:href="#Roboto-Bold-31"/>
      </g>
     </g>
    </g>
    <g id="xtick_12">
     <g id="line2d_23">
      <path clip-path="url(#pc4275e321a)" d="M 191.214381 249.77175 
L 191.214381 22.32375 
" style="fill:none;stroke:#cbcbcb;stroke-width:0.75;"/>
     </g>
     <g id="line2d_24"/>
     <g id="text_12">
      <!-- 3.10.107 -->
      <g transform="translate(170.441204 289.955072)rotate(-60)scale(0.1 -0.1)">
       <use xlink:href="#Roboto-Light-33"/>
       <use x="55.419922" xlink:href="#Roboto-Light-2e"/>
       <use x="79.296875" xlink:href="#Roboto-Light-31"/>
       <use x="134.716797" xlink:href="#Roboto-Light-30"/>
       <use x="190.136719" xlink:href="#Roboto-Light-2e"/>
       <use x="214.013672" xlink:href="#Roboto-Light-31"/>
       <use x="269.433594" xlink:href="#Roboto-Light-30"/>
       <use x="324.853516" xlink:href="#Roboto-Light-37"/>
      </g>
     </g>
    </g>
    <g id="xtick_13">
     <g id="line2d_25">
      <path clip-path="url(#pc4275e321a)" d="M 202.948596 249.77175 
L 202.948596 22.32375 
" style="fill:none;stroke:#cbcbcb;stroke-width:0.75;"/>
     </g>
     <g id="line2d_26"/>
     <g id="text_13">
      <!-- 3.11.10 -->
      <g transform="translate(184.946513 285.155397)rotate(-60)scale(0.1 -0.1)">
       <use xlink:href="#Roboto-Light-33"/>
       <use x="55.419922" xlink:href="#Roboto-Light-2e"/>
       <use x="79.296875" xlink:href="#Roboto-Light-31"/>
       <use x="134.716797" xlink:href="#Roboto-Light-31"/>
       <use x="190.136719" xlink:href="#Roboto-Light-2e"/>
       <use x="214.013672" xlink:href="#Roboto-Light-31"/>
       <use x="269.433594" xlink:href="#Roboto-Light-30"/>
      </g>
     </g>
    </g>
    <g id="xtick_14">
     <g id="line2d_27">
      <path clip-path="url(#pc4275e321a)" d="M 214.68281 249.77175 
L 214.68281 22.32375 
" style="fill:none;stroke:#cbcbcb;stroke-width:0.75;"/>
     </g>
     <g id="line2d_28"/>
     <g id="text_14">
      <!-- 3.12.74 -->
      <g transform="translate(196.680728 285.155397)rotate(-60)scale(0.1 -0.1)">
       <use xlink:href="#Roboto-Light-33"/>
       <use x="55.419922" xlink:href="#Roboto-Light-2e"/>
       <use x="79.296875" xlink:href="#Roboto-Light-31"/>
       <use x="134.716797" xlink:href="#Roboto-Light-32"/>
       <use x="190.136719" xlink:href="#Roboto-Light-2e"/>
       <use x="214.013672" xlink:href="#Roboto-Light-37"/>
       <use x="269.433594" xlink:href="#Roboto-Light-34"/>
      </g>
     </g>
    </g>
    <g id="xtick_15">
     <g id="line2d_29">
      <path clip-path="url(#pc4275e321a)" d="M 226.417025 249.77175 
L 226.417025 22.32375 
" style="fill:none;stroke:#cbcbcb;stroke-width:0.75;"/>
     </g>
     <g id="line2d_30"/>
     <g id="text_15">
      <!-- 3.13.11 -->
      <g transform="translate(208.414942 285.155397)rotate(-60)scale(0.1 -0.1)">
       <use xlink:href="#Roboto-Light-33"/>
       <use x="55.419922" xlink:href="#Roboto-Light-2e"/>
       <use x="79.296875" xlink:href="#Roboto-Light-31"/>
       <use x="134.716797" xlink:href="#Roboto-Light-33"/>
       <use x="190.136719" xlink:href="#Roboto-Light-2e"/>
       <use x="214.013672" xlink:href="#Roboto-Light-31"/>
       <use x="269.433594" xlink:href="#Roboto-Light-31"/>
      </g>
     </g>
    </g>
    <g id="xtick_16">
     <g id="line2d_31">
      <path clip-path="url(#pc4275e321a)" d="M 238.15124 249.77175 
L 238.15124 22.32375 
" style="fill:none;stroke:#cbcbcb;stroke-width:0.75;"/>
     </g>
     <g id="line2d_32"/>
     <g id="text_16">
      <!-- 3.14.79 -->
      <g transform="translate(220.149157 285.155397)rotate(-60)scale(0.1 -0.1)">
       <use xlink:href="#Roboto-Light-33"/>
       <use x="55.419922" xlink:href="#Roboto-Light-2e"/>
       <use x="79.296875" xlink:href="#Roboto-Light-31"/>
       <use x="134.716797" xlink:href="#Roboto-Light-34"/>
       <use x="190.136719" xlink:href="#Roboto-Light-2e"/>
       <use x="214.013672" xlink:href="#Roboto-Light-37"/>
       <use x="269.433594" xlink:href="#Roboto-Light-39"/>
      </g>
     </g>
    </g>
    <g id="xtick_17">
     <g id="line2d_33">
      <path clip-path="url(#pc4275e321a)" d="M 249.885455 249.77175 
L 249.885455 22.32375 
" style="fill:none;stroke:#cbcbcb;stroke-width:0.75;"/>
     </g>
     <g id="line2d_34"/>
     <g id="text_17">
      <!-- 3.15.10 -->
      <g transform="translate(231.883372 285.155397)rotate(-60)scale(0.1 -0.1)">
       <use xlink:href="#Roboto-Light-33"/>
       <use x="55.419922" xlink:href="#Roboto-Light-2e"/>
       <use x="79.296875" xlink:href="#Roboto-Light-31"/>
       <use x="134.716797" xlink:href="#Roboto-Light-35"/>
       <use x="190.136719" xlink:href="#Roboto-Light-2e"/>
       <use x="214.013672" xlink:href="#Roboto-Light-31"/>
       <use x="269.433594" xlink:href="#Roboto-Light-30"/>
      </g>
     </g>
    </g>
    <g id="xtick_18">
     <g id="line2d_35">
      <path clip-path="url(#pc4275e321a)" d="M 261.61967 249.77175 
L 261.61967 22.32375 
" style="fill:none;stroke:#cbcbcb;stroke-width:0.75;"/>
     </g>
     <g id="line2d_36"/>
     <g id="text_18">
      <!-- 3.16.46 -->
      <g transform="translate(243.617587 285.155397)rotate(-60)scale(0.1 -0.1)">
       <use xlink:href="#Roboto-Light-33"/>
       <use x="55.419922" xlink:href="#Roboto-Light-2e"/>
       <use x="79.296875" xlink:href="#Roboto-Light-31"/>
       <use x="134.716797" xlink:href="#Roboto-Light-36"/>
       <use x="190.136719" xlink:href="#Roboto-Light-2e"/>
       <use x="214.013672" xlink:href="#Roboto-Light-34"/>
       <use x="269.433594" xlink:href="#Roboto-Light-36"/>
      </g>
     </g>
    </g>
    <g id="xtick_19">
     <g id="line2d_37">
      <path clip-path="url(#pc4275e321a)" d="M 273.353885 249.77175 
L 273.353885 22.32375 
" style="fill:none;stroke:#cbcbcb;stroke-width:0.75;"/>
     </g>
     <g id="line2d_38"/>
     <g id="text_19">
      <!-- 3.17.8 -->
      <g transform="translate(258.122896 280.355722)rotate(-60)scale(0.1 -0.1)">
       <use xlink:href="#Roboto-Light-33"/>
       <use x="55.419922" xlink:href="#Roboto-Light-2e"/>
       <use x="79.296875" xlink:href="#Roboto-Light-31"/>
       <use x="134.716797" xlink:href="#Roboto-Light-37"/>
       <use x="190.136719" xlink:href="#Roboto-Light-2e"/>
       <use x="214.013672" xlink:href="#Roboto-Light-38"/>
      </g>
     </g>
    </g>
    <g id="xtick_20">
     <g id="line2d_39">
      <path clip-path="url(#pc4275e321a)" d="M 285.0881 249.77175 
L 285.0881 22.32375 
" style="fill:none;stroke:#cbcbcb;stroke-width:0.75;"/>
     </g>
     <g id="line2d_40"/>
     <g id="text_20">
      <!-- 3.18.63 -->
      <g transform="translate(267.086017 285.155397)rotate(-60)scale(0.1 -0.1)">
       <use xlink:href="#Roboto-Light-33"/>
       <use x="55.419922" xlink:href="#Roboto-Light-2e"/>
       <use x="79.296875" xlink:href="#Roboto-Light-31"/>
       <use x="134.716797" xlink:href="#Roboto-Light-38"/>
       <use x="190.136719" xlink:href="#Roboto-Light-2e"/>
       <use x="214.013672" xlink:href="#Roboto-Light-36"/>
       <use x="269.433594" xlink:href="#Roboto-Light-33"/>
      </g>
     </g>
    </g>
    <g id="xtick_21">
     <g id="line2d_41">
      <path clip-path="url(#pc4275e321a)" d="M 296.822315 249.77175 
L 296.822315 22.32375 
" style="fill:none;stroke:#cbcbcb;stroke-width:0.75;"/>
     </g>
     <g id="line2d_42"/>
     <g id="text_21">
      <!-- 3.19.8 -->
      <g transform="translate(281.591325 280.355722)rotate(-60)scale(0.1 -0.1)">
       <use xlink:href="#Roboto-Light-33"/>
       <use x="55.419922" xlink:href="#Roboto-Light-2e"/>
       <use x="79.296875" xlink:href="#Roboto-Light-31"/>
       <use x="134.716797" xlink:href="#Roboto-Light-39"/>
       <use x="190.136719" xlink:href="#Roboto-Light-2e"/>
       <use x="214.013672" xlink:href="#Roboto-Light-38"/>
      </g>
     </g>
    </g>
    <g id="xtick_22">
     <g id="line2d_43">
      <path clip-path="url(#pc4275e321a)" d="M 308.556529 249.77175 
L 308.556529 22.32375 
" style="fill:none;stroke:#cbcbcb;stroke-width:0.75;"/>
     </g>
     <g id="line2d_44"/>
     <g id="text_22">
      <!-- 4.0.9 -->
      <g transform="translate(296.096634 275.556047)rotate(-60)scale(0.1 -0.1)">
       <use xlink:href="#Roboto-Light-34"/>
       <use x="55.419922" xlink:href="#Roboto-Light-2e"/>
       <use x="79.296875" xlink:href="#Roboto-Light-30"/>
       <use x="134.716797" xlink:href="#Roboto-Light-2e"/>
       <use x="158.59375" xlink:href="#Roboto-Light-39"/>
      </g>
     </g>
    </g>
    <g id="xtick_23">
     <g id="line2d_45">
      <path clip-path="url(#pc4275e321a)" d="M 320.290744 249.77175 
L 320.290744 22.32375 
" style="fill:none;stroke:#cbcbcb;stroke-width:0.75;"/>
     </g>
     <g id="line2d_46"/>
     <g id="text_23">
      <!-- 4.1.42 -->
      <g transform="translate(305.059755 280.355722)rotate(-60)scale(0.1 -0.1)">
       <use xlink:href="#Roboto-Light-34"/>
       <use x="55.419922" xlink:href="#Roboto-Light-2e"/>
       <use x="79.296875" xlink:href="#Roboto-Light-31"/>
       <use x="134.716797" xlink:href="#Roboto-Light-2e"/>
       <use x="158.59375" xlink:href="#Roboto-Light-34"/>
       <use x="214.013672" xlink:href="#Roboto-Light-32"/>
      </g>
     </g>
    </g>
    <g id="xtick_24">
     <g id="line2d_47">
      <path clip-path="url(#pc4275e321a)" d="M 332.024959 249.77175 
L 332.024959 22.32375 
" style="fill:none;stroke:#000000;stroke-width:0.75;"/>
     </g>
     <g id="line2d_48"/>
     <g id="text_24">
      <!-- 4.2.8 -->
      <defs>
       <path d="M 46.578125 26.765625 
L 54.640625 26.765625 
L 54.640625 15.375 
L 46.578125 15.375 
L 46.578125 0 
L 32.46875 0 
L 32.46875 15.375 
L 3.328125 15.375 
L 2.6875 24.265625 
L 32.328125 71.09375 
L 46.578125 71.09375 
z
M 16.75 26.765625 
L 32.46875 26.765625 
L 32.46875 51.859375 
L 31.546875 50.25 
z
" id="Roboto-Bold-34"/>
       <path d="M 53.5625 0 
L 4.828125 0 
L 4.828125 9.671875 
L 27.828125 34.1875 
Q 32.5625 39.359375 34.828125 43.21875 
Q 37.109375 47.078125 37.109375 50.53125 
Q 37.109375 55.28125 34.71875 57.984375 
Q 32.328125 60.6875 27.875 60.6875 
Q 23.09375 60.6875 20.328125 57.390625 
Q 17.578125 54.109375 17.578125 48.734375 
L 3.421875 48.734375 
Q 3.421875 55.21875 6.515625 60.59375 
Q 9.625 65.96875 15.28125 69.015625 
Q 20.953125 72.078125 28.125 72.078125 
Q 39.109375 72.078125 45.1875 66.796875 
Q 51.265625 61.53125 51.265625 51.90625 
Q 51.265625 46.625 48.53125 41.15625 
Q 45.796875 35.6875 39.15625 28.421875 
L 23 11.375 
L 53.5625 11.375 
z
" id="Roboto-Bold-32"/>
       <path d="M 51.171875 52.203125 
Q 51.171875 47.015625 48.578125 43.015625 
Q 46 39.015625 41.453125 36.625 
Q 46.625 34.125 49.65625 29.75 
Q 52.6875 25.390625 52.6875 19.484375 
Q 52.6875 10.015625 46.234375 4.515625 
Q 39.796875 -0.984375 28.703125 -0.984375 
Q 17.625 -0.984375 11.125 4.53125 
Q 4.640625 10.0625 4.640625 19.484375 
Q 4.640625 25.390625 7.65625 29.78125 
Q 10.6875 34.1875 15.828125 36.625 
Q 11.28125 39.015625 8.71875 43.015625 
Q 6.15625 47.015625 6.15625 52.203125 
Q 6.15625 61.28125 12.203125 66.671875 
Q 18.265625 72.078125 28.65625 72.078125 
Q 39.015625 72.078125 45.09375 66.71875 
Q 51.171875 61.375 51.171875 52.203125 
M 38.53125 20.515625 
Q 38.53125 25.140625 35.84375 27.921875 
Q 33.15625 30.71875 28.609375 30.71875 
Q 24.125 30.71875 21.4375 27.953125 
Q 18.75 25.203125 18.75 20.515625 
Q 18.75 15.96875 21.390625 13.1875 
Q 24.03125 10.40625 28.71875 10.40625 
Q 33.296875 10.40625 35.90625 13.078125 
Q 38.53125 15.765625 38.53125 20.515625 
M 37.0625 51.515625 
Q 37.0625 55.671875 34.859375 58.171875 
Q 32.671875 60.6875 28.65625 60.6875 
Q 24.703125 60.6875 22.5 58.25 
Q 20.3125 55.8125 20.3125 51.515625 
Q 20.3125 47.265625 22.5 44.671875 
Q 24.703125 42.09375 28.703125 42.09375 
Q 32.71875 42.09375 34.890625 44.671875 
Q 37.0625 47.265625 37.0625 51.515625 
" id="Roboto-Bold-38"/>
      </defs>
      <g transform="translate(318.754908 276.959279)rotate(-60)scale(0.1 -0.1)">
       <use xlink:href="#Roboto-Bold-34"/>
       <use x="57.373047" xlink:href="#Roboto-Bold-2e"/>
       <use x="86.425781" xlink:href="#Roboto-Bold-32"/>
       <use x="143.798828" xlink:href="#Roboto-Bold-2e"/>
       <use x="172.851562" xlink:href="#Roboto-Bold-38"/>
      </g>
     </g>
    </g>
    <g id="xtick_25">
     <g id="line2d_49">
      <path clip-path="url(#pc4275e321a)" d="M 343.759174 249.77175 
L 343.759174 22.32375 
" style="fill:none;stroke:#cbcbcb;stroke-width:0.75;"/>
     </g>
     <g id="line2d_50"/>
     <g id="text_25">
      <!-- 4.3.6 -->
      <g transform="translate(331.299279 275.556047)rotate(-60)scale(0.1 -0.1)">
       <use xlink:href="#Roboto-Light-34"/>
       <use x="55.419922" xlink:href="#Roboto-Light-2e"/>
       <use x="79.296875" xlink:href="#Roboto-Light-33"/>
       <use x="134.716797" xlink:href="#Roboto-Light-2e"/>
       <use x="158.59375" xlink:href="#Roboto-Light-36"/>
      </g>
     </g>
    </g>
    <g id="xtick_26">
     <g id="line2d_51">
      <path clip-path="url(#pc4275e321a)" d="M 355.493389 249.77175 
L 355.493389 22.32375 
" style="fill:none;stroke:#cbcbcb;stroke-width:0.75;"/>
     </g>
     <g id="line2d_52"/>
     <g id="text_26">
      <!-- 4.4.79 -->
      <g transform="translate(340.2624 280.355722)rotate(-60)scale(0.1 -0.1)">
       <use xlink:href="#Roboto-Light-34"/>
       <use x="55.419922" xlink:href="#Roboto-Light-2e"/>
       <use x="79.296875" xlink:href="#Roboto-Light-34"/>
       <use x="134.716797" xlink:href="#Roboto-Light-2e"/>
       <use x="158.59375" xlink:href="#Roboto-Light-37"/>
       <use x="214.013672" xlink:href="#Roboto-Light-39"/>
      </g>
     </g>
    </g>
    <g id="xtick_27">
     <g id="line2d_53">
      <path clip-path="url(#pc4275e321a)" d="M 367.227604 249.77175 
L 367.227604 22.32375 
" style="fill:none;stroke:#cbcbcb;stroke-width:0.75;"/>
     </g>
     <g id="line2d_54"/>
     <g id="text_27">
      <!-- 4.5.7 -->
      <g transform="translate(354.767708 275.556047)rotate(-60)scale(0.1 -0.1)">
       <use xlink:href="#Roboto-Light-34"/>
       <use x="55.419922" xlink:href="#Roboto-Light-2e"/>
       <use x="79.296875" xlink:href="#Roboto-Light-35"/>
       <use x="134.716797" xlink:href="#Roboto-Light-2e"/>
       <use x="158.59375" xlink:href="#Roboto-Light-37"/>
      </g>
     </g>
    </g>
    <g id="xtick_28">
     <g id="line2d_55">
      <path clip-path="url(#pc4275e321a)" d="M 378.961819 249.77175 
L 378.961819 22.32375 
" style="fill:none;stroke:#cbcbcb;stroke-width:0.75;"/>
     </g>
     <g id="line2d_56"/>
     <g id="text_28">
      <!-- 4.6.7 -->
      <g transform="translate(366.501923 275.556047)rotate(-60)scale(0.1 -0.1)">
       <use xlink:href="#Roboto-Light-34"/>
       <use x="55.419922" xlink:href="#Roboto-Light-2e"/>
       <use x="79.296875" xlink:href="#Roboto-Light-36"/>
       <use x="134.716797" xlink:href="#Roboto-Light-2e"/>
       <use x="158.59375" xlink:href="#Roboto-Light-37"/>
      </g>
     </g>
    </g>
    <g id="xtick_29">
     <g id="line2d_57">
      <path clip-path="url(#pc4275e321a)" d="M 390.696034 249.77175 
L 390.696034 22.32375 
" style="fill:none;stroke:#cbcbcb;stroke-width:0.75;"/>
     </g>
     <g id="line2d_58"/>
     <g id="text_29">
      <!-- 4.7.10 -->
      <g transform="translate(375.465044 280.355722)rotate(-60)scale(0.1 -0.1)">
       <use xlink:href="#Roboto-Light-34"/>
       <use x="55.419922" xlink:href="#Roboto-Light-2e"/>
       <use x="79.296875" xlink:href="#Roboto-Light-37"/>
       <use x="134.716797" xlink:href="#Roboto-Light-2e"/>
       <use x="158.59375" xlink:href="#Roboto-Light-31"/>
       <use x="214.013672" xlink:href="#Roboto-Light-30"/>
      </g>
     </g>
    </g>
    <g id="xtick_30">
     <g id="line2d_59">
      <path clip-path="url(#pc4275e321a)" d="M 402.430248 249.77175 
L 402.430248 22.32375 
" style="fill:none;stroke:#cbcbcb;stroke-width:0.75;"/>
     </g>
     <g id="line2d_60"/>
     <g id="text_30">
      <!-- 4.8.17 -->
      <g transform="translate(387.199259 280.355722)rotate(-60)scale(0.1 -0.1)">
       <use xlink:href="#Roboto-Light-34"/>
       <use x="55.419922" xlink:href="#Roboto-Light-2e"/>
       <use x="79.296875" xlink:href="#Roboto-Light-38"/>
       <use x="134.716797" xlink:href="#Roboto-Light-2e"/>
       <use x="158.59375" xlink:href="#Roboto-Light-31"/>
       <use x="214.013672" xlink:href="#Roboto-Light-37"/>
      </g>
     </g>
    </g>
    <g id="xtick_31">
     <g id="line2d_61">
      <path clip-path="url(#pc4275e321a)" d="M 414.164463 249.77175 
L 414.164463 22.32375 
" style="fill:none;stroke:#cbcbcb;stroke-width:0.75;"/>
     </g>
     <g id="line2d_62"/>
     <g id="text_31">
      <!-- 4.9.40 -->
      <g transform="translate(398.933474 280.355722)rotate(-60)scale(0.1 -0.1)">
       <use xlink:href="#Roboto-Light-34"/>
       <use x="55.419922" xlink:href="#Roboto-Light-2e"/>
       <use x="79.296875" xlink:href="#Roboto-Light-39"/>
       <use x="134.716797" xlink:href="#Roboto-Light-2e"/>
       <use x="158.59375" xlink:href="#Roboto-Light-34"/>
       <use x="214.013672" xlink:href="#Roboto-Light-30"/>
      </g>
     </g>
    </g>
    <g id="xtick_32">
     <g id="line2d_63">
      <path clip-path="url(#pc4275e321a)" d="M 425.898678 249.77175 
L 425.898678 22.32375 
" style="fill:none;stroke:#cbcbcb;stroke-width:0.75;"/>
     </g>
     <g id="line2d_64"/>
     <g id="text_32">
      <!-- 4.10.17 -->
      <g transform="translate(407.896595 285.155397)rotate(-60)scale(0.1 -0.1)">
       <use xlink:href="#Roboto-Light-34"/>
       <use x="55.419922" xlink:href="#Roboto-Light-2e"/>
       <use x="79.296875" xlink:href="#Roboto-Light-31"/>
       <use x="134.716797" xlink:href="#Roboto-Light-30"/>
       <use x="190.136719" xlink:href="#Roboto-Light-2e"/>
       <use x="214.013672" xlink:href="#Roboto-Light-31"/>
       <use x="269.433594" xlink:href="#Roboto-Light-37"/>
      </g>
     </g>
    </g>
    <g id="xtick_33">
     <g id="line2d_65">
      <path clip-path="url(#pc4275e321a)" d="M 437.632893 249.77175 
L 437.632893 22.32375 
" style="fill:none;stroke:#cbcbcb;stroke-width:0.75;"/>
     </g>
     <g id="line2d_66"/>
     <g id="text_33">
      <!-- 4.11.12 -->
      <g transform="translate(419.63081 285.155397)rotate(-60)scale(0.1 -0.1)">
       <use xlink:href="#Roboto-Light-34"/>
       <use x="55.419922" xlink:href="#Roboto-Light-2e"/>
       <use x="79.296875" xlink:href="#Roboto-Light-31"/>
       <use x="134.716797" xlink:href="#Roboto-Light-31"/>
       <use x="190.136719" xlink:href="#Roboto-Light-2e"/>
       <use x="214.013672" xlink:href="#Roboto-Light-31"/>
       <use x="269.433594" xlink:href="#Roboto-Light-32"/>
      </g>
     </g>
    </g>
    <g id="xtick_34">
     <g id="line2d_67">
      <path clip-path="url(#pc4275e321a)" d="M 449.367108 249.77175 
L 449.367108 22.32375 
" style="fill:none;stroke:#cbcbcb;stroke-width:0.75;"/>
     </g>
     <g id="line2d_68"/>
     <g id="text_34">
      <!-- 4.12.4 -->
      <g transform="translate(434.136119 280.355722)rotate(-60)scale(0.1 -0.1)">
       <use xlink:href="#Roboto-Light-34"/>
       <use x="55.419922" xlink:href="#Roboto-Light-2e"/>
       <use x="79.296875" xlink:href="#Roboto-Light-31"/>
       <use x="134.716797" xlink:href="#Roboto-Light-32"/>
       <use x="190.136719" xlink:href="#Roboto-Light-2e"/>
       <use x="214.013672" xlink:href="#Roboto-Light-34"/>
      </g>
     </g>
    </g>
   </g>
   <g id="matplotlib.axis_2">
    <g id="ytick_1">
     <g id="line2d_69">
      <path clip-path="url(#pc4275e321a)" d="M 42.776563 249.77175 
L 468.728562 249.77175 
" style="fill:none;stroke:#cbcbcb;stroke-width:0.75;"/>
     </g>
     <g id="line2d_70"/>
     <g id="text_35">
      <!-- 0.00 µs -->
      <defs>
       <path id="Roboto-Light-20"/>
       <path d="M 13.71875 52.828125 
L 13.71875 21.78125 
Q 13.71875 12.984375 16.796875 8.46875 
Q 19.875 3.953125 26.5625 3.953125 
Q 33.015625 3.953125 36.765625 6.765625 
Q 40.53125 9.578125 41.9375 15.234375 
L 41.9375 52.828125 
L 47.796875 52.828125 
L 47.796875 0 
L 42.484375 0 
L 42.140625 7.515625 
Q 37.359375 -0.984375 26.953125 -0.984375 
Q 17.96875 -0.984375 13.71875 5.125 
L 13.71875 -20.3125 
L 7.90625 -20.3125 
L 7.90625 52.828125 
z
" id="Roboto-Light-b5"/>
       <path d="M 39.265625 13.421875 
Q 39.265625 17.78125 35.765625 20.40625 
Q 32.28125 23.046875 25.25 24.53125 
Q 18.21875 26.03125 14.328125 27.953125 
Q 10.453125 29.890625 8.5625 32.671875 
Q 6.6875 35.453125 6.6875 39.40625 
Q 6.6875 45.65625 11.90625 49.734375 
Q 17.140625 53.8125 25.296875 53.8125 
Q 34.125 53.8125 39.46875 49.4375 
Q 44.828125 45.0625 44.828125 38.03125 
L 38.96875 38.03125 
Q 38.96875 42.671875 35.078125 45.75 
Q 31.203125 48.828125 25.296875 48.828125 
Q 19.53125 48.828125 16.03125 46.265625 
Q 12.546875 43.703125 12.546875 39.59375 
Q 12.546875 35.640625 15.453125 33.46875 
Q 18.359375 31.296875 26.046875 29.484375 
Q 33.734375 27.6875 37.5625 25.625 
Q 41.40625 23.578125 43.265625 20.703125 
Q 45.125 17.828125 45.125 13.71875 
Q 45.125 7.03125 39.71875 3.015625 
Q 34.328125 -0.984375 25.640625 -0.984375 
Q 16.40625 -0.984375 10.671875 3.484375 
Q 4.9375 7.953125 4.9375 14.796875 
L 10.796875 14.796875 
Q 11.140625 9.671875 15.109375 6.8125 
Q 19.09375 3.953125 25.640625 3.953125 
Q 31.734375 3.953125 35.5 6.640625 
Q 39.265625 9.328125 39.265625 13.421875 
" id="Roboto-Light-73"/>
      </defs>
      <g transform="translate(7.2 253.52175)scale(0.1 -0.1)">
       <use xlink:href="#Roboto-Light-30"/>
       <use x="55.419922" xlink:href="#Roboto-Light-2e"/>
       <use x="79.296875" xlink:href="#Roboto-Light-30"/>
       <use x="134.716797" xlink:href="#Roboto-Light-30"/>
       <use x="190.136719" xlink:href="#Roboto-Light-20"/>
       <use x="214.453125" xlink:href="#Roboto-Light-b5"/>
       <use x="270.117188" xlink:href="#Roboto-Light-73"/>
      </g>
     </g>
    </g>
    <g id="ytick_2">
     <g id="line2d_71">
      <path clip-path="url(#pc4275e321a)" d="M 42.776563 202.214569 
L 468.728562 202.214569 
" style="fill:none;stroke:#cbcbcb;stroke-width:0.75;"/>
     </g>
     <g id="line2d_72"/>
     <g id="text_36">
      <!-- 1.00 µs -->
      <g transform="translate(7.2 205.964569)scale(0.1 -0.1)">
       <use xlink:href="#Roboto-Light-31"/>
       <use x="55.419922" xlink:href="#Roboto-Light-2e"/>
       <use x="79.296875" xlink:href="#Roboto-Light-30"/>
       <use x="134.716797" xlink:href="#Roboto-Light-30"/>
       <use x="190.136719" xlink:href="#Roboto-Light-20"/>
       <use x="214.453125" xlink:href="#Roboto-Light-b5"/>
       <use x="270.117188" xlink:href="#Roboto-Light-73"/>
      </g>
     </g>
    </g>
    <g id="ytick_3">
     <g id="line2d_73">
      <path clip-path="url(#pc4275e321a)" d="M 42.776563 154.657389 
L 468.728562 154.657389 
" style="fill:none;stroke:#cbcbcb;stroke-width:0.75;"/>
     </g>
     <g id="line2d_74"/>
     <g id="text_37">
      <!-- 2.00 µs -->
      <g transform="translate(7.2 158.407389)scale(0.1 -0.1)">
       <use xlink:href="#Roboto-Light-32"/>
       <use x="55.419922" xlink:href="#Roboto-Light-2e"/>
       <use x="79.296875" xlink:href="#Roboto-Light-30"/>
       <use x="134.716797" xlink:href="#Roboto-Light-30"/>
       <use x="190.136719" xlink:href="#Roboto-Light-20"/>
       <use x="214.453125" xlink:href="#Roboto-Light-b5"/>
       <use x="270.117188" xlink:href="#Roboto-Light-73"/>
      </g>
     </g>
    </g>
    <g id="ytick_4">
     <g id="line2d_75">
      <path clip-path="url(#pc4275e321a)" d="M 42.776563 107.100208 
L 468.728562 107.100208 
" style="fill:none;stroke:#cbcbcb;stroke-width:0.75;"/>
     </g>
     <g id="line2d_76"/>
     <g id="text_38">
      <!-- 3.00 µs -->
      <g transform="translate(7.2 110.850208)scale(0.1 -0.1)">
       <use xlink:href="#Roboto-Light-33"/>
       <use x="55.419922" xlink:href="#Roboto-Light-2e"/>
       <use x="79.296875" xlink:href="#Roboto-Light-30"/>
       <use x="134.716797" xlink:href="#Roboto-Light-30"/>
       <use x="190.136719" xlink:href="#Roboto-Light-20"/>
       <use x="214.453125" xlink:href="#Roboto-Light-b5"/>
       <use x="270.117188" xlink:href="#Roboto-Light-73"/>
      </g>
     </g>
    </g>
    <g id="ytick_5">
     <g id="line2d_77">
      <path clip-path="url(#pc4275e321a)" d="M 42.776563 59.543028 
L 468.728562 59.543028 
" style="fill:none;stroke:#cbcbcb;stroke-width:0.75;"/>
     </g>
     <g id="line2d_78"/>
     <g id="text_39">
      <!-- 4.00 µs -->
      <g transform="translate(7.2 63.293028)scale(0.1 -0.1)">
       <use xlink:href="#Roboto-Light-34"/>
       <use x="55.419922" xlink:href="#Roboto-Light-2e"/>
       <use x="79.296875" xlink:href="#Roboto-Light-30"/>
       <use x="134.716797" xlink:href="#Roboto-Light-30"/>
       <use x="190.136719" xlink:href="#Roboto-Light-20"/>
       <use x="214.453125" xlink:href="#Roboto-Light-b5"/>
       <use x="270.117188" xlink:href="#Roboto-Light-73"/>
      </g>
     </g>
    </g>
   </g>
   <g id="PolyCollection_1">
    <path clip-path="url(#pc4275e321a)" d="M 62.138017 207.25306 
L 62.138017 207.25306 
L 73.872232 207.182367 
L 85.606447 84.979693 
L 97.340662 89.761117 
L 109.074877 90.442342 
L 120.809091 81.817783 
L 132.543306 79.086458 
L 144.277521 86.194329 
L 156.011736 90.339516 
L 167.745951 86.689181 
L 179.480166 76.271587 
L 191.214381 77.177744 
L 202.948596 79.806243 
L 214.68281 75.988815 
L 226.417025 70.314086 
L 238.15124 70.545446 
L 249.885455 87.813844 
L 261.61967 89.683998 
L 273.353885 65.224183 
L 285.0881 88.186589 
L 296.822315 71.014591 
L 308.556529 73.52741 
L 320.290744 83.321618 
L 332.024959 238.043121 
L 343.759174 237.304057 
L 355.493389 237.002004 
L 367.227604 238.42872 
L 378.961819 237.837468 
L 390.696034 237.464723 
L 402.430248 235.408196 
L 414.164463 235.369636 
L 425.898678 237.342617 
L 437.632893 237.464723 
L 449.367108 236.307927 
L 449.367108 236.307927 
L 449.367108 228.814457 
L 437.632893 230.896691 
L 425.898678 231.250156 
L 414.164463 226.102413 
L 402.430248 225.241242 
L 390.696034 230.691038 
L 378.961819 231.912101 
L 367.227604 233.223136 
L 355.493389 229.482829 
L 343.759174 230.466105 
L 332.024959 232.734711 
L 320.290744 53.681927 
L 308.556529 41.574125 
L 296.822315 32.878873 
L 285.0881 61.747367 
L 273.353885 34.633348 
L 261.61967 65.005677 
L 249.885455 61.811634 
L 238.15124 36.869821 
L 226.417025 41.471299 
L 214.68281 44.408276 
L 202.948596 51.233374 
L 191.214381 43.682065 
L 179.480166 49.523887 
L 167.745951 55.121495 
L 156.011736 63.707494 
L 144.277521 56.64461 
L 132.543306 50.744949 
L 120.809091 51.124121 
L 109.074877 61.393902 
L 97.340662 60.147132 
L 85.606447 55.545654 
L 73.872232 198.9177 
L 62.138017 197.972983 
z
" style="fill:#0000ff;fill-opacity:0.2;"/>
   </g>
   <g id="PolyCollection_2">
    <path clip-path="url(#pc4275e321a)" d="M 62.138017 218.236198 
L 62.138017 218.236198 
L 73.872232 215.151408 
L 85.606447 178.159633 
L 97.340662 180.396106 
L 109.074877 179.020804 
L 120.809091 178.757311 
L 132.543306 176.944997 
L 144.277521 176.900011 
L 156.011736 176.199506 
L 167.745951 176.720065 
L 179.480166 166.186792 
L 191.214381 173.615995 
L 202.948596 171.450215 
L 214.68281 175.936014 
L 226.417025 172.85765 
L 238.15124 174.406472 
L 249.885455 176.887157 
L 261.61967 177.420569 
L 273.353885 173.577435 
L 285.0881 176.218786 
L 296.822315 171.688001 
L 308.556529 174.284366 
L 320.290744 176.392306 
L 332.024959 239.643356 
L 343.759174 239.527676 
L 355.493389 239.46341 
L 367.227604 239.450556 
L 378.961819 239.38629 
L 390.696034 239.42485 
L 402.430248 239.546956 
L 414.164463 238.300187 
L 425.898678 238.100961 
L 437.632893 238.158801 
L 449.367108 237.933868 
L 449.367108 237.933868 
L 449.367108 236.365766 
L 437.632893 236.680672 
L 425.898678 236.584272 
L 414.164463 236.847765 
L 402.430248 238.403013 
L 390.696034 238.21664 
L 378.961819 238.203787 
L 367.227604 238.190934 
L 355.493389 238.2552 
L 343.759174 238.345173 
L 332.024959 238.460853 
L 320.290744 163.924612 
L 308.556529 160.788409 
L 296.822315 159.014655 
L 285.0881 163.789653 
L 273.353885 159.207454 
L 261.61967 165.338475 
L 249.885455 165.332048 
L 238.15124 160.974782 
L 226.417025 161.006915 
L 214.68281 164.458024 
L 202.948596 159.972225 
L 191.214381 160.47993 
L 179.480166 155.055841 
L 167.745951 164.290931 
L 156.011736 162.060885 
L 144.277521 164.856476 
L 132.543306 165.736927 
L 120.809091 166.083966 
L 109.074877 167.594227 
L 97.340662 167.812733 
L 85.606447 165.422021 
L 73.872232 213.261974 
L 62.138017 216.783776 
z
" style="fill:#f14432;fill-opacity:0.2;"/>
   </g>
   <g id="PolyCollection_3">
    <path clip-path="url(#pc4275e321a)" d="M 62.138017 243.255131 
L 62.138017 243.255131 
L 73.872232 243.178011 
L 85.606447 243.859236 
L 97.340662 243.537903 
L 109.074877 243.981342 
L 120.809091 243.608596 
L 132.543306 243.595743 
L 144.277521 243.197291 
L 156.011736 243.44793 
L 167.745951 243.158731 
L 179.480166 230.601065 
L 191.214381 236.854191 
L 202.948596 235.999448 
L 214.68281 235.729528 
L 226.417025 235.472463 
L 238.15124 235.903048 
L 249.885455 235.883768 
L 261.61967 235.922328 
L 273.353885 235.806648 
L 285.0881 235.903048 
L 296.822315 237.882455 
L 308.556529 238.178081 
L 320.290744 237.593256 
L 332.024959 235.157557 
L 343.759174 234.630572 
L 355.493389 232.985351 
L 367.227604 235.11257 
L 378.961819 234.572732 
L 390.696034 235.24753 
L 402.430248 233.872228 
L 414.164463 234.733398 
L 425.898678 232.972497 
L 437.632893 235.318223 
L 449.367108 232.728285 
L 449.367108 232.728285 
L 449.367108 230.183333 
L 437.632893 232.246286 
L 425.898678 229.887707 
L 414.164463 231.597195 
L 402.430248 231.327276 
L 390.696034 232.496925 
L 378.961819 231.603622 
L 367.227604 232.22058 
L 355.493389 230.646051 
L 343.759174 231.777141 
L 332.024959 232.612605 
L 320.290744 236.038007 
L 308.556529 236.121554 
L 296.822315 235.903048 
L 285.0881 233.846521 
L 273.353885 233.711562 
L 261.61967 234.161427 
L 249.885455 234.17428 
L 238.15124 234.000761 
L 226.417025 233.403083 
L 214.68281 233.711562 
L 202.948596 233.904361 
L 191.214381 234.720545 
L 179.480166 228.505978 
L 167.745951 241.706309 
L 156.011736 242.188308 
L 144.277521 241.976228 
L 132.543306 243.094465 
L 120.809091 242.978785 
L 109.074877 243.480064 
L 97.340662 242.998065 
L 85.606447 243.370811 
L 73.872232 241.841269 
L 62.138017 242.226868 
z
" style="fill:#008000;fill-opacity:0.2;"/>
   </g>
   <g id="line2d_79">
    <path clip-path="url(#pc4275e321a)" d="M 62.138017 202.613021 
L 73.872232 203.050033 
L 85.606447 70.262673 
L 97.340662 74.954125 
L 109.074877 75.918122 
L 120.809091 66.470952 
L 132.543306 64.915704 
L 144.277521 71.41947 
L 156.011736 77.023505 
L 167.745951 70.905338 
L 179.480166 62.897737 
L 191.214381 60.429905 
L 202.948596 65.519809 
L 214.68281 60.198546 
L 226.417025 55.892693 
L 238.15124 53.707633 
L 249.885455 74.812739 
L 261.61967 77.344837 
L 273.353885 49.928765 
L 285.0881 74.966978 
L 296.822315 51.946732 
L 308.556529 57.550768 
L 320.290744 68.501772 
L 332.024959 235.388916 
L 343.759174 233.885081 
L 355.493389 233.242416 
L 367.227604 235.825928 
L 378.961819 234.874785 
L 390.696034 234.07788 
L 402.430248 230.324719 
L 414.164463 230.736024 
L 425.898678 234.296386 
L 437.632893 234.180707 
L 449.367108 232.561192 
" style="fill:none;stroke:#0000ff;"/>
    <defs>
     <path d="M 0 2 
C 0.530406 2 1.03916 1.789267 1.414214 1.414214 
C 1.789267 1.03916 2 0.530406 2 0 
C 2 -0.530406 1.789267 -1.03916 1.414214 -1.414214 
C 1.03916 -1.789267 0.530406 -2 0 -2 
C -0.530406 -2 -1.03916 -1.789267 -1.414214 -1.414214 
C -1.789267 -1.03916 -2 -0.530406 -2 0 
C -2 0.530406 -1.789267 1.03916 -1.414214 1.414214 
C -1.03916 1.789267 -0.530406 2 0 2 
z
" id="m80a1f709b9" style="stroke:#0000ff;"/>
    </defs>
    <g clip-path="url(#pc4275e321a)">
     <use style="fill:#0000ff;stroke:#0000ff;" x="62.138017" xlink:href="#m80a1f709b9" y="202.613021"/>
     <use style="fill:#0000ff;stroke:#0000ff;" x="73.872232" xlink:href="#m80a1f709b9" y="203.050033"/>
     <use style="fill:#0000ff;stroke:#0000ff;" x="85.606447" xlink:href="#m80a1f709b9" y="70.262673"/>
     <use style="fill:#0000ff;stroke:#0000ff;" x="97.340662" xlink:href="#m80a1f709b9" y="74.954125"/>
     <use style="fill:#0000ff;stroke:#0000ff;" x="109.074877" xlink:href="#m80a1f709b9" y="75.918122"/>
     <use style="fill:#0000ff;stroke:#0000ff;" x="120.809091" xlink:href="#m80a1f709b9" y="66.470952"/>
     <use style="fill:#0000ff;stroke:#0000ff;" x="132.543306" xlink:href="#m80a1f709b9" y="64.915704"/>
     <use style="fill:#0000ff;stroke:#0000ff;" x="144.277521" xlink:href="#m80a1f709b9" y="71.41947"/>
     <use style="fill:#0000ff;stroke:#0000ff;" x="156.011736" xlink:href="#m80a1f709b9" y="77.023505"/>
     <use style="fill:#0000ff;stroke:#0000ff;" x="167.745951" xlink:href="#m80a1f709b9" y="70.905338"/>
     <use style="fill:#0000ff;stroke:#0000ff;" x="179.480166" xlink:href="#m80a1f709b9" y="62.897737"/>
     <use style="fill:#0000ff;stroke:#0000ff;" x="191.214381" xlink:href="#m80a1f709b9" y="60.429905"/>
     <use style="fill:#0000ff;stroke:#0000ff;" x="202.948596" xlink:href="#m80a1f709b9" y="65.519809"/>
     <use style="fill:#0000ff;stroke:#0000ff;" x="214.68281" xlink:href="#m80a1f709b9" y="60.198546"/>
     <use style="fill:#0000ff;stroke:#0000ff;" x="226.417025" xlink:href="#m80a1f709b9" y="55.892693"/>
     <use style="fill:#0000ff;stroke:#0000ff;" x="238.15124" xlink:href="#m80a1f709b9" y="53.707633"/>
     <use style="fill:#0000ff;stroke:#0000ff;" x="249.885455" xlink:href="#m80a1f709b9" y="74.812739"/>
     <use style="fill:#0000ff;stroke:#0000ff;" x="261.61967" xlink:href="#m80a1f709b9" y="77.344837"/>
     <use style="fill:#0000ff;stroke:#0000ff;" x="273.353885" xlink:href="#m80a1f709b9" y="49.928765"/>
     <use style="fill:#0000ff;stroke:#0000ff;" x="285.0881" xlink:href="#m80a1f709b9" y="74.966978"/>
     <use style="fill:#0000ff;stroke:#0000ff;" x="296.822315" xlink:href="#m80a1f709b9" y="51.946732"/>
     <use style="fill:#0000ff;stroke:#0000ff;" x="308.556529" xlink:href="#m80a1f709b9" y="57.550768"/>
     <use style="fill:#0000ff;stroke:#0000ff;" x="320.290744" xlink:href="#m80a1f709b9" y="68.501772"/>
     <use style="fill:#0000ff;stroke:#0000ff;" x="332.024959" xlink:href="#m80a1f709b9" y="235.388916"/>
     <use style="fill:#0000ff;stroke:#0000ff;" x="343.759174" xlink:href="#m80a1f709b9" y="233.885081"/>
     <use style="fill:#0000ff;stroke:#0000ff;" x="355.493389" xlink:href="#m80a1f709b9" y="233.242416"/>
     <use style="fill:#0000ff;stroke:#0000ff;" x="367.227604" xlink:href="#m80a1f709b9" y="235.825928"/>
     <use style="fill:#0000ff;stroke:#0000ff;" x="378.961819" xlink:href="#m80a1f709b9" y="234.874785"/>
     <use style="fill:#0000ff;stroke:#0000ff;" x="390.696034" xlink:href="#m80a1f709b9" y="234.07788"/>
     <use style="fill:#0000ff;stroke:#0000ff;" x="402.430248" xlink:href="#m80a1f709b9" y="230.324719"/>
     <use style="fill:#0000ff;stroke:#0000ff;" x="414.164463" xlink:href="#m80a1f709b9" y="230.736024"/>
     <use style="fill:#0000ff;stroke:#0000ff;" x="425.898678" xlink:href="#m80a1f709b9" y="234.296386"/>
     <use style="fill:#0000ff;stroke:#0000ff;" x="437.632893" xlink:href="#m80a1f709b9" y="234.180707"/>
     <use style="fill:#0000ff;stroke:#0000ff;" x="449.367108" xlink:href="#m80a1f709b9" y="232.561192"/>
    </g>
   </g>
   <g id="line2d_80">
    <path clip-path="url(#pc4275e321a)" d="M 62.138017 217.509987 
L 73.872232 214.206691 
L 85.606447 171.790827 
L 97.340662 174.10442 
L 109.074877 173.307516 
L 120.809091 172.420638 
L 132.543306 171.340962 
L 144.277521 170.878243 
L 156.011736 169.130196 
L 167.745951 170.505498 
L 179.480166 160.621316 
L 191.214381 167.047962 
L 202.948596 165.71122 
L 214.68281 170.197019 
L 226.417025 166.932283 
L 238.15124 167.690627 
L 249.885455 171.109603 
L 261.61967 171.379522 
L 273.353885 166.392445 
L 285.0881 170.00422 
L 296.822315 165.351328 
L 308.556529 167.536388 
L 320.290744 170.158459 
L 332.024959 239.052104 
L 343.759174 238.936425 
L 355.493389 238.859305 
L 367.227604 238.820745 
L 378.961819 238.795039 
L 390.696034 238.820745 
L 402.430248 238.974985 
L 414.164463 237.573976 
L 425.898678 237.342617 
L 437.632893 237.419736 
L 449.367108 237.149817 
" style="fill:none;stroke:#f14432;"/>
    <defs>
     <path d="M 0 2 
C 0.530406 2 1.03916 1.789267 1.414214 1.414214 
C 1.789267 1.03916 2 0.530406 2 0 
C 2 -0.530406 1.789267 -1.03916 1.414214 -1.414214 
C 1.03916 -1.789267 0.530406 -2 0 -2 
C -0.530406 -2 -1.03916 -1.789267 -1.414214 -1.414214 
C -1.789267 -1.03916 -2 -0.530406 -2 0 
C -2 0.530406 -1.789267 1.03916 -1.414214 1.414214 
C -1.03916 1.789267 -0.530406 2 0 2 
z
" id="ma07e1edb96" style="stroke:#f14432;"/>
    </defs>
    <g clip-path="url(#pc4275e321a)">
     <use style="fill:#f14432;stroke:#f14432;" x="62.138017" xlink:href="#ma07e1edb96" y="217.509987"/>
     <use style="fill:#f14432;stroke:#f14432;" x="73.872232" xlink:href="#ma07e1edb96" y="214.206691"/>
     <use style="fill:#f14432;stroke:#f14432;" x="85.606447" xlink:href="#ma07e1edb96" y="171.790827"/>
     <use style="fill:#f14432;stroke:#f14432;" x="97.340662" xlink:href="#ma07e1edb96" y="174.10442"/>
     <use style="fill:#f14432;stroke:#f14432;" x="109.074877" xlink:href="#ma07e1edb96" y="173.307516"/>
     <use style="fill:#f14432;stroke:#f14432;" x="120.809091" xlink:href="#ma07e1edb96" y="172.420638"/>
     <use style="fill:#f14432;stroke:#f14432;" x="132.543306" xlink:href="#ma07e1edb96" y="171.340962"/>
     <use style="fill:#f14432;stroke:#f14432;" x="144.277521" xlink:href="#ma07e1edb96" y="170.878243"/>
     <use style="fill:#f14432;stroke:#f14432;" x="156.011736" xlink:href="#ma07e1edb96" y="169.130196"/>
     <use style="fill:#f14432;stroke:#f14432;" x="167.745951" xlink:href="#ma07e1edb96" y="170.505498"/>
     <use style="fill:#f14432;stroke:#f14432;" x="179.480166" xlink:href="#ma07e1edb96" y="160.621316"/>
     <use style="fill:#f14432;stroke:#f14432;" x="191.214381" xlink:href="#ma07e1edb96" y="167.047962"/>
     <use style="fill:#f14432;stroke:#f14432;" x="202.948596" xlink:href="#ma07e1edb96" y="165.71122"/>
     <use style="fill:#f14432;stroke:#f14432;" x="214.68281" xlink:href="#ma07e1edb96" y="170.197019"/>
     <use style="fill:#f14432;stroke:#f14432;" x="226.417025" xlink:href="#ma07e1edb96" y="166.932283"/>
     <use style="fill:#f14432;stroke:#f14432;" x="238.15124" xlink:href="#ma07e1edb96" y="167.690627"/>
     <use style="fill:#f14432;stroke:#f14432;" x="249.885455" xlink:href="#ma07e1edb96" y="171.109603"/>
     <use style="fill:#f14432;stroke:#f14432;" x="261.61967" xlink:href="#ma07e1edb96" y="171.379522"/>
     <use style="fill:#f14432;stroke:#f14432;" x="273.353885" xlink:href="#ma07e1edb96" y="166.392445"/>
     <use style="fill:#f14432;stroke:#f14432;" x="285.0881" xlink:href="#ma07e1edb96" y="170.00422"/>
     <use style="fill:#f14432;stroke:#f14432;" x="296.822315" xlink:href="#ma07e1edb96" y="165.351328"/>
     <use style="fill:#f14432;stroke:#f14432;" x="308.556529" xlink:href="#ma07e1edb96" y="167.536388"/>
     <use style="fill:#f14432;stroke:#f14432;" x="320.290744" xlink:href="#ma07e1edb96" y="170.158459"/>
     <use style="fill:#f14432;stroke:#f14432;" x="332.024959" xlink:href="#ma07e1edb96" y="239.052104"/>
     <use style="fill:#f14432;stroke:#f14432;" x="343.759174" xlink:href="#ma07e1edb96" y="238.936425"/>
     <use style="fill:#f14432;stroke:#f14432;" x="355.493389" xlink:href="#ma07e1edb96" y="238.859305"/>
     <use style="fill:#f14432;stroke:#f14432;" x="367.227604" xlink:href="#ma07e1edb96" y="238.820745"/>
     <use style="fill:#f14432;stroke:#f14432;" x="378.961819" xlink:href="#ma07e1edb96" y="238.795039"/>
     <use style="fill:#f14432;stroke:#f14432;" x="390.696034" xlink:href="#ma07e1edb96" y="238.820745"/>
     <use style="fill:#f14432;stroke:#f14432;" x="402.430248" xlink:href="#ma07e1edb96" y="238.974985"/>
     <use style="fill:#f14432;stroke:#f14432;" x="414.164463" xlink:href="#ma07e1edb96" y="237.573976"/>
     <use style="fill:#f14432;stroke:#f14432;" x="425.898678" xlink:href="#ma07e1edb96" y="237.342617"/>
     <use style="fill:#f14432;stroke:#f14432;" x="437.632893" xlink:href="#ma07e1edb96" y="237.419736"/>
     <use style="fill:#f14432;stroke:#f14432;" x="449.367108" xlink:href="#ma07e1edb96" y="237.149817"/>
    </g>
   </g>
   <g id="line2d_81">
    <path clip-path="url(#pc4275e321a)" d="M 62.138017 242.740999 
L 73.872232 242.50964 
L 85.606447 243.615023 
L 97.340662 243.267984 
L 109.074877 243.730703 
L 120.809091 243.293691 
L 132.543306 243.345104 
L 144.277521 242.58676 
L 156.011736 242.818119 
L 167.745951 242.43252 
L 179.480166 229.553522 
L 191.214381 235.787368 
L 202.948596 234.951904 
L 214.68281 234.720545 
L 226.417025 234.437773 
L 238.15124 234.951904 
L 249.885455 235.029024 
L 261.61967 235.041877 
L 273.353885 234.759105 
L 285.0881 234.874785 
L 296.822315 236.892751 
L 308.556529 237.149817 
L 320.290744 236.815632 
L 332.024959 233.885081 
L 343.759174 233.203857 
L 355.493389 231.815701 
L 367.227604 233.666575 
L 378.961819 233.088177 
L 390.696034 233.872228 
L 402.430248 232.599752 
L 414.164463 233.165297 
L 425.898678 231.430102 
L 437.632893 233.782255 
L 449.367108 231.455809 
" style="fill:none;stroke:#008000;"/>
    <defs>
     <path d="M 0 2 
C 0.530406 2 1.03916 1.789267 1.414214 1.414214 
C 1.789267 1.03916 2 0.530406 2 0 
C 2 -0.530406 1.789267 -1.03916 1.414214 -1.414214 
C 1.03916 -1.789267 0.530406 -2 0 -2 
C -0.530406 -2 -1.03916 -1.789267 -1.414214 -1.414214 
C -1.789267 -1.03916 -2 -0.530406 -2 0 
C -2 0.530406 -1.789267 1.03916 -1.414214 1.414214 
C -1.03916 1.789267 -0.530406 2 0 2 
z
" id="m7254ca8fd1" style="stroke:#008000;"/>
    </defs>
    <g clip-path="url(#pc4275e321a)">
     <use style="fill:#008000;stroke:#008000;" x="62.138017" xlink:href="#m7254ca8fd1" y="242.740999"/>
     <use style="fill:#008000;stroke:#008000;" x="73.872232" xlink:href="#m7254ca8fd1" y="242.50964"/>
     <use style="fill:#008000;stroke:#008000;" x="85.606447" xlink:href="#m7254ca8fd1" y="243.615023"/>
     <use style="fill:#008000;stroke:#008000;" x="97.340662" xlink:href="#m7254ca8fd1" y="243.267984"/>
     <use style="fill:#008000;stroke:#008000;" x="109.074877" xlink:href="#m7254ca8fd1" y="243.730703"/>
     <use style="fill:#008000;stroke:#008000;" x="120.809091" xlink:href="#m7254ca8fd1" y="243.293691"/>
     <use style="fill:#008000;stroke:#008000;" x="132.543306" xlink:href="#m7254ca8fd1" y="243.345104"/>
     <use style="fill:#008000;stroke:#008000;" x="144.277521" xlink:href="#m7254ca8fd1" y="242.58676"/>
     <use style="fill:#008000;stroke:#008000;" x="156.011736" xlink:href="#m7254ca8fd1" y="242.818119"/>
     <use style="fill:#008000;stroke:#008000;" x="167.745951" xlink:href="#m7254ca8fd1" y="242.43252"/>
     <use style="fill:#008000;stroke:#008000;" x="179.480166" xlink:href="#m7254ca8fd1" y="229.553522"/>
     <use style="fill:#008000;stroke:#008000;" x="191.214381" xlink:href="#m7254ca8fd1" y="235.787368"/>
     <use style="fill:#008000;stroke:#008000;" x="202.948596" xlink:href="#m7254ca8fd1" y="234.951904"/>
     <use style="fill:#008000;stroke:#008000;" x="214.68281" xlink:href="#m7254ca8fd1" y="234.720545"/>
     <use style="fill:#008000;stroke:#008000;" x="226.417025" xlink:href="#m7254ca8fd1" y="234.437773"/>
     <use style="fill:#008000;stroke:#008000;" x="238.15124" xlink:href="#m7254ca8fd1" y="234.951904"/>
     <use style="fill:#008000;stroke:#008000;" x="249.885455" xlink:href="#m7254ca8fd1" y="235.029024"/>
     <use style="fill:#008000;stroke:#008000;" x="261.61967" xlink:href="#m7254ca8fd1" y="235.041877"/>
     <use style="fill:#008000;stroke:#008000;" x="273.353885" xlink:href="#m7254ca8fd1" y="234.759105"/>
     <use style="fill:#008000;stroke:#008000;" x="285.0881" xlink:href="#m7254ca8fd1" y="234.874785"/>
     <use style="fill:#008000;stroke:#008000;" x="296.822315" xlink:href="#m7254ca8fd1" y="236.892751"/>
     <use style="fill:#008000;stroke:#008000;" x="308.556529" xlink:href="#m7254ca8fd1" y="237.149817"/>
     <use style="fill:#008000;stroke:#008000;" x="320.290744" xlink:href="#m7254ca8fd1" y="236.815632"/>
     <use style="fill:#008000;stroke:#008000;" x="332.024959" xlink:href="#m7254ca8fd1" y="233.885081"/>
     <use style="fill:#008000;stroke:#008000;" x="343.759174" xlink:href="#m7254ca8fd1" y="233.203857"/>
     <use style="fill:#008000;stroke:#008000;" x="355.493389" xlink:href="#m7254ca8fd1" y="231.815701"/>
     <use style="fill:#008000;stroke:#008000;" x="367.227604" xlink:href="#m7254ca8fd1" y="233.666575"/>
     <use style="fill:#008000;stroke:#008000;" x="378.961819" xlink:href="#m7254ca8fd1" y="233.088177"/>
     <use style="fill:#008000;stroke:#008000;" x="390.696034" xlink:href="#m7254ca8fd1" y="233.872228"/>
     <use style="fill:#008000;stroke:#008000;" x="402.430248" xlink:href="#m7254ca8fd1" y="232.599752"/>
     <use style="fill:#008000;stroke:#008000;" x="414.164463" xlink:href="#m7254ca8fd1" y="233.165297"/>
     <use style="fill:#008000;stroke:#008000;" x="425.898678" xlink:href="#m7254ca8fd1" y="231.430102"/>
     <use style="fill:#008000;stroke:#008000;" x="437.632893" xlink:href="#m7254ca8fd1" y="233.782255"/>
     <use style="fill:#008000;stroke:#008000;" x="449.367108" xlink:href="#m7254ca8fd1" y="231.455809"/>
    </g>
   </g>
   <g id="patch_3">
    <path d="M 42.776563 249.77175 
L 42.776563 22.32375 
" style="fill:none;"/>
   </g>
   <g id="patch_4">
    <path d="M 468.728562 249.77175 
L 468.728562 22.32375 
" style="fill:none;"/>
   </g>
   <g id="patch_5">
    <path d="M 42.776562 249.77175 
L 468.728562 249.77175 
" style="fill:none;"/>
   </g>
   <g id="patch_6">
    <path d="M 42.776562 22.32375 
L 468.728562 22.32375 
" style="fill:none;"/>
   </g>
   <g id="text_40">
    <!-- route lookup time for 40,000 routes -->
    <defs>
     <path d="M 33.734375 42 
Q 31.390625 42.390625 28.90625 42.390625 
Q 20.75 42.390625 17.921875 36.140625 
L 17.921875 0 
L 6.0625 0 
L 6.0625 52.828125 
L 17.390625 52.828125 
L 17.671875 46.921875 
Q 21.96875 53.8125 29.59375 53.8125 
Q 32.125 53.8125 33.796875 53.125 
z
" id="Roboto-Medium-72"/>
     <path d="M 3.859375 26.90625 
Q 3.859375 34.671875 6.9375 40.890625 
Q 10.015625 47.125 15.578125 50.46875 
Q 21.140625 53.8125 28.375 53.8125 
Q 39.0625 53.8125 45.71875 46.921875 
Q 52.390625 40.046875 52.9375 28.65625 
L 52.984375 25.875 
Q 52.984375 18.0625 49.96875 11.90625 
Q 46.96875 5.765625 41.375 2.390625 
Q 35.796875 -0.984375 28.46875 -0.984375 
Q 17.28125 -0.984375 10.5625 6.46875 
Q 3.859375 13.921875 3.859375 26.3125 
z
M 15.71875 25.875 
Q 15.71875 17.71875 19.09375 13.109375 
Q 22.46875 8.5 28.46875 8.5 
Q 34.46875 8.5 37.8125 13.1875 
Q 41.15625 17.875 41.15625 26.90625 
Q 41.15625 34.90625 37.71875 39.59375 
Q 34.28125 44.28125 28.375 44.28125 
Q 22.5625 44.28125 19.140625 39.671875 
Q 15.71875 35.0625 15.71875 25.875 
" id="Roboto-Medium-6f"/>
     <path d="M 38.09375 5.171875 
Q 32.859375 -0.984375 23.25 -0.984375 
Q 14.65625 -0.984375 10.234375 4.046875 
Q 5.8125 9.078125 5.8125 18.609375 
L 5.8125 52.828125 
L 17.671875 52.828125 
L 17.671875 18.75 
Q 17.671875 8.6875 26.03125 8.6875 
Q 34.671875 8.6875 37.703125 14.890625 
L 37.703125 52.828125 
L 49.5625 52.828125 
L 49.5625 0 
L 38.375 0 
z
" id="Roboto-Medium-75"/>
     <path d="M 20.953125 65.671875 
L 20.953125 52.828125 
L 30.28125 52.828125 
L 30.28125 44.046875 
L 20.953125 44.046875 
L 20.953125 14.546875 
Q 20.953125 11.53125 22.140625 10.1875 
Q 23.34375 8.84375 26.421875 8.84375 
Q 28.46875 8.84375 30.5625 9.328125 
L 30.5625 0.140625 
Q 26.515625 -0.984375 22.75 -0.984375 
Q 9.078125 -0.984375 9.078125 14.109375 
L 9.078125 44.046875 
L 0.390625 44.046875 
L 0.390625 52.828125 
L 9.078125 52.828125 
L 9.078125 65.671875 
z
" id="Roboto-Medium-74"/>
     <path d="M 29.34375 -0.984375 
Q 18.0625 -0.984375 11.046875 6.125 
Q 4.046875 13.234375 4.046875 25.046875 
L 4.046875 26.515625 
Q 4.046875 34.421875 7.09375 40.640625 
Q 10.15625 46.875 15.671875 50.34375 
Q 21.1875 53.8125 27.984375 53.8125 
Q 38.765625 53.8125 44.640625 46.921875 
Q 50.53125 40.046875 50.53125 27.4375 
L 50.53125 22.65625 
L 16.015625 22.65625 
Q 16.546875 16.109375 20.375 12.296875 
Q 24.21875 8.5 30.03125 8.5 
Q 38.1875 8.5 43.3125 15.09375 
L 49.703125 8.984375 
Q 46.53125 4.25 41.234375 1.625 
Q 35.9375 -0.984375 29.34375 -0.984375 
M 27.9375 44.28125 
Q 23.046875 44.28125 20.046875 40.859375 
Q 17.046875 37.453125 16.21875 31.34375 
L 38.8125 31.34375 
L 38.8125 32.234375 
Q 38.421875 38.1875 35.640625 41.234375 
Q 32.859375 44.28125 27.9375 44.28125 
" id="Roboto-Medium-65"/>
     <path id="Roboto-Medium-20"/>
     <path d="M 18.703125 0 
L 6.84375 0 
L 6.84375 75 
L 18.703125 75 
z
" id="Roboto-Medium-6c"/>
     <path d="M 23.25 22.65625 
L 17.96875 17.234375 
L 17.96875 0 
L 6.109375 0 
L 6.109375 75 
L 17.96875 75 
L 17.96875 31.734375 
L 21.6875 36.375 
L 36.28125 52.828125 
L 50.53125 52.828125 
L 30.90625 30.8125 
L 52.640625 0 
L 38.921875 0 
z
" id="Roboto-Medium-6b"/>
     <path d="M 52.34375 25.875 
Q 52.34375 13.625 46.78125 6.3125 
Q 41.21875 -0.984375 31.84375 -0.984375 
Q 23.140625 -0.984375 17.921875 4.734375 
L 17.921875 -20.3125 
L 6.0625 -20.3125 
L 6.0625 52.828125 
L 17 52.828125 
L 17.484375 47.46875 
Q 22.703125 53.8125 31.6875 53.8125 
Q 41.359375 53.8125 46.84375 46.609375 
Q 52.34375 39.40625 52.34375 26.609375 
z
M 40.53125 26.90625 
Q 40.53125 34.8125 37.375 39.453125 
Q 34.234375 44.09375 28.375 44.09375 
Q 21.09375 44.09375 17.921875 38.09375 
L 17.921875 14.65625 
Q 21.140625 8.5 28.46875 8.5 
Q 34.125 8.5 37.328125 13.0625 
Q 40.53125 17.625 40.53125 26.90625 
" id="Roboto-Medium-70"/>
     <path d="M 18.703125 0 
L 6.84375 0 
L 6.84375 52.828125 
L 18.703125 52.828125 
z
M 6.109375 66.546875 
Q 6.109375 69.28125 7.84375 71.09375 
Q 9.578125 72.90625 12.796875 72.90625 
Q 16.015625 72.90625 17.765625 71.09375 
Q 19.53125 69.28125 19.53125 66.546875 
Q 19.53125 63.875 17.765625 62.078125 
Q 16.015625 60.296875 12.796875 60.296875 
Q 9.578125 60.296875 7.84375 62.078125 
Q 6.109375 63.875 6.109375 66.546875 
" id="Roboto-Medium-69"/>
     <path d="M 17.234375 52.828125 
L 17.578125 47.3125 
Q 23.140625 53.8125 32.8125 53.8125 
Q 43.40625 53.8125 47.3125 45.703125 
Q 53.078125 53.8125 63.53125 53.8125 
Q 72.265625 53.8125 76.53125 48.96875 
Q 80.8125 44.140625 80.90625 34.71875 
L 80.90625 0 
L 69.046875 0 
L 69.046875 34.375 
Q 69.046875 39.40625 66.84375 41.75 
Q 64.65625 44.09375 59.578125 44.09375 
Q 55.515625 44.09375 52.953125 41.921875 
Q 50.390625 39.75 49.359375 36.234375 
L 49.421875 0 
L 37.546875 0 
L 37.546875 34.765625 
Q 37.3125 44.09375 28.03125 44.09375 
Q 20.90625 44.09375 17.921875 38.28125 
L 17.921875 0 
L 6.0625 0 
L 6.0625 52.828125 
z
" id="Roboto-Medium-6d"/>
     <path d="M 10.25 0 
L 10.25 44.046875 
L 2.203125 44.046875 
L 2.203125 52.828125 
L 10.25 52.828125 
L 10.25 57.671875 
Q 10.25 66.453125 15.125 71.234375 
Q 20.015625 76.03125 28.8125 76.03125 
Q 31.9375 76.03125 35.453125 75.140625 
L 35.15625 65.875 
Q 33.203125 66.265625 30.609375 66.265625 
Q 22.125 66.265625 22.125 57.515625 
L 22.125 52.828125 
L 32.859375 52.828125 
L 32.859375 44.046875 
L 22.125 44.046875 
L 22.125 0 
z
" id="Roboto-Medium-66"/>
     <path d="M 45.453125 25.34375 
L 54.296875 25.34375 
L 54.296875 15.828125 
L 45.453125 15.828125 
L 45.453125 0 
L 33.59375 0 
L 33.59375 15.828125 
L 2.875 15.828125 
L 2.546875 23.046875 
L 33.203125 71.09375 
L 45.453125 71.09375 
z
M 14.984375 25.34375 
L 33.59375 25.34375 
L 33.59375 55.03125 
L 32.71875 53.46875 
z
" id="Roboto-Medium-34"/>
     <path d="M 51.65625 29.9375 
Q 51.65625 14.59375 45.921875 6.796875 
Q 40.1875 -0.984375 28.46875 -0.984375 
Q 16.9375 -0.984375 11.109375 6.609375 
Q 5.28125 14.203125 5.125 29.109375 
L 5.125 41.40625 
Q 5.125 56.734375 10.859375 64.40625 
Q 16.609375 72.078125 28.375 72.078125 
Q 40.046875 72.078125 45.78125 64.59375 
Q 51.515625 57.125 51.65625 42.234375 
z
M 39.796875 43.21875 
Q 39.796875 53.21875 37.0625 57.875 
Q 34.328125 62.546875 28.375 62.546875 
Q 22.5625 62.546875 19.828125 58.125 
Q 17.09375 53.71875 16.9375 44.34375 
L 16.9375 28.21875 
Q 16.9375 18.265625 19.71875 13.375 
Q 22.515625 8.5 28.46875 8.5 
Q 34.1875 8.5 36.921875 13.015625 
Q 39.65625 17.53125 39.796875 27.15625 
z
" id="Roboto-Medium-30"/>
     <path d="M 7.765625 -16.015625 
L 1.375 -12.203125 
Q 4.203125 -7.765625 5.25 -4.46875 
Q 6.296875 -1.171875 6.34375 2.25 
L 6.34375 11.46875 
L 17.046875 11.46875 
L 17 2.9375 
Q 16.9375 -2.25 14.375 -7.4375 
Q 11.8125 -12.640625 7.765625 -16.015625 
" id="Roboto-Medium-2c"/>
     <path d="M 35.6875 14.359375 
Q 35.6875 17.53125 33.078125 19.1875 
Q 30.46875 20.84375 24.40625 22.109375 
Q 18.359375 23.390625 14.3125 25.34375 
Q 5.421875 29.640625 5.421875 37.796875 
Q 5.421875 44.625 11.171875 49.21875 
Q 16.9375 53.8125 25.828125 53.8125 
Q 35.296875 53.8125 41.125 49.125 
Q 46.96875 44.4375 46.96875 36.96875 
L 35.109375 36.96875 
Q 35.109375 40.375 32.5625 42.640625 
Q 30.03125 44.921875 25.828125 44.921875 
Q 21.921875 44.921875 19.453125 43.109375 
Q 17 41.3125 17 38.28125 
Q 17 35.546875 19.28125 34.03125 
Q 21.578125 32.515625 28.5625 30.96875 
Q 35.546875 29.4375 39.515625 27.3125 
Q 43.5 25.203125 45.421875 22.21875 
Q 47.359375 19.234375 47.359375 14.984375 
Q 47.359375 7.859375 41.453125 3.4375 
Q 35.546875 -0.984375 25.984375 -0.984375 
Q 19.484375 -0.984375 14.40625 1.359375 
Q 9.328125 3.71875 6.484375 7.8125 
Q 3.65625 11.921875 3.65625 16.65625 
L 15.1875 16.65625 
Q 15.4375 12.453125 18.359375 10.171875 
Q 21.296875 7.90625 26.125 7.90625 
Q 30.8125 7.90625 33.25 9.6875 
Q 35.6875 11.46875 35.6875 14.359375 
" id="Roboto-Medium-73"/>
    </defs>
    <g transform="translate(160.83725 16.32375)scale(0.12 -0.12)">
     <use xlink:href="#Roboto-Medium-72"/>
     <use x="35.15625" xlink:href="#Roboto-Medium-6f"/>
     <use x="92.089844" xlink:href="#Roboto-Medium-75"/>
     <use x="147.65625" xlink:href="#Roboto-Medium-74"/>
     <use x="180.908203" xlink:href="#Roboto-Medium-65"/>
     <use x="234.570312" xlink:href="#Roboto-Medium-20"/>
     <use x="259.472656" xlink:href="#Roboto-Medium-6c"/>
     <use x="285.009766" xlink:href="#Roboto-Medium-6f"/>
     <use x="341.943359" xlink:href="#Roboto-Medium-6f"/>
     <use x="398.876953" xlink:href="#Roboto-Medium-6b"/>
     <use x="451.074219" xlink:href="#Roboto-Medium-75"/>
     <use x="506.640625" xlink:href="#Roboto-Medium-70"/>
     <use x="562.939453" xlink:href="#Roboto-Medium-20"/>
     <use x="587.841797" xlink:href="#Roboto-Medium-74"/>
     <use x="621.09375" xlink:href="#Roboto-Medium-69"/>
     <use x="646.630859" xlink:href="#Roboto-Medium-6d"/>
     <use x="733.642578" xlink:href="#Roboto-Medium-65"/>
     <use x="787.304688" xlink:href="#Roboto-Medium-20"/>
     <use x="812.207031" xlink:href="#Roboto-Medium-66"/>
     <use x="847.65625" xlink:href="#Roboto-Medium-6f"/>
     <use x="904.589844" xlink:href="#Roboto-Medium-72"/>
     <use x="939.746094" xlink:href="#Roboto-Medium-20"/>
     <use x="964.648438" xlink:href="#Roboto-Medium-34"/>
     <use x="1021.484375" xlink:href="#Roboto-Medium-30"/>
     <use x="1078.320312" xlink:href="#Roboto-Medium-2c"/>
     <use x="1100.292969" xlink:href="#Roboto-Medium-30"/>
     <use x="1157.128906" xlink:href="#Roboto-Medium-30"/>
     <use x="1213.964844" xlink:href="#Roboto-Medium-30"/>
     <use x="1270.800781" xlink:href="#Roboto-Medium-20"/>
     <use x="1295.703125" xlink:href="#Roboto-Medium-72"/>
     <use x="1330.859375" xlink:href="#Roboto-Medium-6f"/>
     <use x="1387.792969" xlink:href="#Roboto-Medium-75"/>
     <use x="1443.359375" xlink:href="#Roboto-Medium-74"/>
     <use x="1476.611328" xlink:href="#Roboto-Medium-65"/>
     <use x="1530.273438" xlink:href="#Roboto-Medium-73"/>
    </g>
   </g>
   <g id="legend_1">
    <g id="patch_7">
     <path d="M 362.941062 74.753438 
L 461.728562 74.753438 
Q 463.728562 74.753438 463.728562 72.753438 
L 463.728562 29.32375 
Q 463.728562 27.32375 461.728562 27.32375 
L 362.941062 27.32375 
Q 360.941062 27.32375 360.941062 29.32375 
L 360.941062 72.753438 
Q 360.941062 74.753438 362.941062 74.753438 
z
" style="fill:#ffffff;opacity:0.8;stroke:#cccccc;stroke-linejoin:miter;stroke-width:0.5;"/>
    </g>
    <g id="line2d_82">
     <path d="M 364.941062 35.32375 
L 384.941062 35.32375 
" style="fill:none;stroke:#0000ff;"/>
    </g>
    <g id="line2d_83">
     <g>
      <use style="fill:#0000ff;stroke:#0000ff;" x="374.941062" xlink:href="#m80a1f709b9" y="35.32375"/>
     </g>
    </g>
    <g id="text_41">
     <!-- from full view -->
     <defs>
      <path d="M 11.8125 0 
L 11.8125 48.046875 
L 3.078125 48.046875 
L 3.078125 52.828125 
L 11.8125 52.828125 
L 11.8125 59.234375 
Q 11.8125 67.328125 15.9375 71.671875 
Q 20.0625 76.03125 27.4375 76.03125 
Q 30.765625 76.03125 33.640625 75.203125 
L 33.203125 70.3125 
Q 30.765625 70.90625 27.875 70.90625 
Q 23.046875 70.90625 20.359375 67.890625 
Q 17.671875 64.890625 17.671875 59.375 
L 17.671875 52.828125 
L 30.28125 52.828125 
L 30.28125 48.046875 
L 17.671875 48.046875 
L 17.671875 0 
z
" id="Roboto-Light-66"/>
      <path d="M 32.03125 47.859375 
Q 30.171875 48.1875 28.078125 48.1875 
Q 22.609375 48.1875 18.828125 45.140625 
Q 15.046875 42.09375 13.421875 36.28125 
L 13.421875 0 
L 7.625 0 
L 7.625 52.828125 
L 13.328125 52.828125 
L 13.421875 44.4375 
Q 18.0625 53.8125 28.328125 53.8125 
Q 30.765625 53.8125 32.171875 53.171875 
z
" id="Roboto-Light-72"/>
      <path d="M 4.390625 27.203125 
Q 4.390625 34.8125 7.34375 40.90625 
Q 10.296875 47.015625 15.6875 50.40625 
Q 21.09375 53.8125 27.9375 53.8125 
Q 38.484375 53.8125 45.015625 46.40625 
Q 51.5625 39.015625 51.5625 26.8125 
L 51.5625 25.59375 
Q 51.5625 17.921875 48.609375 11.796875 
Q 45.65625 5.671875 40.28125 2.34375 
Q 34.90625 -0.984375 28.03125 -0.984375 
Q 17.53125 -0.984375 10.953125 6.40625 
Q 4.390625 13.8125 4.390625 26.03125 
z
M 10.25 25.59375 
Q 10.25 16.109375 15.15625 10.03125 
Q 20.0625 3.953125 28.03125 3.953125 
Q 35.9375 3.953125 40.84375 10.03125 
Q 45.75 16.109375 45.75 26.078125 
L 45.75 27.203125 
Q 45.75 33.25 43.5 38.28125 
Q 41.265625 43.3125 37.203125 46.0625 
Q 33.15625 48.828125 27.9375 48.828125 
Q 20.125 48.828125 15.1875 42.703125 
Q 10.25 36.578125 10.25 26.65625 
z
" id="Roboto-Light-6f"/>
      <path d="M 12.9375 52.828125 
L 13.140625 44.234375 
Q 16.0625 49.03125 20.453125 51.421875 
Q 24.859375 53.8125 30.21875 53.8125 
Q 42.71875 53.8125 46.09375 43.5625 
Q 48.921875 48.484375 53.65625 51.140625 
Q 58.40625 53.8125 64.109375 53.8125 
Q 81.109375 53.8125 81.453125 35.25 
L 81.453125 0 
L 75.59375 0 
L 75.59375 34.8125 
Q 75.53125 41.890625 72.53125 45.3125 
Q 69.53125 48.734375 62.75 48.734375 
Q 56.453125 48.640625 52.09375 44.65625 
Q 47.75 40.671875 47.265625 34.96875 
L 47.265625 0 
L 41.40625 0 
L 41.40625 35.25 
Q 41.359375 42.046875 38.203125 45.390625 
Q 35.0625 48.734375 28.515625 48.734375 
Q 23 48.734375 19.046875 45.578125 
Q 15.09375 42.4375 13.1875 36.234375 
L 13.1875 0 
L 7.328125 0 
L 7.328125 52.828125 
z
" id="Roboto-Light-6d"/>
      <path d="M 41.609375 6.6875 
Q 36.328125 -0.984375 24.75 -0.984375 
Q 16.3125 -0.984375 11.90625 3.921875 
Q 7.515625 8.84375 7.421875 18.453125 
L 7.421875 52.828125 
L 13.234375 52.828125 
L 13.234375 19.1875 
Q 13.234375 4.109375 25.4375 4.109375 
Q 38.140625 4.109375 41.5 14.59375 
L 41.5 52.828125 
L 47.359375 52.828125 
L 47.359375 0 
L 41.703125 0 
z
" id="Roboto-Light-75"/>
      <path d="M 14.15625 0 
L 8.296875 0 
L 8.296875 75 
L 14.15625 75 
z
" id="Roboto-Light-6c"/>
      <path d="M 24.078125 8.0625 
L 40.140625 52.828125 
L 46.140625 52.828125 
L 26.421875 0 
L 21.6875 0 
L 1.859375 52.828125 
L 7.859375 52.828125 
z
" id="Roboto-Light-76"/>
      <path d="M 14.15625 0 
L 8.296875 0 
L 8.296875 52.828125 
L 14.15625 52.828125 
z
M 7.28125 68.109375 
Q 7.28125 69.78125 8.34375 70.921875 
Q 9.421875 72.078125 11.28125 72.078125 
Q 13.140625 72.078125 14.234375 70.921875 
Q 15.328125 69.78125 15.328125 68.109375 
Q 15.328125 66.453125 14.234375 65.328125 
Q 13.140625 64.203125 11.28125 64.203125 
Q 9.421875 64.203125 8.34375 65.328125 
Q 7.28125 66.453125 7.28125 68.109375 
" id="Roboto-Light-69"/>
      <path d="M 28.078125 -0.984375 
Q 21.34375 -0.984375 15.890625 2.34375 
Q 10.453125 5.671875 7.421875 11.59375 
Q 4.390625 17.53125 4.390625 24.90625 
L 4.390625 27 
Q 4.390625 34.625 7.34375 40.71875 
Q 10.296875 46.828125 15.5625 50.3125 
Q 20.84375 53.8125 27 53.8125 
Q 36.625 53.8125 42.265625 47.234375 
Q 47.90625 40.671875 47.90625 29.296875 
L 47.90625 26.03125 
L 10.203125 26.03125 
L 10.203125 24.90625 
Q 10.203125 15.921875 15.359375 9.9375 
Q 20.515625 3.953125 28.328125 3.953125 
Q 33.015625 3.953125 36.59375 5.65625 
Q 40.1875 7.375 43.109375 11.140625 
L 46.78125 8.34375 
Q 40.328125 -0.984375 28.078125 -0.984375 
M 27 48.828125 
Q 20.40625 48.828125 15.890625 43.984375 
Q 11.375 39.15625 10.40625 31 
L 42.09375 31 
L 42.09375 31.640625 
Q 41.84375 39.265625 37.734375 44.046875 
Q 33.640625 48.828125 27 48.828125 
" id="Roboto-Light-65"/>
      <path d="M 20.265625 12.15625 
L 21.140625 7.625 
L 22.3125 12.40625 
L 35.015625 52.828125 
L 39.984375 52.828125 
L 52.546875 12.75 
L 53.90625 7.171875 
L 55.03125 12.3125 
L 65.875 52.828125 
L 71.921875 52.828125 
L 56.546875 0 
L 51.5625 0 
L 37.984375 41.890625 
L 37.359375 44.78125 
L 36.71875 41.84375 
L 23.390625 0 
L 18.40625 0 
L 3.078125 52.828125 
L 9.078125 52.828125 
z
" id="Roboto-Light-77"/>
     </defs>
     <g transform="translate(392.941062 38.82375)scale(0.1 -0.1)">
      <use xlink:href="#Roboto-Light-66"/>
      <use x="33.105469" xlink:href="#Roboto-Light-72"/>
      <use x="66.748047" xlink:href="#Roboto-Light-6f"/>
      <use x="122.753906" xlink:href="#Roboto-Light-6d"/>
      <use x="211.376953" xlink:href="#Roboto-Light-20"/>
      <use x="235.693359" xlink:href="#Roboto-Light-66"/>
      <use x="268.798828" xlink:href="#Roboto-Light-75"/>
      <use x="323.730469" xlink:href="#Roboto-Light-6c"/>
      <use x="346.142578" xlink:href="#Roboto-Light-6c"/>
      <use x="368.554688" xlink:href="#Roboto-Light-20"/>
      <use x="392.871094" xlink:href="#Roboto-Light-76"/>
      <use x="440.966797" xlink:href="#Roboto-Light-69"/>
      <use x="463.378906" xlink:href="#Roboto-Light-65"/>
      <use x="515.039062" xlink:href="#Roboto-Light-77"/>
     </g>
    </g>
    <g id="line2d_84">
     <path d="M 364.941062 49.855 
L 384.941062 49.855 
" style="fill:none;stroke:#f14432;"/>
    </g>
    <g id="line2d_85">
     <g>
      <use style="fill:#f14432;stroke:#f14432;" x="374.941062" xlink:href="#ma07e1edb96" y="49.855"/>
     </g>
    </g>
    <g id="text_42">
     <!-- /48, density 0.5 -->
     <defs>
      <path d="M 6.78125 -6.109375 
L 1.46875 -6.109375 
L 31.15625 71.09375 
L 36.421875 71.09375 
z
" id="Roboto-Light-2f"/>
      <path d="M 6.390625 -13.28125 
L 2.9375 -10.75 
Q 7.375 -4.78125 7.515625 1.609375 
L 7.515625 9.1875 
L 13.234375 9.1875 
L 13.234375 3.078125 
Q 13.234375 -7.078125 6.390625 -13.28125 
" id="Roboto-Light-2c"/>
      <path d="M 5.28125 26.90625 
Q 5.28125 39.203125 10.765625 46.5 
Q 16.265625 53.8125 25.6875 53.8125 
Q 36.375 53.8125 42 45.359375 
L 42 75 
L 47.796875 75 
L 47.796875 0 
L 42.328125 0 
L 42.09375 7.03125 
Q 36.46875 -0.984375 25.59375 -0.984375 
Q 16.453125 -0.984375 10.859375 6.359375 
Q 5.28125 13.71875 5.28125 26.21875 
z
M 11.1875 25.875 
Q 11.1875 15.765625 15.234375 9.9375 
Q 19.28125 4.109375 26.65625 4.109375 
Q 37.453125 4.109375 42 13.625 
L 42 38.421875 
Q 37.453125 48.734375 26.765625 48.734375 
Q 19.390625 48.734375 15.28125 42.9375 
Q 11.1875 37.15625 11.1875 25.875 
" id="Roboto-Light-64"/>
      <path d="M 13.1875 52.828125 
L 13.375 43.796875 
Q 16.359375 48.6875 20.796875 51.25 
Q 25.25 53.8125 30.609375 53.8125 
Q 39.109375 53.8125 43.25 49.015625 
Q 47.40625 44.234375 47.46875 34.671875 
L 47.46875 0 
L 41.65625 0 
L 41.65625 34.71875 
Q 41.609375 41.796875 38.640625 45.265625 
Q 35.6875 48.734375 29.203125 48.734375 
Q 23.78125 48.734375 19.609375 45.328125 
Q 15.4375 41.9375 13.421875 36.1875 
L 13.421875 0 
L 7.625 0 
L 7.625 52.828125 
z
" id="Roboto-Light-6e"/>
      <path d="M 16.703125 66.359375 
L 16.703125 52.828125 
L 27.640625 52.828125 
L 27.640625 48.046875 
L 16.703125 48.046875 
L 16.703125 12.84375 
Q 16.703125 8.453125 18.28125 6.296875 
Q 19.875 4.15625 23.578125 4.15625 
Q 25.046875 4.15625 28.328125 4.640625 
L 28.5625 -0.140625 
Q 26.265625 -0.984375 22.3125 -0.984375 
Q 16.3125 -0.984375 13.578125 2.5 
Q 10.84375 6 10.84375 12.796875 
L 10.84375 48.046875 
L 1.125 48.046875 
L 1.125 52.828125 
L 10.84375 52.828125 
L 10.84375 66.359375 
z
" id="Roboto-Light-74"/>
      <path d="M 24.359375 8.40625 
L 39.796875 52.828125 
L 46.09375 52.828125 
L 23.53125 -8.984375 
L 22.359375 -11.71875 
Q 18.015625 -21.34375 8.9375 -21.34375 
Q 6.84375 -21.34375 4.4375 -20.65625 
L 4.390625 -15.828125 
L 7.421875 -16.109375 
Q 11.71875 -16.109375 14.375 -13.984375 
Q 17.046875 -11.859375 18.890625 -6.6875 
L 21.484375 0.4375 
L 1.5625 52.828125 
L 7.953125 52.828125 
z
" id="Roboto-Light-79"/>
     </defs>
     <g transform="translate(392.941062 53.355)scale(0.1 -0.1)">
      <use xlink:href="#Roboto-Light-2f"/>
      <use x="39.697266" xlink:href="#Roboto-Light-34"/>
      <use x="95.117188" xlink:href="#Roboto-Light-38"/>
      <use x="150.537109" xlink:href="#Roboto-Light-2c"/>
      <use x="169.677734" xlink:href="#Roboto-Light-20"/>
      <use x="193.994141" xlink:href="#Roboto-Light-64"/>
      <use x="249.560547" xlink:href="#Roboto-Light-65"/>
      <use x="301.220703" xlink:href="#Roboto-Light-6e"/>
      <use x="356.152344" xlink:href="#Roboto-Light-73"/>
      <use x="406.787109" xlink:href="#Roboto-Light-69"/>
      <use x="429.199219" xlink:href="#Roboto-Light-74"/>
      <use x="461.328125" xlink:href="#Roboto-Light-79"/>
      <use x="508.837891" xlink:href="#Roboto-Light-20"/>
      <use x="533.154297" xlink:href="#Roboto-Light-30"/>
      <use x="588.574219" xlink:href="#Roboto-Light-2e"/>
      <use x="612.451172" xlink:href="#Roboto-Light-35"/>
     </g>
    </g>
    <g id="line2d_86">
     <path d="M 364.941062 64.958125 
L 384.941062 64.958125 
" style="fill:none;stroke:#008000;"/>
    </g>
    <g id="line2d_87">
     <g>
      <use style="fill:#008000;stroke:#008000;" x="374.941062" xlink:href="#m7254ca8fd1" y="64.958125"/>
     </g>
    </g>
    <g id="text_43">
     <!-- /128 (random) -->
     <defs>
      <path d="M 6.84375 28.71875 
Q 6.84375 39.359375 9.578125 49.390625 
Q 12.3125 59.421875 17.578125 67.75 
Q 22.859375 76.078125 28.90625 79.6875 
L 30.328125 75.734375 
Q 27.09375 73.4375 23.921875 69.046875 
Q 20.75 64.65625 18.25 58.59375 
Q 15.765625 52.546875 14.234375 45 
Q 12.703125 37.453125 12.703125 27.875 
Q 12.703125 17.671875 15.015625 8.25 
Q 17.328125 -1.171875 21.375 -8.375 
Q 25.4375 -15.578125 30.328125 -19.1875 
L 28.90625 -22.953125 
Q 22.703125 -19.234375 17.421875 -10.953125 
Q 12.15625 -2.6875 9.5 7.25 
Q 6.84375 17.1875 6.84375 28.71875 
" id="Roboto-Light-28"/>
      <path d="M 40.96875 0 
Q 40.09375 2.484375 39.84375 7.375 
Q 36.765625 3.375 32 1.1875 
Q 27.25 -0.984375 21.921875 -0.984375 
Q 14.3125 -0.984375 9.59375 3.265625 
Q 4.890625 7.515625 4.890625 14.015625 
Q 4.890625 21.734375 11.296875 26.21875 
Q 17.71875 30.71875 29.203125 30.71875 
L 39.796875 30.71875 
L 39.796875 36.71875 
Q 39.796875 42.390625 36.296875 45.625 
Q 32.8125 48.875 26.125 48.875 
Q 20.015625 48.875 16.015625 45.75 
Q 12.015625 42.625 12.015625 38.234375 
L 6.15625 38.28125 
Q 6.15625 44.578125 12.015625 49.1875 
Q 17.875 53.8125 26.421875 53.8125 
Q 35.25 53.8125 40.34375 49.390625 
Q 45.453125 44.96875 45.609375 37.0625 
L 45.609375 12.0625 
Q 45.609375 4.390625 47.21875 0.59375 
L 47.21875 0 
z
M 22.609375 4.203125 
Q 28.46875 4.203125 33.078125 7.03125 
Q 37.703125 9.859375 39.796875 14.59375 
L 39.796875 26.21875 
L 29.34375 26.21875 
Q 20.609375 26.125 15.671875 23.015625 
Q 10.75 19.921875 10.75 14.5 
Q 10.75 10.0625 14.03125 7.125 
Q 17.328125 4.203125 22.609375 4.203125 
" id="Roboto-Light-61"/>
      <path d="M 25.09375 27.984375 
Q 25.09375 17.234375 22.4375 7.296875 
Q 19.78125 -2.640625 14.546875 -10.890625 
Q 9.328125 -19.140625 3.03125 -22.953125 
L 1.609375 -19.1875 
Q 6.390625 -15.765625 10.46875 -8.59375 
Q 14.546875 -1.421875 16.890625 8.125 
Q 19.234375 17.671875 19.234375 28.859375 
Q 19.234375 38.96875 16.890625 48.359375 
Q 14.546875 57.765625 10.421875 65.15625 
Q 6.296875 72.5625 1.609375 75.921875 
L 3.03125 79.6875 
Q 9.1875 75.921875 14.40625 67.671875 
Q 19.625 59.421875 22.359375 49.359375 
Q 25.09375 39.3125 25.09375 27.984375 
" id="Roboto-Light-29"/>
     </defs>
     <g transform="translate(392.941062 68.458125)scale(0.1 -0.1)">
      <use xlink:href="#Roboto-Light-2f"/>
      <use x="39.697266" xlink:href="#Roboto-Light-31"/>
      <use x="95.117188" xlink:href="#Roboto-Light-32"/>
      <use x="150.537109" xlink:href="#Roboto-Light-38"/>
      <use x="205.957031" xlink:href="#Roboto-Light-20"/>
      <use x="230.273438" xlink:href="#Roboto-Light-28"/>
      <use x="262.158203" xlink:href="#Roboto-Light-72"/>
      <use x="295.800781" xlink:href="#Roboto-Light-61"/>
      <use x="349.365234" xlink:href="#Roboto-Light-6e"/>
      <use x="404.296875" xlink:href="#Roboto-Light-64"/>
      <use x="459.863281" xlink:href="#Roboto-Light-6f"/>
      <use x="515.869141" xlink:href="#Roboto-Light-6d"/>
      <use x="604.492188" xlink:href="#Roboto-Light-29"/>
     </g>
    </g>
   </g>
  </g>
 </g>
 <defs>
  <clipPath id="pc4275e321a">
   <rect height="227.448" width="425.952" x="42.776563" y="22.32375"/>
  </clipPath>
 </defs>
</svg>
