<?xml version="1.0" encoding="utf-8" standalone="no"?>
<!DOCTYPE svg PUBLIC "-//W3C//DTD SVG 1.1//EN"
  "http://www.w3.org/Graphics/SVG/1.1/DTD/svg11.dtd">
<!-- Created with matplotlib (http://matplotlib.org/) -->
<svg height="295.112545pt" version="1.1" viewBox="0 0 425.816562 295.112545" width="425.816562pt" xmlns="http://www.w3.org/2000/svg" xmlns:xlink="http://www.w3.org/1999/xlink">
 <defs>
  <style type="text/css">
*{stroke-linecap:butt;stroke-linejoin:round;}
  </style>
 </defs>
 <g id="figure_1">
  <g id="axes_1">
   <g id="matplotlib.axis_1">
    <g id="xtick_1">
     <g id="line2d_1">
      <path clip-path="url(#p488b7d6ca5)" d="M 59.860199 249.77175 
L 59.860199 22.32375 
" style="fill:none;stroke:#cbcbcb;stroke-width:0.75;"/>
     </g>
     <g id="line2d_2"/>
     <g id="text_1">
      <!-- 4.2.8 -->
      <defs>
       <path d="M 42.578125 22.90625 
L 53.65625 22.90625 
L 53.65625 17.96875 
L 42.578125 17.96875 
L 42.578125 0 
L 36.71875 0 
L 36.71875 17.96875 
L 3.265625 17.96875 
L 3.265625 21.296875 
L 36.1875 71.09375 
L 42.578125 71.09375 
z
M 10.453125 22.90625 
L 36.71875 22.90625 
L 36.71875 63.53125 
L 34.125 59.03125 
z
" id="Roboto-Light-34"/>
       <path d="M 7.078125 3.515625 
Q 7.078125 5.21875 8.171875 6.421875 
Q 9.28125 7.625 11.234375 7.625 
Q 13.1875 7.625 14.3125 6.421875 
Q 15.4375 5.21875 15.4375 3.515625 
Q 15.4375 1.8125 14.3125 0.703125 
Q 13.1875 -0.390625 11.234375 -0.390625 
Q 9.28125 -0.390625 8.171875 0.703125 
Q 7.078125 1.8125 7.078125 3.515625 
z
" id="Roboto-Light-2e"/>
       <path d="M 51.21875 0 
L 6.6875 0 
L 6.6875 4.5 
L 31.0625 32.125 
Q 37.109375 39.109375 39.453125 43.640625 
Q 41.796875 48.1875 41.796875 52.484375 
Q 41.796875 59.234375 37.84375 63.15625 
Q 33.890625 67.09375 26.953125 67.09375 
Q 19.78125 67.09375 15.359375 62.5 
Q 10.9375 57.90625 10.9375 50.59375 
L 5.125 50.59375 
Q 5.125 56.59375 7.828125 61.515625 
Q 10.546875 66.453125 15.546875 69.265625 
Q 20.5625 72.078125 26.953125 72.078125 
Q 36.71875 72.078125 42.203125 66.9375 
Q 47.703125 61.8125 47.703125 52.984375 
Q 47.703125 48 44.59375 42.09375 
Q 41.5 36.1875 33.6875 27.34375 
L 13.875 4.9375 
L 51.21875 4.9375 
z
" id="Roboto-Light-32"/>
       <path d="M 48.578125 52.78125 
Q 48.578125 47.265625 45.359375 42.890625 
Q 42.140625 38.53125 36.859375 36.46875 
Q 43.015625 34.375 46.71875 29.6875 
Q 50.4375 25 50.4375 18.84375 
Q 50.4375 9.71875 44.234375 4.359375 
Q 38.03125 -0.984375 27.828125 -0.984375 
Q 17.53125 -0.984375 11.34375 4.34375 
Q 5.171875 9.671875 5.171875 18.84375 
Q 5.171875 24.90625 8.734375 29.640625 
Q 12.3125 34.375 18.5 36.46875 
Q 13.234375 38.53125 10.109375 42.890625 
Q 6.984375 47.265625 6.984375 52.78125 
Q 6.984375 61.625 12.671875 66.84375 
Q 18.359375 72.078125 27.734375 72.078125 
Q 37.109375 72.078125 42.84375 66.796875 
Q 48.578125 61.53125 48.578125 52.78125 
z
M 44.578125 18.796875 
Q 44.578125 25.4375 39.84375 29.703125 
Q 35.109375 33.984375 27.734375 33.984375 
Q 20.359375 33.984375 15.671875 29.78125 
Q 10.984375 25.59375 10.984375 18.796875 
Q 10.984375 12.015625 15.515625 7.984375 
Q 20.0625 3.953125 27.828125 3.953125 
Q 35.40625 3.953125 39.984375 7.953125 
Q 44.578125 11.96875 44.578125 18.796875 
z
M 42.71875 52.828125 
Q 42.71875 58.9375 38.5 63.015625 
Q 34.28125 67.09375 27.734375 67.09375 
Q 21.09375 67.09375 16.96875 63.15625 
Q 12.84375 59.234375 12.84375 52.828125 
Q 12.84375 46.578125 16.96875 42.765625 
Q 21.09375 38.96875 27.78125 38.96875 
Q 34.375 38.96875 38.546875 42.796875 
Q 42.71875 46.625 42.71875 52.828125 
z
" id="Roboto-Light-38"/>
      </defs>
      <g transform="translate(47.400304 275.556047)rotate(-60)scale(0.1 -0.1)">
       <use xlink:href="#Roboto-Light-34"/>
       <use x="55.419922" xlink:href="#Roboto-Light-2e"/>
       <use x="79.296875" xlink:href="#Roboto-Light-32"/>
       <use x="134.716797" xlink:href="#Roboto-Light-2e"/>
       <use x="158.59375" xlink:href="#Roboto-Light-38"/>
      </g>
     </g>
    </g>
    <g id="xtick_2">
     <g id="line2d_3">
      <path clip-path="url(#p488b7d6ca5)" d="M 81.214744 249.77175 
L 81.214744 22.32375 
" style="fill:none;stroke:#cbcbcb;stroke-width:0.75;"/>
     </g>
     <g id="line2d_4"/>
     <g id="text_2">
      <!-- 4.3.6 -->
      <defs>
       <path d="M 19.671875 38.71875 
L 25.734375 38.71875 
Q 30.765625 38.71875 34.515625 40.5 
Q 38.28125 42.28125 40.25 45.375 
Q 42.234375 48.484375 42.234375 52.546875 
Q 42.234375 59.375 38.375 63.234375 
Q 34.515625 67.09375 27.296875 67.09375 
Q 20.453125 67.09375 16.078125 63.0625 
Q 11.71875 59.03125 11.71875 52.4375 
L 5.859375 52.4375 
Q 5.859375 57.953125 8.640625 62.515625 
Q 11.421875 67.09375 16.359375 69.578125 
Q 21.296875 72.078125 27.296875 72.078125 
Q 36.96875 72.078125 42.53125 66.796875 
Q 48.09375 61.53125 48.09375 52.34375 
Q 48.09375 47.21875 44.84375 42.890625 
Q 41.609375 38.578125 35.9375 36.421875 
Q 42.578125 34.578125 46 30.046875 
Q 49.421875 25.53125 49.421875 19.28125 
Q 49.421875 10.15625 43.453125 4.578125 
Q 37.5 -0.984375 27.546875 -0.984375 
Q 21.1875 -0.984375 15.890625 1.5625 
Q 10.59375 4.109375 7.6875 8.671875 
Q 4.78125 13.234375 4.78125 19.28125 
L 10.640625 19.28125 
Q 10.640625 12.5 15.375 8.21875 
Q 20.125 3.953125 27.546875 3.953125 
Q 35.109375 3.953125 39.328125 7.828125 
Q 43.5625 11.71875 43.5625 19.09375 
Q 43.5625 26.21875 38.984375 29.96875 
Q 34.421875 33.734375 25.53125 33.734375 
L 19.671875 33.734375 
z
" id="Roboto-Light-33"/>
       <path d="M 41.15625 71.625 
L 41.15625 66.5 
L 40.484375 66.5 
Q 27.734375 66.5 20.40625 59 
Q 13.09375 51.515625 12.3125 38.1875 
Q 15.234375 42.234375 19.765625 44.453125 
Q 24.3125 46.6875 29.9375 46.6875 
Q 39.3125 46.6875 44.84375 40.203125 
Q 50.390625 33.734375 50.390625 23.296875 
Q 50.390625 16.359375 47.796875 10.78125 
Q 45.21875 5.21875 40.375 2.109375 
Q 35.546875 -0.984375 29.34375 -0.984375 
Q 19.140625 -0.984375 12.734375 6.40625 
Q 6.34375 13.8125 6.34375 25.53125 
L 6.34375 31.390625 
Q 6.34375 50.484375 15.03125 60.953125 
Q 23.734375 71.4375 39.703125 71.625 
z
M 29 41.65625 
Q 23.4375 41.65625 18.625 38.359375 
Q 13.8125 35.0625 12.203125 29.984375 
L 12.203125 25 
Q 12.203125 15.71875 16.96875 9.859375 
Q 21.734375 4 29.34375 4 
Q 36.1875 4 40.40625 9.421875 
Q 44.625 14.84375 44.625 23.09375 
Q 44.625 31.5 40.40625 36.578125 
Q 36.1875 41.65625 29 41.65625 
z
" id="Roboto-Light-36"/>
      </defs>
      <g transform="translate(68.754849 275.556047)rotate(-60)scale(0.1 -0.1)">
       <use xlink:href="#Roboto-Light-34"/>
       <use x="55.419922" xlink:href="#Roboto-Light-2e"/>
       <use x="79.296875" xlink:href="#Roboto-Light-33"/>
       <use x="134.716797" xlink:href="#Roboto-Light-2e"/>
       <use x="158.59375" xlink:href="#Roboto-Light-36"/>
      </g>
     </g>
    </g>
    <g id="xtick_3">
     <g id="line2d_5">
      <path clip-path="url(#p488b7d6ca5)" d="M 102.56929 249.77175 
L 102.56929 22.32375 
" style="fill:none;stroke:#000000;stroke-width:0.75;"/>
     </g>
     <g id="line2d_6"/>
     <g id="text_3">
      <!-- 4.4.147 -->
      <defs>
       <path d="M 46.578125 26.765625 
L 54.640625 26.765625 
L 54.640625 15.375 
L 46.578125 15.375 
L 46.578125 0 
L 32.46875 0 
L 32.46875 15.375 
L 3.328125 15.375 
L 2.6875 24.265625 
L 32.328125 71.09375 
L 46.578125 71.09375 
z
M 16.75 26.765625 
L 32.46875 26.765625 
L 32.46875 51.859375 
L 31.546875 50.25 
z
" id="Roboto-Bold-34"/>
       <path d="M 6.15625 6.9375 
Q 6.15625 10.296875 8.421875 12.390625 
Q 10.6875 14.5 14.109375 14.5 
Q 17.578125 14.5 19.84375 12.390625 
Q 22.125 10.296875 22.125 6.9375 
Q 22.125 3.609375 19.875 1.53125 
Q 17.625 -0.53125 14.109375 -0.53125 
Q 10.640625 -0.53125 8.390625 1.53125 
Q 6.15625 3.609375 6.15625 6.9375 
z
" id="Roboto-Bold-2e"/>
       <path d="M 39.109375 0 
L 25 0 
L 25 54.390625 
L 8.15625 49.171875 
L 8.15625 60.640625 
L 37.59375 71.1875 
L 39.109375 71.1875 
z
" id="Roboto-Bold-31"/>
       <path d="M 53.171875 63.1875 
L 25.6875 0 
L 10.796875 0 
L 38.328125 59.671875 
L 2.984375 59.671875 
L 2.984375 71.09375 
L 53.171875 71.09375 
z
" id="Roboto-Bold-37"/>
      </defs>
      <g transform="translate(83.561738 286.89692)rotate(-60)scale(0.1 -0.1)">
       <use xlink:href="#Roboto-Bold-34"/>
       <use x="57.373047" xlink:href="#Roboto-Bold-2e"/>
       <use x="86.425781" xlink:href="#Roboto-Bold-34"/>
       <use x="143.798828" xlink:href="#Roboto-Bold-2e"/>
       <use x="172.851562" xlink:href="#Roboto-Bold-31"/>
       <use x="230.224609" xlink:href="#Roboto-Bold-34"/>
       <use x="287.597656" xlink:href="#Roboto-Bold-37"/>
      </g>
     </g>
    </g>
    <g id="xtick_4">
     <g id="line2d_7">
      <path clip-path="url(#p488b7d6ca5)" d="M 123.923835 249.77175 
L 123.923835 22.32375 
" style="fill:none;stroke:#cbcbcb;stroke-width:0.75;"/>
     </g>
     <g id="line2d_8"/>
     <g id="text_4">
      <!-- 4.5.7 -->
      <defs>
       <path d="M 10.640625 36.421875 
L 14.109375 71.09375 
L 49.65625 71.09375 
L 49.65625 65.671875 
L 19.140625 65.671875 
L 16.65625 41.65625 
Q 22.359375 45.5625 30.03125 45.5625 
Q 39.65625 45.5625 45.359375 39.3125 
Q 51.078125 33.0625 51.078125 22.65625 
Q 51.078125 11.421875 45.5 5.21875 
Q 39.9375 -0.984375 29.828125 -0.984375 
Q 20.5625 -0.984375 14.796875 4.1875 
Q 9.03125 9.375 8.203125 18.703125 
L 13.8125 18.703125 
Q 14.65625 11.421875 18.75 7.6875 
Q 22.859375 3.953125 29.828125 3.953125 
Q 37.453125 3.953125 41.328125 8.78125 
Q 45.21875 13.625 45.21875 22.5625 
Q 45.21875 30.375 40.875 35.296875 
Q 36.53125 40.234375 29 40.234375 
Q 24.859375 40.234375 21.78125 39.1875 
Q 18.703125 38.140625 15.28125 35.109375 
z
" id="Roboto-Light-35"/>
       <path d="M 50.484375 67.71875 
L 20.125 0 
L 14.015625 0 
L 44.1875 66.109375 
L 3.765625 66.109375 
L 3.765625 71.09375 
L 50.484375 71.09375 
z
" id="Roboto-Light-37"/>
      </defs>
      <g transform="translate(111.46394 275.556047)rotate(-60)scale(0.1 -0.1)">
       <use xlink:href="#Roboto-Light-34"/>
       <use x="55.419922" xlink:href="#Roboto-Light-2e"/>
       <use x="79.296875" xlink:href="#Roboto-Light-35"/>
       <use x="134.716797" xlink:href="#Roboto-Light-2e"/>
       <use x="158.59375" xlink:href="#Roboto-Light-37"/>
      </g>
     </g>
    </g>
    <g id="xtick_5">
     <g id="line2d_9">
      <path clip-path="url(#p488b7d6ca5)" d="M 145.278381 249.77175 
L 145.278381 22.32375 
" style="fill:none;stroke:#cbcbcb;stroke-width:0.75;"/>
     </g>
     <g id="line2d_10"/>
     <g id="text_5">
      <!-- 4.6.7 -->
      <g transform="translate(132.818485 275.556047)rotate(-60)scale(0.1 -0.1)">
       <use xlink:href="#Roboto-Light-34"/>
       <use x="55.419922" xlink:href="#Roboto-Light-2e"/>
       <use x="79.296875" xlink:href="#Roboto-Light-36"/>
       <use x="134.716797" xlink:href="#Roboto-Light-2e"/>
       <use x="158.59375" xlink:href="#Roboto-Light-37"/>
      </g>
     </g>
    </g>
    <g id="xtick_6">
     <g id="line2d_11">
      <path clip-path="url(#p488b7d6ca5)" d="M 166.632926 249.77175 
L 166.632926 22.32375 
" style="fill:none;stroke:#cbcbcb;stroke-width:0.75;"/>
     </g>
     <g id="line2d_12"/>
     <g id="text_6">
      <!-- 4.7.10 -->
      <defs>
       <path d="M 33.890625 0 
L 28.03125 0 
L 28.03125 64.0625 
L 8.6875 56.890625 
L 8.6875 62.359375 
L 32.90625 71.34375 
L 33.890625 71.34375 
z
" id="Roboto-Light-31"/>
       <path d="M 49.5625 29.640625 
Q 49.5625 14.59375 44.046875 6.796875 
Q 38.53125 -0.984375 27.78125 -0.984375 
Q 17.234375 -0.984375 11.609375 6.65625 
Q 6 14.3125 5.859375 28.90625 
L 5.859375 41.65625 
Q 5.859375 56.640625 11.421875 64.359375 
Q 17 72.078125 27.6875 72.078125 
Q 38.234375 72.078125 43.796875 64.625 
Q 49.359375 57.171875 49.5625 42.671875 
z
M 43.703125 42.390625 
Q 43.703125 54.59375 39.71875 60.84375 
Q 35.75 67.09375 27.6875 67.09375 
Q 19.78125 67.09375 15.765625 60.984375 
Q 11.765625 54.890625 11.671875 42.96875 
L 11.671875 29 
Q 11.671875 16.84375 15.796875 10.390625 
Q 19.921875 3.953125 27.78125 3.953125 
Q 35.59375 3.953125 39.625 10.25 
Q 43.65625 16.546875 43.703125 28.71875 
z
" id="Roboto-Light-30"/>
      </defs>
      <g transform="translate(151.401937 280.355722)rotate(-60)scale(0.1 -0.1)">
       <use xlink:href="#Roboto-Light-34"/>
       <use x="55.419922" xlink:href="#Roboto-Light-2e"/>
       <use x="79.296875" xlink:href="#Roboto-Light-37"/>
       <use x="134.716797" xlink:href="#Roboto-Light-2e"/>
       <use x="158.59375" xlink:href="#Roboto-Light-31"/>
       <use x="214.013672" xlink:href="#Roboto-Light-30"/>
      </g>
     </g>
    </g>
    <g id="xtick_7">
     <g id="line2d_13">
      <path clip-path="url(#p488b7d6ca5)" d="M 187.987472 249.77175 
L 187.987472 22.32375 
" style="fill:none;stroke:#cbcbcb;stroke-width:0.75;"/>
     </g>
     <g id="line2d_14"/>
     <g id="text_7">
      <!-- 4.8.17 -->
      <g transform="translate(172.756482 280.355722)rotate(-60)scale(0.1 -0.1)">
       <use xlink:href="#Roboto-Light-34"/>
       <use x="55.419922" xlink:href="#Roboto-Light-2e"/>
       <use x="79.296875" xlink:href="#Roboto-Light-38"/>
       <use x="134.716797" xlink:href="#Roboto-Light-2e"/>
       <use x="158.59375" xlink:href="#Roboto-Light-31"/>
       <use x="214.013672" xlink:href="#Roboto-Light-37"/>
      </g>
     </g>
    </g>
    <g id="xtick_8">
     <g id="line2d_15">
      <path clip-path="url(#p488b7d6ca5)" d="M 209.342017 249.77175 
L 209.342017 22.32375 
" style="fill:none;stroke:#000000;stroke-width:0.75;"/>
     </g>
     <g id="line2d_16"/>
     <g id="text_8">
      <!-- 4.9.119 -->
      <defs>
       <path d="M 37.84375 28.421875 
Q 32.328125 23 24.953125 23 
Q 15.53125 23 9.859375 29.46875 
Q 4.203125 35.9375 4.203125 46.921875 
Q 4.203125 53.90625 7.25 59.734375 
Q 10.296875 65.578125 15.765625 68.828125 
Q 21.234375 72.078125 28.078125 72.078125 
Q 35.109375 72.078125 40.578125 68.5625 
Q 46.046875 65.046875 49.0625 58.453125 
Q 52.09375 51.859375 52.15625 43.359375 
L 52.15625 38.140625 
Q 52.15625 20.359375 43.3125 10.203125 
Q 34.46875 0.046875 18.265625 -0.640625 
L 14.796875 -0.6875 
L 14.796875 11.078125 
L 17.921875 11.140625 
Q 36.328125 11.96875 37.84375 28.421875 
z
M 28.421875 33.796875 
Q 31.84375 33.796875 34.296875 35.546875 
Q 36.765625 37.3125 38.03125 39.796875 
L 38.03125 45.609375 
Q 38.03125 52.78125 35.296875 56.734375 
Q 32.5625 60.6875 27.984375 60.6875 
Q 23.734375 60.6875 21 56.8125 
Q 18.265625 52.9375 18.265625 47.078125 
Q 18.265625 41.265625 20.921875 37.53125 
Q 23.578125 33.796875 28.421875 33.796875 
z
" id="Roboto-Bold-39"/>
      </defs>
      <g transform="translate(190.334465 286.89692)rotate(-60)scale(0.1 -0.1)">
       <use xlink:href="#Roboto-Bold-34"/>
       <use x="57.373047" xlink:href="#Roboto-Bold-2e"/>
       <use x="86.425781" xlink:href="#Roboto-Bold-39"/>
       <use x="143.798828" xlink:href="#Roboto-Bold-2e"/>
       <use x="172.851562" xlink:href="#Roboto-Bold-31"/>
       <use x="230.224609" xlink:href="#Roboto-Bold-31"/>
       <use x="287.597656" xlink:href="#Roboto-Bold-39"/>
      </g>
     </g>
    </g>
    <g id="xtick_9">
     <g id="line2d_17">
      <path clip-path="url(#p488b7d6ca5)" d="M 230.696562 249.77175 
L 230.696562 22.32375 
" style="fill:none;stroke:#cbcbcb;stroke-width:0.75;"/>
     </g>
     <g id="line2d_18"/>
     <g id="text_9">
      <!-- 4.10.17 -->
      <g transform="translate(212.69448 285.155397)rotate(-60)scale(0.1 -0.1)">
       <use xlink:href="#Roboto-Light-34"/>
       <use x="55.419922" xlink:href="#Roboto-Light-2e"/>
       <use x="79.296875" xlink:href="#Roboto-Light-31"/>
       <use x="134.716797" xlink:href="#Roboto-Light-30"/>
       <use x="190.136719" xlink:href="#Roboto-Light-2e"/>
       <use x="214.013672" xlink:href="#Roboto-Light-31"/>
       <use x="269.433594" xlink:href="#Roboto-Light-37"/>
      </g>
     </g>
    </g>
    <g id="xtick_10">
     <g id="line2d_19">
      <path clip-path="url(#p488b7d6ca5)" d="M 252.051108 249.77175 
L 252.051108 22.32375 
" style="fill:none;stroke:#cbcbcb;stroke-width:0.75;"/>
     </g>
     <g id="line2d_20"/>
     <g id="text_10">
      <!-- 4.11.12 -->
      <g transform="translate(234.049025 285.155397)rotate(-60)scale(0.1 -0.1)">
       <use xlink:href="#Roboto-Light-34"/>
       <use x="55.419922" xlink:href="#Roboto-Light-2e"/>
       <use x="79.296875" xlink:href="#Roboto-Light-31"/>
       <use x="134.716797" xlink:href="#Roboto-Light-31"/>
       <use x="190.136719" xlink:href="#Roboto-Light-2e"/>
       <use x="214.013672" xlink:href="#Roboto-Light-31"/>
       <use x="269.433594" xlink:href="#Roboto-Light-32"/>
      </g>
     </g>
    </g>
    <g id="xtick_11">
     <g id="line2d_21">
      <path clip-path="url(#p488b7d6ca5)" d="M 273.405653 249.77175 
L 273.405653 22.32375 
" style="fill:none;stroke:#cbcbcb;stroke-width:0.75;"/>
     </g>
     <g id="line2d_22"/>
     <g id="text_11">
      <!-- 4.12.14 -->
      <g transform="translate(255.403571 285.155397)rotate(-60)scale(0.1 -0.1)">
       <use xlink:href="#Roboto-Light-34"/>
       <use x="55.419922" xlink:href="#Roboto-Light-2e"/>
       <use x="79.296875" xlink:href="#Roboto-Light-31"/>
       <use x="134.716797" xlink:href="#Roboto-Light-32"/>
       <use x="190.136719" xlink:href="#Roboto-Light-2e"/>
       <use x="214.013672" xlink:href="#Roboto-Light-31"/>
       <use x="269.433594" xlink:href="#Roboto-Light-34"/>
      </g>
     </g>
    </g>
    <g id="xtick_12">
     <g id="line2d_23">
      <path clip-path="url(#p488b7d6ca5)" d="M 294.760199 249.77175 
L 294.760199 22.32375 
" style="fill:none;stroke:#cbcbcb;stroke-width:0.75;"/>
     </g>
     <g id="line2d_24"/>
     <g id="text_12">
      <!-- 4.13.16 -->
      <g transform="translate(276.758116 285.155397)rotate(-60)scale(0.1 -0.1)">
       <use xlink:href="#Roboto-Light-34"/>
       <use x="55.419922" xlink:href="#Roboto-Light-2e"/>
       <use x="79.296875" xlink:href="#Roboto-Light-31"/>
       <use x="134.716797" xlink:href="#Roboto-Light-33"/>
       <use x="190.136719" xlink:href="#Roboto-Light-2e"/>
       <use x="214.013672" xlink:href="#Roboto-Light-31"/>
       <use x="269.433594" xlink:href="#Roboto-Light-36"/>
      </g>
     </g>
    </g>
    <g id="xtick_13">
     <g id="line2d_25">
      <path clip-path="url(#p488b7d6ca5)" d="M 316.114744 249.77175 
L 316.114744 22.32375 
" style="fill:none;stroke:#cbcbcb;stroke-width:0.75;"/>
     </g>
     <g id="line2d_26"/>
     <g id="text_13">
      <!-- 4.14.62 -->
      <g transform="translate(298.112661 285.155397)rotate(-60)scale(0.1 -0.1)">
       <use xlink:href="#Roboto-Light-34"/>
       <use x="55.419922" xlink:href="#Roboto-Light-2e"/>
       <use x="79.296875" xlink:href="#Roboto-Light-31"/>
       <use x="134.716797" xlink:href="#Roboto-Light-34"/>
       <use x="190.136719" xlink:href="#Roboto-Light-2e"/>
       <use x="214.013672" xlink:href="#Roboto-Light-36"/>
       <use x="269.433594" xlink:href="#Roboto-Light-32"/>
      </g>
     </g>
    </g>
    <g id="xtick_14">
     <g id="line2d_27">
      <path clip-path="url(#p488b7d6ca5)" d="M 337.46929 249.77175 
L 337.46929 22.32375 
" style="fill:none;stroke:#000000;stroke-width:0.75;"/>
     </g>
     <g id="line2d_28"/>
     <g id="text_14">
      <!-- 4.15.18 -->
      <defs>
       <path d="M 6.9375 34.96875 
L 11.03125 71.09375 
L 50.875 71.09375 
L 50.875 59.328125 
L 22.609375 59.328125 
L 20.84375 44.046875 
Q 25.875 46.734375 31.546875 46.734375 
Q 41.703125 46.734375 47.453125 40.421875 
Q 53.21875 34.125 53.21875 22.796875 
Q 53.21875 15.921875 50.3125 10.46875 
Q 47.40625 5.03125 41.984375 2.015625 
Q 36.578125 -0.984375 29.203125 -0.984375 
Q 22.75 -0.984375 17.234375 1.625 
Q 11.71875 4.25 8.515625 8.984375 
Q 5.328125 13.71875 5.125 19.78125 
L 19.09375 19.78125 
Q 19.53125 15.328125 22.1875 12.859375 
Q 24.859375 10.40625 29.15625 10.40625 
Q 33.9375 10.40625 36.515625 13.84375 
Q 39.109375 17.28125 39.109375 23.578125 
Q 39.109375 29.640625 36.125 32.859375 
Q 33.15625 36.078125 27.6875 36.078125 
Q 22.65625 36.078125 19.53125 33.453125 
L 18.171875 32.171875 
z
" id="Roboto-Bold-35"/>
       <path d="M 51.171875 52.203125 
Q 51.171875 47.015625 48.578125 43.015625 
Q 46 39.015625 41.453125 36.625 
Q 46.625 34.125 49.65625 29.75 
Q 52.6875 25.390625 52.6875 19.484375 
Q 52.6875 10.015625 46.234375 4.515625 
Q 39.796875 -0.984375 28.703125 -0.984375 
Q 17.625 -0.984375 11.125 4.53125 
Q 4.640625 10.0625 4.640625 19.484375 
Q 4.640625 25.390625 7.65625 29.78125 
Q 10.6875 34.1875 15.828125 36.625 
Q 11.28125 39.015625 8.71875 43.015625 
Q 6.15625 47.015625 6.15625 52.203125 
Q 6.15625 61.28125 12.203125 66.671875 
Q 18.265625 72.078125 28.65625 72.078125 
Q 39.015625 72.078125 45.09375 66.71875 
Q 51.171875 61.375 51.171875 52.203125 
z
M 38.53125 20.515625 
Q 38.53125 25.140625 35.84375 27.921875 
Q 33.15625 30.71875 28.609375 30.71875 
Q 24.125 30.71875 21.4375 27.953125 
Q 18.75 25.203125 18.75 20.515625 
Q 18.75 15.96875 21.390625 13.1875 
Q 24.03125 10.40625 28.71875 10.40625 
Q 33.296875 10.40625 35.90625 13.078125 
Q 38.53125 15.765625 38.53125 20.515625 
z
M 37.0625 51.515625 
Q 37.0625 55.671875 34.859375 58.171875 
Q 32.671875 60.6875 28.65625 60.6875 
Q 24.703125 60.6875 22.5 58.25 
Q 20.3125 55.8125 20.3125 51.515625 
Q 20.3125 47.265625 22.5 44.671875 
Q 24.703125 42.09375 28.703125 42.09375 
Q 32.71875 42.09375 34.890625 44.671875 
Q 37.0625 47.265625 37.0625 51.515625 
z
" id="Roboto-Bold-38"/>
      </defs>
      <g transform="translate(318.461738 286.89692)rotate(-60)scale(0.1 -0.1)">
       <use xlink:href="#Roboto-Bold-34"/>
       <use x="57.373047" xlink:href="#Roboto-Bold-2e"/>
       <use x="86.425781" xlink:href="#Roboto-Bold-31"/>
       <use x="143.798828" xlink:href="#Roboto-Bold-35"/>
       <use x="201.171875" xlink:href="#Roboto-Bold-2e"/>
       <use x="230.224609" xlink:href="#Roboto-Bold-31"/>
       <use x="287.597656" xlink:href="#Roboto-Bold-38"/>
      </g>
     </g>
    </g>
    <g id="xtick_15">
     <g id="line2d_29">
      <path clip-path="url(#p488b7d6ca5)" d="M 358.823835 249.77175 
L 358.823835 22.32375 
" style="fill:none;stroke:#cbcbcb;stroke-width:0.75;"/>
     </g>
     <g id="line2d_30"/>
     <g id="text_15">
      <!-- 4.16.18 -->
      <g transform="translate(340.821752 285.155397)rotate(-60)scale(0.1 -0.1)">
       <use xlink:href="#Roboto-Light-34"/>
       <use x="55.419922" xlink:href="#Roboto-Light-2e"/>
       <use x="79.296875" xlink:href="#Roboto-Light-31"/>
       <use x="134.716797" xlink:href="#Roboto-Light-36"/>
       <use x="190.136719" xlink:href="#Roboto-Light-2e"/>
       <use x="214.013672" xlink:href="#Roboto-Light-31"/>
       <use x="269.433594" xlink:href="#Roboto-Light-38"/>
      </g>
     </g>
    </g>
    <g id="xtick_16">
     <g id="line2d_31">
      <path clip-path="url(#p488b7d6ca5)" d="M 380.178381 249.77175 
L 380.178381 22.32375 
" style="fill:none;stroke:#cbcbcb;stroke-width:0.75;"/>
     </g>
     <g id="line2d_32"/>
     <g id="text_16">
      <!-- 4.17.14 -->
      <g transform="translate(362.176298 285.155397)rotate(-60)scale(0.1 -0.1)">
       <use xlink:href="#Roboto-Light-34"/>
       <use x="55.419922" xlink:href="#Roboto-Light-2e"/>
       <use x="79.296875" xlink:href="#Roboto-Light-31"/>
       <use x="134.716797" xlink:href="#Roboto-Light-37"/>
       <use x="190.136719" xlink:href="#Roboto-Light-2e"/>
       <use x="214.013672" xlink:href="#Roboto-Light-31"/>
       <use x="269.433594" xlink:href="#Roboto-Light-34"/>
      </g>
     </g>
    </g>
    <g id="xtick_17">
     <g id="line2d_33">
      <path clip-path="url(#p488b7d6ca5)" d="M 401.532926 249.77175 
L 401.532926 22.32375 
" style="fill:none;stroke:#cbcbcb;stroke-width:0.75;"/>
     </g>
     <g id="line2d_34"/>
     <g id="text_17">
      <!-- 4.18.0 -->
      <g transform="translate(386.301937 280.355722)rotate(-60)scale(0.1 -0.1)">
       <use xlink:href="#Roboto-Light-34"/>
       <use x="55.419922" xlink:href="#Roboto-Light-2e"/>
       <use x="79.296875" xlink:href="#Roboto-Light-31"/>
       <use x="134.716797" xlink:href="#Roboto-Light-38"/>
       <use x="190.136719" xlink:href="#Roboto-Light-2e"/>
       <use x="214.013672" xlink:href="#Roboto-Light-30"/>
      </g>
     </g>
    </g>
   </g>
   <g id="matplotlib.axis_2">
    <g id="ytick_1">
     <g id="line2d_35">
      <path clip-path="url(#p488b7d6ca5)" d="M 42.776563 249.77175 
L 418.616562 249.77175 
" style="fill:none;stroke:#cbcbcb;stroke-width:0.75;"/>
     </g>
     <g id="line2d_36"/>
     <g id="text_18">
      <!-- 0.00 µs -->
      <defs>
       <path id="Roboto-Light-20"/>
       <path d="M 13.71875 52.828125 
L 13.71875 21.78125 
Q 13.71875 12.984375 16.796875 8.46875 
Q 19.875 3.953125 26.5625 3.953125 
Q 33.015625 3.953125 36.765625 6.765625 
Q 40.53125 9.578125 41.9375 15.234375 
L 41.9375 52.828125 
L 47.796875 52.828125 
L 47.796875 0 
L 42.484375 0 
L 42.140625 7.515625 
Q 37.359375 -0.984375 26.953125 -0.984375 
Q 17.96875 -0.984375 13.71875 5.125 
L 13.71875 -20.3125 
L 7.90625 -20.3125 
L 7.90625 52.828125 
z
" id="Roboto-Light-b5"/>
       <path d="M 39.265625 13.421875 
Q 39.265625 17.78125 35.765625 20.40625 
Q 32.28125 23.046875 25.25 24.53125 
Q 18.21875 26.03125 14.328125 27.953125 
Q 10.453125 29.890625 8.5625 32.671875 
Q 6.6875 35.453125 6.6875 39.40625 
Q 6.6875 45.65625 11.90625 49.734375 
Q 17.140625 53.8125 25.296875 53.8125 
Q 34.125 53.8125 39.46875 49.4375 
Q 44.828125 45.0625 44.828125 38.03125 
L 38.96875 38.03125 
Q 38.96875 42.671875 35.078125 45.75 
Q 31.203125 48.828125 25.296875 48.828125 
Q 19.53125 48.828125 16.03125 46.265625 
Q 12.546875 43.703125 12.546875 39.59375 
Q 12.546875 35.640625 15.453125 33.46875 
Q 18.359375 31.296875 26.046875 29.484375 
Q 33.734375 27.6875 37.5625 25.625 
Q 41.40625 23.578125 43.265625 20.703125 
Q 45.125 17.828125 45.125 13.71875 
Q 45.125 7.03125 39.71875 3.015625 
Q 34.328125 -0.984375 25.640625 -0.984375 
Q 16.40625 -0.984375 10.671875 3.484375 
Q 4.9375 7.953125 4.9375 14.796875 
L 10.796875 14.796875 
Q 11.140625 9.671875 15.109375 6.8125 
Q 19.09375 3.953125 25.640625 3.953125 
Q 31.734375 3.953125 35.5 6.640625 
Q 39.265625 9.328125 39.265625 13.421875 
z
" id="Roboto-Light-73"/>
      </defs>
      <g transform="translate(7.2 253.52175)scale(0.1 -0.1)">
       <use xlink:href="#Roboto-Light-30"/>
       <use x="55.419922" xlink:href="#Roboto-Light-2e"/>
       <use x="79.296875" xlink:href="#Roboto-Light-30"/>
       <use x="134.716797" xlink:href="#Roboto-Light-30"/>
       <use x="190.136719" xlink:href="#Roboto-Light-20"/>
       <use x="214.453125" xlink:href="#Roboto-Light-b5"/>
       <use x="270.117188" xlink:href="#Roboto-Light-73"/>
      </g>
     </g>
    </g>
    <g id="ytick_2">
     <g id="line2d_37">
      <path clip-path="url(#p488b7d6ca5)" d="M 42.776563 218.759638 
L 418.616562 218.759638 
" style="fill:none;stroke:#cbcbcb;stroke-width:0.75;"/>
     </g>
     <g id="line2d_38"/>
     <g id="text_19">
      <!-- 0.10 µs -->
      <g transform="translate(7.2 222.509638)scale(0.1 -0.1)">
       <use xlink:href="#Roboto-Light-30"/>
       <use x="55.419922" xlink:href="#Roboto-Light-2e"/>
       <use x="79.296875" xlink:href="#Roboto-Light-31"/>
       <use x="134.716797" xlink:href="#Roboto-Light-30"/>
       <use x="190.136719" xlink:href="#Roboto-Light-20"/>
       <use x="214.453125" xlink:href="#Roboto-Light-b5"/>
       <use x="270.117188" xlink:href="#Roboto-Light-73"/>
      </g>
     </g>
    </g>
    <g id="ytick_3">
     <g id="line2d_39">
      <path clip-path="url(#p488b7d6ca5)" d="M 42.776563 187.747525 
L 418.616562 187.747525 
" style="fill:none;stroke:#cbcbcb;stroke-width:0.75;"/>
     </g>
     <g id="line2d_40"/>
     <g id="text_20">
      <!-- 0.20 µs -->
      <g transform="translate(7.2 191.497525)scale(0.1 -0.1)">
       <use xlink:href="#Roboto-Light-30"/>
       <use x="55.419922" xlink:href="#Roboto-Light-2e"/>
       <use x="79.296875" xlink:href="#Roboto-Light-32"/>
       <use x="134.716797" xlink:href="#Roboto-Light-30"/>
       <use x="190.136719" xlink:href="#Roboto-Light-20"/>
       <use x="214.453125" xlink:href="#Roboto-Light-b5"/>
       <use x="270.117188" xlink:href="#Roboto-Light-73"/>
      </g>
     </g>
    </g>
    <g id="ytick_4">
     <g id="line2d_41">
      <path clip-path="url(#p488b7d6ca5)" d="M 42.776563 156.735413 
L 418.616562 156.735413 
" style="fill:none;stroke:#cbcbcb;stroke-width:0.75;"/>
     </g>
     <g id="line2d_42"/>
     <g id="text_21">
      <!-- 0.30 µs -->
      <g transform="translate(7.2 160.485413)scale(0.1 -0.1)">
       <use xlink:href="#Roboto-Light-30"/>
       <use x="55.419922" xlink:href="#Roboto-Light-2e"/>
       <use x="79.296875" xlink:href="#Roboto-Light-33"/>
       <use x="134.716797" xlink:href="#Roboto-Light-30"/>
       <use x="190.136719" xlink:href="#Roboto-Light-20"/>
       <use x="214.453125" xlink:href="#Roboto-Light-b5"/>
       <use x="270.117188" xlink:href="#Roboto-Light-73"/>
      </g>
     </g>
    </g>
    <g id="ytick_5">
     <g id="line2d_43">
      <path clip-path="url(#p488b7d6ca5)" d="M 42.776563 125.723301 
L 418.616562 125.723301 
" style="fill:none;stroke:#cbcbcb;stroke-width:0.75;"/>
     </g>
     <g id="line2d_44"/>
     <g id="text_22">
      <!-- 0.40 µs -->
      <g transform="translate(7.2 129.473301)scale(0.1 -0.1)">
       <use xlink:href="#Roboto-Light-30"/>
       <use x="55.419922" xlink:href="#Roboto-Light-2e"/>
       <use x="79.296875" xlink:href="#Roboto-Light-34"/>
       <use x="134.716797" xlink:href="#Roboto-Light-30"/>
       <use x="190.136719" xlink:href="#Roboto-Light-20"/>
       <use x="214.453125" xlink:href="#Roboto-Light-b5"/>
       <use x="270.117188" xlink:href="#Roboto-Light-73"/>
      </g>
     </g>
    </g>
    <g id="ytick_6">
     <g id="line2d_45">
      <path clip-path="url(#p488b7d6ca5)" d="M 42.776563 94.711189 
L 418.616562 94.711189 
" style="fill:none;stroke:#cbcbcb;stroke-width:0.75;"/>
     </g>
     <g id="line2d_46"/>
     <g id="text_23">
      <!-- 0.50 µs -->
      <g transform="translate(7.2 98.461189)scale(0.1 -0.1)">
       <use xlink:href="#Roboto-Light-30"/>
       <use x="55.419922" xlink:href="#Roboto-Light-2e"/>
       <use x="79.296875" xlink:href="#Roboto-Light-35"/>
       <use x="134.716797" xlink:href="#Roboto-Light-30"/>
       <use x="190.136719" xlink:href="#Roboto-Light-20"/>
       <use x="214.453125" xlink:href="#Roboto-Light-b5"/>
       <use x="270.117188" xlink:href="#Roboto-Light-73"/>
      </g>
     </g>
    </g>
    <g id="ytick_7">
     <g id="line2d_47">
      <path clip-path="url(#p488b7d6ca5)" d="M 42.776563 63.699076 
L 418.616562 63.699076 
" style="fill:none;stroke:#cbcbcb;stroke-width:0.75;"/>
     </g>
     <g id="line2d_48"/>
     <g id="text_24">
      <!-- 0.60 µs -->
      <g transform="translate(7.2 67.449076)scale(0.1 -0.1)">
       <use xlink:href="#Roboto-Light-30"/>
       <use x="55.419922" xlink:href="#Roboto-Light-2e"/>
       <use x="79.296875" xlink:href="#Roboto-Light-36"/>
       <use x="134.716797" xlink:href="#Roboto-Light-30"/>
       <use x="190.136719" xlink:href="#Roboto-Light-20"/>
       <use x="214.453125" xlink:href="#Roboto-Light-b5"/>
       <use x="270.117188" xlink:href="#Roboto-Light-73"/>
      </g>
     </g>
    </g>
    <g id="ytick_8">
     <g id="line2d_49">
      <path clip-path="url(#p488b7d6ca5)" d="M 42.776563 32.686964 
L 418.616562 32.686964 
" style="fill:none;stroke:#cbcbcb;stroke-width:0.75;"/>
     </g>
     <g id="line2d_50"/>
     <g id="text_25">
      <!-- 0.70 µs -->
      <g transform="translate(7.2 36.436964)scale(0.1 -0.1)">
       <use xlink:href="#Roboto-Light-30"/>
       <use x="55.419922" xlink:href="#Roboto-Light-2e"/>
       <use x="79.296875" xlink:href="#Roboto-Light-37"/>
       <use x="134.716797" xlink:href="#Roboto-Light-30"/>
       <use x="190.136719" xlink:href="#Roboto-Light-20"/>
       <use x="214.453125" xlink:href="#Roboto-Light-b5"/>
       <use x="270.117188" xlink:href="#Roboto-Light-73"/>
      </g>
     </g>
    </g>
   </g>
   <g id="PolyCollection_1">
    <path clip-path="url(#p488b7d6ca5)" d="M 59.860199 130.181292 
L 59.860199 130.181292 
L 81.214744 131.021203 
L 102.56929 91.674586 
L 123.923835 130.504335 
L 145.278381 132.507201 
L 166.632926 127.338515 
L 187.987472 132.830243 
L 209.342017 88.250332 
L 230.696562 127.209298 
L 252.051108 122.363655 
L 273.405653 128.630686 
L 294.760199 120.942267 
L 316.114744 131.085812 
L 337.46929 140.389446 
L 358.823835 141.035531 
L 380.178381 133.41172 
L 401.532926 141.5524 
L 401.532926 141.5524 
L 401.532926 97.230923 
L 380.178381 74.617924 
L 358.823835 95.163449 
L 337.46929 89.090243 
L 316.114744 87.022769 
L 294.760199 73.90723 
L 273.405653 87.927289 
L 252.051108 82.564778 
L 230.696562 80.045044 
L 209.342017 29.068884 
L 187.987472 93.806669 
L 166.632926 78.365221 
L 145.278381 93.612843 
L 123.923835 91.48076 
L 102.56929 33.139224 
L 81.214744 95.357274 
L 59.860199 86.893552 
z
" style="fill:#0000ff;fill-opacity:0.2;"/>
   </g>
   <g id="PolyCollection_2">
    <path clip-path="url(#p488b7d6ca5)" d="M 59.860199 149.499254 
L 59.860199 149.499254 
L 81.214744 143.038397 
L 102.56929 110.604896 
L 123.923835 143.942917 
L 145.278381 144.330568 
L 166.632926 146.010391 
L 187.987472 145.105871 
L 209.342017 111.509416 
L 230.696562 142.779963 
L 252.051108 141.358574 
L 273.405653 147.43178 
L 294.760199 140.454054 
L 316.114744 148.336299 
L 337.46929 163.971573 
L 358.823835 161.516447 
L 380.178381 161.516447 
L 401.532926 163.583921 
L 401.532926 163.583921 
L 401.532926 152.471248 
L 380.178381 150.920642 
L 358.823835 150.920642 
L 337.46929 153.634202 
L 316.114744 135.156152 
L 294.760199 126.498604 
L 273.405653 133.993198 
L 252.051108 129.729032 
L 230.696562 130.891986 
L 209.342017 97.553966 
L 187.987472 133.734763 
L 166.632926 134.380849 
L 145.278381 131.925723 
L 123.923835 131.279638 
L 102.56929 95.874143 
L 81.214744 131.150421 
L 59.860199 138.645014 
z
" style="fill:#f14432;fill-opacity:0.2;"/>
   </g>
   <g id="PolyCollection_3">
    <path clip-path="url(#p488b7d6ca5)" d="M 59.860199 111.380199 
L 59.860199 111.380199 
L 81.214744 115.515147 
L 102.56929 69.83689 
L 123.923835 113.57689 
L 145.278381 114.222976 
L 166.632926 108.537422 
L 187.987472 121.071484 
L 209.342017 69.320022 
L 230.696562 99.750657 
L 252.051108 113.318456 
L 273.405653 117.324187 
L 294.760199 95.5511 
L 316.114744 110.346462 
L 337.46929 121.976004 
L 358.823835 133.217895 
L 380.178381 122.105221 
L 401.532926 141.10014 
L 401.532926 141.10014 
L 401.532926 122.234438 
L 380.178381 94.19432 
L 358.823835 106.082297 
L 337.46929 102.593434 
L 316.114744 84.244601 
L 294.760199 71.387496 
L 273.405653 90.705458 
L 252.051108 91.609977 
L 230.696562 75.199401 
L 209.342017 45.673286 
L 187.987472 100.396743 
L 166.632926 81.918692 
L 145.278381 92.256063 
L 123.923835 93.419017 
L 102.56929 43.864246 
L 81.214744 96.649446 
L 59.860199 90.963892 
z
" style="fill:#008000;fill-opacity:0.2;"/>
   </g>
   <g id="line2d_51">
    <path clip-path="url(#p488b7d6ca5)" d="M 59.860199 108.537422 
L 81.214744 113.189239 
L 102.56929 62.406905 
L 123.923835 110.992548 
L 145.278381 113.060022 
L 166.632926 102.851868 
L 187.987472 113.318456 
L 209.342017 58.659608 
L 230.696562 103.627171 
L 252.051108 102.464217 
L 273.405653 108.278988 
L 294.760199 97.424749 
L 316.114744 109.054291 
L 337.46929 114.739845 
L 358.823835 118.09949 
L 380.178381 104.014822 
L 401.532926 119.391661 
" style="fill:none;stroke:#0000ff;"/>
    <defs>
     <path d="M 0 2 
C 0.530406 2 1.03916 1.789267 1.414214 1.414214 
C 1.789267 1.03916 2 0.530406 2 0 
C 2 -0.530406 1.789267 -1.03916 1.414214 -1.414214 
C 1.03916 -1.789267 0.530406 -2 0 -2 
C -0.530406 -2 -1.03916 -1.789267 -1.414214 -1.414214 
C -1.789267 -1.03916 -2 -0.530406 -2 0 
C -2 0.530406 -1.789267 1.03916 -1.414214 1.414214 
C -1.03916 1.789267 -0.530406 2 0 2 
z
" id="me47c15566d" style="stroke:#0000ff;"/>
    </defs>
    <g clip-path="url(#p488b7d6ca5)">
     <use style="fill:#0000ff;stroke:#0000ff;" x="59.860199" xlink:href="#me47c15566d" y="108.537422"/>
     <use style="fill:#0000ff;stroke:#0000ff;" x="81.214744" xlink:href="#me47c15566d" y="113.189239"/>
     <use style="fill:#0000ff;stroke:#0000ff;" x="102.56929" xlink:href="#me47c15566d" y="62.406905"/>
     <use style="fill:#0000ff;stroke:#0000ff;" x="123.923835" xlink:href="#me47c15566d" y="110.992548"/>
     <use style="fill:#0000ff;stroke:#0000ff;" x="145.278381" xlink:href="#me47c15566d" y="113.060022"/>
     <use style="fill:#0000ff;stroke:#0000ff;" x="166.632926" xlink:href="#me47c15566d" y="102.851868"/>
     <use style="fill:#0000ff;stroke:#0000ff;" x="187.987472" xlink:href="#me47c15566d" y="113.318456"/>
     <use style="fill:#0000ff;stroke:#0000ff;" x="209.342017" xlink:href="#me47c15566d" y="58.659608"/>
     <use style="fill:#0000ff;stroke:#0000ff;" x="230.696562" xlink:href="#me47c15566d" y="103.627171"/>
     <use style="fill:#0000ff;stroke:#0000ff;" x="252.051108" xlink:href="#me47c15566d" y="102.464217"/>
     <use style="fill:#0000ff;stroke:#0000ff;" x="273.405653" xlink:href="#me47c15566d" y="108.278988"/>
     <use style="fill:#0000ff;stroke:#0000ff;" x="294.760199" xlink:href="#me47c15566d" y="97.424749"/>
     <use style="fill:#0000ff;stroke:#0000ff;" x="316.114744" xlink:href="#me47c15566d" y="109.054291"/>
     <use style="fill:#0000ff;stroke:#0000ff;" x="337.46929" xlink:href="#me47c15566d" y="114.739845"/>
     <use style="fill:#0000ff;stroke:#0000ff;" x="358.823835" xlink:href="#me47c15566d" y="118.09949"/>
     <use style="fill:#0000ff;stroke:#0000ff;" x="380.178381" xlink:href="#me47c15566d" y="104.014822"/>
     <use style="fill:#0000ff;stroke:#0000ff;" x="401.532926" xlink:href="#me47c15566d" y="119.391661"/>
    </g>
   </g>
   <g id="line2d_52">
    <path clip-path="url(#p488b7d6ca5)" d="M 59.860199 144.072134 
L 81.214744 137.094409 
L 102.56929 103.23952 
L 123.923835 137.611277 
L 145.278381 138.128146 
L 166.632926 140.19562 
L 187.987472 139.420317 
L 209.342017 104.531691 
L 230.696562 136.835975 
L 252.051108 135.543803 
L 273.405653 140.712489 
L 294.760199 133.476329 
L 316.114744 141.746226 
L 337.46929 158.802887 
L 358.823835 156.218545 
L 380.178381 156.218545 
L 401.532926 158.027585 
" style="fill:none;stroke:#f14432;"/>
    <defs>
     <path d="M 0 2 
C 0.530406 2 1.03916 1.789267 1.414214 1.414214 
C 1.789267 1.03916 2 0.530406 2 0 
C 2 -0.530406 1.789267 -1.03916 1.414214 -1.414214 
C 1.03916 -1.789267 0.530406 -2 0 -2 
C -0.530406 -2 -1.03916 -1.789267 -1.414214 -1.414214 
C -1.789267 -1.03916 -2 -0.530406 -2 0 
C -2 0.530406 -1.789267 1.03916 -1.414214 1.414214 
C -1.03916 1.789267 -0.530406 2 0 2 
z
" id="m8497190527" style="stroke:#f14432;"/>
    </defs>
    <g clip-path="url(#p488b7d6ca5)">
     <use style="fill:#f14432;stroke:#f14432;" x="59.860199" xlink:href="#m8497190527" y="144.072134"/>
     <use style="fill:#f14432;stroke:#f14432;" x="81.214744" xlink:href="#m8497190527" y="137.094409"/>
     <use style="fill:#f14432;stroke:#f14432;" x="102.56929" xlink:href="#m8497190527" y="103.23952"/>
     <use style="fill:#f14432;stroke:#f14432;" x="123.923835" xlink:href="#m8497190527" y="137.611277"/>
     <use style="fill:#f14432;stroke:#f14432;" x="145.278381" xlink:href="#m8497190527" y="138.128146"/>
     <use style="fill:#f14432;stroke:#f14432;" x="166.632926" xlink:href="#m8497190527" y="140.19562"/>
     <use style="fill:#f14432;stroke:#f14432;" x="187.987472" xlink:href="#m8497190527" y="139.420317"/>
     <use style="fill:#f14432;stroke:#f14432;" x="209.342017" xlink:href="#m8497190527" y="104.531691"/>
     <use style="fill:#f14432;stroke:#f14432;" x="230.696562" xlink:href="#m8497190527" y="136.835975"/>
     <use style="fill:#f14432;stroke:#f14432;" x="252.051108" xlink:href="#m8497190527" y="135.543803"/>
     <use style="fill:#f14432;stroke:#f14432;" x="273.405653" xlink:href="#m8497190527" y="140.712489"/>
     <use style="fill:#f14432;stroke:#f14432;" x="294.760199" xlink:href="#m8497190527" y="133.476329"/>
     <use style="fill:#f14432;stroke:#f14432;" x="316.114744" xlink:href="#m8497190527" y="141.746226"/>
     <use style="fill:#f14432;stroke:#f14432;" x="337.46929" xlink:href="#m8497190527" y="158.802887"/>
     <use style="fill:#f14432;stroke:#f14432;" x="358.823835" xlink:href="#m8497190527" y="156.218545"/>
     <use style="fill:#f14432;stroke:#f14432;" x="380.178381" xlink:href="#m8497190527" y="156.218545"/>
     <use style="fill:#f14432;stroke:#f14432;" x="401.532926" xlink:href="#m8497190527" y="158.027585"/>
    </g>
   </g>
   <g id="line2d_53">
    <path clip-path="url(#p488b7d6ca5)" d="M 59.860199 101.172045 
L 81.214744 106.082297 
L 102.56929 56.850568 
L 123.923835 103.497954 
L 145.278381 103.23952 
L 166.632926 95.228057 
L 187.987472 110.734113 
L 209.342017 57.496654 
L 230.696562 87.475029 
L 252.051108 102.464217 
L 273.405653 104.014822 
L 294.760199 83.469298 
L 316.114744 97.295531 
L 337.46929 112.284719 
L 358.823835 119.650096 
L 380.178381 108.149771 
L 401.532926 131.667289 
" style="fill:none;stroke:#008000;"/>
    <defs>
     <path d="M 0 2 
C 0.530406 2 1.03916 1.789267 1.414214 1.414214 
C 1.789267 1.03916 2 0.530406 2 0 
C 2 -0.530406 1.789267 -1.03916 1.414214 -1.414214 
C 1.03916 -1.789267 0.530406 -2 0 -2 
C -0.530406 -2 -1.03916 -1.789267 -1.414214 -1.414214 
C -1.789267 -1.03916 -2 -0.530406 -2 0 
C -2 0.530406 -1.789267 1.03916 -1.414214 1.414214 
C -1.03916 1.789267 -0.530406 2 0 2 
z
" id="mf326a927b3" style="stroke:#008000;"/>
    </defs>
    <g clip-path="url(#p488b7d6ca5)">
     <use style="fill:#008000;stroke:#008000;" x="59.860199" xlink:href="#mf326a927b3" y="101.172045"/>
     <use style="fill:#008000;stroke:#008000;" x="81.214744" xlink:href="#mf326a927b3" y="106.082297"/>
     <use style="fill:#008000;stroke:#008000;" x="102.56929" xlink:href="#mf326a927b3" y="56.850568"/>
     <use style="fill:#008000;stroke:#008000;" x="123.923835" xlink:href="#mf326a927b3" y="103.497954"/>
     <use style="fill:#008000;stroke:#008000;" x="145.278381" xlink:href="#mf326a927b3" y="103.23952"/>
     <use style="fill:#008000;stroke:#008000;" x="166.632926" xlink:href="#mf326a927b3" y="95.228057"/>
     <use style="fill:#008000;stroke:#008000;" x="187.987472" xlink:href="#mf326a927b3" y="110.734113"/>
     <use style="fill:#008000;stroke:#008000;" x="209.342017" xlink:href="#mf326a927b3" y="57.496654"/>
     <use style="fill:#008000;stroke:#008000;" x="230.696562" xlink:href="#mf326a927b3" y="87.475029"/>
     <use style="fill:#008000;stroke:#008000;" x="252.051108" xlink:href="#mf326a927b3" y="102.464217"/>
     <use style="fill:#008000;stroke:#008000;" x="273.405653" xlink:href="#mf326a927b3" y="104.014822"/>
     <use style="fill:#008000;stroke:#008000;" x="294.760199" xlink:href="#mf326a927b3" y="83.469298"/>
     <use style="fill:#008000;stroke:#008000;" x="316.114744" xlink:href="#mf326a927b3" y="97.295531"/>
     <use style="fill:#008000;stroke:#008000;" x="337.46929" xlink:href="#mf326a927b3" y="112.284719"/>
     <use style="fill:#008000;stroke:#008000;" x="358.823835" xlink:href="#mf326a927b3" y="119.650096"/>
     <use style="fill:#008000;stroke:#008000;" x="380.178381" xlink:href="#mf326a927b3" y="108.149771"/>
     <use style="fill:#008000;stroke:#008000;" x="401.532926" xlink:href="#mf326a927b3" y="131.667289"/>
    </g>
   </g>
   <g id="patch_3">
    <path d="M 42.776563 249.77175 
L 42.776563 22.32375 
" style="fill:none;"/>
   </g>
   <g id="patch_4">
    <path d="M 418.616562 249.77175 
L 418.616562 22.32375 
" style="fill:none;"/>
   </g>
   <g id="patch_5">
    <path d="M 42.776563 249.77175 
L 418.616562 249.77175 
" style="fill:none;"/>
   </g>
   <g id="patch_6">
    <path d="M 42.776563 22.32375 
L 418.616562 22.32375 
" style="fill:none;"/>
   </g>
   <g id="text_26">
    <!-- route lookup time for 40,000 routes -->
    <defs>
     <path d="M 33.734375 42 
Q 31.390625 42.390625 28.90625 42.390625 
Q 20.75 42.390625 17.921875 36.140625 
L 17.921875 0 
L 6.0625 0 
L 6.0625 52.828125 
L 17.390625 52.828125 
L 17.671875 46.921875 
Q 21.96875 53.8125 29.59375 53.8125 
Q 32.125 53.8125 33.796875 53.125 
z
" id="Roboto-Medium-72"/>
     <path d="M 3.859375 26.90625 
Q 3.859375 34.671875 6.9375 40.890625 
Q 10.015625 47.125 15.578125 50.46875 
Q 21.140625 53.8125 28.375 53.8125 
Q 39.0625 53.8125 45.71875 46.921875 
Q 52.390625 40.046875 52.9375 28.65625 
L 52.984375 25.875 
Q 52.984375 18.0625 49.96875 11.90625 
Q 46.96875 5.765625 41.375 2.390625 
Q 35.796875 -0.984375 28.46875 -0.984375 
Q 17.28125 -0.984375 10.5625 6.46875 
Q 3.859375 13.921875 3.859375 26.3125 
z
M 15.71875 25.875 
Q 15.71875 17.71875 19.09375 13.109375 
Q 22.46875 8.5 28.46875 8.5 
Q 34.46875 8.5 37.8125 13.1875 
Q 41.15625 17.875 41.15625 26.90625 
Q 41.15625 34.90625 37.71875 39.59375 
Q 34.28125 44.28125 28.375 44.28125 
Q 22.5625 44.28125 19.140625 39.671875 
Q 15.71875 35.0625 15.71875 25.875 
z
" id="Roboto-Medium-6f"/>
     <path d="M 38.09375 5.171875 
Q 32.859375 -0.984375 23.25 -0.984375 
Q 14.65625 -0.984375 10.234375 4.046875 
Q 5.8125 9.078125 5.8125 18.609375 
L 5.8125 52.828125 
L 17.671875 52.828125 
L 17.671875 18.75 
Q 17.671875 8.6875 26.03125 8.6875 
Q 34.671875 8.6875 37.703125 14.890625 
L 37.703125 52.828125 
L 49.5625 52.828125 
L 49.5625 0 
L 38.375 0 
z
" id="Roboto-Medium-75"/>
     <path d="M 20.953125 65.671875 
L 20.953125 52.828125 
L 30.28125 52.828125 
L 30.28125 44.046875 
L 20.953125 44.046875 
L 20.953125 14.546875 
Q 20.953125 11.53125 22.140625 10.1875 
Q 23.34375 8.84375 26.421875 8.84375 
Q 28.46875 8.84375 30.5625 9.328125 
L 30.5625 0.140625 
Q 26.515625 -0.984375 22.75 -0.984375 
Q 9.078125 -0.984375 9.078125 14.109375 
L 9.078125 44.046875 
L 0.390625 44.046875 
L 0.390625 52.828125 
L 9.078125 52.828125 
L 9.078125 65.671875 
z
" id="Roboto-Medium-74"/>
     <path d="M 29.34375 -0.984375 
Q 18.0625 -0.984375 11.046875 6.125 
Q 4.046875 13.234375 4.046875 25.046875 
L 4.046875 26.515625 
Q 4.046875 34.421875 7.09375 40.640625 
Q 10.15625 46.875 15.671875 50.34375 
Q 21.1875 53.8125 27.984375 53.8125 
Q 38.765625 53.8125 44.640625 46.921875 
Q 50.53125 40.046875 50.53125 27.4375 
L 50.53125 22.65625 
L 16.015625 22.65625 
Q 16.546875 16.109375 20.375 12.296875 
Q 24.21875 8.5 30.03125 8.5 
Q 38.1875 8.5 43.3125 15.09375 
L 49.703125 8.984375 
Q 46.53125 4.25 41.234375 1.625 
Q 35.9375 -0.984375 29.34375 -0.984375 
z
M 27.9375 44.28125 
Q 23.046875 44.28125 20.046875 40.859375 
Q 17.046875 37.453125 16.21875 31.34375 
L 38.8125 31.34375 
L 38.8125 32.234375 
Q 38.421875 38.1875 35.640625 41.234375 
Q 32.859375 44.28125 27.9375 44.28125 
z
" id="Roboto-Medium-65"/>
     <path id="Roboto-Medium-20"/>
     <path d="M 18.703125 0 
L 6.84375 0 
L 6.84375 75 
L 18.703125 75 
z
" id="Roboto-Medium-6c"/>
     <path d="M 23.25 22.65625 
L 17.96875 17.234375 
L 17.96875 0 
L 6.109375 0 
L 6.109375 75 
L 17.96875 75 
L 17.96875 31.734375 
L 21.6875 36.375 
L 36.28125 52.828125 
L 50.53125 52.828125 
L 30.90625 30.8125 
L 52.640625 0 
L 38.921875 0 
z
" id="Roboto-Medium-6b"/>
     <path d="M 52.34375 25.875 
Q 52.34375 13.625 46.78125 6.3125 
Q 41.21875 -0.984375 31.84375 -0.984375 
Q 23.140625 -0.984375 17.921875 4.734375 
L 17.921875 -20.3125 
L 6.0625 -20.3125 
L 6.0625 52.828125 
L 17 52.828125 
L 17.484375 47.46875 
Q 22.703125 53.8125 31.6875 53.8125 
Q 41.359375 53.8125 46.84375 46.609375 
Q 52.34375 39.40625 52.34375 26.609375 
z
M 40.53125 26.90625 
Q 40.53125 34.8125 37.375 39.453125 
Q 34.234375 44.09375 28.375 44.09375 
Q 21.09375 44.09375 17.921875 38.09375 
L 17.921875 14.65625 
Q 21.140625 8.5 28.46875 8.5 
Q 34.125 8.5 37.328125 13.0625 
Q 40.53125 17.625 40.53125 26.90625 
z
" id="Roboto-Medium-70"/>
     <path d="M 18.703125 0 
L 6.84375 0 
L 6.84375 52.828125 
L 18.703125 52.828125 
z
M 6.109375 66.546875 
Q 6.109375 69.28125 7.84375 71.09375 
Q 9.578125 72.90625 12.796875 72.90625 
Q 16.015625 72.90625 17.765625 71.09375 
Q 19.53125 69.28125 19.53125 66.546875 
Q 19.53125 63.875 17.765625 62.078125 
Q 16.015625 60.296875 12.796875 60.296875 
Q 9.578125 60.296875 7.84375 62.078125 
Q 6.109375 63.875 6.109375 66.546875 
z
" id="Roboto-Medium-69"/>
     <path d="M 17.234375 52.828125 
L 17.578125 47.3125 
Q 23.140625 53.8125 32.8125 53.8125 
Q 43.40625 53.8125 47.3125 45.703125 
Q 53.078125 53.8125 63.53125 53.8125 
Q 72.265625 53.8125 76.53125 48.96875 
Q 80.8125 44.140625 80.90625 34.71875 
L 80.90625 0 
L 69.046875 0 
L 69.046875 34.375 
Q 69.046875 39.40625 66.84375 41.75 
Q 64.65625 44.09375 59.578125 44.09375 
Q 55.515625 44.09375 52.953125 41.921875 
Q 50.390625 39.75 49.359375 36.234375 
L 49.421875 0 
L 37.546875 0 
L 37.546875 34.765625 
Q 37.3125 44.09375 28.03125 44.09375 
Q 20.90625 44.09375 17.921875 38.28125 
L 17.921875 0 
L 6.0625 0 
L 6.0625 52.828125 
z
" id="Roboto-Medium-6d"/>
     <path d="M 10.25 0 
L 10.25 44.046875 
L 2.203125 44.046875 
L 2.203125 52.828125 
L 10.25 52.828125 
L 10.25 57.671875 
Q 10.25 66.453125 15.125 71.234375 
Q 20.015625 76.03125 28.8125 76.03125 
Q 31.9375 76.03125 35.453125 75.140625 
L 35.15625 65.875 
Q 33.203125 66.265625 30.609375 66.265625 
Q 22.125 66.265625 22.125 57.515625 
L 22.125 52.828125 
L 32.859375 52.828125 
L 32.859375 44.046875 
L 22.125 44.046875 
L 22.125 0 
z
" id="Roboto-Medium-66"/>
     <path d="M 45.453125 25.34375 
L 54.296875 25.34375 
L 54.296875 15.828125 
L 45.453125 15.828125 
L 45.453125 0 
L 33.59375 0 
L 33.59375 15.828125 
L 2.875 15.828125 
L 2.546875 23.046875 
L 33.203125 71.09375 
L 45.453125 71.09375 
z
M 14.984375 25.34375 
L 33.59375 25.34375 
L 33.59375 55.03125 
L 32.71875 53.46875 
z
" id="Roboto-Medium-34"/>
     <path d="M 51.65625 29.9375 
Q 51.65625 14.59375 45.921875 6.796875 
Q 40.1875 -0.984375 28.46875 -0.984375 
Q 16.9375 -0.984375 11.109375 6.609375 
Q 5.28125 14.203125 5.125 29.109375 
L 5.125 41.40625 
Q 5.125 56.734375 10.859375 64.40625 
Q 16.609375 72.078125 28.375 72.078125 
Q 40.046875 72.078125 45.78125 64.59375 
Q 51.515625 57.125 51.65625 42.234375 
z
M 39.796875 43.21875 
Q 39.796875 53.21875 37.0625 57.875 
Q 34.328125 62.546875 28.375 62.546875 
Q 22.5625 62.546875 19.828125 58.125 
Q 17.09375 53.71875 16.9375 44.34375 
L 16.9375 28.21875 
Q 16.9375 18.265625 19.71875 13.375 
Q 22.515625 8.5 28.46875 8.5 
Q 34.1875 8.5 36.921875 13.015625 
Q 39.65625 17.53125 39.796875 27.15625 
z
" id="Roboto-Medium-30"/>
     <path d="M 7.765625 -16.015625 
L 1.375 -12.203125 
Q 4.203125 -7.765625 5.25 -4.46875 
Q 6.296875 -1.171875 6.34375 2.25 
L 6.34375 11.46875 
L 17.046875 11.46875 
L 17 2.9375 
Q 16.9375 -2.25 14.375 -7.4375 
Q 11.8125 -12.640625 7.765625 -16.015625 
z
" id="Roboto-Medium-2c"/>
     <path d="M 35.6875 14.359375 
Q 35.6875 17.53125 33.078125 19.1875 
Q 30.46875 20.84375 24.40625 22.109375 
Q 18.359375 23.390625 14.3125 25.34375 
Q 5.421875 29.640625 5.421875 37.796875 
Q 5.421875 44.625 11.171875 49.21875 
Q 16.9375 53.8125 25.828125 53.8125 
Q 35.296875 53.8125 41.125 49.125 
Q 46.96875 44.4375 46.96875 36.96875 
L 35.109375 36.96875 
Q 35.109375 40.375 32.5625 42.640625 
Q 30.03125 44.921875 25.828125 44.921875 
Q 21.921875 44.921875 19.453125 43.109375 
Q 17 41.3125 17 38.28125 
Q 17 35.546875 19.28125 34.03125 
Q 21.578125 32.515625 28.5625 30.96875 
Q 35.546875 29.4375 39.515625 27.3125 
Q 43.5 25.203125 45.421875 22.21875 
Q 47.359375 19.234375 47.359375 14.984375 
Q 47.359375 7.859375 41.453125 3.4375 
Q 35.546875 -0.984375 25.984375 -0.984375 
Q 19.484375 -0.984375 14.40625 1.359375 
Q 9.328125 3.71875 6.484375 7.8125 
Q 3.65625 11.921875 3.65625 16.65625 
L 15.1875 16.65625 
Q 15.4375 12.453125 18.359375 10.171875 
Q 21.296875 7.90625 26.125 7.90625 
Q 30.8125 7.90625 33.25 9.6875 
Q 35.6875 11.46875 35.6875 14.359375 
z
" id="Roboto-Medium-73"/>
    </defs>
    <g transform="translate(135.78125 16.32375)scale(0.12 -0.12)">
     <use xlink:href="#Roboto-Medium-72"/>
     <use x="35.15625" xlink:href="#Roboto-Medium-6f"/>
     <use x="92.089844" xlink:href="#Roboto-Medium-75"/>
     <use x="147.65625" xlink:href="#Roboto-Medium-74"/>
     <use x="180.908203" xlink:href="#Roboto-Medium-65"/>
     <use x="234.570312" xlink:href="#Roboto-Medium-20"/>
     <use x="259.472656" xlink:href="#Roboto-Medium-6c"/>
     <use x="285.009766" xlink:href="#Roboto-Medium-6f"/>
     <use x="341.943359" xlink:href="#Roboto-Medium-6f"/>
     <use x="398.876953" xlink:href="#Roboto-Medium-6b"/>
     <use x="451.074219" xlink:href="#Roboto-Medium-75"/>
     <use x="506.640625" xlink:href="#Roboto-Medium-70"/>
     <use x="562.939453" xlink:href="#Roboto-Medium-20"/>
     <use x="587.841797" xlink:href="#Roboto-Medium-74"/>
     <use x="621.09375" xlink:href="#Roboto-Medium-69"/>
     <use x="646.630859" xlink:href="#Roboto-Medium-6d"/>
     <use x="733.642578" xlink:href="#Roboto-Medium-65"/>
     <use x="787.304688" xlink:href="#Roboto-Medium-20"/>
     <use x="812.207031" xlink:href="#Roboto-Medium-66"/>
     <use x="847.65625" xlink:href="#Roboto-Medium-6f"/>
     <use x="904.589844" xlink:href="#Roboto-Medium-72"/>
     <use x="939.746094" xlink:href="#Roboto-Medium-20"/>
     <use x="964.648438" xlink:href="#Roboto-Medium-34"/>
     <use x="1021.484375" xlink:href="#Roboto-Medium-30"/>
     <use x="1078.320312" xlink:href="#Roboto-Medium-2c"/>
     <use x="1100.292969" xlink:href="#Roboto-Medium-30"/>
     <use x="1157.128906" xlink:href="#Roboto-Medium-30"/>
     <use x="1213.964844" xlink:href="#Roboto-Medium-30"/>
     <use x="1270.800781" xlink:href="#Roboto-Medium-20"/>
     <use x="1295.703125" xlink:href="#Roboto-Medium-72"/>
     <use x="1330.859375" xlink:href="#Roboto-Medium-6f"/>
     <use x="1387.792969" xlink:href="#Roboto-Medium-75"/>
     <use x="1443.359375" xlink:href="#Roboto-Medium-74"/>
     <use x="1476.611328" xlink:href="#Roboto-Medium-65"/>
     <use x="1530.273438" xlink:href="#Roboto-Medium-73"/>
    </g>
   </g>
   <g id="legend_1">
    <g id="patch_7">
     <path d="M 312.829062 74.753437 
L 411.616562 74.753437 
Q 413.616562 74.753437 413.616562 72.753437 
L 413.616562 29.32375 
Q 413.616562 27.32375 411.616562 27.32375 
L 312.829062 27.32375 
Q 310.829062 27.32375 310.829062 29.32375 
L 310.829062 72.753437 
Q 310.829062 74.753437 312.829062 74.753437 
z
" style="fill:#ffffff;opacity:0.8;stroke:#cccccc;stroke-linejoin:miter;stroke-width:0.5;"/>
    </g>
    <g id="line2d_54">
     <path d="M 314.829062 35.32375 
L 334.829062 35.32375 
" style="fill:none;stroke:#0000ff;"/>
    </g>
    <g id="line2d_55">
     <g>
      <use style="fill:#0000ff;stroke:#0000ff;" x="324.829062" xlink:href="#me47c15566d" y="35.32375"/>
     </g>
    </g>
    <g id="text_27">
     <!-- from full view -->
     <defs>
      <path d="M 11.8125 0 
L 11.8125 48.046875 
L 3.078125 48.046875 
L 3.078125 52.828125 
L 11.8125 52.828125 
L 11.8125 59.234375 
Q 11.8125 67.328125 15.9375 71.671875 
Q 20.0625 76.03125 27.4375 76.03125 
Q 30.765625 76.03125 33.640625 75.203125 
L 33.203125 70.3125 
Q 30.765625 70.90625 27.875 70.90625 
Q 23.046875 70.90625 20.359375 67.890625 
Q 17.671875 64.890625 17.671875 59.375 
L 17.671875 52.828125 
L 30.28125 52.828125 
L 30.28125 48.046875 
L 17.671875 48.046875 
L 17.671875 0 
z
" id="Roboto-Light-66"/>
      <path d="M 32.03125 47.859375 
Q 30.171875 48.1875 28.078125 48.1875 
Q 22.609375 48.1875 18.828125 45.140625 
Q 15.046875 42.09375 13.421875 36.28125 
L 13.421875 0 
L 7.625 0 
L 7.625 52.828125 
L 13.328125 52.828125 
L 13.421875 44.4375 
Q 18.0625 53.8125 28.328125 53.8125 
Q 30.765625 53.8125 32.171875 53.171875 
z
" id="Roboto-Light-72"/>
      <path d="M 4.390625 27.203125 
Q 4.390625 34.8125 7.34375 40.90625 
Q 10.296875 47.015625 15.6875 50.40625 
Q 21.09375 53.8125 27.9375 53.8125 
Q 38.484375 53.8125 45.015625 46.40625 
Q 51.5625 39.015625 51.5625 26.8125 
L 51.5625 25.59375 
Q 51.5625 17.921875 48.609375 11.796875 
Q 45.65625 5.671875 40.28125 2.34375 
Q 34.90625 -0.984375 28.03125 -0.984375 
Q 17.53125 -0.984375 10.953125 6.40625 
Q 4.390625 13.8125 4.390625 26.03125 
z
M 10.25 25.59375 
Q 10.25 16.109375 15.15625 10.03125 
Q 20.0625 3.953125 28.03125 3.953125 
Q 35.9375 3.953125 40.84375 10.03125 
Q 45.75 16.109375 45.75 26.078125 
L 45.75 27.203125 
Q 45.75 33.25 43.5 38.28125 
Q 41.265625 43.3125 37.203125 46.0625 
Q 33.15625 48.828125 27.9375 48.828125 
Q 20.125 48.828125 15.1875 42.703125 
Q 10.25 36.578125 10.25 26.65625 
z
" id="Roboto-Light-6f"/>
      <path d="M 12.9375 52.828125 
L 13.140625 44.234375 
Q 16.0625 49.03125 20.453125 51.421875 
Q 24.859375 53.8125 30.21875 53.8125 
Q 42.71875 53.8125 46.09375 43.5625 
Q 48.921875 48.484375 53.65625 51.140625 
Q 58.40625 53.8125 64.109375 53.8125 
Q 81.109375 53.8125 81.453125 35.25 
L 81.453125 0 
L 75.59375 0 
L 75.59375 34.8125 
Q 75.53125 41.890625 72.53125 45.3125 
Q 69.53125 48.734375 62.75 48.734375 
Q 56.453125 48.640625 52.09375 44.65625 
Q 47.75 40.671875 47.265625 34.96875 
L 47.265625 0 
L 41.40625 0 
L 41.40625 35.25 
Q 41.359375 42.046875 38.203125 45.390625 
Q 35.0625 48.734375 28.515625 48.734375 
Q 23 48.734375 19.046875 45.578125 
Q 15.09375 42.4375 13.1875 36.234375 
L 13.1875 0 
L 7.328125 0 
L 7.328125 52.828125 
z
" id="Roboto-Light-6d"/>
      <path d="M 41.609375 6.6875 
Q 36.328125 -0.984375 24.75 -0.984375 
Q 16.3125 -0.984375 11.90625 3.921875 
Q 7.515625 8.84375 7.421875 18.453125 
L 7.421875 52.828125 
L 13.234375 52.828125 
L 13.234375 19.1875 
Q 13.234375 4.109375 25.4375 4.109375 
Q 38.140625 4.109375 41.5 14.59375 
L 41.5 52.828125 
L 47.359375 52.828125 
L 47.359375 0 
L 41.703125 0 
z
" id="Roboto-Light-75"/>
      <path d="M 14.15625 0 
L 8.296875 0 
L 8.296875 75 
L 14.15625 75 
z
" id="Roboto-Light-6c"/>
      <path d="M 24.078125 8.0625 
L 40.140625 52.828125 
L 46.140625 52.828125 
L 26.421875 0 
L 21.6875 0 
L 1.859375 52.828125 
L 7.859375 52.828125 
z
" id="Roboto-Light-76"/>
      <path d="M 14.15625 0 
L 8.296875 0 
L 8.296875 52.828125 
L 14.15625 52.828125 
z
M 7.28125 68.109375 
Q 7.28125 69.78125 8.34375 70.921875 
Q 9.421875 72.078125 11.28125 72.078125 
Q 13.140625 72.078125 14.234375 70.921875 
Q 15.328125 69.78125 15.328125 68.109375 
Q 15.328125 66.453125 14.234375 65.328125 
Q 13.140625 64.203125 11.28125 64.203125 
Q 9.421875 64.203125 8.34375 65.328125 
Q 7.28125 66.453125 7.28125 68.109375 
z
" id="Roboto-Light-69"/>
      <path d="M 28.078125 -0.984375 
Q 21.34375 -0.984375 15.890625 2.34375 
Q 10.453125 5.671875 7.421875 11.59375 
Q 4.390625 17.53125 4.390625 24.90625 
L 4.390625 27 
Q 4.390625 34.625 7.34375 40.71875 
Q 10.296875 46.828125 15.5625 50.3125 
Q 20.84375 53.8125 27 53.8125 
Q 36.625 53.8125 42.265625 47.234375 
Q 47.90625 40.671875 47.90625 29.296875 
L 47.90625 26.03125 
L 10.203125 26.03125 
L 10.203125 24.90625 
Q 10.203125 15.921875 15.359375 9.9375 
Q 20.515625 3.953125 28.328125 3.953125 
Q 33.015625 3.953125 36.59375 5.65625 
Q 40.1875 7.375 43.109375 11.140625 
L 46.78125 8.34375 
Q 40.328125 -0.984375 28.078125 -0.984375 
z
M 27 48.828125 
Q 20.40625 48.828125 15.890625 43.984375 
Q 11.375 39.15625 10.40625 31 
L 42.09375 31 
L 42.09375 31.640625 
Q 41.84375 39.265625 37.734375 44.046875 
Q 33.640625 48.828125 27 48.828125 
z
" id="Roboto-Light-65"/>
      <path d="M 20.265625 12.15625 
L 21.140625 7.625 
L 22.3125 12.40625 
L 35.015625 52.828125 
L 39.984375 52.828125 
L 52.546875 12.75 
L 53.90625 7.171875 
L 55.03125 12.3125 
L 65.875 52.828125 
L 71.921875 52.828125 
L 56.546875 0 
L 51.5625 0 
L 37.984375 41.890625 
L 37.359375 44.78125 
L 36.71875 41.84375 
L 23.390625 0 
L 18.40625 0 
L 3.078125 52.828125 
L 9.078125 52.828125 
z
" id="Roboto-Light-77"/>
     </defs>
     <g transform="translate(342.829062 38.82375)scale(0.1 -0.1)">
      <use xlink:href="#Roboto-Light-66"/>
      <use x="33.105469" xlink:href="#Roboto-Light-72"/>
      <use x="66.748047" xlink:href="#Roboto-Light-6f"/>
      <use x="122.753906" xlink:href="#Roboto-Light-6d"/>
      <use x="211.376953" xlink:href="#Roboto-Light-20"/>
      <use x="235.693359" xlink:href="#Roboto-Light-66"/>
      <use x="268.798828" xlink:href="#Roboto-Light-75"/>
      <use x="323.730469" xlink:href="#Roboto-Light-6c"/>
      <use x="346.142578" xlink:href="#Roboto-Light-6c"/>
      <use x="368.554688" xlink:href="#Roboto-Light-20"/>
      <use x="392.871094" xlink:href="#Roboto-Light-76"/>
      <use x="440.966797" xlink:href="#Roboto-Light-69"/>
      <use x="463.378906" xlink:href="#Roboto-Light-65"/>
      <use x="515.039062" xlink:href="#Roboto-Light-77"/>
     </g>
    </g>
    <g id="line2d_56">
     <path d="M 314.829062 49.855 
L 334.829062 49.855 
" style="fill:none;stroke:#f14432;"/>
    </g>
    <g id="line2d_57">
     <g>
      <use style="fill:#f14432;stroke:#f14432;" x="324.829062" xlink:href="#m8497190527" y="49.855"/>
     </g>
    </g>
    <g id="text_28">
     <!-- /48, density 0.5 -->
     <defs>
      <path d="M 6.78125 -6.109375 
L 1.46875 -6.109375 
L 31.15625 71.09375 
L 36.421875 71.09375 
z
" id="Roboto-Light-2f"/>
      <path d="M 6.390625 -13.28125 
L 2.9375 -10.75 
Q 7.375 -4.78125 7.515625 1.609375 
L 7.515625 9.1875 
L 13.234375 9.1875 
L 13.234375 3.078125 
Q 13.234375 -7.078125 6.390625 -13.28125 
z
" id="Roboto-Light-2c"/>
      <path d="M 5.28125 26.90625 
Q 5.28125 39.203125 10.765625 46.5 
Q 16.265625 53.8125 25.6875 53.8125 
Q 36.375 53.8125 42 45.359375 
L 42 75 
L 47.796875 75 
L 47.796875 0 
L 42.328125 0 
L 42.09375 7.03125 
Q 36.46875 -0.984375 25.59375 -0.984375 
Q 16.453125 -0.984375 10.859375 6.359375 
Q 5.28125 13.71875 5.28125 26.21875 
z
M 11.1875 25.875 
Q 11.1875 15.765625 15.234375 9.9375 
Q 19.28125 4.109375 26.65625 4.109375 
Q 37.453125 4.109375 42 13.625 
L 42 38.421875 
Q 37.453125 48.734375 26.765625 48.734375 
Q 19.390625 48.734375 15.28125 42.9375 
Q 11.1875 37.15625 11.1875 25.875 
z
" id="Roboto-Light-64"/>
      <path d="M 13.1875 52.828125 
L 13.375 43.796875 
Q 16.359375 48.6875 20.796875 51.25 
Q 25.25 53.8125 30.609375 53.8125 
Q 39.109375 53.8125 43.25 49.015625 
Q 47.40625 44.234375 47.46875 34.671875 
L 47.46875 0 
L 41.65625 0 
L 41.65625 34.71875 
Q 41.609375 41.796875 38.640625 45.265625 
Q 35.6875 48.734375 29.203125 48.734375 
Q 23.78125 48.734375 19.609375 45.328125 
Q 15.4375 41.9375 13.421875 36.1875 
L 13.421875 0 
L 7.625 0 
L 7.625 52.828125 
z
" id="Roboto-Light-6e"/>
      <path d="M 16.703125 66.359375 
L 16.703125 52.828125 
L 27.640625 52.828125 
L 27.640625 48.046875 
L 16.703125 48.046875 
L 16.703125 12.84375 
Q 16.703125 8.453125 18.28125 6.296875 
Q 19.875 4.15625 23.578125 4.15625 
Q 25.046875 4.15625 28.328125 4.640625 
L 28.5625 -0.140625 
Q 26.265625 -0.984375 22.3125 -0.984375 
Q 16.3125 -0.984375 13.578125 2.5 
Q 10.84375 6 10.84375 12.796875 
L 10.84375 48.046875 
L 1.125 48.046875 
L 1.125 52.828125 
L 10.84375 52.828125 
L 10.84375 66.359375 
z
" id="Roboto-Light-74"/>
      <path d="M 24.359375 8.40625 
L 39.796875 52.828125 
L 46.09375 52.828125 
L 23.53125 -8.984375 
L 22.359375 -11.71875 
Q 18.015625 -21.34375 8.9375 -21.34375 
Q 6.84375 -21.34375 4.4375 -20.65625 
L 4.390625 -15.828125 
L 7.421875 -16.109375 
Q 11.71875 -16.109375 14.375 -13.984375 
Q 17.046875 -11.859375 18.890625 -6.6875 
L 21.484375 0.4375 
L 1.5625 52.828125 
L 7.953125 52.828125 
z
" id="Roboto-Light-79"/>
     </defs>
     <g transform="translate(342.829062 53.355)scale(0.1 -0.1)">
      <use xlink:href="#Roboto-Light-2f"/>
      <use x="39.697266" xlink:href="#Roboto-Light-34"/>
      <use x="95.117188" xlink:href="#Roboto-Light-38"/>
      <use x="150.537109" xlink:href="#Roboto-Light-2c"/>
      <use x="169.677734" xlink:href="#Roboto-Light-20"/>
      <use x="193.994141" xlink:href="#Roboto-Light-64"/>
      <use x="249.560547" xlink:href="#Roboto-Light-65"/>
      <use x="301.220703" xlink:href="#Roboto-Light-6e"/>
      <use x="356.152344" xlink:href="#Roboto-Light-73"/>
      <use x="406.787109" xlink:href="#Roboto-Light-69"/>
      <use x="429.199219" xlink:href="#Roboto-Light-74"/>
      <use x="461.328125" xlink:href="#Roboto-Light-79"/>
      <use x="508.837891" xlink:href="#Roboto-Light-20"/>
      <use x="533.154297" xlink:href="#Roboto-Light-30"/>
      <use x="588.574219" xlink:href="#Roboto-Light-2e"/>
      <use x="612.451172" xlink:href="#Roboto-Light-35"/>
     </g>
    </g>
    <g id="line2d_58">
     <path d="M 314.829062 64.958125 
L 334.829062 64.958125 
" style="fill:none;stroke:#008000;"/>
    </g>
    <g id="line2d_59">
     <g>
      <use style="fill:#008000;stroke:#008000;" x="324.829062" xlink:href="#mf326a927b3" y="64.958125"/>
     </g>
    </g>
    <g id="text_29">
     <!-- /128 (random) -->
     <defs>
      <path d="M 6.84375 28.71875 
Q 6.84375 39.359375 9.578125 49.390625 
Q 12.3125 59.421875 17.578125 67.75 
Q 22.859375 76.078125 28.90625 79.6875 
L 30.328125 75.734375 
Q 27.09375 73.4375 23.921875 69.046875 
Q 20.75 64.65625 18.25 58.59375 
Q 15.765625 52.546875 14.234375 45 
Q 12.703125 37.453125 12.703125 27.875 
Q 12.703125 17.671875 15.015625 8.25 
Q 17.328125 -1.171875 21.375 -8.375 
Q 25.4375 -15.578125 30.328125 -19.1875 
L 28.90625 -22.953125 
Q 22.703125 -19.234375 17.421875 -10.953125 
Q 12.15625 -2.6875 9.5 7.25 
Q 6.84375 17.1875 6.84375 28.71875 
z
" id="Roboto-Light-28"/>
      <path d="M 40.96875 0 
Q 40.09375 2.484375 39.84375 7.375 
Q 36.765625 3.375 32 1.1875 
Q 27.25 -0.984375 21.921875 -0.984375 
Q 14.3125 -0.984375 9.59375 3.265625 
Q 4.890625 7.515625 4.890625 14.015625 
Q 4.890625 21.734375 11.296875 26.21875 
Q 17.71875 30.71875 29.203125 30.71875 
L 39.796875 30.71875 
L 39.796875 36.71875 
Q 39.796875 42.390625 36.296875 45.625 
Q 32.8125 48.875 26.125 48.875 
Q 20.015625 48.875 16.015625 45.75 
Q 12.015625 42.625 12.015625 38.234375 
L 6.15625 38.28125 
Q 6.15625 44.578125 12.015625 49.1875 
Q 17.875 53.8125 26.421875 53.8125 
Q 35.25 53.8125 40.34375 49.390625 
Q 45.453125 44.96875 45.609375 37.0625 
L 45.609375 12.0625 
Q 45.609375 4.390625 47.21875 0.59375 
L 47.21875 0 
z
M 22.609375 4.203125 
Q 28.46875 4.203125 33.078125 7.03125 
Q 37.703125 9.859375 39.796875 14.59375 
L 39.796875 26.21875 
L 29.34375 26.21875 
Q 20.609375 26.125 15.671875 23.015625 
Q 10.75 19.921875 10.75 14.5 
Q 10.75 10.0625 14.03125 7.125 
Q 17.328125 4.203125 22.609375 4.203125 
z
" id="Roboto-Light-61"/>
      <path d="M 25.09375 27.984375 
Q 25.09375 17.234375 22.4375 7.296875 
Q 19.78125 -2.640625 14.546875 -10.890625 
Q 9.328125 -19.140625 3.03125 -22.953125 
L 1.609375 -19.1875 
Q 6.390625 -15.765625 10.46875 -8.59375 
Q 14.546875 -1.421875 16.890625 8.125 
Q 19.234375 17.671875 19.234375 28.859375 
Q 19.234375 38.96875 16.890625 48.359375 
Q 14.546875 57.765625 10.421875 65.15625 
Q 6.296875 72.5625 1.609375 75.921875 
L 3.03125 79.6875 
Q 9.1875 75.921875 14.40625 67.671875 
Q 19.625 59.421875 22.359375 49.359375 
Q 25.09375 39.3125 25.09375 27.984375 
z
" id="Roboto-Light-29"/>
     </defs>
     <g transform="translate(342.829062 68.458125)scale(0.1 -0.1)">
      <use xlink:href="#Roboto-Light-2f"/>
      <use x="39.697266" xlink:href="#Roboto-Light-31"/>
      <use x="95.117188" xlink:href="#Roboto-Light-32"/>
      <use x="150.537109" xlink:href="#Roboto-Light-38"/>
      <use x="205.957031" xlink:href="#Roboto-Light-20"/>
      <use x="230.273438" xlink:href="#Roboto-Light-28"/>
      <use x="262.158203" xlink:href="#Roboto-Light-72"/>
      <use x="295.800781" xlink:href="#Roboto-Light-61"/>
      <use x="349.365234" xlink:href="#Roboto-Light-6e"/>
      <use x="404.296875" xlink:href="#Roboto-Light-64"/>
      <use x="459.863281" xlink:href="#Roboto-Light-6f"/>
      <use x="515.869141" xlink:href="#Roboto-Light-6d"/>
      <use x="604.492188" xlink:href="#Roboto-Light-29"/>
     </g>
    </g>
   </g>
  </g>
 </g>
 <defs>
  <clipPath id="p488b7d6ca5">
   <rect height="227.448" width="375.84" x="42.776563" y="22.32375"/>
  </clipPath>
 </defs>
</svg>
