<?xml version="1.0" encoding="utf-8" standalone="no"?>
<!DOCTYPE svg PUBLIC "-//W3C//DTD SVG 1.1//EN"
  "http://www.w3.org/Graphics/SVG/1.1/DTD/svg11.dtd">
<!-- Created with matplotlib (http://matplotlib.org/) -->
<svg height="300pt" version="1.1" viewBox="0 0 535 300" width="535pt" xmlns="http://www.w3.org/2000/svg" xmlns:xlink="http://www.w3.org/1999/xlink">
 <defs>
  <style type="text/css">
*{stroke-linecap:butt;stroke-linejoin:round;}
  </style>
 </defs>
 <g id="figure_1">
  <g id="patch_1">
   <path d="M 0 300.114583 
L 535.786394 300.114583 
L 535.786394 0 
L 0 0 
z
" style="fill:#ffffff;"/>
  </g>
  <g id="axes_1">
   <g id="patch_2">
    <path d="M 40.315625 249.648 
L 528.586394 249.648 
L 528.586394 22.2 
L 40.315625 22.2 
z
" style="fill:#ffffff;"/>
   </g>
   <g id="matplotlib.axis_1">
    <g id="xtick_1">
     <g id="line2d_1">
      <path clip-path="url(#p07b0e54f9e)" d="M 62.509751 249.648 
L 62.509751 22.2 
" style="fill:none;stroke:#cbcbcb;stroke-width:0.75;"/>
     </g>
     <g id="line2d_2"/>
     <g id="text_1">
      <!-- 2.6.32.71 -->
      <defs>
       <path d="M 51.21875 0 
L 6.6875 0 
L 6.6875 4.5 
L 31.0625 32.125 
Q 37.109375 39.109375 39.453125 43.640625 
Q 41.796875 48.1875 41.796875 52.484375 
Q 41.796875 59.234375 37.84375 63.15625 
Q 33.890625 67.09375 26.953125 67.09375 
Q 19.78125 67.09375 15.359375 62.5 
Q 10.9375 57.90625 10.9375 50.59375 
L 5.125 50.59375 
Q 5.125 56.59375 7.828125 61.515625 
Q 10.546875 66.453125 15.546875 69.265625 
Q 20.5625 72.078125 26.953125 72.078125 
Q 36.71875 72.078125 42.203125 66.9375 
Q 47.703125 61.8125 47.703125 52.984375 
Q 47.703125 48 44.59375 42.09375 
Q 41.5 36.1875 33.6875 27.34375 
L 13.875 4.9375 
L 51.21875 4.9375 
z
" id="Roboto-Light-32"/>
       <path d="M 7.078125 3.515625 
Q 7.078125 5.21875 8.171875 6.421875 
Q 9.28125 7.625 11.234375 7.625 
Q 13.1875 7.625 14.3125 6.421875 
Q 15.4375 5.21875 15.4375 3.515625 
Q 15.4375 1.8125 14.3125 0.703125 
Q 13.1875 -0.390625 11.234375 -0.390625 
Q 9.28125 -0.390625 8.171875 0.703125 
Q 7.078125 1.8125 7.078125 3.515625 
" id="Roboto-Light-2e"/>
       <path d="M 41.15625 71.625 
L 41.15625 66.5 
L 40.484375 66.5 
Q 27.734375 66.5 20.40625 59 
Q 13.09375 51.515625 12.3125 38.1875 
Q 15.234375 42.234375 19.765625 44.453125 
Q 24.3125 46.6875 29.9375 46.6875 
Q 39.3125 46.6875 44.84375 40.203125 
Q 50.390625 33.734375 50.390625 23.296875 
Q 50.390625 16.359375 47.796875 10.78125 
Q 45.21875 5.21875 40.375 2.109375 
Q 35.546875 -0.984375 29.34375 -0.984375 
Q 19.140625 -0.984375 12.734375 6.40625 
Q 6.34375 13.8125 6.34375 25.53125 
L 6.34375 31.390625 
Q 6.34375 50.484375 15.03125 60.953125 
Q 23.734375 71.4375 39.703125 71.625 
z
M 29 41.65625 
Q 23.4375 41.65625 18.625 38.359375 
Q 13.8125 35.0625 12.203125 29.984375 
L 12.203125 25 
Q 12.203125 15.71875 16.96875 9.859375 
Q 21.734375 4 29.34375 4 
Q 36.1875 4 40.40625 9.421875 
Q 44.625 14.84375 44.625 23.09375 
Q 44.625 31.5 40.40625 36.578125 
Q 36.1875 41.65625 29 41.65625 
" id="Roboto-Light-36"/>
       <path d="M 19.671875 38.71875 
L 25.734375 38.71875 
Q 30.765625 38.71875 34.515625 40.5 
Q 38.28125 42.28125 40.25 45.375 
Q 42.234375 48.484375 42.234375 52.546875 
Q 42.234375 59.375 38.375 63.234375 
Q 34.515625 67.09375 27.296875 67.09375 
Q 20.453125 67.09375 16.078125 63.0625 
Q 11.71875 59.03125 11.71875 52.4375 
L 5.859375 52.4375 
Q 5.859375 57.953125 8.640625 62.515625 
Q 11.421875 67.09375 16.359375 69.578125 
Q 21.296875 72.078125 27.296875 72.078125 
Q 36.96875 72.078125 42.53125 66.796875 
Q 48.09375 61.53125 48.09375 52.34375 
Q 48.09375 47.21875 44.84375 42.890625 
Q 41.609375 38.578125 35.9375 36.421875 
Q 42.578125 34.578125 46 30.046875 
Q 49.421875 25.53125 49.421875 19.28125 
Q 49.421875 10.15625 43.453125 4.578125 
Q 37.5 -0.984375 27.546875 -0.984375 
Q 21.1875 -0.984375 15.890625 1.5625 
Q 10.59375 4.109375 7.6875 8.671875 
Q 4.78125 13.234375 4.78125 19.28125 
L 10.640625 19.28125 
Q 10.640625 12.5 15.375 8.21875 
Q 20.125 3.953125 27.546875 3.953125 
Q 35.109375 3.953125 39.328125 7.828125 
Q 43.5625 11.71875 43.5625 19.09375 
Q 43.5625 26.21875 38.984375 29.96875 
Q 34.421875 33.734375 25.53125 33.734375 
L 19.671875 33.734375 
z
" id="Roboto-Light-33"/>
       <path d="M 50.484375 67.71875 
L 20.125 0 
L 14.015625 0 
L 44.1875 66.109375 
L 3.765625 66.109375 
L 3.765625 71.09375 
L 50.484375 71.09375 
z
" id="Roboto-Light-37"/>
       <path d="M 33.890625 0 
L 28.03125 0 
L 28.03125 64.0625 
L 8.6875 56.890625 
L 8.6875 62.359375 
L 32.90625 71.34375 
L 33.890625 71.34375 
z
" id="Roboto-Light-31"/>
      </defs>
      <g transform="translate(40.542824 291.898958)rotate(-60)scale(0.1 -0.1)">
       <use xlink:href="#Roboto-Light-32"/>
       <use x="55.419922" xlink:href="#Roboto-Light-2e"/>
       <use x="79.296875" xlink:href="#Roboto-Light-36"/>
       <use x="134.716797" xlink:href="#Roboto-Light-2e"/>
       <use x="158.59375" xlink:href="#Roboto-Light-33"/>
       <use x="214.013672" xlink:href="#Roboto-Light-32"/>
       <use x="269.433594" xlink:href="#Roboto-Light-2e"/>
       <use x="293.310547" xlink:href="#Roboto-Light-37"/>
       <use x="348.730469" xlink:href="#Roboto-Light-31"/>
      </g>
     </g>
    </g>
    <g id="xtick_2">
     <g id="line2d_3">
      <path clip-path="url(#p07b0e54f9e)" d="M 74.506576 249.648 
L 74.506576 22.2 
" style="fill:none;stroke:#cbcbcb;stroke-width:0.75;"/>
     </g>
     <g id="line2d_4"/>
     <g id="text_2">
      <!-- 2.6.36.4 -->
      <defs>
       <path d="M 42.578125 22.90625 
L 53.65625 22.90625 
L 53.65625 17.96875 
L 42.578125 17.96875 
L 42.578125 0 
L 36.71875 0 
L 36.71875 17.96875 
L 3.265625 17.96875 
L 3.265625 21.296875 
L 36.1875 71.09375 
L 42.578125 71.09375 
z
M 10.453125 22.90625 
L 36.71875 22.90625 
L 36.71875 63.53125 
L 34.125 59.03125 
z
" id="Roboto-Light-34"/>
      </defs>
      <g transform="translate(55.310743 287.099283)rotate(-60)scale(0.1 -0.1)">
       <use xlink:href="#Roboto-Light-32"/>
       <use x="55.419922" xlink:href="#Roboto-Light-2e"/>
       <use x="79.296875" xlink:href="#Roboto-Light-36"/>
       <use x="134.716797" xlink:href="#Roboto-Light-2e"/>
       <use x="158.59375" xlink:href="#Roboto-Light-33"/>
       <use x="214.013672" xlink:href="#Roboto-Light-36"/>
       <use x="269.433594" xlink:href="#Roboto-Light-2e"/>
       <use x="293.310547" xlink:href="#Roboto-Light-34"/>
      </g>
     </g>
    </g>
    <g id="xtick_3">
     <g id="line2d_5">
      <path clip-path="url(#p07b0e54f9e)" d="M 86.5034 249.648 
L 86.5034 22.2 
" style="fill:none;stroke:#cbcbcb;stroke-width:0.75;"/>
     </g>
     <g id="line2d_6"/>
     <g id="text_3">
      <!-- 2.6.37.6 -->
      <g transform="translate(67.307568 287.099283)rotate(-60)scale(0.1 -0.1)">
       <use xlink:href="#Roboto-Light-32"/>
       <use x="55.419922" xlink:href="#Roboto-Light-2e"/>
       <use x="79.296875" xlink:href="#Roboto-Light-36"/>
       <use x="134.716797" xlink:href="#Roboto-Light-2e"/>
       <use x="158.59375" xlink:href="#Roboto-Light-33"/>
       <use x="214.013672" xlink:href="#Roboto-Light-37"/>
       <use x="269.433594" xlink:href="#Roboto-Light-2e"/>
       <use x="293.310547" xlink:href="#Roboto-Light-36"/>
      </g>
     </g>
    </g>
    <g id="xtick_4">
     <g id="line2d_7">
      <path clip-path="url(#p07b0e54f9e)" d="M 98.500225 249.648 
L 98.500225 22.2 
" style="fill:none;stroke:#cbcbcb;stroke-width:0.75;"/>
     </g>
     <g id="line2d_8"/>
     <g id="text_4">
      <!-- 2.6.38.8 -->
      <defs>
       <path d="M 48.578125 52.78125 
Q 48.578125 47.265625 45.359375 42.890625 
Q 42.140625 38.53125 36.859375 36.46875 
Q 43.015625 34.375 46.71875 29.6875 
Q 50.4375 25 50.4375 18.84375 
Q 50.4375 9.71875 44.234375 4.359375 
Q 38.03125 -0.984375 27.828125 -0.984375 
Q 17.53125 -0.984375 11.34375 4.34375 
Q 5.171875 9.671875 5.171875 18.84375 
Q 5.171875 24.90625 8.734375 29.640625 
Q 12.3125 34.375 18.5 36.46875 
Q 13.234375 38.53125 10.109375 42.890625 
Q 6.984375 47.265625 6.984375 52.78125 
Q 6.984375 61.625 12.671875 66.84375 
Q 18.359375 72.078125 27.734375 72.078125 
Q 37.109375 72.078125 42.84375 66.796875 
Q 48.578125 61.53125 48.578125 52.78125 
M 44.578125 18.796875 
Q 44.578125 25.4375 39.84375 29.703125 
Q 35.109375 33.984375 27.734375 33.984375 
Q 20.359375 33.984375 15.671875 29.78125 
Q 10.984375 25.59375 10.984375 18.796875 
Q 10.984375 12.015625 15.515625 7.984375 
Q 20.0625 3.953125 27.828125 3.953125 
Q 35.40625 3.953125 39.984375 7.953125 
Q 44.578125 11.96875 44.578125 18.796875 
M 42.71875 52.828125 
Q 42.71875 58.9375 38.5 63.015625 
Q 34.28125 67.09375 27.734375 67.09375 
Q 21.09375 67.09375 16.96875 63.15625 
Q 12.84375 59.234375 12.84375 52.828125 
Q 12.84375 46.578125 16.96875 42.765625 
Q 21.09375 38.96875 27.78125 38.96875 
Q 34.375 38.96875 38.546875 42.796875 
Q 42.71875 46.625 42.71875 52.828125 
" id="Roboto-Light-38"/>
      </defs>
      <g transform="translate(79.304392 287.099283)rotate(-60)scale(0.1 -0.1)">
       <use xlink:href="#Roboto-Light-32"/>
       <use x="55.419922" xlink:href="#Roboto-Light-2e"/>
       <use x="79.296875" xlink:href="#Roboto-Light-36"/>
       <use x="134.716797" xlink:href="#Roboto-Light-2e"/>
       <use x="158.59375" xlink:href="#Roboto-Light-33"/>
       <use x="214.013672" xlink:href="#Roboto-Light-38"/>
       <use x="269.433594" xlink:href="#Roboto-Light-2e"/>
       <use x="293.310547" xlink:href="#Roboto-Light-38"/>
      </g>
     </g>
    </g>
    <g id="xtick_5">
     <g id="line2d_9">
      <path clip-path="url(#p07b0e54f9e)" d="M 110.49705 249.648 
L 110.49705 22.2 
" style="fill:none;stroke:#000000;stroke-width:0.75;"/>
     </g>
     <g id="line2d_10"/>
     <g id="text_5">
      <!-- 2.6.39.4 -->
      <defs>
       <path d="M 53.5625 0 
L 4.828125 0 
L 4.828125 9.671875 
L 27.828125 34.1875 
Q 32.5625 39.359375 34.828125 43.21875 
Q 37.109375 47.078125 37.109375 50.53125 
Q 37.109375 55.28125 34.71875 57.984375 
Q 32.328125 60.6875 27.875 60.6875 
Q 23.09375 60.6875 20.328125 57.390625 
Q 17.578125 54.109375 17.578125 48.734375 
L 3.421875 48.734375 
Q 3.421875 55.21875 6.515625 60.59375 
Q 9.625 65.96875 15.28125 69.015625 
Q 20.953125 72.078125 28.125 72.078125 
Q 39.109375 72.078125 45.1875 66.796875 
Q 51.265625 61.53125 51.265625 51.90625 
Q 51.265625 46.625 48.53125 41.15625 
Q 45.796875 35.6875 39.15625 28.421875 
L 23 11.375 
L 53.5625 11.375 
z
" id="Roboto-Bold-32"/>
       <path d="M 6.15625 6.9375 
Q 6.15625 10.296875 8.421875 12.390625 
Q 10.6875 14.5 14.109375 14.5 
Q 17.578125 14.5 19.84375 12.390625 
Q 22.125 10.296875 22.125 6.9375 
Q 22.125 3.609375 19.875 1.53125 
Q 17.625 -0.53125 14.109375 -0.53125 
Q 10.640625 -0.53125 8.390625 1.53125 
Q 6.15625 3.609375 6.15625 6.9375 
" id="Roboto-Bold-2e"/>
       <path d="M 43.109375 71.828125 
L 43.109375 60.203125 
L 41.75 60.203125 
Q 32.171875 60.0625 26.34375 55.21875 
Q 20.515625 50.390625 19.34375 41.796875 
Q 25 47.5625 33.640625 47.5625 
Q 42.921875 47.5625 48.390625 40.921875 
Q 53.859375 34.28125 53.859375 23.4375 
Q 53.859375 16.5 50.859375 10.890625 
Q 47.859375 5.28125 42.359375 2.140625 
Q 36.859375 -0.984375 29.9375 -0.984375 
Q 18.703125 -0.984375 11.796875 6.828125 
Q 4.890625 14.65625 4.890625 27.6875 
L 4.890625 32.765625 
Q 4.890625 44.34375 9.25 53.203125 
Q 13.625 62.0625 21.796875 66.921875 
Q 29.984375 71.78125 40.765625 71.828125 
z
M 29.34375 36.234375 
Q 25.921875 36.234375 23.140625 34.453125 
Q 20.359375 32.671875 19.046875 29.734375 
L 19.046875 25.4375 
Q 19.046875 18.359375 21.828125 14.375 
Q 24.609375 10.40625 29.640625 10.40625 
Q 34.1875 10.40625 36.984375 13.984375 
Q 39.796875 17.578125 39.796875 23.296875 
Q 39.796875 29.109375 36.953125 32.671875 
Q 34.125 36.234375 29.34375 36.234375 
" id="Roboto-Bold-36"/>
       <path d="M 19.1875 41.796875 
L 26.703125 41.796875 
Q 32.078125 41.796875 34.65625 44.484375 
Q 37.25 47.171875 37.25 51.609375 
Q 37.25 55.90625 34.6875 58.296875 
Q 32.125 60.6875 27.640625 60.6875 
Q 23.578125 60.6875 20.84375 58.46875 
Q 18.109375 56.25 18.109375 52.6875 
L 4 52.6875 
Q 4 58.25 7 62.671875 
Q 10.015625 67.09375 15.40625 69.578125 
Q 20.796875 72.078125 27.296875 72.078125 
Q 38.578125 72.078125 44.96875 66.671875 
Q 51.375 61.28125 51.375 51.8125 
Q 51.375 46.921875 48.390625 42.8125 
Q 45.40625 38.71875 40.578125 36.53125 
Q 46.578125 34.375 49.53125 30.078125 
Q 52.484375 25.78125 52.484375 19.921875 
Q 52.484375 10.453125 45.578125 4.734375 
Q 38.671875 -0.984375 27.296875 -0.984375 
Q 16.65625 -0.984375 9.890625 4.625 
Q 3.125 10.25 3.125 19.484375 
L 17.234375 19.484375 
Q 17.234375 15.484375 20.234375 12.9375 
Q 23.25 10.40625 27.640625 10.40625 
Q 32.671875 10.40625 35.515625 13.0625 
Q 38.375 15.71875 38.375 20.125 
Q 38.375 30.765625 26.65625 30.765625 
L 19.1875 30.765625 
z
" id="Roboto-Bold-33"/>
       <path d="M 37.84375 28.421875 
Q 32.328125 23 24.953125 23 
Q 15.53125 23 9.859375 29.46875 
Q 4.203125 35.9375 4.203125 46.921875 
Q 4.203125 53.90625 7.25 59.734375 
Q 10.296875 65.578125 15.765625 68.828125 
Q 21.234375 72.078125 28.078125 72.078125 
Q 35.109375 72.078125 40.578125 68.5625 
Q 46.046875 65.046875 49.0625 58.453125 
Q 52.09375 51.859375 52.15625 43.359375 
L 52.15625 38.140625 
Q 52.15625 20.359375 43.3125 10.203125 
Q 34.46875 0.046875 18.265625 -0.640625 
L 14.796875 -0.6875 
L 14.796875 11.078125 
L 17.921875 11.140625 
Q 36.328125 11.96875 37.84375 28.421875 
M 28.421875 33.796875 
Q 31.84375 33.796875 34.296875 35.546875 
Q 36.765625 37.3125 38.03125 39.796875 
L 38.03125 45.609375 
Q 38.03125 52.78125 35.296875 56.734375 
Q 32.5625 60.6875 27.984375 60.6875 
Q 23.734375 60.6875 21 56.8125 
Q 18.265625 52.9375 18.265625 47.078125 
Q 18.265625 41.265625 20.921875 37.53125 
Q 23.578125 33.796875 28.421875 33.796875 
" id="Roboto-Bold-39"/>
       <path d="M 46.578125 26.765625 
L 54.640625 26.765625 
L 54.640625 15.375 
L 46.578125 15.375 
L 46.578125 0 
L 32.46875 0 
L 32.46875 15.375 
L 3.328125 15.375 
L 2.6875 24.265625 
L 32.328125 71.09375 
L 46.578125 71.09375 
z
M 16.75 26.765625 
L 32.46875 26.765625 
L 32.46875 51.859375 
L 31.546875 50.25 
z
" id="Roboto-Bold-34"/>
      </defs>
      <g transform="translate(90.037155 289.288703)rotate(-60)scale(0.1 -0.1)">
       <use xlink:href="#Roboto-Bold-32"/>
       <use x="57.373047" xlink:href="#Roboto-Bold-2e"/>
       <use x="86.425781" xlink:href="#Roboto-Bold-36"/>
       <use x="143.798828" xlink:href="#Roboto-Bold-2e"/>
       <use x="172.851562" xlink:href="#Roboto-Bold-33"/>
       <use x="230.224609" xlink:href="#Roboto-Bold-39"/>
       <use x="287.597656" xlink:href="#Roboto-Bold-2e"/>
       <use x="316.650391" xlink:href="#Roboto-Bold-34"/>
      </g>
     </g>
    </g>
    <g id="xtick_6">
     <g id="line2d_11">
      <path clip-path="url(#p07b0e54f9e)" d="M 122.493875 249.648 
L 122.493875 22.2 
" style="fill:none;stroke:#000000;stroke-width:0.75;"/>
     </g>
     <g id="line2d_12"/>
     <g id="text_6">
      <!-- 3.0.101 -->
      <defs>
       <path d="M 52.6875 29.390625 
Q 52.6875 14.65625 46.578125 6.828125 
Q 40.484375 -0.984375 28.71875 -0.984375 
Q 17.09375 -0.984375 10.9375 6.6875 
Q 4.78125 14.359375 4.640625 28.65625 
L 4.640625 41.75 
Q 4.640625 56.640625 10.8125 64.359375 
Q 17 72.078125 28.609375 72.078125 
Q 40.234375 72.078125 46.390625 64.421875 
Q 52.546875 56.78125 52.6875 42.484375 
z
M 38.578125 43.75 
Q 38.578125 52.59375 36.15625 56.609375 
Q 33.734375 60.640625 28.609375 60.640625 
Q 23.640625 60.640625 21.265625 56.8125 
Q 18.890625 52.984375 18.75 44.828125 
L 18.75 27.546875 
Q 18.75 18.84375 21.109375 14.625 
Q 23.484375 10.40625 28.71875 10.40625 
Q 33.890625 10.40625 36.1875 14.453125 
Q 38.484375 18.5 38.578125 26.859375 
z
" id="Roboto-Bold-30"/>
       <path d="M 39.109375 0 
L 25 0 
L 25 54.390625 
L 8.15625 49.171875 
L 8.15625 60.640625 
L 37.59375 71.1875 
L 39.109375 71.1875 
z
" id="Roboto-Bold-31"/>
      </defs>
      <g transform="translate(103.486323 286.77317)rotate(-60)scale(0.1 -0.1)">
       <use xlink:href="#Roboto-Bold-33"/>
       <use x="57.373047" xlink:href="#Roboto-Bold-2e"/>
       <use x="86.425781" xlink:href="#Roboto-Bold-30"/>
       <use x="143.798828" xlink:href="#Roboto-Bold-2e"/>
       <use x="172.851562" xlink:href="#Roboto-Bold-31"/>
       <use x="230.224609" xlink:href="#Roboto-Bold-30"/>
       <use x="287.597656" xlink:href="#Roboto-Bold-31"/>
      </g>
     </g>
    </g>
    <g id="xtick_7">
     <g id="line2d_13">
      <path clip-path="url(#p07b0e54f9e)" d="M 134.4907 249.648 
L 134.4907 22.2 
" style="fill:none;stroke:#cbcbcb;stroke-width:0.75;"/>
     </g>
     <g id="line2d_14"/>
     <g id="text_7">
      <!-- 3.1.10 -->
      <defs>
       <path d="M 49.5625 29.640625 
Q 49.5625 14.59375 44.046875 6.796875 
Q 38.53125 -0.984375 27.78125 -0.984375 
Q 17.234375 -0.984375 11.609375 6.65625 
Q 6 14.3125 5.859375 28.90625 
L 5.859375 41.65625 
Q 5.859375 56.640625 11.421875 64.359375 
Q 17 72.078125 27.6875 72.078125 
Q 38.234375 72.078125 43.796875 64.625 
Q 49.359375 57.171875 49.5625 42.671875 
z
M 43.703125 42.390625 
Q 43.703125 54.59375 39.71875 60.84375 
Q 35.75 67.09375 27.6875 67.09375 
Q 19.78125 67.09375 15.765625 60.984375 
Q 11.765625 54.890625 11.671875 42.96875 
L 11.671875 29 
Q 11.671875 16.84375 15.796875 10.390625 
Q 19.921875 3.953125 27.78125 3.953125 
Q 35.59375 3.953125 39.625 10.25 
Q 43.65625 16.546875 43.703125 28.71875 
z
" id="Roboto-Light-30"/>
      </defs>
      <g transform="translate(119.259711 280.231972)rotate(-60)scale(0.1 -0.1)">
       <use xlink:href="#Roboto-Light-33"/>
       <use x="55.419922" xlink:href="#Roboto-Light-2e"/>
       <use x="79.296875" xlink:href="#Roboto-Light-31"/>
       <use x="134.716797" xlink:href="#Roboto-Light-2e"/>
       <use x="158.59375" xlink:href="#Roboto-Light-31"/>
       <use x="214.013672" xlink:href="#Roboto-Light-30"/>
      </g>
     </g>
    </g>
    <g id="xtick_8">
     <g id="line2d_15">
      <path clip-path="url(#p07b0e54f9e)" d="M 146.487524 249.648 
L 146.487524 22.2 
" style="fill:none;stroke:#cbcbcb;stroke-width:0.75;"/>
     </g>
     <g id="line2d_16"/>
     <g id="text_8">
      <!-- 3.2.89 -->
      <defs>
       <path d="M 43.171875 32.90625 
Q 40.046875 28.328125 35.40625 25.8125 
Q 30.765625 23.296875 25.34375 23.296875 
Q 19.28125 23.296875 14.640625 26.421875 
Q 10.015625 29.546875 7.46875 35.0625 
Q 4.9375 40.578125 4.9375 47.125 
Q 4.9375 54.15625 7.640625 59.90625 
Q 10.359375 65.671875 15.203125 68.875 
Q 20.0625 72.078125 26.421875 72.078125 
Q 37.109375 72.078125 43.0625 64.578125 
Q 49.03125 57.078125 49.03125 43.3125 
L 49.03125 38.03125 
Q 49.03125 18.796875 40.828125 9.125 
Q 32.625 -0.53125 15.765625 -0.53125 
L 14.703125 -0.53125 
L 14.75 4.546875 
L 16.796875 4.546875 
Q 29.546875 4.734375 36.1875 11.765625 
Q 42.828125 18.796875 43.171875 32.90625 
M 26.078125 28.328125 
Q 31.9375 28.328125 36.59375 31.8125 
Q 41.265625 35.296875 43.21875 40.875 
L 43.21875 44.234375 
Q 43.21875 55.078125 38.703125 61.0625 
Q 34.1875 67.046875 26.515625 67.046875 
Q 19.578125 67.046875 15.125 61.453125 
Q 10.6875 55.859375 10.6875 47.359375 
Q 10.6875 39.203125 14.953125 33.765625 
Q 19.234375 28.328125 26.078125 28.328125 
" id="Roboto-Light-39"/>
      </defs>
      <g transform="translate(131.256535 280.231972)rotate(-60)scale(0.1 -0.1)">
       <use xlink:href="#Roboto-Light-33"/>
       <use x="55.419922" xlink:href="#Roboto-Light-2e"/>
       <use x="79.296875" xlink:href="#Roboto-Light-32"/>
       <use x="134.716797" xlink:href="#Roboto-Light-2e"/>
       <use x="158.59375" xlink:href="#Roboto-Light-38"/>
       <use x="214.013672" xlink:href="#Roboto-Light-39"/>
      </g>
     </g>
    </g>
    <g id="xtick_9">
     <g id="line2d_17">
      <path clip-path="url(#p07b0e54f9e)" d="M 158.484349 249.648 
L 158.484349 22.2 
" style="fill:none;stroke:#cbcbcb;stroke-width:0.75;"/>
     </g>
     <g id="line2d_18"/>
     <g id="text_9">
      <!-- 3.3.8 -->
      <g transform="translate(146.024454 275.432297)rotate(-60)scale(0.1 -0.1)">
       <use xlink:href="#Roboto-Light-33"/>
       <use x="55.419922" xlink:href="#Roboto-Light-2e"/>
       <use x="79.296875" xlink:href="#Roboto-Light-33"/>
       <use x="134.716797" xlink:href="#Roboto-Light-2e"/>
       <use x="158.59375" xlink:href="#Roboto-Light-38"/>
      </g>
     </g>
    </g>
    <g id="xtick_10">
     <g id="line2d_19">
      <path clip-path="url(#p07b0e54f9e)" d="M 170.481174 249.648 
L 170.481174 22.2 
" style="fill:none;stroke:#cbcbcb;stroke-width:0.75;"/>
     </g>
     <g id="line2d_20"/>
     <g id="text_10">
      <!-- 3.4.99 -->
      <g transform="translate(155.250185 280.231972)rotate(-60)scale(0.1 -0.1)">
       <use xlink:href="#Roboto-Light-33"/>
       <use x="55.419922" xlink:href="#Roboto-Light-2e"/>
       <use x="79.296875" xlink:href="#Roboto-Light-34"/>
       <use x="134.716797" xlink:href="#Roboto-Light-2e"/>
       <use x="158.59375" xlink:href="#Roboto-Light-39"/>
       <use x="214.013672" xlink:href="#Roboto-Light-39"/>
      </g>
     </g>
    </g>
    <g id="xtick_11">
     <g id="line2d_21">
      <path clip-path="url(#p07b0e54f9e)" d="M 182.477999 249.648 
L 182.477999 22.2 
" style="fill:none;stroke:#cbcbcb;stroke-width:0.75;"/>
     </g>
     <g id="line2d_22"/>
     <g id="text_11">
      <!-- 3.5.7 -->
      <defs>
       <path d="M 10.640625 36.421875 
L 14.109375 71.09375 
L 49.65625 71.09375 
L 49.65625 65.671875 
L 19.140625 65.671875 
L 16.65625 41.65625 
Q 22.359375 45.5625 30.03125 45.5625 
Q 39.65625 45.5625 45.359375 39.3125 
Q 51.078125 33.0625 51.078125 22.65625 
Q 51.078125 11.421875 45.5 5.21875 
Q 39.9375 -0.984375 29.828125 -0.984375 
Q 20.5625 -0.984375 14.796875 4.1875 
Q 9.03125 9.375 8.203125 18.703125 
L 13.8125 18.703125 
Q 14.65625 11.421875 18.75 7.6875 
Q 22.859375 3.953125 29.828125 3.953125 
Q 37.453125 3.953125 41.328125 8.78125 
Q 45.21875 13.625 45.21875 22.5625 
Q 45.21875 30.375 40.875 35.296875 
Q 36.53125 40.234375 29 40.234375 
Q 24.859375 40.234375 21.78125 39.1875 
Q 18.703125 38.140625 15.28125 35.109375 
z
" id="Roboto-Light-35"/>
      </defs>
      <g transform="translate(170.018103 275.432297)rotate(-60)scale(0.1 -0.1)">
       <use xlink:href="#Roboto-Light-33"/>
       <use x="55.419922" xlink:href="#Roboto-Light-2e"/>
       <use x="79.296875" xlink:href="#Roboto-Light-35"/>
       <use x="134.716797" xlink:href="#Roboto-Light-2e"/>
       <use x="158.59375" xlink:href="#Roboto-Light-37"/>
      </g>
     </g>
    </g>
    <g id="xtick_12">
     <g id="line2d_23">
      <path clip-path="url(#p07b0e54f9e)" d="M 194.474824 249.648 
L 194.474824 22.2 
" style="fill:none;stroke:#000000;stroke-width:0.75;"/>
     </g>
     <g id="line2d_24"/>
     <g id="text_12">
      <!-- 3.6.11 -->
      <g transform="translate(178.336022 281.804349)rotate(-60)scale(0.1 -0.1)">
       <use xlink:href="#Roboto-Bold-33"/>
       <use x="57.373047" xlink:href="#Roboto-Bold-2e"/>
       <use x="86.425781" xlink:href="#Roboto-Bold-36"/>
       <use x="143.798828" xlink:href="#Roboto-Bold-2e"/>
       <use x="172.851562" xlink:href="#Roboto-Bold-31"/>
       <use x="230.224609" xlink:href="#Roboto-Bold-31"/>
      </g>
     </g>
    </g>
    <g id="xtick_13">
     <g id="line2d_25">
      <path clip-path="url(#p07b0e54f9e)" d="M 206.471648 249.648 
L 206.471648 22.2 
" style="fill:none;stroke:#cbcbcb;stroke-width:0.75;"/>
     </g>
     <g id="line2d_26"/>
     <g id="text_13">
      <!-- 3.7.10 -->
      <g transform="translate(191.240659 280.231972)rotate(-60)scale(0.1 -0.1)">
       <use xlink:href="#Roboto-Light-33"/>
       <use x="55.419922" xlink:href="#Roboto-Light-2e"/>
       <use x="79.296875" xlink:href="#Roboto-Light-37"/>
       <use x="134.716797" xlink:href="#Roboto-Light-2e"/>
       <use x="158.59375" xlink:href="#Roboto-Light-31"/>
       <use x="214.013672" xlink:href="#Roboto-Light-30"/>
      </g>
     </g>
    </g>
    <g id="xtick_14">
     <g id="line2d_27">
      <path clip-path="url(#p07b0e54f9e)" d="M 218.468473 249.648 
L 218.468473 22.2 
" style="fill:none;stroke:#cbcbcb;stroke-width:0.75;"/>
     </g>
     <g id="line2d_28"/>
     <g id="text_14">
      <!-- 3.8.13 -->
      <g transform="translate(203.237484 280.231972)rotate(-60)scale(0.1 -0.1)">
       <use xlink:href="#Roboto-Light-33"/>
       <use x="55.419922" xlink:href="#Roboto-Light-2e"/>
       <use x="79.296875" xlink:href="#Roboto-Light-38"/>
       <use x="134.716797" xlink:href="#Roboto-Light-2e"/>
       <use x="158.59375" xlink:href="#Roboto-Light-31"/>
       <use x="214.013672" xlink:href="#Roboto-Light-33"/>
      </g>
     </g>
    </g>
    <g id="xtick_15">
     <g id="line2d_29">
      <path clip-path="url(#p07b0e54f9e)" d="M 230.465298 249.648 
L 230.465298 22.2 
" style="fill:none;stroke:#cbcbcb;stroke-width:0.75;"/>
     </g>
     <g id="line2d_30"/>
     <g id="text_15">
      <!-- 3.9.11 -->
      <g transform="translate(215.234309 280.231972)rotate(-60)scale(0.1 -0.1)">
       <use xlink:href="#Roboto-Light-33"/>
       <use x="55.419922" xlink:href="#Roboto-Light-2e"/>
       <use x="79.296875" xlink:href="#Roboto-Light-39"/>
       <use x="134.716797" xlink:href="#Roboto-Light-2e"/>
       <use x="158.59375" xlink:href="#Roboto-Light-31"/>
       <use x="214.013672" xlink:href="#Roboto-Light-31"/>
      </g>
     </g>
    </g>
    <g id="xtick_16">
     <g id="line2d_31">
      <path clip-path="url(#p07b0e54f9e)" d="M 242.462123 249.648 
L 242.462123 22.2 
" style="fill:none;stroke:#cbcbcb;stroke-width:0.75;"/>
     </g>
     <g id="line2d_32"/>
     <g id="text_16">
      <!-- 3.10.107 -->
      <g transform="translate(221.688946 289.831322)rotate(-60)scale(0.1 -0.1)">
       <use xlink:href="#Roboto-Light-33"/>
       <use x="55.419922" xlink:href="#Roboto-Light-2e"/>
       <use x="79.296875" xlink:href="#Roboto-Light-31"/>
       <use x="134.716797" xlink:href="#Roboto-Light-30"/>
       <use x="190.136719" xlink:href="#Roboto-Light-2e"/>
       <use x="214.013672" xlink:href="#Roboto-Light-31"/>
       <use x="269.433594" xlink:href="#Roboto-Light-30"/>
       <use x="324.853516" xlink:href="#Roboto-Light-37"/>
      </g>
     </g>
    </g>
    <g id="xtick_17">
     <g id="line2d_33">
      <path clip-path="url(#p07b0e54f9e)" d="M 254.458948 249.648 
L 254.458948 22.2 
" style="fill:none;stroke:#cbcbcb;stroke-width:0.75;"/>
     </g>
     <g id="line2d_34"/>
     <g id="text_17">
      <!-- 3.11.10 -->
      <g transform="translate(236.456865 285.031647)rotate(-60)scale(0.1 -0.1)">
       <use xlink:href="#Roboto-Light-33"/>
       <use x="55.419922" xlink:href="#Roboto-Light-2e"/>
       <use x="79.296875" xlink:href="#Roboto-Light-31"/>
       <use x="134.716797" xlink:href="#Roboto-Light-31"/>
       <use x="190.136719" xlink:href="#Roboto-Light-2e"/>
       <use x="214.013672" xlink:href="#Roboto-Light-31"/>
       <use x="269.433594" xlink:href="#Roboto-Light-30"/>
      </g>
     </g>
    </g>
    <g id="xtick_18">
     <g id="line2d_35">
      <path clip-path="url(#p07b0e54f9e)" d="M 266.455772 249.648 
L 266.455772 22.2 
" style="fill:none;stroke:#cbcbcb;stroke-width:0.75;"/>
     </g>
     <g id="line2d_36"/>
     <g id="text_18">
      <!-- 3.12.74 -->
      <g transform="translate(248.45369 285.031647)rotate(-60)scale(0.1 -0.1)">
       <use xlink:href="#Roboto-Light-33"/>
       <use x="55.419922" xlink:href="#Roboto-Light-2e"/>
       <use x="79.296875" xlink:href="#Roboto-Light-31"/>
       <use x="134.716797" xlink:href="#Roboto-Light-32"/>
       <use x="190.136719" xlink:href="#Roboto-Light-2e"/>
       <use x="214.013672" xlink:href="#Roboto-Light-37"/>
       <use x="269.433594" xlink:href="#Roboto-Light-34"/>
      </g>
     </g>
    </g>
    <g id="xtick_19">
     <g id="line2d_37">
      <path clip-path="url(#p07b0e54f9e)" d="M 278.452597 249.648 
L 278.452597 22.2 
" style="fill:none;stroke:#cbcbcb;stroke-width:0.75;"/>
     </g>
     <g id="line2d_38"/>
     <g id="text_19">
      <!-- 3.13.11 -->
      <g transform="translate(260.450514 285.031647)rotate(-60)scale(0.1 -0.1)">
       <use xlink:href="#Roboto-Light-33"/>
       <use x="55.419922" xlink:href="#Roboto-Light-2e"/>
       <use x="79.296875" xlink:href="#Roboto-Light-31"/>
       <use x="134.716797" xlink:href="#Roboto-Light-33"/>
       <use x="190.136719" xlink:href="#Roboto-Light-2e"/>
       <use x="214.013672" xlink:href="#Roboto-Light-31"/>
       <use x="269.433594" xlink:href="#Roboto-Light-31"/>
      </g>
     </g>
    </g>
    <g id="xtick_20">
     <g id="line2d_39">
      <path clip-path="url(#p07b0e54f9e)" d="M 290.449422 249.648 
L 290.449422 22.2 
" style="fill:none;stroke:#cbcbcb;stroke-width:0.75;"/>
     </g>
     <g id="line2d_40"/>
     <g id="text_20">
      <!-- 3.14.79 -->
      <g transform="translate(272.447339 285.031647)rotate(-60)scale(0.1 -0.1)">
       <use xlink:href="#Roboto-Light-33"/>
       <use x="55.419922" xlink:href="#Roboto-Light-2e"/>
       <use x="79.296875" xlink:href="#Roboto-Light-31"/>
       <use x="134.716797" xlink:href="#Roboto-Light-34"/>
       <use x="190.136719" xlink:href="#Roboto-Light-2e"/>
       <use x="214.013672" xlink:href="#Roboto-Light-37"/>
       <use x="269.433594" xlink:href="#Roboto-Light-39"/>
      </g>
     </g>
    </g>
    <g id="xtick_21">
     <g id="line2d_41">
      <path clip-path="url(#p07b0e54f9e)" d="M 302.446247 249.648 
L 302.446247 22.2 
" style="fill:none;stroke:#cbcbcb;stroke-width:0.75;"/>
     </g>
     <g id="line2d_42"/>
     <g id="text_21">
      <!-- 3.15.10 -->
      <g transform="translate(284.444164 285.031647)rotate(-60)scale(0.1 -0.1)">
       <use xlink:href="#Roboto-Light-33"/>
       <use x="55.419922" xlink:href="#Roboto-Light-2e"/>
       <use x="79.296875" xlink:href="#Roboto-Light-31"/>
       <use x="134.716797" xlink:href="#Roboto-Light-35"/>
       <use x="190.136719" xlink:href="#Roboto-Light-2e"/>
       <use x="214.013672" xlink:href="#Roboto-Light-31"/>
       <use x="269.433594" xlink:href="#Roboto-Light-30"/>
      </g>
     </g>
    </g>
    <g id="xtick_22">
     <g id="line2d_43">
      <path clip-path="url(#p07b0e54f9e)" d="M 314.443072 249.648 
L 314.443072 22.2 
" style="fill:none;stroke:#cbcbcb;stroke-width:0.75;"/>
     </g>
     <g id="line2d_44"/>
     <g id="text_22">
      <!-- 3.16.44 -->
      <g transform="translate(296.440989 285.031647)rotate(-60)scale(0.1 -0.1)">
       <use xlink:href="#Roboto-Light-33"/>
       <use x="55.419922" xlink:href="#Roboto-Light-2e"/>
       <use x="79.296875" xlink:href="#Roboto-Light-31"/>
       <use x="134.716797" xlink:href="#Roboto-Light-36"/>
       <use x="190.136719" xlink:href="#Roboto-Light-2e"/>
       <use x="214.013672" xlink:href="#Roboto-Light-34"/>
       <use x="269.433594" xlink:href="#Roboto-Light-34"/>
      </g>
     </g>
    </g>
    <g id="xtick_23">
     <g id="line2d_45">
      <path clip-path="url(#p07b0e54f9e)" d="M 326.439896 249.648 
L 326.439896 22.2 
" style="fill:none;stroke:#cbcbcb;stroke-width:0.75;"/>
     </g>
     <g id="line2d_46"/>
     <g id="text_23">
      <!-- 3.17.8 -->
      <g transform="translate(311.208907 280.231972)rotate(-60)scale(0.1 -0.1)">
       <use xlink:href="#Roboto-Light-33"/>
       <use x="55.419922" xlink:href="#Roboto-Light-2e"/>
       <use x="79.296875" xlink:href="#Roboto-Light-31"/>
       <use x="134.716797" xlink:href="#Roboto-Light-37"/>
       <use x="190.136719" xlink:href="#Roboto-Light-2e"/>
       <use x="214.013672" xlink:href="#Roboto-Light-38"/>
      </g>
     </g>
    </g>
    <g id="xtick_24">
     <g id="line2d_47">
      <path clip-path="url(#p07b0e54f9e)" d="M 338.436721 249.648 
L 338.436721 22.2 
" style="fill:none;stroke:#cbcbcb;stroke-width:0.75;"/>
     </g>
     <g id="line2d_48"/>
     <g id="text_24">
      <!-- 3.18.59 -->
      <g transform="translate(320.434638 285.031647)rotate(-60)scale(0.1 -0.1)">
       <use xlink:href="#Roboto-Light-33"/>
       <use x="55.419922" xlink:href="#Roboto-Light-2e"/>
       <use x="79.296875" xlink:href="#Roboto-Light-31"/>
       <use x="134.716797" xlink:href="#Roboto-Light-38"/>
       <use x="190.136719" xlink:href="#Roboto-Light-2e"/>
       <use x="214.013672" xlink:href="#Roboto-Light-35"/>
       <use x="269.433594" xlink:href="#Roboto-Light-39"/>
      </g>
     </g>
    </g>
    <g id="xtick_25">
     <g id="line2d_49">
      <path clip-path="url(#p07b0e54f9e)" d="M 350.433546 249.648 
L 350.433546 22.2 
" style="fill:none;stroke:#cbcbcb;stroke-width:0.75;"/>
     </g>
     <g id="line2d_50"/>
     <g id="text_25">
      <!-- 3.19.8 -->
      <g transform="translate(335.202557 280.231972)rotate(-60)scale(0.1 -0.1)">
       <use xlink:href="#Roboto-Light-33"/>
       <use x="55.419922" xlink:href="#Roboto-Light-2e"/>
       <use x="79.296875" xlink:href="#Roboto-Light-31"/>
       <use x="134.716797" xlink:href="#Roboto-Light-39"/>
       <use x="190.136719" xlink:href="#Roboto-Light-2e"/>
       <use x="214.013672" xlink:href="#Roboto-Light-38"/>
      </g>
     </g>
    </g>
    <g id="xtick_26">
     <g id="line2d_51">
      <path clip-path="url(#p07b0e54f9e)" d="M 362.430371 249.648 
L 362.430371 22.2 
" style="fill:none;stroke:#000000;stroke-width:0.75;"/>
     </g>
     <g id="line2d_52"/>
     <g id="text_26">
      <!-- 4.0.9 -->
      <g transform="translate(349.160319 276.835529)rotate(-60)scale(0.1 -0.1)">
       <use xlink:href="#Roboto-Bold-34"/>
       <use x="57.373047" xlink:href="#Roboto-Bold-2e"/>
       <use x="86.425781" xlink:href="#Roboto-Bold-30"/>
       <use x="143.798828" xlink:href="#Roboto-Bold-2e"/>
       <use x="172.851562" xlink:href="#Roboto-Bold-39"/>
      </g>
     </g>
    </g>
    <g id="xtick_27">
     <g id="line2d_53">
      <path clip-path="url(#p07b0e54f9e)" d="M 374.427196 249.648 
L 374.427196 22.2 
" style="fill:none;stroke:#000000;stroke-width:0.75;"/>
     </g>
     <g id="line2d_54"/>
     <g id="text_27">
      <!-- 4.1.42 -->
      <g transform="translate(358.288394 281.804349)rotate(-60)scale(0.1 -0.1)">
       <use xlink:href="#Roboto-Bold-34"/>
       <use x="57.373047" xlink:href="#Roboto-Bold-2e"/>
       <use x="86.425781" xlink:href="#Roboto-Bold-31"/>
       <use x="143.798828" xlink:href="#Roboto-Bold-2e"/>
       <use x="172.851562" xlink:href="#Roboto-Bold-34"/>
       <use x="230.224609" xlink:href="#Roboto-Bold-32"/>
      </g>
     </g>
    </g>
    <g id="xtick_28">
     <g id="line2d_55">
      <path clip-path="url(#p07b0e54f9e)" d="M 386.42402 249.648 
L 386.42402 22.2 
" style="fill:none;stroke:#cbcbcb;stroke-width:0.75;"/>
     </g>
     <g id="line2d_56"/>
     <g id="text_28">
      <!-- 4.2.8 -->
      <g transform="translate(373.964125 275.432297)rotate(-60)scale(0.1 -0.1)">
       <use xlink:href="#Roboto-Light-34"/>
       <use x="55.419922" xlink:href="#Roboto-Light-2e"/>
       <use x="79.296875" xlink:href="#Roboto-Light-32"/>
       <use x="134.716797" xlink:href="#Roboto-Light-2e"/>
       <use x="158.59375" xlink:href="#Roboto-Light-38"/>
      </g>
     </g>
    </g>
    <g id="xtick_29">
     <g id="line2d_57">
      <path clip-path="url(#p07b0e54f9e)" d="M 398.420845 249.648 
L 398.420845 22.2 
" style="fill:none;stroke:#cbcbcb;stroke-width:0.75;"/>
     </g>
     <g id="line2d_58"/>
     <g id="text_29">
      <!-- 4.3.6 -->
      <g transform="translate(385.96095 275.432297)rotate(-60)scale(0.1 -0.1)">
       <use xlink:href="#Roboto-Light-34"/>
       <use x="55.419922" xlink:href="#Roboto-Light-2e"/>
       <use x="79.296875" xlink:href="#Roboto-Light-33"/>
       <use x="134.716797" xlink:href="#Roboto-Light-2e"/>
       <use x="158.59375" xlink:href="#Roboto-Light-36"/>
      </g>
     </g>
    </g>
    <g id="xtick_30">
     <g id="line2d_59">
      <path clip-path="url(#p07b0e54f9e)" d="M 410.41767 249.648 
L 410.41767 22.2 
" style="fill:none;stroke:#cbcbcb;stroke-width:0.75;"/>
     </g>
     <g id="line2d_60"/>
     <g id="text_30">
      <!-- 4.4.75 -->
      <g transform="translate(395.186681 280.231972)rotate(-60)scale(0.1 -0.1)">
       <use xlink:href="#Roboto-Light-34"/>
       <use x="55.419922" xlink:href="#Roboto-Light-2e"/>
       <use x="79.296875" xlink:href="#Roboto-Light-34"/>
       <use x="134.716797" xlink:href="#Roboto-Light-2e"/>
       <use x="158.59375" xlink:href="#Roboto-Light-37"/>
       <use x="214.013672" xlink:href="#Roboto-Light-35"/>
      </g>
     </g>
    </g>
    <g id="xtick_31">
     <g id="line2d_61">
      <path clip-path="url(#p07b0e54f9e)" d="M 422.414495 249.648 
L 422.414495 22.2 
" style="fill:none;stroke:#cbcbcb;stroke-width:0.75;"/>
     </g>
     <g id="line2d_62"/>
     <g id="text_31">
      <!-- 4.5.7 -->
      <g transform="translate(409.954599 275.432297)rotate(-60)scale(0.1 -0.1)">
       <use xlink:href="#Roboto-Light-34"/>
       <use x="55.419922" xlink:href="#Roboto-Light-2e"/>
       <use x="79.296875" xlink:href="#Roboto-Light-35"/>
       <use x="134.716797" xlink:href="#Roboto-Light-2e"/>
       <use x="158.59375" xlink:href="#Roboto-Light-37"/>
      </g>
     </g>
    </g>
    <g id="xtick_32">
     <g id="line2d_63">
      <path clip-path="url(#p07b0e54f9e)" d="M 434.41132 249.648 
L 434.41132 22.2 
" style="fill:none;stroke:#cbcbcb;stroke-width:0.75;"/>
     </g>
     <g id="line2d_64"/>
     <g id="text_32">
      <!-- 4.6.7 -->
      <g transform="translate(421.951424 275.432297)rotate(-60)scale(0.1 -0.1)">
       <use xlink:href="#Roboto-Light-34"/>
       <use x="55.419922" xlink:href="#Roboto-Light-2e"/>
       <use x="79.296875" xlink:href="#Roboto-Light-36"/>
       <use x="134.716797" xlink:href="#Roboto-Light-2e"/>
       <use x="158.59375" xlink:href="#Roboto-Light-37"/>
      </g>
     </g>
    </g>
    <g id="xtick_33">
     <g id="line2d_65">
      <path clip-path="url(#p07b0e54f9e)" d="M 446.408144 249.648 
L 446.408144 22.2 
" style="fill:none;stroke:#cbcbcb;stroke-width:0.75;"/>
     </g>
     <g id="line2d_66"/>
     <g id="text_33">
      <!-- 4.7.10 -->
      <g transform="translate(431.177155 280.231972)rotate(-60)scale(0.1 -0.1)">
       <use xlink:href="#Roboto-Light-34"/>
       <use x="55.419922" xlink:href="#Roboto-Light-2e"/>
       <use x="79.296875" xlink:href="#Roboto-Light-37"/>
       <use x="134.716797" xlink:href="#Roboto-Light-2e"/>
       <use x="158.59375" xlink:href="#Roboto-Light-31"/>
       <use x="214.013672" xlink:href="#Roboto-Light-30"/>
      </g>
     </g>
    </g>
    <g id="xtick_34">
     <g id="line2d_67">
      <path clip-path="url(#p07b0e54f9e)" d="M 458.404969 249.648 
L 458.404969 22.2 
" style="fill:none;stroke:#cbcbcb;stroke-width:0.75;"/>
     </g>
     <g id="line2d_68"/>
     <g id="text_34">
      <!-- 4.8.17 -->
      <g transform="translate(443.17398 280.231972)rotate(-60)scale(0.1 -0.1)">
       <use xlink:href="#Roboto-Light-34"/>
       <use x="55.419922" xlink:href="#Roboto-Light-2e"/>
       <use x="79.296875" xlink:href="#Roboto-Light-38"/>
       <use x="134.716797" xlink:href="#Roboto-Light-2e"/>
       <use x="158.59375" xlink:href="#Roboto-Light-31"/>
       <use x="214.013672" xlink:href="#Roboto-Light-37"/>
      </g>
     </g>
    </g>
    <g id="xtick_35">
     <g id="line2d_69">
      <path clip-path="url(#p07b0e54f9e)" d="M 470.401794 249.648 
L 470.401794 22.2 
" style="fill:none;stroke:#cbcbcb;stroke-width:0.75;"/>
     </g>
     <g id="line2d_70"/>
     <g id="text_35">
      <!-- 4.9.35 -->
      <g transform="translate(455.170805 280.231972)rotate(-60)scale(0.1 -0.1)">
       <use xlink:href="#Roboto-Light-34"/>
       <use x="55.419922" xlink:href="#Roboto-Light-2e"/>
       <use x="79.296875" xlink:href="#Roboto-Light-39"/>
       <use x="134.716797" xlink:href="#Roboto-Light-2e"/>
       <use x="158.59375" xlink:href="#Roboto-Light-33"/>
       <use x="214.013672" xlink:href="#Roboto-Light-35"/>
      </g>
     </g>
    </g>
    <g id="xtick_36">
     <g id="line2d_71">
      <path clip-path="url(#p07b0e54f9e)" d="M 482.398619 249.648 
L 482.398619 22.2 
" style="fill:none;stroke:#cbcbcb;stroke-width:0.75;"/>
     </g>
     <g id="line2d_72"/>
     <g id="text_36">
      <!-- 4.10.17 -->
      <g transform="translate(464.396536 285.031647)rotate(-60)scale(0.1 -0.1)">
       <use xlink:href="#Roboto-Light-34"/>
       <use x="55.419922" xlink:href="#Roboto-Light-2e"/>
       <use x="79.296875" xlink:href="#Roboto-Light-31"/>
       <use x="134.716797" xlink:href="#Roboto-Light-30"/>
       <use x="190.136719" xlink:href="#Roboto-Light-2e"/>
       <use x="214.013672" xlink:href="#Roboto-Light-31"/>
       <use x="269.433594" xlink:href="#Roboto-Light-37"/>
      </g>
     </g>
    </g>
    <g id="xtick_37">
     <g id="line2d_73">
      <path clip-path="url(#p07b0e54f9e)" d="M 494.395444 249.648 
L 494.395444 22.2 
" style="fill:none;stroke:#cbcbcb;stroke-width:0.75;"/>
     </g>
     <g id="line2d_74"/>
     <g id="text_37">
      <!-- 4.11.8 -->
      <g transform="translate(479.164454 280.231972)rotate(-60)scale(0.1 -0.1)">
       <use xlink:href="#Roboto-Light-34"/>
       <use x="55.419922" xlink:href="#Roboto-Light-2e"/>
       <use x="79.296875" xlink:href="#Roboto-Light-31"/>
       <use x="134.716797" xlink:href="#Roboto-Light-31"/>
       <use x="190.136719" xlink:href="#Roboto-Light-2e"/>
       <use x="214.013672" xlink:href="#Roboto-Light-38"/>
      </g>
     </g>
    </g>
    <g id="xtick_38">
     <g id="line2d_75">
      <path clip-path="url(#p07b0e54f9e)" d="M 506.392268 249.648 
L 506.392268 22.2 
" style="fill:none;stroke:#cbcbcb;stroke-width:0.75;"/>
     </g>
     <g id="line2d_76"/>
     <g id="text_38">
      <!-- 4.12.0 -->
      <g transform="translate(491.161279 280.231972)rotate(-60)scale(0.1 -0.1)">
       <use xlink:href="#Roboto-Light-34"/>
       <use x="55.419922" xlink:href="#Roboto-Light-2e"/>
       <use x="79.296875" xlink:href="#Roboto-Light-31"/>
       <use x="134.716797" xlink:href="#Roboto-Light-32"/>
       <use x="190.136719" xlink:href="#Roboto-Light-2e"/>
       <use x="214.013672" xlink:href="#Roboto-Light-30"/>
      </g>
     </g>
    </g>
   </g>
   <g id="matplotlib.axis_2">
    <g id="ytick_1">
     <g id="line2d_77">
      <path clip-path="url(#p07b0e54f9e)" d="M 40.315625 249.648 
L 528.586394 249.648 
" style="fill:none;stroke:#cbcbcb;stroke-width:0.75;"/>
     </g>
     <g id="line2d_78"/>
     <g id="text_39">
      <!-- 0 ns -->
      <defs>
       <path id="Roboto-Light-20"/>
       <path d="M 13.1875 52.828125 
L 13.375 43.796875 
Q 16.359375 48.6875 20.796875 51.25 
Q 25.25 53.8125 30.609375 53.8125 
Q 39.109375 53.8125 43.25 49.015625 
Q 47.40625 44.234375 47.46875 34.671875 
L 47.46875 0 
L 41.65625 0 
L 41.65625 34.71875 
Q 41.609375 41.796875 38.640625 45.265625 
Q 35.6875 48.734375 29.203125 48.734375 
Q 23.78125 48.734375 19.609375 45.328125 
Q 15.4375 41.9375 13.421875 36.1875 
L 13.421875 0 
L 7.625 0 
L 7.625 52.828125 
z
" id="Roboto-Light-6e"/>
       <path d="M 39.265625 13.421875 
Q 39.265625 17.78125 35.765625 20.40625 
Q 32.28125 23.046875 25.25 24.53125 
Q 18.21875 26.03125 14.328125 27.953125 
Q 10.453125 29.890625 8.5625 32.671875 
Q 6.6875 35.453125 6.6875 39.40625 
Q 6.6875 45.65625 11.90625 49.734375 
Q 17.140625 53.8125 25.296875 53.8125 
Q 34.125 53.8125 39.46875 49.4375 
Q 44.828125 45.0625 44.828125 38.03125 
L 38.96875 38.03125 
Q 38.96875 42.671875 35.078125 45.75 
Q 31.203125 48.828125 25.296875 48.828125 
Q 19.53125 48.828125 16.03125 46.265625 
Q 12.546875 43.703125 12.546875 39.59375 
Q 12.546875 35.640625 15.453125 33.46875 
Q 18.359375 31.296875 26.046875 29.484375 
Q 33.734375 27.6875 37.5625 25.625 
Q 41.40625 23.578125 43.265625 20.703125 
Q 45.125 17.828125 45.125 13.71875 
Q 45.125 7.03125 39.71875 3.015625 
Q 34.328125 -0.984375 25.640625 -0.984375 
Q 16.40625 -0.984375 10.671875 3.484375 
Q 4.9375 7.953125 4.9375 14.796875 
L 10.796875 14.796875 
Q 11.140625 9.671875 15.109375 6.8125 
Q 19.09375 3.953125 25.640625 3.953125 
Q 31.734375 3.953125 35.5 6.640625 
Q 39.265625 9.328125 39.265625 13.421875 
" id="Roboto-Light-73"/>
      </defs>
      <g transform="translate(18.284375 253.398)scale(0.1 -0.1)">
       <use xlink:href="#Roboto-Light-30"/>
       <use x="55.419922" xlink:href="#Roboto-Light-20"/>
       <use x="79.736328" xlink:href="#Roboto-Light-6e"/>
       <use x="134.667969" xlink:href="#Roboto-Light-73"/>
      </g>
     </g>
    </g>
    <g id="ytick_2">
     <g id="line2d_79">
      <path clip-path="url(#p07b0e54f9e)" d="M 40.315625 234.278188 
L 528.586394 234.278188 
" style="fill:none;stroke:#cbcbcb;stroke-width:0.75;"/>
     </g>
     <g id="line2d_80"/>
     <g id="text_40">
      <!-- 20 ns -->
      <g transform="translate(12.742188 238.028188)scale(0.1 -0.1)">
       <use xlink:href="#Roboto-Light-32"/>
       <use x="55.419922" xlink:href="#Roboto-Light-30"/>
       <use x="110.839844" xlink:href="#Roboto-Light-20"/>
       <use x="135.15625" xlink:href="#Roboto-Light-6e"/>
       <use x="190.087891" xlink:href="#Roboto-Light-73"/>
      </g>
     </g>
    </g>
    <g id="ytick_3">
     <g id="line2d_81">
      <path clip-path="url(#p07b0e54f9e)" d="M 40.315625 218.908375 
L 528.586394 218.908375 
" style="fill:none;stroke:#cbcbcb;stroke-width:0.75;"/>
     </g>
     <g id="line2d_82"/>
     <g id="text_41">
      <!-- 40 ns -->
      <g transform="translate(12.742188 222.658375)scale(0.1 -0.1)">
       <use xlink:href="#Roboto-Light-34"/>
       <use x="55.419922" xlink:href="#Roboto-Light-30"/>
       <use x="110.839844" xlink:href="#Roboto-Light-20"/>
       <use x="135.15625" xlink:href="#Roboto-Light-6e"/>
       <use x="190.087891" xlink:href="#Roboto-Light-73"/>
      </g>
     </g>
    </g>
    <g id="ytick_4">
     <g id="line2d_83">
      <path clip-path="url(#p07b0e54f9e)" d="M 40.315625 203.538563 
L 528.586394 203.538563 
" style="fill:none;stroke:#cbcbcb;stroke-width:0.75;"/>
     </g>
     <g id="line2d_84"/>
     <g id="text_42">
      <!-- 60 ns -->
      <g transform="translate(12.742188 207.288563)scale(0.1 -0.1)">
       <use xlink:href="#Roboto-Light-36"/>
       <use x="55.419922" xlink:href="#Roboto-Light-30"/>
       <use x="110.839844" xlink:href="#Roboto-Light-20"/>
       <use x="135.15625" xlink:href="#Roboto-Light-6e"/>
       <use x="190.087891" xlink:href="#Roboto-Light-73"/>
      </g>
     </g>
    </g>
    <g id="ytick_5">
     <g id="line2d_85">
      <path clip-path="url(#p07b0e54f9e)" d="M 40.315625 188.168751 
L 528.586394 188.168751 
" style="fill:none;stroke:#cbcbcb;stroke-width:0.75;"/>
     </g>
     <g id="line2d_86"/>
     <g id="text_43">
      <!-- 80 ns -->
      <g transform="translate(12.742188 191.918751)scale(0.1 -0.1)">
       <use xlink:href="#Roboto-Light-38"/>
       <use x="55.419922" xlink:href="#Roboto-Light-30"/>
       <use x="110.839844" xlink:href="#Roboto-Light-20"/>
       <use x="135.15625" xlink:href="#Roboto-Light-6e"/>
       <use x="190.087891" xlink:href="#Roboto-Light-73"/>
      </g>
     </g>
    </g>
    <g id="ytick_6">
     <g id="line2d_87">
      <path clip-path="url(#p07b0e54f9e)" d="M 40.315625 172.798938 
L 528.586394 172.798938 
" style="fill:none;stroke:#cbcbcb;stroke-width:0.75;"/>
     </g>
     <g id="line2d_88"/>
     <g id="text_44">
      <!-- 100 ns -->
      <g transform="translate(7.2 176.548938)scale(0.1 -0.1)">
       <use xlink:href="#Roboto-Light-31"/>
       <use x="55.419922" xlink:href="#Roboto-Light-30"/>
       <use x="110.839844" xlink:href="#Roboto-Light-30"/>
       <use x="166.259766" xlink:href="#Roboto-Light-20"/>
       <use x="190.576172" xlink:href="#Roboto-Light-6e"/>
       <use x="245.507812" xlink:href="#Roboto-Light-73"/>
      </g>
     </g>
    </g>
    <g id="ytick_7">
     <g id="line2d_89">
      <path clip-path="url(#p07b0e54f9e)" d="M 40.315625 157.429126 
L 528.586394 157.429126 
" style="fill:none;stroke:#cbcbcb;stroke-width:0.75;"/>
     </g>
     <g id="line2d_90"/>
     <g id="text_45">
      <!-- 120 ns -->
      <g transform="translate(7.2 161.179126)scale(0.1 -0.1)">
       <use xlink:href="#Roboto-Light-31"/>
       <use x="55.419922" xlink:href="#Roboto-Light-32"/>
       <use x="110.839844" xlink:href="#Roboto-Light-30"/>
       <use x="166.259766" xlink:href="#Roboto-Light-20"/>
       <use x="190.576172" xlink:href="#Roboto-Light-6e"/>
       <use x="245.507812" xlink:href="#Roboto-Light-73"/>
      </g>
     </g>
    </g>
    <g id="ytick_8">
     <g id="line2d_91">
      <path clip-path="url(#p07b0e54f9e)" d="M 40.315625 142.059313 
L 528.586394 142.059313 
" style="fill:none;stroke:#cbcbcb;stroke-width:0.75;"/>
     </g>
     <g id="line2d_92"/>
     <g id="text_46">
      <!-- 140 ns -->
      <g transform="translate(7.2 145.809313)scale(0.1 -0.1)">
       <use xlink:href="#Roboto-Light-31"/>
       <use x="55.419922" xlink:href="#Roboto-Light-34"/>
       <use x="110.839844" xlink:href="#Roboto-Light-30"/>
       <use x="166.259766" xlink:href="#Roboto-Light-20"/>
       <use x="190.576172" xlink:href="#Roboto-Light-6e"/>
       <use x="245.507812" xlink:href="#Roboto-Light-73"/>
      </g>
     </g>
    </g>
    <g id="ytick_9">
     <g id="line2d_93">
      <path clip-path="url(#p07b0e54f9e)" d="M 40.315625 126.689501 
L 528.586394 126.689501 
" style="fill:none;stroke:#cbcbcb;stroke-width:0.75;"/>
     </g>
     <g id="line2d_94"/>
     <g id="text_47">
      <!-- 160 ns -->
      <g transform="translate(7.2 130.439501)scale(0.1 -0.1)">
       <use xlink:href="#Roboto-Light-31"/>
       <use x="55.419922" xlink:href="#Roboto-Light-36"/>
       <use x="110.839844" xlink:href="#Roboto-Light-30"/>
       <use x="166.259766" xlink:href="#Roboto-Light-20"/>
       <use x="190.576172" xlink:href="#Roboto-Light-6e"/>
       <use x="245.507812" xlink:href="#Roboto-Light-73"/>
      </g>
     </g>
    </g>
    <g id="ytick_10">
     <g id="line2d_95">
      <path clip-path="url(#p07b0e54f9e)" d="M 40.315625 111.319689 
L 528.586394 111.319689 
" style="fill:none;stroke:#cbcbcb;stroke-width:0.75;"/>
     </g>
     <g id="line2d_96"/>
     <g id="text_48">
      <!-- 180 ns -->
      <g transform="translate(7.2 115.069689)scale(0.1 -0.1)">
       <use xlink:href="#Roboto-Light-31"/>
       <use x="55.419922" xlink:href="#Roboto-Light-38"/>
       <use x="110.839844" xlink:href="#Roboto-Light-30"/>
       <use x="166.259766" xlink:href="#Roboto-Light-20"/>
       <use x="190.576172" xlink:href="#Roboto-Light-6e"/>
       <use x="245.507812" xlink:href="#Roboto-Light-73"/>
      </g>
     </g>
    </g>
    <g id="ytick_11">
     <g id="line2d_97">
      <path clip-path="url(#p07b0e54f9e)" d="M 40.315625 95.949876 
L 528.586394 95.949876 
" style="fill:none;stroke:#cbcbcb;stroke-width:0.75;"/>
     </g>
     <g id="line2d_98"/>
     <g id="text_49">
      <!-- 200 ns -->
      <g transform="translate(7.2 99.699876)scale(0.1 -0.1)">
       <use xlink:href="#Roboto-Light-32"/>
       <use x="55.419922" xlink:href="#Roboto-Light-30"/>
       <use x="110.839844" xlink:href="#Roboto-Light-30"/>
       <use x="166.259766" xlink:href="#Roboto-Light-20"/>
       <use x="190.576172" xlink:href="#Roboto-Light-6e"/>
       <use x="245.507812" xlink:href="#Roboto-Light-73"/>
      </g>
     </g>
    </g>
    <g id="ytick_12">
     <g id="line2d_99">
      <path clip-path="url(#p07b0e54f9e)" d="M 40.315625 40.903507 
L 528.586394 40.903507 
" style="fill:none;stroke:#cbcbcb;stroke-width:0.75;"/>
     </g>
     <g id="line2d_100"/>
     <g id="text_50">
      <!-- 500 ns -->
      <g transform="translate(7.2 44.653507)scale(0.1 -0.1)">
       <use xlink:href="#Roboto-Light-35"/>
       <use x="55.419922" xlink:href="#Roboto-Light-30"/>
       <use x="110.839844" xlink:href="#Roboto-Light-30"/>
       <use x="166.259766" xlink:href="#Roboto-Light-20"/>
       <use x="190.576172" xlink:href="#Roboto-Light-6e"/>
       <use x="245.507812" xlink:href="#Roboto-Light-73"/>
      </g>
     </g>
    </g>
    <g id="ytick_13">
     <g id="line2d_101"/>
    </g>
    <g id="ytick_14">
     <g id="line2d_102"/>
    </g>
   </g>
   <g id="line2d_103">
    <path clip-path="url(#p07b0e54f9e)" d="M 62.509751 44.862995 
L 74.506576 40.708984 
L 86.5034 32.239618 
L 98.500225 37.617818 
L 110.49705 108.411886 
L 122.493875 127.520302 
L 134.4907 128.766503 
L 146.487524 127.520302 
L 158.484349 129.805004 
L 170.481174 131.674305 
L 182.477999 129.181903 
L 194.474824 144.136315 
L 206.471648 143.305514 
L 218.468473 147.044117 
L 230.465298 143.513215 
L 242.462123 141.020813 
L 254.458948 142.890114 
L 266.455772 144.136315 
L 278.452597 141.643913 
L 290.449422 142.890114 
L 302.446247 141.643913 
L 314.443072 145.382516 
L 326.439896 147.044117 
L 338.436721 145.174816 
L 350.433546 143.513215 
L 362.430371 222.646978 
L 374.427196 227.008682 
L 386.42402 225.762481 
L 398.420845 226.385581 
L 410.41767 226.385581 
L 422.414495 226.385581 
L 434.41132 225.13938 
L 446.408144 227.008682 
L 458.404969 225.13938 
L 470.401794 227.008682 
L 482.398619 225.13938 
L 494.395444 224.51628 
L 506.392268 225.13938 
" style="fill:none;stroke:#0000ff;"/>
    <defs>
     <path d="M 0 2 
C 0.530406 2 1.03916 1.789267 1.414214 1.414214 
C 1.789267 1.03916 2 0.530406 2 0 
C 2 -0.530406 1.789267 -1.03916 1.414214 -1.414214 
C 1.03916 -1.789267 0.530406 -2 0 -2 
C -0.530406 -2 -1.03916 -1.789267 -1.414214 -1.414214 
C -1.789267 -1.03916 -2 -0.530406 -2 0 
C -2 0.530406 -1.789267 1.03916 -1.414214 1.414214 
C -1.03916 1.789267 -0.530406 2 0 2 
z
" id="m77e3748688" style="stroke:#0000ff;"/>
    </defs>
    <g clip-path="url(#p07b0e54f9e)">
     <use style="fill:#0000ff;stroke:#0000ff;" x="62.509751" xlink:href="#m77e3748688" y="44.862995"/>
     <use style="fill:#0000ff;stroke:#0000ff;" x="74.506576" xlink:href="#m77e3748688" y="40.708984"/>
     <use style="fill:#0000ff;stroke:#0000ff;" x="86.5034" xlink:href="#m77e3748688" y="32.239618"/>
     <use style="fill:#0000ff;stroke:#0000ff;" x="98.500225" xlink:href="#m77e3748688" y="37.617818"/>
     <use style="fill:#0000ff;stroke:#0000ff;" x="110.49705" xlink:href="#m77e3748688" y="108.411886"/>
     <use style="fill:#0000ff;stroke:#0000ff;" x="122.493875" xlink:href="#m77e3748688" y="127.520302"/>
     <use style="fill:#0000ff;stroke:#0000ff;" x="134.4907" xlink:href="#m77e3748688" y="128.766503"/>
     <use style="fill:#0000ff;stroke:#0000ff;" x="146.487524" xlink:href="#m77e3748688" y="127.520302"/>
     <use style="fill:#0000ff;stroke:#0000ff;" x="158.484349" xlink:href="#m77e3748688" y="129.805004"/>
     <use style="fill:#0000ff;stroke:#0000ff;" x="170.481174" xlink:href="#m77e3748688" y="131.674305"/>
     <use style="fill:#0000ff;stroke:#0000ff;" x="182.477999" xlink:href="#m77e3748688" y="129.181903"/>
     <use style="fill:#0000ff;stroke:#0000ff;" x="194.474824" xlink:href="#m77e3748688" y="144.136315"/>
     <use style="fill:#0000ff;stroke:#0000ff;" x="206.471648" xlink:href="#m77e3748688" y="143.305514"/>
     <use style="fill:#0000ff;stroke:#0000ff;" x="218.468473" xlink:href="#m77e3748688" y="147.044117"/>
     <use style="fill:#0000ff;stroke:#0000ff;" x="230.465298" xlink:href="#m77e3748688" y="143.513215"/>
     <use style="fill:#0000ff;stroke:#0000ff;" x="242.462123" xlink:href="#m77e3748688" y="141.020813"/>
     <use style="fill:#0000ff;stroke:#0000ff;" x="254.458948" xlink:href="#m77e3748688" y="142.890114"/>
     <use style="fill:#0000ff;stroke:#0000ff;" x="266.455772" xlink:href="#m77e3748688" y="144.136315"/>
     <use style="fill:#0000ff;stroke:#0000ff;" x="278.452597" xlink:href="#m77e3748688" y="141.643913"/>
     <use style="fill:#0000ff;stroke:#0000ff;" x="290.449422" xlink:href="#m77e3748688" y="142.890114"/>
     <use style="fill:#0000ff;stroke:#0000ff;" x="302.446247" xlink:href="#m77e3748688" y="141.643913"/>
     <use style="fill:#0000ff;stroke:#0000ff;" x="314.443072" xlink:href="#m77e3748688" y="145.382516"/>
     <use style="fill:#0000ff;stroke:#0000ff;" x="326.439896" xlink:href="#m77e3748688" y="147.044117"/>
     <use style="fill:#0000ff;stroke:#0000ff;" x="338.436721" xlink:href="#m77e3748688" y="145.174816"/>
     <use style="fill:#0000ff;stroke:#0000ff;" x="350.433546" xlink:href="#m77e3748688" y="143.513215"/>
     <use style="fill:#0000ff;stroke:#0000ff;" x="362.430371" xlink:href="#m77e3748688" y="222.646978"/>
     <use style="fill:#0000ff;stroke:#0000ff;" x="374.427196" xlink:href="#m77e3748688" y="227.008682"/>
     <use style="fill:#0000ff;stroke:#0000ff;" x="386.42402" xlink:href="#m77e3748688" y="225.762481"/>
     <use style="fill:#0000ff;stroke:#0000ff;" x="398.420845" xlink:href="#m77e3748688" y="226.385581"/>
     <use style="fill:#0000ff;stroke:#0000ff;" x="410.41767" xlink:href="#m77e3748688" y="226.385581"/>
     <use style="fill:#0000ff;stroke:#0000ff;" x="422.414495" xlink:href="#m77e3748688" y="226.385581"/>
     <use style="fill:#0000ff;stroke:#0000ff;" x="434.41132" xlink:href="#m77e3748688" y="225.13938"/>
     <use style="fill:#0000ff;stroke:#0000ff;" x="446.408144" xlink:href="#m77e3748688" y="227.008682"/>
     <use style="fill:#0000ff;stroke:#0000ff;" x="458.404969" xlink:href="#m77e3748688" y="225.13938"/>
     <use style="fill:#0000ff;stroke:#0000ff;" x="470.401794" xlink:href="#m77e3748688" y="227.008682"/>
     <use style="fill:#0000ff;stroke:#0000ff;" x="482.398619" xlink:href="#m77e3748688" y="225.13938"/>
     <use style="fill:#0000ff;stroke:#0000ff;" x="494.395444" xlink:href="#m77e3748688" y="224.51628"/>
     <use style="fill:#0000ff;stroke:#0000ff;" x="506.392268" xlink:href="#m77e3748688" y="225.13938"/>
    </g>
   </g>
   <g id="line2d_104">
    <path clip-path="url(#p07b0e54f9e)" d="M 62.509751 209.146467 
L 74.506576 208.523367 
L 86.5034 207.900266 
L 98.500225 207.277166 
L 110.49705 186.92255 
L 122.493875 195.022856 
L 134.4907 198.761459 
L 146.487524 198.761459 
L 158.484349 198.138359 
L 170.481174 197.515258 
L 182.477999 196.892158 
L 194.474824 218.908375 
L 206.471648 217.039074 
L 218.468473 219.531476 
L 230.465298 217.662174 
L 242.462123 218.285275 
L 254.458948 218.908375 
L 266.455772 219.531476 
L 278.452597 218.285275 
L 290.449422 218.285275 
L 302.446247 218.908375 
L 314.443072 217.662174 
L 326.439896 218.077575 
L 338.436721 218.285275 
L 350.433546 218.285275 
L 362.430371 229.708784 
L 374.427196 232.824286 
L 386.42402 232.201186 
L 398.420845 230.747285 
L 410.41767 232.408886 
L 422.414495 230.954985 
L 434.41132 230.747285 
L 446.408144 230.747285 
L 458.404969 230.124184 
L 470.401794 231.785786 
L 482.398619 230.747285 
L 494.395444 233.031987 
L 506.392268 229.708784 
" style="fill:none;stroke:#bc141a;"/>
    <defs>
     <path d="M 0 2 
C 0.530406 2 1.03916 1.789267 1.414214 1.414214 
C 1.789267 1.03916 2 0.530406 2 0 
C 2 -0.530406 1.789267 -1.03916 1.414214 -1.414214 
C 1.03916 -1.789267 0.530406 -2 0 -2 
C -0.530406 -2 -1.03916 -1.789267 -1.414214 -1.414214 
C -1.789267 -1.03916 -2 -0.530406 -2 0 
C -2 0.530406 -1.789267 1.03916 -1.414214 1.414214 
C -1.03916 1.789267 -0.530406 2 0 2 
z
" id="m93f050558e" style="stroke:#bc141a;"/>
    </defs>
    <g clip-path="url(#p07b0e54f9e)">
     <use style="fill:#bc141a;stroke:#bc141a;" x="62.509751" xlink:href="#m93f050558e" y="209.146467"/>
     <use style="fill:#bc141a;stroke:#bc141a;" x="74.506576" xlink:href="#m93f050558e" y="208.523367"/>
     <use style="fill:#bc141a;stroke:#bc141a;" x="86.5034" xlink:href="#m93f050558e" y="207.900266"/>
     <use style="fill:#bc141a;stroke:#bc141a;" x="98.500225" xlink:href="#m93f050558e" y="207.277166"/>
     <use style="fill:#bc141a;stroke:#bc141a;" x="110.49705" xlink:href="#m93f050558e" y="186.92255"/>
     <use style="fill:#bc141a;stroke:#bc141a;" x="122.493875" xlink:href="#m93f050558e" y="195.022856"/>
     <use style="fill:#bc141a;stroke:#bc141a;" x="134.4907" xlink:href="#m93f050558e" y="198.761459"/>
     <use style="fill:#bc141a;stroke:#bc141a;" x="146.487524" xlink:href="#m93f050558e" y="198.761459"/>
     <use style="fill:#bc141a;stroke:#bc141a;" x="158.484349" xlink:href="#m93f050558e" y="198.138359"/>
     <use style="fill:#bc141a;stroke:#bc141a;" x="170.481174" xlink:href="#m93f050558e" y="197.515258"/>
     <use style="fill:#bc141a;stroke:#bc141a;" x="182.477999" xlink:href="#m93f050558e" y="196.892158"/>
     <use style="fill:#bc141a;stroke:#bc141a;" x="194.474824" xlink:href="#m93f050558e" y="218.908375"/>
     <use style="fill:#bc141a;stroke:#bc141a;" x="206.471648" xlink:href="#m93f050558e" y="217.039074"/>
     <use style="fill:#bc141a;stroke:#bc141a;" x="218.468473" xlink:href="#m93f050558e" y="219.531476"/>
     <use style="fill:#bc141a;stroke:#bc141a;" x="230.465298" xlink:href="#m93f050558e" y="217.662174"/>
     <use style="fill:#bc141a;stroke:#bc141a;" x="242.462123" xlink:href="#m93f050558e" y="218.285275"/>
     <use style="fill:#bc141a;stroke:#bc141a;" x="254.458948" xlink:href="#m93f050558e" y="218.908375"/>
     <use style="fill:#bc141a;stroke:#bc141a;" x="266.455772" xlink:href="#m93f050558e" y="219.531476"/>
     <use style="fill:#bc141a;stroke:#bc141a;" x="278.452597" xlink:href="#m93f050558e" y="218.285275"/>
     <use style="fill:#bc141a;stroke:#bc141a;" x="290.449422" xlink:href="#m93f050558e" y="218.285275"/>
     <use style="fill:#bc141a;stroke:#bc141a;" x="302.446247" xlink:href="#m93f050558e" y="218.908375"/>
     <use style="fill:#bc141a;stroke:#bc141a;" x="314.443072" xlink:href="#m93f050558e" y="217.662174"/>
     <use style="fill:#bc141a;stroke:#bc141a;" x="326.439896" xlink:href="#m93f050558e" y="218.077575"/>
     <use style="fill:#bc141a;stroke:#bc141a;" x="338.436721" xlink:href="#m93f050558e" y="218.285275"/>
     <use style="fill:#bc141a;stroke:#bc141a;" x="350.433546" xlink:href="#m93f050558e" y="218.285275"/>
     <use style="fill:#bc141a;stroke:#bc141a;" x="362.430371" xlink:href="#m93f050558e" y="229.708784"/>
     <use style="fill:#bc141a;stroke:#bc141a;" x="374.427196" xlink:href="#m93f050558e" y="232.824286"/>
     <use style="fill:#bc141a;stroke:#bc141a;" x="386.42402" xlink:href="#m93f050558e" y="232.201186"/>
     <use style="fill:#bc141a;stroke:#bc141a;" x="398.420845" xlink:href="#m93f050558e" y="230.747285"/>
     <use style="fill:#bc141a;stroke:#bc141a;" x="410.41767" xlink:href="#m93f050558e" y="232.408886"/>
     <use style="fill:#bc141a;stroke:#bc141a;" x="422.414495" xlink:href="#m93f050558e" y="230.954985"/>
     <use style="fill:#bc141a;stroke:#bc141a;" x="434.41132" xlink:href="#m93f050558e" y="230.747285"/>
     <use style="fill:#bc141a;stroke:#bc141a;" x="446.408144" xlink:href="#m93f050558e" y="230.747285"/>
     <use style="fill:#bc141a;stroke:#bc141a;" x="458.404969" xlink:href="#m93f050558e" y="230.124184"/>
     <use style="fill:#bc141a;stroke:#bc141a;" x="470.401794" xlink:href="#m93f050558e" y="231.785786"/>
     <use style="fill:#bc141a;stroke:#bc141a;" x="482.398619" xlink:href="#m93f050558e" y="230.747285"/>
     <use style="fill:#bc141a;stroke:#bc141a;" x="494.395444" xlink:href="#m93f050558e" y="233.031987"/>
     <use style="fill:#bc141a;stroke:#bc141a;" x="506.392268" xlink:href="#m93f050558e" y="229.708784"/>
    </g>
   </g>
   <g id="patch_3">
    <path d="M 40.315625 249.648 
L 40.315625 22.2 
" style="fill:none;"/>
   </g>
   <g id="patch_4">
    <path d="M 528.586394 249.648 
L 528.586394 22.2 
" style="fill:none;"/>
   </g>
   <g id="patch_5">
    <path d="M 40.315625 249.648 
L 528.586394 249.648 
" style="fill:none;"/>
   </g>
   <g id="patch_6">
    <path d="M 40.315625 22.2 
L 528.586394 22.2 
" style="fill:none;"/>
   </g>
   <g id="text_51">
    <!-- route lookup time -->
    <defs>
     <path d="M 33.734375 42 
Q 31.390625 42.390625 28.90625 42.390625 
Q 20.75 42.390625 17.921875 36.140625 
L 17.921875 0 
L 6.0625 0 
L 6.0625 52.828125 
L 17.390625 52.828125 
L 17.671875 46.921875 
Q 21.96875 53.8125 29.59375 53.8125 
Q 32.125 53.8125 33.796875 53.125 
z
" id="Roboto-Medium-72"/>
     <path d="M 3.859375 26.90625 
Q 3.859375 34.671875 6.9375 40.890625 
Q 10.015625 47.125 15.578125 50.46875 
Q 21.140625 53.8125 28.375 53.8125 
Q 39.0625 53.8125 45.71875 46.921875 
Q 52.390625 40.046875 52.9375 28.65625 
L 52.984375 25.875 
Q 52.984375 18.0625 49.96875 11.90625 
Q 46.96875 5.765625 41.375 2.390625 
Q 35.796875 -0.984375 28.46875 -0.984375 
Q 17.28125 -0.984375 10.5625 6.46875 
Q 3.859375 13.921875 3.859375 26.3125 
z
M 15.71875 25.875 
Q 15.71875 17.71875 19.09375 13.109375 
Q 22.46875 8.5 28.46875 8.5 
Q 34.46875 8.5 37.8125 13.1875 
Q 41.15625 17.875 41.15625 26.90625 
Q 41.15625 34.90625 37.71875 39.59375 
Q 34.28125 44.28125 28.375 44.28125 
Q 22.5625 44.28125 19.140625 39.671875 
Q 15.71875 35.0625 15.71875 25.875 
" id="Roboto-Medium-6f"/>
     <path d="M 38.09375 5.171875 
Q 32.859375 -0.984375 23.25 -0.984375 
Q 14.65625 -0.984375 10.234375 4.046875 
Q 5.8125 9.078125 5.8125 18.609375 
L 5.8125 52.828125 
L 17.671875 52.828125 
L 17.671875 18.75 
Q 17.671875 8.6875 26.03125 8.6875 
Q 34.671875 8.6875 37.703125 14.890625 
L 37.703125 52.828125 
L 49.5625 52.828125 
L 49.5625 0 
L 38.375 0 
z
" id="Roboto-Medium-75"/>
     <path d="M 20.953125 65.671875 
L 20.953125 52.828125 
L 30.28125 52.828125 
L 30.28125 44.046875 
L 20.953125 44.046875 
L 20.953125 14.546875 
Q 20.953125 11.53125 22.140625 10.1875 
Q 23.34375 8.84375 26.421875 8.84375 
Q 28.46875 8.84375 30.5625 9.328125 
L 30.5625 0.140625 
Q 26.515625 -0.984375 22.75 -0.984375 
Q 9.078125 -0.984375 9.078125 14.109375 
L 9.078125 44.046875 
L 0.390625 44.046875 
L 0.390625 52.828125 
L 9.078125 52.828125 
L 9.078125 65.671875 
z
" id="Roboto-Medium-74"/>
     <path d="M 29.34375 -0.984375 
Q 18.0625 -0.984375 11.046875 6.125 
Q 4.046875 13.234375 4.046875 25.046875 
L 4.046875 26.515625 
Q 4.046875 34.421875 7.09375 40.640625 
Q 10.15625 46.875 15.671875 50.34375 
Q 21.1875 53.8125 27.984375 53.8125 
Q 38.765625 53.8125 44.640625 46.921875 
Q 50.53125 40.046875 50.53125 27.4375 
L 50.53125 22.65625 
L 16.015625 22.65625 
Q 16.546875 16.109375 20.375 12.296875 
Q 24.21875 8.5 30.03125 8.5 
Q 38.1875 8.5 43.3125 15.09375 
L 49.703125 8.984375 
Q 46.53125 4.25 41.234375 1.625 
Q 35.9375 -0.984375 29.34375 -0.984375 
M 27.9375 44.28125 
Q 23.046875 44.28125 20.046875 40.859375 
Q 17.046875 37.453125 16.21875 31.34375 
L 38.8125 31.34375 
L 38.8125 32.234375 
Q 38.421875 38.1875 35.640625 41.234375 
Q 32.859375 44.28125 27.9375 44.28125 
" id="Roboto-Medium-65"/>
     <path id="Roboto-Medium-20"/>
     <path d="M 18.703125 0 
L 6.84375 0 
L 6.84375 75 
L 18.703125 75 
z
" id="Roboto-Medium-6c"/>
     <path d="M 23.25 22.65625 
L 17.96875 17.234375 
L 17.96875 0 
L 6.109375 0 
L 6.109375 75 
L 17.96875 75 
L 17.96875 31.734375 
L 21.6875 36.375 
L 36.28125 52.828125 
L 50.53125 52.828125 
L 30.90625 30.8125 
L 52.640625 0 
L 38.921875 0 
z
" id="Roboto-Medium-6b"/>
     <path d="M 52.34375 25.875 
Q 52.34375 13.625 46.78125 6.3125 
Q 41.21875 -0.984375 31.84375 -0.984375 
Q 23.140625 -0.984375 17.921875 4.734375 
L 17.921875 -20.3125 
L 6.0625 -20.3125 
L 6.0625 52.828125 
L 17 52.828125 
L 17.484375 47.46875 
Q 22.703125 53.8125 31.6875 53.8125 
Q 41.359375 53.8125 46.84375 46.609375 
Q 52.34375 39.40625 52.34375 26.609375 
z
M 40.53125 26.90625 
Q 40.53125 34.8125 37.375 39.453125 
Q 34.234375 44.09375 28.375 44.09375 
Q 21.09375 44.09375 17.921875 38.09375 
L 17.921875 14.65625 
Q 21.140625 8.5 28.46875 8.5 
Q 34.125 8.5 37.328125 13.0625 
Q 40.53125 17.625 40.53125 26.90625 
" id="Roboto-Medium-70"/>
     <path d="M 18.703125 0 
L 6.84375 0 
L 6.84375 52.828125 
L 18.703125 52.828125 
z
M 6.109375 66.546875 
Q 6.109375 69.28125 7.84375 71.09375 
Q 9.578125 72.90625 12.796875 72.90625 
Q 16.015625 72.90625 17.765625 71.09375 
Q 19.53125 69.28125 19.53125 66.546875 
Q 19.53125 63.875 17.765625 62.078125 
Q 16.015625 60.296875 12.796875 60.296875 
Q 9.578125 60.296875 7.84375 62.078125 
Q 6.109375 63.875 6.109375 66.546875 
" id="Roboto-Medium-69"/>
     <path d="M 17.234375 52.828125 
L 17.578125 47.3125 
Q 23.140625 53.8125 32.8125 53.8125 
Q 43.40625 53.8125 47.3125 45.703125 
Q 53.078125 53.8125 63.53125 53.8125 
Q 72.265625 53.8125 76.53125 48.96875 
Q 80.8125 44.140625 80.90625 34.71875 
L 80.90625 0 
L 69.046875 0 
L 69.046875 34.375 
Q 69.046875 39.40625 66.84375 41.75 
Q 64.65625 44.09375 59.578125 44.09375 
Q 55.515625 44.09375 52.953125 41.921875 
Q 50.390625 39.75 49.359375 36.234375 
L 49.421875 0 
L 37.546875 0 
L 37.546875 34.765625 
Q 37.3125 44.09375 28.03125 44.09375 
Q 20.90625 44.09375 17.921875 38.28125 
L 17.921875 0 
L 6.0625 0 
L 6.0625 52.828125 
z
" id="Roboto-Medium-6d"/>
    </defs>
    <g transform="translate(237.213197 16.2)scale(0.12 -0.12)">
     <use xlink:href="#Roboto-Medium-72"/>
     <use x="35.15625" xlink:href="#Roboto-Medium-6f"/>
     <use x="92.089844" xlink:href="#Roboto-Medium-75"/>
     <use x="147.65625" xlink:href="#Roboto-Medium-74"/>
     <use x="180.908203" xlink:href="#Roboto-Medium-65"/>
     <use x="234.570312" xlink:href="#Roboto-Medium-20"/>
     <use x="259.472656" xlink:href="#Roboto-Medium-6c"/>
     <use x="285.009766" xlink:href="#Roboto-Medium-6f"/>
     <use x="341.943359" xlink:href="#Roboto-Medium-6f"/>
     <use x="398.876953" xlink:href="#Roboto-Medium-6b"/>
     <use x="451.074219" xlink:href="#Roboto-Medium-75"/>
     <use x="506.640625" xlink:href="#Roboto-Medium-70"/>
     <use x="562.939453" xlink:href="#Roboto-Medium-20"/>
     <use x="587.841797" xlink:href="#Roboto-Medium-74"/>
     <use x="621.09375" xlink:href="#Roboto-Medium-69"/>
     <use x="646.630859" xlink:href="#Roboto-Medium-6d"/>
     <use x="733.642578" xlink:href="#Roboto-Medium-65"/>
    </g>
   </g>
   <g id="legend_1">
    <g id="patch_7">
     <path d="M 430.545769 59.365625 
L 521.586394 59.365625 
Q 523.586394 59.365625 523.586394 57.365625 
L 523.586394 29.2 
Q 523.586394 27.2 521.586394 27.2 
L 430.545769 27.2 
Q 428.545769 27.2 428.545769 29.2 
L 428.545769 57.365625 
Q 428.545769 59.365625 430.545769 59.365625 
z
" style="fill:#ffffff;opacity:0.8;stroke:#cccccc;stroke-linejoin:miter;stroke-width:0.5;"/>
    </g>
    <g id="line2d_105">
     <path d="M 432.545769 35.2 
L 452.545769 35.2 
" style="fill:none;stroke:#0000ff;"/>
    </g>
    <g id="line2d_106">
     <g>
      <use style="fill:#0000ff;stroke:#0000ff;" x="442.545769" xlink:href="#m77e3748688" y="35.2"/>
     </g>
    </g>
    <g id="text_52">
     <!-- from full view -->
     <defs>
      <path d="M 11.8125 0 
L 11.8125 48.046875 
L 3.078125 48.046875 
L 3.078125 52.828125 
L 11.8125 52.828125 
L 11.8125 59.234375 
Q 11.8125 67.328125 15.9375 71.671875 
Q 20.0625 76.03125 27.4375 76.03125 
Q 30.765625 76.03125 33.640625 75.203125 
L 33.203125 70.3125 
Q 30.765625 70.90625 27.875 70.90625 
Q 23.046875 70.90625 20.359375 67.890625 
Q 17.671875 64.890625 17.671875 59.375 
L 17.671875 52.828125 
L 30.28125 52.828125 
L 30.28125 48.046875 
L 17.671875 48.046875 
L 17.671875 0 
z
" id="Roboto-Light-66"/>
      <path d="M 32.03125 47.859375 
Q 30.171875 48.1875 28.078125 48.1875 
Q 22.609375 48.1875 18.828125 45.140625 
Q 15.046875 42.09375 13.421875 36.28125 
L 13.421875 0 
L 7.625 0 
L 7.625 52.828125 
L 13.328125 52.828125 
L 13.421875 44.4375 
Q 18.0625 53.8125 28.328125 53.8125 
Q 30.765625 53.8125 32.171875 53.171875 
z
" id="Roboto-Light-72"/>
      <path d="M 4.390625 27.203125 
Q 4.390625 34.8125 7.34375 40.90625 
Q 10.296875 47.015625 15.6875 50.40625 
Q 21.09375 53.8125 27.9375 53.8125 
Q 38.484375 53.8125 45.015625 46.40625 
Q 51.5625 39.015625 51.5625 26.8125 
L 51.5625 25.59375 
Q 51.5625 17.921875 48.609375 11.796875 
Q 45.65625 5.671875 40.28125 2.34375 
Q 34.90625 -0.984375 28.03125 -0.984375 
Q 17.53125 -0.984375 10.953125 6.40625 
Q 4.390625 13.8125 4.390625 26.03125 
z
M 10.25 25.59375 
Q 10.25 16.109375 15.15625 10.03125 
Q 20.0625 3.953125 28.03125 3.953125 
Q 35.9375 3.953125 40.84375 10.03125 
Q 45.75 16.109375 45.75 26.078125 
L 45.75 27.203125 
Q 45.75 33.25 43.5 38.28125 
Q 41.265625 43.3125 37.203125 46.0625 
Q 33.15625 48.828125 27.9375 48.828125 
Q 20.125 48.828125 15.1875 42.703125 
Q 10.25 36.578125 10.25 26.65625 
z
" id="Roboto-Light-6f"/>
      <path d="M 12.9375 52.828125 
L 13.140625 44.234375 
Q 16.0625 49.03125 20.453125 51.421875 
Q 24.859375 53.8125 30.21875 53.8125 
Q 42.71875 53.8125 46.09375 43.5625 
Q 48.921875 48.484375 53.65625 51.140625 
Q 58.40625 53.8125 64.109375 53.8125 
Q 81.109375 53.8125 81.453125 35.25 
L 81.453125 0 
L 75.59375 0 
L 75.59375 34.8125 
Q 75.53125 41.890625 72.53125 45.3125 
Q 69.53125 48.734375 62.75 48.734375 
Q 56.453125 48.640625 52.09375 44.65625 
Q 47.75 40.671875 47.265625 34.96875 
L 47.265625 0 
L 41.40625 0 
L 41.40625 35.25 
Q 41.359375 42.046875 38.203125 45.390625 
Q 35.0625 48.734375 28.515625 48.734375 
Q 23 48.734375 19.046875 45.578125 
Q 15.09375 42.4375 13.1875 36.234375 
L 13.1875 0 
L 7.328125 0 
L 7.328125 52.828125 
z
" id="Roboto-Light-6d"/>
      <path d="M 41.609375 6.6875 
Q 36.328125 -0.984375 24.75 -0.984375 
Q 16.3125 -0.984375 11.90625 3.921875 
Q 7.515625 8.84375 7.421875 18.453125 
L 7.421875 52.828125 
L 13.234375 52.828125 
L 13.234375 19.1875 
Q 13.234375 4.109375 25.4375 4.109375 
Q 38.140625 4.109375 41.5 14.59375 
L 41.5 52.828125 
L 47.359375 52.828125 
L 47.359375 0 
L 41.703125 0 
z
" id="Roboto-Light-75"/>
      <path d="M 14.15625 0 
L 8.296875 0 
L 8.296875 75 
L 14.15625 75 
z
" id="Roboto-Light-6c"/>
      <path d="M 24.078125 8.0625 
L 40.140625 52.828125 
L 46.140625 52.828125 
L 26.421875 0 
L 21.6875 0 
L 1.859375 52.828125 
L 7.859375 52.828125 
z
" id="Roboto-Light-76"/>
      <path d="M 14.15625 0 
L 8.296875 0 
L 8.296875 52.828125 
L 14.15625 52.828125 
z
M 7.28125 68.109375 
Q 7.28125 69.78125 8.34375 70.921875 
Q 9.421875 72.078125 11.28125 72.078125 
Q 13.140625 72.078125 14.234375 70.921875 
Q 15.328125 69.78125 15.328125 68.109375 
Q 15.328125 66.453125 14.234375 65.328125 
Q 13.140625 64.203125 11.28125 64.203125 
Q 9.421875 64.203125 8.34375 65.328125 
Q 7.28125 66.453125 7.28125 68.109375 
" id="Roboto-Light-69"/>
      <path d="M 28.078125 -0.984375 
Q 21.34375 -0.984375 15.890625 2.34375 
Q 10.453125 5.671875 7.421875 11.59375 
Q 4.390625 17.53125 4.390625 24.90625 
L 4.390625 27 
Q 4.390625 34.625 7.34375 40.71875 
Q 10.296875 46.828125 15.5625 50.3125 
Q 20.84375 53.8125 27 53.8125 
Q 36.625 53.8125 42.265625 47.234375 
Q 47.90625 40.671875 47.90625 29.296875 
L 47.90625 26.03125 
L 10.203125 26.03125 
L 10.203125 24.90625 
Q 10.203125 15.921875 15.359375 9.9375 
Q 20.515625 3.953125 28.328125 3.953125 
Q 33.015625 3.953125 36.59375 5.65625 
Q 40.1875 7.375 43.109375 11.140625 
L 46.78125 8.34375 
Q 40.328125 -0.984375 28.078125 -0.984375 
M 27 48.828125 
Q 20.40625 48.828125 15.890625 43.984375 
Q 11.375 39.15625 10.40625 31 
L 42.09375 31 
L 42.09375 31.640625 
Q 41.84375 39.265625 37.734375 44.046875 
Q 33.640625 48.828125 27 48.828125 
" id="Roboto-Light-65"/>
      <path d="M 20.265625 12.15625 
L 21.140625 7.625 
L 22.3125 12.40625 
L 35.015625 52.828125 
L 39.984375 52.828125 
L 52.546875 12.75 
L 53.90625 7.171875 
L 55.03125 12.3125 
L 65.875 52.828125 
L 71.921875 52.828125 
L 56.546875 0 
L 51.5625 0 
L 37.984375 41.890625 
L 37.359375 44.78125 
L 36.71875 41.84375 
L 23.390625 0 
L 18.40625 0 
L 3.078125 52.828125 
L 9.078125 52.828125 
z
" id="Roboto-Light-77"/>
     </defs>
     <g transform="translate(460.545769 38.7)scale(0.1 -0.1)">
      <use xlink:href="#Roboto-Light-66"/>
      <use x="33.105469" xlink:href="#Roboto-Light-72"/>
      <use x="66.748047" xlink:href="#Roboto-Light-6f"/>
      <use x="122.753906" xlink:href="#Roboto-Light-6d"/>
      <use x="211.376953" xlink:href="#Roboto-Light-20"/>
      <use x="235.693359" xlink:href="#Roboto-Light-66"/>
      <use x="268.798828" xlink:href="#Roboto-Light-75"/>
      <use x="323.730469" xlink:href="#Roboto-Light-6c"/>
      <use x="346.142578" xlink:href="#Roboto-Light-6c"/>
      <use x="368.554688" xlink:href="#Roboto-Light-20"/>
      <use x="392.871094" xlink:href="#Roboto-Light-76"/>
      <use x="440.966797" xlink:href="#Roboto-Light-69"/>
      <use x="463.378906" xlink:href="#Roboto-Light-65"/>
      <use x="515.039062" xlink:href="#Roboto-Light-77"/>
     </g>
    </g>
    <g id="line2d_107">
     <path d="M 432.545769 49.73125 
L 452.545769 49.73125 
" style="fill:none;stroke:#bc141a;"/>
    </g>
    <g id="line2d_108">
     <g>
      <use style="fill:#bc141a;stroke:#bc141a;" x="442.545769" xlink:href="#m93f050558e" y="49.73125"/>
     </g>
    </g>
    <g id="text_53">
     <!-- /32, density 1 -->
     <defs>
      <path d="M 6.78125 -6.109375 
L 1.46875 -6.109375 
L 31.15625 71.09375 
L 36.421875 71.09375 
z
" id="Roboto-Light-2f"/>
      <path d="M 6.390625 -13.28125 
L 2.9375 -10.75 
Q 7.375 -4.78125 7.515625 1.609375 
L 7.515625 9.1875 
L 13.234375 9.1875 
L 13.234375 3.078125 
Q 13.234375 -7.078125 6.390625 -13.28125 
" id="Roboto-Light-2c"/>
      <path d="M 5.28125 26.90625 
Q 5.28125 39.203125 10.765625 46.5 
Q 16.265625 53.8125 25.6875 53.8125 
Q 36.375 53.8125 42 45.359375 
L 42 75 
L 47.796875 75 
L 47.796875 0 
L 42.328125 0 
L 42.09375 7.03125 
Q 36.46875 -0.984375 25.59375 -0.984375 
Q 16.453125 -0.984375 10.859375 6.359375 
Q 5.28125 13.71875 5.28125 26.21875 
z
M 11.1875 25.875 
Q 11.1875 15.765625 15.234375 9.9375 
Q 19.28125 4.109375 26.65625 4.109375 
Q 37.453125 4.109375 42 13.625 
L 42 38.421875 
Q 37.453125 48.734375 26.765625 48.734375 
Q 19.390625 48.734375 15.28125 42.9375 
Q 11.1875 37.15625 11.1875 25.875 
" id="Roboto-Light-64"/>
      <path d="M 16.703125 66.359375 
L 16.703125 52.828125 
L 27.640625 52.828125 
L 27.640625 48.046875 
L 16.703125 48.046875 
L 16.703125 12.84375 
Q 16.703125 8.453125 18.28125 6.296875 
Q 19.875 4.15625 23.578125 4.15625 
Q 25.046875 4.15625 28.328125 4.640625 
L 28.5625 -0.140625 
Q 26.265625 -0.984375 22.3125 -0.984375 
Q 16.3125 -0.984375 13.578125 2.5 
Q 10.84375 6 10.84375 12.796875 
L 10.84375 48.046875 
L 1.125 48.046875 
L 1.125 52.828125 
L 10.84375 52.828125 
L 10.84375 66.359375 
z
" id="Roboto-Light-74"/>
      <path d="M 24.359375 8.40625 
L 39.796875 52.828125 
L 46.09375 52.828125 
L 23.53125 -8.984375 
L 22.359375 -11.71875 
Q 18.015625 -21.34375 8.9375 -21.34375 
Q 6.84375 -21.34375 4.4375 -20.65625 
L 4.390625 -15.828125 
L 7.421875 -16.109375 
Q 11.71875 -16.109375 14.375 -13.984375 
Q 17.046875 -11.859375 18.890625 -6.6875 
L 21.484375 0.4375 
L 1.5625 52.828125 
L 7.953125 52.828125 
z
" id="Roboto-Light-79"/>
     </defs>
     <g transform="translate(460.545769 53.23125)scale(0.1 -0.1)">
      <use xlink:href="#Roboto-Light-2f"/>
      <use x="39.697266" xlink:href="#Roboto-Light-33"/>
      <use x="95.117188" xlink:href="#Roboto-Light-32"/>
      <use x="150.537109" xlink:href="#Roboto-Light-2c"/>
      <use x="169.677734" xlink:href="#Roboto-Light-20"/>
      <use x="193.994141" xlink:href="#Roboto-Light-64"/>
      <use x="249.560547" xlink:href="#Roboto-Light-65"/>
      <use x="301.220703" xlink:href="#Roboto-Light-6e"/>
      <use x="356.152344" xlink:href="#Roboto-Light-73"/>
      <use x="406.787109" xlink:href="#Roboto-Light-69"/>
      <use x="429.199219" xlink:href="#Roboto-Light-74"/>
      <use x="461.328125" xlink:href="#Roboto-Light-79"/>
      <use x="508.837891" xlink:href="#Roboto-Light-20"/>
      <use x="533.154297" xlink:href="#Roboto-Light-31"/>
     </g>
    </g>
   </g>
  </g>
 </g>
 <defs>
  <clipPath id="p07b0e54f9e">
   <rect height="227.448" width="488.270769" x="40.315625" y="22.2"/>
  </clipPath>
 </defs>
</svg>
