<?xml version="1.0" encoding="utf-8" standalone="no"?>
<!DOCTYPE svg PUBLIC "-//W3C//DTD SVG 1.1//EN"
  "http://www.w3.org/Graphics/SVG/1.1/DTD/svg11.dtd">
<!-- Created with matplotlib (http://matplotlib.org/) -->
<svg height="217pt" version="1.1" viewBox="0 0 375 217" width="375pt" xmlns="http://www.w3.org/2000/svg" xmlns:xlink="http://www.w3.org/1999/xlink">
 <defs>
  <style type="text/css">
*{stroke-linecap:butt;stroke-linejoin:round;}
  </style>
 </defs>
 <g id="figure_1">
  <g id="patch_1">
   <path d="M 0 217.39125 
L 375.13375 217.39125 
L 375.13375 -0 
L 0 -0 
z
" style="fill:#ffffff;"/>
  </g>
  <g id="axes_1">
   <g id="patch_2">
    <path d="M 29.279688 197.16 
L 228.588778 197.16 
L 228.588778 22.2 
L 29.279688 22.2 
z
" style="fill:#ffffff;"/>
   </g>
   <g id="line2d_1">
    <path clip-path="url(#ped709a2e68)" d="M 38.339192 185.794533 
L 92.401397 185.686325 
L 104.278707 185.578118 
L 120.283172 185.253494 
L 130.639303 184.820662 
L 138.447656 184.279623 
L 144.760378 183.630375 
L 150.076342 182.87292 
L 154.675671 182.007256 
L 158.732874 181.033385 
L 162.364641 179.951306 
L 165.923949 178.652811 
L 169.113413 177.246108 
L 172.00798 175.731197 
L 174.824671 173.99987 
L 177.396432 172.160336 
L 179.8888 170.104385 
L 182.289047 167.832019 
L 184.591873 165.343237 
L 186.796629 162.638039 
L 188.978957 159.608218 
L 191.118252 156.253772 
L 193.201542 152.574703 
L 195.272814 148.462802 
L 197.311881 143.91807 
L 199.346356 138.832298 
L 201.355018 133.205486 
L 203.356187 126.929427 
L 205.359655 119.895912 
L 207.343173 112.104942 
L 209.314761 103.448309 
L 211.278055 93.817804 
L 213.252415 82.997013 
L 214.145163 77.694825 
L 214.145163 77.694825 
" style="fill:none;opacity:0.2;stroke:#0000ff;"/>
   </g>
   <g id="matplotlib.axis_1">
    <g id="xtick_1">
     <g id="line2d_2">
      <path clip-path="url(#ped709a2e68)" d="M 38.339192 197.16 
L 38.339192 22.2 
" style="fill:none;stroke:#cbcbcb;stroke-width:0.75;"/>
     </g>
     <g id="line2d_3"/>
     <g id="text_1">
      <!-- 100 -->
      <defs>
       <path d="M 33.890625 0 
L 28.03125 0 
L 28.03125 64.0625 
L 8.6875 56.890625 
L 8.6875 62.359375 
L 32.90625 71.34375 
L 33.890625 71.34375 
z
" id="Roboto-Light-31"/>
       <path d="M 49.5625 29.640625 
Q 49.5625 14.59375 44.046875 6.796875 
Q 38.53125 -0.984375 27.78125 -0.984375 
Q 17.234375 -0.984375 11.609375 6.65625 
Q 6 14.3125 5.859375 28.90625 
L 5.859375 41.65625 
Q 5.859375 56.640625 11.421875 64.359375 
Q 17 72.078125 27.6875 72.078125 
Q 38.234375 72.078125 43.796875 64.625 
Q 49.359375 57.171875 49.5625 42.671875 
z
M 43.703125 42.390625 
Q 43.703125 54.59375 39.71875 60.84375 
Q 35.75 67.09375 27.6875 67.09375 
Q 19.78125 67.09375 15.765625 60.984375 
Q 11.765625 54.890625 11.671875 42.96875 
L 11.671875 29 
Q 11.671875 16.84375 15.796875 10.390625 
Q 19.921875 3.953125 27.78125 3.953125 
Q 35.59375 3.953125 39.625 10.25 
Q 43.65625 16.546875 43.703125 28.71875 
z
" id="Roboto-Light-30"/>
      </defs>
      <g transform="translate(30.02591 208.16)scale(0.1 -0.1)">
       <use xlink:href="#Roboto-Light-31"/>
       <use x="55.419922" xlink:href="#Roboto-Light-30"/>
       <use x="110.839844" xlink:href="#Roboto-Light-30"/>
      </g>
     </g>
    </g>
    <g id="xtick_2">
     <g id="line2d_4">
      <path clip-path="url(#ped709a2e68)" d="M 79.21451 197.16 
L 79.21451 22.2 
" style="fill:none;stroke:#cbcbcb;stroke-width:0.75;"/>
     </g>
     <g id="line2d_5"/>
     <g id="text_2">
      <!-- 1 k -->
      <defs>
       <path id="Roboto-Light-20"/>
       <path d="M 20.171875 26.609375 
L 13.484375 20.171875 
L 13.484375 0 
L 7.625 0 
L 7.625 75 
L 13.484375 75 
L 13.484375 27 
L 19 32.953125 
L 39.203125 52.828125 
L 46.578125 52.828125 
L 24.171875 30.5625 
L 48.53125 0 
L 41.546875 0 
z
" id="Roboto-Light-6b"/>
      </defs>
      <g transform="translate(72.779354 208.16)scale(0.1 -0.1)">
       <use xlink:href="#Roboto-Light-31"/>
       <use x="55.419922" xlink:href="#Roboto-Light-20"/>
       <use x="79.736328" xlink:href="#Roboto-Light-6b"/>
      </g>
     </g>
    </g>
    <g id="xtick_3">
     <g id="line2d_6">
      <path clip-path="url(#ped709a2e68)" d="M 120.089829 197.16 
L 120.089829 22.2 
" style="fill:none;stroke:#cbcbcb;stroke-width:0.75;"/>
     </g>
     <g id="line2d_7"/>
     <g id="text_3">
      <!-- 10 k -->
      <g transform="translate(110.883579 208.16)scale(0.1 -0.1)">
       <use xlink:href="#Roboto-Light-31"/>
       <use x="55.419922" xlink:href="#Roboto-Light-30"/>
       <use x="110.839844" xlink:href="#Roboto-Light-20"/>
       <use x="135.15625" xlink:href="#Roboto-Light-6b"/>
      </g>
     </g>
    </g>
    <g id="xtick_4">
     <g id="line2d_8">
      <path clip-path="url(#ped709a2e68)" d="M 160.965147 197.16 
L 160.965147 22.2 
" style="fill:none;stroke:#cbcbcb;stroke-width:0.75;"/>
     </g>
     <g id="line2d_9"/>
     <g id="text_4">
      <!-- 100 k -->
      <g transform="translate(148.987803 208.16)scale(0.1 -0.1)">
       <use xlink:href="#Roboto-Light-31"/>
       <use x="55.419922" xlink:href="#Roboto-Light-30"/>
       <use x="110.839844" xlink:href="#Roboto-Light-30"/>
       <use x="166.259766" xlink:href="#Roboto-Light-20"/>
       <use x="190.576172" xlink:href="#Roboto-Light-6b"/>
      </g>
     </g>
    </g>
    <g id="xtick_5">
     <g id="line2d_10">
      <path clip-path="url(#ped709a2e68)" d="M 201.840466 197.16 
L 201.840466 22.2 
" style="fill:none;stroke:#cbcbcb;stroke-width:0.75;"/>
     </g>
     <g id="line2d_11"/>
     <g id="text_5">
      <!-- 1 M -->
      <defs>
       <path d="M 16.9375 71.09375 
L 43.171875 8.34375 
L 69.484375 71.09375 
L 77.484375 71.09375 
L 77.484375 0 
L 71.484375 0 
L 71.484375 30.953125 
L 71.96875 62.703125 
L 45.515625 0 
L 40.875 0 
L 14.5 62.453125 
L 14.984375 31.15625 
L 14.984375 0 
L 8.984375 0 
L 8.984375 71.09375 
z
" id="Roboto-Light-4d"/>
      </defs>
      <g transform="translate(193.527184 208.16)scale(0.1 -0.1)">
       <use xlink:href="#Roboto-Light-31"/>
       <use x="55.419922" xlink:href="#Roboto-Light-20"/>
       <use x="79.736328" xlink:href="#Roboto-Light-4d"/>
      </g>
     </g>
    </g>
    <g id="xtick_6">
     <g id="line2d_12"/>
    </g>
    <g id="xtick_7">
     <g id="line2d_13"/>
    </g>
    <g id="xtick_8">
     <g id="line2d_14"/>
    </g>
    <g id="xtick_9">
     <g id="line2d_15"/>
    </g>
    <g id="xtick_10">
     <g id="line2d_16"/>
    </g>
    <g id="xtick_11">
     <g id="line2d_17"/>
    </g>
    <g id="xtick_12">
     <g id="line2d_18"/>
    </g>
    <g id="xtick_13">
     <g id="line2d_19"/>
    </g>
    <g id="xtick_14">
     <g id="line2d_20"/>
    </g>
    <g id="xtick_15">
     <g id="line2d_21"/>
    </g>
    <g id="xtick_16">
     <g id="line2d_22"/>
    </g>
    <g id="xtick_17">
     <g id="line2d_23"/>
    </g>
    <g id="xtick_18">
     <g id="line2d_24"/>
    </g>
    <g id="xtick_19">
     <g id="line2d_25"/>
    </g>
    <g id="xtick_20">
     <g id="line2d_26"/>
    </g>
    <g id="xtick_21">
     <g id="line2d_27"/>
    </g>
    <g id="xtick_22">
     <g id="line2d_28"/>
    </g>
    <g id="xtick_23">
     <g id="line2d_29"/>
    </g>
    <g id="xtick_24">
     <g id="line2d_30"/>
    </g>
    <g id="xtick_25">
     <g id="line2d_31"/>
    </g>
    <g id="xtick_26">
     <g id="line2d_32"/>
    </g>
    <g id="xtick_27">
     <g id="line2d_33"/>
    </g>
    <g id="xtick_28">
     <g id="line2d_34"/>
    </g>
    <g id="xtick_29">
     <g id="line2d_35"/>
    </g>
    <g id="xtick_30">
     <g id="line2d_36"/>
    </g>
    <g id="xtick_31">
     <g id="line2d_37"/>
    </g>
    <g id="xtick_32">
     <g id="line2d_38"/>
    </g>
    <g id="xtick_33">
     <g id="line2d_39"/>
    </g>
    <g id="xtick_34">
     <g id="line2d_40"/>
    </g>
    <g id="xtick_35">
     <g id="line2d_41"/>
    </g>
    <g id="xtick_36">
     <g id="line2d_42"/>
    </g>
    <g id="xtick_37">
     <g id="line2d_43"/>
    </g>
    <g id="xtick_38">
     <g id="line2d_44"/>
    </g>
    <g id="xtick_39">
     <g id="line2d_45"/>
    </g>
    <g id="xtick_40">
     <g id="line2d_46"/>
    </g>
    <g id="xtick_41">
     <g id="line2d_47"/>
    </g>
    <g id="xtick_42">
     <g id="line2d_48"/>
    </g>
    <g id="xtick_43">
     <g id="line2d_49"/>
    </g>
    <g id="xtick_44">
     <g id="line2d_50"/>
    </g>
   </g>
   <g id="matplotlib.axis_2">
    <g id="ytick_1">
     <g id="line2d_51">
      <path clip-path="url(#ped709a2e68)" d="M 29.279688 185.799939 
L 228.588778 185.799939 
" style="fill:none;stroke:#cbcbcb;stroke-width:0.75;"/>
     </g>
     <g id="line2d_52"/>
     <g id="text_6">
      <!-- 0 s -->
      <defs>
       <path d="M 39.265625 13.421875 
Q 39.265625 17.78125 35.765625 20.40625 
Q 32.28125 23.046875 25.25 24.53125 
Q 18.21875 26.03125 14.328125 27.953125 
Q 10.453125 29.890625 8.5625 32.671875 
Q 6.6875 35.453125 6.6875 39.40625 
Q 6.6875 45.65625 11.90625 49.734375 
Q 17.140625 53.8125 25.296875 53.8125 
Q 34.125 53.8125 39.46875 49.4375 
Q 44.828125 45.0625 44.828125 38.03125 
L 38.96875 38.03125 
Q 38.96875 42.671875 35.078125 45.75 
Q 31.203125 48.828125 25.296875 48.828125 
Q 19.53125 48.828125 16.03125 46.265625 
Q 12.546875 43.703125 12.546875 39.59375 
Q 12.546875 35.640625 15.453125 33.46875 
Q 18.359375 31.296875 26.046875 29.484375 
Q 33.734375 27.6875 37.5625 25.625 
Q 41.40625 23.578125 43.265625 20.703125 
Q 45.125 17.828125 45.125 13.71875 
Q 45.125 7.03125 39.71875 3.015625 
Q 34.328125 -0.984375 25.640625 -0.984375 
Q 16.40625 -0.984375 10.671875 3.484375 
Q 4.9375 7.953125 4.9375 14.796875 
L 10.796875 14.796875 
Q 11.140625 9.671875 15.109375 6.8125 
Q 19.09375 3.953125 25.640625 3.953125 
Q 31.734375 3.953125 35.5 6.640625 
Q 39.265625 9.328125 39.265625 13.421875 
" id="Roboto-Light-73"/>
      </defs>
      <g transform="translate(12.742188 189.549939)scale(0.1 -0.1)">
       <use xlink:href="#Roboto-Light-30"/>
       <use x="55.419922" xlink:href="#Roboto-Light-20"/>
       <use x="79.736328" xlink:href="#Roboto-Light-73"/>
      </g>
     </g>
    </g>
    <g id="ytick_2">
     <g id="line2d_53">
      <path clip-path="url(#ped709a2e68)" d="M 29.279688 154.914156 
L 228.588778 154.914156 
" style="fill:none;stroke:#cbcbcb;stroke-width:0.75;"/>
     </g>
     <g id="line2d_54"/>
     <g id="text_7">
      <!-- 2 s -->
      <defs>
       <path d="M 51.21875 0 
L 6.6875 0 
L 6.6875 4.5 
L 31.0625 32.125 
Q 37.109375 39.109375 39.453125 43.640625 
Q 41.796875 48.1875 41.796875 52.484375 
Q 41.796875 59.234375 37.84375 63.15625 
Q 33.890625 67.09375 26.953125 67.09375 
Q 19.78125 67.09375 15.359375 62.5 
Q 10.9375 57.90625 10.9375 50.59375 
L 5.125 50.59375 
Q 5.125 56.59375 7.828125 61.515625 
Q 10.546875 66.453125 15.546875 69.265625 
Q 20.5625 72.078125 26.953125 72.078125 
Q 36.71875 72.078125 42.203125 66.9375 
Q 47.703125 61.8125 47.703125 52.984375 
Q 47.703125 48 44.59375 42.09375 
Q 41.5 36.1875 33.6875 27.34375 
L 13.875 4.9375 
L 51.21875 4.9375 
z
" id="Roboto-Light-32"/>
      </defs>
      <g transform="translate(12.742188 158.664156)scale(0.1 -0.1)">
       <use xlink:href="#Roboto-Light-32"/>
       <use x="55.419922" xlink:href="#Roboto-Light-20"/>
       <use x="79.736328" xlink:href="#Roboto-Light-73"/>
      </g>
     </g>
    </g>
    <g id="ytick_3">
     <g id="line2d_55">
      <path clip-path="url(#ped709a2e68)" d="M 29.279688 124.028372 
L 228.588778 124.028372 
" style="fill:none;stroke:#cbcbcb;stroke-width:0.75;"/>
     </g>
     <g id="line2d_56"/>
     <g id="text_8">
      <!-- 4 s -->
      <defs>
       <path d="M 42.578125 22.90625 
L 53.65625 22.90625 
L 53.65625 17.96875 
L 42.578125 17.96875 
L 42.578125 0 
L 36.71875 0 
L 36.71875 17.96875 
L 3.265625 17.96875 
L 3.265625 21.296875 
L 36.1875 71.09375 
L 42.578125 71.09375 
z
M 10.453125 22.90625 
L 36.71875 22.90625 
L 36.71875 63.53125 
L 34.125 59.03125 
z
" id="Roboto-Light-34"/>
      </defs>
      <g transform="translate(12.742188 127.778372)scale(0.1 -0.1)">
       <use xlink:href="#Roboto-Light-34"/>
       <use x="55.419922" xlink:href="#Roboto-Light-20"/>
       <use x="79.736328" xlink:href="#Roboto-Light-73"/>
      </g>
     </g>
    </g>
    <g id="ytick_4">
     <g id="line2d_57">
      <path clip-path="url(#ped709a2e68)" d="M 29.279688 93.142589 
L 228.588778 93.142589 
" style="fill:none;stroke:#cbcbcb;stroke-width:0.75;"/>
     </g>
     <g id="line2d_58"/>
     <g id="text_9">
      <!-- 6 s -->
      <defs>
       <path d="M 41.15625 71.625 
L 41.15625 66.5 
L 40.484375 66.5 
Q 27.734375 66.5 20.40625 59 
Q 13.09375 51.515625 12.3125 38.1875 
Q 15.234375 42.234375 19.765625 44.453125 
Q 24.3125 46.6875 29.9375 46.6875 
Q 39.3125 46.6875 44.84375 40.203125 
Q 50.390625 33.734375 50.390625 23.296875 
Q 50.390625 16.359375 47.796875 10.78125 
Q 45.21875 5.21875 40.375 2.109375 
Q 35.546875 -0.984375 29.34375 -0.984375 
Q 19.140625 -0.984375 12.734375 6.40625 
Q 6.34375 13.8125 6.34375 25.53125 
L 6.34375 31.390625 
Q 6.34375 50.484375 15.03125 60.953125 
Q 23.734375 71.4375 39.703125 71.625 
z
M 29 41.65625 
Q 23.4375 41.65625 18.625 38.359375 
Q 13.8125 35.0625 12.203125 29.984375 
L 12.203125 25 
Q 12.203125 15.71875 16.96875 9.859375 
Q 21.734375 4 29.34375 4 
Q 36.1875 4 40.40625 9.421875 
Q 44.625 14.84375 44.625 23.09375 
Q 44.625 31.5 40.40625 36.578125 
Q 36.1875 41.65625 29 41.65625 
" id="Roboto-Light-36"/>
      </defs>
      <g transform="translate(12.742188 96.892589)scale(0.1 -0.1)">
       <use xlink:href="#Roboto-Light-36"/>
       <use x="55.419922" xlink:href="#Roboto-Light-20"/>
       <use x="79.736328" xlink:href="#Roboto-Light-73"/>
      </g>
     </g>
    </g>
    <g id="ytick_5">
     <g id="line2d_59">
      <path clip-path="url(#ped709a2e68)" d="M 29.279688 62.256806 
L 228.588778 62.256806 
" style="fill:none;stroke:#cbcbcb;stroke-width:0.75;"/>
     </g>
     <g id="line2d_60"/>
     <g id="text_10">
      <!-- 8 s -->
      <defs>
       <path d="M 48.578125 52.78125 
Q 48.578125 47.265625 45.359375 42.890625 
Q 42.140625 38.53125 36.859375 36.46875 
Q 43.015625 34.375 46.71875 29.6875 
Q 50.4375 25 50.4375 18.84375 
Q 50.4375 9.71875 44.234375 4.359375 
Q 38.03125 -0.984375 27.828125 -0.984375 
Q 17.53125 -0.984375 11.34375 4.34375 
Q 5.171875 9.671875 5.171875 18.84375 
Q 5.171875 24.90625 8.734375 29.640625 
Q 12.3125 34.375 18.5 36.46875 
Q 13.234375 38.53125 10.109375 42.890625 
Q 6.984375 47.265625 6.984375 52.78125 
Q 6.984375 61.625 12.671875 66.84375 
Q 18.359375 72.078125 27.734375 72.078125 
Q 37.109375 72.078125 42.84375 66.796875 
Q 48.578125 61.53125 48.578125 52.78125 
M 44.578125 18.796875 
Q 44.578125 25.4375 39.84375 29.703125 
Q 35.109375 33.984375 27.734375 33.984375 
Q 20.359375 33.984375 15.671875 29.78125 
Q 10.984375 25.59375 10.984375 18.796875 
Q 10.984375 12.015625 15.515625 7.984375 
Q 20.0625 3.953125 27.828125 3.953125 
Q 35.40625 3.953125 39.984375 7.953125 
Q 44.578125 11.96875 44.578125 18.796875 
M 42.71875 52.828125 
Q 42.71875 58.9375 38.5 63.015625 
Q 34.28125 67.09375 27.734375 67.09375 
Q 21.09375 67.09375 16.96875 63.15625 
Q 12.84375 59.234375 12.84375 52.828125 
Q 12.84375 46.578125 16.96875 42.765625 
Q 21.09375 38.96875 27.78125 38.96875 
Q 34.375 38.96875 38.546875 42.796875 
Q 42.71875 46.625 42.71875 52.828125 
" id="Roboto-Light-38"/>
      </defs>
      <g transform="translate(12.742188 66.006806)scale(0.1 -0.1)">
       <use xlink:href="#Roboto-Light-38"/>
       <use x="55.419922" xlink:href="#Roboto-Light-20"/>
       <use x="79.736328" xlink:href="#Roboto-Light-73"/>
      </g>
     </g>
    </g>
    <g id="ytick_6">
     <g id="line2d_61">
      <path clip-path="url(#ped709a2e68)" d="M 29.279688 31.371023 
L 228.588778 31.371023 
" style="fill:none;stroke:#cbcbcb;stroke-width:0.75;"/>
     </g>
     <g id="line2d_62"/>
     <g id="text_11">
      <!-- 10 s -->
      <g transform="translate(7.2 35.121023)scale(0.1 -0.1)">
       <use xlink:href="#Roboto-Light-31"/>
       <use x="55.419922" xlink:href="#Roboto-Light-30"/>
       <use x="110.839844" xlink:href="#Roboto-Light-20"/>
       <use x="135.15625" xlink:href="#Roboto-Light-73"/>
      </g>
     </g>
    </g>
   </g>
   <g id="PathCollection_1">
    <defs>
     <path d="M 0 3 
C 0.795609 3 1.55874 2.683901 2.12132 2.12132 
C 2.683901 1.55874 3 0.795609 3 0 
C 3 -0.795609 2.683901 -1.55874 2.12132 -2.12132 
C 1.55874 -2.683901 0.795609 -3 0 -3 
C -0.795609 -3 -1.55874 -2.683901 -2.12132 -2.12132 
C -2.683901 -1.55874 -3 -0.795609 -3 0 
C -3 0.795609 -2.683901 1.55874 -2.12132 2.12132 
C -1.55874 2.683901 -0.795609 3 0 3 
z
" id="m59bf186718" style="stroke:#fdcab5;stroke-width:0.5;"/>
    </defs>
    <g clip-path="url(#ped709a2e68)">
     <use style="fill:#fdcab5;stroke:#fdcab5;stroke-width:0.5;" x="43.490324" xlink:href="#m59bf186718" y="185.799939"/>
     <use style="fill:#fdcab5;stroke:#fdcab5;stroke-width:0.5;" x="84.365642" xlink:href="#m59bf186718" y="185.799939"/>
     <use style="fill:#fdcab5;stroke:#fdcab5;stroke-width:0.5;" x="125.240961" xlink:href="#m59bf186718" y="185.182223"/>
     <use style="fill:#fdcab5;stroke:#fdcab5;stroke-width:0.5;" x="137.545658" xlink:href="#m59bf186718" y="184.718936"/>
     <use style="fill:#fdcab5;stroke:#fdcab5;stroke-width:0.5;" x="153.811582" xlink:href="#m59bf186718" y="182.865789"/>
     <use style="fill:#fdcab5;stroke:#fdcab5;stroke-width:0.5;" x="166.116279" xlink:href="#m59bf186718" y="179.468353"/>
     <use style="fill:#fdcab5;stroke:#fdcab5;stroke-width:0.5;" x="178.420976" xlink:href="#m59bf186718" y="174.063341"/>
     <use style="fill:#fdcab5;stroke:#fdcab5;stroke-width:0.5;" x="194.686901" xlink:href="#m59bf186718" y="157.230589"/>
     <use style="fill:#fdcab5;stroke:#fdcab5;stroke-width:0.5;" x="206.991598" xlink:href="#m59bf186718" y="128.506811"/>
     <use style="fill:#fdcab5;stroke:#fdcab5;stroke-width:0.5;" x="219.296295" xlink:href="#m59bf186718" y="61.484662"/>
    </g>
   </g>
   <g id="PathCollection_2">
    <defs>
     <path d="M 0 3 
C 0.795609 3 1.55874 2.683901 2.12132 2.12132 
C 2.683901 1.55874 3 0.795609 3 0 
C 3 -0.795609 2.683901 -1.55874 2.12132 -2.12132 
C 1.55874 -2.683901 0.795609 -3 0 -3 
C -0.795609 -3 -1.55874 -2.683901 -2.12132 -2.12132 
C -2.683901 -1.55874 -3 -0.795609 -3 0 
C -3 0.795609 -2.683901 1.55874 -2.12132 2.12132 
C -1.55874 2.683901 -0.795609 3 0 3 
z
" id="m4e76bfbf48" style="stroke:#fca082;stroke-width:0.5;"/>
    </defs>
    <g clip-path="url(#ped709a2e68)">
     <use style="fill:#fca082;stroke:#fca082;stroke-width:0.5;" x="40.914758" xlink:href="#m4e76bfbf48" y="183.585923"/>
     <use style="fill:#fca082;stroke:#fca082;stroke-width:0.5;" x="81.790076" xlink:href="#m4e76bfbf48" y="183.585923"/>
     <use style="fill:#fca082;stroke:#fca082;stroke-width:0.5;" x="122.665395" xlink:href="#m4e76bfbf48" y="182.968208"/>
     <use style="fill:#fca082;stroke:#fca082;stroke-width:0.5;" x="134.970092" xlink:href="#m4e76bfbf48" y="182.813779"/>
     <use style="fill:#fca082;stroke:#fca082;stroke-width:0.5;" x="151.236016" xlink:href="#m4e76bfbf48" y="180.651774"/>
     <use style="fill:#fca082;stroke:#fca082;stroke-width:0.5;" x="163.540713" xlink:href="#m4e76bfbf48" y="177.563196"/>
     <use style="fill:#fca082;stroke:#fca082;stroke-width:0.5;" x="175.84541" xlink:href="#m4e76bfbf48" y="171.077181"/>
     <use style="fill:#fca082;stroke:#fca082;stroke-width:0.5;" x="192.111335" xlink:href="#m4e76bfbf48" y="153.935572"/>
     <use style="fill:#fca082;stroke:#fca082;stroke-width:0.5;" x="204.416032" xlink:href="#m4e76bfbf48" y="123.976362"/>
     <use style="fill:#fca082;stroke:#fca082;stroke-width:0.5;" x="216.720729" xlink:href="#m4e76bfbf48" y="64.830088"/>
    </g>
   </g>
   <g id="PathCollection_3">
    <defs>
     <path d="M 0 3 
C 0.795609 3 1.55874 2.683901 2.12132 2.12132 
C 2.683901 1.55874 3 0.795609 3 0 
C 3 -0.795609 2.683901 -1.55874 2.12132 -2.12132 
C 1.55874 -2.683901 0.795609 -3 0 -3 
C -0.795609 -3 -1.55874 -2.683901 -2.12132 -2.12132 
C -2.683901 -1.55874 -3 -0.795609 -3 0 
C -3 0.795609 -2.683901 1.55874 -2.12132 2.12132 
C -1.55874 2.683901 -0.795609 3 0 3 
z
" id="m1ad62e62b1" style="stroke:#fb7555;stroke-width:0.5;"/>
    </defs>
    <g clip-path="url(#ped709a2e68)">
     <use style="fill:#fb7555;stroke:#fb7555;stroke-width:0.5;" x="35.763626" xlink:href="#m1ad62e62b1" y="183.013519"/>
     <use style="fill:#fb7555;stroke:#fb7555;stroke-width:0.5;" x="76.638944" xlink:href="#m1ad62e62b1" y="182.85909"/>
     <use style="fill:#fb7555;stroke:#fb7555;stroke-width:0.5;" x="117.514263" xlink:href="#m1ad62e62b1" y="182.550232"/>
     <use style="fill:#fb7555;stroke:#fb7555;stroke-width:0.5;" x="129.81896" xlink:href="#m1ad62e62b1" y="182.086946"/>
     <use style="fill:#fb7555;stroke:#fb7555;stroke-width:0.5;" x="146.084884" xlink:href="#m1ad62e62b1" y="180.697085"/>
     <use style="fill:#fb7555;stroke:#fb7555;stroke-width:0.5;" x="158.389581" xlink:href="#m1ad62e62b1" y="177.608507"/>
     <use style="fill:#fb7555;stroke:#fb7555;stroke-width:0.5;" x="170.694278" xlink:href="#m1ad62e62b1" y="171.122493"/>
     <use style="fill:#fb7555;stroke:#fb7555;stroke-width:0.5;" x="186.960203" xlink:href="#m1ad62e62b1" y="154.135312"/>
     <use style="fill:#fb7555;stroke:#fb7555;stroke-width:0.5;" x="199.2649" xlink:href="#m1ad62e62b1" y="103.17377"/>
     <use style="fill:#fb7555;stroke:#fb7555;stroke-width:0.5;" x="211.569597" xlink:href="#m1ad62e62b1" y="31.209895"/>
    </g>
   </g>
   <g id="PathCollection_4">
    <defs>
     <path d="M 0 3 
C 0.795609 3 1.55874 2.683901 2.12132 2.12132 
C 2.683901 1.55874 3 0.795609 3 0 
C 3 -0.795609 2.683901 -1.55874 2.12132 -2.12132 
C 1.55874 -2.683901 0.795609 -3 0 -3 
C -0.795609 -3 -1.55874 -2.683901 -2.12132 -2.12132 
C -2.683901 -1.55874 -3 -0.795609 -3 0 
C -3 0.795609 -2.683901 1.55874 -2.12132 2.12132 
C -1.55874 2.683901 -0.795609 3 0 3 
z
" id="mfa3a0b21c6" style="stroke:#f14432;stroke-width:0.5;"/>
    </defs>
    <g clip-path="url(#ped709a2e68)">
     <use style="fill:#f14432;stroke:#f14432;stroke-width:0.5;" x="33.188059" xlink:href="#mfa3a0b21c6" y="185.64551"/>
     <use style="fill:#f14432;stroke:#f14432;stroke-width:0.5;" x="74.063378" xlink:href="#mfa3a0b21c6" y="185.491081"/>
     <use style="fill:#f14432;stroke:#f14432;stroke-width:0.5;" x="114.938697" xlink:href="#mfa3a0b21c6" y="185.336652"/>
     <use style="fill:#f14432;stroke:#f14432;stroke-width:0.5;" x="127.243393" xlink:href="#mfa3a0b21c6" y="184.718936"/>
     <use style="fill:#f14432;stroke:#f14432;stroke-width:0.5;" x="143.509318" xlink:href="#mfa3a0b21c6" y="183.174647"/>
     <use style="fill:#f14432;stroke:#f14432;stroke-width:0.5;" x="155.814015" xlink:href="#mfa3a0b21c6" y="180.858213"/>
     <use style="fill:#f14432;stroke:#f14432;stroke-width:0.5;" x="168.118712" xlink:href="#mfa3a0b21c6" y="174.526628"/>
     <use style="fill:#f14432;stroke:#f14432;stroke-width:0.5;" x="184.384637" xlink:href="#mfa3a0b21c6" y="155.377442"/>
     <use style="fill:#f14432;stroke:#f14432;stroke-width:0.5;" x="196.689334" xlink:href="#mfa3a0b21c6" y="121.403081"/>
     <use style="fill:#f14432;stroke:#f14432;stroke-width:0.5;" x="208.994031" xlink:href="#mfa3a0b21c6" y="51.601211"/>
    </g>
   </g>
   <g id="PathCollection_5">
    <defs>
     <path d="M 0 3 
C 0.795609 3 1.55874 2.683901 2.12132 2.12132 
C 2.683901 1.55874 3 0.795609 3 0 
C 3 -0.795609 2.683901 -1.55874 2.12132 -2.12132 
C 1.55874 -2.683901 0.795609 -3 0 -3 
C -0.795609 -3 -1.55874 -2.683901 -2.12132 -2.12132 
C -2.683901 -1.55874 -3 -0.795609 -3 0 
C -3 0.795609 -2.683901 1.55874 -2.12132 2.12132 
C -1.55874 2.683901 -0.795609 3 0 3 
z
" id="m6f660e4cfd" style="stroke:#d01d1f;stroke-width:0.5;"/>
    </defs>
    <g clip-path="url(#ped709a2e68)">
     <use style="fill:#d01d1f;stroke:#d01d1f;stroke-width:0.5;" x="35.763626" xlink:href="#m6f660e4cfd" y="187.876282"/>
     <use style="fill:#d01d1f;stroke:#d01d1f;stroke-width:0.5;" x="76.638944" xlink:href="#m6f660e4cfd" y="187.876282"/>
     <use style="fill:#d01d1f;stroke:#d01d1f;stroke-width:0.5;" x="117.514263" xlink:href="#m6f660e4cfd" y="187.258567"/>
     <use style="fill:#d01d1f;stroke:#d01d1f;stroke-width:0.5;" x="129.81896" xlink:href="#m6f660e4cfd" y="187.104138"/>
     <use style="fill:#d01d1f;stroke:#d01d1f;stroke-width:0.5;" x="146.084884" xlink:href="#m6f660e4cfd" y="185.250991"/>
     <use style="fill:#d01d1f;stroke:#d01d1f;stroke-width:0.5;" x="158.389581" xlink:href="#m6f660e4cfd" y="181.853555"/>
     <use style="fill:#d01d1f;stroke:#d01d1f;stroke-width:0.5;" x="170.694278" xlink:href="#m6f660e4cfd" y="175.830827"/>
     <use style="fill:#d01d1f;stroke:#d01d1f;stroke-width:0.5;" x="186.960203" xlink:href="#m6f660e4cfd" y="158.225931"/>
     <use style="fill:#d01d1f;stroke:#d01d1f;stroke-width:0.5;" x="199.2649" xlink:href="#m6f660e4cfd" y="126.722432"/>
     <use style="fill:#d01d1f;stroke:#d01d1f;stroke-width:0.5;" x="211.569597" xlink:href="#m6f660e4cfd" y="59.236996"/>
    </g>
   </g>
   <g id="PathCollection_6">
    <defs>
     <path d="M 0 3 
C 0.795609 3 1.55874 2.683901 2.12132 2.12132 
C 2.683901 1.55874 3 0.795609 3 0 
C 3 -0.795609 2.683901 -1.55874 2.12132 -2.12132 
C 1.55874 -2.683901 0.795609 -3 0 -3 
C -0.795609 -3 -1.55874 -2.683901 -2.12132 -2.12132 
C -2.683901 -1.55874 -3 -0.795609 -3 0 
C -3 0.795609 -2.683901 1.55874 -2.12132 2.12132 
C -1.55874 2.683901 -0.795609 3 0 3 
z
" id="m0c4e7440d2" style="stroke:#a81016;stroke-width:0.5;"/>
    </defs>
    <g clip-path="url(#ped709a2e68)">
     <use style="fill:#a81016;stroke:#a81016;stroke-width:0.5;" x="40.914758" xlink:href="#m0c4e7440d2" y="187.539259"/>
     <use style="fill:#a81016;stroke:#a81016;stroke-width:0.5;" x="81.790076" xlink:href="#m0c4e7440d2" y="187.38483"/>
     <use style="fill:#a81016;stroke:#a81016;stroke-width:0.5;" x="122.665395" xlink:href="#m0c4e7440d2" y="187.38483"/>
     <use style="fill:#a81016;stroke:#a81016;stroke-width:0.5;" x="134.970092" xlink:href="#m0c4e7440d2" y="186.767115"/>
     <use style="fill:#a81016;stroke:#a81016;stroke-width:0.5;" x="151.236016" xlink:href="#m0c4e7440d2" y="185.222825"/>
     <use style="fill:#a81016;stroke:#a81016;stroke-width:0.5;" x="163.540713" xlink:href="#m0c4e7440d2" y="182.906392"/>
     <use style="fill:#a81016;stroke:#a81016;stroke-width:0.5;" x="175.84541" xlink:href="#m0c4e7440d2" y="177.50138"/>
     <use style="fill:#a81016;stroke:#a81016;stroke-width:0.5;" x="192.111335" xlink:href="#m0c4e7440d2" y="161.286343"/>
     <use style="fill:#a81016;stroke:#a81016;stroke-width:0.5;" x="204.416032" xlink:href="#m0c4e7440d2" y="132.871423"/>
     <use style="fill:#a81016;stroke:#a81016;stroke-width:0.5;" x="216.720729" xlink:href="#m0c4e7440d2" y="78.358016"/>
    </g>
   </g>
   <g id="PathCollection_7">
    <defs>
     <path d="M 0 3 
C 0.795609 3 1.55874 2.683901 2.12132 2.12132 
C 2.683901 1.55874 3 0.795609 3 0 
C 3 -0.795609 2.683901 -1.55874 2.12132 -2.12132 
C 1.55874 -2.683901 0.795609 -3 0 -3 
C -0.795609 -3 -1.55874 -2.683901 -2.12132 -2.12132 
C -2.683901 -1.55874 -3 -0.795609 -3 0 
C -3 0.795609 -2.683901 1.55874 -2.12132 2.12132 
C -1.55874 2.683901 -0.795609 3 0 3 
z
" id="m9075b36196" style="stroke:#67000d;stroke-width:0.5;"/>
    </defs>
    <g clip-path="url(#ped709a2e68)">
     <use style="fill:#67000d;stroke:#67000d;stroke-width:0.5;" x="43.490324" xlink:href="#m9075b36196" y="185.027794"/>
     <use style="fill:#67000d;stroke:#67000d;stroke-width:0.5;" x="84.365642" xlink:href="#m9075b36196" y="185.491081"/>
     <use style="fill:#67000d;stroke:#67000d;stroke-width:0.5;" x="125.240961" xlink:href="#m9075b36196" y="184.873365"/>
     <use style="fill:#67000d;stroke:#67000d;stroke-width:0.5;" x="137.545658" xlink:href="#m9075b36196" y="184.718936"/>
     <use style="fill:#67000d;stroke:#67000d;stroke-width:0.5;" x="153.811582" xlink:href="#m9075b36196" y="183.020218"/>
     <use style="fill:#67000d;stroke:#67000d;stroke-width:0.5;" x="166.116279" xlink:href="#m9075b36196" y="181.475929"/>
     <use style="fill:#67000d;stroke:#67000d;stroke-width:0.5;" x="178.420976" xlink:href="#m9075b36196" y="177.460777"/>
     <use style="fill:#67000d;stroke:#67000d;stroke-width:0.5;" x="194.686901" xlink:href="#m9075b36196" y="164.952035"/>
     <use style="fill:#67000d;stroke:#67000d;stroke-width:0.5;" x="206.991598" xlink:href="#m9075b36196" y="143.177558"/>
     <use style="fill:#67000d;stroke:#67000d;stroke-width:0.5;" x="219.296295" xlink:href="#m9075b36196" y="94.53245"/>
    </g>
   </g>
   <g id="PathCollection_8">
    <defs>
     <path d="M 0 3 
C 0.795609 3 1.55874 2.683901 2.12132 2.12132 
C 2.683901 1.55874 3 0.795609 3 0 
C 3 -0.795609 2.683901 -1.55874 2.12132 -2.12132 
C 1.55874 -2.683901 0.795609 -3 0 -3 
C -0.795609 -3 -1.55874 -2.683901 -2.12132 -2.12132 
C -2.683901 -1.55874 -3 -0.795609 -3 0 
C -3 0.795609 -2.683901 1.55874 -2.12132 2.12132 
C -1.55874 2.683901 -0.795609 3 0 3 
z
" id="m5eec18bca1" style="stroke:#0000ff;stroke-width:0.5;"/>
    </defs>
    <g clip-path="url(#ped709a2e68)">
     <use style="fill:#0000ff;stroke:#0000ff;stroke-width:0.5;" x="38.339192" xlink:href="#m5eec18bca1" y="185.182223"/>
     <use style="fill:#0000ff;stroke:#0000ff;stroke-width:0.5;" x="79.21451" xlink:href="#m5eec18bca1" y="185.336652"/>
     <use style="fill:#0000ff;stroke:#0000ff;stroke-width:0.5;" x="120.089829" xlink:href="#m5eec18bca1" y="184.873365"/>
     <use style="fill:#0000ff;stroke:#0000ff;stroke-width:0.5;" x="132.394526" xlink:href="#m5eec18bca1" y="184.564507"/>
     <use style="fill:#0000ff;stroke:#0000ff;stroke-width:0.5;" x="148.66045" xlink:href="#m5eec18bca1" y="182.556931"/>
     <use style="fill:#0000ff;stroke:#0000ff;stroke-width:0.5;" x="160.965147" xlink:href="#m5eec18bca1" y="180.240498"/>
     <use style="fill:#0000ff;stroke:#0000ff;stroke-width:0.5;" x="173.269844" xlink:href="#m5eec18bca1" y="175.453201"/>
     <use style="fill:#0000ff;stroke:#0000ff;stroke-width:0.5;" x="189.535769" xlink:href="#m5eec18bca1" y="158.157163"/>
    </g>
   </g>
   <g id="patch_3">
    <path d="M 29.279688 197.16 
L 29.279688 22.2 
" style="fill:none;"/>
   </g>
   <g id="patch_4">
    <path d="M 228.588778 197.16 
L 228.588778 22.2 
" style="fill:none;"/>
   </g>
   <g id="patch_5">
    <path d="M 29.279688 197.16 
L 228.588778 197.16 
" style="fill:none;"/>
   </g>
   <g id="patch_6">
    <path d="M 29.279688 22.2 
L 228.588778 22.2 
" style="fill:none;"/>
   </g>
   <g id="text_12">
    <!-- insertion time -->
    <defs>
     <path d="M 18.703125 0 
L 6.84375 0 
L 6.84375 52.828125 
L 18.703125 52.828125 
z
M 6.109375 66.546875 
Q 6.109375 69.28125 7.84375 71.09375 
Q 9.578125 72.90625 12.796875 72.90625 
Q 16.015625 72.90625 17.765625 71.09375 
Q 19.53125 69.28125 19.53125 66.546875 
Q 19.53125 63.875 17.765625 62.078125 
Q 16.015625 60.296875 12.796875 60.296875 
Q 9.578125 60.296875 7.84375 62.078125 
Q 6.109375 63.875 6.109375 66.546875 
" id="Roboto-Medium-69"/>
     <path d="M 17.09375 52.828125 
L 17.4375 46.734375 
Q 23.296875 53.8125 32.8125 53.8125 
Q 49.3125 53.8125 49.609375 34.90625 
L 49.609375 0 
L 37.75 0 
L 37.75 34.234375 
Q 37.75 39.265625 35.578125 41.671875 
Q 33.40625 44.09375 28.46875 44.09375 
Q 21.296875 44.09375 17.78125 37.59375 
L 17.78125 0 
L 5.90625 0 
L 5.90625 52.828125 
z
" id="Roboto-Medium-6e"/>
     <path d="M 35.6875 14.359375 
Q 35.6875 17.53125 33.078125 19.1875 
Q 30.46875 20.84375 24.40625 22.109375 
Q 18.359375 23.390625 14.3125 25.34375 
Q 5.421875 29.640625 5.421875 37.796875 
Q 5.421875 44.625 11.171875 49.21875 
Q 16.9375 53.8125 25.828125 53.8125 
Q 35.296875 53.8125 41.125 49.125 
Q 46.96875 44.4375 46.96875 36.96875 
L 35.109375 36.96875 
Q 35.109375 40.375 32.5625 42.640625 
Q 30.03125 44.921875 25.828125 44.921875 
Q 21.921875 44.921875 19.453125 43.109375 
Q 17 41.3125 17 38.28125 
Q 17 35.546875 19.28125 34.03125 
Q 21.578125 32.515625 28.5625 30.96875 
Q 35.546875 29.4375 39.515625 27.3125 
Q 43.5 25.203125 45.421875 22.21875 
Q 47.359375 19.234375 47.359375 14.984375 
Q 47.359375 7.859375 41.453125 3.4375 
Q 35.546875 -0.984375 25.984375 -0.984375 
Q 19.484375 -0.984375 14.40625 1.359375 
Q 9.328125 3.71875 6.484375 7.8125 
Q 3.65625 11.921875 3.65625 16.65625 
L 15.1875 16.65625 
Q 15.4375 12.453125 18.359375 10.171875 
Q 21.296875 7.90625 26.125 7.90625 
Q 30.8125 7.90625 33.25 9.6875 
Q 35.6875 11.46875 35.6875 14.359375 
" id="Roboto-Medium-73"/>
     <path d="M 29.34375 -0.984375 
Q 18.0625 -0.984375 11.046875 6.125 
Q 4.046875 13.234375 4.046875 25.046875 
L 4.046875 26.515625 
Q 4.046875 34.421875 7.09375 40.640625 
Q 10.15625 46.875 15.671875 50.34375 
Q 21.1875 53.8125 27.984375 53.8125 
Q 38.765625 53.8125 44.640625 46.921875 
Q 50.53125 40.046875 50.53125 27.4375 
L 50.53125 22.65625 
L 16.015625 22.65625 
Q 16.546875 16.109375 20.375 12.296875 
Q 24.21875 8.5 30.03125 8.5 
Q 38.1875 8.5 43.3125 15.09375 
L 49.703125 8.984375 
Q 46.53125 4.25 41.234375 1.625 
Q 35.9375 -0.984375 29.34375 -0.984375 
M 27.9375 44.28125 
Q 23.046875 44.28125 20.046875 40.859375 
Q 17.046875 37.453125 16.21875 31.34375 
L 38.8125 31.34375 
L 38.8125 32.234375 
Q 38.421875 38.1875 35.640625 41.234375 
Q 32.859375 44.28125 27.9375 44.28125 
" id="Roboto-Medium-65"/>
     <path d="M 33.734375 42 
Q 31.390625 42.390625 28.90625 42.390625 
Q 20.75 42.390625 17.921875 36.140625 
L 17.921875 0 
L 6.0625 0 
L 6.0625 52.828125 
L 17.390625 52.828125 
L 17.671875 46.921875 
Q 21.96875 53.8125 29.59375 53.8125 
Q 32.125 53.8125 33.796875 53.125 
z
" id="Roboto-Medium-72"/>
     <path d="M 20.953125 65.671875 
L 20.953125 52.828125 
L 30.28125 52.828125 
L 30.28125 44.046875 
L 20.953125 44.046875 
L 20.953125 14.546875 
Q 20.953125 11.53125 22.140625 10.1875 
Q 23.34375 8.84375 26.421875 8.84375 
Q 28.46875 8.84375 30.5625 9.328125 
L 30.5625 0.140625 
Q 26.515625 -0.984375 22.75 -0.984375 
Q 9.078125 -0.984375 9.078125 14.109375 
L 9.078125 44.046875 
L 0.390625 44.046875 
L 0.390625 52.828125 
L 9.078125 52.828125 
L 9.078125 65.671875 
z
" id="Roboto-Medium-74"/>
     <path d="M 3.859375 26.90625 
Q 3.859375 34.671875 6.9375 40.890625 
Q 10.015625 47.125 15.578125 50.46875 
Q 21.140625 53.8125 28.375 53.8125 
Q 39.0625 53.8125 45.71875 46.921875 
Q 52.390625 40.046875 52.9375 28.65625 
L 52.984375 25.875 
Q 52.984375 18.0625 49.96875 11.90625 
Q 46.96875 5.765625 41.375 2.390625 
Q 35.796875 -0.984375 28.46875 -0.984375 
Q 17.28125 -0.984375 10.5625 6.46875 
Q 3.859375 13.921875 3.859375 26.3125 
z
M 15.71875 25.875 
Q 15.71875 17.71875 19.09375 13.109375 
Q 22.46875 8.5 28.46875 8.5 
Q 34.46875 8.5 37.8125 13.1875 
Q 41.15625 17.875 41.15625 26.90625 
Q 41.15625 34.90625 37.71875 39.59375 
Q 34.28125 44.28125 28.375 44.28125 
Q 22.5625 44.28125 19.140625 39.671875 
Q 15.71875 35.0625 15.71875 25.875 
" id="Roboto-Medium-6f"/>
     <path id="Roboto-Medium-20"/>
     <path d="M 17.234375 52.828125 
L 17.578125 47.3125 
Q 23.140625 53.8125 32.8125 53.8125 
Q 43.40625 53.8125 47.3125 45.703125 
Q 53.078125 53.8125 63.53125 53.8125 
Q 72.265625 53.8125 76.53125 48.96875 
Q 80.8125 44.140625 80.90625 34.71875 
L 80.90625 0 
L 69.046875 0 
L 69.046875 34.375 
Q 69.046875 39.40625 66.84375 41.75 
Q 64.65625 44.09375 59.578125 44.09375 
Q 55.515625 44.09375 52.953125 41.921875 
Q 50.390625 39.75 49.359375 36.234375 
L 49.421875 0 
L 37.546875 0 
L 37.546875 34.765625 
Q 37.3125 44.09375 28.03125 44.09375 
Q 20.90625 44.09375 17.921875 38.28125 
L 17.921875 0 
L 6.0625 0 
L 6.0625 52.828125 
z
" id="Roboto-Medium-6d"/>
    </defs>
    <g transform="translate(91.899233 16.2)scale(0.12 -0.12)">
     <use xlink:href="#Roboto-Medium-69"/>
     <use x="25.537109" xlink:href="#Roboto-Medium-6e"/>
     <use x="81.152344" xlink:href="#Roboto-Medium-73"/>
     <use x="132.763672" xlink:href="#Roboto-Medium-65"/>
     <use x="186.425781" xlink:href="#Roboto-Medium-72"/>
     <use x="221.582031" xlink:href="#Roboto-Medium-74"/>
     <use x="254.833984" xlink:href="#Roboto-Medium-69"/>
     <use x="280.371094" xlink:href="#Roboto-Medium-6f"/>
     <use x="337.304688" xlink:href="#Roboto-Medium-6e"/>
     <use x="392.919922" xlink:href="#Roboto-Medium-20"/>
     <use x="417.822266" xlink:href="#Roboto-Medium-74"/>
     <use x="451.074219" xlink:href="#Roboto-Medium-69"/>
     <use x="476.611328" xlink:href="#Roboto-Medium-6d"/>
     <use x="563.623047" xlink:href="#Roboto-Medium-65"/>
    </g>
   </g>
   <g id="legend_1">
    <g id="PathCollection_9">
     <g>
      <use style="fill:#fdcab5;stroke:#fdcab5;stroke-width:0.5;" x="262.519688" xlink:href="#m59bf186718" y="31.075"/>
     </g>
    </g>
    <g id="text_13">
     <!-- /32, density 0.0005 -->
     <defs>
      <path d="M 6.78125 -6.109375 
L 1.46875 -6.109375 
L 31.15625 71.09375 
L 36.421875 71.09375 
z
" id="Roboto-Light-2f"/>
      <path d="M 19.671875 38.71875 
L 25.734375 38.71875 
Q 30.765625 38.71875 34.515625 40.5 
Q 38.28125 42.28125 40.25 45.375 
Q 42.234375 48.484375 42.234375 52.546875 
Q 42.234375 59.375 38.375 63.234375 
Q 34.515625 67.09375 27.296875 67.09375 
Q 20.453125 67.09375 16.078125 63.0625 
Q 11.71875 59.03125 11.71875 52.4375 
L 5.859375 52.4375 
Q 5.859375 57.953125 8.640625 62.515625 
Q 11.421875 67.09375 16.359375 69.578125 
Q 21.296875 72.078125 27.296875 72.078125 
Q 36.96875 72.078125 42.53125 66.796875 
Q 48.09375 61.53125 48.09375 52.34375 
Q 48.09375 47.21875 44.84375 42.890625 
Q 41.609375 38.578125 35.9375 36.421875 
Q 42.578125 34.578125 46 30.046875 
Q 49.421875 25.53125 49.421875 19.28125 
Q 49.421875 10.15625 43.453125 4.578125 
Q 37.5 -0.984375 27.546875 -0.984375 
Q 21.1875 -0.984375 15.890625 1.5625 
Q 10.59375 4.109375 7.6875 8.671875 
Q 4.78125 13.234375 4.78125 19.28125 
L 10.640625 19.28125 
Q 10.640625 12.5 15.375 8.21875 
Q 20.125 3.953125 27.546875 3.953125 
Q 35.109375 3.953125 39.328125 7.828125 
Q 43.5625 11.71875 43.5625 19.09375 
Q 43.5625 26.21875 38.984375 29.96875 
Q 34.421875 33.734375 25.53125 33.734375 
L 19.671875 33.734375 
z
" id="Roboto-Light-33"/>
      <path d="M 6.390625 -13.28125 
L 2.9375 -10.75 
Q 7.375 -4.78125 7.515625 1.609375 
L 7.515625 9.1875 
L 13.234375 9.1875 
L 13.234375 3.078125 
Q 13.234375 -7.078125 6.390625 -13.28125 
" id="Roboto-Light-2c"/>
      <path d="M 5.28125 26.90625 
Q 5.28125 39.203125 10.765625 46.5 
Q 16.265625 53.8125 25.6875 53.8125 
Q 36.375 53.8125 42 45.359375 
L 42 75 
L 47.796875 75 
L 47.796875 0 
L 42.328125 0 
L 42.09375 7.03125 
Q 36.46875 -0.984375 25.59375 -0.984375 
Q 16.453125 -0.984375 10.859375 6.359375 
Q 5.28125 13.71875 5.28125 26.21875 
z
M 11.1875 25.875 
Q 11.1875 15.765625 15.234375 9.9375 
Q 19.28125 4.109375 26.65625 4.109375 
Q 37.453125 4.109375 42 13.625 
L 42 38.421875 
Q 37.453125 48.734375 26.765625 48.734375 
Q 19.390625 48.734375 15.28125 42.9375 
Q 11.1875 37.15625 11.1875 25.875 
" id="Roboto-Light-64"/>
      <path d="M 28.078125 -0.984375 
Q 21.34375 -0.984375 15.890625 2.34375 
Q 10.453125 5.671875 7.421875 11.59375 
Q 4.390625 17.53125 4.390625 24.90625 
L 4.390625 27 
Q 4.390625 34.625 7.34375 40.71875 
Q 10.296875 46.828125 15.5625 50.3125 
Q 20.84375 53.8125 27 53.8125 
Q 36.625 53.8125 42.265625 47.234375 
Q 47.90625 40.671875 47.90625 29.296875 
L 47.90625 26.03125 
L 10.203125 26.03125 
L 10.203125 24.90625 
Q 10.203125 15.921875 15.359375 9.9375 
Q 20.515625 3.953125 28.328125 3.953125 
Q 33.015625 3.953125 36.59375 5.65625 
Q 40.1875 7.375 43.109375 11.140625 
L 46.78125 8.34375 
Q 40.328125 -0.984375 28.078125 -0.984375 
M 27 48.828125 
Q 20.40625 48.828125 15.890625 43.984375 
Q 11.375 39.15625 10.40625 31 
L 42.09375 31 
L 42.09375 31.640625 
Q 41.84375 39.265625 37.734375 44.046875 
Q 33.640625 48.828125 27 48.828125 
" id="Roboto-Light-65"/>
      <path d="M 13.1875 52.828125 
L 13.375 43.796875 
Q 16.359375 48.6875 20.796875 51.25 
Q 25.25 53.8125 30.609375 53.8125 
Q 39.109375 53.8125 43.25 49.015625 
Q 47.40625 44.234375 47.46875 34.671875 
L 47.46875 0 
L 41.65625 0 
L 41.65625 34.71875 
Q 41.609375 41.796875 38.640625 45.265625 
Q 35.6875 48.734375 29.203125 48.734375 
Q 23.78125 48.734375 19.609375 45.328125 
Q 15.4375 41.9375 13.421875 36.1875 
L 13.421875 0 
L 7.625 0 
L 7.625 52.828125 
z
" id="Roboto-Light-6e"/>
      <path d="M 14.15625 0 
L 8.296875 0 
L 8.296875 52.828125 
L 14.15625 52.828125 
z
M 7.28125 68.109375 
Q 7.28125 69.78125 8.34375 70.921875 
Q 9.421875 72.078125 11.28125 72.078125 
Q 13.140625 72.078125 14.234375 70.921875 
Q 15.328125 69.78125 15.328125 68.109375 
Q 15.328125 66.453125 14.234375 65.328125 
Q 13.140625 64.203125 11.28125 64.203125 
Q 9.421875 64.203125 8.34375 65.328125 
Q 7.28125 66.453125 7.28125 68.109375 
" id="Roboto-Light-69"/>
      <path d="M 16.703125 66.359375 
L 16.703125 52.828125 
L 27.640625 52.828125 
L 27.640625 48.046875 
L 16.703125 48.046875 
L 16.703125 12.84375 
Q 16.703125 8.453125 18.28125 6.296875 
Q 19.875 4.15625 23.578125 4.15625 
Q 25.046875 4.15625 28.328125 4.640625 
L 28.5625 -0.140625 
Q 26.265625 -0.984375 22.3125 -0.984375 
Q 16.3125 -0.984375 13.578125 2.5 
Q 10.84375 6 10.84375 12.796875 
L 10.84375 48.046875 
L 1.125 48.046875 
L 1.125 52.828125 
L 10.84375 52.828125 
L 10.84375 66.359375 
z
" id="Roboto-Light-74"/>
      <path d="M 24.359375 8.40625 
L 39.796875 52.828125 
L 46.09375 52.828125 
L 23.53125 -8.984375 
L 22.359375 -11.71875 
Q 18.015625 -21.34375 8.9375 -21.34375 
Q 6.84375 -21.34375 4.4375 -20.65625 
L 4.390625 -15.828125 
L 7.421875 -16.109375 
Q 11.71875 -16.109375 14.375 -13.984375 
Q 17.046875 -11.859375 18.890625 -6.6875 
L 21.484375 0.4375 
L 1.5625 52.828125 
L 7.953125 52.828125 
z
" id="Roboto-Light-79"/>
      <path d="M 7.078125 3.515625 
Q 7.078125 5.21875 8.171875 6.421875 
Q 9.28125 7.625 11.234375 7.625 
Q 13.1875 7.625 14.3125 6.421875 
Q 15.4375 5.21875 15.4375 3.515625 
Q 15.4375 1.8125 14.3125 0.703125 
Q 13.1875 -0.390625 11.234375 -0.390625 
Q 9.28125 -0.390625 8.171875 0.703125 
Q 7.078125 1.8125 7.078125 3.515625 
" id="Roboto-Light-2e"/>
      <path d="M 10.640625 36.421875 
L 14.109375 71.09375 
L 49.65625 71.09375 
L 49.65625 65.671875 
L 19.140625 65.671875 
L 16.65625 41.65625 
Q 22.359375 45.5625 30.03125 45.5625 
Q 39.65625 45.5625 45.359375 39.3125 
Q 51.078125 33.0625 51.078125 22.65625 
Q 51.078125 11.421875 45.5 5.21875 
Q 39.9375 -0.984375 29.828125 -0.984375 
Q 20.5625 -0.984375 14.796875 4.1875 
Q 9.03125 9.375 8.203125 18.703125 
L 13.8125 18.703125 
Q 14.65625 11.421875 18.75 7.6875 
Q 22.859375 3.953125 29.828125 3.953125 
Q 37.453125 3.953125 41.328125 8.78125 
Q 45.21875 13.625 45.21875 22.5625 
Q 45.21875 30.375 40.875 35.296875 
Q 36.53125 40.234375 29 40.234375 
Q 24.859375 40.234375 21.78125 39.1875 
Q 18.703125 38.140625 15.28125 35.109375 
z
" id="Roboto-Light-35"/>
     </defs>
     <g transform="translate(280.519688 33.7)scale(0.1 -0.1)">
      <use xlink:href="#Roboto-Light-2f"/>
      <use x="39.697266" xlink:href="#Roboto-Light-33"/>
      <use x="95.117188" xlink:href="#Roboto-Light-32"/>
      <use x="150.537109" xlink:href="#Roboto-Light-2c"/>
      <use x="169.677734" xlink:href="#Roboto-Light-20"/>
      <use x="193.994141" xlink:href="#Roboto-Light-64"/>
      <use x="249.560547" xlink:href="#Roboto-Light-65"/>
      <use x="301.220703" xlink:href="#Roboto-Light-6e"/>
      <use x="356.152344" xlink:href="#Roboto-Light-73"/>
      <use x="406.787109" xlink:href="#Roboto-Light-69"/>
      <use x="429.199219" xlink:href="#Roboto-Light-74"/>
      <use x="461.328125" xlink:href="#Roboto-Light-79"/>
      <use x="508.837891" xlink:href="#Roboto-Light-20"/>
      <use x="533.154297" xlink:href="#Roboto-Light-30"/>
      <use x="588.574219" xlink:href="#Roboto-Light-2e"/>
      <use x="612.451172" xlink:href="#Roboto-Light-30"/>
      <use x="667.871094" xlink:href="#Roboto-Light-30"/>
      <use x="723.291016" xlink:href="#Roboto-Light-30"/>
      <use x="778.710938" xlink:href="#Roboto-Light-35"/>
     </g>
    </g>
    <g id="PathCollection_10">
     <g>
      <use style="fill:#fca082;stroke:#fca082;stroke-width:0.5;" x="262.519688" xlink:href="#m4e76bfbf48" y="45.709375"/>
     </g>
    </g>
    <g id="text_14">
     <!-- /32, density 0.001 -->
     <g transform="translate(280.519688 48.334375)scale(0.1 -0.1)">
      <use xlink:href="#Roboto-Light-2f"/>
      <use x="39.697266" xlink:href="#Roboto-Light-33"/>
      <use x="95.117188" xlink:href="#Roboto-Light-32"/>
      <use x="150.537109" xlink:href="#Roboto-Light-2c"/>
      <use x="169.677734" xlink:href="#Roboto-Light-20"/>
      <use x="193.994141" xlink:href="#Roboto-Light-64"/>
      <use x="249.560547" xlink:href="#Roboto-Light-65"/>
      <use x="301.220703" xlink:href="#Roboto-Light-6e"/>
      <use x="356.152344" xlink:href="#Roboto-Light-73"/>
      <use x="406.787109" xlink:href="#Roboto-Light-69"/>
      <use x="429.199219" xlink:href="#Roboto-Light-74"/>
      <use x="461.328125" xlink:href="#Roboto-Light-79"/>
      <use x="508.837891" xlink:href="#Roboto-Light-20"/>
      <use x="533.154297" xlink:href="#Roboto-Light-30"/>
      <use x="588.574219" xlink:href="#Roboto-Light-2e"/>
      <use x="612.451172" xlink:href="#Roboto-Light-30"/>
      <use x="667.871094" xlink:href="#Roboto-Light-30"/>
      <use x="723.291016" xlink:href="#Roboto-Light-31"/>
     </g>
    </g>
    <g id="PathCollection_11">
     <g>
      <use style="fill:#fb7555;stroke:#fb7555;stroke-width:0.5;" x="262.519688" xlink:href="#m1ad62e62b1" y="60.34375"/>
     </g>
    </g>
    <g id="text_15">
     <!-- /32, density 0.01 -->
     <g transform="translate(280.519688 62.96875)scale(0.1 -0.1)">
      <use xlink:href="#Roboto-Light-2f"/>
      <use x="39.697266" xlink:href="#Roboto-Light-33"/>
      <use x="95.117188" xlink:href="#Roboto-Light-32"/>
      <use x="150.537109" xlink:href="#Roboto-Light-2c"/>
      <use x="169.677734" xlink:href="#Roboto-Light-20"/>
      <use x="193.994141" xlink:href="#Roboto-Light-64"/>
      <use x="249.560547" xlink:href="#Roboto-Light-65"/>
      <use x="301.220703" xlink:href="#Roboto-Light-6e"/>
      <use x="356.152344" xlink:href="#Roboto-Light-73"/>
      <use x="406.787109" xlink:href="#Roboto-Light-69"/>
      <use x="429.199219" xlink:href="#Roboto-Light-74"/>
      <use x="461.328125" xlink:href="#Roboto-Light-79"/>
      <use x="508.837891" xlink:href="#Roboto-Light-20"/>
      <use x="533.154297" xlink:href="#Roboto-Light-30"/>
      <use x="588.574219" xlink:href="#Roboto-Light-2e"/>
      <use x="612.451172" xlink:href="#Roboto-Light-30"/>
      <use x="667.871094" xlink:href="#Roboto-Light-31"/>
     </g>
    </g>
    <g id="PathCollection_12">
     <g>
      <use style="fill:#f14432;stroke:#f14432;stroke-width:0.5;" x="262.519688" xlink:href="#mfa3a0b21c6" y="74.978125"/>
     </g>
    </g>
    <g id="text_16">
     <!-- /32, density 0.05 -->
     <g transform="translate(280.519688 77.603125)scale(0.1 -0.1)">
      <use xlink:href="#Roboto-Light-2f"/>
      <use x="39.697266" xlink:href="#Roboto-Light-33"/>
      <use x="95.117188" xlink:href="#Roboto-Light-32"/>
      <use x="150.537109" xlink:href="#Roboto-Light-2c"/>
      <use x="169.677734" xlink:href="#Roboto-Light-20"/>
      <use x="193.994141" xlink:href="#Roboto-Light-64"/>
      <use x="249.560547" xlink:href="#Roboto-Light-65"/>
      <use x="301.220703" xlink:href="#Roboto-Light-6e"/>
      <use x="356.152344" xlink:href="#Roboto-Light-73"/>
      <use x="406.787109" xlink:href="#Roboto-Light-69"/>
      <use x="429.199219" xlink:href="#Roboto-Light-74"/>
      <use x="461.328125" xlink:href="#Roboto-Light-79"/>
      <use x="508.837891" xlink:href="#Roboto-Light-20"/>
      <use x="533.154297" xlink:href="#Roboto-Light-30"/>
      <use x="588.574219" xlink:href="#Roboto-Light-2e"/>
      <use x="612.451172" xlink:href="#Roboto-Light-30"/>
      <use x="667.871094" xlink:href="#Roboto-Light-35"/>
     </g>
    </g>
    <g id="PathCollection_13">
     <g>
      <use style="fill:#d01d1f;stroke:#d01d1f;stroke-width:0.5;" x="262.519688" xlink:href="#m6f660e4cfd" y="89.6125"/>
     </g>
    </g>
    <g id="text_17">
     <!-- /32, density 0.1 -->
     <g transform="translate(280.519688 92.2375)scale(0.1 -0.1)">
      <use xlink:href="#Roboto-Light-2f"/>
      <use x="39.697266" xlink:href="#Roboto-Light-33"/>
      <use x="95.117188" xlink:href="#Roboto-Light-32"/>
      <use x="150.537109" xlink:href="#Roboto-Light-2c"/>
      <use x="169.677734" xlink:href="#Roboto-Light-20"/>
      <use x="193.994141" xlink:href="#Roboto-Light-64"/>
      <use x="249.560547" xlink:href="#Roboto-Light-65"/>
      <use x="301.220703" xlink:href="#Roboto-Light-6e"/>
      <use x="356.152344" xlink:href="#Roboto-Light-73"/>
      <use x="406.787109" xlink:href="#Roboto-Light-69"/>
      <use x="429.199219" xlink:href="#Roboto-Light-74"/>
      <use x="461.328125" xlink:href="#Roboto-Light-79"/>
      <use x="508.837891" xlink:href="#Roboto-Light-20"/>
      <use x="533.154297" xlink:href="#Roboto-Light-30"/>
      <use x="588.574219" xlink:href="#Roboto-Light-2e"/>
      <use x="612.451172" xlink:href="#Roboto-Light-31"/>
     </g>
    </g>
    <g id="PathCollection_14">
     <g>
      <use style="fill:#a81016;stroke:#a81016;stroke-width:0.5;" x="262.519688" xlink:href="#m0c4e7440d2" y="104.246875"/>
     </g>
    </g>
    <g id="text_18">
     <!-- /32, density 0.5 -->
     <g transform="translate(280.519688 106.871875)scale(0.1 -0.1)">
      <use xlink:href="#Roboto-Light-2f"/>
      <use x="39.697266" xlink:href="#Roboto-Light-33"/>
      <use x="95.117188" xlink:href="#Roboto-Light-32"/>
      <use x="150.537109" xlink:href="#Roboto-Light-2c"/>
      <use x="169.677734" xlink:href="#Roboto-Light-20"/>
      <use x="193.994141" xlink:href="#Roboto-Light-64"/>
      <use x="249.560547" xlink:href="#Roboto-Light-65"/>
      <use x="301.220703" xlink:href="#Roboto-Light-6e"/>
      <use x="356.152344" xlink:href="#Roboto-Light-73"/>
      <use x="406.787109" xlink:href="#Roboto-Light-69"/>
      <use x="429.199219" xlink:href="#Roboto-Light-74"/>
      <use x="461.328125" xlink:href="#Roboto-Light-79"/>
      <use x="508.837891" xlink:href="#Roboto-Light-20"/>
      <use x="533.154297" xlink:href="#Roboto-Light-30"/>
      <use x="588.574219" xlink:href="#Roboto-Light-2e"/>
      <use x="612.451172" xlink:href="#Roboto-Light-35"/>
     </g>
    </g>
    <g id="PathCollection_15">
     <g>
      <use style="fill:#67000d;stroke:#67000d;stroke-width:0.5;" x="262.519688" xlink:href="#m9075b36196" y="118.88125"/>
     </g>
    </g>
    <g id="text_19">
     <!-- /32, density 1.0 -->
     <g transform="translate(280.519688 121.50625)scale(0.1 -0.1)">
      <use xlink:href="#Roboto-Light-2f"/>
      <use x="39.697266" xlink:href="#Roboto-Light-33"/>
      <use x="95.117188" xlink:href="#Roboto-Light-32"/>
      <use x="150.537109" xlink:href="#Roboto-Light-2c"/>
      <use x="169.677734" xlink:href="#Roboto-Light-20"/>
      <use x="193.994141" xlink:href="#Roboto-Light-64"/>
      <use x="249.560547" xlink:href="#Roboto-Light-65"/>
      <use x="301.220703" xlink:href="#Roboto-Light-6e"/>
      <use x="356.152344" xlink:href="#Roboto-Light-73"/>
      <use x="406.787109" xlink:href="#Roboto-Light-69"/>
      <use x="429.199219" xlink:href="#Roboto-Light-74"/>
      <use x="461.328125" xlink:href="#Roboto-Light-79"/>
      <use x="508.837891" xlink:href="#Roboto-Light-20"/>
      <use x="533.154297" xlink:href="#Roboto-Light-31"/>
      <use x="588.574219" xlink:href="#Roboto-Light-2e"/>
      <use x="612.451172" xlink:href="#Roboto-Light-30"/>
     </g>
    </g>
    <g id="PathCollection_16">
     <g>
      <use style="fill:#0000ff;stroke:#0000ff;stroke-width:0.5;" x="262.519688" xlink:href="#m5eec18bca1" y="133.515625"/>
     </g>
    </g>
    <g id="text_20">
     <!-- from full view -->
     <defs>
      <path d="M 11.8125 0 
L 11.8125 48.046875 
L 3.078125 48.046875 
L 3.078125 52.828125 
L 11.8125 52.828125 
L 11.8125 59.234375 
Q 11.8125 67.328125 15.9375 71.671875 
Q 20.0625 76.03125 27.4375 76.03125 
Q 30.765625 76.03125 33.640625 75.203125 
L 33.203125 70.3125 
Q 30.765625 70.90625 27.875 70.90625 
Q 23.046875 70.90625 20.359375 67.890625 
Q 17.671875 64.890625 17.671875 59.375 
L 17.671875 52.828125 
L 30.28125 52.828125 
L 30.28125 48.046875 
L 17.671875 48.046875 
L 17.671875 0 
z
" id="Roboto-Light-66"/>
      <path d="M 32.03125 47.859375 
Q 30.171875 48.1875 28.078125 48.1875 
Q 22.609375 48.1875 18.828125 45.140625 
Q 15.046875 42.09375 13.421875 36.28125 
L 13.421875 0 
L 7.625 0 
L 7.625 52.828125 
L 13.328125 52.828125 
L 13.421875 44.4375 
Q 18.0625 53.8125 28.328125 53.8125 
Q 30.765625 53.8125 32.171875 53.171875 
z
" id="Roboto-Light-72"/>
      <path d="M 4.390625 27.203125 
Q 4.390625 34.8125 7.34375 40.90625 
Q 10.296875 47.015625 15.6875 50.40625 
Q 21.09375 53.8125 27.9375 53.8125 
Q 38.484375 53.8125 45.015625 46.40625 
Q 51.5625 39.015625 51.5625 26.8125 
L 51.5625 25.59375 
Q 51.5625 17.921875 48.609375 11.796875 
Q 45.65625 5.671875 40.28125 2.34375 
Q 34.90625 -0.984375 28.03125 -0.984375 
Q 17.53125 -0.984375 10.953125 6.40625 
Q 4.390625 13.8125 4.390625 26.03125 
z
M 10.25 25.59375 
Q 10.25 16.109375 15.15625 10.03125 
Q 20.0625 3.953125 28.03125 3.953125 
Q 35.9375 3.953125 40.84375 10.03125 
Q 45.75 16.109375 45.75 26.078125 
L 45.75 27.203125 
Q 45.75 33.25 43.5 38.28125 
Q 41.265625 43.3125 37.203125 46.0625 
Q 33.15625 48.828125 27.9375 48.828125 
Q 20.125 48.828125 15.1875 42.703125 
Q 10.25 36.578125 10.25 26.65625 
z
" id="Roboto-Light-6f"/>
      <path d="M 12.9375 52.828125 
L 13.140625 44.234375 
Q 16.0625 49.03125 20.453125 51.421875 
Q 24.859375 53.8125 30.21875 53.8125 
Q 42.71875 53.8125 46.09375 43.5625 
Q 48.921875 48.484375 53.65625 51.140625 
Q 58.40625 53.8125 64.109375 53.8125 
Q 81.109375 53.8125 81.453125 35.25 
L 81.453125 0 
L 75.59375 0 
L 75.59375 34.8125 
Q 75.53125 41.890625 72.53125 45.3125 
Q 69.53125 48.734375 62.75 48.734375 
Q 56.453125 48.640625 52.09375 44.65625 
Q 47.75 40.671875 47.265625 34.96875 
L 47.265625 0 
L 41.40625 0 
L 41.40625 35.25 
Q 41.359375 42.046875 38.203125 45.390625 
Q 35.0625 48.734375 28.515625 48.734375 
Q 23 48.734375 19.046875 45.578125 
Q 15.09375 42.4375 13.1875 36.234375 
L 13.1875 0 
L 7.328125 0 
L 7.328125 52.828125 
z
" id="Roboto-Light-6d"/>
      <path d="M 41.609375 6.6875 
Q 36.328125 -0.984375 24.75 -0.984375 
Q 16.3125 -0.984375 11.90625 3.921875 
Q 7.515625 8.84375 7.421875 18.453125 
L 7.421875 52.828125 
L 13.234375 52.828125 
L 13.234375 19.1875 
Q 13.234375 4.109375 25.4375 4.109375 
Q 38.140625 4.109375 41.5 14.59375 
L 41.5 52.828125 
L 47.359375 52.828125 
L 47.359375 0 
L 41.703125 0 
z
" id="Roboto-Light-75"/>
      <path d="M 14.15625 0 
L 8.296875 0 
L 8.296875 75 
L 14.15625 75 
z
" id="Roboto-Light-6c"/>
      <path d="M 24.078125 8.0625 
L 40.140625 52.828125 
L 46.140625 52.828125 
L 26.421875 0 
L 21.6875 0 
L 1.859375 52.828125 
L 7.859375 52.828125 
z
" id="Roboto-Light-76"/>
      <path d="M 20.265625 12.15625 
L 21.140625 7.625 
L 22.3125 12.40625 
L 35.015625 52.828125 
L 39.984375 52.828125 
L 52.546875 12.75 
L 53.90625 7.171875 
L 55.03125 12.3125 
L 65.875 52.828125 
L 71.921875 52.828125 
L 56.546875 0 
L 51.5625 0 
L 37.984375 41.890625 
L 37.359375 44.78125 
L 36.71875 41.84375 
L 23.390625 0 
L 18.40625 0 
L 3.078125 52.828125 
L 9.078125 52.828125 
z
" id="Roboto-Light-77"/>
     </defs>
     <g transform="translate(280.519688 136.140625)scale(0.1 -0.1)">
      <use xlink:href="#Roboto-Light-66"/>
      <use x="33.105469" xlink:href="#Roboto-Light-72"/>
      <use x="66.748047" xlink:href="#Roboto-Light-6f"/>
      <use x="122.753906" xlink:href="#Roboto-Light-6d"/>
      <use x="211.376953" xlink:href="#Roboto-Light-20"/>
      <use x="235.693359" xlink:href="#Roboto-Light-66"/>
      <use x="268.798828" xlink:href="#Roboto-Light-75"/>
      <use x="323.730469" xlink:href="#Roboto-Light-6c"/>
      <use x="346.142578" xlink:href="#Roboto-Light-6c"/>
      <use x="368.554688" xlink:href="#Roboto-Light-20"/>
      <use x="392.871094" xlink:href="#Roboto-Light-76"/>
      <use x="440.966797" xlink:href="#Roboto-Light-69"/>
      <use x="463.378906" xlink:href="#Roboto-Light-65"/>
      <use x="515.039062" xlink:href="#Roboto-Light-77"/>
     </g>
    </g>
   </g>
  </g>
 </g>
 <defs>
  <clipPath id="ped709a2e68">
   <rect height="174.96" width="199.309091" x="29.279688" y="22.2"/>
  </clipPath>
 </defs>
</svg>
