<?xml version="1.0" encoding="utf-8" standalone="no"?>
<!DOCTYPE svg PUBLIC "-//W3C//DTD SVG 1.1//EN"
  "http://www.w3.org/Graphics/SVG/1.1/DTD/svg11.dtd">
<!-- Created with matplotlib (http://matplotlib.org/) -->
<svg height="217pt" version="1.1" viewBox="0 0 554 217" width="554pt" xmlns="http://www.w3.org/2000/svg" xmlns:xlink="http://www.w3.org/1999/xlink">
 <defs>
  <style type="text/css">
*{stroke-linecap:butt;stroke-linejoin:round;}
  </style>
 </defs>
 <g id="figure_1">
  <g id="patch_1">
   <path d="M 0 217.39125 
L 554.177812 217.39125 
L 554.177812 -0 
L 0 -0 
z
" style="fill:#ffffff;"/>
  </g>
  <g id="axes_1">
   <g id="patch_2">
    <path d="M 45.857813 197.16 
L 273.639631 197.16 
L 273.639631 22.2 
L 45.857813 22.2 
z
" style="fill:#ffffff;"/>
   </g>
   <g id="line2d_1">
    <path clip-path="url(#p69498b5da5)" d="M 56.56837 189.207273 
L 77.311061 189.053135 
L 89.444757 188.898997 
L 110.187449 188.436584 
L 125.474099 187.820032 
L 135.543158 187.203481 
L 144.681819 186.432792 
L 152.894445 185.507965 
L 160.281826 184.429 
L 166.201836 183.350036 
L 171.785492 182.116933 
L 177.02854 180.729693 
L 181.945371 179.188315 
L 186.558388 177.492799 
L 190.892509 175.643145 
L 194.677595 173.793491 
L 198.300898 171.7897 
L 201.767209 169.63177 
L 205.083371 167.319703 
L 208.444864 164.69936 
L 211.635201 161.92488 
L 214.670238 158.996261 
L 217.701419 155.759367 
L 220.702991 152.214197 
L 223.543893 148.51489 
L 226.344712 144.507307 
L 229.093892 140.191448 
L 231.869233 135.413176 
L 234.565565 130.326628 
L 237.253939 124.777667 
L 239.917245 118.766292 
L 242.542866 112.292504 
L 245.176624 105.202164 
L 247.798737 97.495273 
L 250.394215 89.171831 
L 252.994227 80.0777 
L 255.580483 70.21288 
L 258.174652 59.423233 
L 260.757786 47.70876 
L 263.285557 35.223597 
L 263.285557 35.223597 
" style="fill:none;opacity:0.2;stroke:#0000ff;"/>
   </g>
   <g id="matplotlib.axis_1">
    <g id="xtick_1">
     <g id="line2d_2">
      <path clip-path="url(#p69498b5da5)" d="M 56.56837 197.16 
L 56.56837 22.2 
" style="fill:none;stroke:#cbcbcb;stroke-width:0.75;"/>
     </g>
     <g id="line2d_3"/>
     <g id="text_1">
      <!-- 1 -->
      <defs>
       <path d="M 33.890625 0 
L 28.03125 0 
L 28.03125 64.0625 
L 8.6875 56.890625 
L 8.6875 62.359375 
L 32.90625 71.34375 
L 33.890625 71.34375 
z
" id="Roboto-Light-31"/>
      </defs>
      <g transform="translate(53.797276 208.16)scale(0.1 -0.1)">
       <use xlink:href="#Roboto-Light-31"/>
      </g>
     </g>
    </g>
    <g id="xtick_2">
     <g id="line2d_4">
      <path clip-path="url(#p69498b5da5)" d="M 125.474099 197.16 
L 125.474099 22.2 
" style="fill:none;stroke:#cbcbcb;stroke-width:0.75;"/>
     </g>
     <g id="line2d_5"/>
     <g id="text_2">
      <!-- 10 -->
      <defs>
       <path d="M 49.5625 29.640625 
Q 49.5625 14.59375 44.046875 6.796875 
Q 38.53125 -0.984375 27.78125 -0.984375 
Q 17.234375 -0.984375 11.609375 6.65625 
Q 6 14.3125 5.859375 28.90625 
L 5.859375 41.65625 
Q 5.859375 56.640625 11.421875 64.359375 
Q 17 72.078125 27.6875 72.078125 
Q 38.234375 72.078125 43.796875 64.625 
Q 49.359375 57.171875 49.5625 42.671875 
z
M 43.703125 42.390625 
Q 43.703125 54.59375 39.71875 60.84375 
Q 35.75 67.09375 27.6875 67.09375 
Q 19.78125 67.09375 15.765625 60.984375 
Q 11.765625 54.890625 11.671875 42.96875 
L 11.671875 29 
Q 11.671875 16.84375 15.796875 10.390625 
Q 19.921875 3.953125 27.78125 3.953125 
Q 35.59375 3.953125 39.625 10.25 
Q 43.65625 16.546875 43.703125 28.71875 
z
" id="Roboto-Light-30"/>
      </defs>
      <g transform="translate(119.931911 208.16)scale(0.1 -0.1)">
       <use xlink:href="#Roboto-Light-31"/>
       <use x="55.419922" xlink:href="#Roboto-Light-30"/>
      </g>
     </g>
    </g>
    <g id="xtick_3">
     <g id="line2d_6">
      <path clip-path="url(#p69498b5da5)" d="M 194.379828 197.16 
L 194.379828 22.2 
" style="fill:none;stroke:#cbcbcb;stroke-width:0.75;"/>
     </g>
     <g id="line2d_7"/>
     <g id="text_3">
      <!-- 100 -->
      <g transform="translate(186.066547 208.16)scale(0.1 -0.1)">
       <use xlink:href="#Roboto-Light-31"/>
       <use x="55.419922" xlink:href="#Roboto-Light-30"/>
       <use x="110.839844" xlink:href="#Roboto-Light-30"/>
      </g>
     </g>
    </g>
    <g id="xtick_4">
     <g id="line2d_8">
      <path clip-path="url(#p69498b5da5)" d="M 263.285557 197.16 
L 263.285557 22.2 
" style="fill:none;stroke:#cbcbcb;stroke-width:0.75;"/>
     </g>
     <g id="line2d_9"/>
     <g id="text_4">
      <!-- 1 k -->
      <defs>
       <path id="Roboto-Light-20"/>
       <path d="M 20.171875 26.609375 
L 13.484375 20.171875 
L 13.484375 0 
L 7.625 0 
L 7.625 75 
L 13.484375 75 
L 13.484375 27 
L 19 32.953125 
L 39.203125 52.828125 
L 46.578125 52.828125 
L 24.171875 30.5625 
L 48.53125 0 
L 41.546875 0 
z
" id="Roboto-Light-6b"/>
      </defs>
      <g transform="translate(256.850401 208.16)scale(0.1 -0.1)">
       <use xlink:href="#Roboto-Light-31"/>
       <use x="55.419922" xlink:href="#Roboto-Light-20"/>
       <use x="79.736328" xlink:href="#Roboto-Light-6b"/>
      </g>
     </g>
    </g>
    <g id="xtick_5">
     <g id="line2d_10"/>
    </g>
    <g id="xtick_6">
     <g id="line2d_11"/>
    </g>
    <g id="xtick_7">
     <g id="line2d_12"/>
    </g>
    <g id="xtick_8">
     <g id="line2d_13"/>
    </g>
    <g id="xtick_9">
     <g id="line2d_14"/>
    </g>
    <g id="xtick_10">
     <g id="line2d_15"/>
    </g>
    <g id="xtick_11">
     <g id="line2d_16"/>
    </g>
    <g id="xtick_12">
     <g id="line2d_17"/>
    </g>
    <g id="xtick_13">
     <g id="line2d_18"/>
    </g>
    <g id="xtick_14">
     <g id="line2d_19"/>
    </g>
    <g id="xtick_15">
     <g id="line2d_20"/>
    </g>
    <g id="xtick_16">
     <g id="line2d_21"/>
    </g>
    <g id="xtick_17">
     <g id="line2d_22"/>
    </g>
    <g id="xtick_18">
     <g id="line2d_23"/>
    </g>
    <g id="xtick_19">
     <g id="line2d_24"/>
    </g>
    <g id="xtick_20">
     <g id="line2d_25"/>
    </g>
    <g id="xtick_21">
     <g id="line2d_26"/>
    </g>
    <g id="xtick_22">
     <g id="line2d_27"/>
    </g>
    <g id="xtick_23">
     <g id="line2d_28"/>
    </g>
    <g id="xtick_24">
     <g id="line2d_29"/>
    </g>
    <g id="xtick_25">
     <g id="line2d_30"/>
    </g>
    <g id="xtick_26">
     <g id="line2d_31"/>
    </g>
    <g id="xtick_27">
     <g id="line2d_32"/>
    </g>
    <g id="xtick_28">
     <g id="line2d_33"/>
    </g>
    <g id="xtick_29">
     <g id="line2d_34"/>
    </g>
    <g id="xtick_30">
     <g id="line2d_35"/>
    </g>
    <g id="xtick_31">
     <g id="line2d_36"/>
    </g>
   </g>
   <g id="matplotlib.axis_2">
    <g id="ytick_1">
     <g id="line2d_37">
      <path clip-path="url(#p69498b5da5)" d="M 45.857813 189.361411 
L 273.639631 189.361411 
" style="fill:none;stroke:#cbcbcb;stroke-width:0.75;"/>
     </g>
     <g id="line2d_38"/>
     <g id="text_5">
      <!-- 0 ns -->
      <defs>
       <path d="M 13.1875 52.828125 
L 13.375 43.796875 
Q 16.359375 48.6875 20.796875 51.25 
Q 25.25 53.8125 30.609375 53.8125 
Q 39.109375 53.8125 43.25 49.015625 
Q 47.40625 44.234375 47.46875 34.671875 
L 47.46875 0 
L 41.65625 0 
L 41.65625 34.71875 
Q 41.609375 41.796875 38.640625 45.265625 
Q 35.6875 48.734375 29.203125 48.734375 
Q 23.78125 48.734375 19.609375 45.328125 
Q 15.4375 41.9375 13.421875 36.1875 
L 13.421875 0 
L 7.625 0 
L 7.625 52.828125 
z
" id="Roboto-Light-6e"/>
       <path d="M 39.265625 13.421875 
Q 39.265625 17.78125 35.765625 20.40625 
Q 32.28125 23.046875 25.25 24.53125 
Q 18.21875 26.03125 14.328125 27.953125 
Q 10.453125 29.890625 8.5625 32.671875 
Q 6.6875 35.453125 6.6875 39.40625 
Q 6.6875 45.65625 11.90625 49.734375 
Q 17.140625 53.8125 25.296875 53.8125 
Q 34.125 53.8125 39.46875 49.4375 
Q 44.828125 45.0625 44.828125 38.03125 
L 38.96875 38.03125 
Q 38.96875 42.671875 35.078125 45.75 
Q 31.203125 48.828125 25.296875 48.828125 
Q 19.53125 48.828125 16.03125 46.265625 
Q 12.546875 43.703125 12.546875 39.59375 
Q 12.546875 35.640625 15.453125 33.46875 
Q 18.359375 31.296875 26.046875 29.484375 
Q 33.734375 27.6875 37.5625 25.625 
Q 41.40625 23.578125 43.265625 20.703125 
Q 45.125 17.828125 45.125 13.71875 
Q 45.125 7.03125 39.71875 3.015625 
Q 34.328125 -0.984375 25.640625 -0.984375 
Q 16.40625 -0.984375 10.671875 3.484375 
Q 4.9375 7.953125 4.9375 14.796875 
L 10.796875 14.796875 
Q 11.140625 9.671875 15.109375 6.8125 
Q 19.09375 3.953125 25.640625 3.953125 
Q 31.734375 3.953125 35.5 6.640625 
Q 39.265625 9.328125 39.265625 13.421875 
" id="Roboto-Light-73"/>
      </defs>
      <g transform="translate(23.826563 193.111411)scale(0.1 -0.1)">
       <use xlink:href="#Roboto-Light-30"/>
       <use x="55.419922" xlink:href="#Roboto-Light-20"/>
       <use x="79.736328" xlink:href="#Roboto-Light-6e"/>
       <use x="134.667969" xlink:href="#Roboto-Light-73"/>
      </g>
     </g>
    </g>
    <g id="ytick_2">
     <g id="line2d_39">
      <path clip-path="url(#p69498b5da5)" d="M 45.857813 161.298368 
L 273.639631 161.298368 
" style="fill:none;stroke:#cbcbcb;stroke-width:0.75;"/>
     </g>
     <g id="line2d_40"/>
     <g id="text_6">
      <!-- 1000 ns -->
      <g transform="translate(7.2 165.048368)scale(0.1 -0.1)">
       <use xlink:href="#Roboto-Light-31"/>
       <use x="55.419922" xlink:href="#Roboto-Light-30"/>
       <use x="110.839844" xlink:href="#Roboto-Light-30"/>
       <use x="166.259766" xlink:href="#Roboto-Light-30"/>
       <use x="221.679688" xlink:href="#Roboto-Light-20"/>
       <use x="245.996094" xlink:href="#Roboto-Light-6e"/>
       <use x="300.927734" xlink:href="#Roboto-Light-73"/>
      </g>
     </g>
    </g>
    <g id="ytick_3">
     <g id="line2d_41">
      <path clip-path="url(#p69498b5da5)" d="M 45.857813 133.235325 
L 273.639631 133.235325 
" style="fill:none;stroke:#cbcbcb;stroke-width:0.75;"/>
     </g>
     <g id="line2d_42"/>
     <g id="text_7">
      <!-- 2000 ns -->
      <defs>
       <path d="M 51.21875 0 
L 6.6875 0 
L 6.6875 4.5 
L 31.0625 32.125 
Q 37.109375 39.109375 39.453125 43.640625 
Q 41.796875 48.1875 41.796875 52.484375 
Q 41.796875 59.234375 37.84375 63.15625 
Q 33.890625 67.09375 26.953125 67.09375 
Q 19.78125 67.09375 15.359375 62.5 
Q 10.9375 57.90625 10.9375 50.59375 
L 5.125 50.59375 
Q 5.125 56.59375 7.828125 61.515625 
Q 10.546875 66.453125 15.546875 69.265625 
Q 20.5625 72.078125 26.953125 72.078125 
Q 36.71875 72.078125 42.203125 66.9375 
Q 47.703125 61.8125 47.703125 52.984375 
Q 47.703125 48 44.59375 42.09375 
Q 41.5 36.1875 33.6875 27.34375 
L 13.875 4.9375 
L 51.21875 4.9375 
z
" id="Roboto-Light-32"/>
      </defs>
      <g transform="translate(7.2 136.985325)scale(0.1 -0.1)">
       <use xlink:href="#Roboto-Light-32"/>
       <use x="55.419922" xlink:href="#Roboto-Light-30"/>
       <use x="110.839844" xlink:href="#Roboto-Light-30"/>
       <use x="166.259766" xlink:href="#Roboto-Light-30"/>
       <use x="221.679688" xlink:href="#Roboto-Light-20"/>
       <use x="245.996094" xlink:href="#Roboto-Light-6e"/>
       <use x="300.927734" xlink:href="#Roboto-Light-73"/>
      </g>
     </g>
    </g>
    <g id="ytick_4">
     <g id="line2d_43">
      <path clip-path="url(#p69498b5da5)" d="M 45.857813 105.172283 
L 273.639631 105.172283 
" style="fill:none;stroke:#cbcbcb;stroke-width:0.75;"/>
     </g>
     <g id="line2d_44"/>
     <g id="text_8">
      <!-- 3000 ns -->
      <defs>
       <path d="M 19.671875 38.71875 
L 25.734375 38.71875 
Q 30.765625 38.71875 34.515625 40.5 
Q 38.28125 42.28125 40.25 45.375 
Q 42.234375 48.484375 42.234375 52.546875 
Q 42.234375 59.375 38.375 63.234375 
Q 34.515625 67.09375 27.296875 67.09375 
Q 20.453125 67.09375 16.078125 63.0625 
Q 11.71875 59.03125 11.71875 52.4375 
L 5.859375 52.4375 
Q 5.859375 57.953125 8.640625 62.515625 
Q 11.421875 67.09375 16.359375 69.578125 
Q 21.296875 72.078125 27.296875 72.078125 
Q 36.96875 72.078125 42.53125 66.796875 
Q 48.09375 61.53125 48.09375 52.34375 
Q 48.09375 47.21875 44.84375 42.890625 
Q 41.609375 38.578125 35.9375 36.421875 
Q 42.578125 34.578125 46 30.046875 
Q 49.421875 25.53125 49.421875 19.28125 
Q 49.421875 10.15625 43.453125 4.578125 
Q 37.5 -0.984375 27.546875 -0.984375 
Q 21.1875 -0.984375 15.890625 1.5625 
Q 10.59375 4.109375 7.6875 8.671875 
Q 4.78125 13.234375 4.78125 19.28125 
L 10.640625 19.28125 
Q 10.640625 12.5 15.375 8.21875 
Q 20.125 3.953125 27.546875 3.953125 
Q 35.109375 3.953125 39.328125 7.828125 
Q 43.5625 11.71875 43.5625 19.09375 
Q 43.5625 26.21875 38.984375 29.96875 
Q 34.421875 33.734375 25.53125 33.734375 
L 19.671875 33.734375 
z
" id="Roboto-Light-33"/>
      </defs>
      <g transform="translate(7.2 108.922283)scale(0.1 -0.1)">
       <use xlink:href="#Roboto-Light-33"/>
       <use x="55.419922" xlink:href="#Roboto-Light-30"/>
       <use x="110.839844" xlink:href="#Roboto-Light-30"/>
       <use x="166.259766" xlink:href="#Roboto-Light-30"/>
       <use x="221.679688" xlink:href="#Roboto-Light-20"/>
       <use x="245.996094" xlink:href="#Roboto-Light-6e"/>
       <use x="300.927734" xlink:href="#Roboto-Light-73"/>
      </g>
     </g>
    </g>
    <g id="ytick_5">
     <g id="line2d_45">
      <path clip-path="url(#p69498b5da5)" d="M 45.857813 77.10924 
L 273.639631 77.10924 
" style="fill:none;stroke:#cbcbcb;stroke-width:0.75;"/>
     </g>
     <g id="line2d_46"/>
     <g id="text_9">
      <!-- 4000 ns -->
      <defs>
       <path d="M 42.578125 22.90625 
L 53.65625 22.90625 
L 53.65625 17.96875 
L 42.578125 17.96875 
L 42.578125 0 
L 36.71875 0 
L 36.71875 17.96875 
L 3.265625 17.96875 
L 3.265625 21.296875 
L 36.1875 71.09375 
L 42.578125 71.09375 
z
M 10.453125 22.90625 
L 36.71875 22.90625 
L 36.71875 63.53125 
L 34.125 59.03125 
z
" id="Roboto-Light-34"/>
      </defs>
      <g transform="translate(7.2 80.85924)scale(0.1 -0.1)">
       <use xlink:href="#Roboto-Light-34"/>
       <use x="55.419922" xlink:href="#Roboto-Light-30"/>
       <use x="110.839844" xlink:href="#Roboto-Light-30"/>
       <use x="166.259766" xlink:href="#Roboto-Light-30"/>
       <use x="221.679688" xlink:href="#Roboto-Light-20"/>
       <use x="245.996094" xlink:href="#Roboto-Light-6e"/>
       <use x="300.927734" xlink:href="#Roboto-Light-73"/>
      </g>
     </g>
    </g>
    <g id="ytick_6">
     <g id="line2d_47">
      <path clip-path="url(#p69498b5da5)" d="M 45.857813 49.046198 
L 273.639631 49.046198 
" style="fill:none;stroke:#cbcbcb;stroke-width:0.75;"/>
     </g>
     <g id="line2d_48"/>
     <g id="text_10">
      <!-- 5000 ns -->
      <defs>
       <path d="M 10.640625 36.421875 
L 14.109375 71.09375 
L 49.65625 71.09375 
L 49.65625 65.671875 
L 19.140625 65.671875 
L 16.65625 41.65625 
Q 22.359375 45.5625 30.03125 45.5625 
Q 39.65625 45.5625 45.359375 39.3125 
Q 51.078125 33.0625 51.078125 22.65625 
Q 51.078125 11.421875 45.5 5.21875 
Q 39.9375 -0.984375 29.828125 -0.984375 
Q 20.5625 -0.984375 14.796875 4.1875 
Q 9.03125 9.375 8.203125 18.703125 
L 13.8125 18.703125 
Q 14.65625 11.421875 18.75 7.6875 
Q 22.859375 3.953125 29.828125 3.953125 
Q 37.453125 3.953125 41.328125 8.78125 
Q 45.21875 13.625 45.21875 22.5625 
Q 45.21875 30.375 40.875 35.296875 
Q 36.53125 40.234375 29 40.234375 
Q 24.859375 40.234375 21.78125 39.1875 
Q 18.703125 38.140625 15.28125 35.109375 
z
" id="Roboto-Light-35"/>
      </defs>
      <g transform="translate(7.2 52.796198)scale(0.1 -0.1)">
       <use xlink:href="#Roboto-Light-35"/>
       <use x="55.419922" xlink:href="#Roboto-Light-30"/>
       <use x="110.839844" xlink:href="#Roboto-Light-30"/>
       <use x="166.259766" xlink:href="#Roboto-Light-30"/>
       <use x="221.679688" xlink:href="#Roboto-Light-20"/>
       <use x="245.996094" xlink:href="#Roboto-Light-6e"/>
       <use x="300.927734" xlink:href="#Roboto-Light-73"/>
      </g>
     </g>
    </g>
   </g>
   <g id="PathCollection_1">
    <defs>
     <path d="M 0 3 
C 0.795609 3 1.55874 2.683901 2.12132 2.12132 
C 2.683901 1.55874 3 0.795609 3 0 
C 3 -0.795609 2.683901 -1.55874 2.12132 -2.12132 
C 1.55874 -2.683901 0.795609 -3 0 -3 
C -0.795609 -3 -1.55874 -2.683901 -2.12132 -2.12132 
C -2.683901 -1.55874 -3 -0.795609 -3 0 
C -3 0.795609 -2.683901 1.55874 -2.12132 2.12132 
C -1.55874 2.683901 -0.795609 3 0 3 
z
" id="m62cb328505" style="stroke:#0000ff;stroke-width:0.5;"/>
    </defs>
    <g clip-path="url(#p69498b5da5)">
     <use style="fill:#0000ff;stroke:#0000ff;stroke-width:0.5;" x="56.56837" xlink:href="#m62cb328505" y="187.275644"/>
     <use style="fill:#0000ff;stroke:#0000ff;stroke-width:0.5;" x="77.311061" xlink:href="#m62cb328505" y="187.192213"/>
     <use style="fill:#0000ff;stroke:#0000ff;stroke-width:0.5;" x="89.444757" xlink:href="#m62cb328505" y="187.25289"/>
     <use style="fill:#0000ff;stroke:#0000ff;stroke-width:0.5;" x="104.731407" xlink:href="#m62cb328505" y="187.207382"/>
     <use style="fill:#0000ff;stroke:#0000ff;stroke-width:0.5;" x="110.187449" xlink:href="#m62cb328505" y="187.184629"/>
     <use style="fill:#0000ff;stroke:#0000ff;stroke-width:0.5;" x="114.800466" xlink:href="#m62cb328505" y="187.093613"/>
     <use style="fill:#0000ff;stroke:#0000ff;stroke-width:0.5;" x="118.796444" xlink:href="#m62cb328505" y="187.070859"/>
     <use style="fill:#0000ff;stroke:#0000ff;stroke-width:0.5;" x="122.321145" xlink:href="#m62cb328505" y="187.048106"/>
     <use style="fill:#0000ff;stroke:#0000ff;stroke-width:0.5;" x="125.474099" xlink:href="#m62cb328505" y="186.979844"/>
     <use style="fill:#0000ff;stroke:#0000ff;stroke-width:0.5;" x="146.21679" xlink:href="#m62cb328505" y="186.661291"/>
     <use style="fill:#0000ff;stroke:#0000ff;stroke-width:0.5;" x="158.350487" xlink:href="#m62cb328505" y="186.069691"/>
     <use style="fill:#0000ff;stroke:#0000ff;stroke-width:0.5;" x="166.959481" xlink:href="#m62cb328505" y="185.682877"/>
     <use style="fill:#0000ff;stroke:#0000ff;stroke-width:0.5;" x="173.637136" xlink:href="#m62cb328505" y="185.500846"/>
     <use style="fill:#0000ff;stroke:#0000ff;stroke-width:0.5;" x="179.093178" xlink:href="#m62cb328505" y="184.94717"/>
     <use style="fill:#0000ff;stroke:#0000ff;stroke-width:0.5;" x="187.702173" xlink:href="#m62cb328505" y="184.135617"/>
     <use style="fill:#0000ff;stroke:#0000ff;stroke-width:0.5;" x="191.226875" xlink:href="#m62cb328505" y="183.854987"/>
     <use style="fill:#0000ff;stroke:#0000ff;stroke-width:0.5;" x="194.379828" xlink:href="#m62cb328505" y="182.459419"/>
     <use style="fill:#0000ff;stroke:#0000ff;stroke-width:0.5;" x="215.122519" xlink:href="#m62cb328505" y="163.85438"/>
     <use style="fill:#0000ff;stroke:#0000ff;stroke-width:0.5;" x="227.256216" xlink:href="#m62cb328505" y="145.727172"/>
     <use style="fill:#0000ff;stroke:#0000ff;stroke-width:0.5;" x="235.865211" xlink:href="#m62cb328505" y="132.537542"/>
     <use style="fill:#0000ff;stroke:#0000ff;stroke-width:0.5;" x="242.542866" xlink:href="#m62cb328505" y="118.794235"/>
     <use style="fill:#0000ff;stroke:#0000ff;stroke-width:0.5;" x="256.607902" xlink:href="#m62cb328505" y="68.561389"/>
     <use style="fill:#0000ff;stroke:#0000ff;stroke-width:0.5;" x="263.285557" xlink:href="#m62cb328505" y="30.152944"/>
    </g>
   </g>
   <g id="patch_3">
    <path d="M 45.857813 197.16 
L 45.857813 22.2 
" style="fill:none;"/>
   </g>
   <g id="patch_4">
    <path d="M 273.639631 197.16 
L 273.639631 22.2 
" style="fill:none;"/>
   </g>
   <g id="patch_5">
    <path d="M 45.857812 197.16 
L 273.639631 197.16 
" style="fill:none;"/>
   </g>
   <g id="patch_6">
    <path d="M 45.857812 22.2 
L 273.639631 22.2 
" style="fill:none;"/>
   </g>
   <g id="text_11">
    <!-- lookup time -->
    <defs>
     <path d="M 18.703125 0 
L 6.84375 0 
L 6.84375 75 
L 18.703125 75 
z
" id="Roboto-Medium-6c"/>
     <path d="M 3.859375 26.90625 
Q 3.859375 34.671875 6.9375 40.890625 
Q 10.015625 47.125 15.578125 50.46875 
Q 21.140625 53.8125 28.375 53.8125 
Q 39.0625 53.8125 45.71875 46.921875 
Q 52.390625 40.046875 52.9375 28.65625 
L 52.984375 25.875 
Q 52.984375 18.0625 49.96875 11.90625 
Q 46.96875 5.765625 41.375 2.390625 
Q 35.796875 -0.984375 28.46875 -0.984375 
Q 17.28125 -0.984375 10.5625 6.46875 
Q 3.859375 13.921875 3.859375 26.3125 
z
M 15.71875 25.875 
Q 15.71875 17.71875 19.09375 13.109375 
Q 22.46875 8.5 28.46875 8.5 
Q 34.46875 8.5 37.8125 13.1875 
Q 41.15625 17.875 41.15625 26.90625 
Q 41.15625 34.90625 37.71875 39.59375 
Q 34.28125 44.28125 28.375 44.28125 
Q 22.5625 44.28125 19.140625 39.671875 
Q 15.71875 35.0625 15.71875 25.875 
" id="Roboto-Medium-6f"/>
     <path d="M 23.25 22.65625 
L 17.96875 17.234375 
L 17.96875 0 
L 6.109375 0 
L 6.109375 75 
L 17.96875 75 
L 17.96875 31.734375 
L 21.6875 36.375 
L 36.28125 52.828125 
L 50.53125 52.828125 
L 30.90625 30.8125 
L 52.640625 0 
L 38.921875 0 
z
" id="Roboto-Medium-6b"/>
     <path d="M 38.09375 5.171875 
Q 32.859375 -0.984375 23.25 -0.984375 
Q 14.65625 -0.984375 10.234375 4.046875 
Q 5.8125 9.078125 5.8125 18.609375 
L 5.8125 52.828125 
L 17.671875 52.828125 
L 17.671875 18.75 
Q 17.671875 8.6875 26.03125 8.6875 
Q 34.671875 8.6875 37.703125 14.890625 
L 37.703125 52.828125 
L 49.5625 52.828125 
L 49.5625 0 
L 38.375 0 
z
" id="Roboto-Medium-75"/>
     <path d="M 52.34375 25.875 
Q 52.34375 13.625 46.78125 6.3125 
Q 41.21875 -0.984375 31.84375 -0.984375 
Q 23.140625 -0.984375 17.921875 4.734375 
L 17.921875 -20.3125 
L 6.0625 -20.3125 
L 6.0625 52.828125 
L 17 52.828125 
L 17.484375 47.46875 
Q 22.703125 53.8125 31.6875 53.8125 
Q 41.359375 53.8125 46.84375 46.609375 
Q 52.34375 39.40625 52.34375 26.609375 
z
M 40.53125 26.90625 
Q 40.53125 34.8125 37.375 39.453125 
Q 34.234375 44.09375 28.375 44.09375 
Q 21.09375 44.09375 17.921875 38.09375 
L 17.921875 14.65625 
Q 21.140625 8.5 28.46875 8.5 
Q 34.125 8.5 37.328125 13.0625 
Q 40.53125 17.625 40.53125 26.90625 
" id="Roboto-Medium-70"/>
     <path id="Roboto-Medium-20"/>
     <path d="M 20.953125 65.671875 
L 20.953125 52.828125 
L 30.28125 52.828125 
L 30.28125 44.046875 
L 20.953125 44.046875 
L 20.953125 14.546875 
Q 20.953125 11.53125 22.140625 10.1875 
Q 23.34375 8.84375 26.421875 8.84375 
Q 28.46875 8.84375 30.5625 9.328125 
L 30.5625 0.140625 
Q 26.515625 -0.984375 22.75 -0.984375 
Q 9.078125 -0.984375 9.078125 14.109375 
L 9.078125 44.046875 
L 0.390625 44.046875 
L 0.390625 52.828125 
L 9.078125 52.828125 
L 9.078125 65.671875 
z
" id="Roboto-Medium-74"/>
     <path d="M 18.703125 0 
L 6.84375 0 
L 6.84375 52.828125 
L 18.703125 52.828125 
z
M 6.109375 66.546875 
Q 6.109375 69.28125 7.84375 71.09375 
Q 9.578125 72.90625 12.796875 72.90625 
Q 16.015625 72.90625 17.765625 71.09375 
Q 19.53125 69.28125 19.53125 66.546875 
Q 19.53125 63.875 17.765625 62.078125 
Q 16.015625 60.296875 12.796875 60.296875 
Q 9.578125 60.296875 7.84375 62.078125 
Q 6.109375 63.875 6.109375 66.546875 
" id="Roboto-Medium-69"/>
     <path d="M 17.234375 52.828125 
L 17.578125 47.3125 
Q 23.140625 53.8125 32.8125 53.8125 
Q 43.40625 53.8125 47.3125 45.703125 
Q 53.078125 53.8125 63.53125 53.8125 
Q 72.265625 53.8125 76.53125 48.96875 
Q 80.8125 44.140625 80.90625 34.71875 
L 80.90625 0 
L 69.046875 0 
L 69.046875 34.375 
Q 69.046875 39.40625 66.84375 41.75 
Q 64.65625 44.09375 59.578125 44.09375 
Q 55.515625 44.09375 52.953125 41.921875 
Q 50.390625 39.75 49.359375 36.234375 
L 49.421875 0 
L 37.546875 0 
L 37.546875 34.765625 
Q 37.3125 44.09375 28.03125 44.09375 
Q 20.90625 44.09375 17.921875 38.28125 
L 17.921875 0 
L 6.0625 0 
L 6.0625 52.828125 
z
" id="Roboto-Medium-6d"/>
     <path d="M 29.34375 -0.984375 
Q 18.0625 -0.984375 11.046875 6.125 
Q 4.046875 13.234375 4.046875 25.046875 
L 4.046875 26.515625 
Q 4.046875 34.421875 7.09375 40.640625 
Q 10.15625 46.875 15.671875 50.34375 
Q 21.1875 53.8125 27.984375 53.8125 
Q 38.765625 53.8125 44.640625 46.921875 
Q 50.53125 40.046875 50.53125 27.4375 
L 50.53125 22.65625 
L 16.015625 22.65625 
Q 16.546875 16.109375 20.375 12.296875 
Q 24.21875 8.5 30.03125 8.5 
Q 38.1875 8.5 43.3125 15.09375 
L 49.703125 8.984375 
Q 46.53125 4.25 41.234375 1.625 
Q 35.9375 -0.984375 29.34375 -0.984375 
M 27.9375 44.28125 
Q 23.046875 44.28125 20.046875 40.859375 
Q 17.046875 37.453125 16.21875 31.34375 
L 38.8125 31.34375 
L 38.8125 32.234375 
Q 38.421875 38.1875 35.640625 41.234375 
Q 32.859375 44.28125 27.9375 44.28125 
" id="Roboto-Medium-65"/>
    </defs>
    <g transform="translate(128.079034 16.2)scale(0.12 -0.12)">
     <use xlink:href="#Roboto-Medium-6c"/>
     <use x="25.537109" xlink:href="#Roboto-Medium-6f"/>
     <use x="82.470703" xlink:href="#Roboto-Medium-6f"/>
     <use x="139.404297" xlink:href="#Roboto-Medium-6b"/>
     <use x="191.601562" xlink:href="#Roboto-Medium-75"/>
     <use x="247.167969" xlink:href="#Roboto-Medium-70"/>
     <use x="303.466797" xlink:href="#Roboto-Medium-20"/>
     <use x="328.369141" xlink:href="#Roboto-Medium-74"/>
     <use x="361.621094" xlink:href="#Roboto-Medium-69"/>
     <use x="387.158203" xlink:href="#Roboto-Medium-6d"/>
     <use x="474.169922" xlink:href="#Roboto-Medium-65"/>
    </g>
   </g>
  </g>
  <g id="axes_2">
   <g id="patch_7">
    <path d="M 319.195994 197.16 
L 546.977812 197.16 
L 546.977812 22.2 
L 319.195994 22.2 
z
" style="fill:#ffffff;"/>
   </g>
   <g id="matplotlib.axis_3">
    <g id="xtick_32">
     <g id="line2d_49">
      <path clip-path="url(#p4be566793e)" d="M 329.576979 197.16 
L 329.576979 22.2 
" style="fill:none;stroke:#cbcbcb;stroke-width:0.75;"/>
     </g>
     <g id="line2d_50"/>
     <g id="text_12">
      <!-- 0 -->
      <g transform="translate(326.805885 208.16)scale(0.1 -0.1)">
       <use xlink:href="#Roboto-Light-30"/>
      </g>
     </g>
    </g>
    <g id="xtick_33">
     <g id="line2d_51">
      <path clip-path="url(#p4be566793e)" d="M 375.58139 197.16 
L 375.58139 22.2 
" style="fill:none;stroke:#cbcbcb;stroke-width:0.75;"/>
     </g>
     <g id="line2d_52"/>
     <g id="text_13">
      <!-- 20 -->
      <g transform="translate(370.039202 208.16)scale(0.1 -0.1)">
       <use xlink:href="#Roboto-Light-32"/>
       <use x="55.419922" xlink:href="#Roboto-Light-30"/>
      </g>
     </g>
    </g>
    <g id="xtick_34">
     <g id="line2d_53">
      <path clip-path="url(#p4be566793e)" d="M 421.585801 197.16 
L 421.585801 22.2 
" style="fill:none;stroke:#cbcbcb;stroke-width:0.75;"/>
     </g>
     <g id="line2d_54"/>
     <g id="text_14">
      <!-- 40 -->
      <g transform="translate(416.043613 208.16)scale(0.1 -0.1)">
       <use xlink:href="#Roboto-Light-34"/>
       <use x="55.419922" xlink:href="#Roboto-Light-30"/>
      </g>
     </g>
    </g>
    <g id="xtick_35">
     <g id="line2d_55">
      <path clip-path="url(#p4be566793e)" d="M 467.590212 197.16 
L 467.590212 22.2 
" style="fill:none;stroke:#cbcbcb;stroke-width:0.75;"/>
     </g>
     <g id="line2d_56"/>
     <g id="text_15">
      <!-- 60 -->
      <defs>
       <path d="M 41.15625 71.625 
L 41.15625 66.5 
L 40.484375 66.5 
Q 27.734375 66.5 20.40625 59 
Q 13.09375 51.515625 12.3125 38.1875 
Q 15.234375 42.234375 19.765625 44.453125 
Q 24.3125 46.6875 29.9375 46.6875 
Q 39.3125 46.6875 44.84375 40.203125 
Q 50.390625 33.734375 50.390625 23.296875 
Q 50.390625 16.359375 47.796875 10.78125 
Q 45.21875 5.21875 40.375 2.109375 
Q 35.546875 -0.984375 29.34375 -0.984375 
Q 19.140625 -0.984375 12.734375 6.40625 
Q 6.34375 13.8125 6.34375 25.53125 
L 6.34375 31.390625 
Q 6.34375 50.484375 15.03125 60.953125 
Q 23.734375 71.4375 39.703125 71.625 
z
M 29 41.65625 
Q 23.4375 41.65625 18.625 38.359375 
Q 13.8125 35.0625 12.203125 29.984375 
L 12.203125 25 
Q 12.203125 15.71875 16.96875 9.859375 
Q 21.734375 4 29.34375 4 
Q 36.1875 4 40.40625 9.421875 
Q 44.625 14.84375 44.625 23.09375 
Q 44.625 31.5 40.40625 36.578125 
Q 36.1875 41.65625 29 41.65625 
" id="Roboto-Light-36"/>
      </defs>
      <g transform="translate(462.048024 208.16)scale(0.1 -0.1)">
       <use xlink:href="#Roboto-Light-36"/>
       <use x="55.419922" xlink:href="#Roboto-Light-30"/>
      </g>
     </g>
    </g>
    <g id="xtick_36">
     <g id="line2d_57">
      <path clip-path="url(#p4be566793e)" d="M 513.594622 197.16 
L 513.594622 22.2 
" style="fill:none;stroke:#cbcbcb;stroke-width:0.75;"/>
     </g>
     <g id="line2d_58"/>
     <g id="text_16">
      <!-- 80 -->
      <defs>
       <path d="M 48.578125 52.78125 
Q 48.578125 47.265625 45.359375 42.890625 
Q 42.140625 38.53125 36.859375 36.46875 
Q 43.015625 34.375 46.71875 29.6875 
Q 50.4375 25 50.4375 18.84375 
Q 50.4375 9.71875 44.234375 4.359375 
Q 38.03125 -0.984375 27.828125 -0.984375 
Q 17.53125 -0.984375 11.34375 4.34375 
Q 5.171875 9.671875 5.171875 18.84375 
Q 5.171875 24.90625 8.734375 29.640625 
Q 12.3125 34.375 18.5 36.46875 
Q 13.234375 38.53125 10.109375 42.890625 
Q 6.984375 47.265625 6.984375 52.78125 
Q 6.984375 61.625 12.671875 66.84375 
Q 18.359375 72.078125 27.734375 72.078125 
Q 37.109375 72.078125 42.84375 66.796875 
Q 48.578125 61.53125 48.578125 52.78125 
M 44.578125 18.796875 
Q 44.578125 25.4375 39.84375 29.703125 
Q 35.109375 33.984375 27.734375 33.984375 
Q 20.359375 33.984375 15.671875 29.78125 
Q 10.984375 25.59375 10.984375 18.796875 
Q 10.984375 12.015625 15.515625 7.984375 
Q 20.0625 3.953125 27.828125 3.953125 
Q 35.40625 3.953125 39.984375 7.953125 
Q 44.578125 11.96875 44.578125 18.796875 
M 42.71875 52.828125 
Q 42.71875 58.9375 38.5 63.015625 
Q 34.28125 67.09375 27.734375 67.09375 
Q 21.09375 67.09375 16.96875 63.15625 
Q 12.84375 59.234375 12.84375 52.828125 
Q 12.84375 46.578125 16.96875 42.765625 
Q 21.09375 38.96875 27.78125 38.96875 
Q 34.375 38.96875 38.546875 42.796875 
Q 42.71875 46.625 42.71875 52.828125 
" id="Roboto-Light-38"/>
      </defs>
      <g transform="translate(508.052435 208.16)scale(0.1 -0.1)">
       <use xlink:href="#Roboto-Light-38"/>
       <use x="55.419922" xlink:href="#Roboto-Light-30"/>
      </g>
     </g>
    </g>
   </g>
   <g id="matplotlib.axis_4">
    <g id="ytick_7">
     <g id="line2d_59">
      <path clip-path="url(#p4be566793e)" d="M 319.195994 197.16 
L 546.977812 197.16 
" style="fill:none;stroke:#cbcbcb;stroke-width:0.75;"/>
     </g>
     <g id="line2d_60"/>
     <g id="text_17">
      <!-- 0 ns -->
      <g transform="translate(297.164744 200.91)scale(0.1 -0.1)">
       <use xlink:href="#Roboto-Light-30"/>
       <use x="55.419922" xlink:href="#Roboto-Light-20"/>
       <use x="79.736328" xlink:href="#Roboto-Light-6e"/>
       <use x="134.667969" xlink:href="#Roboto-Light-73"/>
      </g>
     </g>
    </g>
    <g id="ytick_8">
     <g id="line2d_61">
      <path clip-path="url(#p4be566793e)" d="M 319.195994 154.259539 
L 546.977812 154.259539 
" style="fill:none;stroke:#cbcbcb;stroke-width:0.75;"/>
     </g>
     <g id="line2d_62"/>
     <g id="text_18">
      <!-- 50 ns -->
      <g transform="translate(291.622557 158.009539)scale(0.1 -0.1)">
       <use xlink:href="#Roboto-Light-35"/>
       <use x="55.419922" xlink:href="#Roboto-Light-30"/>
       <use x="110.839844" xlink:href="#Roboto-Light-20"/>
       <use x="135.15625" xlink:href="#Roboto-Light-6e"/>
       <use x="190.087891" xlink:href="#Roboto-Light-73"/>
      </g>
     </g>
    </g>
    <g id="ytick_9">
     <g id="line2d_63">
      <path clip-path="url(#p4be566793e)" d="M 319.195994 111.359078 
L 546.977812 111.359078 
" style="fill:none;stroke:#cbcbcb;stroke-width:0.75;"/>
     </g>
     <g id="line2d_64"/>
     <g id="text_19">
      <!-- 100 ns -->
      <g transform="translate(286.080369 115.109078)scale(0.1 -0.1)">
       <use xlink:href="#Roboto-Light-31"/>
       <use x="55.419922" xlink:href="#Roboto-Light-30"/>
       <use x="110.839844" xlink:href="#Roboto-Light-30"/>
       <use x="166.259766" xlink:href="#Roboto-Light-20"/>
       <use x="190.576172" xlink:href="#Roboto-Light-6e"/>
       <use x="245.507812" xlink:href="#Roboto-Light-73"/>
      </g>
     </g>
    </g>
    <g id="ytick_10">
     <g id="line2d_65">
      <path clip-path="url(#p4be566793e)" d="M 319.195994 68.458617 
L 546.977812 68.458617 
" style="fill:none;stroke:#cbcbcb;stroke-width:0.75;"/>
     </g>
     <g id="line2d_66"/>
     <g id="text_20">
      <!-- 150 ns -->
      <g transform="translate(286.080369 72.208617)scale(0.1 -0.1)">
       <use xlink:href="#Roboto-Light-31"/>
       <use x="55.419922" xlink:href="#Roboto-Light-35"/>
       <use x="110.839844" xlink:href="#Roboto-Light-30"/>
       <use x="166.259766" xlink:href="#Roboto-Light-20"/>
       <use x="190.576172" xlink:href="#Roboto-Light-6e"/>
       <use x="245.507812" xlink:href="#Roboto-Light-73"/>
      </g>
     </g>
    </g>
    <g id="ytick_11">
     <g id="line2d_67">
      <path clip-path="url(#p4be566793e)" d="M 319.195994 25.558156 
L 546.977812 25.558156 
" style="fill:none;stroke:#cbcbcb;stroke-width:0.75;"/>
     </g>
     <g id="line2d_68"/>
     <g id="text_21">
      <!-- 200 ns -->
      <g transform="translate(286.080369 29.308156)scale(0.1 -0.1)">
       <use xlink:href="#Roboto-Light-32"/>
       <use x="55.419922" xlink:href="#Roboto-Light-30"/>
       <use x="110.839844" xlink:href="#Roboto-Light-30"/>
       <use x="166.259766" xlink:href="#Roboto-Light-20"/>
       <use x="190.576172" xlink:href="#Roboto-Light-6e"/>
       <use x="245.507812" xlink:href="#Roboto-Light-73"/>
      </g>
     </g>
    </g>
   </g>
   <g id="PathCollection_2">
    <g clip-path="url(#p4be566793e)">
     <use style="fill:#0000ff;stroke:#0000ff;stroke-width:0.5;" x="329.576979" xlink:href="#m62cb328505" y="160.752582"/>
     <use style="fill:#0000ff;stroke:#0000ff;stroke-width:0.5;" x="331.877199" xlink:href="#m62cb328505" y="133.389045"/>
     <use style="fill:#0000ff;stroke:#0000ff;stroke-width:0.5;" x="334.17742" xlink:href="#m62cb328505" y="130.838206"/>
     <use style="fill:#0000ff;stroke:#0000ff;stroke-width:0.5;" x="336.477641" xlink:href="#m62cb328505" y="132.693361"/>
     <use style="fill:#0000ff;stroke:#0000ff;stroke-width:0.5;" x="341.078082" xlink:href="#m62cb328505" y="131.301995"/>
     <use style="fill:#0000ff;stroke:#0000ff;stroke-width:0.5;" x="343.378302" xlink:href="#m62cb328505" y="130.606312"/>
     <use style="fill:#0000ff;stroke:#0000ff;stroke-width:0.5;" x="345.678523" xlink:href="#m62cb328505" y="127.823579"/>
     <use style="fill:#0000ff;stroke:#0000ff;stroke-width:0.5;" x="347.978743" xlink:href="#m62cb328505" y="127.127896"/>
     <use style="fill:#0000ff;stroke:#0000ff;stroke-width:0.5;" x="350.278964" xlink:href="#m62cb328505" y="126.432213"/>
     <use style="fill:#0000ff;stroke:#0000ff;stroke-width:0.5;" x="352.579184" xlink:href="#m62cb328505" y="124.345164"/>
     <use style="fill:#0000ff;stroke:#0000ff;stroke-width:0.5;" x="375.58139" xlink:href="#m62cb328505" y="114.6056"/>
     <use style="fill:#0000ff;stroke:#0000ff;stroke-width:0.5;" x="398.583595" xlink:href="#m62cb328505" y="96.517838"/>
     <use style="fill:#0000ff;stroke:#0000ff;stroke-width:0.5;" x="421.585801" xlink:href="#m62cb328505" y="84.691224"/>
     <use style="fill:#0000ff;stroke:#0000ff;stroke-width:0.5;" x="444.588006" xlink:href="#m62cb328505" y="79.125759"/>
     <use style="fill:#0000ff;stroke:#0000ff;stroke-width:0.5;" x="467.590212" xlink:href="#m62cb328505" y="62.197469"/>
     <use style="fill:#0000ff;stroke:#0000ff;stroke-width:0.5;" x="513.594622" xlink:href="#m62cb328505" y="37.38477"/>
     <use style="fill:#0000ff;stroke:#0000ff;stroke-width:0.5;" x="536.596828" xlink:href="#m62cb328505" y="28.804678"/>
    </g>
   </g>
   <g id="patch_8">
    <path d="M 319.195994 197.16 
L 319.195994 22.2 
" style="fill:none;"/>
   </g>
   <g id="patch_9">
    <path d="M 546.977812 197.16 
L 546.977812 22.2 
" style="fill:none;"/>
   </g>
   <g id="patch_10">
    <path d="M 319.195994 197.16 
L 546.977812 197.16 
" style="fill:none;"/>
   </g>
   <g id="patch_11">
    <path d="M 319.195994 22.2 
L 546.977812 22.2 
" style="fill:none;"/>
   </g>
   <g id="text_22">
    <!-- lookup time -->
    <g transform="translate(401.417216 16.2)scale(0.12 -0.12)">
     <use xlink:href="#Roboto-Medium-6c"/>
     <use x="25.537109" xlink:href="#Roboto-Medium-6f"/>
     <use x="82.470703" xlink:href="#Roboto-Medium-6f"/>
     <use x="139.404297" xlink:href="#Roboto-Medium-6b"/>
     <use x="191.601562" xlink:href="#Roboto-Medium-75"/>
     <use x="247.167969" xlink:href="#Roboto-Medium-70"/>
     <use x="303.466797" xlink:href="#Roboto-Medium-20"/>
     <use x="328.369141" xlink:href="#Roboto-Medium-74"/>
     <use x="361.621094" xlink:href="#Roboto-Medium-69"/>
     <use x="387.158203" xlink:href="#Roboto-Medium-6d"/>
     <use x="474.169922" xlink:href="#Roboto-Medium-65"/>
    </g>
   </g>
  </g>
 </g>
 <defs>
  <clipPath id="p69498b5da5">
   <rect height="174.96" width="227.781818" x="45.857813" y="22.2"/>
  </clipPath>
  <clipPath id="p4be566793e">
   <rect height="174.96" width="227.781818" x="319.195994" y="22.2"/>
  </clipPath>
 </defs>
</svg>
