<?xml version="1.0" encoding="utf-8" standalone="no"?>
<!DOCTYPE svg PUBLIC "-//W3C//DTD SVG 1.1//EN"
  "http://www.w3.org/Graphics/SVG/1.1/DTD/svg11.dtd">
<!-- Created with matplotlib (http://matplotlib.org/) -->
<svg height="240pt" version="1.1" viewBox="0 0 511 240" width="511pt" xmlns="http://www.w3.org/2000/svg" xmlns:xlink="http://www.w3.org/1999/xlink">
 <defs>
  <style type="text/css">
*{stroke-linecap:butt;stroke-linejoin:round;}
  </style>
 </defs>
 <g id="figure_1">
  <g id="patch_1">
   <path d="M 0 240.759272 
L 511.203983 240.759272 
L 511.203983 0 
L 0 0 
z
" style="fill:#ffffff;"/>
  </g>
  <g id="axes_1">
   <g id="patch_2">
    <path d="M 34.773438 197.16 
L 504.003983 197.16 
L 504.003983 22.2 
L 34.773438 22.2 
z
" style="fill:#ffffff;"/>
   </g>
   <g id="matplotlib.axis_1">
    <g id="xtick_1">
     <g id="line2d_1">
      <path clip-path="url(#p380f5875dd)" d="M 56.102099 197.16 
L 56.102099 22.2 
" style="fill:none;stroke:#cbcbcb;stroke-width:0.75;"/>
     </g>
     <g id="line2d_2"/>
     <g id="text_1">
      <!-- 4.1.47 -->
      <defs>
       <path d="M 42.578125 22.90625 
L 53.65625 22.90625 
L 53.65625 17.96875 
L 42.578125 17.96875 
L 42.578125 0 
L 36.71875 0 
L 36.71875 17.96875 
L 3.265625 17.96875 
L 3.265625 21.296875 
L 36.1875 71.09375 
L 42.578125 71.09375 
z
M 10.453125 22.90625 
L 36.71875 22.90625 
L 36.71875 63.53125 
L 34.125 59.03125 
z
" id="Roboto-Light-34"/>
       <path d="M 7.078125 3.515625 
Q 7.078125 5.21875 8.171875 6.421875 
Q 9.28125 7.625 11.234375 7.625 
Q 13.1875 7.625 14.3125 6.421875 
Q 15.4375 5.21875 15.4375 3.515625 
Q 15.4375 1.8125 14.3125 0.703125 
Q 13.1875 -0.390625 11.234375 -0.390625 
Q 9.28125 -0.390625 8.171875 0.703125 
Q 7.078125 1.8125 7.078125 3.515625 
z
" id="Roboto-Light-2e"/>
       <path d="M 33.890625 0 
L 28.03125 0 
L 28.03125 64.0625 
L 8.6875 56.890625 
L 8.6875 62.359375 
L 32.90625 71.34375 
L 33.890625 71.34375 
z
" id="Roboto-Light-31"/>
       <path d="M 50.484375 67.71875 
L 20.125 0 
L 14.015625 0 
L 44.1875 66.109375 
L 3.765625 66.109375 
L 3.765625 71.09375 
L 50.484375 71.09375 
z
" id="Roboto-Light-37"/>
      </defs>
      <g transform="translate(40.87111 227.743972)rotate(-60)scale(0.1 -0.1)">
       <use xlink:href="#Roboto-Light-34"/>
       <use x="55.419922" xlink:href="#Roboto-Light-2e"/>
       <use x="79.296875" xlink:href="#Roboto-Light-31"/>
       <use x="134.716797" xlink:href="#Roboto-Light-2e"/>
       <use x="158.59375" xlink:href="#Roboto-Light-34"/>
       <use x="214.013672" xlink:href="#Roboto-Light-37"/>
      </g>
     </g>
    </g>
    <g id="xtick_2">
     <g id="line2d_3">
      <path clip-path="url(#p380f5875dd)" d="M 77.012551 197.16 
L 77.012551 22.2 
" style="fill:none;stroke:#cbcbcb;stroke-width:0.75;"/>
     </g>
     <g id="line2d_4"/>
     <g id="text_2">
      <!-- 4.4.104 -->
      <defs>
       <path d="M 49.5625 29.640625 
Q 49.5625 14.59375 44.046875 6.796875 
Q 38.53125 -0.984375 27.78125 -0.984375 
Q 17.234375 -0.984375 11.609375 6.65625 
Q 6 14.3125 5.859375 28.90625 
L 5.859375 41.65625 
Q 5.859375 56.640625 11.421875 64.359375 
Q 17 72.078125 27.6875 72.078125 
Q 38.234375 72.078125 43.796875 64.625 
Q 49.359375 57.171875 49.5625 42.671875 
z
M 43.703125 42.390625 
Q 43.703125 54.59375 39.71875 60.84375 
Q 35.75 67.09375 27.6875 67.09375 
Q 19.78125 67.09375 15.765625 60.984375 
Q 11.765625 54.890625 11.671875 42.96875 
L 11.671875 29 
Q 11.671875 16.84375 15.796875 10.390625 
Q 19.921875 3.953125 27.78125 3.953125 
Q 35.59375 3.953125 39.625 10.25 
Q 43.65625 16.546875 43.703125 28.71875 
z
" id="Roboto-Light-30"/>
      </defs>
      <g transform="translate(59.010468 232.543647)rotate(-60)scale(0.1 -0.1)">
       <use xlink:href="#Roboto-Light-34"/>
       <use x="55.419922" xlink:href="#Roboto-Light-2e"/>
       <use x="79.296875" xlink:href="#Roboto-Light-34"/>
       <use x="134.716797" xlink:href="#Roboto-Light-2e"/>
       <use x="158.59375" xlink:href="#Roboto-Light-31"/>
       <use x="214.013672" xlink:href="#Roboto-Light-30"/>
       <use x="269.433594" xlink:href="#Roboto-Light-34"/>
      </g>
     </g>
    </g>
    <g id="xtick_3">
     <g id="line2d_5">
      <path clip-path="url(#p380f5875dd)" d="M 177.382721 197.16 
L 177.382721 22.2 
" style="fill:none;stroke:#cbcbcb;stroke-width:0.75;"/>
     </g>
     <g id="line2d_6"/>
     <g id="text_3">
      <!-- 4.9.67 -->
      <defs>
       <path d="M 43.171875 32.90625 
Q 40.046875 28.328125 35.40625 25.8125 
Q 30.765625 23.296875 25.34375 23.296875 
Q 19.28125 23.296875 14.640625 26.421875 
Q 10.015625 29.546875 7.46875 35.0625 
Q 4.9375 40.578125 4.9375 47.125 
Q 4.9375 54.15625 7.640625 59.90625 
Q 10.359375 65.671875 15.203125 68.875 
Q 20.0625 72.078125 26.421875 72.078125 
Q 37.109375 72.078125 43.0625 64.578125 
Q 49.03125 57.078125 49.03125 43.3125 
L 49.03125 38.03125 
Q 49.03125 18.796875 40.828125 9.125 
Q 32.625 -0.53125 15.765625 -0.53125 
L 14.703125 -0.53125 
L 14.75 4.546875 
L 16.796875 4.546875 
Q 29.546875 4.734375 36.1875 11.765625 
Q 42.828125 18.796875 43.171875 32.90625 
z
M 26.078125 28.328125 
Q 31.9375 28.328125 36.59375 31.8125 
Q 41.265625 35.296875 43.21875 40.875 
L 43.21875 44.234375 
Q 43.21875 55.078125 38.703125 61.0625 
Q 34.1875 67.046875 26.515625 67.046875 
Q 19.578125 67.046875 15.125 61.453125 
Q 10.6875 55.859375 10.6875 47.359375 
Q 10.6875 39.203125 14.953125 33.765625 
Q 19.234375 28.328125 26.078125 28.328125 
z
" id="Roboto-Light-39"/>
       <path d="M 41.15625 71.625 
L 41.15625 66.5 
L 40.484375 66.5 
Q 27.734375 66.5 20.40625 59 
Q 13.09375 51.515625 12.3125 38.1875 
Q 15.234375 42.234375 19.765625 44.453125 
Q 24.3125 46.6875 29.9375 46.6875 
Q 39.3125 46.6875 44.84375 40.203125 
Q 50.390625 33.734375 50.390625 23.296875 
Q 50.390625 16.359375 47.796875 10.78125 
Q 45.21875 5.21875 40.375 2.109375 
Q 35.546875 -0.984375 29.34375 -0.984375 
Q 19.140625 -0.984375 12.734375 6.40625 
Q 6.34375 13.8125 6.34375 25.53125 
L 6.34375 31.390625 
Q 6.34375 50.484375 15.03125 60.953125 
Q 23.734375 71.4375 39.703125 71.625 
z
M 29 41.65625 
Q 23.4375 41.65625 18.625 38.359375 
Q 13.8125 35.0625 12.203125 29.984375 
L 12.203125 25 
Q 12.203125 15.71875 16.96875 9.859375 
Q 21.734375 4 29.34375 4 
Q 36.1875 4 40.40625 9.421875 
Q 44.625 14.84375 44.625 23.09375 
Q 44.625 31.5 40.40625 36.578125 
Q 36.1875 41.65625 29 41.65625 
z
" id="Roboto-Light-36"/>
      </defs>
      <g transform="translate(162.151732 227.743972)rotate(-60)scale(0.1 -0.1)">
       <use xlink:href="#Roboto-Light-34"/>
       <use x="55.419922" xlink:href="#Roboto-Light-2e"/>
       <use x="79.296875" xlink:href="#Roboto-Light-39"/>
       <use x="134.716797" xlink:href="#Roboto-Light-2e"/>
       <use x="158.59375" xlink:href="#Roboto-Light-36"/>
       <use x="214.013672" xlink:href="#Roboto-Light-37"/>
      </g>
     </g>
    </g>
    <g id="xtick_4">
     <g id="line2d_7">
      <path clip-path="url(#p380f5875dd)" d="M 290.299162 197.16 
L 290.299162 22.2 
" style="fill:none;stroke:#cbcbcb;stroke-width:0.75;"/>
     </g>
     <g id="line2d_8"/>
     <g id="text_4">
      <!-- 4.14.4 -->
      <g transform="translate(275.068173 227.743972)rotate(-60)scale(0.1 -0.1)">
       <use xlink:href="#Roboto-Light-34"/>
       <use x="55.419922" xlink:href="#Roboto-Light-2e"/>
       <use x="79.296875" xlink:href="#Roboto-Light-31"/>
       <use x="134.716797" xlink:href="#Roboto-Light-34"/>
       <use x="190.136719" xlink:href="#Roboto-Light-2e"/>
       <use x="214.013672" xlink:href="#Roboto-Light-34"/>
      </g>
     </g>
    </g>
    <g id="xtick_5">
     <g id="line2d_9">
      <path clip-path="url(#p380f5875dd)" d="M 415.761875 197.16 
L 415.761875 22.2 
" style="fill:none;stroke:#cbcbcb;stroke-width:0.75;"/>
     </g>
     <g id="line2d_10"/>
     <g id="text_5">
      <!-- 4.15.1 -->
      <defs>
       <path d="M 10.640625 36.421875 
L 14.109375 71.09375 
L 49.65625 71.09375 
L 49.65625 65.671875 
L 19.140625 65.671875 
L 16.65625 41.65625 
Q 22.359375 45.5625 30.03125 45.5625 
Q 39.65625 45.5625 45.359375 39.3125 
Q 51.078125 33.0625 51.078125 22.65625 
Q 51.078125 11.421875 45.5 5.21875 
Q 39.9375 -0.984375 29.828125 -0.984375 
Q 20.5625 -0.984375 14.796875 4.1875 
Q 9.03125 9.375 8.203125 18.703125 
L 13.8125 18.703125 
Q 14.65625 11.421875 18.75 7.6875 
Q 22.859375 3.953125 29.828125 3.953125 
Q 37.453125 3.953125 41.328125 8.78125 
Q 45.21875 13.625 45.21875 22.5625 
Q 45.21875 30.375 40.875 35.296875 
Q 36.53125 40.234375 29 40.234375 
Q 24.859375 40.234375 21.78125 39.1875 
Q 18.703125 38.140625 15.28125 35.109375 
z
" id="Roboto-Light-35"/>
      </defs>
      <g transform="translate(400.530886 227.743972)rotate(-60)scale(0.1 -0.1)">
       <use xlink:href="#Roboto-Light-34"/>
       <use x="55.419922" xlink:href="#Roboto-Light-2e"/>
       <use x="79.296875" xlink:href="#Roboto-Light-31"/>
       <use x="134.716797" xlink:href="#Roboto-Light-35"/>
       <use x="190.136719" xlink:href="#Roboto-Light-2e"/>
       <use x="214.013672" xlink:href="#Roboto-Light-31"/>
      </g>
     </g>
    </g>
    <g id="xtick_6">
     <g id="line2d_11">
      <path clip-path="url(#p380f5875dd)" d="M 482.675322 197.16 
L 482.675322 22.2 
" style="fill:none;stroke:#cbcbcb;stroke-width:0.75;"/>
     </g>
     <g id="line2d_12"/>
     <g id="text_6">
      <!-- 4.16.1 -->
      <g transform="translate(467.444333 227.743972)rotate(-60)scale(0.1 -0.1)">
       <use xlink:href="#Roboto-Light-34"/>
       <use x="55.419922" xlink:href="#Roboto-Light-2e"/>
       <use x="79.296875" xlink:href="#Roboto-Light-31"/>
       <use x="134.716797" xlink:href="#Roboto-Light-36"/>
       <use x="190.136719" xlink:href="#Roboto-Light-2e"/>
       <use x="214.013672" xlink:href="#Roboto-Light-31"/>
      </g>
     </g>
    </g>
   </g>
   <g id="matplotlib.axis_2">
    <g id="ytick_1">
     <g id="line2d_13">
      <path clip-path="url(#p380f5875dd)" d="M 34.773438 174.33913 
L 504.003983 174.33913 
" style="fill:none;stroke:#cbcbcb;stroke-width:0.75;"/>
     </g>
     <g id="line2d_14"/>
     <g id="text_7">
      <!-- 25 ns -->
      <defs>
       <path d="M 51.21875 0 
L 6.6875 0 
L 6.6875 4.5 
L 31.0625 32.125 
Q 37.109375 39.109375 39.453125 43.640625 
Q 41.796875 48.1875 41.796875 52.484375 
Q 41.796875 59.234375 37.84375 63.15625 
Q 33.890625 67.09375 26.953125 67.09375 
Q 19.78125 67.09375 15.359375 62.5 
Q 10.9375 57.90625 10.9375 50.59375 
L 5.125 50.59375 
Q 5.125 56.59375 7.828125 61.515625 
Q 10.546875 66.453125 15.546875 69.265625 
Q 20.5625 72.078125 26.953125 72.078125 
Q 36.71875 72.078125 42.203125 66.9375 
Q 47.703125 61.8125 47.703125 52.984375 
Q 47.703125 48 44.59375 42.09375 
Q 41.5 36.1875 33.6875 27.34375 
L 13.875 4.9375 
L 51.21875 4.9375 
z
" id="Roboto-Light-32"/>
       <path id="Roboto-Light-20"/>
       <path d="M 13.1875 52.828125 
L 13.375 43.796875 
Q 16.359375 48.6875 20.796875 51.25 
Q 25.25 53.8125 30.609375 53.8125 
Q 39.109375 53.8125 43.25 49.015625 
Q 47.40625 44.234375 47.46875 34.671875 
L 47.46875 0 
L 41.65625 0 
L 41.65625 34.71875 
Q 41.609375 41.796875 38.640625 45.265625 
Q 35.6875 48.734375 29.203125 48.734375 
Q 23.78125 48.734375 19.609375 45.328125 
Q 15.4375 41.9375 13.421875 36.1875 
L 13.421875 0 
L 7.625 0 
L 7.625 52.828125 
z
" id="Roboto-Light-6e"/>
       <path d="M 39.265625 13.421875 
Q 39.265625 17.78125 35.765625 20.40625 
Q 32.28125 23.046875 25.25 24.53125 
Q 18.21875 26.03125 14.328125 27.953125 
Q 10.453125 29.890625 8.5625 32.671875 
Q 6.6875 35.453125 6.6875 39.40625 
Q 6.6875 45.65625 11.90625 49.734375 
Q 17.140625 53.8125 25.296875 53.8125 
Q 34.125 53.8125 39.46875 49.4375 
Q 44.828125 45.0625 44.828125 38.03125 
L 38.96875 38.03125 
Q 38.96875 42.671875 35.078125 45.75 
Q 31.203125 48.828125 25.296875 48.828125 
Q 19.53125 48.828125 16.03125 46.265625 
Q 12.546875 43.703125 12.546875 39.59375 
Q 12.546875 35.640625 15.453125 33.46875 
Q 18.359375 31.296875 26.046875 29.484375 
Q 33.734375 27.6875 37.5625 25.625 
Q 41.40625 23.578125 43.265625 20.703125 
Q 45.125 17.828125 45.125 13.71875 
Q 45.125 7.03125 39.71875 3.015625 
Q 34.328125 -0.984375 25.640625 -0.984375 
Q 16.40625 -0.984375 10.671875 3.484375 
Q 4.9375 7.953125 4.9375 14.796875 
L 10.796875 14.796875 
Q 11.140625 9.671875 15.109375 6.8125 
Q 19.09375 3.953125 25.640625 3.953125 
Q 31.734375 3.953125 35.5 6.640625 
Q 39.265625 9.328125 39.265625 13.421875 
z
" id="Roboto-Light-73"/>
      </defs>
      <g transform="translate(7.2 178.08913)scale(0.1 -0.1)">
       <use xlink:href="#Roboto-Light-32"/>
       <use x="55.419922" xlink:href="#Roboto-Light-35"/>
       <use x="110.839844" xlink:href="#Roboto-Light-20"/>
       <use x="135.15625" xlink:href="#Roboto-Light-6e"/>
       <use x="190.087891" xlink:href="#Roboto-Light-73"/>
      </g>
     </g>
    </g>
    <g id="ytick_2">
     <g id="line2d_15">
      <path clip-path="url(#p380f5875dd)" d="M 34.773438 136.304348 
L 504.003983 136.304348 
" style="fill:none;stroke:#cbcbcb;stroke-width:0.75;"/>
     </g>
     <g id="line2d_16"/>
     <g id="text_8">
      <!-- 30 ns -->
      <defs>
       <path d="M 19.671875 38.71875 
L 25.734375 38.71875 
Q 30.765625 38.71875 34.515625 40.5 
Q 38.28125 42.28125 40.25 45.375 
Q 42.234375 48.484375 42.234375 52.546875 
Q 42.234375 59.375 38.375 63.234375 
Q 34.515625 67.09375 27.296875 67.09375 
Q 20.453125 67.09375 16.078125 63.0625 
Q 11.71875 59.03125 11.71875 52.4375 
L 5.859375 52.4375 
Q 5.859375 57.953125 8.640625 62.515625 
Q 11.421875 67.09375 16.359375 69.578125 
Q 21.296875 72.078125 27.296875 72.078125 
Q 36.96875 72.078125 42.53125 66.796875 
Q 48.09375 61.53125 48.09375 52.34375 
Q 48.09375 47.21875 44.84375 42.890625 
Q 41.609375 38.578125 35.9375 36.421875 
Q 42.578125 34.578125 46 30.046875 
Q 49.421875 25.53125 49.421875 19.28125 
Q 49.421875 10.15625 43.453125 4.578125 
Q 37.5 -0.984375 27.546875 -0.984375 
Q 21.1875 -0.984375 15.890625 1.5625 
Q 10.59375 4.109375 7.6875 8.671875 
Q 4.78125 13.234375 4.78125 19.28125 
L 10.640625 19.28125 
Q 10.640625 12.5 15.375 8.21875 
Q 20.125 3.953125 27.546875 3.953125 
Q 35.109375 3.953125 39.328125 7.828125 
Q 43.5625 11.71875 43.5625 19.09375 
Q 43.5625 26.21875 38.984375 29.96875 
Q 34.421875 33.734375 25.53125 33.734375 
L 19.671875 33.734375 
z
" id="Roboto-Light-33"/>
      </defs>
      <g transform="translate(7.2 140.054348)scale(0.1 -0.1)">
       <use xlink:href="#Roboto-Light-33"/>
       <use x="55.419922" xlink:href="#Roboto-Light-30"/>
       <use x="110.839844" xlink:href="#Roboto-Light-20"/>
       <use x="135.15625" xlink:href="#Roboto-Light-6e"/>
       <use x="190.087891" xlink:href="#Roboto-Light-73"/>
      </g>
     </g>
    </g>
    <g id="ytick_3">
     <g id="line2d_17">
      <path clip-path="url(#p380f5875dd)" d="M 34.773438 98.269565 
L 504.003983 98.269565 
" style="fill:none;stroke:#cbcbcb;stroke-width:0.75;"/>
     </g>
     <g id="line2d_18"/>
     <g id="text_9">
      <!-- 35 ns -->
      <g transform="translate(7.2 102.019565)scale(0.1 -0.1)">
       <use xlink:href="#Roboto-Light-33"/>
       <use x="55.419922" xlink:href="#Roboto-Light-35"/>
       <use x="110.839844" xlink:href="#Roboto-Light-20"/>
       <use x="135.15625" xlink:href="#Roboto-Light-6e"/>
       <use x="190.087891" xlink:href="#Roboto-Light-73"/>
      </g>
     </g>
    </g>
    <g id="ytick_4">
     <g id="line2d_19">
      <path clip-path="url(#p380f5875dd)" d="M 34.773438 60.234783 
L 504.003983 60.234783 
" style="fill:none;stroke:#cbcbcb;stroke-width:0.75;"/>
     </g>
     <g id="line2d_20"/>
     <g id="text_10">
      <!-- 40 ns -->
      <g transform="translate(7.2 63.984783)scale(0.1 -0.1)">
       <use xlink:href="#Roboto-Light-34"/>
       <use x="55.419922" xlink:href="#Roboto-Light-30"/>
       <use x="110.839844" xlink:href="#Roboto-Light-20"/>
       <use x="135.15625" xlink:href="#Roboto-Light-6e"/>
       <use x="190.087891" xlink:href="#Roboto-Light-73"/>
      </g>
     </g>
    </g>
    <g id="ytick_5">
     <g id="line2d_21">
      <path clip-path="url(#p380f5875dd)" d="M 34.773438 22.2 
L 504.003983 22.2 
" style="fill:none;stroke:#cbcbcb;stroke-width:0.75;"/>
     </g>
     <g id="line2d_22"/>
     <g id="text_11">
      <!-- 45 ns -->
      <g transform="translate(7.2 25.95)scale(0.1 -0.1)">
       <use xlink:href="#Roboto-Light-34"/>
       <use x="55.419922" xlink:href="#Roboto-Light-35"/>
       <use x="110.839844" xlink:href="#Roboto-Light-20"/>
       <use x="135.15625" xlink:href="#Roboto-Light-6e"/>
       <use x="190.087891" xlink:href="#Roboto-Light-73"/>
      </g>
     </g>
    </g>
   </g>
   <g id="patch_3">
    <path clip-path="url(#p380f5875dd)" d="M 56.102099 197.16 
L 56.102099 22.2 
L 62.375234 22.2 
L 62.375234 197.16 
z
" style="fill:#cccccc;opacity:0.5;stroke:#cccccc;stroke-linejoin:miter;stroke-width:0.5;"/>
   </g>
   <g id="patch_4">
    <path clip-path="url(#p380f5875dd)" d="M 77.012551 197.16 
L 77.012551 22.2 
L 95.831958 22.2 
L 95.831958 197.16 
z
" style="fill:#cccccc;opacity:0.5;stroke:#cccccc;stroke-linejoin:miter;stroke-width:0.5;"/>
   </g>
   <g id="patch_5">
    <path clip-path="url(#p380f5875dd)" d="M 177.382721 197.16 
L 177.382721 22.2 
L 204.566309 22.2 
L 204.566309 197.16 
z
" style="fill:#cccccc;opacity:0.5;stroke:#cccccc;stroke-linejoin:miter;stroke-width:0.5;"/>
   </g>
   <g id="patch_6">
    <path clip-path="url(#p380f5875dd)" d="M 290.299162 197.16 
L 290.299162 22.2 
L 317.48275 22.2 
L 317.48275 197.16 
z
" style="fill:#cccccc;opacity:0.5;stroke:#cccccc;stroke-linejoin:miter;stroke-width:0.5;"/>
   </g>
   <g id="line2d_23">
    <path clip-path="url(#p380f5875dd)" d="M 56.102099 111.693606 
L 60.284189 107.218926 
L 64.46628 109.456266 
L 68.64837 109.456266 
L 72.83046 111.693606 
L 77.012551 102.744246 
L 81.194641 96.032225 
L 85.376732 100.506905 
L 89.558822 100.506905 
L 93.740912 96.032225 
L 97.923003 98.269565 
L 102.105093 98.269565 
L 106.287184 102.744246 
L 110.469274 96.032225 
L 114.651365 96.032225 
L 118.833455 98.269565 
L 123.015545 93.794885 
L 127.197636 100.506905 
L 131.379726 100.506905 
L 135.561817 102.744246 
L 139.743907 104.981586 
L 143.925998 100.506905 
L 148.108088 100.506905 
L 152.290178 100.506905 
L 156.472269 96.032225 
L 160.654359 100.506905 
L 164.83645 98.269565 
L 169.01854 104.981586 
L 173.20063 96.032225 
L 177.382721 100.506905 
L 181.564811 100.506905 
L 185.746902 87.082864 
L 189.928992 96.032225 
L 194.111083 98.269565 
L 198.293173 100.506905 
L 202.475263 100.506905 
L 206.657354 100.506905 
L 210.839444 98.269565 
L 215.021535 96.032225 
L 219.203625 98.269565 
L 223.385716 98.269565 
L 227.567806 100.506905 
L 231.749896 102.744246 
L 235.931987 84.845524 
L 240.114077 87.082864 
L 244.296168 69.184143 
L 248.478258 87.082864 
L 252.660349 78.133504 
L 256.842439 87.082864 
L 261.024529 89.320205 
L 265.20662 87.082864 
L 269.38871 89.320205 
L 273.570801 87.082864 
L 277.752891 78.133504 
L 281.934981 84.845524 
L 286.117072 87.082864 
L 290.299162 89.320205 
L 294.481253 64.709463 
L 298.663343 87.082864 
L 302.845434 87.082864 
L 307.027524 89.320205 
L 311.209614 96.032225 
L 315.391705 62.472123 
L 319.573795 96.032225 
L 323.755886 98.269565 
L 327.937976 96.032225 
L 332.120067 98.269565 
L 336.302157 93.794885 
L 340.484247 84.845524 
L 344.666338 73.658824 
L 348.848428 96.032225 
L 353.030519 96.032225 
L 357.212609 96.032225 
L 361.3947 93.794885 
L 365.57679 71.421483 
L 369.75888 96.032225 
L 373.940971 96.032225 
L 378.123061 96.032225 
L 382.305152 93.794885 
L 386.487242 96.032225 
L 390.669332 71.421483 
L 394.851423 93.794885 
L 399.033513 73.658824 
L 403.215604 96.032225 
L 407.397694 96.032225 
L 411.579785 96.032225 
L 415.761875 96.032225 
L 419.943965 96.032225 
L 424.126056 96.032225 
L 428.308146 96.032225 
L 432.490237 96.032225 
L 436.672327 75.896164 
L 440.854418 93.794885 
L 445.036508 93.794885 
L 449.218598 98.269565 
L 453.400689 91.557545 
L 457.582779 73.658824 
L 461.76487 73.658824 
L 465.94696 96.032225 
L 470.129051 93.794885 
L 474.311141 93.794885 
L 478.493231 98.269565 
L 482.675322 69.184143 
" style="fill:none;stroke:#55aa55;"/>
   </g>
   <g id="line2d_24">
    <path clip-path="url(#p380f5875dd)" d="M 56.102099 104.981586 
L 60.284189 107.218926 
L 64.46628 107.218926 
L 68.64837 111.693606 
L 72.83046 111.693606 
L 77.012551 104.981586 
L 81.194641 96.032225 
L 85.376732 96.032225 
L 89.558822 100.506905 
L 93.740912 96.032225 
L 97.923003 102.744246 
L 102.105093 100.506905 
L 106.287184 98.269565 
L 110.469274 100.506905 
L 114.651365 98.269565 
L 118.833455 98.269565 
L 123.015545 96.032225 
L 127.197636 98.269565 
L 131.379726 100.506905 
L 135.561817 102.744246 
L 139.743907 102.744246 
L 143.925998 100.506905 
L 148.108088 98.269565 
L 152.290178 100.506905 
L 156.472269 98.269565 
L 160.654359 100.506905 
L 164.83645 98.269565 
L 169.01854 104.981586 
L 173.20063 98.269565 
L 177.382721 102.744246 
L 181.564811 100.506905 
L 185.746902 100.506905 
L 189.928992 96.032225 
L 194.111083 87.082864 
L 198.293173 100.506905 
L 202.475263 100.506905 
L 206.657354 100.506905 
L 210.839444 98.269565 
L 215.021535 98.269565 
L 219.203625 98.269565 
L 223.385716 98.269565 
L 227.567806 100.506905 
L 231.749896 102.744246 
L 235.931987 89.320205 
L 240.114077 89.320205 
L 244.296168 89.320205 
L 248.478258 84.845524 
L 252.660349 78.133504 
L 256.842439 87.082864 
L 261.024529 89.320205 
L 265.20662 87.082864 
L 269.38871 89.320205 
L 273.570801 87.082864 
L 277.752891 87.082864 
L 281.934981 87.082864 
L 286.117072 89.320205 
L 290.299162 89.320205 
L 294.481253 89.320205 
L 298.663343 64.709463 
L 302.845434 60.234783 
L 307.027524 87.082864 
L 311.209614 96.032225 
L 315.391705 84.845524 
L 319.573795 96.032225 
L 323.755886 96.032225 
L 327.937976 93.794885 
L 332.120067 96.032225 
L 336.302157 96.032225 
L 340.484247 98.269565 
L 344.666338 96.032225 
L 348.848428 96.032225 
L 353.030519 93.794885 
L 357.212609 98.269565 
L 361.3947 96.032225 
L 365.57679 78.133504 
L 369.75888 89.320205 
L 373.940971 96.032225 
L 378.123061 93.794885 
L 382.305152 96.032225 
L 386.487242 96.032225 
L 390.669332 98.269565 
L 394.851423 96.032225 
L 399.033513 96.032225 
L 403.215604 96.032225 
L 407.397694 96.032225 
L 411.579785 96.032225 
L 415.761875 98.269565 
L 419.943965 96.032225 
L 424.126056 96.032225 
L 428.308146 96.032225 
L 432.490237 96.032225 
L 436.672327 98.269565 
L 440.854418 96.032225 
L 445.036508 93.794885 
L 449.218598 96.032225 
L 453.400689 89.320205 
L 457.582779 96.032225 
L 461.76487 96.032225 
L 465.94696 96.032225 
L 470.129051 93.794885 
L 474.311141 96.032225 
L 478.493231 96.032225 
L 482.675322 80.370844 
" style="fill:none;stroke:#116611;"/>
   </g>
   <g id="line2d_25">
    <path clip-path="url(#p380f5875dd)" d="M 56.102099 111.693606 
L 60.284189 107.218926 
L 64.46628 109.456266 
L 68.64837 111.693606 
L 72.83046 111.693606 
L 77.012551 100.506905 
L 81.194641 93.794885 
L 85.376732 98.269565 
L 89.558822 100.506905 
L 93.740912 93.794885 
L 97.923003 100.506905 
L 102.105093 98.269565 
L 106.287184 98.269565 
L 110.469274 100.506905 
L 114.651365 98.269565 
L 118.833455 100.506905 
L 123.015545 96.032225 
L 127.197636 100.506905 
L 131.379726 98.269565 
L 135.561817 102.744246 
L 139.743907 102.744246 
L 143.925998 100.506905 
L 148.108088 100.506905 
L 152.290178 102.744246 
L 156.472269 100.506905 
L 160.654359 100.506905 
L 164.83645 100.506905 
L 169.01854 102.744246 
L 173.20063 98.269565 
L 177.382721 98.269565 
L 181.564811 96.032225 
L 185.746902 100.506905 
L 189.928992 102.744246 
L 194.111083 100.506905 
L 198.293173 100.506905 
L 202.475263 98.269565 
L 206.657354 98.269565 
L 210.839444 100.506905 
L 215.021535 96.032225 
L 219.203625 98.269565 
L 223.385716 98.269565 
L 227.567806 87.082864 
L 231.749896 102.744246 
L 235.931987 87.082864 
L 240.114077 89.320205 
L 244.296168 87.082864 
L 248.478258 82.608184 
L 252.660349 78.133504 
L 256.842439 87.082864 
L 261.024529 87.082864 
L 265.20662 87.082864 
L 269.38871 89.320205 
L 273.570801 73.658824 
L 277.752891 87.082864 
L 281.934981 87.082864 
L 286.117072 87.082864 
L 290.299162 87.082864 
L 294.481253 89.320205 
L 298.663343 87.082864 
L 302.845434 87.082864 
L 307.027524 89.320205 
L 311.209614 75.896164 
L 315.391705 75.896164 
L 319.573795 71.421483 
L 323.755886 98.269565 
L 327.937976 71.421483 
L 332.120067 98.269565 
L 336.302157 60.234783 
L 340.484247 96.032225 
L 344.666338 96.032225 
L 348.848428 96.032225 
L 353.030519 98.269565 
L 357.212609 96.032225 
L 361.3947 98.269565 
L 365.57679 96.032225 
L 369.75888 96.032225 
L 373.940971 96.032225 
L 378.123061 93.794885 
L 382.305152 96.032225 
L 386.487242 96.032225 
L 390.669332 98.269565 
L 394.851423 98.269565 
L 399.033513 96.032225 
L 403.215604 96.032225 
L 407.397694 96.032225 
L 411.579785 96.032225 
L 415.761875 96.032225 
L 419.943965 98.269565 
L 424.126056 73.658824 
L 428.308146 96.032225 
L 432.490237 89.320205 
L 436.672327 98.269565 
L 440.854418 96.032225 
L 445.036508 96.032225 
L 449.218598 98.269565 
L 453.400689 96.032225 
L 457.582779 96.032225 
L 461.76487 96.032225 
L 465.94696 96.032225 
L 470.129051 96.032225 
L 474.311141 89.320205 
L 478.493231 96.032225 
L 482.675322 66.946803 
" style="fill:none;stroke:#477286;"/>
   </g>
   <g id="line2d_26">
    <path clip-path="url(#p380f5875dd)" d="M 56.102099 111.693606 
L 60.284189 104.981586 
L 64.46628 109.456266 
L 68.64837 111.693606 
L 72.83046 111.693606 
L 77.012551 100.506905 
L 81.194641 98.269565 
L 85.376732 100.506905 
L 89.558822 87.082864 
L 93.740912 98.269565 
L 97.923003 100.506905 
L 102.105093 96.032225 
L 106.287184 98.269565 
L 110.469274 98.269565 
L 114.651365 100.506905 
L 118.833455 100.506905 
L 123.015545 96.032225 
L 127.197636 102.744246 
L 131.379726 100.506905 
L 135.561817 102.744246 
L 139.743907 102.744246 
L 143.925998 100.506905 
L 148.108088 100.506905 
L 152.290178 98.269565 
L 156.472269 100.506905 
L 160.654359 100.506905 
L 164.83645 100.506905 
L 169.01854 102.744246 
L 173.20063 98.269565 
L 177.382721 98.269565 
L 181.564811 98.269565 
L 185.746902 96.032225 
L 189.928992 96.032225 
L 194.111083 100.506905 
L 198.293173 98.269565 
L 202.475263 100.506905 
L 206.657354 100.506905 
L 210.839444 98.269565 
L 215.021535 96.032225 
L 219.203625 98.269565 
L 223.385716 96.032225 
L 227.567806 102.744246 
L 231.749896 100.506905 
L 235.931987 87.082864 
L 240.114077 91.557545 
L 244.296168 89.320205 
L 248.478258 87.082864 
L 252.660349 80.370844 
L 256.842439 89.320205 
L 261.024529 89.320205 
L 265.20662 89.320205 
L 269.38871 89.320205 
L 273.570801 87.082864 
L 277.752891 87.082864 
L 281.934981 87.082864 
L 286.117072 89.320205 
L 290.299162 91.557545 
L 294.481253 89.320205 
L 298.663343 87.082864 
L 302.845434 87.082864 
L 307.027524 64.709463 
L 311.209614 91.557545 
L 315.391705 96.032225 
L 319.573795 96.032225 
L 323.755886 66.946803 
L 327.937976 96.032225 
L 332.120067 96.032225 
L 336.302157 84.845524 
L 340.484247 71.421483 
L 344.666338 96.032225 
L 348.848428 93.794885 
L 353.030519 96.032225 
L 357.212609 96.032225 
L 361.3947 87.082864 
L 365.57679 96.032225 
L 369.75888 71.421483 
L 373.940971 96.032225 
L 378.123061 96.032225 
L 382.305152 91.557545 
L 386.487242 96.032225 
L 390.669332 96.032225 
L 394.851423 96.032225 
L 399.033513 96.032225 
L 403.215604 98.269565 
L 407.397694 93.794885 
L 411.579785 96.032225 
L 415.761875 96.032225 
L 419.943965 96.032225 
L 424.126056 96.032225 
L 428.308146 96.032225 
L 432.490237 96.032225 
L 436.672327 93.794885 
L 440.854418 84.845524 
L 445.036508 96.032225 
L 449.218598 96.032225 
L 453.400689 96.032225 
L 457.582779 96.032225 
L 461.76487 96.032225 
L 465.94696 91.557545 
L 470.129051 96.032225 
L 474.311141 96.032225 
L 478.493231 98.269565 
L 482.675322 80.370844 
" style="fill:none;stroke:#113c51;"/>
   </g>
   <g id="line2d_27">
    <path clip-path="url(#p380f5875dd)" d="M 56.102099 109.456266 
L 60.284189 107.218926 
L 64.46628 111.693606 
L 68.64837 111.693606 
L 72.83046 104.981586 
L 77.012551 100.506905 
L 81.194641 96.032225 
L 85.376732 98.269565 
L 89.558822 100.506905 
L 93.740912 96.032225 
L 97.923003 100.506905 
L 102.105093 98.269565 
L 106.287184 100.506905 
L 110.469274 100.506905 
L 114.651365 98.269565 
L 118.833455 100.506905 
L 123.015545 96.032225 
L 127.197636 98.269565 
L 131.379726 100.506905 
L 135.561817 102.744246 
L 139.743907 96.032225 
L 143.925998 100.506905 
L 148.108088 100.506905 
L 152.290178 96.032225 
L 156.472269 98.269565 
L 160.654359 98.269565 
L 164.83645 100.506905 
L 169.01854 104.981586 
L 173.20063 98.269565 
L 177.382721 100.506905 
L 181.564811 98.269565 
L 185.746902 75.896164 
L 189.928992 98.269565 
L 194.111083 98.269565 
L 198.293173 100.506905 
L 202.475263 100.506905 
L 206.657354 98.269565 
L 210.839444 96.032225 
L 215.021535 98.269565 
L 219.203625 98.269565 
L 223.385716 98.269565 
L 227.567806 102.744246 
L 231.749896 102.744246 
L 235.931987 89.320205 
L 240.114077 89.320205 
L 244.296168 89.320205 
L 248.478258 87.082864 
L 252.660349 75.896164 
L 256.842439 87.082864 
L 261.024529 89.320205 
L 265.20662 87.082864 
L 269.38871 87.082864 
L 273.570801 84.845524 
L 277.752891 87.082864 
L 281.934981 87.082864 
L 286.117072 87.082864 
L 290.299162 89.320205 
L 294.481253 87.082864 
L 298.663343 87.082864 
L 302.845434 87.082864 
L 307.027524 89.320205 
L 311.209614 96.032225 
L 315.391705 93.794885 
L 319.573795 96.032225 
L 323.755886 98.269565 
L 327.937976 87.082864 
L 332.120067 98.269565 
L 336.302157 96.032225 
L 340.484247 98.269565 
L 344.666338 96.032225 
L 348.848428 96.032225 
L 353.030519 96.032225 
L 357.212609 98.269565 
L 361.3947 91.557545 
L 365.57679 96.032225 
L 369.75888 84.845524 
L 373.940971 96.032225 
L 378.123061 96.032225 
L 382.305152 93.794885 
L 386.487242 98.269565 
L 390.669332 96.032225 
L 394.851423 96.032225 
L 399.033513 73.658824 
L 403.215604 96.032225 
L 407.397694 75.896164 
L 411.579785 96.032225 
L 415.761875 96.032225 
L 419.943965 96.032225 
L 424.126056 96.032225 
L 428.308146 96.032225 
L 432.490237 93.794885 
L 436.672327 96.032225 
L 440.854418 96.032225 
L 445.036508 98.269565 
L 449.218598 96.032225 
L 453.400689 96.032225 
L 457.582779 96.032225 
L 461.76487 96.032225 
L 465.94696 96.032225 
L 470.129051 96.032225 
L 474.311141 96.032225 
L 478.493231 98.269565 
L 482.675322 62.472123 
" style="fill:none;stroke:#d4a36a;"/>
   </g>
   <g id="line2d_28">
    <path clip-path="url(#p380f5875dd)" d="M 56.102099 111.693606 
L 60.284189 107.218926 
L 64.46628 109.456266 
L 68.64837 111.693606 
L 72.83046 109.456266 
L 77.012551 100.506905 
L 81.194641 96.032225 
L 85.376732 98.269565 
L 89.558822 100.506905 
L 93.740912 96.032225 
L 97.923003 96.032225 
L 102.105093 98.269565 
L 106.287184 100.506905 
L 110.469274 98.269565 
L 114.651365 100.506905 
L 118.833455 98.269565 
L 123.015545 96.032225 
L 127.197636 98.269565 
L 131.379726 98.269565 
L 135.561817 102.744246 
L 139.743907 100.506905 
L 143.925998 100.506905 
L 148.108088 100.506905 
L 152.290178 100.506905 
L 156.472269 98.269565 
L 160.654359 100.506905 
L 164.83645 100.506905 
L 169.01854 102.744246 
L 173.20063 98.269565 
L 177.382721 100.506905 
L 181.564811 96.032225 
L 185.746902 96.032225 
L 189.928992 69.184143 
L 194.111083 98.269565 
L 198.293173 100.506905 
L 202.475263 96.032225 
L 206.657354 98.269565 
L 210.839444 98.269565 
L 215.021535 96.032225 
L 219.203625 98.269565 
L 223.385716 98.269565 
L 227.567806 102.744246 
L 231.749896 102.744246 
L 235.931987 87.082864 
L 240.114077 89.320205 
L 244.296168 89.320205 
L 248.478258 84.845524 
L 252.660349 78.133504 
L 256.842439 87.082864 
L 261.024529 89.320205 
L 265.20662 89.320205 
L 269.38871 89.320205 
L 273.570801 87.082864 
L 277.752891 87.082864 
L 281.934981 84.845524 
L 286.117072 89.320205 
L 290.299162 62.472123 
L 294.481253 87.082864 
L 298.663343 91.557545 
L 302.845434 84.845524 
L 307.027524 89.320205 
L 311.209614 96.032225 
L 315.391705 57.997442 
L 319.573795 93.794885 
L 323.755886 75.896164 
L 327.937976 96.032225 
L 332.120067 98.269565 
L 336.302157 96.032225 
L 340.484247 66.946803 
L 344.666338 91.557545 
L 348.848428 93.794885 
L 353.030519 96.032225 
L 357.212609 87.082864 
L 361.3947 66.946803 
L 365.57679 93.794885 
L 369.75888 96.032225 
L 373.940971 87.082864 
L 378.123061 96.032225 
L 382.305152 96.032225 
L 386.487242 75.896164 
L 390.669332 96.032225 
L 394.851423 96.032225 
L 399.033513 96.032225 
L 403.215604 96.032225 
L 407.397694 96.032225 
L 411.579785 96.032225 
L 415.761875 98.269565 
L 419.943965 96.032225 
L 424.126056 93.794885 
L 428.308146 96.032225 
L 432.490237 93.794885 
L 436.672327 98.269565 
L 440.854418 96.032225 
L 445.036508 96.032225 
L 449.218598 91.557545 
L 453.400689 93.794885 
L 457.582779 93.794885 
L 461.76487 96.032225 
L 465.94696 96.032225 
L 470.129051 96.032225 
L 474.311141 93.794885 
L 478.493231 96.032225 
L 482.675322 80.370844 
" style="fill:none;stroke:#804e15;"/>
   </g>
   <g id="line2d_29">
    <path clip-path="url(#p380f5875dd)" d="M 56.102099 111.693606 
L 60.284189 107.218926 
L 64.46628 109.456266 
L 68.64837 104.981586 
L 72.83046 104.981586 
L 77.012551 100.506905 
L 81.194641 96.032225 
L 85.376732 98.269565 
L 89.558822 100.506905 
L 93.740912 93.794885 
L 97.923003 100.506905 
L 102.105093 98.269565 
L 106.287184 100.506905 
L 110.469274 100.506905 
L 114.651365 100.506905 
L 118.833455 98.269565 
L 123.015545 96.032225 
L 127.197636 87.082864 
L 131.379726 100.506905 
L 135.561817 102.744246 
L 139.743907 104.981586 
L 143.925998 100.506905 
L 148.108088 100.506905 
L 152.290178 100.506905 
L 156.472269 93.794885 
L 160.654359 100.506905 
L 164.83645 100.506905 
L 169.01854 102.744246 
L 173.20063 98.269565 
L 177.382721 98.269565 
L 181.564811 98.269565 
L 185.746902 100.506905 
L 189.928992 96.032225 
L 194.111083 100.506905 
L 198.293173 100.506905 
L 202.475263 100.506905 
L 206.657354 96.032225 
L 210.839444 96.032225 
L 215.021535 98.269565 
L 219.203625 98.269565 
L 223.385716 96.032225 
L 227.567806 102.744246 
L 231.749896 102.744246 
L 235.931987 87.082864 
L 240.114077 87.082864 
L 244.296168 89.320205 
L 248.478258 84.845524 
L 252.660349 78.133504 
L 256.842439 87.082864 
L 261.024529 87.082864 
L 265.20662 89.320205 
L 269.38871 89.320205 
L 273.570801 87.082864 
L 277.752891 87.082864 
L 281.934981 87.082864 
L 286.117072 87.082864 
L 290.299162 69.184143 
L 294.481253 89.320205 
L 298.663343 87.082864 
L 302.845434 78.133504 
L 307.027524 89.320205 
L 311.209614 93.794885 
L 315.391705 66.946803 
L 319.573795 96.032225 
L 323.755886 96.032225 
L 327.937976 93.794885 
L 332.120067 98.269565 
L 336.302157 96.032225 
L 340.484247 96.032225 
L 344.666338 69.184143 
L 348.848428 96.032225 
L 353.030519 96.032225 
L 357.212609 96.032225 
L 361.3947 96.032225 
L 365.57679 91.557545 
L 369.75888 93.794885 
L 373.940971 96.032225 
L 378.123061 93.794885 
L 382.305152 96.032225 
L 386.487242 98.269565 
L 390.669332 96.032225 
L 394.851423 98.269565 
L 399.033513 78.133504 
L 403.215604 96.032225 
L 407.397694 96.032225 
L 411.579785 93.794885 
L 415.761875 98.269565 
L 419.943965 96.032225 
L 424.126056 96.032225 
L 428.308146 96.032225 
L 432.490237 91.557545 
L 436.672327 96.032225 
L 440.854418 96.032225 
L 445.036508 96.032225 
L 449.218598 98.269565 
L 453.400689 93.794885 
L 457.582779 96.032225 
L 461.76487 96.032225 
L 465.94696 96.032225 
L 470.129051 96.032225 
L 474.311141 96.032225 
L 478.493231 96.032225 
L 482.675322 64.709463 
" style="fill:none;stroke:#d46a6a;"/>
   </g>
   <g id="line2d_30">
    <path clip-path="url(#p380f5875dd)" d="M 56.102099 109.456266 
L 60.284189 107.218926 
L 64.46628 107.218926 
L 68.64837 111.693606 
L 72.83046 109.456266 
L 77.012551 100.506905 
L 81.194641 96.032225 
L 85.376732 98.269565 
L 89.558822 100.506905 
L 93.740912 96.032225 
L 97.923003 100.506905 
L 102.105093 98.269565 
L 106.287184 100.506905 
L 110.469274 100.506905 
L 114.651365 100.506905 
L 118.833455 98.269565 
L 123.015545 96.032225 
L 127.197636 100.506905 
L 131.379726 98.269565 
L 135.561817 102.744246 
L 139.743907 102.744246 
L 143.925998 96.032225 
L 148.108088 100.506905 
L 152.290178 98.269565 
L 156.472269 98.269565 
L 160.654359 100.506905 
L 164.83645 96.032225 
L 169.01854 100.506905 
L 173.20063 98.269565 
L 177.382721 100.506905 
L 181.564811 98.269565 
L 185.746902 96.032225 
L 189.928992 96.032225 
L 194.111083 84.845524 
L 198.293173 100.506905 
L 202.475263 100.506905 
L 206.657354 98.269565 
L 210.839444 98.269565 
L 215.021535 96.032225 
L 219.203625 96.032225 
L 223.385716 96.032225 
L 227.567806 102.744246 
L 231.749896 102.744246 
L 235.931987 87.082864 
L 240.114077 89.320205 
L 244.296168 89.320205 
L 248.478258 82.608184 
L 252.660349 80.370844 
L 256.842439 89.320205 
L 261.024529 87.082864 
L 265.20662 87.082864 
L 269.38871 89.320205 
L 273.570801 87.082864 
L 277.752891 87.082864 
L 281.934981 87.082864 
L 286.117072 87.082864 
L 290.299162 89.320205 
L 294.481253 87.082864 
L 298.663343 91.557545 
L 302.845434 84.845524 
L 307.027524 89.320205 
L 311.209614 75.896164 
L 315.391705 69.184143 
L 319.573795 96.032225 
L 323.755886 96.032225 
L 327.937976 91.557545 
L 332.120067 98.269565 
L 336.302157 75.896164 
L 340.484247 98.269565 
L 344.666338 96.032225 
L 348.848428 69.184143 
L 353.030519 96.032225 
L 357.212609 96.032225 
L 361.3947 93.794885 
L 365.57679 93.794885 
L 369.75888 96.032225 
L 373.940971 96.032225 
L 378.123061 93.794885 
L 382.305152 93.794885 
L 386.487242 96.032225 
L 390.669332 96.032225 
L 394.851423 96.032225 
L 399.033513 93.794885 
L 403.215604 96.032225 
L 407.397694 91.557545 
L 411.579785 93.794885 
L 415.761875 73.658824 
L 419.943965 91.557545 
L 424.126056 91.557545 
L 428.308146 96.032225 
L 432.490237 96.032225 
L 436.672327 96.032225 
L 440.854418 93.794885 
L 445.036508 98.269565 
L 449.218598 96.032225 
L 453.400689 96.032225 
L 457.582779 96.032225 
L 461.76487 96.032225 
L 465.94696 96.032225 
L 470.129051 93.794885 
L 474.311141 96.032225 
L 478.493231 96.032225 
L 482.675322 80.370844 
" style="fill:none;stroke:#801515;"/>
   </g>
   <g id="patch_7">
    <path d="M 34.773438 197.16 
L 34.773438 22.2 
" style="fill:none;"/>
   </g>
   <g id="patch_8">
    <path d="M 504.003983 197.16 
L 504.003983 22.2 
" style="fill:none;"/>
   </g>
   <g id="patch_9">
    <path d="M 34.773438 197.16 
L 504.003983 197.16 
" style="fill:none;"/>
   </g>
   <g id="patch_10">
    <path d="M 34.773438 22.2 
L 504.003983 22.2 
" style="fill:none;"/>
   </g>
   <g id="text_12">
    <!-- route lookup time with 500k BGP routes -->
    <defs>
     <path d="M 33.734375 42 
Q 31.390625 42.390625 28.90625 42.390625 
Q 20.75 42.390625 17.921875 36.140625 
L 17.921875 0 
L 6.0625 0 
L 6.0625 52.828125 
L 17.390625 52.828125 
L 17.671875 46.921875 
Q 21.96875 53.8125 29.59375 53.8125 
Q 32.125 53.8125 33.796875 53.125 
z
" id="Roboto-Medium-72"/>
     <path d="M 3.859375 26.90625 
Q 3.859375 34.671875 6.9375 40.890625 
Q 10.015625 47.125 15.578125 50.46875 
Q 21.140625 53.8125 28.375 53.8125 
Q 39.0625 53.8125 45.71875 46.921875 
Q 52.390625 40.046875 52.9375 28.65625 
L 52.984375 25.875 
Q 52.984375 18.0625 49.96875 11.90625 
Q 46.96875 5.765625 41.375 2.390625 
Q 35.796875 -0.984375 28.46875 -0.984375 
Q 17.28125 -0.984375 10.5625 6.46875 
Q 3.859375 13.921875 3.859375 26.3125 
z
M 15.71875 25.875 
Q 15.71875 17.71875 19.09375 13.109375 
Q 22.46875 8.5 28.46875 8.5 
Q 34.46875 8.5 37.8125 13.1875 
Q 41.15625 17.875 41.15625 26.90625 
Q 41.15625 34.90625 37.71875 39.59375 
Q 34.28125 44.28125 28.375 44.28125 
Q 22.5625 44.28125 19.140625 39.671875 
Q 15.71875 35.0625 15.71875 25.875 
z
" id="Roboto-Medium-6f"/>
     <path d="M 38.09375 5.171875 
Q 32.859375 -0.984375 23.25 -0.984375 
Q 14.65625 -0.984375 10.234375 4.046875 
Q 5.8125 9.078125 5.8125 18.609375 
L 5.8125 52.828125 
L 17.671875 52.828125 
L 17.671875 18.75 
Q 17.671875 8.6875 26.03125 8.6875 
Q 34.671875 8.6875 37.703125 14.890625 
L 37.703125 52.828125 
L 49.5625 52.828125 
L 49.5625 0 
L 38.375 0 
z
" id="Roboto-Medium-75"/>
     <path d="M 20.953125 65.671875 
L 20.953125 52.828125 
L 30.28125 52.828125 
L 30.28125 44.046875 
L 20.953125 44.046875 
L 20.953125 14.546875 
Q 20.953125 11.53125 22.140625 10.1875 
Q 23.34375 8.84375 26.421875 8.84375 
Q 28.46875 8.84375 30.5625 9.328125 
L 30.5625 0.140625 
Q 26.515625 -0.984375 22.75 -0.984375 
Q 9.078125 -0.984375 9.078125 14.109375 
L 9.078125 44.046875 
L 0.390625 44.046875 
L 0.390625 52.828125 
L 9.078125 52.828125 
L 9.078125 65.671875 
z
" id="Roboto-Medium-74"/>
     <path d="M 29.34375 -0.984375 
Q 18.0625 -0.984375 11.046875 6.125 
Q 4.046875 13.234375 4.046875 25.046875 
L 4.046875 26.515625 
Q 4.046875 34.421875 7.09375 40.640625 
Q 10.15625 46.875 15.671875 50.34375 
Q 21.1875 53.8125 27.984375 53.8125 
Q 38.765625 53.8125 44.640625 46.921875 
Q 50.53125 40.046875 50.53125 27.4375 
L 50.53125 22.65625 
L 16.015625 22.65625 
Q 16.546875 16.109375 20.375 12.296875 
Q 24.21875 8.5 30.03125 8.5 
Q 38.1875 8.5 43.3125 15.09375 
L 49.703125 8.984375 
Q 46.53125 4.25 41.234375 1.625 
Q 35.9375 -0.984375 29.34375 -0.984375 
z
M 27.9375 44.28125 
Q 23.046875 44.28125 20.046875 40.859375 
Q 17.046875 37.453125 16.21875 31.34375 
L 38.8125 31.34375 
L 38.8125 32.234375 
Q 38.421875 38.1875 35.640625 41.234375 
Q 32.859375 44.28125 27.9375 44.28125 
z
" id="Roboto-Medium-65"/>
     <path id="Roboto-Medium-20"/>
     <path d="M 18.703125 0 
L 6.84375 0 
L 6.84375 75 
L 18.703125 75 
z
" id="Roboto-Medium-6c"/>
     <path d="M 23.25 22.65625 
L 17.96875 17.234375 
L 17.96875 0 
L 6.109375 0 
L 6.109375 75 
L 17.96875 75 
L 17.96875 31.734375 
L 21.6875 36.375 
L 36.28125 52.828125 
L 50.53125 52.828125 
L 30.90625 30.8125 
L 52.640625 0 
L 38.921875 0 
z
" id="Roboto-Medium-6b"/>
     <path d="M 52.34375 25.875 
Q 52.34375 13.625 46.78125 6.3125 
Q 41.21875 -0.984375 31.84375 -0.984375 
Q 23.140625 -0.984375 17.921875 4.734375 
L 17.921875 -20.3125 
L 6.0625 -20.3125 
L 6.0625 52.828125 
L 17 52.828125 
L 17.484375 47.46875 
Q 22.703125 53.8125 31.6875 53.8125 
Q 41.359375 53.8125 46.84375 46.609375 
Q 52.34375 39.40625 52.34375 26.609375 
z
M 40.53125 26.90625 
Q 40.53125 34.8125 37.375 39.453125 
Q 34.234375 44.09375 28.375 44.09375 
Q 21.09375 44.09375 17.921875 38.09375 
L 17.921875 14.65625 
Q 21.140625 8.5 28.46875 8.5 
Q 34.125 8.5 37.328125 13.0625 
Q 40.53125 17.625 40.53125 26.90625 
z
" id="Roboto-Medium-70"/>
     <path d="M 18.703125 0 
L 6.84375 0 
L 6.84375 52.828125 
L 18.703125 52.828125 
z
M 6.109375 66.546875 
Q 6.109375 69.28125 7.84375 71.09375 
Q 9.578125 72.90625 12.796875 72.90625 
Q 16.015625 72.90625 17.765625 71.09375 
Q 19.53125 69.28125 19.53125 66.546875 
Q 19.53125 63.875 17.765625 62.078125 
Q 16.015625 60.296875 12.796875 60.296875 
Q 9.578125 60.296875 7.84375 62.078125 
Q 6.109375 63.875 6.109375 66.546875 
z
" id="Roboto-Medium-69"/>
     <path d="M 17.234375 52.828125 
L 17.578125 47.3125 
Q 23.140625 53.8125 32.8125 53.8125 
Q 43.40625 53.8125 47.3125 45.703125 
Q 53.078125 53.8125 63.53125 53.8125 
Q 72.265625 53.8125 76.53125 48.96875 
Q 80.8125 44.140625 80.90625 34.71875 
L 80.90625 0 
L 69.046875 0 
L 69.046875 34.375 
Q 69.046875 39.40625 66.84375 41.75 
Q 64.65625 44.09375 59.578125 44.09375 
Q 55.515625 44.09375 52.953125 41.921875 
Q 50.390625 39.75 49.359375 36.234375 
L 49.421875 0 
L 37.546875 0 
L 37.546875 34.765625 
Q 37.3125 44.09375 28.03125 44.09375 
Q 20.90625 44.09375 17.921875 38.28125 
L 17.921875 0 
L 6.0625 0 
L 6.0625 52.828125 
z
" id="Roboto-Medium-6d"/>
     <path d="M 52.484375 16.359375 
L 60.890625 52.828125 
L 72.46875 52.828125 
L 58.0625 0 
L 48.296875 0 
L 36.96875 36.28125 
L 25.828125 0 
L 16.0625 0 
L 1.609375 52.828125 
L 13.1875 52.828125 
L 21.734375 16.75 
L 32.5625 52.828125 
L 41.5 52.828125 
z
" id="Roboto-Medium-77"/>
     <path d="M 17.78125 47.078125 
Q 23.578125 53.8125 32.46875 53.8125 
Q 49.359375 53.8125 49.609375 34.515625 
L 49.609375 0 
L 37.75 0 
L 37.75 34.078125 
Q 37.75 39.546875 35.375 41.8125 
Q 33.015625 44.09375 28.421875 44.09375 
Q 21.296875 44.09375 17.78125 37.75 
L 17.78125 0 
L 5.90625 0 
L 5.90625 75 
L 17.78125 75 
z
" id="Roboto-Medium-68"/>
     <path d="M 8.5 35.25 
L 12.359375 71.09375 
L 50.53125 71.09375 
L 50.53125 60.84375 
L 22.21875 60.84375 
L 20.265625 43.84375 
Q 25.203125 46.6875 31.390625 46.6875 
Q 41.546875 46.6875 47.1875 40.1875 
Q 52.828125 33.6875 52.828125 22.703125 
Q 52.828125 11.859375 46.578125 5.4375 
Q 40.328125 -0.984375 29.4375 -0.984375 
Q 19.671875 -0.984375 13.25 4.5625 
Q 6.84375 10.109375 6.296875 19.1875 
L 17.78125 19.1875 
Q 18.453125 14.015625 21.484375 11.25 
Q 24.515625 8.5 29.390625 8.5 
Q 34.859375 8.5 37.90625 12.40625 
Q 40.96875 16.3125 40.96875 23.046875 
Q 40.96875 29.546875 37.59375 33.328125 
Q 34.234375 37.109375 28.328125 37.109375 
Q 25.09375 37.109375 22.84375 36.25 
Q 20.609375 35.40625 17.96875 32.90625 
z
" id="Roboto-Medium-35"/>
     <path d="M 51.65625 29.9375 
Q 51.65625 14.59375 45.921875 6.796875 
Q 40.1875 -0.984375 28.46875 -0.984375 
Q 16.9375 -0.984375 11.109375 6.609375 
Q 5.28125 14.203125 5.125 29.109375 
L 5.125 41.40625 
Q 5.125 56.734375 10.859375 64.40625 
Q 16.609375 72.078125 28.375 72.078125 
Q 40.046875 72.078125 45.78125 64.59375 
Q 51.515625 57.125 51.65625 42.234375 
z
M 39.796875 43.21875 
Q 39.796875 53.21875 37.0625 57.875 
Q 34.328125 62.546875 28.375 62.546875 
Q 22.5625 62.546875 19.828125 58.125 
Q 17.09375 53.71875 16.9375 44.34375 
L 16.9375 28.21875 
Q 16.9375 18.265625 19.71875 13.375 
Q 22.515625 8.5 28.46875 8.5 
Q 34.1875 8.5 36.921875 13.015625 
Q 39.65625 17.53125 39.796875 27.15625 
z
" id="Roboto-Medium-30"/>
     <path d="M 7.234375 0 
L 7.234375 71.09375 
L 31.59375 71.09375 
Q 43.65625 71.09375 49.953125 66.25 
Q 56.25 61.421875 56.25 51.859375 
Q 56.25 46.96875 53.609375 43.0625 
Q 50.984375 39.15625 45.90625 37.015625 
Q 51.65625 35.453125 54.796875 31.125 
Q 57.953125 26.8125 57.953125 20.75 
Q 57.953125 10.75 51.53125 5.375 
Q 45.125 0 33.15625 0 
z
M 19.578125 32.078125 
L 19.578125 9.859375 
L 33.296875 9.859375 
Q 39.109375 9.859375 42.375 12.734375 
Q 45.65625 15.625 45.65625 20.75 
Q 45.65625 31.84375 34.328125 32.078125 
z
M 19.578125 41.15625 
L 31.6875 41.15625 
Q 37.453125 41.15625 40.703125 43.765625 
Q 43.953125 46.390625 43.953125 51.171875 
Q 43.953125 56.453125 40.9375 58.796875 
Q 37.9375 61.140625 31.59375 61.140625 
L 19.578125 61.140625 
z
" id="Roboto-Medium-42"/>
     <path d="M 61.71875 9.234375 
Q 57.859375 4.203125 51.015625 1.609375 
Q 44.1875 -0.984375 35.5 -0.984375 
Q 26.5625 -0.984375 19.671875 3.0625 
Q 12.796875 7.125 9.0625 14.671875 
Q 5.328125 22.21875 5.171875 32.28125 
L 5.171875 37.84375 
Q 5.171875 53.953125 12.890625 63.015625 
Q 20.609375 72.078125 34.421875 72.078125 
Q 46.296875 72.078125 53.265625 66.21875 
Q 60.25 60.359375 61.671875 49.3125 
L 49.5625 49.3125 
Q 47.515625 62.15625 34.671875 62.15625 
Q 26.375 62.15625 22.046875 56.171875 
Q 17.71875 50.203125 17.578125 38.625 
L 17.578125 33.15625 
Q 17.578125 21.625 22.4375 15.25 
Q 27.296875 8.890625 35.9375 8.890625 
Q 45.40625 8.890625 49.421875 13.1875 
L 49.421875 27.09375 
L 34.765625 27.09375 
L 34.765625 36.46875 
L 61.71875 36.46875 
z
" id="Roboto-Medium-47"/>
     <path d="M 19.578125 26.421875 
L 19.578125 0 
L 7.234375 0 
L 7.234375 71.09375 
L 34.421875 71.09375 
Q 46.34375 71.09375 53.34375 64.890625 
Q 60.359375 58.6875 60.359375 48.484375 
Q 60.359375 38.03125 53.484375 32.21875 
Q 46.625 26.421875 34.28125 26.421875 
z
M 19.578125 36.328125 
L 34.421875 36.328125 
Q 41.015625 36.328125 44.484375 39.421875 
Q 47.953125 42.53125 47.953125 48.390625 
Q 47.953125 54.15625 44.4375 57.59375 
Q 40.921875 61.03125 34.765625 61.140625 
L 19.578125 61.140625 
z
" id="Roboto-Medium-50"/>
     <path d="M 35.6875 14.359375 
Q 35.6875 17.53125 33.078125 19.1875 
Q 30.46875 20.84375 24.40625 22.109375 
Q 18.359375 23.390625 14.3125 25.34375 
Q 5.421875 29.640625 5.421875 37.796875 
Q 5.421875 44.625 11.171875 49.21875 
Q 16.9375 53.8125 25.828125 53.8125 
Q 35.296875 53.8125 41.125 49.125 
Q 46.96875 44.4375 46.96875 36.96875 
L 35.109375 36.96875 
Q 35.109375 40.375 32.5625 42.640625 
Q 30.03125 44.921875 25.828125 44.921875 
Q 21.921875 44.921875 19.453125 43.109375 
Q 17 41.3125 17 38.28125 
Q 17 35.546875 19.28125 34.03125 
Q 21.578125 32.515625 28.5625 30.96875 
Q 35.546875 29.4375 39.515625 27.3125 
Q 43.5 25.203125 45.421875 22.21875 
Q 47.359375 19.234375 47.359375 14.984375 
Q 47.359375 7.859375 41.453125 3.4375 
Q 35.546875 -0.984375 25.984375 -0.984375 
Q 19.484375 -0.984375 14.40625 1.359375 
Q 9.328125 3.71875 6.484375 7.8125 
Q 3.65625 11.921875 3.65625 16.65625 
L 15.1875 16.65625 
Q 15.4375 12.453125 18.359375 10.171875 
Q 21.296875 7.90625 26.125 7.90625 
Q 30.8125 7.90625 33.25 9.6875 
Q 35.6875 11.46875 35.6875 14.359375 
z
" id="Roboto-Medium-73"/>
    </defs>
    <g transform="translate(162.617773 16.2)scale(0.12 -0.12)">
     <use xlink:href="#Roboto-Medium-72"/>
     <use x="35.15625" xlink:href="#Roboto-Medium-6f"/>
     <use x="92.089844" xlink:href="#Roboto-Medium-75"/>
     <use x="147.65625" xlink:href="#Roboto-Medium-74"/>
     <use x="180.908203" xlink:href="#Roboto-Medium-65"/>
     <use x="234.570312" xlink:href="#Roboto-Medium-20"/>
     <use x="259.472656" xlink:href="#Roboto-Medium-6c"/>
     <use x="285.009766" xlink:href="#Roboto-Medium-6f"/>
     <use x="341.943359" xlink:href="#Roboto-Medium-6f"/>
     <use x="398.876953" xlink:href="#Roboto-Medium-6b"/>
     <use x="451.074219" xlink:href="#Roboto-Medium-75"/>
     <use x="506.640625" xlink:href="#Roboto-Medium-70"/>
     <use x="562.939453" xlink:href="#Roboto-Medium-20"/>
     <use x="587.841797" xlink:href="#Roboto-Medium-74"/>
     <use x="621.09375" xlink:href="#Roboto-Medium-69"/>
     <use x="646.630859" xlink:href="#Roboto-Medium-6d"/>
     <use x="733.642578" xlink:href="#Roboto-Medium-65"/>
     <use x="787.304688" xlink:href="#Roboto-Medium-20"/>
     <use x="812.207031" xlink:href="#Roboto-Medium-77"/>
     <use x="886.523438" xlink:href="#Roboto-Medium-69"/>
     <use x="912.060547" xlink:href="#Roboto-Medium-74"/>
     <use x="945.3125" xlink:href="#Roboto-Medium-68"/>
     <use x="1000.830078" xlink:href="#Roboto-Medium-20"/>
     <use x="1025.732422" xlink:href="#Roboto-Medium-35"/>
     <use x="1082.568359" xlink:href="#Roboto-Medium-30"/>
     <use x="1139.404297" xlink:href="#Roboto-Medium-30"/>
     <use x="1196.240234" xlink:href="#Roboto-Medium-6b"/>
     <use x="1248.4375" xlink:href="#Roboto-Medium-20"/>
     <use x="1273.339844" xlink:href="#Roboto-Medium-42"/>
     <use x="1336.425781" xlink:href="#Roboto-Medium-47"/>
     <use x="1404.492188" xlink:href="#Roboto-Medium-50"/>
     <use x="1468.408203" xlink:href="#Roboto-Medium-20"/>
     <use x="1493.310547" xlink:href="#Roboto-Medium-72"/>
     <use x="1528.466797" xlink:href="#Roboto-Medium-6f"/>
     <use x="1585.400391" xlink:href="#Roboto-Medium-75"/>
     <use x="1640.966797" xlink:href="#Roboto-Medium-74"/>
     <use x="1674.21875" xlink:href="#Roboto-Medium-65"/>
     <use x="1727.880859" xlink:href="#Roboto-Medium-73"/>
    </g>
   </g>
   <g id="legend_1">
    <g id="patch_11">
     <path d="M 62.81996 192.16 
L 475.95746 192.16 
Q 477.95746 192.16 477.95746 190.16 
L 477.95746 133.035 
Q 477.95746 131.035 475.95746 131.035 
L 62.81996 131.035 
Q 60.81996 131.035 60.81996 133.035 
L 60.81996 190.16 
Q 60.81996 192.16 62.81996 192.16 
z
" style="fill:#ffffff;opacity:0.8;stroke:#cccccc;stroke-linejoin:miter;stroke-width:0.5;"/>
    </g>
    <g id="line2d_31">
     <path d="M 64.81996 139.035 
L 84.81996 139.035 
" style="fill:none;stroke:#55aa55;"/>
    </g>
    <g id="line2d_32"/>
    <g id="text_13">
     <!-- Host: protected, Guest: PTI + spectre -->
     <defs>
      <path d="M 61.671875 0 
L 55.609375 0 
L 55.609375 34.078125 
L 14.984375 34.078125 
L 14.984375 0 
L 8.984375 0 
L 8.984375 71.09375 
L 14.984375 71.09375 
L 14.984375 39.15625 
L 55.609375 39.15625 
L 55.609375 71.09375 
L 61.671875 71.09375 
z
" id="Roboto-Light-48"/>
      <path d="M 4.390625 27.203125 
Q 4.390625 34.8125 7.34375 40.90625 
Q 10.296875 47.015625 15.6875 50.40625 
Q 21.09375 53.8125 27.9375 53.8125 
Q 38.484375 53.8125 45.015625 46.40625 
Q 51.5625 39.015625 51.5625 26.8125 
L 51.5625 25.59375 
Q 51.5625 17.921875 48.609375 11.796875 
Q 45.65625 5.671875 40.28125 2.34375 
Q 34.90625 -0.984375 28.03125 -0.984375 
Q 17.53125 -0.984375 10.953125 6.40625 
Q 4.390625 13.8125 4.390625 26.03125 
z
M 10.25 25.59375 
Q 10.25 16.109375 15.15625 10.03125 
Q 20.0625 3.953125 28.03125 3.953125 
Q 35.9375 3.953125 40.84375 10.03125 
Q 45.75 16.109375 45.75 26.078125 
L 45.75 27.203125 
Q 45.75 33.25 43.5 38.28125 
Q 41.265625 43.3125 37.203125 46.0625 
Q 33.15625 48.828125 27.9375 48.828125 
Q 20.125 48.828125 15.1875 42.703125 
Q 10.25 36.578125 10.25 26.65625 
z
" id="Roboto-Light-6f"/>
      <path d="M 16.703125 66.359375 
L 16.703125 52.828125 
L 27.640625 52.828125 
L 27.640625 48.046875 
L 16.703125 48.046875 
L 16.703125 12.84375 
Q 16.703125 8.453125 18.28125 6.296875 
Q 19.875 4.15625 23.578125 4.15625 
Q 25.046875 4.15625 28.328125 4.640625 
L 28.5625 -0.140625 
Q 26.265625 -0.984375 22.3125 -0.984375 
Q 16.3125 -0.984375 13.578125 2.5 
Q 10.84375 6 10.84375 12.796875 
L 10.84375 48.046875 
L 1.125 48.046875 
L 1.125 52.828125 
L 10.84375 52.828125 
L 10.84375 66.359375 
z
" id="Roboto-Light-74"/>
      <path d="M 6.203125 3.515625 
Q 6.203125 5.21875 7.296875 6.421875 
Q 8.40625 7.625 10.359375 7.625 
Q 12.3125 7.625 13.4375 6.421875 
Q 14.5625 5.21875 14.5625 3.515625 
Q 14.5625 1.8125 13.4375 0.703125 
Q 12.3125 -0.390625 10.359375 -0.390625 
Q 8.40625 -0.390625 7.296875 0.703125 
Q 6.203125 1.8125 6.203125 3.515625 
z
M 6.328125 48.515625 
Q 6.328125 50.21875 7.421875 51.421875 
Q 8.53125 52.625 10.484375 52.625 
Q 12.4375 52.625 13.5625 51.421875 
Q 14.6875 50.21875 14.6875 48.515625 
Q 14.6875 46.8125 13.5625 45.703125 
Q 12.4375 44.609375 10.484375 44.609375 
Q 8.53125 44.609375 7.421875 45.703125 
Q 6.328125 46.8125 6.328125 48.515625 
z
" id="Roboto-Light-3a"/>
      <path d="M 50.09375 25.875 
Q 50.09375 13.53125 44.625 6.265625 
Q 39.15625 -0.984375 29.984375 -0.984375 
Q 19.140625 -0.984375 13.375 6.640625 
L 13.375 -20.3125 
L 7.5625 -20.3125 
L 7.5625 52.828125 
L 12.984375 52.828125 
L 13.28125 45.359375 
Q 19 53.8125 29.828125 53.8125 
Q 39.3125 53.8125 44.703125 46.625 
Q 50.09375 39.453125 50.09375 26.703125 
z
M 44.234375 26.90625 
Q 44.234375 37.015625 40.078125 42.875 
Q 35.9375 48.734375 28.515625 48.734375 
Q 23.140625 48.734375 19.28125 46.140625 
Q 15.4375 43.5625 13.375 38.625 
L 13.375 13.28125 
Q 15.484375 8.734375 19.390625 6.34375 
Q 23.296875 3.953125 28.609375 3.953125 
Q 35.984375 3.953125 40.109375 9.828125 
Q 44.234375 15.71875 44.234375 26.90625 
z
" id="Roboto-Light-70"/>
      <path d="M 32.03125 47.859375 
Q 30.171875 48.1875 28.078125 48.1875 
Q 22.609375 48.1875 18.828125 45.140625 
Q 15.046875 42.09375 13.421875 36.28125 
L 13.421875 0 
L 7.625 0 
L 7.625 52.828125 
L 13.328125 52.828125 
L 13.421875 44.4375 
Q 18.0625 53.8125 28.328125 53.8125 
Q 30.765625 53.8125 32.171875 53.171875 
z
" id="Roboto-Light-72"/>
      <path d="M 28.078125 -0.984375 
Q 21.34375 -0.984375 15.890625 2.34375 
Q 10.453125 5.671875 7.421875 11.59375 
Q 4.390625 17.53125 4.390625 24.90625 
L 4.390625 27 
Q 4.390625 34.625 7.34375 40.71875 
Q 10.296875 46.828125 15.5625 50.3125 
Q 20.84375 53.8125 27 53.8125 
Q 36.625 53.8125 42.265625 47.234375 
Q 47.90625 40.671875 47.90625 29.296875 
L 47.90625 26.03125 
L 10.203125 26.03125 
L 10.203125 24.90625 
Q 10.203125 15.921875 15.359375 9.9375 
Q 20.515625 3.953125 28.328125 3.953125 
Q 33.015625 3.953125 36.59375 5.65625 
Q 40.1875 7.375 43.109375 11.140625 
L 46.78125 8.34375 
Q 40.328125 -0.984375 28.078125 -0.984375 
z
M 27 48.828125 
Q 20.40625 48.828125 15.890625 43.984375 
Q 11.375 39.15625 10.40625 31 
L 42.09375 31 
L 42.09375 31.640625 
Q 41.84375 39.265625 37.734375 44.046875 
Q 33.640625 48.828125 27 48.828125 
z
" id="Roboto-Light-65"/>
      <path d="M 27.15625 3.953125 
Q 33.25 3.953125 37.375 7.390625 
Q 41.5 10.84375 41.84375 16.3125 
L 47.46875 16.3125 
Q 47.21875 11.46875 44.4375 7.484375 
Q 41.65625 3.515625 37.03125 1.265625 
Q 32.421875 -0.984375 27.15625 -0.984375 
Q 16.75 -0.984375 10.671875 6.25 
Q 4.59375 13.484375 4.59375 25.6875 
L 4.59375 27.4375 
Q 4.59375 35.25 7.328125 41.25 
Q 10.0625 47.265625 15.15625 50.53125 
Q 20.265625 53.8125 27.09375 53.8125 
Q 35.796875 53.8125 41.4375 48.625 
Q 47.078125 43.453125 47.46875 35.015625 
L 41.84375 35.015625 
Q 41.453125 41.21875 37.375 45.015625 
Q 33.296875 48.828125 27.09375 48.828125 
Q 19.1875 48.828125 14.8125 43.109375 
Q 10.453125 37.40625 10.453125 27.09375 
L 10.453125 25.390625 
Q 10.453125 15.28125 14.8125 9.609375 
Q 19.1875 3.953125 27.15625 3.953125 
z
" id="Roboto-Light-63"/>
      <path d="M 5.28125 26.90625 
Q 5.28125 39.203125 10.765625 46.5 
Q 16.265625 53.8125 25.6875 53.8125 
Q 36.375 53.8125 42 45.359375 
L 42 75 
L 47.796875 75 
L 47.796875 0 
L 42.328125 0 
L 42.09375 7.03125 
Q 36.46875 -0.984375 25.59375 -0.984375 
Q 16.453125 -0.984375 10.859375 6.359375 
Q 5.28125 13.71875 5.28125 26.21875 
z
M 11.1875 25.875 
Q 11.1875 15.765625 15.234375 9.9375 
Q 19.28125 4.109375 26.65625 4.109375 
Q 37.453125 4.109375 42 13.625 
L 42 38.421875 
Q 37.453125 48.734375 26.765625 48.734375 
Q 19.390625 48.734375 15.28125 42.9375 
Q 11.1875 37.15625 11.1875 25.875 
z
" id="Roboto-Light-64"/>
      <path d="M 6.390625 -13.28125 
L 2.9375 -10.75 
Q 7.375 -4.78125 7.515625 1.609375 
L 7.515625 9.1875 
L 13.234375 9.1875 
L 13.234375 3.078125 
Q 13.234375 -7.078125 6.390625 -13.28125 
z
" id="Roboto-Light-2c"/>
      <path d="M 60.296875 8.453125 
Q 57.171875 4 50.5 1.5 
Q 43.84375 -0.984375 35.59375 -0.984375 
Q 27.25 -0.984375 20.75 3.015625 
Q 14.265625 7.03125 10.6875 14.359375 
Q 7.125 21.6875 7.078125 31.15625 
L 7.078125 40.140625 
Q 7.078125 54.9375 14.546875 63.5 
Q 22.015625 72.078125 34.625 72.078125 
Q 45.609375 72.078125 52.296875 66.484375 
Q 58.984375 60.890625 60.25 51.078125 
L 54.25 51.078125 
Q 52.9375 58.890625 47.875 62.90625 
Q 42.828125 66.9375 34.671875 66.9375 
Q 24.703125 66.9375 18.890625 59.859375 
Q 13.09375 52.78125 13.09375 39.890625 
L 13.09375 31.5 
Q 13.09375 23.390625 15.84375 17.15625 
Q 18.609375 10.9375 23.75 7.515625 
Q 28.90625 4.109375 35.59375 4.109375 
Q 43.359375 4.109375 48.921875 6.546875 
Q 52.546875 8.15625 54.296875 10.296875 
L 54.296875 28.65625 
L 35.203125 28.65625 
L 35.203125 33.734375 
L 60.296875 33.734375 
z
" id="Roboto-Light-47"/>
      <path d="M 41.609375 6.6875 
Q 36.328125 -0.984375 24.75 -0.984375 
Q 16.3125 -0.984375 11.90625 3.921875 
Q 7.515625 8.84375 7.421875 18.453125 
L 7.421875 52.828125 
L 13.234375 52.828125 
L 13.234375 19.1875 
Q 13.234375 4.109375 25.4375 4.109375 
Q 38.140625 4.109375 41.5 14.59375 
L 41.5 52.828125 
L 47.359375 52.828125 
L 47.359375 0 
L 41.703125 0 
z
" id="Roboto-Light-75"/>
      <path d="M 14.984375 28.953125 
L 14.984375 0 
L 8.984375 0 
L 8.984375 71.09375 
L 33.203125 71.09375 
Q 44.28125 71.09375 50.703125 65.421875 
Q 57.125 59.765625 57.125 49.859375 
Q 57.125 39.84375 50.953125 34.390625 
Q 44.78125 28.953125 33.0625 28.953125 
z
M 14.984375 34.03125 
L 33.203125 34.03125 
Q 41.9375 34.03125 46.53125 38.171875 
Q 51.125 42.328125 51.125 49.75 
Q 51.125 57.125 46.5625 61.5 
Q 42 65.875 33.59375 65.96875 
L 14.984375 65.96875 
z
" id="Roboto-Light-50"/>
      <path d="M 57.234375 65.96875 
L 32.859375 65.96875 
L 32.859375 0 
L 26.859375 0 
L 26.859375 65.96875 
L 2.546875 65.96875 
L 2.546875 71.09375 
L 57.234375 71.09375 
z
" id="Roboto-Light-54"/>
      <path d="M 16.3125 0 
L 10.296875 0 
L 10.296875 71.09375 
L 16.3125 71.09375 
z
" id="Roboto-Light-49"/>
      <path d="M 30.765625 36.140625 
L 52.390625 36.140625 
L 52.390625 30.671875 
L 30.765625 30.671875 
L 30.765625 7.125 
L 24.859375 7.125 
L 24.859375 30.671875 
L 3.65625 30.671875 
L 3.65625 36.140625 
L 24.859375 36.140625 
L 24.859375 58.890625 
L 30.765625 58.890625 
z
" id="Roboto-Light-2b"/>
     </defs>
     <g transform="translate(92.81996 142.535)scale(0.1 -0.1)">
      <use xlink:href="#Roboto-Light-48"/>
      <use x="70.751953" xlink:href="#Roboto-Light-6f"/>
      <use x="126.757812" xlink:href="#Roboto-Light-73"/>
      <use x="177.392578" xlink:href="#Roboto-Light-74"/>
      <use x="209.521484" xlink:href="#Roboto-Light-3a"/>
      <use x="230.517578" xlink:href="#Roboto-Light-20"/>
      <use x="254.833984" xlink:href="#Roboto-Light-70"/>
      <use x="310.253906" xlink:href="#Roboto-Light-72"/>
      <use x="343.896484" xlink:href="#Roboto-Light-6f"/>
      <use x="399.902344" xlink:href="#Roboto-Light-74"/>
      <use x="432.03125" xlink:href="#Roboto-Light-65"/>
      <use x="483.691406" xlink:href="#Roboto-Light-63"/>
      <use x="535.205078" xlink:href="#Roboto-Light-74"/>
      <use x="567.333984" xlink:href="#Roboto-Light-65"/>
      <use x="618.994141" xlink:href="#Roboto-Light-64"/>
      <use x="674.560547" xlink:href="#Roboto-Light-2c"/>
      <use x="693.701172" xlink:href="#Roboto-Light-20"/>
      <use x="718.017578" xlink:href="#Roboto-Light-47"/>
      <use x="786.376953" xlink:href="#Roboto-Light-75"/>
      <use x="841.308594" xlink:href="#Roboto-Light-65"/>
      <use x="892.96875" xlink:href="#Roboto-Light-73"/>
      <use x="943.603516" xlink:href="#Roboto-Light-74"/>
      <use x="975.732422" xlink:href="#Roboto-Light-3a"/>
      <use x="996.728516" xlink:href="#Roboto-Light-20"/>
      <use x="1021.044922" xlink:href="#Roboto-Light-50"/>
      <use x="1082.617188" xlink:href="#Roboto-Light-54"/>
      <use x="1142.333984" xlink:href="#Roboto-Light-49"/>
      <use x="1168.945312" xlink:href="#Roboto-Light-20"/>
      <use x="1193.261719" xlink:href="#Roboto-Light-2b"/>
      <use x="1249.707031" xlink:href="#Roboto-Light-20"/>
      <use x="1274.023438" xlink:href="#Roboto-Light-73"/>
      <use x="1324.658203" xlink:href="#Roboto-Light-70"/>
      <use x="1380.078125" xlink:href="#Roboto-Light-65"/>
      <use x="1431.738281" xlink:href="#Roboto-Light-63"/>
      <use x="1483.251953" xlink:href="#Roboto-Light-74"/>
      <use x="1515.380859" xlink:href="#Roboto-Light-72"/>
      <use x="1549.023438" xlink:href="#Roboto-Light-65"/>
     </g>
    </g>
    <g id="line2d_33">
     <path d="M 64.81996 153.56625 
L 84.81996 153.56625 
" style="fill:none;stroke:#116611;"/>
    </g>
    <g id="line2d_34"/>
    <g id="text_14">
     <!-- Host: protected, Guest: no PTI -->
     <g transform="translate(92.81996 157.06625)scale(0.1 -0.1)">
      <use xlink:href="#Roboto-Light-48"/>
      <use x="70.751953" xlink:href="#Roboto-Light-6f"/>
      <use x="126.757812" xlink:href="#Roboto-Light-73"/>
      <use x="177.392578" xlink:href="#Roboto-Light-74"/>
      <use x="209.521484" xlink:href="#Roboto-Light-3a"/>
      <use x="230.517578" xlink:href="#Roboto-Light-20"/>
      <use x="254.833984" xlink:href="#Roboto-Light-70"/>
      <use x="310.253906" xlink:href="#Roboto-Light-72"/>
      <use x="343.896484" xlink:href="#Roboto-Light-6f"/>
      <use x="399.902344" xlink:href="#Roboto-Light-74"/>
      <use x="432.03125" xlink:href="#Roboto-Light-65"/>
      <use x="483.691406" xlink:href="#Roboto-Light-63"/>
      <use x="535.205078" xlink:href="#Roboto-Light-74"/>
      <use x="567.333984" xlink:href="#Roboto-Light-65"/>
      <use x="618.994141" xlink:href="#Roboto-Light-64"/>
      <use x="674.560547" xlink:href="#Roboto-Light-2c"/>
      <use x="693.701172" xlink:href="#Roboto-Light-20"/>
      <use x="718.017578" xlink:href="#Roboto-Light-47"/>
      <use x="786.376953" xlink:href="#Roboto-Light-75"/>
      <use x="841.308594" xlink:href="#Roboto-Light-65"/>
      <use x="892.96875" xlink:href="#Roboto-Light-73"/>
      <use x="943.603516" xlink:href="#Roboto-Light-74"/>
      <use x="975.732422" xlink:href="#Roboto-Light-3a"/>
      <use x="996.728516" xlink:href="#Roboto-Light-20"/>
      <use x="1021.044922" xlink:href="#Roboto-Light-6e"/>
      <use x="1075.976562" xlink:href="#Roboto-Light-6f"/>
      <use x="1131.982422" xlink:href="#Roboto-Light-20"/>
      <use x="1156.298828" xlink:href="#Roboto-Light-50"/>
      <use x="1217.871094" xlink:href="#Roboto-Light-54"/>
      <use x="1277.587891" xlink:href="#Roboto-Light-49"/>
     </g>
    </g>
    <g id="line2d_35">
     <path d="M 64.81996 168.0975 
L 84.81996 168.0975 
" style="fill:none;stroke:#477286;"/>
    </g>
    <g id="line2d_36"/>
    <g id="text_15">
     <!-- Host: protected, Guest: no spectre v2 -->
     <defs>
      <path d="M 24.078125 8.0625 
L 40.140625 52.828125 
L 46.140625 52.828125 
L 26.421875 0 
L 21.6875 0 
L 1.859375 52.828125 
L 7.859375 52.828125 
z
" id="Roboto-Light-76"/>
     </defs>
     <g transform="translate(92.81996 171.5975)scale(0.1 -0.1)">
      <use xlink:href="#Roboto-Light-48"/>
      <use x="70.751953" xlink:href="#Roboto-Light-6f"/>
      <use x="126.757812" xlink:href="#Roboto-Light-73"/>
      <use x="177.392578" xlink:href="#Roboto-Light-74"/>
      <use x="209.521484" xlink:href="#Roboto-Light-3a"/>
      <use x="230.517578" xlink:href="#Roboto-Light-20"/>
      <use x="254.833984" xlink:href="#Roboto-Light-70"/>
      <use x="310.253906" xlink:href="#Roboto-Light-72"/>
      <use x="343.896484" xlink:href="#Roboto-Light-6f"/>
      <use x="399.902344" xlink:href="#Roboto-Light-74"/>
      <use x="432.03125" xlink:href="#Roboto-Light-65"/>
      <use x="483.691406" xlink:href="#Roboto-Light-63"/>
      <use x="535.205078" xlink:href="#Roboto-Light-74"/>
      <use x="567.333984" xlink:href="#Roboto-Light-65"/>
      <use x="618.994141" xlink:href="#Roboto-Light-64"/>
      <use x="674.560547" xlink:href="#Roboto-Light-2c"/>
      <use x="693.701172" xlink:href="#Roboto-Light-20"/>
      <use x="718.017578" xlink:href="#Roboto-Light-47"/>
      <use x="786.376953" xlink:href="#Roboto-Light-75"/>
      <use x="841.308594" xlink:href="#Roboto-Light-65"/>
      <use x="892.96875" xlink:href="#Roboto-Light-73"/>
      <use x="943.603516" xlink:href="#Roboto-Light-74"/>
      <use x="975.732422" xlink:href="#Roboto-Light-3a"/>
      <use x="996.728516" xlink:href="#Roboto-Light-20"/>
      <use x="1021.044922" xlink:href="#Roboto-Light-6e"/>
      <use x="1075.976562" xlink:href="#Roboto-Light-6f"/>
      <use x="1131.982422" xlink:href="#Roboto-Light-20"/>
      <use x="1156.298828" xlink:href="#Roboto-Light-73"/>
      <use x="1206.933594" xlink:href="#Roboto-Light-70"/>
      <use x="1262.353516" xlink:href="#Roboto-Light-65"/>
      <use x="1314.013672" xlink:href="#Roboto-Light-63"/>
      <use x="1365.527344" xlink:href="#Roboto-Light-74"/>
      <use x="1397.65625" xlink:href="#Roboto-Light-72"/>
      <use x="1431.298828" xlink:href="#Roboto-Light-65"/>
      <use x="1482.958984" xlink:href="#Roboto-Light-20"/>
      <use x="1507.275391" xlink:href="#Roboto-Light-76"/>
      <use x="1555.371094" xlink:href="#Roboto-Light-32"/>
     </g>
    </g>
    <g id="line2d_37">
     <path d="M 64.81996 182.62875 
L 84.81996 182.62875 
" style="fill:none;stroke:#113c51;"/>
    </g>
    <g id="line2d_38"/>
    <g id="text_16">
     <!-- Host: protected, Guest: unprotected -->
     <g transform="translate(92.81996 186.12875)scale(0.1 -0.1)">
      <use xlink:href="#Roboto-Light-48"/>
      <use x="70.751953" xlink:href="#Roboto-Light-6f"/>
      <use x="126.757812" xlink:href="#Roboto-Light-73"/>
      <use x="177.392578" xlink:href="#Roboto-Light-74"/>
      <use x="209.521484" xlink:href="#Roboto-Light-3a"/>
      <use x="230.517578" xlink:href="#Roboto-Light-20"/>
      <use x="254.833984" xlink:href="#Roboto-Light-70"/>
      <use x="310.253906" xlink:href="#Roboto-Light-72"/>
      <use x="343.896484" xlink:href="#Roboto-Light-6f"/>
      <use x="399.902344" xlink:href="#Roboto-Light-74"/>
      <use x="432.03125" xlink:href="#Roboto-Light-65"/>
      <use x="483.691406" xlink:href="#Roboto-Light-63"/>
      <use x="535.205078" xlink:href="#Roboto-Light-74"/>
      <use x="567.333984" xlink:href="#Roboto-Light-65"/>
      <use x="618.994141" xlink:href="#Roboto-Light-64"/>
      <use x="674.560547" xlink:href="#Roboto-Light-2c"/>
      <use x="693.701172" xlink:href="#Roboto-Light-20"/>
      <use x="718.017578" xlink:href="#Roboto-Light-47"/>
      <use x="786.376953" xlink:href="#Roboto-Light-75"/>
      <use x="841.308594" xlink:href="#Roboto-Light-65"/>
      <use x="892.96875" xlink:href="#Roboto-Light-73"/>
      <use x="943.603516" xlink:href="#Roboto-Light-74"/>
      <use x="975.732422" xlink:href="#Roboto-Light-3a"/>
      <use x="996.728516" xlink:href="#Roboto-Light-20"/>
      <use x="1021.044922" xlink:href="#Roboto-Light-75"/>
      <use x="1075.976562" xlink:href="#Roboto-Light-6e"/>
      <use x="1130.908203" xlink:href="#Roboto-Light-70"/>
      <use x="1186.328125" xlink:href="#Roboto-Light-72"/>
      <use x="1219.970703" xlink:href="#Roboto-Light-6f"/>
      <use x="1275.976562" xlink:href="#Roboto-Light-74"/>
      <use x="1308.105469" xlink:href="#Roboto-Light-65"/>
      <use x="1359.765625" xlink:href="#Roboto-Light-63"/>
      <use x="1411.279297" xlink:href="#Roboto-Light-74"/>
      <use x="1443.408203" xlink:href="#Roboto-Light-65"/>
      <use x="1495.068359" xlink:href="#Roboto-Light-64"/>
     </g>
    </g>
    <g id="line2d_39">
     <path d="M 273.89496 139.035 
L 293.89496 139.035 
" style="fill:none;stroke:#d4a36a;"/>
    </g>
    <g id="line2d_40"/>
    <g id="text_17">
     <!-- Host: unprotected, Guest: PTI + spectre -->
     <g transform="translate(301.89496 142.535)scale(0.1 -0.1)">
      <use xlink:href="#Roboto-Light-48"/>
      <use x="70.751953" xlink:href="#Roboto-Light-6f"/>
      <use x="126.757812" xlink:href="#Roboto-Light-73"/>
      <use x="177.392578" xlink:href="#Roboto-Light-74"/>
      <use x="209.521484" xlink:href="#Roboto-Light-3a"/>
      <use x="230.517578" xlink:href="#Roboto-Light-20"/>
      <use x="254.833984" xlink:href="#Roboto-Light-75"/>
      <use x="309.765625" xlink:href="#Roboto-Light-6e"/>
      <use x="364.697266" xlink:href="#Roboto-Light-70"/>
      <use x="420.117188" xlink:href="#Roboto-Light-72"/>
      <use x="453.759766" xlink:href="#Roboto-Light-6f"/>
      <use x="509.765625" xlink:href="#Roboto-Light-74"/>
      <use x="541.894531" xlink:href="#Roboto-Light-65"/>
      <use x="593.554688" xlink:href="#Roboto-Light-63"/>
      <use x="645.068359" xlink:href="#Roboto-Light-74"/>
      <use x="677.197266" xlink:href="#Roboto-Light-65"/>
      <use x="728.857422" xlink:href="#Roboto-Light-64"/>
      <use x="784.423828" xlink:href="#Roboto-Light-2c"/>
      <use x="803.564453" xlink:href="#Roboto-Light-20"/>
      <use x="827.880859" xlink:href="#Roboto-Light-47"/>
      <use x="896.240234" xlink:href="#Roboto-Light-75"/>
      <use x="951.171875" xlink:href="#Roboto-Light-65"/>
      <use x="1002.832031" xlink:href="#Roboto-Light-73"/>
      <use x="1053.466797" xlink:href="#Roboto-Light-74"/>
      <use x="1085.595703" xlink:href="#Roboto-Light-3a"/>
      <use x="1106.591797" xlink:href="#Roboto-Light-20"/>
      <use x="1130.908203" xlink:href="#Roboto-Light-50"/>
      <use x="1192.480469" xlink:href="#Roboto-Light-54"/>
      <use x="1252.197266" xlink:href="#Roboto-Light-49"/>
      <use x="1278.808594" xlink:href="#Roboto-Light-20"/>
      <use x="1303.125" xlink:href="#Roboto-Light-2b"/>
      <use x="1359.570312" xlink:href="#Roboto-Light-20"/>
      <use x="1383.886719" xlink:href="#Roboto-Light-73"/>
      <use x="1434.521484" xlink:href="#Roboto-Light-70"/>
      <use x="1489.941406" xlink:href="#Roboto-Light-65"/>
      <use x="1541.601562" xlink:href="#Roboto-Light-63"/>
      <use x="1593.115234" xlink:href="#Roboto-Light-74"/>
      <use x="1625.244141" xlink:href="#Roboto-Light-72"/>
      <use x="1658.886719" xlink:href="#Roboto-Light-65"/>
     </g>
    </g>
    <g id="line2d_41">
     <path d="M 273.89496 153.56625 
L 293.89496 153.56625 
" style="fill:none;stroke:#804e15;"/>
    </g>
    <g id="line2d_42"/>
    <g id="text_18">
     <!-- Host: unprotected, Guest: no PTI -->
     <g transform="translate(301.89496 157.06625)scale(0.1 -0.1)">
      <use xlink:href="#Roboto-Light-48"/>
      <use x="70.751953" xlink:href="#Roboto-Light-6f"/>
      <use x="126.757812" xlink:href="#Roboto-Light-73"/>
      <use x="177.392578" xlink:href="#Roboto-Light-74"/>
      <use x="209.521484" xlink:href="#Roboto-Light-3a"/>
      <use x="230.517578" xlink:href="#Roboto-Light-20"/>
      <use x="254.833984" xlink:href="#Roboto-Light-75"/>
      <use x="309.765625" xlink:href="#Roboto-Light-6e"/>
      <use x="364.697266" xlink:href="#Roboto-Light-70"/>
      <use x="420.117188" xlink:href="#Roboto-Light-72"/>
      <use x="453.759766" xlink:href="#Roboto-Light-6f"/>
      <use x="509.765625" xlink:href="#Roboto-Light-74"/>
      <use x="541.894531" xlink:href="#Roboto-Light-65"/>
      <use x="593.554688" xlink:href="#Roboto-Light-63"/>
      <use x="645.068359" xlink:href="#Roboto-Light-74"/>
      <use x="677.197266" xlink:href="#Roboto-Light-65"/>
      <use x="728.857422" xlink:href="#Roboto-Light-64"/>
      <use x="784.423828" xlink:href="#Roboto-Light-2c"/>
      <use x="803.564453" xlink:href="#Roboto-Light-20"/>
      <use x="827.880859" xlink:href="#Roboto-Light-47"/>
      <use x="896.240234" xlink:href="#Roboto-Light-75"/>
      <use x="951.171875" xlink:href="#Roboto-Light-65"/>
      <use x="1002.832031" xlink:href="#Roboto-Light-73"/>
      <use x="1053.466797" xlink:href="#Roboto-Light-74"/>
      <use x="1085.595703" xlink:href="#Roboto-Light-3a"/>
      <use x="1106.591797" xlink:href="#Roboto-Light-20"/>
      <use x="1130.908203" xlink:href="#Roboto-Light-6e"/>
      <use x="1185.839844" xlink:href="#Roboto-Light-6f"/>
      <use x="1241.845703" xlink:href="#Roboto-Light-20"/>
      <use x="1266.162109" xlink:href="#Roboto-Light-50"/>
      <use x="1327.734375" xlink:href="#Roboto-Light-54"/>
      <use x="1387.451172" xlink:href="#Roboto-Light-49"/>
     </g>
    </g>
    <g id="line2d_43">
     <path d="M 273.89496 168.0975 
L 293.89496 168.0975 
" style="fill:none;stroke:#d46a6a;"/>
    </g>
    <g id="line2d_44"/>
    <g id="text_19">
     <!-- Host: unprotected, Guest: no spectre v2 -->
     <g transform="translate(301.89496 171.5975)scale(0.1 -0.1)">
      <use xlink:href="#Roboto-Light-48"/>
      <use x="70.751953" xlink:href="#Roboto-Light-6f"/>
      <use x="126.757812" xlink:href="#Roboto-Light-73"/>
      <use x="177.392578" xlink:href="#Roboto-Light-74"/>
      <use x="209.521484" xlink:href="#Roboto-Light-3a"/>
      <use x="230.517578" xlink:href="#Roboto-Light-20"/>
      <use x="254.833984" xlink:href="#Roboto-Light-75"/>
      <use x="309.765625" xlink:href="#Roboto-Light-6e"/>
      <use x="364.697266" xlink:href="#Roboto-Light-70"/>
      <use x="420.117188" xlink:href="#Roboto-Light-72"/>
      <use x="453.759766" xlink:href="#Roboto-Light-6f"/>
      <use x="509.765625" xlink:href="#Roboto-Light-74"/>
      <use x="541.894531" xlink:href="#Roboto-Light-65"/>
      <use x="593.554688" xlink:href="#Roboto-Light-63"/>
      <use x="645.068359" xlink:href="#Roboto-Light-74"/>
      <use x="677.197266" xlink:href="#Roboto-Light-65"/>
      <use x="728.857422" xlink:href="#Roboto-Light-64"/>
      <use x="784.423828" xlink:href="#Roboto-Light-2c"/>
      <use x="803.564453" xlink:href="#Roboto-Light-20"/>
      <use x="827.880859" xlink:href="#Roboto-Light-47"/>
      <use x="896.240234" xlink:href="#Roboto-Light-75"/>
      <use x="951.171875" xlink:href="#Roboto-Light-65"/>
      <use x="1002.832031" xlink:href="#Roboto-Light-73"/>
      <use x="1053.466797" xlink:href="#Roboto-Light-74"/>
      <use x="1085.595703" xlink:href="#Roboto-Light-3a"/>
      <use x="1106.591797" xlink:href="#Roboto-Light-20"/>
      <use x="1130.908203" xlink:href="#Roboto-Light-6e"/>
      <use x="1185.839844" xlink:href="#Roboto-Light-6f"/>
      <use x="1241.845703" xlink:href="#Roboto-Light-20"/>
      <use x="1266.162109" xlink:href="#Roboto-Light-73"/>
      <use x="1316.796875" xlink:href="#Roboto-Light-70"/>
      <use x="1372.216797" xlink:href="#Roboto-Light-65"/>
      <use x="1423.876953" xlink:href="#Roboto-Light-63"/>
      <use x="1475.390625" xlink:href="#Roboto-Light-74"/>
      <use x="1507.519531" xlink:href="#Roboto-Light-72"/>
      <use x="1541.162109" xlink:href="#Roboto-Light-65"/>
      <use x="1592.822266" xlink:href="#Roboto-Light-20"/>
      <use x="1617.138672" xlink:href="#Roboto-Light-76"/>
      <use x="1665.234375" xlink:href="#Roboto-Light-32"/>
     </g>
    </g>
    <g id="line2d_45">
     <path d="M 273.89496 182.62875 
L 293.89496 182.62875 
" style="fill:none;stroke:#801515;"/>
    </g>
    <g id="line2d_46"/>
    <g id="text_20">
     <!-- Host: unprotected, Guest: unprotected -->
     <g transform="translate(301.89496 186.12875)scale(0.1 -0.1)">
      <use xlink:href="#Roboto-Light-48"/>
      <use x="70.751953" xlink:href="#Roboto-Light-6f"/>
      <use x="126.757812" xlink:href="#Roboto-Light-73"/>
      <use x="177.392578" xlink:href="#Roboto-Light-74"/>
      <use x="209.521484" xlink:href="#Roboto-Light-3a"/>
      <use x="230.517578" xlink:href="#Roboto-Light-20"/>
      <use x="254.833984" xlink:href="#Roboto-Light-75"/>
      <use x="309.765625" xlink:href="#Roboto-Light-6e"/>
      <use x="364.697266" xlink:href="#Roboto-Light-70"/>
      <use x="420.117188" xlink:href="#Roboto-Light-72"/>
      <use x="453.759766" xlink:href="#Roboto-Light-6f"/>
      <use x="509.765625" xlink:href="#Roboto-Light-74"/>
      <use x="541.894531" xlink:href="#Roboto-Light-65"/>
      <use x="593.554688" xlink:href="#Roboto-Light-63"/>
      <use x="645.068359" xlink:href="#Roboto-Light-74"/>
      <use x="677.197266" xlink:href="#Roboto-Light-65"/>
      <use x="728.857422" xlink:href="#Roboto-Light-64"/>
      <use x="784.423828" xlink:href="#Roboto-Light-2c"/>
      <use x="803.564453" xlink:href="#Roboto-Light-20"/>
      <use x="827.880859" xlink:href="#Roboto-Light-47"/>
      <use x="896.240234" xlink:href="#Roboto-Light-75"/>
      <use x="951.171875" xlink:href="#Roboto-Light-65"/>
      <use x="1002.832031" xlink:href="#Roboto-Light-73"/>
      <use x="1053.466797" xlink:href="#Roboto-Light-74"/>
      <use x="1085.595703" xlink:href="#Roboto-Light-3a"/>
      <use x="1106.591797" xlink:href="#Roboto-Light-20"/>
      <use x="1130.908203" xlink:href="#Roboto-Light-75"/>
      <use x="1185.839844" xlink:href="#Roboto-Light-6e"/>
      <use x="1240.771484" xlink:href="#Roboto-Light-70"/>
      <use x="1296.191406" xlink:href="#Roboto-Light-72"/>
      <use x="1329.833984" xlink:href="#Roboto-Light-6f"/>
      <use x="1385.839844" xlink:href="#Roboto-Light-74"/>
      <use x="1417.96875" xlink:href="#Roboto-Light-65"/>
      <use x="1469.628906" xlink:href="#Roboto-Light-63"/>
      <use x="1521.142578" xlink:href="#Roboto-Light-74"/>
      <use x="1553.271484" xlink:href="#Roboto-Light-65"/>
      <use x="1604.931641" xlink:href="#Roboto-Light-64"/>
     </g>
    </g>
   </g>
  </g>
 </g>
 <defs>
  <clipPath id="p380f5875dd">
   <rect height="174.96" width="469.230545" x="34.773438" y="22.2"/>
  </clipPath>
 </defs>
</svg>
