<?xml version="1.0" encoding="utf-8" standalone="no"?>
<!DOCTYPE svg PUBLIC "-//W3C//DTD SVG 1.1//EN"
  "http://www.w3.org/Graphics/SVG/1.1/DTD/svg11.dtd">
<!-- Created with matplotlib (http://matplotlib.org/) -->
<svg height="217pt" version="1.1" viewBox="0 0 392 217" width="392pt" xmlns="http://www.w3.org/2000/svg" xmlns:xlink="http://www.w3.org/1999/xlink">
 <defs>
  <style type="text/css">
*{stroke-linecap:butt;stroke-linejoin:round;}
  </style>
 </defs>
 <g id="figure_1">
  <g id="patch_1">
   <path d="M 0 217.2675 
L 392.63375 217.2675 
L 392.63375 0 
L 0 0 
z
" style="fill:#ffffff;"/>
  </g>
  <g id="axes_1">
   <g id="patch_2">
    <path d="M 46.779688 197.03625 
L 246.088778 197.03625 
L 246.088778 22.07625 
L 46.779688 22.07625 
z
" style="fill:#ffffff;"/>
   </g>
   <g id="line2d_1">
    <path clip-path="url(#p85881fcd7a)" d="M 55.839192 185.151571 
L 109.901397 185.008237 
L 128.831714 184.721568 
L 140.990441 184.291565 
L 149.999853 183.718228 
L 157.168204 183.001557 
L 162.260378 182.284886 
L 166.90764 181.42488 
L 171.132672 180.42154 
L 174.980749 179.274866 
L 178.499747 177.984858 
L 181.733352 176.551515 
L 184.71934 174.974838 
L 187.489689 173.254827 
L 190.071283 171.391481 
L 192.486716 169.384802 
L 194.896432 167.091453 
L 197.265992 164.511436 
L 199.465393 161.788085 
L 201.616049 158.778066 
L 203.79192 155.338043 
L 205.882322 151.611352 
L 207.955914 147.454659 
L 209.993848 142.867962 
L 212.037531 137.707928 
L 214.062447 131.974558 
L 216.051767 125.66785 
L 218.032763 118.644471 
L 220.021119 110.761086 
L 221.993609 102.017696 
L 223.961473 92.270966 
L 225.93003 81.377561 
L 227.900498 69.194149 
L 229.871387 55.577393 
L 231.645163 41.960638 
L 231.645163 41.960638 
" style="fill:none;opacity:0.2;stroke:#0000ff;"/>
   </g>
   <g id="matplotlib.axis_1">
    <g id="xtick_1">
     <g id="line2d_2">
      <path clip-path="url(#p85881fcd7a)" d="M 55.839192 197.03625 
L 55.839192 22.07625 
" style="fill:none;stroke:#cbcbcb;stroke-width:0.75;"/>
     </g>
     <g id="line2d_3"/>
     <g id="text_1">
      <!-- 100 -->
      <defs>
       <path d="M 33.890625 0 
L 28.03125 0 
L 28.03125 64.0625 
L 8.6875 56.890625 
L 8.6875 62.359375 
L 32.90625 71.34375 
L 33.890625 71.34375 
z
" id="Roboto-Light-31"/>
       <path d="M 49.5625 29.640625 
Q 49.5625 14.59375 44.046875 6.796875 
Q 38.53125 -0.984375 27.78125 -0.984375 
Q 17.234375 -0.984375 11.609375 6.65625 
Q 6 14.3125 5.859375 28.90625 
L 5.859375 41.65625 
Q 5.859375 56.640625 11.421875 64.359375 
Q 17 72.078125 27.6875 72.078125 
Q 38.234375 72.078125 43.796875 64.625 
Q 49.359375 57.171875 49.5625 42.671875 
z
M 43.703125 42.390625 
Q 43.703125 54.59375 39.71875 60.84375 
Q 35.75 67.09375 27.6875 67.09375 
Q 19.78125 67.09375 15.765625 60.984375 
Q 11.765625 54.890625 11.671875 42.96875 
L 11.671875 29 
Q 11.671875 16.84375 15.796875 10.390625 
Q 19.921875 3.953125 27.78125 3.953125 
Q 35.59375 3.953125 39.625 10.25 
Q 43.65625 16.546875 43.703125 28.71875 
z
" id="Roboto-Light-30"/>
      </defs>
      <g transform="translate(47.52591 208.03625)scale(0.1 -0.1)">
       <use xlink:href="#Roboto-Light-31"/>
       <use x="55.419922" xlink:href="#Roboto-Light-30"/>
       <use x="110.839844" xlink:href="#Roboto-Light-30"/>
      </g>
     </g>
    </g>
    <g id="xtick_2">
     <g id="line2d_4">
      <path clip-path="url(#p85881fcd7a)" d="M 96.71451 197.03625 
L 96.71451 22.07625 
" style="fill:none;stroke:#cbcbcb;stroke-width:0.75;"/>
     </g>
     <g id="line2d_5"/>
     <g id="text_2">
      <!-- 1 k -->
      <defs>
       <path id="Roboto-Light-20"/>
       <path d="M 20.171875 26.609375 
L 13.484375 20.171875 
L 13.484375 0 
L 7.625 0 
L 7.625 75 
L 13.484375 75 
L 13.484375 27 
L 19 32.953125 
L 39.203125 52.828125 
L 46.578125 52.828125 
L 24.171875 30.5625 
L 48.53125 0 
L 41.546875 0 
z
" id="Roboto-Light-6b"/>
      </defs>
      <g transform="translate(90.279354 208.03625)scale(0.1 -0.1)">
       <use xlink:href="#Roboto-Light-31"/>
       <use x="55.419922" xlink:href="#Roboto-Light-20"/>
       <use x="79.736328" xlink:href="#Roboto-Light-6b"/>
      </g>
     </g>
    </g>
    <g id="xtick_3">
     <g id="line2d_6">
      <path clip-path="url(#p85881fcd7a)" d="M 137.589829 197.03625 
L 137.589829 22.07625 
" style="fill:none;stroke:#cbcbcb;stroke-width:0.75;"/>
     </g>
     <g id="line2d_7"/>
     <g id="text_3">
      <!-- 10 k -->
      <g transform="translate(128.383579 208.03625)scale(0.1 -0.1)">
       <use xlink:href="#Roboto-Light-31"/>
       <use x="55.419922" xlink:href="#Roboto-Light-30"/>
       <use x="110.839844" xlink:href="#Roboto-Light-20"/>
       <use x="135.15625" xlink:href="#Roboto-Light-6b"/>
      </g>
     </g>
    </g>
    <g id="xtick_4">
     <g id="line2d_8">
      <path clip-path="url(#p85881fcd7a)" d="M 178.465147 197.03625 
L 178.465147 22.07625 
" style="fill:none;stroke:#cbcbcb;stroke-width:0.75;"/>
     </g>
     <g id="line2d_9"/>
     <g id="text_4">
      <!-- 100 k -->
      <g transform="translate(166.487803 208.03625)scale(0.1 -0.1)">
       <use xlink:href="#Roboto-Light-31"/>
       <use x="55.419922" xlink:href="#Roboto-Light-30"/>
       <use x="110.839844" xlink:href="#Roboto-Light-30"/>
       <use x="166.259766" xlink:href="#Roboto-Light-20"/>
       <use x="190.576172" xlink:href="#Roboto-Light-6b"/>
      </g>
     </g>
    </g>
    <g id="xtick_5">
     <g id="line2d_10">
      <path clip-path="url(#p85881fcd7a)" d="M 219.340466 197.03625 
L 219.340466 22.07625 
" style="fill:none;stroke:#cbcbcb;stroke-width:0.75;"/>
     </g>
     <g id="line2d_11"/>
     <g id="text_5">
      <!-- 1 M -->
      <defs>
       <path d="M 16.9375 71.09375 
L 43.171875 8.34375 
L 69.484375 71.09375 
L 77.484375 71.09375 
L 77.484375 0 
L 71.484375 0 
L 71.484375 30.953125 
L 71.96875 62.703125 
L 45.515625 0 
L 40.875 0 
L 14.5 62.453125 
L 14.984375 31.15625 
L 14.984375 0 
L 8.984375 0 
L 8.984375 71.09375 
z
" id="Roboto-Light-4d"/>
      </defs>
      <g transform="translate(211.027184 208.03625)scale(0.1 -0.1)">
       <use xlink:href="#Roboto-Light-31"/>
       <use x="55.419922" xlink:href="#Roboto-Light-20"/>
       <use x="79.736328" xlink:href="#Roboto-Light-4d"/>
      </g>
     </g>
    </g>
    <g id="xtick_6">
     <g id="line2d_12"/>
    </g>
    <g id="xtick_7">
     <g id="line2d_13"/>
    </g>
    <g id="xtick_8">
     <g id="line2d_14"/>
    </g>
    <g id="xtick_9">
     <g id="line2d_15"/>
    </g>
    <g id="xtick_10">
     <g id="line2d_16"/>
    </g>
    <g id="xtick_11">
     <g id="line2d_17"/>
    </g>
    <g id="xtick_12">
     <g id="line2d_18"/>
    </g>
    <g id="xtick_13">
     <g id="line2d_19"/>
    </g>
    <g id="xtick_14">
     <g id="line2d_20"/>
    </g>
    <g id="xtick_15">
     <g id="line2d_21"/>
    </g>
    <g id="xtick_16">
     <g id="line2d_22"/>
    </g>
    <g id="xtick_17">
     <g id="line2d_23"/>
    </g>
    <g id="xtick_18">
     <g id="line2d_24"/>
    </g>
    <g id="xtick_19">
     <g id="line2d_25"/>
    </g>
    <g id="xtick_20">
     <g id="line2d_26"/>
    </g>
    <g id="xtick_21">
     <g id="line2d_27"/>
    </g>
    <g id="xtick_22">
     <g id="line2d_28"/>
    </g>
    <g id="xtick_23">
     <g id="line2d_29"/>
    </g>
    <g id="xtick_24">
     <g id="line2d_30"/>
    </g>
    <g id="xtick_25">
     <g id="line2d_31"/>
    </g>
    <g id="xtick_26">
     <g id="line2d_32"/>
    </g>
    <g id="xtick_27">
     <g id="line2d_33"/>
    </g>
    <g id="xtick_28">
     <g id="line2d_34"/>
    </g>
    <g id="xtick_29">
     <g id="line2d_35"/>
    </g>
    <g id="xtick_30">
     <g id="line2d_36"/>
    </g>
    <g id="xtick_31">
     <g id="line2d_37"/>
    </g>
    <g id="xtick_32">
     <g id="line2d_38"/>
    </g>
    <g id="xtick_33">
     <g id="line2d_39"/>
    </g>
    <g id="xtick_34">
     <g id="line2d_40"/>
    </g>
    <g id="xtick_35">
     <g id="line2d_41"/>
    </g>
    <g id="xtick_36">
     <g id="line2d_42"/>
    </g>
    <g id="xtick_37">
     <g id="line2d_43"/>
    </g>
    <g id="xtick_38">
     <g id="line2d_44"/>
    </g>
    <g id="xtick_39">
     <g id="line2d_45"/>
    </g>
    <g id="xtick_40">
     <g id="line2d_46"/>
    </g>
    <g id="xtick_41">
     <g id="line2d_47"/>
    </g>
    <g id="xtick_42">
     <g id="line2d_48"/>
    </g>
    <g id="xtick_43">
     <g id="line2d_49"/>
    </g>
    <g id="xtick_44">
     <g id="line2d_50"/>
    </g>
   </g>
   <g id="matplotlib.axis_2">
    <g id="ytick_1">
     <g id="line2d_51">
      <path clip-path="url(#p85881fcd7a)" d="M 46.779688 185.158731 
L 246.088778 185.158731 
" style="fill:none;stroke:#cbcbcb;stroke-width:0.75;"/>
     </g>
     <g id="line2d_52"/>
     <g id="text_6">
      <!-- 0 MiB -->
      <defs>
       <path d="M 14.15625 0 
L 8.296875 0 
L 8.296875 52.828125 
L 14.15625 52.828125 
z
M 7.28125 68.109375 
Q 7.28125 69.78125 8.34375 70.921875 
Q 9.421875 72.078125 11.28125 72.078125 
Q 13.140625 72.078125 14.234375 70.921875 
Q 15.328125 69.78125 15.328125 68.109375 
Q 15.328125 66.453125 14.234375 65.328125 
Q 13.140625 64.203125 11.28125 64.203125 
Q 9.421875 64.203125 8.34375 65.328125 
Q 7.28125 66.453125 7.28125 68.109375 
" id="Roboto-Light-69"/>
       <path d="M 8.984375 0 
L 8.984375 71.09375 
L 29.984375 71.09375 
Q 41.40625 71.09375 47.3125 66.375 
Q 53.21875 61.671875 53.21875 52.484375 
Q 53.21875 46.96875 50.21875 42.890625 
Q 47.21875 38.8125 42 37.0625 
Q 48.1875 35.6875 51.96875 30.953125 
Q 55.765625 26.21875 55.765625 20.015625 
Q 55.765625 10.59375 49.6875 5.296875 
Q 43.609375 0 32.765625 0 
z
M 14.984375 34.1875 
L 14.984375 5.078125 
L 33.015625 5.078125 
Q 40.71875 5.078125 45.234375 9 
Q 49.75 12.9375 49.75 19.921875 
Q 49.75 26.515625 45.421875 30.34375 
Q 41.109375 34.1875 33.5 34.1875 
z
M 14.984375 39.203125 
L 31.390625 39.203125 
Q 38.921875 39.359375 43.046875 42.75 
Q 47.171875 46.140625 47.171875 52.640625 
Q 47.171875 59.46875 42.890625 62.71875 
Q 38.625 65.96875 29.984375 65.96875 
L 14.984375 65.96875 
z
" id="Roboto-Light-42"/>
      </defs>
      <g transform="translate(18.284375 188.908731)scale(0.1 -0.1)">
       <use xlink:href="#Roboto-Light-30"/>
       <use x="55.419922" xlink:href="#Roboto-Light-20"/>
       <use x="79.736328" xlink:href="#Roboto-Light-4d"/>
       <use x="166.259766" xlink:href="#Roboto-Light-69"/>
       <use x="188.671875" xlink:href="#Roboto-Light-42"/>
      </g>
     </g>
    </g>
    <g id="ytick_2">
     <g id="line2d_53">
      <path clip-path="url(#p85881fcd7a)" d="M 46.779688 147.353779 
L 246.088778 147.353779 
" style="fill:none;stroke:#cbcbcb;stroke-width:0.75;"/>
     </g>
     <g id="line2d_54"/>
     <g id="text_7">
      <!-- 64 MiB -->
      <defs>
       <path d="M 41.15625 71.625 
L 41.15625 66.5 
L 40.484375 66.5 
Q 27.734375 66.5 20.40625 59 
Q 13.09375 51.515625 12.3125 38.1875 
Q 15.234375 42.234375 19.765625 44.453125 
Q 24.3125 46.6875 29.9375 46.6875 
Q 39.3125 46.6875 44.84375 40.203125 
Q 50.390625 33.734375 50.390625 23.296875 
Q 50.390625 16.359375 47.796875 10.78125 
Q 45.21875 5.21875 40.375 2.109375 
Q 35.546875 -0.984375 29.34375 -0.984375 
Q 19.140625 -0.984375 12.734375 6.40625 
Q 6.34375 13.8125 6.34375 25.53125 
L 6.34375 31.390625 
Q 6.34375 50.484375 15.03125 60.953125 
Q 23.734375 71.4375 39.703125 71.625 
z
M 29 41.65625 
Q 23.4375 41.65625 18.625 38.359375 
Q 13.8125 35.0625 12.203125 29.984375 
L 12.203125 25 
Q 12.203125 15.71875 16.96875 9.859375 
Q 21.734375 4 29.34375 4 
Q 36.1875 4 40.40625 9.421875 
Q 44.625 14.84375 44.625 23.09375 
Q 44.625 31.5 40.40625 36.578125 
Q 36.1875 41.65625 29 41.65625 
" id="Roboto-Light-36"/>
       <path d="M 42.578125 22.90625 
L 53.65625 22.90625 
L 53.65625 17.96875 
L 42.578125 17.96875 
L 42.578125 0 
L 36.71875 0 
L 36.71875 17.96875 
L 3.265625 17.96875 
L 3.265625 21.296875 
L 36.1875 71.09375 
L 42.578125 71.09375 
z
M 10.453125 22.90625 
L 36.71875 22.90625 
L 36.71875 63.53125 
L 34.125 59.03125 
z
" id="Roboto-Light-34"/>
      </defs>
      <g transform="translate(12.742188 151.103779)scale(0.1 -0.1)">
       <use xlink:href="#Roboto-Light-36"/>
       <use x="55.419922" xlink:href="#Roboto-Light-34"/>
       <use x="110.839844" xlink:href="#Roboto-Light-20"/>
       <use x="135.15625" xlink:href="#Roboto-Light-4d"/>
       <use x="221.679688" xlink:href="#Roboto-Light-69"/>
       <use x="244.091797" xlink:href="#Roboto-Light-42"/>
      </g>
     </g>
    </g>
    <g id="ytick_3">
     <g id="line2d_55">
      <path clip-path="url(#p85881fcd7a)" d="M 46.779688 109.548827 
L 246.088778 109.548827 
" style="fill:none;stroke:#cbcbcb;stroke-width:0.75;"/>
     </g>
     <g id="line2d_56"/>
     <g id="text_8">
      <!-- 128 MiB -->
      <defs>
       <path d="M 51.21875 0 
L 6.6875 0 
L 6.6875 4.5 
L 31.0625 32.125 
Q 37.109375 39.109375 39.453125 43.640625 
Q 41.796875 48.1875 41.796875 52.484375 
Q 41.796875 59.234375 37.84375 63.15625 
Q 33.890625 67.09375 26.953125 67.09375 
Q 19.78125 67.09375 15.359375 62.5 
Q 10.9375 57.90625 10.9375 50.59375 
L 5.125 50.59375 
Q 5.125 56.59375 7.828125 61.515625 
Q 10.546875 66.453125 15.546875 69.265625 
Q 20.5625 72.078125 26.953125 72.078125 
Q 36.71875 72.078125 42.203125 66.9375 
Q 47.703125 61.8125 47.703125 52.984375 
Q 47.703125 48 44.59375 42.09375 
Q 41.5 36.1875 33.6875 27.34375 
L 13.875 4.9375 
L 51.21875 4.9375 
z
" id="Roboto-Light-32"/>
       <path d="M 48.578125 52.78125 
Q 48.578125 47.265625 45.359375 42.890625 
Q 42.140625 38.53125 36.859375 36.46875 
Q 43.015625 34.375 46.71875 29.6875 
Q 50.4375 25 50.4375 18.84375 
Q 50.4375 9.71875 44.234375 4.359375 
Q 38.03125 -0.984375 27.828125 -0.984375 
Q 17.53125 -0.984375 11.34375 4.34375 
Q 5.171875 9.671875 5.171875 18.84375 
Q 5.171875 24.90625 8.734375 29.640625 
Q 12.3125 34.375 18.5 36.46875 
Q 13.234375 38.53125 10.109375 42.890625 
Q 6.984375 47.265625 6.984375 52.78125 
Q 6.984375 61.625 12.671875 66.84375 
Q 18.359375 72.078125 27.734375 72.078125 
Q 37.109375 72.078125 42.84375 66.796875 
Q 48.578125 61.53125 48.578125 52.78125 
M 44.578125 18.796875 
Q 44.578125 25.4375 39.84375 29.703125 
Q 35.109375 33.984375 27.734375 33.984375 
Q 20.359375 33.984375 15.671875 29.78125 
Q 10.984375 25.59375 10.984375 18.796875 
Q 10.984375 12.015625 15.515625 7.984375 
Q 20.0625 3.953125 27.828125 3.953125 
Q 35.40625 3.953125 39.984375 7.953125 
Q 44.578125 11.96875 44.578125 18.796875 
M 42.71875 52.828125 
Q 42.71875 58.9375 38.5 63.015625 
Q 34.28125 67.09375 27.734375 67.09375 
Q 21.09375 67.09375 16.96875 63.15625 
Q 12.84375 59.234375 12.84375 52.828125 
Q 12.84375 46.578125 16.96875 42.765625 
Q 21.09375 38.96875 27.78125 38.96875 
Q 34.375 38.96875 38.546875 42.796875 
Q 42.71875 46.625 42.71875 52.828125 
" id="Roboto-Light-38"/>
      </defs>
      <g transform="translate(7.2 113.298827)scale(0.1 -0.1)">
       <use xlink:href="#Roboto-Light-31"/>
       <use x="55.419922" xlink:href="#Roboto-Light-32"/>
       <use x="110.839844" xlink:href="#Roboto-Light-38"/>
       <use x="166.259766" xlink:href="#Roboto-Light-20"/>
       <use x="190.576172" xlink:href="#Roboto-Light-4d"/>
       <use x="277.099609" xlink:href="#Roboto-Light-69"/>
       <use x="299.511719" xlink:href="#Roboto-Light-42"/>
      </g>
     </g>
    </g>
    <g id="ytick_4">
     <g id="line2d_57">
      <path clip-path="url(#p85881fcd7a)" d="M 46.779688 71.743876 
L 246.088778 71.743876 
" style="fill:none;stroke:#cbcbcb;stroke-width:0.75;"/>
     </g>
     <g id="line2d_58"/>
     <g id="text_9">
      <!-- 192 MiB -->
      <defs>
       <path d="M 43.171875 32.90625 
Q 40.046875 28.328125 35.40625 25.8125 
Q 30.765625 23.296875 25.34375 23.296875 
Q 19.28125 23.296875 14.640625 26.421875 
Q 10.015625 29.546875 7.46875 35.0625 
Q 4.9375 40.578125 4.9375 47.125 
Q 4.9375 54.15625 7.640625 59.90625 
Q 10.359375 65.671875 15.203125 68.875 
Q 20.0625 72.078125 26.421875 72.078125 
Q 37.109375 72.078125 43.0625 64.578125 
Q 49.03125 57.078125 49.03125 43.3125 
L 49.03125 38.03125 
Q 49.03125 18.796875 40.828125 9.125 
Q 32.625 -0.53125 15.765625 -0.53125 
L 14.703125 -0.53125 
L 14.75 4.546875 
L 16.796875 4.546875 
Q 29.546875 4.734375 36.1875 11.765625 
Q 42.828125 18.796875 43.171875 32.90625 
M 26.078125 28.328125 
Q 31.9375 28.328125 36.59375 31.8125 
Q 41.265625 35.296875 43.21875 40.875 
L 43.21875 44.234375 
Q 43.21875 55.078125 38.703125 61.0625 
Q 34.1875 67.046875 26.515625 67.046875 
Q 19.578125 67.046875 15.125 61.453125 
Q 10.6875 55.859375 10.6875 47.359375 
Q 10.6875 39.203125 14.953125 33.765625 
Q 19.234375 28.328125 26.078125 28.328125 
" id="Roboto-Light-39"/>
      </defs>
      <g transform="translate(7.2 75.493876)scale(0.1 -0.1)">
       <use xlink:href="#Roboto-Light-31"/>
       <use x="55.419922" xlink:href="#Roboto-Light-39"/>
       <use x="110.839844" xlink:href="#Roboto-Light-32"/>
       <use x="166.259766" xlink:href="#Roboto-Light-20"/>
       <use x="190.576172" xlink:href="#Roboto-Light-4d"/>
       <use x="277.099609" xlink:href="#Roboto-Light-69"/>
       <use x="299.511719" xlink:href="#Roboto-Light-42"/>
      </g>
     </g>
    </g>
    <g id="ytick_5">
     <g id="line2d_59">
      <path clip-path="url(#p85881fcd7a)" d="M 46.779688 33.938924 
L 246.088778 33.938924 
" style="fill:none;stroke:#cbcbcb;stroke-width:0.75;"/>
     </g>
     <g id="line2d_60"/>
     <g id="text_10">
      <!-- 256 MiB -->
      <defs>
       <path d="M 10.640625 36.421875 
L 14.109375 71.09375 
L 49.65625 71.09375 
L 49.65625 65.671875 
L 19.140625 65.671875 
L 16.65625 41.65625 
Q 22.359375 45.5625 30.03125 45.5625 
Q 39.65625 45.5625 45.359375 39.3125 
Q 51.078125 33.0625 51.078125 22.65625 
Q 51.078125 11.421875 45.5 5.21875 
Q 39.9375 -0.984375 29.828125 -0.984375 
Q 20.5625 -0.984375 14.796875 4.1875 
Q 9.03125 9.375 8.203125 18.703125 
L 13.8125 18.703125 
Q 14.65625 11.421875 18.75 7.6875 
Q 22.859375 3.953125 29.828125 3.953125 
Q 37.453125 3.953125 41.328125 8.78125 
Q 45.21875 13.625 45.21875 22.5625 
Q 45.21875 30.375 40.875 35.296875 
Q 36.53125 40.234375 29 40.234375 
Q 24.859375 40.234375 21.78125 39.1875 
Q 18.703125 38.140625 15.28125 35.109375 
z
" id="Roboto-Light-35"/>
      </defs>
      <g transform="translate(7.2 37.688924)scale(0.1 -0.1)">
       <use xlink:href="#Roboto-Light-32"/>
       <use x="55.419922" xlink:href="#Roboto-Light-35"/>
       <use x="110.839844" xlink:href="#Roboto-Light-36"/>
       <use x="166.259766" xlink:href="#Roboto-Light-20"/>
       <use x="190.576172" xlink:href="#Roboto-Light-4d"/>
       <use x="277.099609" xlink:href="#Roboto-Light-69"/>
       <use x="299.511719" xlink:href="#Roboto-Light-42"/>
      </g>
     </g>
    </g>
   </g>
   <g id="PathCollection_1">
    <defs>
     <path d="M 0 3 
C 0.795609 3 1.55874 2.683901 2.12132 2.12132 
C 2.683901 1.55874 3 0.795609 3 0 
C 3 -0.795609 2.683901 -1.55874 2.12132 -2.12132 
C 1.55874 -2.683901 0.795609 -3 0 -3 
C -0.795609 -3 -1.55874 -2.683901 -2.12132 -2.12132 
C -2.683901 -1.55874 -3 -0.795609 -3 0 
C -3 0.795609 -2.683901 1.55874 -2.12132 2.12132 
C -1.55874 2.683901 -0.795609 3 0 3 
z
" id="ma6b2f990c6" style="stroke:#fdcab5;stroke-width:0.5;"/>
    </defs>
    <g clip-path="url(#p85881fcd7a)">
     <use style="fill:#fdcab5;stroke:#fdcab5;stroke-width:0.5;" x="60.990324" xlink:href="#ma6b2f990c6" y="185.150078"/>
     <use style="fill:#fdcab5;stroke:#fdcab5;stroke-width:0.5;" x="101.865642" xlink:href="#ma6b2f990c6" y="185.084893"/>
     <use style="fill:#fdcab5;stroke:#fdcab5;stroke-width:0.5;" x="142.740961" xlink:href="#ma6b2f990c6" y="184.36209"/>
     <use style="fill:#fdcab5;stroke:#fdcab5;stroke-width:0.5;" x="155.045658" xlink:href="#ma6b2f990c6" y="183.635249"/>
     <use style="fill:#fdcab5;stroke:#fdcab5;stroke-width:0.5;" x="171.311582" xlink:href="#ma6b2f990c6" y="181.47434"/>
     <use style="fill:#fdcab5;stroke:#fdcab5;stroke-width:0.5;" x="183.616279" xlink:href="#ma6b2f990c6" y="177.792257"/>
     <use style="fill:#fdcab5;stroke:#fdcab5;stroke-width:0.5;" x="195.920976" xlink:href="#ma6b2f990c6" y="170.346177"/>
     <use style="fill:#fdcab5;stroke:#fdcab5;stroke-width:0.5;" x="212.186901" xlink:href="#ma6b2f990c6" y="148.71401"/>
     <use style="fill:#fdcab5;stroke:#fdcab5;stroke-width:0.5;" x="224.491598" xlink:href="#ma6b2f990c6" y="112.01201"/>
     <use style="fill:#fdcab5;stroke:#fdcab5;stroke-width:0.5;" x="236.796295" xlink:href="#ma6b2f990c6" y="30.028982"/>
    </g>
   </g>
   <g id="PathCollection_2">
    <defs>
     <path d="M 0 3 
C 0.795609 3 1.55874 2.683901 2.12132 2.12132 
C 2.683901 1.55874 3 0.795609 3 0 
C 3 -0.795609 2.683901 -1.55874 2.12132 -2.12132 
C 1.55874 -2.683901 0.795609 -3 0 -3 
C -0.795609 -3 -1.55874 -2.683901 -2.12132 -2.12132 
C -2.683901 -1.55874 -3 -0.795609 -3 0 
C -3 0.795609 -2.683901 1.55874 -2.12132 2.12132 
C -1.55874 2.683901 -0.795609 3 0 3 
z
" id="m8a9ec44b0a" style="stroke:#fca082;stroke-width:0.5;"/>
    </defs>
    <g clip-path="url(#p85881fcd7a)">
     <use style="fill:#fca082;stroke:#fca082;stroke-width:0.5;" x="58.414758" xlink:href="#m8a9ec44b0a" y="182.616341"/>
     <use style="fill:#fca082;stroke:#fca082;stroke-width:0.5;" x="99.290076" xlink:href="#m8a9ec44b0a" y="182.549426"/>
     <use style="fill:#fca082;stroke:#fca082;stroke-width:0.5;" x="140.165395" xlink:href="#m8a9ec44b0a" y="181.830084"/>
     <use style="fill:#fca082;stroke:#fca082;stroke-width:0.5;" x="152.470092" xlink:href="#m8a9ec44b0a" y="181.03402"/>
     <use style="fill:#fca082;stroke:#fca082;stroke-width:0.5;" x="168.736016" xlink:href="#m8a9ec44b0a" y="178.956755"/>
     <use style="fill:#fca082;stroke:#fca082;stroke-width:0.5;" x="181.040713" xlink:href="#m8a9ec44b0a" y="175.255636"/>
     <use style="fill:#fca082;stroke:#fca082;stroke-width:0.5;" x="193.34541" xlink:href="#m8a9ec44b0a" y="167.898392"/>
     <use style="fill:#fca082;stroke:#fca082;stroke-width:0.5;" x="209.611335" xlink:href="#m8a9ec44b0a" y="146.256418"/>
     <use style="fill:#fca082;stroke:#fca082;stroke-width:0.5;" x="221.916032" xlink:href="#m8a9ec44b0a" y="109.730937"/>
     <use style="fill:#fca082;stroke:#fca082;stroke-width:0.5;" x="234.220729" xlink:href="#m8a9ec44b0a" y="36.339628"/>
    </g>
   </g>
   <g id="PathCollection_3">
    <defs>
     <path d="M 0 3 
C 0.795609 3 1.55874 2.683901 2.12132 2.12132 
C 2.683901 1.55874 3 0.795609 3 0 
C 3 -0.795609 2.683901 -1.55874 2.12132 -2.12132 
C 1.55874 -2.683901 0.795609 -3 0 -3 
C -0.795609 -3 -1.55874 -2.683901 -2.12132 -2.12132 
C -2.683901 -1.55874 -3 -0.795609 -3 0 
C -3 0.795609 -2.683901 1.55874 -2.12132 2.12132 
C -1.55874 2.683901 -0.795609 3 0 3 
z
" id="m11c502eefe" style="stroke:#fb7555;stroke-width:0.5;"/>
    </defs>
    <g clip-path="url(#p85881fcd7a)">
     <use style="fill:#fb7555;stroke:#fb7555;stroke-width:0.5;" x="53.263626" xlink:href="#m11c502eefe" y="182.669116"/>
     <use style="fill:#fb7555;stroke:#fb7555;stroke-width:0.5;" x="94.138944" xlink:href="#m11c502eefe" y="182.601624"/>
     <use style="fill:#fb7555;stroke:#fb7555;stroke-width:0.5;" x="135.014263" xlink:href="#m11c502eefe" y="181.957274"/>
     <use style="fill:#fb7555;stroke:#fb7555;stroke-width:0.5;" x="147.31896" xlink:href="#m11c502eefe" y="181.239086"/>
     <use style="fill:#fb7555;stroke:#fb7555;stroke-width:0.5;" x="163.584884" xlink:href="#m11c502eefe" y="178.87743"/>
     <use style="fill:#fb7555;stroke:#fb7555;stroke-width:0.5;" x="175.889581" xlink:href="#m11c502eefe" y="175.086321"/>
     <use style="fill:#fb7555;stroke:#fb7555;stroke-width:0.5;" x="188.194278" xlink:href="#m11c502eefe" y="167.488527"/>
     <use style="fill:#fb7555;stroke:#fb7555;stroke-width:0.5;" x="204.460203" xlink:href="#m11c502eefe" y="146.079027"/>
     <use style="fill:#fb7555;stroke:#fb7555;stroke-width:0.5;" x="216.7649" xlink:href="#m11c502eefe" y="111.070682"/>
     <use style="fill:#fb7555;stroke:#fb7555;stroke-width:0.5;" x="229.069597" xlink:href="#m11c502eefe" y="39.439366"/>
    </g>
   </g>
   <g id="PathCollection_4">
    <defs>
     <path d="M 0 3 
C 0.795609 3 1.55874 2.683901 2.12132 2.12132 
C 2.683901 1.55874 3 0.795609 3 0 
C 3 -0.795609 2.683901 -1.55874 2.12132 -2.12132 
C 1.55874 -2.683901 0.795609 -3 0 -3 
C -0.795609 -3 -1.55874 -2.683901 -2.12132 -2.12132 
C -2.683901 -1.55874 -3 -0.795609 -3 0 
C -3 0.795609 -2.683901 1.55874 -2.12132 2.12132 
C -1.55874 2.683901 -0.795609 3 0 3 
z
" id="m2f3bf59aa6" style="stroke:#f14432;stroke-width:0.5;"/>
    </defs>
    <g clip-path="url(#p85881fcd7a)">
     <use style="fill:#f14432;stroke:#f14432;stroke-width:0.5;" x="50.688059" xlink:href="#m2f3bf59aa6" y="185.150078"/>
     <use style="fill:#f14432;stroke:#f14432;stroke-width:0.5;" x="91.563378" xlink:href="#m2f3bf59aa6" y="185.080855"/>
     <use style="fill:#f14432;stroke:#f14432;stroke-width:0.5;" x="132.438697" xlink:href="#m2f3bf59aa6" y="184.431313"/>
     <use style="fill:#f14432;stroke:#f14432;stroke-width:0.5;" x="144.743393" xlink:href="#m2f3bf59aa6" y="183.70851"/>
     <use style="fill:#f14432;stroke:#f14432;stroke-width:0.5;" x="161.009318" xlink:href="#m2f3bf59aa6" y="181.166875"/>
     <use style="fill:#f14432;stroke:#f14432;stroke-width:0.5;" x="173.314015" xlink:href="#m2f3bf59aa6" y="177.614008"/>
     <use style="fill:#f14432;stroke:#f14432;stroke-width:0.5;" x="185.618712" xlink:href="#m2f3bf59aa6" y="169.186116"/>
     <use style="fill:#f14432;stroke:#f14432;stroke-width:0.5;" x="201.884637" xlink:href="#m2f3bf59aa6" y="147.00478"/>
     <use style="fill:#f14432;stroke:#f14432;stroke-width:0.5;" x="214.189334" xlink:href="#m2f3bf59aa6" y="108.838715"/>
     <use style="fill:#f14432;stroke:#f14432;stroke-width:0.5;" x="226.494031" xlink:href="#m2f3bf59aa6" y="36.164441"/>
    </g>
   </g>
   <g id="PathCollection_5">
    <defs>
     <path d="M 0 3 
C 0.795609 3 1.55874 2.683901 2.12132 2.12132 
C 2.683901 1.55874 3 0.795609 3 0 
C 3 -0.795609 2.683901 -1.55874 2.12132 -2.12132 
C 1.55874 -2.683901 0.795609 -3 0 -3 
C -0.795609 -3 -1.55874 -2.683901 -2.12132 -2.12132 
C -2.683901 -1.55874 -3 -0.795609 -3 0 
C -3 0.795609 -2.683901 1.55874 -2.12132 2.12132 
C -1.55874 2.683901 -0.795609 3 0 3 
z
" id="m8e455466d8" style="stroke:#d01d1f;stroke-width:0.5;"/>
    </defs>
    <g clip-path="url(#p85881fcd7a)">
     <use style="fill:#d01d1f;stroke:#d01d1f;stroke-width:0.5;" x="53.263626" xlink:href="#m8e455466d8" y="187.755733"/>
     <use style="fill:#d01d1f;stroke:#d01d1f;stroke-width:0.5;" x="94.138944" xlink:href="#m8e455466d8" y="187.687664"/>
     <use style="fill:#d01d1f;stroke:#d01d1f;stroke-width:0.5;" x="135.014263" xlink:href="#m8e455466d8" y="187.049083"/>
     <use style="fill:#d01d1f;stroke:#d01d1f;stroke-width:0.5;" x="147.31896" xlink:href="#m8e455466d8" y="186.333779"/>
     <use style="fill:#d01d1f;stroke:#d01d1f;stroke-width:0.5;" x="163.584884" xlink:href="#m8e455466d8" y="183.94155"/>
     <use style="fill:#d01d1f;stroke:#d01d1f;stroke-width:0.5;" x="175.889581" xlink:href="#m8e455466d8" y="180.123905"/>
     <use style="fill:#d01d1f;stroke:#d01d1f;stroke-width:0.5;" x="188.194278" xlink:href="#m8e455466d8" y="172.479962"/>
     <use style="fill:#d01d1f;stroke:#d01d1f;stroke-width:0.5;" x="204.460203" xlink:href="#m8e455466d8" y="150.14576"/>
     <use style="fill:#d01d1f;stroke:#d01d1f;stroke-width:0.5;" x="216.7649" xlink:href="#m8e455466d8" y="112.535209"/>
     <use style="fill:#d01d1f;stroke:#d01d1f;stroke-width:0.5;" x="229.069597" xlink:href="#m8e455466d8" y="37.326798"/>
    </g>
   </g>
   <g id="PathCollection_6">
    <defs>
     <path d="M 0 3 
C 0.795609 3 1.55874 2.683901 2.12132 2.12132 
C 2.683901 1.55874 3 0.795609 3 0 
C 3 -0.795609 2.683901 -1.55874 2.12132 -2.12132 
C 1.55874 -2.683901 0.795609 -3 0 -3 
C -0.795609 -3 -1.55874 -2.683901 -2.12132 -2.12132 
C -2.683901 -1.55874 -3 -0.795609 -3 0 
C -3 0.795609 -2.683901 1.55874 -2.12132 2.12132 
C -1.55874 2.683901 -0.795609 3 0 3 
z
" id="m89605f8a60" style="stroke:#a81016;stroke-width:0.5;"/>
    </defs>
    <g clip-path="url(#p85881fcd7a)">
     <use style="fill:#a81016;stroke:#a81016;stroke-width:0.5;" x="58.414758" xlink:href="#m89605f8a60" y="187.616722"/>
     <use style="fill:#a81016;stroke:#a81016;stroke-width:0.5;" x="99.290076" xlink:href="#m89605f8a60" y="187.553845"/>
     <use style="fill:#a81016;stroke:#a81016;stroke-width:0.5;" x="140.165395" xlink:href="#m89605f8a60" y="186.964296"/>
     <use style="fill:#a81016;stroke:#a81016;stroke-width:0.5;" x="152.470092" xlink:href="#m89605f8a60" y="186.304371"/>
     <use style="fill:#a81016;stroke:#a81016;stroke-width:0.5;" x="168.736016" xlink:href="#m89605f8a60" y="184.004439"/>
     <use style="fill:#a81016;stroke:#a81016;stroke-width:0.5;" x="181.040713" xlink:href="#m89605f8a60" y="180.389848"/>
     <use style="fill:#a81016;stroke:#a81016;stroke-width:0.5;" x="193.34541" xlink:href="#m89605f8a60" y="173.153744"/>
     <use style="fill:#a81016;stroke:#a81016;stroke-width:0.5;" x="209.611335" xlink:href="#m89605f8a60" y="152.025174"/>
     <use style="fill:#a81016;stroke:#a81016;stroke-width:0.5;" x="221.916032" xlink:href="#m89605f8a60" y="116.431318"/>
     <use style="fill:#a81016;stroke:#a81016;stroke-width:0.5;" x="234.220729" xlink:href="#m89605f8a60" y="45.213609"/>
    </g>
   </g>
   <g id="PathCollection_7">
    <defs>
     <path d="M 0 3 
C 0.795609 3 1.55874 2.683901 2.12132 2.12132 
C 2.683901 1.55874 3 0.795609 3 0 
C 3 -0.795609 2.683901 -1.55874 2.12132 -2.12132 
C 1.55874 -2.683901 0.795609 -3 0 -3 
C -0.795609 -3 -1.55874 -2.683901 -2.12132 -2.12132 
C -2.683901 -1.55874 -3 -0.795609 -3 0 
C -3 0.795609 -2.683901 1.55874 -2.12132 2.12132 
C -1.55874 2.683901 -0.795609 3 0 3 
z
" id="mcc18bb74f0" style="stroke:#67000d;stroke-width:0.5;"/>
    </defs>
    <g clip-path="url(#p85881fcd7a)">
     <use style="fill:#67000d;stroke:#67000d;stroke-width:0.5;" x="60.990324" xlink:href="#mcc18bb74f0" y="185.150655"/>
     <use style="fill:#67000d;stroke:#67000d;stroke-width:0.5;" x="101.865642" xlink:href="#mcc18bb74f0" y="185.094123"/>
     <use style="fill:#67000d;stroke:#67000d;stroke-width:0.5;" x="142.740961" xlink:href="#mcc18bb74f0" y="184.497652"/>
     <use style="fill:#67000d;stroke:#67000d;stroke-width:0.5;" x="155.045658" xlink:href="#mcc18bb74f0" y="183.837727"/>
     <use style="fill:#67000d;stroke:#67000d;stroke-width:0.5;" x="171.311582" xlink:href="#mcc18bb74f0" y="181.932365"/>
     <use style="fill:#67000d;stroke:#67000d;stroke-width:0.5;" x="183.616279" xlink:href="#mcc18bb74f0" y="178.70773"/>
     <use style="fill:#67000d;stroke:#67000d;stroke-width:0.5;" x="195.920976" xlink:href="#mcc18bb74f0" y="172.25846"/>
     <use style="fill:#67000d;stroke:#67000d;stroke-width:0.5;" x="212.186901" xlink:href="#mcc18bb74f0" y="153.500776"/>
     <use style="fill:#67000d;stroke:#67000d;stroke-width:0.5;" x="224.491598" xlink:href="#mcc18bb74f0" y="121.844551"/>
     <use style="fill:#67000d;stroke:#67000d;stroke-width:0.5;" x="236.796295" xlink:href="#mcc18bb74f0" y="58.532102"/>
    </g>
   </g>
   <g id="PathCollection_8">
    <defs>
     <path d="M 0 3 
C 0.795609 3 1.55874 2.683901 2.12132 2.12132 
C 2.683901 1.55874 3 0.795609 3 0 
C 3 -0.795609 2.683901 -1.55874 2.12132 -2.12132 
C 1.55874 -2.683901 0.795609 -3 0 -3 
C -0.795609 -3 -1.55874 -2.683901 -2.12132 -2.12132 
C -2.683901 -1.55874 -3 -0.795609 -3 0 
C -3 0.795609 -2.683901 1.55874 -2.12132 2.12132 
C -1.55874 2.683901 -0.795609 3 0 3 
z
" id="mc72baf2f42" style="stroke:#0000ff;stroke-width:0.5;"/>
    </defs>
    <g clip-path="url(#p85881fcd7a)">
     <use style="fill:#0000ff;stroke:#0000ff;stroke-width:0.5;" x="55.839192" xlink:href="#mc72baf2f42" y="185.149501"/>
     <use style="fill:#0000ff;stroke:#0000ff;stroke-width:0.5;" x="96.71451" xlink:href="#mc72baf2f42" y="185.078548"/>
     <use style="fill:#0000ff;stroke:#0000ff;stroke-width:0.5;" x="137.589829" xlink:href="#mc72baf2f42" y="184.39151"/>
     <use style="fill:#0000ff;stroke:#0000ff;stroke-width:0.5;" x="149.894526" xlink:href="#mc72baf2f42" y="183.479498"/>
     <use style="fill:#0000ff;stroke:#0000ff;stroke-width:0.5;" x="166.16045" xlink:href="#mc72baf2f42" y="181.352623"/>
     <use style="fill:#0000ff;stroke:#0000ff;stroke-width:0.5;" x="178.465147" xlink:href="#mc72baf2f42" y="177.152522"/>
     <use style="fill:#0000ff;stroke:#0000ff;stroke-width:0.5;" x="190.769844" xlink:href="#mc72baf2f42" y="169.787202"/>
     <use style="fill:#0000ff;stroke:#0000ff;stroke-width:0.5;" x="207.035769" xlink:href="#mc72baf2f42" y="149.471424"/>
    </g>
   </g>
   <g id="patch_3">
    <path d="M 46.779688 197.03625 
L 46.779688 22.07625 
" style="fill:none;"/>
   </g>
   <g id="patch_4">
    <path d="M 246.088778 197.03625 
L 246.088778 22.07625 
" style="fill:none;"/>
   </g>
   <g id="patch_5">
    <path d="M 46.779688 197.03625 
L 246.088778 197.03625 
" style="fill:none;"/>
   </g>
   <g id="patch_6">
    <path d="M 46.779688 22.07625 
L 246.088778 22.07625 
" style="fill:none;"/>
   </g>
   <g id="text_11">
    <!-- memory usage -->
    <defs>
     <path d="M 17.234375 52.828125 
L 17.578125 47.3125 
Q 23.140625 53.8125 32.8125 53.8125 
Q 43.40625 53.8125 47.3125 45.703125 
Q 53.078125 53.8125 63.53125 53.8125 
Q 72.265625 53.8125 76.53125 48.96875 
Q 80.8125 44.140625 80.90625 34.71875 
L 80.90625 0 
L 69.046875 0 
L 69.046875 34.375 
Q 69.046875 39.40625 66.84375 41.75 
Q 64.65625 44.09375 59.578125 44.09375 
Q 55.515625 44.09375 52.953125 41.921875 
Q 50.390625 39.75 49.359375 36.234375 
L 49.421875 0 
L 37.546875 0 
L 37.546875 34.765625 
Q 37.3125 44.09375 28.03125 44.09375 
Q 20.90625 44.09375 17.921875 38.28125 
L 17.921875 0 
L 6.0625 0 
L 6.0625 52.828125 
z
" id="Roboto-Medium-6d"/>
     <path d="M 29.34375 -0.984375 
Q 18.0625 -0.984375 11.046875 6.125 
Q 4.046875 13.234375 4.046875 25.046875 
L 4.046875 26.515625 
Q 4.046875 34.421875 7.09375 40.640625 
Q 10.15625 46.875 15.671875 50.34375 
Q 21.1875 53.8125 27.984375 53.8125 
Q 38.765625 53.8125 44.640625 46.921875 
Q 50.53125 40.046875 50.53125 27.4375 
L 50.53125 22.65625 
L 16.015625 22.65625 
Q 16.546875 16.109375 20.375 12.296875 
Q 24.21875 8.5 30.03125 8.5 
Q 38.1875 8.5 43.3125 15.09375 
L 49.703125 8.984375 
Q 46.53125 4.25 41.234375 1.625 
Q 35.9375 -0.984375 29.34375 -0.984375 
M 27.9375 44.28125 
Q 23.046875 44.28125 20.046875 40.859375 
Q 17.046875 37.453125 16.21875 31.34375 
L 38.8125 31.34375 
L 38.8125 32.234375 
Q 38.421875 38.1875 35.640625 41.234375 
Q 32.859375 44.28125 27.9375 44.28125 
" id="Roboto-Medium-65"/>
     <path d="M 3.859375 26.90625 
Q 3.859375 34.671875 6.9375 40.890625 
Q 10.015625 47.125 15.578125 50.46875 
Q 21.140625 53.8125 28.375 53.8125 
Q 39.0625 53.8125 45.71875 46.921875 
Q 52.390625 40.046875 52.9375 28.65625 
L 52.984375 25.875 
Q 52.984375 18.0625 49.96875 11.90625 
Q 46.96875 5.765625 41.375 2.390625 
Q 35.796875 -0.984375 28.46875 -0.984375 
Q 17.28125 -0.984375 10.5625 6.46875 
Q 3.859375 13.921875 3.859375 26.3125 
z
M 15.71875 25.875 
Q 15.71875 17.71875 19.09375 13.109375 
Q 22.46875 8.5 28.46875 8.5 
Q 34.46875 8.5 37.8125 13.1875 
Q 41.15625 17.875 41.15625 26.90625 
Q 41.15625 34.90625 37.71875 39.59375 
Q 34.28125 44.28125 28.375 44.28125 
Q 22.5625 44.28125 19.140625 39.671875 
Q 15.71875 35.0625 15.71875 25.875 
" id="Roboto-Medium-6f"/>
     <path d="M 33.734375 42 
Q 31.390625 42.390625 28.90625 42.390625 
Q 20.75 42.390625 17.921875 36.140625 
L 17.921875 0 
L 6.0625 0 
L 6.0625 52.828125 
L 17.390625 52.828125 
L 17.671875 46.921875 
Q 21.96875 53.8125 29.59375 53.8125 
Q 32.125 53.8125 33.796875 53.125 
z
" id="Roboto-Medium-72"/>
     <path d="M 24.5625 17 
L 35.296875 52.828125 
L 47.953125 52.828125 
L 26.953125 -8.015625 
Q 22.125 -21.34375 10.546875 -21.34375 
Q 7.953125 -21.34375 4.828125 -20.453125 
L 4.828125 -11.28125 
L 7.078125 -11.421875 
Q 11.578125 -11.421875 13.84375 -9.78125 
Q 16.109375 -8.15625 17.4375 -4.296875 
L 19.140625 0.25 
L 0.59375 52.828125 
L 13.375 52.828125 
z
" id="Roboto-Medium-79"/>
     <path id="Roboto-Medium-20"/>
     <path d="M 38.09375 5.171875 
Q 32.859375 -0.984375 23.25 -0.984375 
Q 14.65625 -0.984375 10.234375 4.046875 
Q 5.8125 9.078125 5.8125 18.609375 
L 5.8125 52.828125 
L 17.671875 52.828125 
L 17.671875 18.75 
Q 17.671875 8.6875 26.03125 8.6875 
Q 34.671875 8.6875 37.703125 14.890625 
L 37.703125 52.828125 
L 49.5625 52.828125 
L 49.5625 0 
L 38.375 0 
z
" id="Roboto-Medium-75"/>
     <path d="M 35.6875 14.359375 
Q 35.6875 17.53125 33.078125 19.1875 
Q 30.46875 20.84375 24.40625 22.109375 
Q 18.359375 23.390625 14.3125 25.34375 
Q 5.421875 29.640625 5.421875 37.796875 
Q 5.421875 44.625 11.171875 49.21875 
Q 16.9375 53.8125 25.828125 53.8125 
Q 35.296875 53.8125 41.125 49.125 
Q 46.96875 44.4375 46.96875 36.96875 
L 35.109375 36.96875 
Q 35.109375 40.375 32.5625 42.640625 
Q 30.03125 44.921875 25.828125 44.921875 
Q 21.921875 44.921875 19.453125 43.109375 
Q 17 41.3125 17 38.28125 
Q 17 35.546875 19.28125 34.03125 
Q 21.578125 32.515625 28.5625 30.96875 
Q 35.546875 29.4375 39.515625 27.3125 
Q 43.5 25.203125 45.421875 22.21875 
Q 47.359375 19.234375 47.359375 14.984375 
Q 47.359375 7.859375 41.453125 3.4375 
Q 35.546875 -0.984375 25.984375 -0.984375 
Q 19.484375 -0.984375 14.40625 1.359375 
Q 9.328125 3.71875 6.484375 7.8125 
Q 3.65625 11.921875 3.65625 16.65625 
L 15.1875 16.65625 
Q 15.4375 12.453125 18.359375 10.171875 
Q 21.296875 7.90625 26.125 7.90625 
Q 30.8125 7.90625 33.25 9.6875 
Q 35.6875 11.46875 35.6875 14.359375 
" id="Roboto-Medium-73"/>
     <path d="M 37.640625 0 
Q 36.859375 1.515625 36.28125 4.9375 
Q 30.609375 -0.984375 22.40625 -0.984375 
Q 14.453125 -0.984375 9.421875 3.5625 
Q 4.390625 8.109375 4.390625 14.796875 
Q 4.390625 23.25 10.65625 27.765625 
Q 16.9375 32.28125 28.609375 32.28125 
L 35.890625 32.28125 
L 35.890625 35.75 
Q 35.890625 39.84375 33.59375 42.3125 
Q 31.296875 44.78125 26.609375 44.78125 
Q 22.5625 44.78125 19.96875 42.75 
Q 17.390625 40.71875 17.390625 37.59375 
L 5.515625 37.59375 
Q 5.515625 41.9375 8.390625 45.71875 
Q 11.28125 49.515625 16.234375 51.65625 
Q 21.1875 53.8125 27.296875 53.8125 
Q 36.578125 53.8125 42.09375 49.140625 
Q 47.609375 44.484375 47.75 36.03125 
L 47.75 12.203125 
Q 47.75 5.078125 49.75 0.828125 
L 49.75 0 
z
M 24.609375 8.546875 
Q 28.125 8.546875 31.21875 10.25 
Q 34.328125 11.96875 35.890625 14.84375 
L 35.890625 24.8125 
L 29.5 24.8125 
Q 22.90625 24.8125 19.578125 22.515625 
Q 16.265625 20.21875 16.265625 16.015625 
Q 16.265625 12.59375 18.53125 10.5625 
Q 20.796875 8.546875 24.609375 8.546875 
" id="Roboto-Medium-61"/>
     <path d="M 4 26.8125 
Q 4 39.109375 9.78125 46.453125 
Q 15.578125 53.8125 25.140625 53.8125 
Q 34.1875 53.8125 39.359375 47.515625 
L 39.890625 52.828125 
L 50.59375 52.828125 
L 50.59375 1.609375 
Q 50.59375 -8.796875 44.109375 -14.796875 
Q 37.640625 -20.796875 26.65625 -20.796875 
Q 20.84375 -20.796875 15.296875 -18.375 
Q 9.765625 -15.96875 6.890625 -12.0625 
L 12.5 -4.9375 
Q 17.96875 -11.421875 25.984375 -11.421875 
Q 31.890625 -11.421875 35.296875 -8.21875 
Q 38.71875 -5.03125 38.71875 1.171875 
L 38.71875 4.734375 
Q 33.59375 -0.984375 25.046875 -0.984375 
Q 15.765625 -0.984375 9.875 6.390625 
Q 4 13.765625 4 26.8125 
M 15.828125 25.78125 
Q 15.828125 17.828125 19.0625 13.25 
Q 22.3125 8.6875 28.078125 8.6875 
Q 35.25 8.6875 38.71875 14.84375 
L 38.71875 38.09375 
Q 35.359375 44.09375 28.171875 44.09375 
Q 22.3125 44.09375 19.0625 39.453125 
Q 15.828125 34.8125 15.828125 25.78125 
" id="Roboto-Medium-67"/>
    </defs>
    <g transform="translate(106.534233 16.07625)scale(0.12 -0.12)">
     <use xlink:href="#Roboto-Medium-6d"/>
     <use x="87.011719" xlink:href="#Roboto-Medium-65"/>
     <use x="140.673828" xlink:href="#Roboto-Medium-6d"/>
     <use x="227.685547" xlink:href="#Roboto-Medium-6f"/>
     <use x="284.619141" xlink:href="#Roboto-Medium-72"/>
     <use x="319.775391" xlink:href="#Roboto-Medium-79"/>
     <use x="368.457031" xlink:href="#Roboto-Medium-20"/>
     <use x="393.359375" xlink:href="#Roboto-Medium-75"/>
     <use x="448.925781" xlink:href="#Roboto-Medium-73"/>
     <use x="500.537109" xlink:href="#Roboto-Medium-61"/>
     <use x="554.638672" xlink:href="#Roboto-Medium-67"/>
     <use x="611.328125" xlink:href="#Roboto-Medium-65"/>
    </g>
   </g>
   <g id="legend_1">
    <g id="PathCollection_9">
     <g>
      <use style="fill:#fdcab5;stroke:#fdcab5;stroke-width:0.5;" x="280.019688" xlink:href="#ma6b2f990c6" y="30.95125"/>
     </g>
    </g>
    <g id="text_12">
     <!-- /32, density 0.0005 -->
     <defs>
      <path d="M 6.78125 -6.109375 
L 1.46875 -6.109375 
L 31.15625 71.09375 
L 36.421875 71.09375 
z
" id="Roboto-Light-2f"/>
      <path d="M 19.671875 38.71875 
L 25.734375 38.71875 
Q 30.765625 38.71875 34.515625 40.5 
Q 38.28125 42.28125 40.25 45.375 
Q 42.234375 48.484375 42.234375 52.546875 
Q 42.234375 59.375 38.375 63.234375 
Q 34.515625 67.09375 27.296875 67.09375 
Q 20.453125 67.09375 16.078125 63.0625 
Q 11.71875 59.03125 11.71875 52.4375 
L 5.859375 52.4375 
Q 5.859375 57.953125 8.640625 62.515625 
Q 11.421875 67.09375 16.359375 69.578125 
Q 21.296875 72.078125 27.296875 72.078125 
Q 36.96875 72.078125 42.53125 66.796875 
Q 48.09375 61.53125 48.09375 52.34375 
Q 48.09375 47.21875 44.84375 42.890625 
Q 41.609375 38.578125 35.9375 36.421875 
Q 42.578125 34.578125 46 30.046875 
Q 49.421875 25.53125 49.421875 19.28125 
Q 49.421875 10.15625 43.453125 4.578125 
Q 37.5 -0.984375 27.546875 -0.984375 
Q 21.1875 -0.984375 15.890625 1.5625 
Q 10.59375 4.109375 7.6875 8.671875 
Q 4.78125 13.234375 4.78125 19.28125 
L 10.640625 19.28125 
Q 10.640625 12.5 15.375 8.21875 
Q 20.125 3.953125 27.546875 3.953125 
Q 35.109375 3.953125 39.328125 7.828125 
Q 43.5625 11.71875 43.5625 19.09375 
Q 43.5625 26.21875 38.984375 29.96875 
Q 34.421875 33.734375 25.53125 33.734375 
L 19.671875 33.734375 
z
" id="Roboto-Light-33"/>
      <path d="M 6.390625 -13.28125 
L 2.9375 -10.75 
Q 7.375 -4.78125 7.515625 1.609375 
L 7.515625 9.1875 
L 13.234375 9.1875 
L 13.234375 3.078125 
Q 13.234375 -7.078125 6.390625 -13.28125 
" id="Roboto-Light-2c"/>
      <path d="M 5.28125 26.90625 
Q 5.28125 39.203125 10.765625 46.5 
Q 16.265625 53.8125 25.6875 53.8125 
Q 36.375 53.8125 42 45.359375 
L 42 75 
L 47.796875 75 
L 47.796875 0 
L 42.328125 0 
L 42.09375 7.03125 
Q 36.46875 -0.984375 25.59375 -0.984375 
Q 16.453125 -0.984375 10.859375 6.359375 
Q 5.28125 13.71875 5.28125 26.21875 
z
M 11.1875 25.875 
Q 11.1875 15.765625 15.234375 9.9375 
Q 19.28125 4.109375 26.65625 4.109375 
Q 37.453125 4.109375 42 13.625 
L 42 38.421875 
Q 37.453125 48.734375 26.765625 48.734375 
Q 19.390625 48.734375 15.28125 42.9375 
Q 11.1875 37.15625 11.1875 25.875 
" id="Roboto-Light-64"/>
      <path d="M 28.078125 -0.984375 
Q 21.34375 -0.984375 15.890625 2.34375 
Q 10.453125 5.671875 7.421875 11.59375 
Q 4.390625 17.53125 4.390625 24.90625 
L 4.390625 27 
Q 4.390625 34.625 7.34375 40.71875 
Q 10.296875 46.828125 15.5625 50.3125 
Q 20.84375 53.8125 27 53.8125 
Q 36.625 53.8125 42.265625 47.234375 
Q 47.90625 40.671875 47.90625 29.296875 
L 47.90625 26.03125 
L 10.203125 26.03125 
L 10.203125 24.90625 
Q 10.203125 15.921875 15.359375 9.9375 
Q 20.515625 3.953125 28.328125 3.953125 
Q 33.015625 3.953125 36.59375 5.65625 
Q 40.1875 7.375 43.109375 11.140625 
L 46.78125 8.34375 
Q 40.328125 -0.984375 28.078125 -0.984375 
M 27 48.828125 
Q 20.40625 48.828125 15.890625 43.984375 
Q 11.375 39.15625 10.40625 31 
L 42.09375 31 
L 42.09375 31.640625 
Q 41.84375 39.265625 37.734375 44.046875 
Q 33.640625 48.828125 27 48.828125 
" id="Roboto-Light-65"/>
      <path d="M 13.1875 52.828125 
L 13.375 43.796875 
Q 16.359375 48.6875 20.796875 51.25 
Q 25.25 53.8125 30.609375 53.8125 
Q 39.109375 53.8125 43.25 49.015625 
Q 47.40625 44.234375 47.46875 34.671875 
L 47.46875 0 
L 41.65625 0 
L 41.65625 34.71875 
Q 41.609375 41.796875 38.640625 45.265625 
Q 35.6875 48.734375 29.203125 48.734375 
Q 23.78125 48.734375 19.609375 45.328125 
Q 15.4375 41.9375 13.421875 36.1875 
L 13.421875 0 
L 7.625 0 
L 7.625 52.828125 
z
" id="Roboto-Light-6e"/>
      <path d="M 39.265625 13.421875 
Q 39.265625 17.78125 35.765625 20.40625 
Q 32.28125 23.046875 25.25 24.53125 
Q 18.21875 26.03125 14.328125 27.953125 
Q 10.453125 29.890625 8.5625 32.671875 
Q 6.6875 35.453125 6.6875 39.40625 
Q 6.6875 45.65625 11.90625 49.734375 
Q 17.140625 53.8125 25.296875 53.8125 
Q 34.125 53.8125 39.46875 49.4375 
Q 44.828125 45.0625 44.828125 38.03125 
L 38.96875 38.03125 
Q 38.96875 42.671875 35.078125 45.75 
Q 31.203125 48.828125 25.296875 48.828125 
Q 19.53125 48.828125 16.03125 46.265625 
Q 12.546875 43.703125 12.546875 39.59375 
Q 12.546875 35.640625 15.453125 33.46875 
Q 18.359375 31.296875 26.046875 29.484375 
Q 33.734375 27.6875 37.5625 25.625 
Q 41.40625 23.578125 43.265625 20.703125 
Q 45.125 17.828125 45.125 13.71875 
Q 45.125 7.03125 39.71875 3.015625 
Q 34.328125 -0.984375 25.640625 -0.984375 
Q 16.40625 -0.984375 10.671875 3.484375 
Q 4.9375 7.953125 4.9375 14.796875 
L 10.796875 14.796875 
Q 11.140625 9.671875 15.109375 6.8125 
Q 19.09375 3.953125 25.640625 3.953125 
Q 31.734375 3.953125 35.5 6.640625 
Q 39.265625 9.328125 39.265625 13.421875 
" id="Roboto-Light-73"/>
      <path d="M 16.703125 66.359375 
L 16.703125 52.828125 
L 27.640625 52.828125 
L 27.640625 48.046875 
L 16.703125 48.046875 
L 16.703125 12.84375 
Q 16.703125 8.453125 18.28125 6.296875 
Q 19.875 4.15625 23.578125 4.15625 
Q 25.046875 4.15625 28.328125 4.640625 
L 28.5625 -0.140625 
Q 26.265625 -0.984375 22.3125 -0.984375 
Q 16.3125 -0.984375 13.578125 2.5 
Q 10.84375 6 10.84375 12.796875 
L 10.84375 48.046875 
L 1.125 48.046875 
L 1.125 52.828125 
L 10.84375 52.828125 
L 10.84375 66.359375 
z
" id="Roboto-Light-74"/>
      <path d="M 24.359375 8.40625 
L 39.796875 52.828125 
L 46.09375 52.828125 
L 23.53125 -8.984375 
L 22.359375 -11.71875 
Q 18.015625 -21.34375 8.9375 -21.34375 
Q 6.84375 -21.34375 4.4375 -20.65625 
L 4.390625 -15.828125 
L 7.421875 -16.109375 
Q 11.71875 -16.109375 14.375 -13.984375 
Q 17.046875 -11.859375 18.890625 -6.6875 
L 21.484375 0.4375 
L 1.5625 52.828125 
L 7.953125 52.828125 
z
" id="Roboto-Light-79"/>
      <path d="M 7.078125 3.515625 
Q 7.078125 5.21875 8.171875 6.421875 
Q 9.28125 7.625 11.234375 7.625 
Q 13.1875 7.625 14.3125 6.421875 
Q 15.4375 5.21875 15.4375 3.515625 
Q 15.4375 1.8125 14.3125 0.703125 
Q 13.1875 -0.390625 11.234375 -0.390625 
Q 9.28125 -0.390625 8.171875 0.703125 
Q 7.078125 1.8125 7.078125 3.515625 
" id="Roboto-Light-2e"/>
     </defs>
     <g transform="translate(298.019688 33.57625)scale(0.1 -0.1)">
      <use xlink:href="#Roboto-Light-2f"/>
      <use x="39.697266" xlink:href="#Roboto-Light-33"/>
      <use x="95.117188" xlink:href="#Roboto-Light-32"/>
      <use x="150.537109" xlink:href="#Roboto-Light-2c"/>
      <use x="169.677734" xlink:href="#Roboto-Light-20"/>
      <use x="193.994141" xlink:href="#Roboto-Light-64"/>
      <use x="249.560547" xlink:href="#Roboto-Light-65"/>
      <use x="301.220703" xlink:href="#Roboto-Light-6e"/>
      <use x="356.152344" xlink:href="#Roboto-Light-73"/>
      <use x="406.787109" xlink:href="#Roboto-Light-69"/>
      <use x="429.199219" xlink:href="#Roboto-Light-74"/>
      <use x="461.328125" xlink:href="#Roboto-Light-79"/>
      <use x="508.837891" xlink:href="#Roboto-Light-20"/>
      <use x="533.154297" xlink:href="#Roboto-Light-30"/>
      <use x="588.574219" xlink:href="#Roboto-Light-2e"/>
      <use x="612.451172" xlink:href="#Roboto-Light-30"/>
      <use x="667.871094" xlink:href="#Roboto-Light-30"/>
      <use x="723.291016" xlink:href="#Roboto-Light-30"/>
      <use x="778.710938" xlink:href="#Roboto-Light-35"/>
     </g>
    </g>
    <g id="PathCollection_10">
     <g>
      <use style="fill:#fca082;stroke:#fca082;stroke-width:0.5;" x="280.019688" xlink:href="#m8a9ec44b0a" y="45.585625"/>
     </g>
    </g>
    <g id="text_13">
     <!-- /32, density 0.001 -->
     <g transform="translate(298.019688 48.210625)scale(0.1 -0.1)">
      <use xlink:href="#Roboto-Light-2f"/>
      <use x="39.697266" xlink:href="#Roboto-Light-33"/>
      <use x="95.117188" xlink:href="#Roboto-Light-32"/>
      <use x="150.537109" xlink:href="#Roboto-Light-2c"/>
      <use x="169.677734" xlink:href="#Roboto-Light-20"/>
      <use x="193.994141" xlink:href="#Roboto-Light-64"/>
      <use x="249.560547" xlink:href="#Roboto-Light-65"/>
      <use x="301.220703" xlink:href="#Roboto-Light-6e"/>
      <use x="356.152344" xlink:href="#Roboto-Light-73"/>
      <use x="406.787109" xlink:href="#Roboto-Light-69"/>
      <use x="429.199219" xlink:href="#Roboto-Light-74"/>
      <use x="461.328125" xlink:href="#Roboto-Light-79"/>
      <use x="508.837891" xlink:href="#Roboto-Light-20"/>
      <use x="533.154297" xlink:href="#Roboto-Light-30"/>
      <use x="588.574219" xlink:href="#Roboto-Light-2e"/>
      <use x="612.451172" xlink:href="#Roboto-Light-30"/>
      <use x="667.871094" xlink:href="#Roboto-Light-30"/>
      <use x="723.291016" xlink:href="#Roboto-Light-31"/>
     </g>
    </g>
    <g id="PathCollection_11">
     <g>
      <use style="fill:#fb7555;stroke:#fb7555;stroke-width:0.5;" x="280.019688" xlink:href="#m11c502eefe" y="60.22"/>
     </g>
    </g>
    <g id="text_14">
     <!-- /32, density 0.01 -->
     <g transform="translate(298.019688 62.845)scale(0.1 -0.1)">
      <use xlink:href="#Roboto-Light-2f"/>
      <use x="39.697266" xlink:href="#Roboto-Light-33"/>
      <use x="95.117188" xlink:href="#Roboto-Light-32"/>
      <use x="150.537109" xlink:href="#Roboto-Light-2c"/>
      <use x="169.677734" xlink:href="#Roboto-Light-20"/>
      <use x="193.994141" xlink:href="#Roboto-Light-64"/>
      <use x="249.560547" xlink:href="#Roboto-Light-65"/>
      <use x="301.220703" xlink:href="#Roboto-Light-6e"/>
      <use x="356.152344" xlink:href="#Roboto-Light-73"/>
      <use x="406.787109" xlink:href="#Roboto-Light-69"/>
      <use x="429.199219" xlink:href="#Roboto-Light-74"/>
      <use x="461.328125" xlink:href="#Roboto-Light-79"/>
      <use x="508.837891" xlink:href="#Roboto-Light-20"/>
      <use x="533.154297" xlink:href="#Roboto-Light-30"/>
      <use x="588.574219" xlink:href="#Roboto-Light-2e"/>
      <use x="612.451172" xlink:href="#Roboto-Light-30"/>
      <use x="667.871094" xlink:href="#Roboto-Light-31"/>
     </g>
    </g>
    <g id="PathCollection_12">
     <g>
      <use style="fill:#f14432;stroke:#f14432;stroke-width:0.5;" x="280.019688" xlink:href="#m2f3bf59aa6" y="74.854375"/>
     </g>
    </g>
    <g id="text_15">
     <!-- /32, density 0.05 -->
     <g transform="translate(298.019688 77.479375)scale(0.1 -0.1)">
      <use xlink:href="#Roboto-Light-2f"/>
      <use x="39.697266" xlink:href="#Roboto-Light-33"/>
      <use x="95.117188" xlink:href="#Roboto-Light-32"/>
      <use x="150.537109" xlink:href="#Roboto-Light-2c"/>
      <use x="169.677734" xlink:href="#Roboto-Light-20"/>
      <use x="193.994141" xlink:href="#Roboto-Light-64"/>
      <use x="249.560547" xlink:href="#Roboto-Light-65"/>
      <use x="301.220703" xlink:href="#Roboto-Light-6e"/>
      <use x="356.152344" xlink:href="#Roboto-Light-73"/>
      <use x="406.787109" xlink:href="#Roboto-Light-69"/>
      <use x="429.199219" xlink:href="#Roboto-Light-74"/>
      <use x="461.328125" xlink:href="#Roboto-Light-79"/>
      <use x="508.837891" xlink:href="#Roboto-Light-20"/>
      <use x="533.154297" xlink:href="#Roboto-Light-30"/>
      <use x="588.574219" xlink:href="#Roboto-Light-2e"/>
      <use x="612.451172" xlink:href="#Roboto-Light-30"/>
      <use x="667.871094" xlink:href="#Roboto-Light-35"/>
     </g>
    </g>
    <g id="PathCollection_13">
     <g>
      <use style="fill:#d01d1f;stroke:#d01d1f;stroke-width:0.5;" x="280.019688" xlink:href="#m8e455466d8" y="89.48875"/>
     </g>
    </g>
    <g id="text_16">
     <!-- /32, density 0.1 -->
     <g transform="translate(298.019688 92.11375)scale(0.1 -0.1)">
      <use xlink:href="#Roboto-Light-2f"/>
      <use x="39.697266" xlink:href="#Roboto-Light-33"/>
      <use x="95.117188" xlink:href="#Roboto-Light-32"/>
      <use x="150.537109" xlink:href="#Roboto-Light-2c"/>
      <use x="169.677734" xlink:href="#Roboto-Light-20"/>
      <use x="193.994141" xlink:href="#Roboto-Light-64"/>
      <use x="249.560547" xlink:href="#Roboto-Light-65"/>
      <use x="301.220703" xlink:href="#Roboto-Light-6e"/>
      <use x="356.152344" xlink:href="#Roboto-Light-73"/>
      <use x="406.787109" xlink:href="#Roboto-Light-69"/>
      <use x="429.199219" xlink:href="#Roboto-Light-74"/>
      <use x="461.328125" xlink:href="#Roboto-Light-79"/>
      <use x="508.837891" xlink:href="#Roboto-Light-20"/>
      <use x="533.154297" xlink:href="#Roboto-Light-30"/>
      <use x="588.574219" xlink:href="#Roboto-Light-2e"/>
      <use x="612.451172" xlink:href="#Roboto-Light-31"/>
     </g>
    </g>
    <g id="PathCollection_14">
     <g>
      <use style="fill:#a81016;stroke:#a81016;stroke-width:0.5;" x="280.019688" xlink:href="#m89605f8a60" y="104.123125"/>
     </g>
    </g>
    <g id="text_17">
     <!-- /32, density 0.5 -->
     <g transform="translate(298.019688 106.748125)scale(0.1 -0.1)">
      <use xlink:href="#Roboto-Light-2f"/>
      <use x="39.697266" xlink:href="#Roboto-Light-33"/>
      <use x="95.117188" xlink:href="#Roboto-Light-32"/>
      <use x="150.537109" xlink:href="#Roboto-Light-2c"/>
      <use x="169.677734" xlink:href="#Roboto-Light-20"/>
      <use x="193.994141" xlink:href="#Roboto-Light-64"/>
      <use x="249.560547" xlink:href="#Roboto-Light-65"/>
      <use x="301.220703" xlink:href="#Roboto-Light-6e"/>
      <use x="356.152344" xlink:href="#Roboto-Light-73"/>
      <use x="406.787109" xlink:href="#Roboto-Light-69"/>
      <use x="429.199219" xlink:href="#Roboto-Light-74"/>
      <use x="461.328125" xlink:href="#Roboto-Light-79"/>
      <use x="508.837891" xlink:href="#Roboto-Light-20"/>
      <use x="533.154297" xlink:href="#Roboto-Light-30"/>
      <use x="588.574219" xlink:href="#Roboto-Light-2e"/>
      <use x="612.451172" xlink:href="#Roboto-Light-35"/>
     </g>
    </g>
    <g id="PathCollection_15">
     <g>
      <use style="fill:#67000d;stroke:#67000d;stroke-width:0.5;" x="280.019688" xlink:href="#mcc18bb74f0" y="118.7575"/>
     </g>
    </g>
    <g id="text_18">
     <!-- /32, density 1.0 -->
     <g transform="translate(298.019688 121.3825)scale(0.1 -0.1)">
      <use xlink:href="#Roboto-Light-2f"/>
      <use x="39.697266" xlink:href="#Roboto-Light-33"/>
      <use x="95.117188" xlink:href="#Roboto-Light-32"/>
      <use x="150.537109" xlink:href="#Roboto-Light-2c"/>
      <use x="169.677734" xlink:href="#Roboto-Light-20"/>
      <use x="193.994141" xlink:href="#Roboto-Light-64"/>
      <use x="249.560547" xlink:href="#Roboto-Light-65"/>
      <use x="301.220703" xlink:href="#Roboto-Light-6e"/>
      <use x="356.152344" xlink:href="#Roboto-Light-73"/>
      <use x="406.787109" xlink:href="#Roboto-Light-69"/>
      <use x="429.199219" xlink:href="#Roboto-Light-74"/>
      <use x="461.328125" xlink:href="#Roboto-Light-79"/>
      <use x="508.837891" xlink:href="#Roboto-Light-20"/>
      <use x="533.154297" xlink:href="#Roboto-Light-31"/>
      <use x="588.574219" xlink:href="#Roboto-Light-2e"/>
      <use x="612.451172" xlink:href="#Roboto-Light-30"/>
     </g>
    </g>
    <g id="PathCollection_16">
     <g>
      <use style="fill:#0000ff;stroke:#0000ff;stroke-width:0.5;" x="280.019688" xlink:href="#mc72baf2f42" y="133.391875"/>
     </g>
    </g>
    <g id="text_19">
     <!-- from full view -->
     <defs>
      <path d="M 11.8125 0 
L 11.8125 48.046875 
L 3.078125 48.046875 
L 3.078125 52.828125 
L 11.8125 52.828125 
L 11.8125 59.234375 
Q 11.8125 67.328125 15.9375 71.671875 
Q 20.0625 76.03125 27.4375 76.03125 
Q 30.765625 76.03125 33.640625 75.203125 
L 33.203125 70.3125 
Q 30.765625 70.90625 27.875 70.90625 
Q 23.046875 70.90625 20.359375 67.890625 
Q 17.671875 64.890625 17.671875 59.375 
L 17.671875 52.828125 
L 30.28125 52.828125 
L 30.28125 48.046875 
L 17.671875 48.046875 
L 17.671875 0 
z
" id="Roboto-Light-66"/>
      <path d="M 32.03125 47.859375 
Q 30.171875 48.1875 28.078125 48.1875 
Q 22.609375 48.1875 18.828125 45.140625 
Q 15.046875 42.09375 13.421875 36.28125 
L 13.421875 0 
L 7.625 0 
L 7.625 52.828125 
L 13.328125 52.828125 
L 13.421875 44.4375 
Q 18.0625 53.8125 28.328125 53.8125 
Q 30.765625 53.8125 32.171875 53.171875 
z
" id="Roboto-Light-72"/>
      <path d="M 4.390625 27.203125 
Q 4.390625 34.8125 7.34375 40.90625 
Q 10.296875 47.015625 15.6875 50.40625 
Q 21.09375 53.8125 27.9375 53.8125 
Q 38.484375 53.8125 45.015625 46.40625 
Q 51.5625 39.015625 51.5625 26.8125 
L 51.5625 25.59375 
Q 51.5625 17.921875 48.609375 11.796875 
Q 45.65625 5.671875 40.28125 2.34375 
Q 34.90625 -0.984375 28.03125 -0.984375 
Q 17.53125 -0.984375 10.953125 6.40625 
Q 4.390625 13.8125 4.390625 26.03125 
z
M 10.25 25.59375 
Q 10.25 16.109375 15.15625 10.03125 
Q 20.0625 3.953125 28.03125 3.953125 
Q 35.9375 3.953125 40.84375 10.03125 
Q 45.75 16.109375 45.75 26.078125 
L 45.75 27.203125 
Q 45.75 33.25 43.5 38.28125 
Q 41.265625 43.3125 37.203125 46.0625 
Q 33.15625 48.828125 27.9375 48.828125 
Q 20.125 48.828125 15.1875 42.703125 
Q 10.25 36.578125 10.25 26.65625 
z
" id="Roboto-Light-6f"/>
      <path d="M 12.9375 52.828125 
L 13.140625 44.234375 
Q 16.0625 49.03125 20.453125 51.421875 
Q 24.859375 53.8125 30.21875 53.8125 
Q 42.71875 53.8125 46.09375 43.5625 
Q 48.921875 48.484375 53.65625 51.140625 
Q 58.40625 53.8125 64.109375 53.8125 
Q 81.109375 53.8125 81.453125 35.25 
L 81.453125 0 
L 75.59375 0 
L 75.59375 34.8125 
Q 75.53125 41.890625 72.53125 45.3125 
Q 69.53125 48.734375 62.75 48.734375 
Q 56.453125 48.640625 52.09375 44.65625 
Q 47.75 40.671875 47.265625 34.96875 
L 47.265625 0 
L 41.40625 0 
L 41.40625 35.25 
Q 41.359375 42.046875 38.203125 45.390625 
Q 35.0625 48.734375 28.515625 48.734375 
Q 23 48.734375 19.046875 45.578125 
Q 15.09375 42.4375 13.1875 36.234375 
L 13.1875 0 
L 7.328125 0 
L 7.328125 52.828125 
z
" id="Roboto-Light-6d"/>
      <path d="M 41.609375 6.6875 
Q 36.328125 -0.984375 24.75 -0.984375 
Q 16.3125 -0.984375 11.90625 3.921875 
Q 7.515625 8.84375 7.421875 18.453125 
L 7.421875 52.828125 
L 13.234375 52.828125 
L 13.234375 19.1875 
Q 13.234375 4.109375 25.4375 4.109375 
Q 38.140625 4.109375 41.5 14.59375 
L 41.5 52.828125 
L 47.359375 52.828125 
L 47.359375 0 
L 41.703125 0 
z
" id="Roboto-Light-75"/>
      <path d="M 14.15625 0 
L 8.296875 0 
L 8.296875 75 
L 14.15625 75 
z
" id="Roboto-Light-6c"/>
      <path d="M 24.078125 8.0625 
L 40.140625 52.828125 
L 46.140625 52.828125 
L 26.421875 0 
L 21.6875 0 
L 1.859375 52.828125 
L 7.859375 52.828125 
z
" id="Roboto-Light-76"/>
      <path d="M 20.265625 12.15625 
L 21.140625 7.625 
L 22.3125 12.40625 
L 35.015625 52.828125 
L 39.984375 52.828125 
L 52.546875 12.75 
L 53.90625 7.171875 
L 55.03125 12.3125 
L 65.875 52.828125 
L 71.921875 52.828125 
L 56.546875 0 
L 51.5625 0 
L 37.984375 41.890625 
L 37.359375 44.78125 
L 36.71875 41.84375 
L 23.390625 0 
L 18.40625 0 
L 3.078125 52.828125 
L 9.078125 52.828125 
z
" id="Roboto-Light-77"/>
     </defs>
     <g transform="translate(298.019688 136.016875)scale(0.1 -0.1)">
      <use xlink:href="#Roboto-Light-66"/>
      <use x="33.105469" xlink:href="#Roboto-Light-72"/>
      <use x="66.748047" xlink:href="#Roboto-Light-6f"/>
      <use x="122.753906" xlink:href="#Roboto-Light-6d"/>
      <use x="211.376953" xlink:href="#Roboto-Light-20"/>
      <use x="235.693359" xlink:href="#Roboto-Light-66"/>
      <use x="268.798828" xlink:href="#Roboto-Light-75"/>
      <use x="323.730469" xlink:href="#Roboto-Light-6c"/>
      <use x="346.142578" xlink:href="#Roboto-Light-6c"/>
      <use x="368.554688" xlink:href="#Roboto-Light-20"/>
      <use x="392.871094" xlink:href="#Roboto-Light-76"/>
      <use x="440.966797" xlink:href="#Roboto-Light-69"/>
      <use x="463.378906" xlink:href="#Roboto-Light-65"/>
      <use x="515.039062" xlink:href="#Roboto-Light-77"/>
     </g>
    </g>
   </g>
  </g>
 </g>
 <defs>
  <clipPath id="p85881fcd7a">
   <rect height="174.96" width="199.309091" x="46.779688" y="22.07625"/>
  </clipPath>
 </defs>
</svg>
