<?xml version="1.0" encoding="UTF-8" standalone="no"?>
<!-- Created with Inkscape (http://www.inkscape.org/) -->

<svg
   xmlns:dc="http://purl.org/dc/elements/1.1/"
   xmlns:cc="http://creativecommons.org/ns#"
   xmlns:rdf="http://www.w3.org/1999/02/22-rdf-syntax-ns#"
   xmlns:svg="http://www.w3.org/2000/svg"
   xmlns="http://www.w3.org/2000/svg"
   xmlns:xlink="http://www.w3.org/1999/xlink"
   xmlns:sodipodi="http://sodipodi.sourceforge.net/DTD/sodipodi-0.dtd"
   xmlns:inkscape="http://www.inkscape.org/namespaces/inkscape"
   width="843.60004"
   height="496.05679"
   id="svg2"
   version="1.1"
   inkscape:version="0.92.3 (2405546, 2018-03-11)"
   sodipodi:docname="lab.svg"
   inkscape:export-filename="/home/bernat/code/perso/www.luffy.cx/content/media/images/vxlan/multicast-native.png"
   inkscape:export-xdpi="36.425449"
   inkscape:export-ydpi="36.425449"
   viewBox="0 0 1265.4001 744.08519">
  <defs
     id="defs4">
    <inkscape:path-effect
       effect="spiro"
       id="path-effect6084"
       is_visible="true" />
    <inkscape:path-effect
       is_visible="true"
       id="path-effect6052"
       effect="spiro" />
    <inkscape:path-effect
       effect="spiro"
       id="path-effect6016"
       is_visible="true" />
    <inkscape:path-effect
       effect="spiro"
       id="path-effect5939"
       is_visible="true" />
    <inkscape:path-effect
       effect="spiro"
       id="path-effect5918"
       is_visible="true" />
    <inkscape:path-effect
       is_visible="true"
       id="path-effect5884"
       effect="spiro" />
    <inkscape:path-effect
       effect="spiro"
       id="path-effect5849"
       is_visible="true" />
    <inkscape:path-effect
       effect="spiro"
       id="path-effect5790"
       is_visible="true" />
    <inkscape:path-effect
       effect="spiro"
       id="path-effect5753"
       is_visible="true" />
    <inkscape:path-effect
       effect="spiro"
       id="path-effect5540"
       is_visible="true" />
    <inkscape:path-effect
       effect="spiro"
       id="path-effect5480"
       is_visible="true" />
    <inkscape:path-effect
       effect="spiro"
       id="path-effect5442"
       is_visible="true" />
    <marker
       inkscape:stockid="Arrow1Send"
       orient="auto"
       refY="0"
       refX="0"
       id="Arrow1Send"
       style="overflow:visible">
      <path
         id="path4813"
         d="M 0,0 5,-5 -12.5,0 5,5 Z"
         style="fill-rule:evenodd;stroke:#000000;stroke-width:1.00000003pt"
         transform="matrix(-0.2,0,0,-0.2,-1.2,0)"
         inkscape:connector-curvature="0" />
    </marker>
    <inkscape:path-effect
       effect="spiro"
       id="path-effect4769"
       is_visible="true" />
    <marker
       inkscape:stockid="Arrow1Lstart"
       orient="auto"
       refY="0"
       refX="0"
       id="Arrow1Lstart"
       style="overflow:visible">
      <path
         id="path4128"
         d="M 0,0 5,-5 -12.5,0 5,5 Z"
         style="fill-rule:evenodd;stroke:#000000;stroke-width:1.00000003pt"
         transform="matrix(0.8,0,0,0.8,10,0)"
         inkscape:connector-curvature="0" />
    </marker>
    <linearGradient
       id="linearGradient12001">
      <stop
         id="stop12003"
         offset="0"
         style="stop-color:#1b4a78;stop-opacity:1;" />
      <stop
         id="stop12005"
         offset="1"
         style="stop-color:#5dacd1;stop-opacity:1;" />
    </linearGradient>
    <linearGradient
       id="linearGradient12828">
      <stop
         style="stop-color:#484849;stop-opacity:1;"
         offset="0"
         id="stop12830" />
      <stop
         id="stop12862"
         offset="0"
         style="stop-color:#434344;stop-opacity:1;" />
      <stop
         style="stop-color:#8f8f90;stop-opacity:0.0000000;"
         offset="1.0000000"
         id="stop12832" />
    </linearGradient>
    <marker
       inkscape:stockid="Arrow1Send"
       orient="auto"
       refY="0"
       refX="0"
       id="Arrow1Send-6"
       style="overflow:visible">
      <path
         inkscape:connector-curvature="0"
         id="path4813-2"
         d="M 0,0 5,-5 -12.5,0 5,5 Z"
         style="fill-rule:evenodd;stroke:#000000;stroke-width:1.00000003pt"
         transform="matrix(-0.2,0,0,-0.2,-1.2,0)" />
    </marker>
    <radialGradient
       inkscape:collect="always"
       xlink:href="#linearGradient12828"
       id="radialGradient1325"
       gradientUnits="userSpaceOnUse"
       gradientTransform="matrix(1,0,0,0.177184,0,495.9268)"
       cx="328.57144"
       cy="602.7193"
       fx="328.57144"
       fy="602.7193"
       r="147.14285" />
    <linearGradient
       inkscape:collect="always"
       xlink:href="#linearGradient12001"
       id="linearGradient1327"
       gradientUnits="userSpaceOnUse"
       gradientTransform="matrix(0.471308,0,0,0.471308,118.8781,123.5182)"
       x1="175.71875"
       y1="737.01562"
       x2="470.00089"
       y2="737.01562" />
  </defs>
  <sodipodi:namedview
     id="base"
     pagecolor="#ffffff"
     bordercolor="#666666"
     borderopacity="1.0"
     inkscape:pageopacity="0.0"
     inkscape:pageshadow="2"
     inkscape:zoom="1"
     inkscape:cx="670.29103"
     inkscape:cy="57.9074"
     inkscape:document-units="px"
     inkscape:current-layer="layer3"
     showgrid="false"
     inkscape:window-width="2552"
     inkscape:window-height="1408"
     inkscape:window-x="0"
     inkscape:window-y="24"
     inkscape:window-maximized="0"
     fit-margin-top="30"
     fit-margin-left="30"
     fit-margin-right="30"
     fit-margin-bottom="30"
     scale-x="1.5" />
  <metadata
     id="metadata7">
    <rdf:RDF>
      <cc:Work
         rdf:about="">
        <dc:format>image/svg+xml</dc:format>
        <dc:type
           rdf:resource="http://purl.org/dc/dcmitype/StillImage" />
        <dc:title></dc:title>
      </cc:Work>
    </rdf:RDF>
  </metadata>
  <g
     inkscape:label="Topology"
     inkscape:groupmode="layer"
     id="layer1"
     transform="translate(293.14118,670.48567)"
     style="display:inline">
    <path
       sodipodi:nodetypes="cc"
       style="fill:none;stroke:#000000;stroke-width:1.93961334px;stroke-linecap:butt;stroke-linejoin:miter;stroke-opacity:1"
       d="M 405.72622,-236.11932 H 257.51097"
       id="path3415"
       inkscape:connector-curvature="0" />
    <path
       inkscape:connector-curvature="0"
       id="path3411"
       d="m 424.9064,-251.41436 -80,-132.29434"
       style="fill:none;stroke:#000000;stroke-width:1.93961346px;stroke-linecap:butt;stroke-linejoin:miter;stroke-opacity:1"
       sodipodi:nodetypes="cc" />
    <path
       sodipodi:nodetypes="cc"
       style="fill:none;stroke:#000000;stroke-width:1.94000006;stroke-linecap:butt;stroke-linejoin:miter;stroke-miterlimit:4;stroke-dasharray:5.82, 1.94;stroke-dashoffset:0;stroke-opacity:1"
       d="m 339.65095,-623.68782 v 67.70855"
       id="path4070"
       inkscape:connector-curvature="0" />
    <path
       inkscape:connector-curvature="0"
       id="path4068"
       d="M 915.50523,-131.83354 H 847.79668"
       style="fill:none;stroke:#000000;stroke-width:1.94000006;stroke-linecap:butt;stroke-linejoin:miter;stroke-miterlimit:4;stroke-dasharray:5.82, 1.94;stroke-dashoffset:0;stroke-opacity:1"
       sodipodi:nodetypes="cc" />
    <path
       sodipodi:nodetypes="cc"
       style="fill:none;stroke:#000000;stroke-width:1.94000018;stroke-linecap:butt;stroke-linejoin:miter;stroke-miterlimit:4;stroke-dasharray:5.82000012, 1.94000004;stroke-dashoffset:0;stroke-opacity:1"
       d="m -160.49478,-131.83354 h -73.34325"
       id="path3294"
       inkscape:connector-curvature="0" />
    <path
       sodipodi:nodetypes="cc"
       style="fill:none;stroke:#000000;stroke-width:1.93961334px;stroke-linecap:butt;stroke-linejoin:miter;stroke-opacity:1"
       d="m 338.9064,-525.02697 v 83.32342"
       id="path3292"
       inkscape:connector-curvature="0" />
    <path
       sodipodi:nodetypes="cc"
       style="fill:none;stroke:#000000;stroke-width:1.93961346px;stroke-linecap:butt;stroke-linejoin:miter;stroke-opacity:1"
       d="M 343.47783,-74.271503 424.9064,-207.99441"
       id="path3286"
       inkscape:connector-curvature="0" />
    <path
       inkscape:connector-curvature="0"
       id="path3284"
       d="M 335.47783,-72.842931 256.9064,-199.46623"
       style="fill:none;stroke:#000000;stroke-width:1.93961334px;stroke-linecap:butt;stroke-linejoin:miter;stroke-opacity:1"
       sodipodi:nodetypes="cc" />
    <path
       inkscape:connector-curvature="0"
       id="path3282"
       d="M 796.09448,-131.83354 H 674.58101"
       style="fill:none;stroke:#000000;stroke-width:1.93961322px;stroke-linecap:butt;stroke-linejoin:miter;stroke-opacity:1"
       sodipodi:nodetypes="cc" />
    <path
       inkscape:connector-curvature="0"
       id="path3278"
       d="M 603.52309,-136.11925 429.73613,-231.83354"
       style="fill:none;stroke:#000000;stroke-width:1.93961334px;stroke-linecap:butt;stroke-linejoin:miter;stroke-opacity:1"
       sodipodi:nodetypes="cc" />
    <path
       inkscape:connector-curvature="0"
       id="path3272"
       d="M 60.011936,-131.83354 H -88.203318"
       style="fill:none;stroke:#000000;stroke-width:1.93961334px;stroke-linecap:butt;stroke-linejoin:miter;stroke-opacity:1"
       sodipodi:nodetypes="cc" />
    <g
       id="layer1-7"
       inkscape:label="Capa 1"
       transform="matrix(0.78202748,0,0,0.78202748,-199.69472,-201.96142)">
      <g
         transform="translate(-168.5715,-361.4285)"
         id="g13678">
        <ellipse
           style="fill:url(#radialGradient1325);fill-opacity:1;stroke:none"
           id="path13641"
           transform="matrix(0.592567,0,0,1.045917,75.12109,-130.213)"
           cx="328.57144"
           cy="602.7193"
           rx="147.14285"
           ry="26.071428" />
        <path
           style="fill:url(#linearGradient1327);fill-opacity:1;stroke:none"
           d="m 201.71286,435.70728 v 0.29457 c 0.006,-0.0975 0.0206,-0.19729 0.0295,-0.29457 z m 138.62351,0 c 0.0302,0.33044 0.0589,0.66821 0.0589,1.00153 v -1.00153 z m 0.0589,1.00153 c -10e-6,15.05224 -31.07495,27.26223 -69.35594,27.26223 -37.68286,10e-6 -68.3765,-11.82771 -69.32649,-26.55527 v 40.67979 c -0.0151,0.23376 -0.0147,0.45704 -0.0147,0.69223 0,0.22546 8.7e-4,0.45335 0.0147,0.67751 0.91151,14.74102 31.61889,26.59945 69.32649,26.59945 37.7076,0 68.41498,-11.85843 69.32648,-26.59945 h 0.0295 v -0.50077 c 9.5e-4,-0.0587 0,-0.11794 0,-0.17674 0,-0.0588 9.4e-4,-0.11803 0,-0.17674 v -41.90224 z"
           id="path13626"
           inkscape:connector-curvature="0" />
        <ellipse
           style="fill:#3a78a0;fill-opacity:1;stroke:none"
           id="path11090"
           transform="matrix(0.471308,0,0,1.045917,116.1877,-191.5659)"
           cx="328.57144"
           cy="602.7193"
           rx="147.14285"
           ry="26.071428" />
        <g
           id="g13565"
           style="fill:#f2fdff;fill-opacity:0.71171169"
           transform="matrix(0.84958,0.276715,-0.703617,0.334119,443.2028,133.2284)">
          <path
             id="path13507"
             d="m 328.66945,592.8253 -5.97867,10.35298 -5.97867,10.35297 h 6.18436 v 21.24074 h 11.53226 v -21.24074 h 6.18435 l -5.97867,-10.35297 z"
             style="fill:#f2fdff;fill-opacity:0.71171169;stroke:none"
             inkscape:connector-curvature="0" />
          <path
             id="path13509"
             d="m 328.66945,687.10951 -5.97867,-10.35298 -5.97867,-10.35297 h 6.18436 v -21.24074 h 11.53226 v 21.24074 h 6.18435 l -5.97867,10.35297 z"
             style="fill:#f2fdff;fill-opacity:0.71171169;stroke:none"
             inkscape:connector-curvature="0" />
          <path
             id="path13511"
             d="m 333.74751,639.82449 10.35297,-5.97867 10.35297,-5.97867 v 6.18436 h 21.24074 v 11.53225 h -21.24074 v 6.18436 l -10.35297,-5.97867 z"
             style="fill:#f2fdff;fill-opacity:0.71171169;stroke:none"
             inkscape:connector-curvature="0" />
          <path
             id="path13513"
             d="m 323.35667,639.82449 -10.35297,-5.97867 -10.35298,-5.97867 v 6.18436 h -21.24073 v 11.53225 h 21.24073 v 6.18436 l 10.35298,-5.97867 z"
             style="fill:#f2fdff;fill-opacity:0.71171169;stroke:none"
             inkscape:connector-curvature="0" />
        </g>
      </g>
    </g>
    <g
       aria-label="R1
(.1)"
       style="color:#000000;font-style:normal;font-variant:normal;font-weight:bold;font-stretch:normal;line-height:0%;font-family:'Bitstream Vera Sans';-inkscape-font-specification:'Bitstream Vera Sans Bold';text-indent:0;text-align:center;text-decoration:none;text-decoration-line:none;letter-spacing:normal;word-spacing:normal;text-transform:none;writing-mode:lr-tb;direction:ltr;text-anchor:middle;display:inline;overflow:visible;visibility:visible;opacity:0.89743593;fill:#000000;fill-opacity:1;fill-rule:nonzero;stroke:none;stroke-width:1.3289237;marker:none;enable-background:accumulate"
       id="text2994">
      <path
         d="m -124.26823,-68.925739 q 1.18164,0 1.68946,-0.439453 0.51757,-0.439454 0.51757,-1.445313 0,-0.996094 -0.51757,-1.425781 -0.50782,-0.429688 -1.68946,-0.429688 h -1.58203 v 3.740235 z m -1.58203,2.597656 v 5.517578 h -3.75976 v -14.580078 h 5.74218 q 2.88086,0 4.21875,0.966797 1.34766,0.966797 1.34766,3.05664 0,1.445313 -0.70312,2.373047 -0.69336,0.927735 -2.09961,1.367188 0.77148,0.175781 1.37695,0.800781 0.61523,0.615234 1.24023,1.875 l 2.04102,4.140625 h -4.00391 l -1.77734,-3.623047 q -0.53711,-1.09375 -1.09375,-1.49414 -0.54688,-0.400391 -1.46484,-0.400391 z"
         style="font-size:20px;line-height:1.39999998"
         id="path1856" />
      <path
         d="m -113.71159,-63.408161 h 3.32032 v -9.423828 l -3.40821,0.703125 v -2.558594 l 3.38868,-0.703125 h 3.57421 v 11.982422 h 3.32032 v 2.597656 h -10.19532 z"
         style="font-size:20px;line-height:1.39999998"
         id="path1858" />
      <path
         d="m -129.1608,-30.173787 h -2.9004 q -1.49414,-2.412109 -2.20703,-4.580078 -0.71289,-2.177734 -0.71289,-4.316406 0,-2.138672 0.71289,-4.326172 0.72266,-2.197266 2.20703,-4.589844 h 2.9004 q -1.25,2.314453 -1.875,4.53125 -0.625,2.207032 -0.625,4.365235 0,2.158203 0.61523,4.375 0.625,2.216797 1.88477,4.541015 z"
         style="font-size:20px;line-height:1.39999998"
         id="path1860" />
      <path
         d="m -125.51823,-36.589802 h 3.51563 v 3.779297 h -3.51563 z"
         style="font-size:20px;line-height:1.39999998"
         id="path1862" />
      <path
         d="m -117.5983,-35.408162 h 3.32031 v -9.423828 l -3.40821,0.703125 v -2.558594 l 3.38868,-0.703125 h 3.57422 v 11.982422 h 3.32031 v 2.597657 h -10.19531 z"
         style="font-size:20px;line-height:1.39999998"
         id="path1864" />
      <path
         d="m -104.43424,-30.173787 q 1.25,-2.324218 1.875,-4.541015 0.625,-2.216797 0.625,-4.375 0,-2.158203 -0.625,-4.365235 -0.625,-2.216797 -1.875,-4.53125 h 2.90039 q 1.48437,2.392578 2.197264,4.589844 0.722656,2.1875 0.722656,4.326172 0,2.138672 -0.71289,4.316406 -0.71289,2.167969 -2.20703,4.580078 z"
         style="font-size:20px;line-height:1.39999998"
         id="path1866" />
    </g>
    <path
       sodipodi:nodetypes="cc"
       style="fill:none;stroke:#000000;stroke-width:1.93961334px;stroke-linecap:butt;stroke-linejoin:miter;stroke-opacity:1"
       d="M 228.07666,-231.83354 84.021847,-138.9764"
       id="path3274"
       inkscape:connector-curvature="0" />
    <g
       id="g3268">
      <use
         height="1052.3622"
         width="744.09448"
         transform="translate(374.9112,-109.59385)"
         id="use2997"
         xlink:href="#layer1-7"
         y="0"
         x="0" />
      <use
         height="744.09448"
         width="1052.3622"
         transform="translate(542.41188,-109.59385)"
         id="use3234"
         xlink:href="#layer1-7"
         y="0"
         x="0" />
    </g>
    <use
       x="0"
       y="0"
       xlink:href="#layer1-7"
       id="use3242"
       transform="translate(922.97985)"
       width="1052.3622"
       height="744.09448" />
    <use
       x="0"
       y="0"
       xlink:href="#layer1-7"
       id="use3244"
       transform="translate(458.66154,-424)"
       width="1052.3622"
       height="744.09448" />
    <path
       inkscape:connector-curvature="0"
       id="path4064"
       d="m -247.17118,-21.658536 c 0,0 -0.39289,-602.857134 566.33698,-602.857134 151.87898,0 195.05299,97.27757 280.44808,153.79543 85.3951,56.51785 160.48336,73.28615 198.404,148.64329 37.92063,75.35714 109.38433,149.70413 118.83994,206.22199 9.4556,56.517853 9.43105,94.196424 9.43105,94.196424"
       style="fill:none;stroke:#000000;stroke-width:1.9400003;stroke-linecap:butt;stroke-linejoin:miter;stroke-miterlimit:4;stroke-dasharray:5.81999996, 1.93999998;stroke-dashoffset:0;stroke-opacity:1"
       sodipodi:nodetypes="cssssc" />
    <g
       aria-label="R3
(.3)"
       style="color:#000000;font-style:normal;font-variant:normal;font-weight:bold;font-stretch:normal;line-height:0%;font-family:'Bitstream Vera Sans';-inkscape-font-specification:'Bitstream Vera Sans Bold';text-indent:0;text-align:center;text-decoration:none;text-decoration-line:none;letter-spacing:normal;word-spacing:normal;text-transform:none;writing-mode:lr-tb;direction:ltr;text-anchor:middle;display:inline;overflow:visible;visibility:visible;opacity:0.89743593;fill:#000000;fill-opacity:1;fill-rule:nonzero;stroke:none;stroke-width:1.3289237;marker:none;enable-background:accumulate"
       id="text4072">
      <path
         d="m 799.21985,-69.915588 q 1.18164,0 1.68945,-0.439454 0.51758,-0.439453 0.51758,-1.445312 0,-0.996094 -0.51758,-1.425781 -0.50781,-0.429688 -1.68945,-0.429688 h -1.58203 v 3.740235 z m -1.58203,2.597656 v 5.517578 h -3.75977 v -14.580078 h 5.74219 q 2.88086,0 4.21875,0.966797 1.34766,0.966797 1.34766,3.05664 0,1.445313 -0.70313,2.373047 -0.69336,0.927735 -2.09961,1.367188 0.77149,0.175781 1.37695,0.800781 0.61524,0.615234 1.24024,1.875 l 2.04101,4.140625 h -4.0039 l -1.77735,-3.623047 q -0.53711,-1.09375 -1.09375,-1.494141 -0.54687,-0.40039 -1.46484,-0.40039 z"
         style="font-size:20px;line-height:1.39999998"
         id="path1843" />
      <path
         d="m 816.74915,-69.661682 q 1.4746,0.380859 2.23632,1.328125 0.77149,0.9375 0.77149,2.392578 0,2.167969 -1.66016,3.300781 -1.66015,1.123047 -4.84375,1.123047 -1.12305,0 -2.25586,-0.185547 -1.12304,-0.175781 -2.22656,-0.537109 v -2.900391 q 1.05469,0.527344 2.08984,0.800781 1.04493,0.263672 2.05078,0.263672 1.49415,0 2.28516,-0.517578 0.80078,-0.517578 0.80078,-1.484375 0,-0.996094 -0.82031,-1.503906 -0.81055,-0.517578 -2.40234,-0.517578 h -1.50391 v -2.421875 h 1.58203 q 1.41602,0 2.10938,-0.439453 0.69336,-0.449219 0.69336,-1.357422 0,-0.839844 -0.67383,-1.298828 -0.67383,-0.458985 -1.9043,-0.458985 -0.9082,0 -1.83594,0.205078 -0.92773,0.205079 -1.8457,0.605469 v -2.753906 q 1.11328,-0.3125 2.20703,-0.46875 1.09375,-0.15625 2.14844,-0.15625 2.8418,0 4.24805,0.9375 1.41601,0.927734 1.41601,2.802734 0,1.279297 -0.67383,2.09961 -0.67383,0.810547 -1.99218,1.142578 z"
         style="font-size:20px;line-height:1.39999998"
         id="path1845" />
      <path
         d="m 794.32727,-31.163636 h -2.90039 q -1.49414,-2.412109 -2.20703,-4.580078 -0.71289,-2.177734 -0.71289,-4.316406 0,-2.138672 0.71289,-4.326172 0.72265,-2.197266 2.20703,-4.589844 h 2.90039 q -1.25,2.314453 -1.875,4.53125 -0.625,2.207032 -0.625,4.365235 0,2.158203 0.61523,4.375 0.625,2.216797 1.88477,4.541015 z"
         style="font-size:20px;line-height:1.39999998"
         id="path1847" />
      <path
         d="m 797.96985,-37.579651 h 3.51562 v 3.779297 h -3.51562 z"
         style="font-size:20px;line-height:1.39999998"
         id="path1849" />
      <path
         d="m 812.86243,-41.661683 q 1.47461,0.38086 2.23632,1.328125 0.77149,0.9375 0.77149,2.392579 0,2.167968 -1.66016,3.300781 -1.66015,1.123047 -4.84375,1.123047 -1.12304,0 -2.25586,-0.185547 -1.12304,-0.175781 -2.22656,-0.53711 v -2.90039 q 1.05469,0.527344 2.08984,0.800781 1.04493,0.263672 2.05079,0.263672 1.49414,0 2.28515,-0.517578 0.80078,-0.517578 0.80078,-1.484375 0,-0.996094 -0.82031,-1.503906 -0.81055,-0.517579 -2.40234,-0.517579 h -1.50391 v -2.421875 h 1.58203 q 1.41602,0 2.10938,-0.439453 0.69336,-0.449218 0.69336,-1.357422 0,-0.839843 -0.67383,-1.298828 -0.67383,-0.458984 -1.9043,-0.458984 -0.9082,0 -1.83594,0.205078 -0.92773,0.205078 -1.8457,0.605469 v -2.753906 q 1.11328,-0.3125 2.20703,-0.46875 1.09375,-0.15625 2.14844,-0.15625 2.8418,0 4.24805,0.9375 1.41601,0.927734 1.41601,2.802734 0,1.279297 -0.67383,2.099609 -0.67382,0.810547 -1.99218,1.142578 z"
         style="font-size:20px;line-height:1.39999998"
         id="path1851" />
      <path
         d="m 819.05383,-31.163636 q 1.25,-2.324218 1.875,-4.541015 0.625,-2.216797 0.625,-4.375 0,-2.158203 -0.625,-4.365235 -0.625,-2.216797 -1.875,-4.53125 h 2.90039 q 1.48438,2.392578 2.19727,4.589844 0.72266,2.1875 0.72266,4.326172 0,2.138672 -0.7129,4.316406 -0.71289,2.167969 -2.20703,4.580078 z"
         style="font-size:20px;line-height:1.39999998"
         id="path1853" />
    </g>
    <g
       aria-label="R2
(.2)"
       style="color:#000000;font-style:normal;font-variant:normal;font-weight:bold;font-stretch:normal;line-height:0%;font-family:'Bitstream Vera Sans';-inkscape-font-specification:'Bitstream Vera Sans Bold';text-indent:0;text-align:start;text-decoration:none;text-decoration-line:none;letter-spacing:normal;word-spacing:normal;text-transform:none;writing-mode:lr-tb;direction:ltr;text-anchor:start;display:inline;overflow:visible;visibility:visible;opacity:0.89743593;fill:#000000;fill-opacity:1;fill-rule:nonzero;stroke:none;stroke-width:1.3289237;marker:none;enable-background:accumulate"
       id="text4076">
      <path
         d="m 414.86792,-564.84448 q 1.18164,0 1.68945,-0.43946 0.51758,-0.43945 0.51758,-1.44531 0,-0.99609 -0.51758,-1.42578 -0.50781,-0.42969 -1.68945,-0.42969 h -1.58203 v 3.74024 z m -1.58203,2.59765 v 5.51758 h -3.75977 v -14.58008 h 5.74219 q 2.88086,0 4.21875,0.9668 1.34766,0.9668 1.34766,3.05664 0,1.44531 -0.70313,2.37305 -0.69336,0.92773 -2.09961,1.36719 0.77149,0.17578 1.37696,0.80078 0.61523,0.61523 1.24023,1.875 l 2.04102,4.14062 h -4.00391 l -1.77734,-3.62304 q -0.53711,-1.09375 -1.09375,-1.49415 -0.54688,-0.40039 -1.46485,-0.40039 z"
         style="font-size:20px;line-height:1.39999998"
         id="path1830" />
      <path
         d="m 428.84253,-559.49292 h 6.41601 v 2.76367 h -10.5957 v -2.76367 l 5.32227,-4.69727 q 0.71289,-0.64453 1.05468,-1.25976 0.3418,-0.61524 0.3418,-1.2793 0,-1.02539 -0.69336,-1.65039 -0.68359,-0.625 -1.82617,-0.625 -0.87891,0 -1.92383,0.38086 -1.04492,0.37109 -2.23633,1.11328 v -3.20312 q 1.26954,-0.41992 2.50977,-0.63477 1.24023,-0.22461 2.43164,-0.22461 2.61719,0 4.0625,1.15235 1.45508,1.15234 1.45508,3.21289 0,1.1914 -0.61524,2.22656 -0.61523,1.02539 -2.58789,2.75391 z"
         style="font-size:20px;line-height:1.39999998"
         id="path1832" />
      <path
         d="m 415.22925,-526.09253 h -2.90039 q -1.49414,-2.41211 -2.20703,-4.58008 -0.71289,-2.17773 -0.71289,-4.3164 0,-2.13868 0.71289,-4.32618 0.72265,-2.19726 2.20703,-4.58984 h 2.90039 q -1.25,2.31445 -1.875,4.53125 -0.625,2.20703 -0.625,4.36523 0,2.15821 0.61523,4.375 0.625,2.2168 1.88477,4.54102 z"
         style="font-size:20px;line-height:1.39999998"
         id="path1834" />
      <path
         d="m 418.87183,-532.50855 h 3.51562 v 3.7793 h -3.51562 z"
         style="font-size:20px;line-height:1.39999998"
         id="path1836" />
      <path
         d="m 430.20972,-531.49292 h 6.41601 v 2.76367 h -10.5957 v -2.76367 l 5.32226,-4.69727 q 0.7129,-0.64453 1.05469,-1.25976 0.3418,-0.61524 0.3418,-1.2793 0,-1.02539 -0.69336,-1.65039 -0.68359,-0.625 -1.82617,-0.625 -0.87891,0 -1.92383,0.38086 -1.04492,0.37109 -2.23633,1.11328 v -3.20312 q 1.26953,-0.41993 2.50977,-0.63477 1.24023,-0.22461 2.43164,-0.22461 2.61719,0 4.0625,1.15235 1.45508,1.15234 1.45508,3.21289 0,1.1914 -0.61524,2.22656 -0.61523,1.02539 -2.58789,2.7539 z"
         style="font-size:20px;line-height:1.39999998"
         id="path1838" />
      <path
         d="m 439.95581,-526.09253 q 1.25,-2.32422 1.875,-4.54102 0.625,-2.21679 0.625,-4.375 0,-2.1582 -0.625,-4.36523 -0.625,-2.2168 -1.875,-4.53125 h 2.90039 q 1.48438,2.39258 2.19727,4.58984 0.72265,2.1875 0.72265,4.32618 0,2.13867 -0.71289,4.3164 -0.71289,2.16797 -2.20703,4.58008 z"
         style="font-size:20px;line-height:1.39999998"
         id="path1840" />
    </g>
    <g
       aria-label="C1
(.111)"
       style="color:#000000;font-style:normal;font-variant:normal;font-weight:bold;font-stretch:normal;line-height:0%;font-family:'Bitstream Vera Sans';-inkscape-font-specification:'Bitstream Vera Sans Bold';text-indent:0;text-align:end;text-decoration:none;text-decoration-line:none;letter-spacing:normal;word-spacing:normal;text-transform:none;writing-mode:lr-tb;direction:ltr;text-anchor:end;display:inline;overflow:visible;visibility:visible;opacity:0.89743593;fill:#000000;fill-opacity:1;fill-rule:nonzero;stroke:none;stroke-width:1.3289237;marker:none;enable-background:accumulate"
       id="text4080">
      <path
         d="m 178.72125,-267.36761 q -1.03515,0.5371 -2.1582,0.81054 -1.12305,0.27344 -2.34375,0.27344 -3.64258,0 -5.77149,-2.03125 -2.1289,-2.04102 -2.1289,-5.52734 0,-3.4961 2.1289,-5.52735 2.12891,-2.04101 5.77149,-2.04101 1.2207,0 2.34375,0.27343 1.12305,0.27344 2.1582,0.81055 v 3.01758 q -1.04492,-0.71289 -2.06054,-1.04492 -1.01563,-0.33203 -2.13868,-0.33203 -2.01172,0 -3.16406,1.28906 -1.15234,1.28906 -1.15234,3.55469 0,2.25586 1.15234,3.54492 1.15234,1.28906 3.16406,1.28906 1.12305,0 2.13868,-0.33203 1.01562,-0.33203 2.06054,-1.04492 z"
         style="font-size:20px;line-height:1.39999998"
         id="path1813" />
      <path
         d="m 182.35406,-269.16449 h 3.32032 v -9.42383 l -3.40821,0.70313 v -2.5586 l 3.38868,-0.70312 h 3.57421 v 11.98242 h 3.32032 v 2.59766 h -10.19532 z"
         style="font-size:20px;line-height:1.39999998"
         id="path1815" />
      <path
         d="m 133.83844,-235.93012 h -2.90039 q -1.49414,-2.4121 -2.20703,-4.58007 -0.71289,-2.17774 -0.71289,-4.31641 0,-2.13867 0.71289,-4.32617 0.72265,-2.19727 2.20703,-4.58985 h 2.90039 q -1.25,2.31446 -1.875,4.53125 -0.625,2.20704 -0.625,4.36524 0,2.1582 0.61523,4.375 0.625,2.2168 1.88477,4.54101 z"
         style="font-size:20px;line-height:1.39999998"
         id="path1817" />
      <path
         d="m 137.48102,-242.34613 h 3.51562 v 3.7793 h -3.51562 z"
         style="font-size:20px;line-height:1.39999998"
         id="path1819" />
      <path
         d="m 145.40094,-241.16449 h 3.32031 v -9.42383 l -3.4082,0.70313 v -2.5586 l 3.38867,-0.70312 h 3.57422 v 11.98242 h 3.32031 v 2.59766 h -10.19531 z"
         style="font-size:20px;line-height:1.39999998"
         id="path1821" />
      <path
         d="m 159.30719,-241.16449 h 3.32031 v -9.42383 l -3.4082,0.70313 v -2.5586 l 3.38867,-0.70312 h 3.57422 v 11.98242 h 3.32031 v 2.59766 h -10.19531 z"
         style="font-size:20px;line-height:1.39999998"
         id="path1823" />
      <path
         d="m 173.21344,-241.16449 h 3.32031 v -9.42383 l -3.4082,0.70313 v -2.5586 l 3.38867,-0.70312 h 3.57422 v 11.98242 h 3.32031 v 2.59766 h -10.19531 z"
         style="font-size:20px;line-height:1.39999998"
         id="path1825" />
      <path
         d="m 186.3775,-235.93012 q 1.25,-2.32421 1.875,-4.54101 0.625,-2.2168 0.625,-4.375 0,-2.1582 -0.625,-4.36524 -0.625,-2.21679 -1.875,-4.53125 h 2.90039 q 1.48438,2.39258 2.19727,4.58985 0.72265,2.1875 0.72265,4.32617 0,2.13867 -0.71289,4.31641 -0.71289,2.16797 -2.20703,4.58007 z"
         style="font-size:20px;line-height:1.39999998"
         id="path1827" />
    </g>
    <g
       aria-label="C2
(.122)"
       style="color:#000000;font-style:normal;font-variant:normal;font-weight:bold;font-stretch:normal;line-height:0%;font-family:'Bitstream Vera Sans';-inkscape-font-specification:'Bitstream Vera Sans Bold';text-indent:0;text-align:start;text-decoration:none;text-decoration-line:none;letter-spacing:normal;word-spacing:normal;text-transform:none;writing-mode:lr-tb;direction:ltr;text-anchor:start;display:inline;overflow:visible;visibility:visible;opacity:0.89743593;fill:#000000;fill-opacity:1;fill-rule:nonzero;stroke:none;stroke-width:1.3289237;marker:none;enable-background:accumulate"
       id="text4084">
      <path
         d="m 494.65106,-266.35745 q -1.03515,0.53711 -2.1582,0.81054 -1.12305,0.27344 -2.34375,0.27344 -3.64258,0 -5.77149,-2.03125 -2.1289,-2.04101 -2.1289,-5.52734 0,-3.4961 2.1289,-5.52735 2.12891,-2.04101 5.77149,-2.04101 1.2207,0 2.34375,0.27344 1.12305,0.27343 2.1582,0.81054 v 3.01758 q -1.04492,-0.71289 -2.06054,-1.04492 -1.01563,-0.33203 -2.13868,-0.33203 -2.01172,0 -3.16406,1.28906 -1.15234,1.28906 -1.15234,3.55469 0,2.25586 1.15234,3.54492 1.15234,1.28906 3.16406,1.28906 1.12305,0 2.13868,-0.33203 1.01562,-0.33203 2.06054,-1.04492 z"
         style="font-size:20px;line-height:1.39999998"
         id="path1796" />
      <path
         d="m 501.70184,-268.32034 h 6.41602 v 2.76367 h -10.5957 v -2.76367 l 5.32226,-4.69727 q 0.71289,-0.64453 1.05469,-1.25976 0.3418,-0.61524 0.3418,-1.2793 0,-1.02539 -0.69336,-1.65039 -0.6836,-0.625 -1.82618,-0.625 -0.8789,0 -1.92382,0.38086 -1.04493,0.37109 -2.23633,1.11328 v -3.20313 q 1.26953,-0.41992 2.50976,-0.63476 1.24024,-0.22461 2.43164,-0.22461 2.61719,0 4.0625,1.15234 1.45508,1.15235 1.45508,3.21289 0,1.19141 -0.61523,2.22657 -0.61524,1.02539 -2.58789,2.7539 z"
         style="font-size:20px;line-height:1.39999998"
         id="path1798" />
      <path
         d="m 488.79169,-234.91995 h -2.90039 q -1.49414,-2.41211 -2.20703,-4.58008 -0.7129,-2.17774 -0.7129,-4.31641 0,-2.13867 0.7129,-4.32617 0.72265,-2.19726 2.20703,-4.58984 h 2.90039 q -1.25,2.31445 -1.875,4.53125 -0.625,2.20703 -0.625,4.36523 0,2.1582 0.61523,4.375 0.625,2.2168 1.88477,4.54102 z"
         style="font-size:20px;line-height:1.39999998"
         id="path1800" />
      <path
         d="m 492.43427,-241.33597 h 3.51562 v 3.7793 h -3.51562 z"
         style="font-size:20px;line-height:1.39999998"
         id="path1802" />
      <path
         d="m 500.35419,-240.15433 h 3.32031 v -9.42383 l -3.4082,0.70313 v -2.55859 l 3.38867,-0.70313 h 3.57422 v 11.98242 h 3.32031 v 2.59766 h -10.19531 z"
         style="font-size:20px;line-height:1.39999998"
         id="path1804" />
      <path
         d="m 517.67841,-240.32034 h 6.41601 v 2.76367 h -10.5957 v -2.76367 l 5.32226,-4.69727 q 0.71289,-0.64453 1.05469,-1.25976 0.3418,-0.61524 0.3418,-1.2793 0,-1.02539 -0.69336,-1.65039 -0.68359,-0.625 -1.82617,-0.625 -0.87891,0 -1.92383,0.38086 -1.04492,0.37109 -2.23633,1.11328 v -3.20313 q 1.26953,-0.41992 2.50977,-0.63476 1.24023,-0.22461 2.43164,-0.22461 2.61718,0 4.0625,1.15234 1.45508,1.15235 1.45508,3.21289 0,1.19141 -0.61524,2.22657 -0.61523,1.02539 -2.58789,2.7539 z"
         style="font-size:20px;line-height:1.39999998"
         id="path1806" />
      <path
         d="m 531.58466,-240.32034 h 6.41601 v 2.76367 h -10.5957 v -2.76367 l 5.32226,-4.69727 q 0.71289,-0.64453 1.05469,-1.25976 0.3418,-0.61524 0.3418,-1.2793 0,-1.02539 -0.69336,-1.65039 -0.68359,-0.625 -1.82617,-0.625 -0.87891,0 -1.92383,0.38086 -1.04492,0.37109 -2.23633,1.11328 v -3.20313 q 1.26953,-0.41992 2.50977,-0.63476 1.24023,-0.22461 2.43164,-0.22461 2.61718,0 4.0625,1.15234 1.45508,1.15235 1.45508,3.21289 0,1.19141 -0.61524,2.22657 -0.61523,1.02539 -2.58789,2.7539 z"
         style="font-size:20px;line-height:1.39999998"
         id="path1808" />
      <path
         d="m 541.33075,-234.91995 q 1.25,-2.32422 1.875,-4.54102 0.625,-2.2168 0.625,-4.375 0,-2.1582 -0.625,-4.36523 -0.625,-2.2168 -1.875,-4.53125 h 2.90039 q 1.48438,2.39258 2.19727,4.58984 0.72265,2.1875 0.72265,4.32617 0,2.13867 -0.71289,4.31641 -0.71289,2.16797 -2.20703,4.58008 z"
         style="font-size:20px;line-height:1.39999998"
         id="path1810" />
    </g>
    <g
       aria-label="C3 (.133)"
       style="color:#000000;font-style:normal;font-variant:normal;font-weight:bold;font-stretch:normal;line-height:0%;font-family:'Bitstream Vera Sans';-inkscape-font-specification:'Bitstream Vera Sans Bold';text-indent:0;text-align:start;text-decoration:none;text-decoration-line:none;letter-spacing:normal;word-spacing:normal;text-transform:none;writing-mode:lr-tb;direction:ltr;text-anchor:start;display:inline;overflow:visible;visibility:visible;opacity:0.89743593;fill:#000000;fill-opacity:1;fill-rule:nonzero;stroke:none;stroke-width:1.3289237;marker:none;enable-background:accumulate"
       id="text4092">
      <path
         d="m 305.08862,21.898512 q -1.03515,0.537109 -2.1582,0.810547 -1.12305,0.273437 -2.34375,0.273437 -3.64258,0 -5.77148,-2.03125 -2.12891,-2.041015 -2.12891,-5.527343 0,-3.496094 2.12891,-5.5273442 2.1289,-2.0410157 5.77148,-2.0410157 1.2207,0 2.34375,0.2734375 1.12305,0.2734375 2.1582,0.8105469 v 3.0175785 q -1.04492,-0.712891 -2.06054,-1.044922 -1.01563,-0.332031 -2.13868,-0.332031 -2.01171,0 -3.16406,1.289062 -1.15234,1.289063 -1.15234,3.554688 0,2.255859 1.15234,3.544921 1.15235,1.289063 3.16406,1.289063 1.12305,0 2.13868,-0.332031 1.01562,-0.332032 2.06054,-1.044922 z"
         style="font-size:20px;line-height:1.39999998"
         id="path1779" />
      <path
         d="m 315.69409,14.837965 q 1.47461,0.380859 2.23633,1.328125 0.77148,0.9375 0.77148,2.392578 0,2.167969 -1.66015,3.300781 -1.66016,1.123047 -4.84375,1.123047 -1.12305,0 -2.25586,-0.185547 -1.12305,-0.175781 -2.22656,-0.537109 v -2.900391 q 1.05468,0.527344 2.08984,0.800782 1.04492,0.263672 2.05078,0.263672 1.49414,0 2.28516,-0.517579 0.80078,-0.517578 0.80078,-1.484375 0,-0.996093 -0.82031,-1.503906 -0.81055,-0.517578 -2.40235,-0.517578 h -1.5039 V 13.97859 h 1.58203 q 1.41601,0 2.10937,-0.439453 0.69336,-0.449219 0.69336,-1.357422 0,-0.839844 -0.67383,-1.298828 -0.67382,-0.458984 -1.90429,-0.458984 -0.90821,0 -1.83594,0.205078 -0.92774,0.205078 -1.8457,0.605468 V 8.4805431 q 1.11328,-0.3125 2.20703,-0.46875 1.09375,-0.15625 2.14843,-0.15625 2.8418,0 4.24805,0.9375 1.41602,0.9277344 1.41602,2.8027349 0,1.279296 -0.67383,2.099609 -0.67383,0.810547 -1.99219,1.142578 z"
         style="font-size:20px;line-height:1.39999998"
         id="path1781" />
      <path
         d="m 334.77612,25.336012 h -2.90039 q -1.49414,-2.412109 -2.20703,-4.580078 -0.71289,-2.177735 -0.71289,-4.316406 0,-2.138672 0.71289,-4.326172 0.72266,-2.197266 2.20703,-4.5898441 h 2.90039 q -1.25,2.3144531 -1.875,4.5312501 -0.625,2.207031 -0.625,4.365234 0,2.158203 0.61524,4.375 0.625,2.216797 1.88476,4.541016 z"
         style="font-size:20px;line-height:1.39999998"
         id="path1783" />
      <path
         d="m 338.4187,18.919996 h 3.51563 v 3.779297 h -3.51563 z"
         style="font-size:20px;line-height:1.39999998"
         id="path1785" />
      <path
         d="m 346.33862,20.101637 h 3.32032 v -9.423828 l -3.40821,0.703125 V 8.82234 l 3.38867,-0.703125 h 3.57422 v 11.982422 h 3.32032 v 2.597656 h -10.19532 z"
         style="font-size:20px;line-height:1.39999998"
         id="path1787" />
      <path
         d="m 367.21753,14.837965 q 1.47461,0.380859 2.23633,1.328125 0.77148,0.9375 0.77148,2.392578 0,2.167969 -1.66015,3.300781 -1.66016,1.123047 -4.84375,1.123047 -1.12305,0 -2.25586,-0.185547 -1.12305,-0.175781 -2.22657,-0.537109 v -2.900391 q 1.05469,0.527344 2.08985,0.800782 1.04492,0.263672 2.05078,0.263672 1.49414,0 2.28515,-0.517579 0.80079,-0.517578 0.80079,-1.484375 0,-0.996093 -0.82032,-1.503906 -0.81054,-0.517578 -2.40234,-0.517578 h -1.50391 V 13.97859 h 1.58203 q 1.41602,0 2.10938,-0.439453 0.69336,-0.449219 0.69336,-1.357422 0,-0.839844 -0.67383,-1.298828 -0.67383,-0.458984 -1.9043,-0.458984 -0.9082,0 -1.83593,0.205078 -0.92774,0.205078 -1.84571,0.605468 V 8.4805431 q 1.11328,-0.3125 2.20703,-0.46875 1.09375,-0.15625 2.14844,-0.15625 2.8418,0 4.24805,0.9375 1.41601,0.9277344 1.41601,2.8027349 0,1.279296 -0.67382,2.099609 -0.67383,0.810547 -1.99219,1.142578 z"
         style="font-size:20px;line-height:1.39999998"
         id="path1789" />
      <path
         d="m 381.12378,14.837965 q 1.47461,0.380859 2.23633,1.328125 0.77148,0.9375 0.77148,2.392578 0,2.167969 -1.66015,3.300781 -1.66016,1.123047 -4.84375,1.123047 -1.12305,0 -2.25586,-0.185547 -1.12305,-0.175781 -2.22657,-0.537109 v -2.900391 q 1.05469,0.527344 2.08985,0.800782 1.04492,0.263672 2.05078,0.263672 1.49414,0 2.28515,-0.517579 0.80079,-0.517578 0.80079,-1.484375 0,-0.996093 -0.82032,-1.503906 -0.81054,-0.517578 -2.40234,-0.517578 h -1.50391 V 13.97859 h 1.58203 q 1.41602,0 2.10938,-0.439453 0.69336,-0.449219 0.69336,-1.357422 0,-0.839844 -0.67383,-1.298828 -0.67383,-0.458984 -1.9043,-0.458984 -0.9082,0 -1.83593,0.205078 -0.92774,0.205078 -1.84571,0.605468 V 8.4805431 q 1.11328,-0.3125 2.20703,-0.46875 1.09375,-0.15625 2.14844,-0.15625 2.8418,0 4.24805,0.9375 1.41601,0.9277344 1.41601,2.8027349 0,1.279296 -0.67382,2.099609 -0.67383,0.810547 -1.99219,1.142578 z"
         style="font-size:20px;line-height:1.39999998"
         id="path1791" />
      <path
         d="m 387.31519,25.336012 q 1.25,-2.324219 1.875,-4.541016 0.625,-2.216797 0.625,-4.375 0,-2.158203 -0.625,-4.365234 -0.625,-2.216797 -1.875,-4.5312501 h 2.90039 q 1.48437,2.3925781 2.19726,4.5898441 0.72266,2.1875 0.72266,4.326172 0,2.138671 -0.71289,4.316406 -0.71289,2.167969 -2.20703,4.580078 z"
         style="font-size:20px;line-height:1.39999998"
         id="path1793" />
    </g>
    <g
       aria-label=" "
       transform="translate(-22.219218,-385.76213)"
       style="font-style:normal;font-variant:normal;font-weight:normal;font-stretch:normal;line-height:0%;font-family:'Linux Biolinum O';-inkscape-font-specification:'Linux Biolinum O';letter-spacing:0px;word-spacing:0px;fill:#000000;fill-opacity:1;stroke:none"
       id="text4574" />
    <path
       sodipodi:nodetypes="cc"
       style="fill:none;stroke:#000000;stroke-width:1.93961334px;stroke-linecap:butt;stroke-linejoin:miter;stroke-opacity:1"
       d="M 256.9064,-271.41436 331.19211,-380.8948"
       id="path3407"
       inkscape:connector-curvature="0" />
    <use
       x="0"
       y="0"
       xlink:href="#layer1-7"
       id="use3405"
       transform="translate(460,-280)"
       width="900.65863"
       height="616.58936" />
    <g
       aria-label="E1
(.11)"
       style="color:#000000;font-style:normal;font-variant:normal;font-weight:bold;font-stretch:normal;line-height:0%;font-family:'Bitstream Vera Sans';-inkscape-font-specification:'Bitstream Vera Sans Bold';text-indent:0;text-align:center;text-decoration:none;text-decoration-line:none;letter-spacing:normal;word-spacing:normal;text-transform:none;writing-mode:lr-tb;direction:ltr;text-anchor:middle;display:inline;overflow:visible;visibility:visible;opacity:0.89743593;fill:#000000;fill-opacity:1;fill-rule:nonzero;stroke:none;stroke-width:1.3289237;marker:none;enable-background:accumulate"
       id="text3417">
      <path
         d="m 51.878052,-79.141815 h 10.146484 v 2.841797 h -6.386719 v 2.714843 h 6.00586 v 2.841797 h -6.00586 v 3.339844 h 6.601563 v 2.841797 H 51.878052 Z"
         style="font-size:20px;line-height:1.39999998"
         id="path1763" />
      <path
         d="m 66.057739,-67.159393 h 3.320313 v -9.423828 l -3.408203,0.703125 v -2.558594 l 3.388672,-0.703125 h 3.574218 v 11.982422 h 3.320313 v 2.597656 H 66.057739 Z"
         style="font-size:20px;line-height:1.39999998"
         id="path1765" />
      <path
         d="M 44.514771,-33.925019 H 41.61438 q -1.494141,-2.412109 -2.207031,-4.580078 -0.712891,-2.177734 -0.712891,-4.316406 0,-2.138672 0.712891,-4.326172 0.722656,-2.197266 2.207031,-4.589844 h 2.900391 q -1.25,2.314453 -1.875,4.53125 -0.625,2.207031 -0.625,4.365235 0,2.158203 0.615234,4.375 0.625,2.216796 1.884766,4.541015 z"
         style="font-size:20px;line-height:1.39999998"
         id="path1767" />
      <path
         d="m 48.157349,-40.341034 h 3.515625 v 3.779296 h -3.515625 z"
         style="font-size:20px;line-height:1.39999998"
         id="path1769" />
      <path
         d="m 56.077271,-39.159394 h 3.320312 v -9.423828 l -3.408203,0.703125 v -2.558594 l 3.388672,-0.703125 h 3.574219 v 11.982422 h 3.320312 v 2.597656 H 56.077271 Z"
         style="font-size:20px;line-height:1.39999998"
         id="path1771" />
      <path
         d="m 69.983521,-39.159394 h 3.320312 v -9.423828 l -3.408203,0.703125 v -2.558594 l 3.388672,-0.703125 h 3.574219 v 11.982422 h 3.320312 v 2.597656 H 69.983521 Z"
         style="font-size:20px;line-height:1.39999998"
         id="path1773" />
      <path
         d="m 83.147583,-33.925019 q 1.25,-2.324219 1.875,-4.541015 0.625,-2.216797 0.625,-4.375 0,-2.158204 -0.625,-4.365235 -0.625,-2.216797 -1.875,-4.53125 h 2.900391 q 1.484375,2.392578 2.197265,4.589844 0.722657,2.1875 0.722657,4.326172 0,2.138672 -0.712891,4.316406 -0.712891,2.167969 -2.207031,4.580078 z"
         style="font-size:20px;line-height:1.39999998"
         id="path1775" />
    </g>
    <g
       aria-label="E3
(.33)"
       style="color:#000000;font-style:normal;font-variant:normal;font-weight:bold;font-stretch:normal;line-height:0%;font-family:'Bitstream Vera Sans';-inkscape-font-specification:'Bitstream Vera Sans Bold';text-indent:0;text-align:center;text-decoration:none;text-decoration-line:none;letter-spacing:normal;word-spacing:normal;text-transform:none;writing-mode:lr-tb;direction:ltr;text-anchor:middle;display:inline;overflow:visible;visibility:visible;opacity:0.89743593;fill:#000000;fill-opacity:1;fill-rule:nonzero;stroke:none;stroke-width:1.3289237;marker:none;enable-background:accumulate"
       id="text3421">
      <path
         d="m 614.70544,-78.13166 h 10.14649 v 2.841796 h -6.38672 v 2.714844 h 6.00586 v 2.841797 h -6.00586 v 3.339844 h 6.60156 v 2.841797 h -10.36133 z"
         style="font-size:20px;line-height:1.39999998"
         id="path1748" />
      <path
         d="m 635.85779,-71.41291 q 1.47461,0.380859 2.23633,1.328125 0.77148,0.9375 0.77148,2.392578 0,2.167968 -1.66016,3.300781 -1.66015,1.123047 -4.84375,1.123047 -1.12304,0 -2.25586,-0.185547 -1.12304,-0.175781 -2.22656,-0.537109 v -2.900391 q 1.05469,0.527344 2.08985,0.800781 1.04492,0.263672 2.05078,0.263672 1.49414,0 2.28515,-0.517578 0.80078,-0.517578 0.80078,-1.484375 0,-0.996094 -0.82031,-1.503906 -0.81054,-0.517578 -2.40234,-0.517578 h -1.50391 v -2.421875 h 1.58203 q 1.41602,0 2.10938,-0.439454 0.69336,-0.449218 0.69336,-1.357421 0,-0.839844 -0.67383,-1.298829 -0.67383,-0.458984 -1.9043,-0.458984 -0.9082,0 -1.83593,0.205078 -0.92774,0.205078 -1.84571,0.605469 v -2.753906 q 1.11328,-0.3125 2.20703,-0.46875 1.09375,-0.15625 2.14844,-0.15625 2.8418,0 4.24805,0.9375 1.41601,0.927734 1.41601,2.802734 0,1.279297 -0.67382,2.099609 -0.67383,0.810547 -1.99219,1.142579 z"
         style="font-size:20px;line-height:1.39999998"
         id="path1750" />
      <path
         d="m 607.34216,-32.914864 h -2.90039 q -1.49414,-2.412109 -2.20703,-4.580078 -0.71289,-2.177735 -0.71289,-4.316406 0,-2.138672 0.71289,-4.326172 0.72266,-2.197266 2.20703,-4.589844 h 2.90039 q -1.25,2.314453 -1.875,4.53125 -0.625,2.207031 -0.625,4.365234 0,2.158203 0.61524,4.375 0.625,2.216797 1.88476,4.541016 z"
         style="font-size:20px;line-height:1.39999998"
         id="path1752" />
      <path
         d="m 610.98474,-39.33088 h 3.51563 v 3.779297 h -3.51563 z"
         style="font-size:20px;line-height:1.39999998"
         id="path1754" />
      <path
         d="m 625.87732,-43.412911 q 1.47461,0.380859 2.23633,1.328125 0.77148,0.9375 0.77148,2.392578 0,2.167969 -1.66015,3.300781 -1.66016,1.123047 -4.84375,1.123047 -1.12305,0 -2.25586,-0.185547 -1.12305,-0.175781 -2.22657,-0.537109 v -2.900391 q 1.05469,0.527344 2.08985,0.800782 1.04492,0.263672 2.05078,0.263672 1.49414,0 2.28515,-0.517579 0.80079,-0.517578 0.80079,-1.484375 0,-0.996093 -0.82032,-1.503906 -0.81054,-0.517578 -2.40234,-0.517578 h -1.50391 v -2.421875 h 1.58203 q 1.41602,0 2.10938,-0.439453 0.69336,-0.449219 0.69336,-1.357422 0,-0.839844 -0.67383,-1.298828 -0.67383,-0.458984 -1.9043,-0.458984 -0.9082,0 -1.83593,0.205078 -0.92774,0.205078 -1.84571,0.605468 v -2.753906 q 1.11328,-0.3125 2.20703,-0.46875 1.09375,-0.15625 2.14844,-0.15625 2.8418,0 4.24805,0.9375 1.41601,0.927735 1.41601,2.802735 0,1.279296 -0.67382,2.099609 -0.67383,0.810547 -1.99219,1.142578 z"
         style="font-size:20px;line-height:1.39999998"
         id="path1756" />
      <path
         d="m 639.78357,-43.412911 q 1.47461,0.380859 2.23633,1.328125 0.77148,0.9375 0.77148,2.392578 0,2.167969 -1.66015,3.300781 -1.66016,1.123047 -4.84375,1.123047 -1.12305,0 -2.25586,-0.185547 -1.12305,-0.175781 -2.22657,-0.537109 v -2.900391 q 1.05469,0.527344 2.08985,0.800782 1.04492,0.263672 2.05078,0.263672 1.49414,0 2.28515,-0.517579 0.80079,-0.517578 0.80079,-1.484375 0,-0.996093 -0.82032,-1.503906 -0.81054,-0.517578 -2.40234,-0.517578 h -1.50391 v -2.421875 h 1.58203 q 1.41602,0 2.10938,-0.439453 0.69336,-0.449219 0.69336,-1.357422 0,-0.839844 -0.67383,-1.298828 -0.67383,-0.458984 -1.9043,-0.458984 -0.9082,0 -1.83593,0.205078 -0.92774,0.205078 -1.84571,0.605468 v -2.753906 q 1.11328,-0.3125 2.20703,-0.46875 1.09375,-0.15625 2.14844,-0.15625 2.8418,0 4.24805,0.9375 1.41601,0.927735 1.41601,2.802735 0,1.279296 -0.67382,2.099609 -0.67383,0.810547 -1.99219,1.142578 z"
         style="font-size:20px;line-height:1.39999998"
         id="path1758" />
      <path
         d="m 645.97498,-32.914864 q 1.25,-2.324219 1.875,-4.541016 0.625,-2.216797 0.625,-4.375 0,-2.158203 -0.625,-4.365234 -0.625,-2.216797 -1.875,-4.53125 h 2.90039 q 1.48437,2.392578 2.19726,4.589844 0.72266,2.1875 0.72266,4.326172 0,2.138671 -0.71289,4.316406 -0.71289,2.167969 -2.20703,4.580078 z"
         style="font-size:20px;line-height:1.39999998"
         id="path1760" />
    </g>
    <g
       aria-label="E2
(.22)"
       style="color:#000000;font-style:normal;font-variant:normal;font-weight:bold;font-stretch:normal;line-height:0%;font-family:'Bitstream Vera Sans';-inkscape-font-specification:'Bitstream Vera Sans Bold';text-indent:0;text-align:center;text-decoration:none;text-decoration-line:none;letter-spacing:normal;word-spacing:normal;text-transform:none;writing-mode:lr-tb;direction:ltr;text-anchor:middle;display:inline;overflow:visible;visibility:visible;opacity:0.89743593;fill:#000000;fill-opacity:1;fill-rule:nonzero;stroke:none;stroke-width:1.3289237;marker:none;enable-background:accumulate"
       id="text3425">
      <path
         d="m 242.76636,-425.30936 h 10.14648 v 2.8418 h -6.38672 v 2.71484 h 6.00586 v 2.8418 h -6.00586 v 3.33984 h 6.60157 v 2.8418 h -10.36133 z"
         style="font-size:20px;line-height:1.39999998"
         id="path1733" />
      <path
         d="m 260.36401,-413.49295 h 6.41602 v 2.76367 h -10.5957 v -2.76367 l 5.32226,-4.69727 q 0.71289,-0.64453 1.05469,-1.25976 0.3418,-0.61524 0.3418,-1.2793 0,-1.02539 -0.69336,-1.65039 -0.6836,-0.625 -1.82618,-0.625 -0.8789,0 -1.92382,0.38086 -1.04493,0.37109 -2.23633,1.11328 v -3.20312 q 1.26953,-0.41993 2.50976,-0.63477 1.24024,-0.22461 2.43164,-0.22461 2.61719,0 4.0625,1.15235 1.45508,1.15234 1.45508,3.21289 0,1.1914 -0.61523,2.22656 -0.61524,1.02539 -2.58789,2.7539 z"
         style="font-size:20px;line-height:1.39999998"
         id="path1735" />
      <path
         d="m 235.40308,-380.09256 h -2.90039 q -1.49415,-2.41211 -2.20704,-4.58008 -0.71289,-2.17773 -0.71289,-4.3164 0,-2.13868 0.71289,-4.32618 0.72266,-2.19726 2.20704,-4.58984 h 2.90039 q -1.25,2.31445 -1.875,4.53125 -0.625,2.20703 -0.625,4.36523 0,2.15821 0.61523,4.375 0.625,2.2168 1.88477,4.54102 z"
         style="font-size:20px;line-height:1.39999998"
         id="path1737" />
      <path
         d="m 239.04565,-386.50858 h 3.51563 v 3.7793 h -3.51563 z"
         style="font-size:20px;line-height:1.39999998"
         id="path1739" />
      <path
         d="m 250.38354,-385.49295 h 6.41602 v 2.76367 h -10.5957 v -2.76367 l 5.32226,-4.69727 q 0.71289,-0.64453 1.05469,-1.25976 0.3418,-0.61524 0.3418,-1.2793 0,-1.02539 -0.69336,-1.65039 -0.6836,-0.625 -1.82617,-0.625 -0.87891,0 -1.92383,0.38086 -1.04492,0.37109 -2.23633,1.11328 v -3.20312 q 1.26953,-0.41993 2.50977,-0.63477 1.24023,-0.22461 2.43164,-0.22461 2.61718,0 4.0625,1.15234 1.45507,1.15235 1.45507,3.2129 0,1.1914 -0.61523,2.22656 -0.61523,1.02539 -2.58789,2.7539 z"
         style="font-size:20px;line-height:1.39999998"
         id="path1741" />
      <path
         d="m 264.28979,-385.49295 h 6.41602 v 2.76367 h -10.5957 v -2.76367 l 5.32226,-4.69727 q 0.71289,-0.64453 1.05469,-1.25976 0.3418,-0.61524 0.3418,-1.2793 0,-1.02539 -0.69336,-1.65039 -0.6836,-0.625 -1.82617,-0.625 -0.87891,0 -1.92383,0.38086 -1.04492,0.37109 -2.23633,1.11328 v -3.20312 q 1.26953,-0.41993 2.50977,-0.63477 1.24023,-0.22461 2.43164,-0.22461 2.61718,0 4.0625,1.15234 1.45507,1.15235 1.45507,3.2129 0,1.1914 -0.61523,2.22656 -0.61523,1.02539 -2.58789,2.7539 z"
         style="font-size:20px;line-height:1.39999998"
         id="path1743" />
      <path
         d="m 274.03589,-380.09256 q 1.25,-2.32422 1.875,-4.54102 0.625,-2.21679 0.625,-4.375 0,-2.1582 -0.625,-4.36523 -0.625,-2.2168 -1.875,-4.53125 h 2.90039 q 1.48437,2.39258 2.19726,4.58984 0.72266,2.1875 0.72266,4.32618 0,2.13867 -0.71289,4.3164 -0.71289,2.16797 -2.20703,4.58008 z"
         style="font-size:20px;line-height:1.39999998"
         id="path1745" />
    </g>
    <g
       aria-label=" "
       transform="translate(-102.42689,-544.5422)"
       style="color:#000000;font-style:normal;font-variant:normal;font-weight:500;font-stretch:normal;line-height:0%;font-family:Inconsolata;-inkscape-font-specification:'Inconsolata Medium';text-indent:0;text-align:center;text-decoration:none;text-decoration-line:none;letter-spacing:normal;word-spacing:normal;text-transform:none;writing-mode:lr-tb;direction:ltr;baseline-shift:baseline;text-anchor:middle;display:inline;overflow:visible;visibility:visible;opacity:0.75319148;fill:#000000;fill-opacity:1;fill-rule:nonzero;stroke:#2547ff;stroke-width:30;stroke-linecap:round;stroke-linejoin:miter;stroke-miterlimit:4;stroke-dasharray:none;stroke-dashoffset:0;stroke-opacity:1;marker:none;enable-background:accumulate"
       id="text3439" />
    <path
       inkscape:connector-curvature="0"
       id="path3276"
       d="M 309.93286,-39.83354 79.736129,-128.40497"
       style="fill:none;stroke:#000000;stroke-width:1.93961334px;stroke-linecap:butt;stroke-linejoin:miter;stroke-opacity:1"
       sodipodi:nodetypes="cc" />
    <path
       sodipodi:nodetypes="cc"
       style="display:inline;fill:none;stroke:#000000;stroke-width:1.93961322px;stroke-linecap:butt;stroke-linejoin:miter;stroke-opacity:1"
       d="m 603.52307,-117.83354 -240.23929,80"
       id="path3280"
       inkscape:connector-curvature="0" />
    <use
       x="0"
       y="0"
       xlink:href="#layer1-7"
       id="use3003"
       transform="translate(458.56792,80.812206)"
       width="744.09448"
       height="1052.3622" />
    <use
       x="0"
       y="0"
       xlink:href="#layer1-7"
       id="use3413"
       transform="translate(744)"
       width="900.65863"
       height="616.58936" />
    <use
       x="0"
       y="0"
       xlink:href="#layer1-7"
       id="use3403"
       transform="translate(182.28571)"
       width="900.65863"
       height="616.58936" />
  </g>
  <g
     inkscape:groupmode="layer"
     id="layer3"
     inkscape:label="Multicast"
     style="display:inline"
     transform="translate(15.000001,15)">
    <g
       id="g4751"
       transform="translate(908.57143,277.14286)">
      <circle
         transform="matrix(0.48837209,0,0,0.48837209,-148.73755,176.45878)"
         id="path4747"
         style="color:#000000;display:inline;overflow:visible;visibility:visible;fill:#ff0000;fill-opacity:1;fill-rule:nonzero;stroke:none;stroke-width:30;marker:none;enable-background:accumulate"
         cx="-290.71429"
         cy="344.8967"
         r="23.571428" />
      <circle
         transform="matrix(0.81818181,0,0,0.81818181,-52.857145,62.708489)"
         style="color:#000000;display:inline;overflow:visible;visibility:visible;fill:none;stroke:#ff0000;stroke-width:6.11111116;stroke-miterlimit:4;stroke-dasharray:none;stroke-opacity:1;marker:none;enable-background:accumulate"
         id="path4749"
         cx="-290.71429"
         cy="344.8967"
         r="23.571428" />
    </g>
    <use
       x="0"
       y="0"
       xlink:href="#g4751"
       id="use4755"
       transform="translate(-512.70799,-455.79605)"
       width="1235.4"
       height="708.46814" />
    <g
       aria-label="RP"
       style="color:#000000;font-style:normal;font-variant:normal;font-weight:bold;font-stretch:normal;line-height:0%;font-family:'Bitstream Vera Sans';-inkscape-font-specification:'Bitstream Vera Sans Bold';text-indent:0;text-align:start;text-decoration:none;text-decoration-line:none;letter-spacing:normal;word-spacing:normal;text-transform:none;writing-mode:lr-tb;direction:ltr;text-anchor:start;display:inline;overflow:visible;visibility:visible;opacity:0.89743593;fill:#000000;fill-opacity:1;fill-rule:nonzero;stroke:none;stroke-width:1.3289237;marker:none;enable-background:accumulate"
       id="text4757">
      <path
         d="m 147.58607,165.41832 q 1.18165,0 1.68946,-0.43945 0.51758,-0.43946 0.51758,-1.44532 0,-0.99609 -0.51758,-1.42578 -0.50781,-0.42968 -1.68946,-0.42968 h -1.58203 v 3.74023 z m -1.58203,2.59766 v 5.51757 h -3.75976 v -14.58007 h 5.74219 q 2.88085,0 4.21875,0.96679 1.34765,0.9668 1.34765,3.05664 0,1.44532 -0.70312,2.37305 -0.69336,0.92773 -2.09961,1.36719 0.77148,0.17578 1.37695,0.80078 0.61523,0.61523 1.24023,1.875 l 2.04102,4.14062 h -4.00391 l -1.77734,-3.62304 q -0.53711,-1.09375 -1.09375,-1.49414 -0.54687,-0.40039 -1.46484,-0.40039 z"
         style="font-size:20px;line-height:1.39999998"
         id="path2086" />
      <path
         d="m 157.6349,158.95348 h 6.24024 q 2.7832,0 4.26758,1.24023 1.49414,1.23047 1.49414,3.51563 0,2.29492 -1.49414,3.53515 -1.48438,1.23047 -4.26758,1.23047 h -2.48047 v 5.05859 h -3.75977 z m 3.75977,2.72461 v 4.07226 h 2.08008 q 1.09375,0 1.68945,-0.52734 0.5957,-0.53711 0.5957,-1.51367 0,-0.97657 -0.5957,-1.50391 -0.5957,-0.52734 -1.68945,-0.52734 z"
         style="font-size:20px;line-height:1.39999998"
         id="path2088" />
    </g>
  </g>
  <g
     inkscape:groupmode="layer"
     id="layer2"
     inkscape:label="Addressing"
     style="display:inline"
     transform="translate(15.000001,15)" />
</svg>
