<?xml version="1.0" encoding="UTF-8" standalone="no"?>
<!-- Created with Inkscape (http://www.inkscape.org/) -->

<svg
   xmlns:dc="http://purl.org/dc/elements/1.1/"
   xmlns:cc="http://creativecommons.org/ns#"
   xmlns:rdf="http://www.w3.org/1999/02/22-rdf-syntax-ns#"
   xmlns:svg="http://www.w3.org/2000/svg"
   xmlns="http://www.w3.org/2000/svg"
   xmlns:xlink="http://www.w3.org/1999/xlink"
   xmlns:sodipodi="http://sodipodi.sourceforge.net/DTD/sodipodi-0.dtd"
   xmlns:inkscape="http://www.inkscape.org/namespaces/inkscape"
   width="843.60004"
   height="496.05679"
   id="svg2"
   version="1.1"
   inkscape:version="0.92.3 (2405546, 2018-03-11)"
   sodipodi:docname="multicast-native.svg"
   inkscape:export-filename="/home/bernat/code/perso/www.luffy.cx/content/media/images/vxlan/multicast-native.png"
   inkscape:export-xdpi="36.425449"
   inkscape:export-ydpi="36.425449"
   viewBox="0 0 1265.4001 744.08519">
  <defs
     id="defs4">
    <inkscape:path-effect
       effect="spiro"
       id="path-effect6084"
       is_visible="true" />
    <inkscape:path-effect
       is_visible="true"
       id="path-effect6052"
       effect="spiro" />
    <inkscape:path-effect
       effect="spiro"
       id="path-effect6016"
       is_visible="true" />
    <inkscape:path-effect
       effect="spiro"
       id="path-effect5939"
       is_visible="true" />
    <inkscape:path-effect
       effect="spiro"
       id="path-effect5918"
       is_visible="true" />
    <inkscape:path-effect
       is_visible="true"
       id="path-effect5884"
       effect="spiro" />
    <inkscape:path-effect
       effect="spiro"
       id="path-effect5849"
       is_visible="true" />
    <inkscape:path-effect
       effect="spiro"
       id="path-effect5790"
       is_visible="true" />
    <inkscape:path-effect
       effect="spiro"
       id="path-effect5753"
       is_visible="true" />
    <inkscape:path-effect
       effect="spiro"
       id="path-effect5540"
       is_visible="true" />
    <inkscape:path-effect
       effect="spiro"
       id="path-effect5480"
       is_visible="true" />
    <inkscape:path-effect
       effect="spiro"
       id="path-effect5442"
       is_visible="true" />
    <marker
       inkscape:stockid="Arrow1Send"
       orient="auto"
       refY="0"
       refX="0"
       id="Arrow1Send"
       style="overflow:visible">
      <path
         id="path4813"
         d="M 0,0 5,-5 -12.5,0 5,5 Z"
         style="fill-rule:evenodd;stroke:#000000;stroke-width:1.00000003pt"
         transform="matrix(-0.2,0,0,-0.2,-1.2,0)"
         inkscape:connector-curvature="0" />
    </marker>
    <inkscape:path-effect
       effect="spiro"
       id="path-effect4769"
       is_visible="true" />
    <marker
       inkscape:stockid="Arrow1Lstart"
       orient="auto"
       refY="0"
       refX="0"
       id="Arrow1Lstart"
       style="overflow:visible">
      <path
         id="path4128"
         d="M 0,0 5,-5 -12.5,0 5,5 Z"
         style="fill-rule:evenodd;stroke:#000000;stroke-width:1.00000003pt"
         transform="matrix(0.8,0,0,0.8,10,0)"
         inkscape:connector-curvature="0" />
    </marker>
    <linearGradient
       id="linearGradient12001">
      <stop
         id="stop12003"
         offset="0"
         style="stop-color:#1b4a78;stop-opacity:1;" />
      <stop
         id="stop12005"
         offset="1"
         style="stop-color:#5dacd1;stop-opacity:1;" />
    </linearGradient>
    <linearGradient
       id="linearGradient12828">
      <stop
         style="stop-color:#484849;stop-opacity:1;"
         offset="0"
         id="stop12830" />
      <stop
         id="stop12862"
         offset="0"
         style="stop-color:#434344;stop-opacity:1;" />
      <stop
         style="stop-color:#8f8f90;stop-opacity:0.0000000;"
         offset="1.0000000"
         id="stop12832" />
    </linearGradient>
    <marker
       inkscape:stockid="Arrow1Send"
       orient="auto"
       refY="0"
       refX="0"
       id="Arrow1Send-6"
       style="overflow:visible">
      <path
         inkscape:connector-curvature="0"
         id="path4813-2"
         d="M 0,0 5,-5 -12.5,0 5,5 Z"
         style="fill-rule:evenodd;stroke:#000000;stroke-width:1.00000003pt"
         transform="matrix(-0.2,0,0,-0.2,-1.2,0)" />
    </marker>
    <radialGradient
       inkscape:collect="always"
       xlink:href="#linearGradient12828"
       id="radialGradient1325"
       gradientUnits="userSpaceOnUse"
       gradientTransform="matrix(1,0,0,0.177184,0,495.9268)"
       cx="328.57144"
       cy="602.7193"
       fx="328.57144"
       fy="602.7193"
       r="147.14285" />
    <linearGradient
       inkscape:collect="always"
       xlink:href="#linearGradient12001"
       id="linearGradient1327"
       gradientUnits="userSpaceOnUse"
       gradientTransform="matrix(0.471308,0,0,0.471308,118.8781,123.5182)"
       x1="175.71875"
       y1="737.01562"
       x2="470.00089"
       y2="737.01562" />
  </defs>
  <sodipodi:namedview
     id="base"
     pagecolor="#ffffff"
     bordercolor="#666666"
     borderopacity="1.0"
     inkscape:pageopacity="0.0"
     inkscape:pageshadow="2"
     inkscape:zoom="1"
     inkscape:cx="426.79103"
     inkscape:cy="57.9074"
     inkscape:document-units="px"
     inkscape:current-layer="layer3"
     showgrid="false"
     inkscape:window-width="2552"
     inkscape:window-height="1408"
     inkscape:window-x="0"
     inkscape:window-y="24"
     inkscape:window-maximized="0"
     fit-margin-top="30"
     fit-margin-left="30"
     fit-margin-right="30"
     fit-margin-bottom="30"
     scale-x="1.5" />
  <metadata
     id="metadata7">
    <rdf:RDF>
      <cc:Work
         rdf:about="">
        <dc:format>image/svg+xml</dc:format>
        <dc:type
           rdf:resource="http://purl.org/dc/dcmitype/StillImage" />
        <dc:title />
      </cc:Work>
    </rdf:RDF>
  </metadata>
  <g
     inkscape:label="Topology"
     inkscape:groupmode="layer"
     id="layer1"
     transform="translate(293.14118,670.48567)"
     style="display:inline">
    <path
       sodipodi:nodetypes="cc"
       style="fill:none;stroke:#000000;stroke-width:1.93961334px;stroke-linecap:butt;stroke-linejoin:miter;stroke-opacity:1"
       d="M 405.72622,-236.11932 H 257.51097"
       id="path3415"
       inkscape:connector-curvature="0" />
    <path
       inkscape:connector-curvature="0"
       id="path3411"
       d="m 424.9064,-251.41436 -80,-132.29434"
       style="fill:none;stroke:#000000;stroke-width:1.93961346px;stroke-linecap:butt;stroke-linejoin:miter;stroke-opacity:1"
       sodipodi:nodetypes="cc" />
    <path
       sodipodi:nodetypes="cc"
       style="fill:none;stroke:#000000;stroke-width:1.94000006;stroke-linecap:butt;stroke-linejoin:miter;stroke-miterlimit:4;stroke-dasharray:5.82, 1.94;stroke-dashoffset:0;stroke-opacity:1"
       d="m 339.65095,-623.68782 v 67.70855"
       id="path4070"
       inkscape:connector-curvature="0" />
    <path
       inkscape:connector-curvature="0"
       id="path4068"
       d="M 915.50523,-131.83354 H 847.79668"
       style="fill:none;stroke:#000000;stroke-width:1.94000006;stroke-linecap:butt;stroke-linejoin:miter;stroke-miterlimit:4;stroke-dasharray:5.82, 1.94;stroke-dashoffset:0;stroke-opacity:1"
       sodipodi:nodetypes="cc" />
    <path
       sodipodi:nodetypes="cc"
       style="fill:none;stroke:#000000;stroke-width:1.94000018;stroke-linecap:butt;stroke-linejoin:miter;stroke-miterlimit:4;stroke-dasharray:5.82000012, 1.94000004;stroke-dashoffset:0;stroke-opacity:1"
       d="m -160.49478,-131.83354 h -73.34325"
       id="path3294"
       inkscape:connector-curvature="0" />
    <path
       sodipodi:nodetypes="cc"
       style="fill:none;stroke:#000000;stroke-width:1.93961334px;stroke-linecap:butt;stroke-linejoin:miter;stroke-opacity:1"
       d="m 338.9064,-525.02697 v 83.32342"
       id="path3292"
       inkscape:connector-curvature="0" />
    <path
       sodipodi:nodetypes="cc"
       style="fill:none;stroke:#000000;stroke-width:1.93961346px;stroke-linecap:butt;stroke-linejoin:miter;stroke-opacity:1"
       d="M 343.47783,-74.271503 424.9064,-207.99441"
       id="path3286"
       inkscape:connector-curvature="0" />
    <path
       inkscape:connector-curvature="0"
       id="path3284"
       d="M 335.47783,-72.842931 256.9064,-199.46623"
       style="fill:none;stroke:#000000;stroke-width:1.93961334px;stroke-linecap:butt;stroke-linejoin:miter;stroke-opacity:1"
       sodipodi:nodetypes="cc" />
    <path
       inkscape:connector-curvature="0"
       id="path3282"
       d="M 796.09448,-131.83354 H 674.58101"
       style="fill:none;stroke:#000000;stroke-width:1.93961322px;stroke-linecap:butt;stroke-linejoin:miter;stroke-opacity:1"
       sodipodi:nodetypes="cc" />
    <path
       inkscape:connector-curvature="0"
       id="path3278"
       d="M 603.52309,-136.11925 429.73613,-231.83354"
       style="fill:none;stroke:#000000;stroke-width:1.93961334px;stroke-linecap:butt;stroke-linejoin:miter;stroke-opacity:1"
       sodipodi:nodetypes="cc" />
    <path
       inkscape:connector-curvature="0"
       id="path3272"
       d="M 60.011936,-131.83354 H -88.203318"
       style="fill:none;stroke:#000000;stroke-width:1.93961334px;stroke-linecap:butt;stroke-linejoin:miter;stroke-opacity:1"
       sodipodi:nodetypes="cc" />
    <g
       id="layer1-7"
       inkscape:label="Capa 1"
       transform="matrix(0.78202748,0,0,0.78202748,-199.69472,-201.96142)">
      <g
         transform="translate(-168.5715,-361.4285)"
         id="g13678">
        <ellipse
           style="fill:url(#radialGradient1325);fill-opacity:1;stroke:none"
           id="path13641"
           transform="matrix(0.592567,0,0,1.045917,75.12109,-130.213)"
           cx="328.57144"
           cy="602.7193"
           rx="147.14285"
           ry="26.071428" />
        <path
           style="fill:url(#linearGradient1327);fill-opacity:1;stroke:none"
           d="m 201.71286,435.70728 v 0.29457 c 0.006,-0.0975 0.0206,-0.19729 0.0295,-0.29457 z m 138.62351,0 c 0.0302,0.33044 0.0589,0.66821 0.0589,1.00153 v -1.00153 z m 0.0589,1.00153 c -10e-6,15.05224 -31.07495,27.26223 -69.35594,27.26223 -37.68286,10e-6 -68.3765,-11.82771 -69.32649,-26.55527 v 40.67979 c -0.0151,0.23376 -0.0147,0.45704 -0.0147,0.69223 0,0.22546 8.7e-4,0.45335 0.0147,0.67751 0.91151,14.74102 31.61889,26.59945 69.32649,26.59945 37.7076,0 68.41498,-11.85843 69.32648,-26.59945 h 0.0295 v -0.50077 c 9.5e-4,-0.0587 0,-0.11794 0,-0.17674 0,-0.0588 9.4e-4,-0.11803 0,-0.17674 v -41.90224 z"
           id="path13626"
           inkscape:connector-curvature="0" />
        <ellipse
           style="fill:#3a78a0;fill-opacity:1;stroke:none"
           id="path11090"
           transform="matrix(0.471308,0,0,1.045917,116.1877,-191.5659)"
           cx="328.57144"
           cy="602.7193"
           rx="147.14285"
           ry="26.071428" />
        <g
           id="g13565"
           style="fill:#f2fdff;fill-opacity:0.71171169"
           transform="matrix(0.84958,0.276715,-0.703617,0.334119,443.2028,133.2284)">
          <path
             id="path13507"
             d="m 328.66945,592.8253 -5.97867,10.35298 -5.97867,10.35297 h 6.18436 v 21.24074 h 11.53226 v -21.24074 h 6.18435 l -5.97867,-10.35297 z"
             style="fill:#f2fdff;fill-opacity:0.71171169;stroke:none"
             inkscape:connector-curvature="0" />
          <path
             id="path13509"
             d="m 328.66945,687.10951 -5.97867,-10.35298 -5.97867,-10.35297 h 6.18436 v -21.24074 h 11.53226 v 21.24074 h 6.18435 l -5.97867,10.35297 z"
             style="fill:#f2fdff;fill-opacity:0.71171169;stroke:none"
             inkscape:connector-curvature="0" />
          <path
             id="path13511"
             d="m 333.74751,639.82449 10.35297,-5.97867 10.35297,-5.97867 v 6.18436 h 21.24074 v 11.53225 h -21.24074 v 6.18436 l -10.35297,-5.97867 z"
             style="fill:#f2fdff;fill-opacity:0.71171169;stroke:none"
             inkscape:connector-curvature="0" />
          <path
             id="path13513"
             d="m 323.35667,639.82449 -10.35297,-5.97867 -10.35298,-5.97867 v 6.18436 h -21.24073 v 11.53225 h 21.24073 v 6.18436 l 10.35298,-5.97867 z"
             style="fill:#f2fdff;fill-opacity:0.71171169;stroke:none"
             inkscape:connector-curvature="0" />
        </g>
      </g>
    </g>
    <g
       aria-label="R1 (.1)"
       style="color:#000000;font-style:normal;font-variant:normal;font-weight:bold;font-stretch:normal;line-height:0%;font-family:'Bitstream Vera Sans';-inkscape-font-specification:'Bitstream Vera Sans Bold';text-indent:0;text-align:center;text-decoration:none;text-decoration-line:none;letter-spacing:normal;word-spacing:normal;text-transform:none;writing-mode:lr-tb;direction:ltr;text-anchor:middle;display:inline;overflow:visible;visibility:visible;opacity:0.89743593;fill:#000000;fill-opacity:1;fill-rule:nonzero;stroke:none;stroke-width:1.3289237;marker:none;enable-background:accumulate"
       id="text2994">
      <path
         d="m -124.26823,-68.925739 q 1.18164,0 1.68946,-0.439453 0.51757,-0.439454 0.51757,-1.445313 0,-0.996094 -0.51757,-1.425781 -0.50782,-0.429688 -1.68946,-0.429688 h -1.58203 v 3.740235 z m -1.58203,2.597656 v 5.517578 h -3.75976 v -14.580078 h 5.74218 q 2.88086,0 4.21875,0.966797 1.34766,0.966797 1.34766,3.05664 0,1.445313 -0.70312,2.373047 -0.69336,0.927735 -2.09961,1.367188 0.77148,0.175781 1.37695,0.800781 0.61523,0.615234 1.24023,1.875 l 2.04102,4.140625 h -4.00391 l -1.77734,-3.623047 q -0.53711,-1.09375 -1.09375,-1.49414 -0.54688,-0.400391 -1.46484,-0.400391 z"
         style="font-size:20px;line-height:1.39999998"
         id="path1856" />
      <path
         d="m -113.71159,-63.408161 h 3.32032 v -9.423828 l -3.40821,0.703125 v -2.558594 l 3.38868,-0.703125 h 3.57421 v 11.982422 h 3.32032 v 2.597656 h -10.19532 z"
         style="font-size:20px;line-height:1.39999998"
         id="path1858" />
      <path
         d="m -129.1608,-30.173787 h -2.9004 q -1.49414,-2.412109 -2.20703,-4.580078 -0.71289,-2.177734 -0.71289,-4.316406 0,-2.138672 0.71289,-4.326172 0.72266,-2.197266 2.20703,-4.589844 h 2.9004 q -1.25,2.314453 -1.875,4.53125 -0.625,2.207032 -0.625,4.365235 0,2.158203 0.61523,4.375 0.625,2.216797 1.88477,4.541015 z"
         style="font-size:20px;line-height:1.39999998"
         id="path1860" />
      <path
         d="m -125.51823,-36.589802 h 3.51563 v 3.779297 h -3.51563 z"
         style="font-size:20px;line-height:1.39999998"
         id="path1862" />
      <path
         d="m -117.5983,-35.408162 h 3.32031 v -9.423828 l -3.40821,0.703125 v -2.558594 l 3.38868,-0.703125 h 3.57422 v 11.982422 h 3.32031 v 2.597657 h -10.19531 z"
         style="font-size:20px;line-height:1.39999998"
         id="path1864" />
      <path
         d="m -104.43424,-30.173787 q 1.25,-2.324218 1.875,-4.541015 0.625,-2.216797 0.625,-4.375 0,-2.158203 -0.625,-4.365235 -0.625,-2.216797 -1.875,-4.53125 h 2.90039 q 1.48437,2.392578 2.197264,4.589844 0.722656,2.1875 0.722656,4.326172 0,2.138672 -0.71289,4.316406 -0.71289,2.167969 -2.20703,4.580078 z"
         style="font-size:20px;line-height:1.39999998"
         id="path1866" />
    </g>
    <path
       sodipodi:nodetypes="cc"
       style="fill:none;stroke:#000000;stroke-width:1.93961334px;stroke-linecap:butt;stroke-linejoin:miter;stroke-opacity:1"
       d="M 228.07666,-231.83354 84.021847,-138.9764"
       id="path3274"
       inkscape:connector-curvature="0" />
    <g
       id="g3268">
      <use
         height="1052.3622"
         width="744.09448"
         transform="translate(374.9112,-109.59385)"
         id="use2997"
         xlink:href="#layer1-7"
         y="0"
         x="0" />
      <use
         height="744.09448"
         width="1052.3622"
         transform="translate(542.41188,-109.59385)"
         id="use3234"
         xlink:href="#layer1-7"
         y="0"
         x="0" />
    </g>
    <use
       x="0"
       y="0"
       xlink:href="#layer1-7"
       id="use3242"
       transform="translate(922.97985)"
       width="1052.3622"
       height="744.09448" />
    <use
       x="0"
       y="0"
       xlink:href="#layer1-7"
       id="use3244"
       transform="translate(458.66154,-424)"
       width="1052.3622"
       height="744.09448" />
    <path
       inkscape:connector-curvature="0"
       id="path4064"
       d="m -247.17118,-21.658536 c 0,0 -0.39289,-602.857134 566.33698,-602.857134 151.87898,0 195.05299,97.27757 280.44808,153.79543 85.3951,56.51785 160.48336,73.28615 198.404,148.64329 37.92063,75.35714 109.38433,149.70413 118.83994,206.22199 9.4556,56.517853 9.43105,94.196424 9.43105,94.196424"
       style="fill:none;stroke:#000000;stroke-width:1.9400003;stroke-linecap:butt;stroke-linejoin:miter;stroke-miterlimit:4;stroke-dasharray:5.81999996, 1.93999998;stroke-dashoffset:0;stroke-opacity:1"
       sodipodi:nodetypes="cssssc" />
    <g
       aria-label="R3 (.3)"
       style="color:#000000;font-style:normal;font-variant:normal;font-weight:bold;font-stretch:normal;line-height:0%;font-family:'Bitstream Vera Sans';-inkscape-font-specification:'Bitstream Vera Sans Bold';text-indent:0;text-align:center;text-decoration:none;text-decoration-line:none;letter-spacing:normal;word-spacing:normal;text-transform:none;writing-mode:lr-tb;direction:ltr;text-anchor:middle;display:inline;overflow:visible;visibility:visible;opacity:0.89743593;fill:#000000;fill-opacity:1;fill-rule:nonzero;stroke:none;stroke-width:1.3289237;marker:none;enable-background:accumulate"
       id="text4072">
      <path
         d="m 799.21985,-69.915588 q 1.18164,0 1.68945,-0.439454 0.51758,-0.439453 0.51758,-1.445312 0,-0.996094 -0.51758,-1.425781 -0.50781,-0.429688 -1.68945,-0.429688 h -1.58203 v 3.740235 z m -1.58203,2.597656 v 5.517578 h -3.75977 v -14.580078 h 5.74219 q 2.88086,0 4.21875,0.966797 1.34766,0.966797 1.34766,3.05664 0,1.445313 -0.70313,2.373047 -0.69336,0.927735 -2.09961,1.367188 0.77149,0.175781 1.37695,0.800781 0.61524,0.615234 1.24024,1.875 l 2.04101,4.140625 h -4.0039 l -1.77735,-3.623047 q -0.53711,-1.09375 -1.09375,-1.494141 -0.54687,-0.40039 -1.46484,-0.40039 z"
         style="font-size:20px;line-height:1.39999998"
         id="path1843" />
      <path
         d="m 816.74915,-69.661682 q 1.4746,0.380859 2.23632,1.328125 0.77149,0.9375 0.77149,2.392578 0,2.167969 -1.66016,3.300781 -1.66015,1.123047 -4.84375,1.123047 -1.12305,0 -2.25586,-0.185547 -1.12304,-0.175781 -2.22656,-0.537109 v -2.900391 q 1.05469,0.527344 2.08984,0.800781 1.04493,0.263672 2.05078,0.263672 1.49415,0 2.28516,-0.517578 0.80078,-0.517578 0.80078,-1.484375 0,-0.996094 -0.82031,-1.503906 -0.81055,-0.517578 -2.40234,-0.517578 h -1.50391 v -2.421875 h 1.58203 q 1.41602,0 2.10938,-0.439453 0.69336,-0.449219 0.69336,-1.357422 0,-0.839844 -0.67383,-1.298828 -0.67383,-0.458985 -1.9043,-0.458985 -0.9082,0 -1.83594,0.205078 -0.92773,0.205079 -1.8457,0.605469 v -2.753906 q 1.11328,-0.3125 2.20703,-0.46875 1.09375,-0.15625 2.14844,-0.15625 2.8418,0 4.24805,0.9375 1.41601,0.927734 1.41601,2.802734 0,1.279297 -0.67383,2.09961 -0.67383,0.810547 -1.99218,1.142578 z"
         style="font-size:20px;line-height:1.39999998"
         id="path1845" />
      <path
         d="m 794.32727,-31.163636 h -2.90039 q -1.49414,-2.412109 -2.20703,-4.580078 -0.71289,-2.177734 -0.71289,-4.316406 0,-2.138672 0.71289,-4.326172 0.72265,-2.197266 2.20703,-4.589844 h 2.90039 q -1.25,2.314453 -1.875,4.53125 -0.625,2.207032 -0.625,4.365235 0,2.158203 0.61523,4.375 0.625,2.216797 1.88477,4.541015 z"
         style="font-size:20px;line-height:1.39999998"
         id="path1847" />
      <path
         d="m 797.96985,-37.579651 h 3.51562 v 3.779297 h -3.51562 z"
         style="font-size:20px;line-height:1.39999998"
         id="path1849" />
      <path
         d="m 812.86243,-41.661683 q 1.47461,0.38086 2.23632,1.328125 0.77149,0.9375 0.77149,2.392579 0,2.167968 -1.66016,3.300781 -1.66015,1.123047 -4.84375,1.123047 -1.12304,0 -2.25586,-0.185547 -1.12304,-0.175781 -2.22656,-0.53711 v -2.90039 q 1.05469,0.527344 2.08984,0.800781 1.04493,0.263672 2.05079,0.263672 1.49414,0 2.28515,-0.517578 0.80078,-0.517578 0.80078,-1.484375 0,-0.996094 -0.82031,-1.503906 -0.81055,-0.517579 -2.40234,-0.517579 h -1.50391 v -2.421875 h 1.58203 q 1.41602,0 2.10938,-0.439453 0.69336,-0.449218 0.69336,-1.357422 0,-0.839843 -0.67383,-1.298828 -0.67383,-0.458984 -1.9043,-0.458984 -0.9082,0 -1.83594,0.205078 -0.92773,0.205078 -1.8457,0.605469 v -2.753906 q 1.11328,-0.3125 2.20703,-0.46875 1.09375,-0.15625 2.14844,-0.15625 2.8418,0 4.24805,0.9375 1.41601,0.927734 1.41601,2.802734 0,1.279297 -0.67383,2.099609 -0.67382,0.810547 -1.99218,1.142578 z"
         style="font-size:20px;line-height:1.39999998"
         id="path1851" />
      <path
         d="m 819.05383,-31.163636 q 1.25,-2.324218 1.875,-4.541015 0.625,-2.216797 0.625,-4.375 0,-2.158203 -0.625,-4.365235 -0.625,-2.216797 -1.875,-4.53125 h 2.90039 q 1.48438,2.392578 2.19727,4.589844 0.72266,2.1875 0.72266,4.326172 0,2.138672 -0.7129,4.316406 -0.71289,2.167969 -2.20703,4.580078 z"
         style="font-size:20px;line-height:1.39999998"
         id="path1853" />
    </g>
    <g
       aria-label="R2 (.2)"
       style="color:#000000;font-style:normal;font-variant:normal;font-weight:bold;font-stretch:normal;line-height:0%;font-family:'Bitstream Vera Sans';-inkscape-font-specification:'Bitstream Vera Sans Bold';text-indent:0;text-align:start;text-decoration:none;text-decoration-line:none;letter-spacing:normal;word-spacing:normal;text-transform:none;writing-mode:lr-tb;direction:ltr;text-anchor:start;display:inline;overflow:visible;visibility:visible;opacity:0.89743593;fill:#000000;fill-opacity:1;fill-rule:nonzero;stroke:none;stroke-width:1.3289237;marker:none;enable-background:accumulate"
       id="text4076">
      <path
         d="m 414.86792,-564.84448 q 1.18164,0 1.68945,-0.43946 0.51758,-0.43945 0.51758,-1.44531 0,-0.99609 -0.51758,-1.42578 -0.50781,-0.42969 -1.68945,-0.42969 h -1.58203 v 3.74024 z m -1.58203,2.59765 v 5.51758 h -3.75977 v -14.58008 h 5.74219 q 2.88086,0 4.21875,0.9668 1.34766,0.9668 1.34766,3.05664 0,1.44531 -0.70313,2.37305 -0.69336,0.92773 -2.09961,1.36719 0.77149,0.17578 1.37696,0.80078 0.61523,0.61523 1.24023,1.875 l 2.04102,4.14062 h -4.00391 l -1.77734,-3.62304 q -0.53711,-1.09375 -1.09375,-1.49415 -0.54688,-0.40039 -1.46485,-0.40039 z"
         style="font-size:20px;line-height:1.39999998"
         id="path1830" />
      <path
         d="m 428.84253,-559.49292 h 6.41601 v 2.76367 h -10.5957 v -2.76367 l 5.32227,-4.69727 q 0.71289,-0.64453 1.05468,-1.25976 0.3418,-0.61524 0.3418,-1.2793 0,-1.02539 -0.69336,-1.65039 -0.68359,-0.625 -1.82617,-0.625 -0.87891,0 -1.92383,0.38086 -1.04492,0.37109 -2.23633,1.11328 v -3.20312 q 1.26954,-0.41992 2.50977,-0.63477 1.24023,-0.22461 2.43164,-0.22461 2.61719,0 4.0625,1.15235 1.45508,1.15234 1.45508,3.21289 0,1.1914 -0.61524,2.22656 -0.61523,1.02539 -2.58789,2.75391 z"
         style="font-size:20px;line-height:1.39999998"
         id="path1832" />
      <path
         d="m 415.22925,-526.09253 h -2.90039 q -1.49414,-2.41211 -2.20703,-4.58008 -0.71289,-2.17773 -0.71289,-4.3164 0,-2.13868 0.71289,-4.32618 0.72265,-2.19726 2.20703,-4.58984 h 2.90039 q -1.25,2.31445 -1.875,4.53125 -0.625,2.20703 -0.625,4.36523 0,2.15821 0.61523,4.375 0.625,2.2168 1.88477,4.54102 z"
         style="font-size:20px;line-height:1.39999998"
         id="path1834" />
      <path
         d="m 418.87183,-532.50855 h 3.51562 v 3.7793 h -3.51562 z"
         style="font-size:20px;line-height:1.39999998"
         id="path1836" />
      <path
         d="m 430.20972,-531.49292 h 6.41601 v 2.76367 h -10.5957 v -2.76367 l 5.32226,-4.69727 q 0.7129,-0.64453 1.05469,-1.25976 0.3418,-0.61524 0.3418,-1.2793 0,-1.02539 -0.69336,-1.65039 -0.68359,-0.625 -1.82617,-0.625 -0.87891,0 -1.92383,0.38086 -1.04492,0.37109 -2.23633,1.11328 v -3.20312 q 1.26953,-0.41993 2.50977,-0.63477 1.24023,-0.22461 2.43164,-0.22461 2.61719,0 4.0625,1.15235 1.45508,1.15234 1.45508,3.21289 0,1.1914 -0.61524,2.22656 -0.61523,1.02539 -2.58789,2.7539 z"
         style="font-size:20px;line-height:1.39999998"
         id="path1838" />
      <path
         d="m 439.95581,-526.09253 q 1.25,-2.32422 1.875,-4.54102 0.625,-2.21679 0.625,-4.375 0,-2.1582 -0.625,-4.36523 -0.625,-2.2168 -1.875,-4.53125 h 2.90039 q 1.48438,2.39258 2.19727,4.58984 0.72265,2.1875 0.72265,4.32618 0,2.13867 -0.71289,4.3164 -0.71289,2.16797 -2.20703,4.58008 z"
         style="font-size:20px;line-height:1.39999998"
         id="path1840" />
    </g>
    <g
       aria-label="C1 (.111)"
       style="color:#000000;font-style:normal;font-variant:normal;font-weight:bold;font-stretch:normal;line-height:0%;font-family:'Bitstream Vera Sans';-inkscape-font-specification:'Bitstream Vera Sans Bold';text-indent:0;text-align:end;text-decoration:none;text-decoration-line:none;letter-spacing:normal;word-spacing:normal;text-transform:none;writing-mode:lr-tb;direction:ltr;text-anchor:end;display:inline;overflow:visible;visibility:visible;opacity:0.89743593;fill:#000000;fill-opacity:1;fill-rule:nonzero;stroke:none;stroke-width:1.3289237;marker:none;enable-background:accumulate"
       id="text4080">
      <path
         d="m 178.72125,-267.36761 q -1.03515,0.5371 -2.1582,0.81054 -1.12305,0.27344 -2.34375,0.27344 -3.64258,0 -5.77149,-2.03125 -2.1289,-2.04102 -2.1289,-5.52734 0,-3.4961 2.1289,-5.52735 2.12891,-2.04101 5.77149,-2.04101 1.2207,0 2.34375,0.27343 1.12305,0.27344 2.1582,0.81055 v 3.01758 q -1.04492,-0.71289 -2.06054,-1.04492 -1.01563,-0.33203 -2.13868,-0.33203 -2.01172,0 -3.16406,1.28906 -1.15234,1.28906 -1.15234,3.55469 0,2.25586 1.15234,3.54492 1.15234,1.28906 3.16406,1.28906 1.12305,0 2.13868,-0.33203 1.01562,-0.33203 2.06054,-1.04492 z"
         style="font-size:20px;line-height:1.39999998"
         id="path1813" />
      <path
         d="m 182.35406,-269.16449 h 3.32032 v -9.42383 l -3.40821,0.70313 v -2.5586 l 3.38868,-0.70312 h 3.57421 v 11.98242 h 3.32032 v 2.59766 h -10.19532 z"
         style="font-size:20px;line-height:1.39999998"
         id="path1815" />
      <path
         d="m 133.83844,-235.93012 h -2.90039 q -1.49414,-2.4121 -2.20703,-4.58007 -0.71289,-2.17774 -0.71289,-4.31641 0,-2.13867 0.71289,-4.32617 0.72265,-2.19727 2.20703,-4.58985 h 2.90039 q -1.25,2.31446 -1.875,4.53125 -0.625,2.20704 -0.625,4.36524 0,2.1582 0.61523,4.375 0.625,2.2168 1.88477,4.54101 z"
         style="font-size:20px;line-height:1.39999998"
         id="path1817" />
      <path
         d="m 137.48102,-242.34613 h 3.51562 v 3.7793 h -3.51562 z"
         style="font-size:20px;line-height:1.39999998"
         id="path1819" />
      <path
         d="m 145.40094,-241.16449 h 3.32031 v -9.42383 l -3.4082,0.70313 v -2.5586 l 3.38867,-0.70312 h 3.57422 v 11.98242 h 3.32031 v 2.59766 h -10.19531 z"
         style="font-size:20px;line-height:1.39999998"
         id="path1821" />
      <path
         d="m 159.30719,-241.16449 h 3.32031 v -9.42383 l -3.4082,0.70313 v -2.5586 l 3.38867,-0.70312 h 3.57422 v 11.98242 h 3.32031 v 2.59766 h -10.19531 z"
         style="font-size:20px;line-height:1.39999998"
         id="path1823" />
      <path
         d="m 173.21344,-241.16449 h 3.32031 v -9.42383 l -3.4082,0.70313 v -2.5586 l 3.38867,-0.70312 h 3.57422 v 11.98242 h 3.32031 v 2.59766 h -10.19531 z"
         style="font-size:20px;line-height:1.39999998"
         id="path1825" />
      <path
         d="m 186.3775,-235.93012 q 1.25,-2.32421 1.875,-4.54101 0.625,-2.2168 0.625,-4.375 0,-2.1582 -0.625,-4.36524 -0.625,-2.21679 -1.875,-4.53125 h 2.90039 q 1.48438,2.39258 2.19727,4.58985 0.72265,2.1875 0.72265,4.32617 0,2.13867 -0.71289,4.31641 -0.71289,2.16797 -2.20703,4.58007 z"
         style="font-size:20px;line-height:1.39999998"
         id="path1827" />
    </g>
    <g
       aria-label="C2 (.122)"
       style="color:#000000;font-style:normal;font-variant:normal;font-weight:bold;font-stretch:normal;line-height:0%;font-family:'Bitstream Vera Sans';-inkscape-font-specification:'Bitstream Vera Sans Bold';text-indent:0;text-align:start;text-decoration:none;text-decoration-line:none;letter-spacing:normal;word-spacing:normal;text-transform:none;writing-mode:lr-tb;direction:ltr;text-anchor:start;display:inline;overflow:visible;visibility:visible;opacity:0.89743593;fill:#000000;fill-opacity:1;fill-rule:nonzero;stroke:none;stroke-width:1.3289237;marker:none;enable-background:accumulate"
       id="text4084">
      <path
         d="m 494.65106,-266.35745 q -1.03515,0.53711 -2.1582,0.81054 -1.12305,0.27344 -2.34375,0.27344 -3.64258,0 -5.77149,-2.03125 -2.1289,-2.04101 -2.1289,-5.52734 0,-3.4961 2.1289,-5.52735 2.12891,-2.04101 5.77149,-2.04101 1.2207,0 2.34375,0.27344 1.12305,0.27343 2.1582,0.81054 v 3.01758 q -1.04492,-0.71289 -2.06054,-1.04492 -1.01563,-0.33203 -2.13868,-0.33203 -2.01172,0 -3.16406,1.28906 -1.15234,1.28906 -1.15234,3.55469 0,2.25586 1.15234,3.54492 1.15234,1.28906 3.16406,1.28906 1.12305,0 2.13868,-0.33203 1.01562,-0.33203 2.06054,-1.04492 z"
         style="font-size:20px;line-height:1.39999998"
         id="path1796" />
      <path
         d="m 501.70184,-268.32034 h 6.41602 v 2.76367 h -10.5957 v -2.76367 l 5.32226,-4.69727 q 0.71289,-0.64453 1.05469,-1.25976 0.3418,-0.61524 0.3418,-1.2793 0,-1.02539 -0.69336,-1.65039 -0.6836,-0.625 -1.82618,-0.625 -0.8789,0 -1.92382,0.38086 -1.04493,0.37109 -2.23633,1.11328 v -3.20313 q 1.26953,-0.41992 2.50976,-0.63476 1.24024,-0.22461 2.43164,-0.22461 2.61719,0 4.0625,1.15234 1.45508,1.15235 1.45508,3.21289 0,1.19141 -0.61523,2.22657 -0.61524,1.02539 -2.58789,2.7539 z"
         style="font-size:20px;line-height:1.39999998"
         id="path1798" />
      <path
         d="m 488.79169,-234.91995 h -2.90039 q -1.49414,-2.41211 -2.20703,-4.58008 -0.7129,-2.17774 -0.7129,-4.31641 0,-2.13867 0.7129,-4.32617 0.72265,-2.19726 2.20703,-4.58984 h 2.90039 q -1.25,2.31445 -1.875,4.53125 -0.625,2.20703 -0.625,4.36523 0,2.1582 0.61523,4.375 0.625,2.2168 1.88477,4.54102 z"
         style="font-size:20px;line-height:1.39999998"
         id="path1800" />
      <path
         d="m 492.43427,-241.33597 h 3.51562 v 3.7793 h -3.51562 z"
         style="font-size:20px;line-height:1.39999998"
         id="path1802" />
      <path
         d="m 500.35419,-240.15433 h 3.32031 v -9.42383 l -3.4082,0.70313 v -2.55859 l 3.38867,-0.70313 h 3.57422 v 11.98242 h 3.32031 v 2.59766 h -10.19531 z"
         style="font-size:20px;line-height:1.39999998"
         id="path1804" />
      <path
         d="m 517.67841,-240.32034 h 6.41601 v 2.76367 h -10.5957 v -2.76367 l 5.32226,-4.69727 q 0.71289,-0.64453 1.05469,-1.25976 0.3418,-0.61524 0.3418,-1.2793 0,-1.02539 -0.69336,-1.65039 -0.68359,-0.625 -1.82617,-0.625 -0.87891,0 -1.92383,0.38086 -1.04492,0.37109 -2.23633,1.11328 v -3.20313 q 1.26953,-0.41992 2.50977,-0.63476 1.24023,-0.22461 2.43164,-0.22461 2.61718,0 4.0625,1.15234 1.45508,1.15235 1.45508,3.21289 0,1.19141 -0.61524,2.22657 -0.61523,1.02539 -2.58789,2.7539 z"
         style="font-size:20px;line-height:1.39999998"
         id="path1806" />
      <path
         d="m 531.58466,-240.32034 h 6.41601 v 2.76367 h -10.5957 v -2.76367 l 5.32226,-4.69727 q 0.71289,-0.64453 1.05469,-1.25976 0.3418,-0.61524 0.3418,-1.2793 0,-1.02539 -0.69336,-1.65039 -0.68359,-0.625 -1.82617,-0.625 -0.87891,0 -1.92383,0.38086 -1.04492,0.37109 -2.23633,1.11328 v -3.20313 q 1.26953,-0.41992 2.50977,-0.63476 1.24023,-0.22461 2.43164,-0.22461 2.61718,0 4.0625,1.15234 1.45508,1.15235 1.45508,3.21289 0,1.19141 -0.61524,2.22657 -0.61523,1.02539 -2.58789,2.7539 z"
         style="font-size:20px;line-height:1.39999998"
         id="path1808" />
      <path
         d="m 541.33075,-234.91995 q 1.25,-2.32422 1.875,-4.54102 0.625,-2.2168 0.625,-4.375 0,-2.1582 -0.625,-4.36523 -0.625,-2.2168 -1.875,-4.53125 h 2.90039 q 1.48438,2.39258 2.19727,4.58984 0.72265,2.1875 0.72265,4.32617 0,2.13867 -0.71289,4.31641 -0.71289,2.16797 -2.20703,4.58008 z"
         style="font-size:20px;line-height:1.39999998"
         id="path1810" />
    </g>
    <g
       aria-label="C3 (.133)"
       style="color:#000000;font-style:normal;font-variant:normal;font-weight:bold;font-stretch:normal;line-height:0%;font-family:'Bitstream Vera Sans';-inkscape-font-specification:'Bitstream Vera Sans Bold';text-indent:0;text-align:start;text-decoration:none;text-decoration-line:none;letter-spacing:normal;word-spacing:normal;text-transform:none;writing-mode:lr-tb;direction:ltr;text-anchor:start;display:inline;overflow:visible;visibility:visible;opacity:0.89743593;fill:#000000;fill-opacity:1;fill-rule:nonzero;stroke:none;stroke-width:1.3289237;marker:none;enable-background:accumulate"
       id="text4092">
      <path
         d="m 305.08862,21.898512 q -1.03515,0.537109 -2.1582,0.810547 -1.12305,0.273437 -2.34375,0.273437 -3.64258,0 -5.77148,-2.03125 -2.12891,-2.041015 -2.12891,-5.527343 0,-3.496094 2.12891,-5.5273442 2.1289,-2.0410157 5.77148,-2.0410157 1.2207,0 2.34375,0.2734375 1.12305,0.2734375 2.1582,0.8105469 v 3.0175785 q -1.04492,-0.712891 -2.06054,-1.044922 -1.01563,-0.332031 -2.13868,-0.332031 -2.01171,0 -3.16406,1.289062 -1.15234,1.289063 -1.15234,3.554688 0,2.255859 1.15234,3.544921 1.15235,1.289063 3.16406,1.289063 1.12305,0 2.13868,-0.332031 1.01562,-0.332032 2.06054,-1.044922 z"
         style="font-size:20px;line-height:1.39999998"
         id="path1779" />
      <path
         d="m 315.69409,14.837965 q 1.47461,0.380859 2.23633,1.328125 0.77148,0.9375 0.77148,2.392578 0,2.167969 -1.66015,3.300781 -1.66016,1.123047 -4.84375,1.123047 -1.12305,0 -2.25586,-0.185547 -1.12305,-0.175781 -2.22656,-0.537109 v -2.900391 q 1.05468,0.527344 2.08984,0.800782 1.04492,0.263672 2.05078,0.263672 1.49414,0 2.28516,-0.517579 0.80078,-0.517578 0.80078,-1.484375 0,-0.996093 -0.82031,-1.503906 -0.81055,-0.517578 -2.40235,-0.517578 h -1.5039 V 13.97859 h 1.58203 q 1.41601,0 2.10937,-0.439453 0.69336,-0.449219 0.69336,-1.357422 0,-0.839844 -0.67383,-1.298828 -0.67382,-0.458984 -1.90429,-0.458984 -0.90821,0 -1.83594,0.205078 -0.92774,0.205078 -1.8457,0.605468 V 8.4805431 q 1.11328,-0.3125 2.20703,-0.46875 1.09375,-0.15625 2.14843,-0.15625 2.8418,0 4.24805,0.9375 1.41602,0.9277344 1.41602,2.8027349 0,1.279296 -0.67383,2.099609 -0.67383,0.810547 -1.99219,1.142578 z"
         style="font-size:20px;line-height:1.39999998"
         id="path1781" />
      <path
         d="m 334.77612,25.336012 h -2.90039 q -1.49414,-2.412109 -2.20703,-4.580078 -0.71289,-2.177735 -0.71289,-4.316406 0,-2.138672 0.71289,-4.326172 0.72266,-2.197266 2.20703,-4.5898441 h 2.90039 q -1.25,2.3144531 -1.875,4.5312501 -0.625,2.207031 -0.625,4.365234 0,2.158203 0.61524,4.375 0.625,2.216797 1.88476,4.541016 z"
         style="font-size:20px;line-height:1.39999998"
         id="path1783" />
      <path
         d="m 338.4187,18.919996 h 3.51563 v 3.779297 h -3.51563 z"
         style="font-size:20px;line-height:1.39999998"
         id="path1785" />
      <path
         d="m 346.33862,20.101637 h 3.32032 v -9.423828 l -3.40821,0.703125 V 8.82234 l 3.38867,-0.703125 h 3.57422 v 11.982422 h 3.32032 v 2.597656 h -10.19532 z"
         style="font-size:20px;line-height:1.39999998"
         id="path1787" />
      <path
         d="m 367.21753,14.837965 q 1.47461,0.380859 2.23633,1.328125 0.77148,0.9375 0.77148,2.392578 0,2.167969 -1.66015,3.300781 -1.66016,1.123047 -4.84375,1.123047 -1.12305,0 -2.25586,-0.185547 -1.12305,-0.175781 -2.22657,-0.537109 v -2.900391 q 1.05469,0.527344 2.08985,0.800782 1.04492,0.263672 2.05078,0.263672 1.49414,0 2.28515,-0.517579 0.80079,-0.517578 0.80079,-1.484375 0,-0.996093 -0.82032,-1.503906 -0.81054,-0.517578 -2.40234,-0.517578 h -1.50391 V 13.97859 h 1.58203 q 1.41602,0 2.10938,-0.439453 0.69336,-0.449219 0.69336,-1.357422 0,-0.839844 -0.67383,-1.298828 -0.67383,-0.458984 -1.9043,-0.458984 -0.9082,0 -1.83593,0.205078 -0.92774,0.205078 -1.84571,0.605468 V 8.4805431 q 1.11328,-0.3125 2.20703,-0.46875 1.09375,-0.15625 2.14844,-0.15625 2.8418,0 4.24805,0.9375 1.41601,0.9277344 1.41601,2.8027349 0,1.279296 -0.67382,2.099609 -0.67383,0.810547 -1.99219,1.142578 z"
         style="font-size:20px;line-height:1.39999998"
         id="path1789" />
      <path
         d="m 381.12378,14.837965 q 1.47461,0.380859 2.23633,1.328125 0.77148,0.9375 0.77148,2.392578 0,2.167969 -1.66015,3.300781 -1.66016,1.123047 -4.84375,1.123047 -1.12305,0 -2.25586,-0.185547 -1.12305,-0.175781 -2.22657,-0.537109 v -2.900391 q 1.05469,0.527344 2.08985,0.800782 1.04492,0.263672 2.05078,0.263672 1.49414,0 2.28515,-0.517579 0.80079,-0.517578 0.80079,-1.484375 0,-0.996093 -0.82032,-1.503906 -0.81054,-0.517578 -2.40234,-0.517578 h -1.50391 V 13.97859 h 1.58203 q 1.41602,0 2.10938,-0.439453 0.69336,-0.449219 0.69336,-1.357422 0,-0.839844 -0.67383,-1.298828 -0.67383,-0.458984 -1.9043,-0.458984 -0.9082,0 -1.83593,0.205078 -0.92774,0.205078 -1.84571,0.605468 V 8.4805431 q 1.11328,-0.3125 2.20703,-0.46875 1.09375,-0.15625 2.14844,-0.15625 2.8418,0 4.24805,0.9375 1.41601,0.9277344 1.41601,2.8027349 0,1.279296 -0.67382,2.099609 -0.67383,0.810547 -1.99219,1.142578 z"
         style="font-size:20px;line-height:1.39999998"
         id="path1791" />
      <path
         d="m 387.31519,25.336012 q 1.25,-2.324219 1.875,-4.541016 0.625,-2.216797 0.625,-4.375 0,-2.158203 -0.625,-4.365234 -0.625,-2.216797 -1.875,-4.5312501 h 2.90039 q 1.48437,2.3925781 2.19726,4.5898441 0.72266,2.1875 0.72266,4.326172 0,2.138671 -0.71289,4.316406 -0.71289,2.167969 -2.20703,4.580078 z"
         style="font-size:20px;line-height:1.39999998"
         id="path1793" />
    </g>
    <g
       aria-label=" "
       transform="translate(-22.219218,-385.76213)"
       style="font-style:normal;font-variant:normal;font-weight:normal;font-stretch:normal;line-height:0%;font-family:'Linux Biolinum O';-inkscape-font-specification:'Linux Biolinum O';letter-spacing:0px;word-spacing:0px;fill:#000000;fill-opacity:1;stroke:none"
       id="text4574" />
    <path
       sodipodi:nodetypes="cc"
       style="fill:none;stroke:#000000;stroke-width:1.93961334px;stroke-linecap:butt;stroke-linejoin:miter;stroke-opacity:1"
       d="M 256.9064,-271.41436 331.19211,-380.8948"
       id="path3407"
       inkscape:connector-curvature="0" />
    <use
       x="0"
       y="0"
       xlink:href="#layer1-7"
       id="use3405"
       transform="translate(460,-280)"
       width="900.65863"
       height="616.58936" />
    <g
       aria-label="E1 (.11)"
       style="color:#000000;font-style:normal;font-variant:normal;font-weight:bold;font-stretch:normal;line-height:0%;font-family:'Bitstream Vera Sans';-inkscape-font-specification:'Bitstream Vera Sans Bold';text-indent:0;text-align:center;text-decoration:none;text-decoration-line:none;letter-spacing:normal;word-spacing:normal;text-transform:none;writing-mode:lr-tb;direction:ltr;text-anchor:middle;display:inline;overflow:visible;visibility:visible;opacity:0.89743593;fill:#000000;fill-opacity:1;fill-rule:nonzero;stroke:none;stroke-width:1.3289237;marker:none;enable-background:accumulate"
       id="text3417">
      <path
         d="m 51.878052,-79.141815 h 10.146484 v 2.841797 h -6.386719 v 2.714843 h 6.00586 v 2.841797 h -6.00586 v 3.339844 h 6.601563 v 2.841797 H 51.878052 Z"
         style="font-size:20px;line-height:1.39999998"
         id="path1763" />
      <path
         d="m 66.057739,-67.159393 h 3.320313 v -9.423828 l -3.408203,0.703125 v -2.558594 l 3.388672,-0.703125 h 3.574218 v 11.982422 h 3.320313 v 2.597656 H 66.057739 Z"
         style="font-size:20px;line-height:1.39999998"
         id="path1765" />
      <path
         d="M 44.514771,-33.925019 H 41.61438 q -1.494141,-2.412109 -2.207031,-4.580078 -0.712891,-2.177734 -0.712891,-4.316406 0,-2.138672 0.712891,-4.326172 0.722656,-2.197266 2.207031,-4.589844 h 2.900391 q -1.25,2.314453 -1.875,4.53125 -0.625,2.207031 -0.625,4.365235 0,2.158203 0.615234,4.375 0.625,2.216796 1.884766,4.541015 z"
         style="font-size:20px;line-height:1.39999998"
         id="path1767" />
      <path
         d="m 48.157349,-40.341034 h 3.515625 v 3.779296 h -3.515625 z"
         style="font-size:20px;line-height:1.39999998"
         id="path1769" />
      <path
         d="m 56.077271,-39.159394 h 3.320312 v -9.423828 l -3.408203,0.703125 v -2.558594 l 3.388672,-0.703125 h 3.574219 v 11.982422 h 3.320312 v 2.597656 H 56.077271 Z"
         style="font-size:20px;line-height:1.39999998"
         id="path1771" />
      <path
         d="m 69.983521,-39.159394 h 3.320312 v -9.423828 l -3.408203,0.703125 v -2.558594 l 3.388672,-0.703125 h 3.574219 v 11.982422 h 3.320312 v 2.597656 H 69.983521 Z"
         style="font-size:20px;line-height:1.39999998"
         id="path1773" />
      <path
         d="m 83.147583,-33.925019 q 1.25,-2.324219 1.875,-4.541015 0.625,-2.216797 0.625,-4.375 0,-2.158204 -0.625,-4.365235 -0.625,-2.216797 -1.875,-4.53125 h 2.900391 q 1.484375,2.392578 2.197265,4.589844 0.722657,2.1875 0.722657,4.326172 0,2.138672 -0.712891,4.316406 -0.712891,2.167969 -2.207031,4.580078 z"
         style="font-size:20px;line-height:1.39999998"
         id="path1775" />
    </g>
    <g
       aria-label="E3 (.33)"
       style="color:#000000;font-style:normal;font-variant:normal;font-weight:bold;font-stretch:normal;line-height:0%;font-family:'Bitstream Vera Sans';-inkscape-font-specification:'Bitstream Vera Sans Bold';text-indent:0;text-align:center;text-decoration:none;text-decoration-line:none;letter-spacing:normal;word-spacing:normal;text-transform:none;writing-mode:lr-tb;direction:ltr;text-anchor:middle;display:inline;overflow:visible;visibility:visible;opacity:0.89743593;fill:#000000;fill-opacity:1;fill-rule:nonzero;stroke:none;stroke-width:1.3289237;marker:none;enable-background:accumulate"
       id="text3421">
      <path
         d="m 614.70544,-78.13166 h 10.14649 v 2.841796 h -6.38672 v 2.714844 h 6.00586 v 2.841797 h -6.00586 v 3.339844 h 6.60156 v 2.841797 h -10.36133 z"
         style="font-size:20px;line-height:1.39999998"
         id="path1748" />
      <path
         d="m 635.85779,-71.41291 q 1.47461,0.380859 2.23633,1.328125 0.77148,0.9375 0.77148,2.392578 0,2.167968 -1.66016,3.300781 -1.66015,1.123047 -4.84375,1.123047 -1.12304,0 -2.25586,-0.185547 -1.12304,-0.175781 -2.22656,-0.537109 v -2.900391 q 1.05469,0.527344 2.08985,0.800781 1.04492,0.263672 2.05078,0.263672 1.49414,0 2.28515,-0.517578 0.80078,-0.517578 0.80078,-1.484375 0,-0.996094 -0.82031,-1.503906 -0.81054,-0.517578 -2.40234,-0.517578 h -1.50391 v -2.421875 h 1.58203 q 1.41602,0 2.10938,-0.439454 0.69336,-0.449218 0.69336,-1.357421 0,-0.839844 -0.67383,-1.298829 -0.67383,-0.458984 -1.9043,-0.458984 -0.9082,0 -1.83593,0.205078 -0.92774,0.205078 -1.84571,0.605469 v -2.753906 q 1.11328,-0.3125 2.20703,-0.46875 1.09375,-0.15625 2.14844,-0.15625 2.8418,0 4.24805,0.9375 1.41601,0.927734 1.41601,2.802734 0,1.279297 -0.67382,2.099609 -0.67383,0.810547 -1.99219,1.142579 z"
         style="font-size:20px;line-height:1.39999998"
         id="path1750" />
      <path
         d="m 607.34216,-32.914864 h -2.90039 q -1.49414,-2.412109 -2.20703,-4.580078 -0.71289,-2.177735 -0.71289,-4.316406 0,-2.138672 0.71289,-4.326172 0.72266,-2.197266 2.20703,-4.589844 h 2.90039 q -1.25,2.314453 -1.875,4.53125 -0.625,2.207031 -0.625,4.365234 0,2.158203 0.61524,4.375 0.625,2.216797 1.88476,4.541016 z"
         style="font-size:20px;line-height:1.39999998"
         id="path1752" />
      <path
         d="m 610.98474,-39.33088 h 3.51563 v 3.779297 h -3.51563 z"
         style="font-size:20px;line-height:1.39999998"
         id="path1754" />
      <path
         d="m 625.87732,-43.412911 q 1.47461,0.380859 2.23633,1.328125 0.77148,0.9375 0.77148,2.392578 0,2.167969 -1.66015,3.300781 -1.66016,1.123047 -4.84375,1.123047 -1.12305,0 -2.25586,-0.185547 -1.12305,-0.175781 -2.22657,-0.537109 v -2.900391 q 1.05469,0.527344 2.08985,0.800782 1.04492,0.263672 2.05078,0.263672 1.49414,0 2.28515,-0.517579 0.80079,-0.517578 0.80079,-1.484375 0,-0.996093 -0.82032,-1.503906 -0.81054,-0.517578 -2.40234,-0.517578 h -1.50391 v -2.421875 h 1.58203 q 1.41602,0 2.10938,-0.439453 0.69336,-0.449219 0.69336,-1.357422 0,-0.839844 -0.67383,-1.298828 -0.67383,-0.458984 -1.9043,-0.458984 -0.9082,0 -1.83593,0.205078 -0.92774,0.205078 -1.84571,0.605468 v -2.753906 q 1.11328,-0.3125 2.20703,-0.46875 1.09375,-0.15625 2.14844,-0.15625 2.8418,0 4.24805,0.9375 1.41601,0.927735 1.41601,2.802735 0,1.279296 -0.67382,2.099609 -0.67383,0.810547 -1.99219,1.142578 z"
         style="font-size:20px;line-height:1.39999998"
         id="path1756" />
      <path
         d="m 639.78357,-43.412911 q 1.47461,0.380859 2.23633,1.328125 0.77148,0.9375 0.77148,2.392578 0,2.167969 -1.66015,3.300781 -1.66016,1.123047 -4.84375,1.123047 -1.12305,0 -2.25586,-0.185547 -1.12305,-0.175781 -2.22657,-0.537109 v -2.900391 q 1.05469,0.527344 2.08985,0.800782 1.04492,0.263672 2.05078,0.263672 1.49414,0 2.28515,-0.517579 0.80079,-0.517578 0.80079,-1.484375 0,-0.996093 -0.82032,-1.503906 -0.81054,-0.517578 -2.40234,-0.517578 h -1.50391 v -2.421875 h 1.58203 q 1.41602,0 2.10938,-0.439453 0.69336,-0.449219 0.69336,-1.357422 0,-0.839844 -0.67383,-1.298828 -0.67383,-0.458984 -1.9043,-0.458984 -0.9082,0 -1.83593,0.205078 -0.92774,0.205078 -1.84571,0.605468 v -2.753906 q 1.11328,-0.3125 2.20703,-0.46875 1.09375,-0.15625 2.14844,-0.15625 2.8418,0 4.24805,0.9375 1.41601,0.927735 1.41601,2.802735 0,1.279296 -0.67382,2.099609 -0.67383,0.810547 -1.99219,1.142578 z"
         style="font-size:20px;line-height:1.39999998"
         id="path1758" />
      <path
         d="m 645.97498,-32.914864 q 1.25,-2.324219 1.875,-4.541016 0.625,-2.216797 0.625,-4.375 0,-2.158203 -0.625,-4.365234 -0.625,-2.216797 -1.875,-4.53125 h 2.90039 q 1.48437,2.392578 2.19726,4.589844 0.72266,2.1875 0.72266,4.326172 0,2.138671 -0.71289,4.316406 -0.71289,2.167969 -2.20703,4.580078 z"
         style="font-size:20px;line-height:1.39999998"
         id="path1760" />
    </g>
    <g
       aria-label="E2 (.22)"
       style="color:#000000;font-style:normal;font-variant:normal;font-weight:bold;font-stretch:normal;line-height:0%;font-family:'Bitstream Vera Sans';-inkscape-font-specification:'Bitstream Vera Sans Bold';text-indent:0;text-align:center;text-decoration:none;text-decoration-line:none;letter-spacing:normal;word-spacing:normal;text-transform:none;writing-mode:lr-tb;direction:ltr;text-anchor:middle;display:inline;overflow:visible;visibility:visible;opacity:0.89743593;fill:#000000;fill-opacity:1;fill-rule:nonzero;stroke:none;stroke-width:1.3289237;marker:none;enable-background:accumulate"
       id="text3425">
      <path
         d="m 242.76636,-425.30936 h 10.14648 v 2.8418 h -6.38672 v 2.71484 h 6.00586 v 2.8418 h -6.00586 v 3.33984 h 6.60157 v 2.8418 h -10.36133 z"
         style="font-size:20px;line-height:1.39999998"
         id="path1733" />
      <path
         d="m 260.36401,-413.49295 h 6.41602 v 2.76367 h -10.5957 v -2.76367 l 5.32226,-4.69727 q 0.71289,-0.64453 1.05469,-1.25976 0.3418,-0.61524 0.3418,-1.2793 0,-1.02539 -0.69336,-1.65039 -0.6836,-0.625 -1.82618,-0.625 -0.8789,0 -1.92382,0.38086 -1.04493,0.37109 -2.23633,1.11328 v -3.20312 q 1.26953,-0.41993 2.50976,-0.63477 1.24024,-0.22461 2.43164,-0.22461 2.61719,0 4.0625,1.15235 1.45508,1.15234 1.45508,3.21289 0,1.1914 -0.61523,2.22656 -0.61524,1.02539 -2.58789,2.7539 z"
         style="font-size:20px;line-height:1.39999998"
         id="path1735" />
      <path
         d="m 235.40308,-380.09256 h -2.90039 q -1.49415,-2.41211 -2.20704,-4.58008 -0.71289,-2.17773 -0.71289,-4.3164 0,-2.13868 0.71289,-4.32618 0.72266,-2.19726 2.20704,-4.58984 h 2.90039 q -1.25,2.31445 -1.875,4.53125 -0.625,2.20703 -0.625,4.36523 0,2.15821 0.61523,4.375 0.625,2.2168 1.88477,4.54102 z"
         style="font-size:20px;line-height:1.39999998"
         id="path1737" />
      <path
         d="m 239.04565,-386.50858 h 3.51563 v 3.7793 h -3.51563 z"
         style="font-size:20px;line-height:1.39999998"
         id="path1739" />
      <path
         d="m 250.38354,-385.49295 h 6.41602 v 2.76367 h -10.5957 v -2.76367 l 5.32226,-4.69727 q 0.71289,-0.64453 1.05469,-1.25976 0.3418,-0.61524 0.3418,-1.2793 0,-1.02539 -0.69336,-1.65039 -0.6836,-0.625 -1.82617,-0.625 -0.87891,0 -1.92383,0.38086 -1.04492,0.37109 -2.23633,1.11328 v -3.20312 q 1.26953,-0.41993 2.50977,-0.63477 1.24023,-0.22461 2.43164,-0.22461 2.61718,0 4.0625,1.15234 1.45507,1.15235 1.45507,3.2129 0,1.1914 -0.61523,2.22656 -0.61523,1.02539 -2.58789,2.7539 z"
         style="font-size:20px;line-height:1.39999998"
         id="path1741" />
      <path
         d="m 264.28979,-385.49295 h 6.41602 v 2.76367 h -10.5957 v -2.76367 l 5.32226,-4.69727 q 0.71289,-0.64453 1.05469,-1.25976 0.3418,-0.61524 0.3418,-1.2793 0,-1.02539 -0.69336,-1.65039 -0.6836,-0.625 -1.82617,-0.625 -0.87891,0 -1.92383,0.38086 -1.04492,0.37109 -2.23633,1.11328 v -3.20312 q 1.26953,-0.41993 2.50977,-0.63477 1.24023,-0.22461 2.43164,-0.22461 2.61718,0 4.0625,1.15234 1.45507,1.15235 1.45507,3.2129 0,1.1914 -0.61523,2.22656 -0.61523,1.02539 -2.58789,2.7539 z"
         style="font-size:20px;line-height:1.39999998"
         id="path1743" />
      <path
         d="m 274.03589,-380.09256 q 1.25,-2.32422 1.875,-4.54102 0.625,-2.21679 0.625,-4.375 0,-2.1582 -0.625,-4.36523 -0.625,-2.2168 -1.875,-4.53125 h 2.90039 q 1.48437,2.39258 2.19726,4.58984 0.72266,2.1875 0.72266,4.32618 0,2.13867 -0.71289,4.3164 -0.71289,2.16797 -2.20703,4.58008 z"
         style="font-size:20px;line-height:1.39999998"
         id="path1745" />
    </g>
    <g
       aria-label=" "
       transform="translate(-102.42689,-544.5422)"
       style="color:#000000;font-style:normal;font-variant:normal;font-weight:500;font-stretch:normal;line-height:0%;font-family:Inconsolata;-inkscape-font-specification:'Inconsolata Medium';text-indent:0;text-align:center;text-decoration:none;text-decoration-line:none;letter-spacing:normal;word-spacing:normal;text-transform:none;writing-mode:lr-tb;direction:ltr;baseline-shift:baseline;text-anchor:middle;display:inline;overflow:visible;visibility:visible;opacity:0.75319148;fill:#000000;fill-opacity:1;fill-rule:nonzero;stroke:#2547ff;stroke-width:30;stroke-linecap:round;stroke-linejoin:miter;stroke-miterlimit:4;stroke-dasharray:none;stroke-dashoffset:0;stroke-opacity:1;marker:none;enable-background:accumulate"
       id="text3439" />
    <path
       inkscape:connector-curvature="0"
       id="path3276"
       d="M 309.93286,-39.83354 79.736129,-128.40497"
       style="fill:none;stroke:#000000;stroke-width:1.93961334px;stroke-linecap:butt;stroke-linejoin:miter;stroke-opacity:1"
       sodipodi:nodetypes="cc" />
    <path
       sodipodi:nodetypes="cc"
       style="display:inline;fill:none;stroke:#000000;stroke-width:1.93961322px;stroke-linecap:butt;stroke-linejoin:miter;stroke-opacity:1"
       d="m 603.52307,-117.83354 -240.23929,80"
       id="path3280"
       inkscape:connector-curvature="0" />
    <use
       x="0"
       y="0"
       xlink:href="#layer1-7"
       id="use3003"
       transform="translate(458.56792,80.812206)"
       width="744.09448"
       height="1052.3622" />
    <use
       x="0"
       y="0"
       xlink:href="#layer1-7"
       id="use3413"
       transform="translate(744)"
       width="900.65863"
       height="616.58936" />
    <use
       x="0"
       y="0"
       xlink:href="#layer1-7"
       id="use3403"
       transform="translate(182.28571)"
       width="900.65863"
       height="616.58936" />
  </g>
  <g
     inkscape:groupmode="layer"
     id="layer3"
     inkscape:label="Multicast"
     style="display:inline"
     transform="translate(15.000001,15)">
    <path
       style="color:#000000;display:inline;overflow:visible;visibility:visible;opacity:0.83404254;fill:none;stroke:#0008e9;stroke-width:7;stroke-linecap:butt;stroke-linejoin:miter;stroke-miterlimit:4;stroke-dasharray:7, 7;stroke-dashoffset:0;stroke-opacity:1;marker:none;marker-end:url(#Arrow1Send-6);enable-background:accumulate"
       inkscape:path-effect="#path-effect6016"
       inkscape:original-d="m 218.19295,504.41733 c 40.06774,-26.22659 62.24541,-2.34994 115.13052,-12.21973 57.62216,-11.85036 98.02893,1.09904 147.99181,-40.53371 53.99687,-42.70582 93.12855,-89.36653 90.74522,-137.01254 -0.26866,-25.97877 -3.15439,-60.12074 -14.80965,-87.40425 -10.01775,-23.62216 -34.18817,-10.94419 -19.35543,-34.66047 6.29797,-10.81534 5.66757,-52.10199 15.66817,-58.89529"
       id="path6014"
       d="m 218.19295,504.41733 c 38.43707,-3.47633 76.82009,-7.55023 115.13052,-12.21973 51.16317,-6.23606 103.76351,-14.06835 147.99181,-40.53371 48.64307,-29.10708 83.48483,-80.79282 90.74522,-137.01254 3.85077,-29.81786 -0.0383,-61.21759 -14.80965,-87.40425 -6.51606,-11.5517 -15.10277,-22.098 -19.35543,-34.66047 -3.45134,-10.19537 -3.82384,-21.41096 -1.05657,-31.81287 2.76726,-10.4019 8.66355,-19.94978 16.72474,-27.08242"
       inkscape:connector-curvature="0"
       sodipodi:nodetypes="ccccccc" />
    <path
       inkscape:connector-curvature="0"
       d="m 941.58544,145.92709 c 3.63199,-3.1348 8.13489,-5.24984 12.86652,-6.0435 4.73164,-0.79366 9.67821,-0.26361 14.13427,1.51454 4.9027,1.95638 9.08969,5.32428 13.6571,7.97054 6.98765,4.0485 14.94615,6.40794 23.01127,6.8221 l 10.6156,-1.69251"
       id="path6046"
       inkscape:original-d="m 941.58544,145.92709 c 9.12939,-0.70314 17.68269,-5.97786 27.00079,-4.52896 5.4778,0.76703 9.166,5.22398 13.6571,7.97054 6.6912,4.56728 14.7644,7.92939 23.01127,6.8221 3.5884,-0.15032 7.1562,-0.73064 10.6156,-1.69251"
       inkscape:path-effect="#path-effect6052"
       style="color:#000000;display:inline;overflow:visible;visibility:visible;opacity:0.83404254;fill:none;stroke:#0008e9;stroke-width:7;stroke-linecap:butt;stroke-linejoin:miter;stroke-miterlimit:4;stroke-dasharray:7, 7;stroke-dashoffset:0;stroke-opacity:1;marker:none;marker-end:url(#Arrow1Send-6);enable-background:accumulate" />
    <g
       aria-label="Native multicast with SPT"
       style="color:#000000;font-style:normal;font-variant:normal;font-weight:bold;font-stretch:normal;line-height:0%;font-family:'Bitstream Vera Sans';-inkscape-font-specification:'Bitstream Vera Sans Bold';text-indent:0;text-align:start;text-decoration:none;text-decoration-line:none;letter-spacing:normal;word-spacing:normal;text-transform:none;writing-mode:lr-tb;direction:ltr;text-anchor:start;display:inline;overflow:visible;visibility:visible;opacity:0.89743593;fill:#000000;fill-opacity:1;fill-rule:nonzero;stroke:none;stroke-width:1.3289237;marker:none;enable-background:accumulate"
       id="text6048">
      <path
         d="m 1032.3956,129.24362 h 4.1992 l 5.3028,10 v -10 h 3.5644 v 14.58008 h -4.1992 l -5.3027,-10 v 10 h -3.5645 z"
         style="font-size:20px;line-height:1.39999998"
         id="path1893" />
      <path
         d="m 1053.8995,138.90182 q -1.0937,0 -1.6504,0.3711 -0.5468,0.37109 -0.5468,1.09375 0,0.66406 0.4394,1.04492 0.4492,0.37109 1.2403,0.37109 0.9863,0 1.6601,-0.70312 0.6738,-0.71289 0.6738,-1.77734 v -0.4004 z m 5.3418,-1.31835 v 6.24023 h -3.5254 v -1.62109 q -0.7031,0.99609 -1.582,1.45507 -0.8789,0.44922 -2.1387,0.44922 -1.6992,0 -2.7636,-0.98633 -1.0547,-0.99609 -1.0547,-2.57812 0,-1.92383 1.3183,-2.82227 1.3282,-0.89843 4.1602,-0.89843 h 2.0605 v -0.27344 q 0,-0.83008 -0.6543,-1.21094 -0.6543,-0.39062 -2.041,-0.39062 -1.123,0 -2.0898,0.22461 -0.9668,0.22461 -1.7969,0.67382 v -2.66601 q 1.1231,-0.27344 2.2559,-0.41016 1.1328,-0.14648 2.2656,-0.14648 2.959,0 4.2676,1.17187 1.3183,1.16211 1.3183,3.78907 z"
         style="font-size:20px;line-height:1.39999998"
         id="path1895" />
      <path
         d="m 1066.3312,129.78073 v 3.10547 h 3.6035 v 2.5 h -3.6035 v 4.63867 q 0,0.76172 0.3027,1.03516 0.3027,0.26367 1.2012,0.26367 h 1.7969 v 2.5 h -2.9981 q -2.0703,0 -2.9394,-0.85938 -0.8594,-0.86914 -0.8594,-2.93945 v -4.63867 h -1.7383 v -2.5 h 1.7383 v -3.10547 z"
         style="font-size:20px;line-height:1.39999998"
         id="path1897" />
      <path
         d="m 1072.0831,132.8862 h 3.4961 v 10.9375 h -3.4961 z m 0,-4.25781 h 3.4961 v 2.85156 h -3.4961 z"
         style="font-size:20px;line-height:1.39999998"
         id="path1899" />
      <path
         d="m 1077.5812,132.8862 h 3.4961 l 2.7246,7.55859 2.7148,-7.55859 h 3.5059 l -4.3067,10.9375 h -3.8378 z"
         style="font-size:20px;line-height:1.39999998"
         id="path1901" />
      <path
         d="m 1102.923,138.32565 v 0.9961 h -8.1739 q 0.127,1.23047 0.8887,1.8457 0.7617,0.61523 2.1289,0.61523 1.1035,0 2.2559,-0.32226 1.1621,-0.33203 2.3828,-0.9961 v 2.69532 q -1.2402,0.46875 -2.4805,0.70312 -1.2402,0.24414 -2.4804,0.24414 -2.9688,0 -4.6192,-1.5039 -1.6406,-1.51368 -1.6406,-4.23828 0,-2.67579 1.6113,-4.20899 1.6211,-1.5332 4.4531,-1.5332 2.5782,0 4.1211,1.55273 1.5528,1.55274 1.5528,4.15039 z m -3.5938,-1.16211 q 0,-0.99609 -0.5859,-1.60156 -0.5762,-0.61523 -1.5137,-0.61523 -1.0156,0 -1.6504,0.57617 -0.6347,0.5664 -0.791,1.64062 z"
         style="font-size:20px;line-height:1.39999998"
         id="path1903" />
      <path
         d="m 1122.6495,134.70261 q 0.6641,-1.01563 1.5723,-1.54297 0.918,-0.53711 2.0117,-0.53711 1.8848,0 2.8711,1.16211 0.9863,1.16211 0.9863,3.3789 v 6.66016 h -3.5156 v -5.70313 q 0.01,-0.12695 0.01,-0.26367 0.01,-0.13672 0.01,-0.39062 0,-1.16211 -0.3417,-1.67969 -0.3418,-0.52734 -1.1036,-0.52734 -0.9961,0 -1.5429,0.82031 -0.5371,0.82031 -0.5567,2.37305 v 5.37109 h -3.5156 v -5.70313 q 0,-1.8164 -0.3125,-2.33398 -0.3125,-0.52734 -1.1133,-0.52734 -1.0058,0 -1.5527,0.83007 -0.5469,0.82032 -0.5469,2.35352 v 5.38086 h -3.5156 v -10.9375 h 3.5156 v 1.60156 q 0.6445,-0.92773 1.4746,-1.39648 0.8399,-0.46875 1.8457,-0.46875 1.1328,0 2.002,0.54687 0.8691,0.54688 1.3183,1.53321 z"
         style="font-size:20px;line-height:1.39999998"
         id="path1905" />
      <path
         d="m 1133.255,139.56589 v -6.67969 h 3.5156 v 1.09375 q 0,0.88867 -0.01,2.23633 -0.01,1.33789 -0.01,1.78711 0,1.31836 0.068,1.90429 0.068,0.57618 0.2343,0.83985 0.2149,0.34179 0.5567,0.52734 0.3515,0.18555 0.8008,0.18555 1.0937,0 1.7187,-0.83985 0.625,-0.83984 0.625,-2.33398 v -5.40039 h 3.4961 v 10.9375 h -3.4961 v -1.58203 q -0.791,0.95703 -1.6797,1.41601 -0.8789,0.44922 -1.9433,0.44922 -1.8946,0 -2.8907,-1.16211 -0.9863,-1.16211 -0.9863,-3.3789 z"
         style="font-size:20px;line-height:1.39999998"
         id="path1907" />
      <path
         d="m 1147.63,128.62839 h 3.4961 v 15.19531 h -3.4961 z"
         style="font-size:20px;line-height:1.39999998"
         id="path1909" />
      <path
         d="m 1158.3234,129.78073 v 3.10547 h 3.6035 v 2.5 h -3.6035 v 4.63867 q 0,0.76172 0.3027,1.03516 0.3027,0.26367 1.2012,0.26367 h 1.7968 v 2.5 h -2.998 q -2.0703,0 -2.9395,-0.85938 -0.8593,-0.86914 -0.8593,-2.93945 v -4.63867 h -1.7383 v -2.5 h 1.7383 v -3.10547 z"
         style="font-size:20px;line-height:1.39999998"
         id="path1911" />
      <path
         d="m 1164.0753,132.8862 h 3.4961 v 10.9375 h -3.4961 z m 0,-4.25781 h 3.4961 v 2.85156 h -3.4961 z"
         style="font-size:20px;line-height:1.39999998"
         id="path1913" />
      <path
         d="m 1179.7882,133.228 v 2.85156 q -0.7129,-0.48828 -1.4355,-0.72266 -0.7129,-0.23437 -1.4844,-0.23437 -1.4649,0 -2.2852,0.85937 -0.8105,0.84961 -0.8105,2.38282 0,1.5332 0.8105,2.39257 0.8203,0.84961 2.2852,0.84961 0.8203,0 1.5527,-0.24414 0.7422,-0.24414 1.3672,-0.72265 v 2.86132 q -0.8203,0.30274 -1.6699,0.44922 -0.8399,0.15625 -1.6895,0.15625 -2.959,0 -4.6289,-1.51367 -1.6699,-1.52344 -1.6699,-4.22851 0,-2.70508 1.6699,-4.21875 1.6699,-1.52344 4.6289,-1.52344 0.8594,0 1.6895,0.15625 0.8398,0.14648 1.6699,0.44922 z"
         style="font-size:20px;line-height:1.39999998"
         id="path1915" />
      <path
         d="m 1187.7277,138.90182 q -1.0938,0 -1.6504,0.3711 -0.5469,0.37109 -0.5469,1.09375 0,0.66406 0.4394,1.04492 0.4493,0.37109 1.2403,0.37109 0.9863,0 1.6601,-0.70312 0.6739,-0.71289 0.6739,-1.77734 v -0.4004 z m 5.3418,-1.31835 v 6.24023 h -3.5254 v -1.62109 q -0.7032,0.99609 -1.5821,1.45507 -0.8789,0.44922 -2.1386,0.44922 -1.6993,0 -2.7637,-0.98633 -1.0547,-0.99609 -1.0547,-2.57812 0,-1.92383 1.3184,-2.82227 1.3281,-0.89843 4.1601,-0.89843 h 2.0606 v -0.27344 q 0,-0.83008 -0.6543,-1.21094 -0.6543,-0.39062 -2.041,-0.39062 -1.1231,0 -2.0899,0.22461 -0.9668,0.22461 -1.7969,0.67382 v -2.66601 q 1.1231,-0.27344 2.2559,-0.41016 1.1328,-0.14648 2.2656,-0.14648 2.959,0 4.2676,1.17187 1.3184,1.16211 1.3184,3.78907 z"
         style="font-size:20px;line-height:1.39999998"
         id="path1917" />
      <path
         d="m 1204.8859,133.228 v 2.65625 q -1.1231,-0.46875 -2.168,-0.70313 -1.0449,-0.23437 -1.9727,-0.23437 -0.9961,0 -1.4843,0.2539 -0.4786,0.24414 -0.4786,0.76172 0,0.41992 0.3614,0.64453 0.3711,0.22461 1.3183,0.33203 l 0.6153,0.0879 q 2.6855,0.3418 3.6133,1.12305 0.9277,0.78125 0.9277,2.45117 0,1.74805 -1.2891,2.62696 -1.289,0.8789 -3.8476,0.8789 -1.084,0 -2.2461,-0.17578 -1.1524,-0.16601 -2.3731,-0.50781 v -2.65625 q 1.0449,0.50781 2.1387,0.76172 1.1035,0.2539 2.2363,0.2539 1.0254,0 1.543,-0.2832 0.5176,-0.2832 0.5176,-0.83984 0,-0.46875 -0.3614,-0.69336 -0.3515,-0.23438 -1.416,-0.36133 l -0.6152,-0.0781 q -2.334,-0.29296 -3.2715,-1.08398 -0.9375,-0.79102 -0.9375,-2.40234 0,-1.73828 1.1914,-2.57813 1.1914,-0.83984 3.6524,-0.83984 0.9668,0 2.0312,0.14648 1.0645,0.14649 2.3145,0.45899 z"
         style="font-size:20px;line-height:1.39999998"
         id="path1919" />
      <path
         d="m 1212.0734,129.78073 v 3.10547 h 3.6035 v 2.5 h -3.6035 v 4.63867 q 0,0.76172 0.3027,1.03516 0.3027,0.26367 1.2012,0.26367 h 1.7968 v 2.5 h -2.998 q -2.0703,0 -2.9395,-0.85938 -0.8593,-0.86914 -0.8593,-2.93945 v -4.63867 h -1.7383 v -2.5 h 1.7383 v -3.10547 z"
         style="font-size:20px;line-height:1.39999998"
         id="path1921" />
      <path
         d="m 1031.2628,160.8862 h 3.3985 l 1.8359,7.53906 1.8457,-7.53906 h 2.9199 l 1.836,7.46094 1.8457,-7.46094 h 3.3984 l -2.8809,10.9375 h -3.8183 l -1.8457,-7.51953 -1.836,7.51953 h -3.8183 z"
         style="font-size:20px;line-height:1.39999998"
         id="path1923" />
      <path
         d="m 1050.7159,160.8862 h 3.4961 v 10.9375 h -3.4961 z m 0,-4.25781 h 3.4961 v 2.85156 h -3.4961 z"
         style="font-size:20px;line-height:1.39999998"
         id="path1925" />
      <path
         d="m 1061.4093,157.78073 v 3.10547 h 3.6035 v 2.5 h -3.6035 v 4.63867 q 0,0.76172 0.3027,1.03516 0.3028,0.26367 1.2012,0.26367 h 1.7969 v 2.5 h -2.9981 q -2.0703,0 -2.9394,-0.85938 -0.8594,-0.86914 -0.8594,-2.93945 v -4.63867 h -1.7383 v -2.5 h 1.7383 v -3.10547 z"
         style="font-size:20px;line-height:1.39999998"
         id="path1927" />
      <path
         d="m 1078.1573,165.16354 v 6.66016 h -3.5156 v -1.08398 -3.99415 q 0,-1.43554 -0.068,-1.97265 -0.059,-0.53711 -0.2149,-0.79102 -0.2051,-0.34179 -0.5566,-0.52734 -0.3516,-0.19531 -0.8008,-0.19531 -1.0938,0 -1.7188,0.84961 -0.625,0.83984 -0.625,2.33398 v 5.38086 h -3.496 v -15.19531 h 3.496 v 5.85937 q 0.7911,-0.95703 1.6797,-1.40625 0.8887,-0.45898 1.9629,-0.45898 1.8946,0 2.8711,1.16211 0.9863,1.16211 0.9863,3.3789 z"
         style="font-size:20px;line-height:1.39999998"
         id="path1929" />
      <path
         d="m 1098.6749,157.70261 v 3.08593 q -1.2011,-0.53711 -2.3437,-0.81054 -1.1426,-0.27344 -2.1582,-0.27344 -1.3477,0 -1.9922,0.37109 -0.6445,0.3711 -0.6445,1.15235 0,0.58593 0.4296,0.91797 0.4395,0.32226 1.5821,0.55664 l 1.6015,0.32226 q 2.4317,0.48828 3.4571,1.48438 1.0254,0.99609 1.0254,2.83203 0,2.41211 -1.4356,3.59375 -1.4258,1.17187 -4.3652,1.17187 -1.3867,0 -2.7832,-0.26367 -1.3965,-0.26367 -2.793,-0.78125 v -3.17383 q 1.3965,0.74219 2.6953,1.12305 1.3086,0.37109 2.5195,0.37109 1.2305,0 1.8848,-0.41015 0.6543,-0.41016 0.6543,-1.17188 0,-0.68359 -0.4492,-1.05469 -0.4395,-0.37109 -1.7676,-0.66406 l -1.4551,-0.32226 q -2.1875,-0.46875 -3.2031,-1.49414 -1.0058,-1.02539 -1.0058,-2.76368 0,-2.17773 1.4062,-3.34961 1.4063,-1.17187 4.043,-1.17187 1.2011,0 2.4707,0.18555 1.2695,0.17578 2.6269,0.53711 z"
         style="font-size:20px;line-height:1.39999998"
         id="path1931" />
      <path
         d="m 1102.9425,157.24362 h 6.2402 q 2.7832,0 4.2676,1.24024 1.4942,1.23046 1.4942,3.51562 0,2.29492 -1.4942,3.53516 -1.4844,1.23047 -4.2676,1.23047 h -2.4804 v 5.05859 h -3.7598 z m 3.7598,2.72461 v 4.07227 h 2.08 q 1.0938,0 1.6895,-0.52735 0.5957,-0.53711 0.5957,-1.51367 0,-0.97656 -0.5957,-1.50391 -0.5957,-0.52734 -1.6895,-0.52734 z"
         style="font-size:20px;line-height:1.39999998"
         id="path1933" />
      <path
         d="m 1115.8527,157.24362 h 13.4375 v 2.8418 h -4.834 v 11.73828 h -3.7598 v -11.73828 h -4.8437 z"
         style="font-size:20px;line-height:1.39999998"
         id="path1935" />
    </g>
    <path
       style="color:#000000;display:inline;overflow:visible;visibility:visible;opacity:0.83404254;fill:none;stroke:#0008e9;stroke-width:7;stroke-linecap:butt;stroke-linejoin:miter;stroke-miterlimit:4;stroke-dasharray:7, 7;stroke-dashoffset:0;stroke-opacity:1;marker:none;marker-end:url(#Arrow1Send-6);enable-background:accumulate"
       inkscape:path-effect="#path-effect6084"
       inkscape:original-d="m 168.69547,556.94526 c 105.09997,82.97239 78.6419,52.6881 171.57572,82.1296 79.41834,21.44523 478.07994,-18.15692 555.7073,-56.3475 62.41652,-27.31345 25.10173,-33.25432 95.92547,-17.67379 19.80184,4.04331 40.82894,7.88909 60.67504,1.99321"
       id="path6082"
       d="m 168.69547,556.94526 c 51.23576,38.01295 109.83471,66.06301 171.57572,82.1296 91.13534,23.71576 187.39071,21.15189 280.45526,6.76171 93.06455,-14.39018 183.8831,-40.30999 275.25204,-63.10921 31.58858,-7.88227 63.44608,-15.42492 95.92547,-17.67379 20.22264,-1.40021 40.58794,-0.7312 60.67504,1.99321"
       inkscape:connector-curvature="0"
       sodipodi:nodetypes="ccccc" />
  </g>
  <g
     inkscape:groupmode="layer"
     id="layer2"
     inkscape:label="Addressing"
     style="display:inline"
     transform="translate(15.000001,15)" />
</svg>
